G04 #@! TF.GenerationSoftware,KiCad,Pcbnew,(5.1.2)-2*
G04 #@! TF.CreationDate,2021-03-17T00:24:42+02:00*
G04 #@! TF.ProjectId,extension_board,65787465-6e73-4696-9f6e-5f626f617264,rev?*
G04 #@! TF.SameCoordinates,Original*
G04 #@! TF.FileFunction,Soldermask,Top*
G04 #@! TF.FilePolarity,Negative*
%FSLAX46Y46*%
G04 Gerber Fmt 4.6, Leading zero omitted, Abs format (unit mm)*
G04 Created by KiCad (PCBNEW (5.1.2)-2) date 2021-03-17 00:24:42*
%MOMM*%
%LPD*%
G04 APERTURE LIST*
%ADD10C,0.100000*%
G04 APERTURE END LIST*
D10*
G36*
X25461000Y-151681000D02*
G01*
X22209000Y-151681000D01*
X22209000Y-150579000D01*
X25461000Y-150579000D01*
X25461000Y-151681000D01*
X25461000Y-151681000D01*
G37*
G36*
X20411000Y-151681000D02*
G01*
X17159000Y-151681000D01*
X17159000Y-150579000D01*
X20411000Y-150579000D01*
X20411000Y-151681000D01*
X20411000Y-151681000D01*
G37*
G36*
X-929000Y-151046000D02*
G01*
X-4181000Y-151046000D01*
X-4181000Y-149944000D01*
X-929000Y-149944000D01*
X-929000Y-151046000D01*
X-929000Y-151046000D01*
G37*
G36*
X-5979000Y-151046000D02*
G01*
X-9231000Y-151046000D01*
X-9231000Y-149944000D01*
X-5979000Y-149944000D01*
X-5979000Y-151046000D01*
X-5979000Y-151046000D01*
G37*
G36*
X-31719682Y-147435153D02*
G01*
X-31501115Y-147525687D01*
X-31501113Y-147525688D01*
X-31304407Y-147657122D01*
X-31137122Y-147824407D01*
X-31005688Y-148021113D01*
X-31005687Y-148021115D01*
X-30915153Y-148239682D01*
X-30869000Y-148471710D01*
X-30869000Y-148708290D01*
X-30915153Y-148940318D01*
X-30998279Y-149141000D01*
X-31005688Y-149158887D01*
X-31137122Y-149355593D01*
X-31304407Y-149522878D01*
X-31501113Y-149654312D01*
X-31501114Y-149654313D01*
X-31501115Y-149654313D01*
X-31719682Y-149744847D01*
X-31951710Y-149791000D01*
X-32188290Y-149791000D01*
X-32420318Y-149744847D01*
X-32638885Y-149654313D01*
X-32638886Y-149654313D01*
X-32638887Y-149654312D01*
X-32835593Y-149522878D01*
X-33002878Y-149355593D01*
X-33134312Y-149158887D01*
X-33141721Y-149141000D01*
X-33224847Y-148940318D01*
X-33271000Y-148708290D01*
X-33271000Y-148471710D01*
X-33224847Y-148239682D01*
X-33134313Y-148021115D01*
X-33134312Y-148021113D01*
X-33002878Y-147824407D01*
X-32835593Y-147657122D01*
X-32638887Y-147525688D01*
X-32638885Y-147525687D01*
X-32420318Y-147435153D01*
X-32188290Y-147389000D01*
X-31951710Y-147389000D01*
X-31719682Y-147435153D01*
X-31719682Y-147435153D01*
G37*
G36*
X-35999000Y-149741000D02*
G01*
X-38301000Y-149741000D01*
X-38301000Y-147439000D01*
X-35999000Y-147439000D01*
X-35999000Y-149741000D01*
X-35999000Y-149741000D01*
G37*
G36*
X20411000Y-149141000D02*
G01*
X17159000Y-149141000D01*
X17159000Y-148039000D01*
X20411000Y-148039000D01*
X20411000Y-149141000D01*
X20411000Y-149141000D01*
G37*
G36*
X25461000Y-149141000D02*
G01*
X22209000Y-149141000D01*
X22209000Y-148039000D01*
X25461000Y-148039000D01*
X25461000Y-149141000D01*
X25461000Y-149141000D01*
G37*
G36*
X-929000Y-148506000D02*
G01*
X-4181000Y-148506000D01*
X-4181000Y-147404000D01*
X-929000Y-147404000D01*
X-929000Y-148506000D01*
X-929000Y-148506000D01*
G37*
G36*
X-5979000Y-148506000D02*
G01*
X-9231000Y-148506000D01*
X-9231000Y-147404000D01*
X-5979000Y-147404000D01*
X-5979000Y-148506000D01*
X-5979000Y-148506000D01*
G37*
G36*
X25461000Y-146601000D02*
G01*
X22209000Y-146601000D01*
X22209000Y-145499000D01*
X25461000Y-145499000D01*
X25461000Y-146601000D01*
X25461000Y-146601000D01*
G37*
G36*
X20411000Y-146601000D02*
G01*
X17159000Y-146601000D01*
X17159000Y-145499000D01*
X20411000Y-145499000D01*
X20411000Y-146601000D01*
X20411000Y-146601000D01*
G37*
G36*
X-5979000Y-145966000D02*
G01*
X-9231000Y-145966000D01*
X-9231000Y-144864000D01*
X-5979000Y-144864000D01*
X-5979000Y-145966000D01*
X-5979000Y-145966000D01*
G37*
G36*
X-929000Y-145966000D02*
G01*
X-4181000Y-145966000D01*
X-4181000Y-144864000D01*
X-929000Y-144864000D01*
X-929000Y-145966000D01*
X-929000Y-145966000D01*
G37*
G36*
X25461000Y-144061000D02*
G01*
X22209000Y-144061000D01*
X22209000Y-142959000D01*
X25461000Y-142959000D01*
X25461000Y-144061000D01*
X25461000Y-144061000D01*
G37*
G36*
X20411000Y-144061000D02*
G01*
X17159000Y-144061000D01*
X17159000Y-142959000D01*
X20411000Y-142959000D01*
X20411000Y-144061000D01*
X20411000Y-144061000D01*
G37*
G36*
X-5979000Y-143426000D02*
G01*
X-9231000Y-143426000D01*
X-9231000Y-142324000D01*
X-5979000Y-142324000D01*
X-5979000Y-143426000D01*
X-5979000Y-143426000D01*
G37*
G36*
X-929000Y-143426000D02*
G01*
X-4181000Y-143426000D01*
X-4181000Y-142324000D01*
X-929000Y-142324000D01*
X-929000Y-143426000D01*
X-929000Y-143426000D01*
G37*
G36*
X20411000Y-141521000D02*
G01*
X17159000Y-141521000D01*
X17159000Y-140419000D01*
X20411000Y-140419000D01*
X20411000Y-141521000D01*
X20411000Y-141521000D01*
G37*
G36*
X25461000Y-141521000D02*
G01*
X22209000Y-141521000D01*
X22209000Y-140419000D01*
X25461000Y-140419000D01*
X25461000Y-141521000D01*
X25461000Y-141521000D01*
G37*
G36*
X-929000Y-140886000D02*
G01*
X-4181000Y-140886000D01*
X-4181000Y-139784000D01*
X-929000Y-139784000D01*
X-929000Y-140886000D01*
X-929000Y-140886000D01*
G37*
G36*
X-5979000Y-140886000D02*
G01*
X-9231000Y-140886000D01*
X-9231000Y-139784000D01*
X-5979000Y-139784000D01*
X-5979000Y-140886000D01*
X-5979000Y-140886000D01*
G37*
G36*
X25461000Y-138981000D02*
G01*
X22209000Y-138981000D01*
X22209000Y-137879000D01*
X25461000Y-137879000D01*
X25461000Y-138981000D01*
X25461000Y-138981000D01*
G37*
G36*
X20411000Y-138981000D02*
G01*
X17159000Y-138981000D01*
X17159000Y-137879000D01*
X20411000Y-137879000D01*
X20411000Y-138981000D01*
X20411000Y-138981000D01*
G37*
G36*
X-5979000Y-138346000D02*
G01*
X-9231000Y-138346000D01*
X-9231000Y-137244000D01*
X-5979000Y-137244000D01*
X-5979000Y-138346000D01*
X-5979000Y-138346000D01*
G37*
G36*
X-929000Y-138346000D02*
G01*
X-4181000Y-138346000D01*
X-4181000Y-137244000D01*
X-929000Y-137244000D01*
X-929000Y-138346000D01*
X-929000Y-138346000D01*
G37*
G36*
X-33544003Y-135821051D02*
G01*
X-33510348Y-135831261D01*
X-33479335Y-135847838D01*
X-33452149Y-135870149D01*
X-33429838Y-135897335D01*
X-33413261Y-135928348D01*
X-33403051Y-135962003D01*
X-33399000Y-136003138D01*
X-33399000Y-137332862D01*
X-33403051Y-137373997D01*
X-33413261Y-137407652D01*
X-33429838Y-137438665D01*
X-33452149Y-137465851D01*
X-33479335Y-137488162D01*
X-33510348Y-137504739D01*
X-33544003Y-137514949D01*
X-33585138Y-137519000D01*
X-35914862Y-137519000D01*
X-35955997Y-137514949D01*
X-35989652Y-137504739D01*
X-36020665Y-137488162D01*
X-36047851Y-137465851D01*
X-36070162Y-137438665D01*
X-36086739Y-137407652D01*
X-36096949Y-137373997D01*
X-36101000Y-137332862D01*
X-36101000Y-136003138D01*
X-36096949Y-135962003D01*
X-36086739Y-135928348D01*
X-36070162Y-135897335D01*
X-36047851Y-135870149D01*
X-36020665Y-135847838D01*
X-35989652Y-135831261D01*
X-35955997Y-135821051D01*
X-35914862Y-135817000D01*
X-33585138Y-135817000D01*
X-33544003Y-135821051D01*
X-33544003Y-135821051D01*
G37*
G36*
X-37144003Y-135821051D02*
G01*
X-37110348Y-135831261D01*
X-37079335Y-135847838D01*
X-37052149Y-135870149D01*
X-37029838Y-135897335D01*
X-37013261Y-135928348D01*
X-37003051Y-135962003D01*
X-36999000Y-136003138D01*
X-36999000Y-137332862D01*
X-37003051Y-137373997D01*
X-37013261Y-137407652D01*
X-37029838Y-137438665D01*
X-37052149Y-137465851D01*
X-37079335Y-137488162D01*
X-37110348Y-137504739D01*
X-37144003Y-137514949D01*
X-37185138Y-137519000D01*
X-39514862Y-137519000D01*
X-39555997Y-137514949D01*
X-39589652Y-137504739D01*
X-39620665Y-137488162D01*
X-39647851Y-137465851D01*
X-39670162Y-137438665D01*
X-39686739Y-137407652D01*
X-39696949Y-137373997D01*
X-39701000Y-137332862D01*
X-39701000Y-136003138D01*
X-39696949Y-135962003D01*
X-39686739Y-135928348D01*
X-39670162Y-135897335D01*
X-39647851Y-135870149D01*
X-39620665Y-135847838D01*
X-39589652Y-135831261D01*
X-39555997Y-135821051D01*
X-39514862Y-135817000D01*
X-37185138Y-135817000D01*
X-37144003Y-135821051D01*
X-37144003Y-135821051D01*
G37*
G36*
X20411000Y-136441000D02*
G01*
X17159000Y-136441000D01*
X17159000Y-135339000D01*
X20411000Y-135339000D01*
X20411000Y-136441000D01*
X20411000Y-136441000D01*
G37*
G36*
X25461000Y-136441000D02*
G01*
X22209000Y-136441000D01*
X22209000Y-135339000D01*
X25461000Y-135339000D01*
X25461000Y-136441000D01*
X25461000Y-136441000D01*
G37*
G36*
X-5979000Y-135806000D02*
G01*
X-9231000Y-135806000D01*
X-9231000Y-134704000D01*
X-5979000Y-134704000D01*
X-5979000Y-135806000D01*
X-5979000Y-135806000D01*
G37*
G36*
X-929000Y-135806000D02*
G01*
X-4181000Y-135806000D01*
X-4181000Y-134704000D01*
X-929000Y-134704000D01*
X-929000Y-135806000D01*
X-929000Y-135806000D01*
G37*
G36*
X-26696326Y-132603465D02*
G01*
X-26658633Y-132614899D01*
X-26623897Y-132633466D01*
X-26593452Y-132658452D01*
X-26568466Y-132688897D01*
X-26549899Y-132723633D01*
X-26538465Y-132761326D01*
X-26534000Y-132806661D01*
X-26534000Y-133893339D01*
X-26538465Y-133938674D01*
X-26549899Y-133976367D01*
X-26568466Y-134011103D01*
X-26593452Y-134041548D01*
X-26623897Y-134066534D01*
X-26658633Y-134085101D01*
X-26696326Y-134096535D01*
X-26741661Y-134101000D01*
X-27578339Y-134101000D01*
X-27623674Y-134096535D01*
X-27661367Y-134085101D01*
X-27696103Y-134066534D01*
X-27726548Y-134041548D01*
X-27751534Y-134011103D01*
X-27770101Y-133976367D01*
X-27781535Y-133938674D01*
X-27786000Y-133893339D01*
X-27786000Y-132806661D01*
X-27781535Y-132761326D01*
X-27770101Y-132723633D01*
X-27751534Y-132688897D01*
X-27726548Y-132658452D01*
X-27696103Y-132633466D01*
X-27661367Y-132614899D01*
X-27623674Y-132603465D01*
X-27578339Y-132599000D01*
X-26741661Y-132599000D01*
X-26696326Y-132603465D01*
X-26696326Y-132603465D01*
G37*
G36*
X-22151326Y-132603465D02*
G01*
X-22113633Y-132614899D01*
X-22078897Y-132633466D01*
X-22048452Y-132658452D01*
X-22023466Y-132688897D01*
X-22004899Y-132723633D01*
X-21993465Y-132761326D01*
X-21989000Y-132806661D01*
X-21989000Y-133893339D01*
X-21993465Y-133938674D01*
X-22004899Y-133976367D01*
X-22023466Y-134011103D01*
X-22048452Y-134041548D01*
X-22078897Y-134066534D01*
X-22113633Y-134085101D01*
X-22151326Y-134096535D01*
X-22196661Y-134101000D01*
X-23033339Y-134101000D01*
X-23078674Y-134096535D01*
X-23116367Y-134085101D01*
X-23151103Y-134066534D01*
X-23181548Y-134041548D01*
X-23206534Y-134011103D01*
X-23225101Y-133976367D01*
X-23236535Y-133938674D01*
X-23241000Y-133893339D01*
X-23241000Y-132806661D01*
X-23236535Y-132761326D01*
X-23225101Y-132723633D01*
X-23206534Y-132688897D01*
X-23181548Y-132658452D01*
X-23151103Y-132633466D01*
X-23116367Y-132614899D01*
X-23078674Y-132603465D01*
X-23033339Y-132599000D01*
X-22196661Y-132599000D01*
X-22151326Y-132603465D01*
X-22151326Y-132603465D01*
G37*
G36*
X-28746326Y-132603465D02*
G01*
X-28708633Y-132614899D01*
X-28673897Y-132633466D01*
X-28643452Y-132658452D01*
X-28618466Y-132688897D01*
X-28599899Y-132723633D01*
X-28588465Y-132761326D01*
X-28584000Y-132806661D01*
X-28584000Y-133893339D01*
X-28588465Y-133938674D01*
X-28599899Y-133976367D01*
X-28618466Y-134011103D01*
X-28643452Y-134041548D01*
X-28673897Y-134066534D01*
X-28708633Y-134085101D01*
X-28746326Y-134096535D01*
X-28791661Y-134101000D01*
X-29628339Y-134101000D01*
X-29673674Y-134096535D01*
X-29711367Y-134085101D01*
X-29746103Y-134066534D01*
X-29776548Y-134041548D01*
X-29801534Y-134011103D01*
X-29820101Y-133976367D01*
X-29831535Y-133938674D01*
X-29836000Y-133893339D01*
X-29836000Y-132806661D01*
X-29831535Y-132761326D01*
X-29820101Y-132723633D01*
X-29801534Y-132688897D01*
X-29776548Y-132658452D01*
X-29746103Y-132633466D01*
X-29711367Y-132614899D01*
X-29673674Y-132603465D01*
X-29628339Y-132599000D01*
X-28791661Y-132599000D01*
X-28746326Y-132603465D01*
X-28746326Y-132603465D01*
G37*
G36*
X-20101326Y-132603465D02*
G01*
X-20063633Y-132614899D01*
X-20028897Y-132633466D01*
X-19998452Y-132658452D01*
X-19973466Y-132688897D01*
X-19954899Y-132723633D01*
X-19943465Y-132761326D01*
X-19939000Y-132806661D01*
X-19939000Y-133893339D01*
X-19943465Y-133938674D01*
X-19954899Y-133976367D01*
X-19973466Y-134011103D01*
X-19998452Y-134041548D01*
X-20028897Y-134066534D01*
X-20063633Y-134085101D01*
X-20101326Y-134096535D01*
X-20146661Y-134101000D01*
X-20983339Y-134101000D01*
X-21028674Y-134096535D01*
X-21066367Y-134085101D01*
X-21101103Y-134066534D01*
X-21131548Y-134041548D01*
X-21156534Y-134011103D01*
X-21175101Y-133976367D01*
X-21186535Y-133938674D01*
X-21191000Y-133893339D01*
X-21191000Y-132806661D01*
X-21186535Y-132761326D01*
X-21175101Y-132723633D01*
X-21156534Y-132688897D01*
X-21131548Y-132658452D01*
X-21101103Y-132633466D01*
X-21066367Y-132614899D01*
X-21028674Y-132603465D01*
X-20983339Y-132599000D01*
X-20146661Y-132599000D01*
X-20101326Y-132603465D01*
X-20101326Y-132603465D01*
G37*
G36*
X25461000Y-133901000D02*
G01*
X22209000Y-133901000D01*
X22209000Y-132799000D01*
X25461000Y-132799000D01*
X25461000Y-133901000D01*
X25461000Y-133901000D01*
G37*
G36*
X20411000Y-133901000D02*
G01*
X17159000Y-133901000D01*
X17159000Y-132799000D01*
X20411000Y-132799000D01*
X20411000Y-133901000D01*
X20411000Y-133901000D01*
G37*
G36*
X-929000Y-133266000D02*
G01*
X-4181000Y-133266000D01*
X-4181000Y-132164000D01*
X-929000Y-132164000D01*
X-929000Y-133266000D01*
X-929000Y-133266000D01*
G37*
G36*
X-5979000Y-133266000D02*
G01*
X-9231000Y-133266000D01*
X-9231000Y-132164000D01*
X-5979000Y-132164000D01*
X-5979000Y-133266000D01*
X-5979000Y-133266000D01*
G37*
G36*
X25461000Y-131361000D02*
G01*
X22209000Y-131361000D01*
X22209000Y-130259000D01*
X25461000Y-130259000D01*
X25461000Y-131361000D01*
X25461000Y-131361000D01*
G37*
G36*
X20411000Y-131361000D02*
G01*
X17159000Y-131361000D01*
X17159000Y-130259000D01*
X20411000Y-130259000D01*
X20411000Y-131361000D01*
X20411000Y-131361000D01*
G37*
G36*
X-5979000Y-130726000D02*
G01*
X-9231000Y-130726000D01*
X-9231000Y-129624000D01*
X-5979000Y-129624000D01*
X-5979000Y-130726000D01*
X-5979000Y-130726000D01*
G37*
G36*
X-929000Y-130726000D02*
G01*
X-4181000Y-130726000D01*
X-4181000Y-129624000D01*
X-929000Y-129624000D01*
X-929000Y-130726000D01*
X-929000Y-130726000D01*
G37*
G36*
X20411000Y-128821000D02*
G01*
X17159000Y-128821000D01*
X17159000Y-127719000D01*
X20411000Y-127719000D01*
X20411000Y-128821000D01*
X20411000Y-128821000D01*
G37*
G36*
X25461000Y-128821000D02*
G01*
X22209000Y-128821000D01*
X22209000Y-127719000D01*
X25461000Y-127719000D01*
X25461000Y-128821000D01*
X25461000Y-128821000D01*
G37*
G36*
X-929000Y-128186000D02*
G01*
X-4181000Y-128186000D01*
X-4181000Y-127084000D01*
X-929000Y-127084000D01*
X-929000Y-128186000D01*
X-929000Y-128186000D01*
G37*
G36*
X-5979000Y-128186000D02*
G01*
X-9231000Y-128186000D01*
X-9231000Y-127084000D01*
X-5979000Y-127084000D01*
X-5979000Y-128186000D01*
X-5979000Y-128186000D01*
G37*
G36*
X-29849000Y-127551000D02*
G01*
X-33101000Y-127551000D01*
X-33101000Y-126449000D01*
X-29849000Y-126449000D01*
X-29849000Y-127551000D01*
X-29849000Y-127551000D01*
G37*
G36*
X-34899000Y-127551000D02*
G01*
X-38151000Y-127551000D01*
X-38151000Y-126449000D01*
X-34899000Y-126449000D01*
X-34899000Y-127551000D01*
X-34899000Y-127551000D01*
G37*
G36*
X25461000Y-126281000D02*
G01*
X22209000Y-126281000D01*
X22209000Y-125179000D01*
X25461000Y-125179000D01*
X25461000Y-126281000D01*
X25461000Y-126281000D01*
G37*
G36*
X20411000Y-126281000D02*
G01*
X17159000Y-126281000D01*
X17159000Y-125179000D01*
X20411000Y-125179000D01*
X20411000Y-126281000D01*
X20411000Y-126281000D01*
G37*
G36*
X-5979000Y-125646000D02*
G01*
X-9231000Y-125646000D01*
X-9231000Y-124544000D01*
X-5979000Y-124544000D01*
X-5979000Y-125646000D01*
X-5979000Y-125646000D01*
G37*
G36*
X-929000Y-125646000D02*
G01*
X-4181000Y-125646000D01*
X-4181000Y-124544000D01*
X-929000Y-124544000D01*
X-929000Y-125646000D01*
X-929000Y-125646000D01*
G37*
G36*
X-29849000Y-125011000D02*
G01*
X-33101000Y-125011000D01*
X-33101000Y-123909000D01*
X-29849000Y-123909000D01*
X-29849000Y-125011000D01*
X-29849000Y-125011000D01*
G37*
G36*
X-34899000Y-125011000D02*
G01*
X-38151000Y-125011000D01*
X-38151000Y-123909000D01*
X-34899000Y-123909000D01*
X-34899000Y-125011000D01*
X-34899000Y-125011000D01*
G37*
G36*
X20411000Y-123741000D02*
G01*
X17159000Y-123741000D01*
X17159000Y-122639000D01*
X20411000Y-122639000D01*
X20411000Y-123741000D01*
X20411000Y-123741000D01*
G37*
G36*
X25461000Y-123741000D02*
G01*
X22209000Y-123741000D01*
X22209000Y-122639000D01*
X25461000Y-122639000D01*
X25461000Y-123741000D01*
X25461000Y-123741000D01*
G37*
G36*
X-929000Y-123106000D02*
G01*
X-4181000Y-123106000D01*
X-4181000Y-122004000D01*
X-929000Y-122004000D01*
X-929000Y-123106000D01*
X-929000Y-123106000D01*
G37*
G36*
X-5979000Y-123106000D02*
G01*
X-9231000Y-123106000D01*
X-9231000Y-122004000D01*
X-5979000Y-122004000D01*
X-5979000Y-123106000D01*
X-5979000Y-123106000D01*
G37*
G36*
X-29849000Y-122471000D02*
G01*
X-33101000Y-122471000D01*
X-33101000Y-121369000D01*
X-29849000Y-121369000D01*
X-29849000Y-122471000D01*
X-29849000Y-122471000D01*
G37*
G36*
X-34899000Y-122471000D02*
G01*
X-38151000Y-122471000D01*
X-38151000Y-121369000D01*
X-34899000Y-121369000D01*
X-34899000Y-122471000D01*
X-34899000Y-122471000D01*
G37*
G36*
X25461000Y-121201000D02*
G01*
X22209000Y-121201000D01*
X22209000Y-120099000D01*
X25461000Y-120099000D01*
X25461000Y-121201000D01*
X25461000Y-121201000D01*
G37*
G36*
X20411000Y-121201000D02*
G01*
X17159000Y-121201000D01*
X17159000Y-120099000D01*
X20411000Y-120099000D01*
X20411000Y-121201000D01*
X20411000Y-121201000D01*
G37*
G36*
X-5979000Y-120566000D02*
G01*
X-9231000Y-120566000D01*
X-9231000Y-119464000D01*
X-5979000Y-119464000D01*
X-5979000Y-120566000D01*
X-5979000Y-120566000D01*
G37*
G36*
X-929000Y-120566000D02*
G01*
X-4181000Y-120566000D01*
X-4181000Y-119464000D01*
X-929000Y-119464000D01*
X-929000Y-120566000D01*
X-929000Y-120566000D01*
G37*
G36*
X25461000Y-118661000D02*
G01*
X22209000Y-118661000D01*
X22209000Y-117559000D01*
X25461000Y-117559000D01*
X25461000Y-118661000D01*
X25461000Y-118661000D01*
G37*
G36*
X20411000Y-118661000D02*
G01*
X17159000Y-118661000D01*
X17159000Y-117559000D01*
X20411000Y-117559000D01*
X20411000Y-118661000D01*
X20411000Y-118661000D01*
G37*
G36*
X-5979000Y-118026000D02*
G01*
X-9231000Y-118026000D01*
X-9231000Y-116924000D01*
X-5979000Y-116924000D01*
X-5979000Y-118026000D01*
X-5979000Y-118026000D01*
G37*
G36*
X-929000Y-118026000D02*
G01*
X-4181000Y-118026000D01*
X-4181000Y-116924000D01*
X-929000Y-116924000D01*
X-929000Y-118026000D01*
X-929000Y-118026000D01*
G37*
G36*
X20411000Y-116121000D02*
G01*
X17159000Y-116121000D01*
X17159000Y-115019000D01*
X20411000Y-115019000D01*
X20411000Y-116121000D01*
X20411000Y-116121000D01*
G37*
G36*
X25461000Y-116121000D02*
G01*
X22209000Y-116121000D01*
X22209000Y-115019000D01*
X25461000Y-115019000D01*
X25461000Y-116121000D01*
X25461000Y-116121000D01*
G37*
G36*
X25461000Y-113581000D02*
G01*
X22209000Y-113581000D01*
X22209000Y-112479000D01*
X25461000Y-112479000D01*
X25461000Y-113581000D01*
X25461000Y-113581000D01*
G37*
G36*
X20411000Y-113581000D02*
G01*
X17159000Y-113581000D01*
X17159000Y-112479000D01*
X20411000Y-112479000D01*
X20411000Y-113581000D01*
X20411000Y-113581000D01*
G37*
G36*
X25461000Y-111041000D02*
G01*
X22209000Y-111041000D01*
X22209000Y-109939000D01*
X25461000Y-109939000D01*
X25461000Y-111041000D01*
X25461000Y-111041000D01*
G37*
G36*
X20411000Y-111041000D02*
G01*
X17159000Y-111041000D01*
X17159000Y-109939000D01*
X20411000Y-109939000D01*
X20411000Y-111041000D01*
X20411000Y-111041000D01*
G37*
G36*
X-14008000Y-109318000D02*
G01*
X-15710000Y-109318000D01*
X-15710000Y-107716000D01*
X-14008000Y-107716000D01*
X-14008000Y-109318000D01*
X-14008000Y-109318000D01*
G37*
G36*
X-3263000Y-106113000D02*
G01*
X-3427340Y-106113000D01*
X-3451726Y-106115402D01*
X-3475175Y-106122515D01*
X-3496786Y-106134066D01*
X-3515728Y-106149611D01*
X-3531273Y-106168553D01*
X-3542824Y-106190164D01*
X-3549937Y-106213613D01*
X-3552339Y-106237999D01*
X-3549937Y-106262385D01*
X-3542824Y-106285834D01*
X-3531273Y-106307445D01*
X-3515728Y-106326387D01*
X-3506655Y-106334609D01*
X-3429736Y-106397736D01*
X-3357756Y-106485443D01*
X-3323571Y-106549399D01*
X-3304272Y-106585505D01*
X-3304271Y-106585508D01*
X-3271334Y-106694084D01*
X-3260213Y-106807000D01*
X-3271334Y-106919916D01*
X-3304271Y-107028492D01*
X-3304272Y-107028495D01*
X-3323571Y-107064601D01*
X-3357756Y-107128557D01*
X-3429736Y-107216264D01*
X-3517443Y-107288244D01*
X-3584053Y-107323847D01*
X-3598859Y-107331761D01*
X-3619234Y-107345375D01*
X-3636561Y-107362702D01*
X-3650174Y-107383076D01*
X-3659552Y-107405715D01*
X-3664332Y-107429748D01*
X-3664332Y-107454252D01*
X-3659552Y-107478285D01*
X-3650174Y-107500924D01*
X-3636560Y-107521299D01*
X-3619233Y-107538626D01*
X-3598859Y-107552239D01*
X-3517443Y-107595756D01*
X-3429736Y-107667736D01*
X-3357756Y-107755443D01*
X-3323571Y-107819399D01*
X-3304272Y-107855505D01*
X-3304271Y-107855508D01*
X-3271334Y-107964084D01*
X-3260213Y-108077000D01*
X-3271334Y-108189916D01*
X-3304271Y-108298492D01*
X-3304272Y-108298495D01*
X-3323571Y-108334601D01*
X-3357756Y-108398557D01*
X-3429736Y-108486264D01*
X-3517443Y-108558244D01*
X-3581399Y-108592429D01*
X-3617505Y-108611728D01*
X-3617508Y-108611729D01*
X-3726084Y-108644666D01*
X-3810702Y-108653000D01*
X-4317298Y-108653000D01*
X-4401916Y-108644666D01*
X-4510492Y-108611729D01*
X-4510495Y-108611728D01*
X-4546601Y-108592429D01*
X-4610557Y-108558244D01*
X-4698264Y-108486264D01*
X-4770244Y-108398557D01*
X-4804429Y-108334601D01*
X-4823728Y-108298495D01*
X-4823729Y-108298492D01*
X-4856666Y-108189916D01*
X-4867787Y-108077000D01*
X-4856666Y-107964084D01*
X-4823729Y-107855508D01*
X-4823728Y-107855505D01*
X-4804429Y-107819399D01*
X-4770244Y-107755443D01*
X-4698264Y-107667736D01*
X-4610557Y-107595756D01*
X-4529141Y-107552239D01*
X-4508766Y-107538625D01*
X-4491439Y-107521298D01*
X-4477826Y-107500924D01*
X-4468448Y-107478285D01*
X-4463668Y-107454252D01*
X-4463668Y-107429748D01*
X-4468448Y-107405715D01*
X-4477826Y-107383076D01*
X-4491440Y-107362701D01*
X-4508767Y-107345374D01*
X-4529141Y-107331761D01*
X-4543947Y-107323847D01*
X-4610557Y-107288244D01*
X-4698264Y-107216264D01*
X-4770244Y-107128557D01*
X-4804429Y-107064601D01*
X-4823728Y-107028495D01*
X-4823729Y-107028492D01*
X-4856666Y-106919916D01*
X-4867787Y-106807000D01*
X-4856666Y-106694084D01*
X-4823729Y-106585508D01*
X-4823728Y-106585505D01*
X-4804429Y-106549399D01*
X-4770244Y-106485443D01*
X-4698264Y-106397736D01*
X-4621354Y-106334617D01*
X-4604035Y-106317298D01*
X-4590421Y-106296923D01*
X-4581043Y-106274284D01*
X-4576263Y-106250251D01*
X-4576263Y-106225747D01*
X-4581043Y-106201714D01*
X-4590421Y-106179075D01*
X-4604034Y-106158701D01*
X-4621361Y-106141374D01*
X-4641736Y-106127760D01*
X-4664375Y-106118382D01*
X-4688408Y-106113602D01*
X-4700660Y-106113000D01*
X-4865000Y-106113000D01*
X-4865000Y-104961000D01*
X-3263000Y-104961000D01*
X-3263000Y-106113000D01*
X-3263000Y-106113000D01*
G37*
G36*
X25461000Y-108501000D02*
G01*
X22209000Y-108501000D01*
X22209000Y-107399000D01*
X25461000Y-107399000D01*
X25461000Y-108501000D01*
X25461000Y-108501000D01*
G37*
G36*
X20411000Y-108501000D02*
G01*
X17159000Y-108501000D01*
X17159000Y-107399000D01*
X20411000Y-107399000D01*
X20411000Y-108501000D01*
X20411000Y-108501000D01*
G37*
G36*
X-9414501Y-106235445D02*
G01*
X-9377005Y-106246820D01*
X-9342446Y-106265292D01*
X-9312153Y-106290153D01*
X-9287292Y-106320446D01*
X-9268820Y-106355005D01*
X-9257445Y-106392501D01*
X-9253000Y-106437638D01*
X-9253000Y-107176362D01*
X-9257445Y-107221499D01*
X-9268820Y-107258995D01*
X-9287292Y-107293554D01*
X-9312153Y-107323847D01*
X-9342446Y-107348708D01*
X-9377005Y-107367180D01*
X-9414501Y-107378555D01*
X-9459638Y-107383000D01*
X-10098362Y-107383000D01*
X-10143499Y-107378555D01*
X-10180995Y-107367180D01*
X-10215554Y-107348708D01*
X-10245847Y-107323847D01*
X-10270708Y-107293554D01*
X-10289180Y-107258995D01*
X-10300555Y-107221499D01*
X-10305000Y-107176362D01*
X-10305000Y-106437638D01*
X-10300555Y-106392501D01*
X-10289180Y-106355005D01*
X-10270708Y-106320446D01*
X-10245847Y-106290153D01*
X-10215554Y-106265292D01*
X-10180995Y-106246820D01*
X-10143499Y-106235445D01*
X-10098362Y-106231000D01*
X-9459638Y-106231000D01*
X-9414501Y-106235445D01*
X-9414501Y-106235445D01*
G37*
G36*
X-25903000Y-107358000D02*
G01*
X-29155000Y-107358000D01*
X-29155000Y-106256000D01*
X-25903000Y-106256000D01*
X-25903000Y-107358000D01*
X-25903000Y-107358000D01*
G37*
G36*
X-20853000Y-107358000D02*
G01*
X-24105000Y-107358000D01*
X-24105000Y-106256000D01*
X-20853000Y-106256000D01*
X-20853000Y-107358000D01*
X-20853000Y-107358000D01*
G37*
G36*
X25461000Y-105961000D02*
G01*
X22209000Y-105961000D01*
X22209000Y-104859000D01*
X25461000Y-104859000D01*
X25461000Y-105961000D01*
X25461000Y-105961000D01*
G37*
G36*
X20411000Y-105961000D02*
G01*
X17159000Y-105961000D01*
X17159000Y-104859000D01*
X20411000Y-104859000D01*
X20411000Y-105961000D01*
X20411000Y-105961000D01*
G37*
G36*
X-15208000Y-105918000D02*
G01*
X-16510000Y-105918000D01*
X-16510000Y-104616000D01*
X-15208000Y-104616000D01*
X-15208000Y-105918000D01*
X-15208000Y-105918000D01*
G37*
G36*
X-13208000Y-105918000D02*
G01*
X-14510000Y-105918000D01*
X-14510000Y-104616000D01*
X-13208000Y-104616000D01*
X-13208000Y-105918000D01*
X-13208000Y-105918000D01*
G37*
G36*
X-9414501Y-104485445D02*
G01*
X-9377005Y-104496820D01*
X-9342446Y-104515292D01*
X-9312153Y-104540153D01*
X-9287292Y-104570446D01*
X-9268820Y-104605005D01*
X-9257445Y-104642501D01*
X-9253000Y-104687638D01*
X-9253000Y-105426362D01*
X-9257445Y-105471499D01*
X-9268820Y-105508995D01*
X-9287292Y-105543554D01*
X-9312153Y-105573847D01*
X-9342446Y-105598708D01*
X-9377005Y-105617180D01*
X-9414501Y-105628555D01*
X-9459638Y-105633000D01*
X-10098362Y-105633000D01*
X-10143499Y-105628555D01*
X-10180995Y-105617180D01*
X-10215554Y-105598708D01*
X-10245847Y-105573847D01*
X-10270708Y-105543554D01*
X-10289180Y-105508995D01*
X-10300555Y-105471499D01*
X-10305000Y-105426362D01*
X-10305000Y-104687638D01*
X-10300555Y-104642501D01*
X-10289180Y-104605005D01*
X-10270708Y-104570446D01*
X-10245847Y-104540153D01*
X-10215554Y-104515292D01*
X-10180995Y-104496820D01*
X-10143499Y-104485445D01*
X-10098362Y-104481000D01*
X-9459638Y-104481000D01*
X-9414501Y-104485445D01*
X-9414501Y-104485445D01*
G37*
G36*
X25461000Y-103421000D02*
G01*
X22209000Y-103421000D01*
X22209000Y-102319000D01*
X25461000Y-102319000D01*
X25461000Y-103421000D01*
X25461000Y-103421000D01*
G37*
G36*
X20411000Y-103421000D02*
G01*
X17159000Y-103421000D01*
X17159000Y-102319000D01*
X20411000Y-102319000D01*
X20411000Y-103421000D01*
X20411000Y-103421000D01*
G37*
G36*
X-14008000Y-101093000D02*
G01*
X-15710000Y-101093000D01*
X-15710000Y-99491000D01*
X-14008000Y-99491000D01*
X-14008000Y-101093000D01*
X-14008000Y-101093000D01*
G37*
G36*
X-3263000Y-98112000D02*
G01*
X-3427340Y-98112000D01*
X-3451726Y-98114402D01*
X-3475175Y-98121515D01*
X-3496786Y-98133066D01*
X-3515728Y-98148611D01*
X-3531273Y-98167553D01*
X-3542824Y-98189164D01*
X-3549937Y-98212613D01*
X-3552339Y-98236999D01*
X-3549937Y-98261385D01*
X-3542824Y-98284834D01*
X-3531273Y-98306445D01*
X-3515728Y-98325387D01*
X-3506655Y-98333609D01*
X-3429736Y-98396736D01*
X-3357756Y-98484443D01*
X-3323571Y-98548399D01*
X-3304272Y-98584505D01*
X-3304271Y-98584508D01*
X-3271334Y-98693084D01*
X-3260213Y-98806000D01*
X-3271334Y-98918916D01*
X-3304271Y-99027492D01*
X-3304272Y-99027495D01*
X-3323571Y-99063601D01*
X-3357756Y-99127557D01*
X-3429736Y-99215264D01*
X-3517443Y-99287244D01*
X-3584053Y-99322847D01*
X-3598859Y-99330761D01*
X-3619234Y-99344375D01*
X-3636561Y-99361702D01*
X-3650174Y-99382076D01*
X-3659552Y-99404715D01*
X-3664332Y-99428748D01*
X-3664332Y-99453252D01*
X-3659552Y-99477285D01*
X-3650174Y-99499924D01*
X-3636560Y-99520299D01*
X-3619233Y-99537626D01*
X-3598859Y-99551239D01*
X-3517443Y-99594756D01*
X-3429736Y-99666736D01*
X-3357756Y-99754443D01*
X-3323571Y-99818399D01*
X-3304272Y-99854505D01*
X-3304271Y-99854508D01*
X-3271334Y-99963084D01*
X-3260213Y-100076000D01*
X-3271334Y-100188916D01*
X-3304271Y-100297492D01*
X-3304272Y-100297495D01*
X-3323571Y-100333601D01*
X-3357756Y-100397557D01*
X-3429736Y-100485264D01*
X-3517443Y-100557244D01*
X-3581399Y-100591429D01*
X-3617505Y-100610728D01*
X-3617508Y-100610729D01*
X-3726084Y-100643666D01*
X-3810702Y-100652000D01*
X-4317298Y-100652000D01*
X-4401916Y-100643666D01*
X-4510492Y-100610729D01*
X-4510495Y-100610728D01*
X-4546601Y-100591429D01*
X-4610557Y-100557244D01*
X-4698264Y-100485264D01*
X-4770244Y-100397557D01*
X-4804429Y-100333601D01*
X-4823728Y-100297495D01*
X-4823729Y-100297492D01*
X-4856666Y-100188916D01*
X-4867787Y-100076000D01*
X-4856666Y-99963084D01*
X-4823729Y-99854508D01*
X-4823728Y-99854505D01*
X-4804429Y-99818399D01*
X-4770244Y-99754443D01*
X-4698264Y-99666736D01*
X-4610557Y-99594756D01*
X-4529141Y-99551239D01*
X-4508766Y-99537625D01*
X-4491439Y-99520298D01*
X-4477826Y-99499924D01*
X-4468448Y-99477285D01*
X-4463668Y-99453252D01*
X-4463668Y-99428748D01*
X-4468448Y-99404715D01*
X-4477826Y-99382076D01*
X-4491440Y-99361701D01*
X-4508767Y-99344374D01*
X-4529141Y-99330761D01*
X-4543947Y-99322847D01*
X-4610557Y-99287244D01*
X-4698264Y-99215264D01*
X-4770244Y-99127557D01*
X-4804429Y-99063601D01*
X-4823728Y-99027495D01*
X-4823729Y-99027492D01*
X-4856666Y-98918916D01*
X-4867787Y-98806000D01*
X-4856666Y-98693084D01*
X-4823729Y-98584508D01*
X-4823728Y-98584505D01*
X-4804429Y-98548399D01*
X-4770244Y-98484443D01*
X-4698264Y-98396736D01*
X-4621354Y-98333617D01*
X-4604035Y-98316298D01*
X-4590421Y-98295923D01*
X-4581043Y-98273284D01*
X-4576263Y-98249251D01*
X-4576263Y-98224747D01*
X-4581043Y-98200714D01*
X-4590421Y-98178075D01*
X-4604034Y-98157701D01*
X-4621361Y-98140374D01*
X-4641736Y-98126760D01*
X-4664375Y-98117382D01*
X-4688408Y-98112602D01*
X-4700660Y-98112000D01*
X-4865000Y-98112000D01*
X-4865000Y-96960000D01*
X-3263000Y-96960000D01*
X-3263000Y-98112000D01*
X-3263000Y-98112000D01*
G37*
G36*
X-9414501Y-98234445D02*
G01*
X-9377005Y-98245820D01*
X-9342446Y-98264292D01*
X-9312153Y-98289153D01*
X-9287292Y-98319446D01*
X-9268820Y-98354005D01*
X-9257445Y-98391501D01*
X-9253000Y-98436638D01*
X-9253000Y-99175362D01*
X-9257445Y-99220499D01*
X-9268820Y-99257995D01*
X-9287292Y-99292554D01*
X-9312153Y-99322847D01*
X-9342446Y-99347708D01*
X-9377005Y-99366180D01*
X-9414501Y-99377555D01*
X-9459638Y-99382000D01*
X-10098362Y-99382000D01*
X-10143499Y-99377555D01*
X-10180995Y-99366180D01*
X-10215554Y-99347708D01*
X-10245847Y-99322847D01*
X-10270708Y-99292554D01*
X-10289180Y-99257995D01*
X-10300555Y-99220499D01*
X-10305000Y-99175362D01*
X-10305000Y-98436638D01*
X-10300555Y-98391501D01*
X-10289180Y-98354005D01*
X-10270708Y-98319446D01*
X-10245847Y-98289153D01*
X-10215554Y-98264292D01*
X-10180995Y-98245820D01*
X-10143499Y-98234445D01*
X-10098362Y-98230000D01*
X-9459638Y-98230000D01*
X-9414501Y-98234445D01*
X-9414501Y-98234445D01*
G37*
G36*
X-25933000Y-99103000D02*
G01*
X-29185000Y-99103000D01*
X-29185000Y-98001000D01*
X-25933000Y-98001000D01*
X-25933000Y-99103000D01*
X-25933000Y-99103000D01*
G37*
G36*
X-20883000Y-99103000D02*
G01*
X-24135000Y-99103000D01*
X-24135000Y-98001000D01*
X-20883000Y-98001000D01*
X-20883000Y-99103000D01*
X-20883000Y-99103000D01*
G37*
G36*
X-13208000Y-97693000D02*
G01*
X-14510000Y-97693000D01*
X-14510000Y-96391000D01*
X-13208000Y-96391000D01*
X-13208000Y-97693000D01*
X-13208000Y-97693000D01*
G37*
G36*
X-15208000Y-97693000D02*
G01*
X-16510000Y-97693000D01*
X-16510000Y-96391000D01*
X-15208000Y-96391000D01*
X-15208000Y-97693000D01*
X-15208000Y-97693000D01*
G37*
G36*
X-9414501Y-96484445D02*
G01*
X-9377005Y-96495820D01*
X-9342446Y-96514292D01*
X-9312153Y-96539153D01*
X-9287292Y-96569446D01*
X-9268820Y-96604005D01*
X-9257445Y-96641501D01*
X-9253000Y-96686638D01*
X-9253000Y-97425362D01*
X-9257445Y-97470499D01*
X-9268820Y-97507995D01*
X-9287292Y-97542554D01*
X-9312153Y-97572847D01*
X-9342446Y-97597708D01*
X-9377005Y-97616180D01*
X-9414501Y-97627555D01*
X-9459638Y-97632000D01*
X-10098362Y-97632000D01*
X-10143499Y-97627555D01*
X-10180995Y-97616180D01*
X-10215554Y-97597708D01*
X-10245847Y-97572847D01*
X-10270708Y-97542554D01*
X-10289180Y-97507995D01*
X-10300555Y-97470499D01*
X-10305000Y-97425362D01*
X-10305000Y-96686638D01*
X-10300555Y-96641501D01*
X-10289180Y-96604005D01*
X-10270708Y-96569446D01*
X-10245847Y-96539153D01*
X-10215554Y-96514292D01*
X-10180995Y-96495820D01*
X-10143499Y-96484445D01*
X-10098362Y-96480000D01*
X-9459638Y-96480000D01*
X-9414501Y-96484445D01*
X-9414501Y-96484445D01*
G37*
G36*
X-13881000Y-93316000D02*
G01*
X-15583000Y-93316000D01*
X-15583000Y-91714000D01*
X-13881000Y-91714000D01*
X-13881000Y-93316000D01*
X-13881000Y-93316000D01*
G37*
G36*
X-3136000Y-89476000D02*
G01*
X-3300340Y-89476000D01*
X-3324726Y-89478402D01*
X-3348175Y-89485515D01*
X-3369786Y-89497066D01*
X-3388728Y-89512611D01*
X-3404273Y-89531553D01*
X-3415824Y-89553164D01*
X-3422937Y-89576613D01*
X-3425339Y-89600999D01*
X-3422937Y-89625385D01*
X-3415824Y-89648834D01*
X-3404273Y-89670445D01*
X-3388728Y-89689387D01*
X-3379655Y-89697609D01*
X-3302736Y-89760736D01*
X-3230756Y-89848443D01*
X-3196571Y-89912399D01*
X-3177272Y-89948505D01*
X-3177271Y-89948508D01*
X-3144334Y-90057084D01*
X-3133213Y-90170000D01*
X-3144334Y-90282916D01*
X-3165596Y-90353005D01*
X-3177272Y-90391495D01*
X-3196571Y-90427601D01*
X-3230756Y-90491557D01*
X-3302736Y-90579264D01*
X-3390443Y-90651244D01*
X-3471859Y-90694761D01*
X-3492234Y-90708375D01*
X-3509561Y-90725702D01*
X-3523174Y-90746076D01*
X-3532552Y-90768715D01*
X-3537332Y-90792748D01*
X-3537332Y-90817252D01*
X-3532552Y-90841285D01*
X-3523174Y-90863924D01*
X-3509560Y-90884299D01*
X-3492233Y-90901626D01*
X-3471859Y-90915239D01*
X-3390443Y-90958756D01*
X-3302736Y-91030736D01*
X-3230756Y-91118443D01*
X-3203568Y-91169309D01*
X-3177272Y-91218505D01*
X-3177271Y-91218508D01*
X-3144334Y-91327084D01*
X-3133213Y-91440000D01*
X-3144334Y-91552916D01*
X-3177271Y-91661492D01*
X-3177272Y-91661495D01*
X-3196571Y-91697601D01*
X-3230756Y-91761557D01*
X-3302736Y-91849264D01*
X-3390443Y-91921244D01*
X-3454399Y-91955429D01*
X-3490505Y-91974728D01*
X-3490508Y-91974729D01*
X-3599084Y-92007666D01*
X-3683702Y-92016000D01*
X-4190298Y-92016000D01*
X-4274916Y-92007666D01*
X-4383492Y-91974729D01*
X-4383495Y-91974728D01*
X-4419601Y-91955429D01*
X-4483557Y-91921244D01*
X-4571264Y-91849264D01*
X-4643244Y-91761557D01*
X-4677429Y-91697601D01*
X-4696728Y-91661495D01*
X-4696729Y-91661492D01*
X-4729666Y-91552916D01*
X-4740787Y-91440000D01*
X-4729666Y-91327084D01*
X-4696729Y-91218508D01*
X-4696728Y-91218505D01*
X-4670432Y-91169309D01*
X-4643244Y-91118443D01*
X-4571264Y-91030736D01*
X-4483557Y-90958756D01*
X-4402141Y-90915239D01*
X-4381766Y-90901625D01*
X-4364439Y-90884298D01*
X-4350826Y-90863924D01*
X-4341448Y-90841285D01*
X-4336668Y-90817252D01*
X-4336668Y-90792748D01*
X-4341448Y-90768715D01*
X-4350826Y-90746076D01*
X-4364440Y-90725701D01*
X-4381767Y-90708374D01*
X-4402141Y-90694761D01*
X-4483557Y-90651244D01*
X-4571264Y-90579264D01*
X-4643244Y-90491557D01*
X-4677429Y-90427601D01*
X-4696728Y-90391495D01*
X-4708404Y-90353005D01*
X-4729666Y-90282916D01*
X-4740787Y-90170000D01*
X-4729666Y-90057084D01*
X-4696729Y-89948508D01*
X-4696728Y-89948505D01*
X-4677429Y-89912399D01*
X-4643244Y-89848443D01*
X-4571264Y-89760736D01*
X-4494354Y-89697617D01*
X-4477035Y-89680298D01*
X-4463421Y-89659923D01*
X-4454043Y-89637284D01*
X-4449263Y-89613251D01*
X-4449263Y-89588747D01*
X-4454043Y-89564714D01*
X-4463421Y-89542075D01*
X-4477034Y-89521701D01*
X-4494361Y-89504374D01*
X-4514736Y-89490760D01*
X-4537375Y-89481382D01*
X-4561408Y-89476602D01*
X-4573660Y-89476000D01*
X-4738000Y-89476000D01*
X-4738000Y-88324000D01*
X-3136000Y-88324000D01*
X-3136000Y-89476000D01*
X-3136000Y-89476000D01*
G37*
G36*
X-9287501Y-90233445D02*
G01*
X-9250005Y-90244820D01*
X-9215446Y-90263292D01*
X-9185153Y-90288153D01*
X-9160292Y-90318446D01*
X-9141820Y-90353005D01*
X-9130445Y-90390501D01*
X-9126000Y-90435638D01*
X-9126000Y-91174362D01*
X-9130445Y-91219499D01*
X-9141820Y-91256995D01*
X-9160292Y-91291554D01*
X-9185153Y-91321847D01*
X-9215446Y-91346708D01*
X-9250005Y-91365180D01*
X-9287501Y-91376555D01*
X-9332638Y-91381000D01*
X-9971362Y-91381000D01*
X-10016499Y-91376555D01*
X-10053995Y-91365180D01*
X-10088554Y-91346708D01*
X-10118847Y-91321847D01*
X-10143708Y-91291554D01*
X-10162180Y-91256995D01*
X-10173555Y-91219499D01*
X-10178000Y-91174362D01*
X-10178000Y-90435638D01*
X-10173555Y-90390501D01*
X-10162180Y-90353005D01*
X-10143708Y-90318446D01*
X-10118847Y-90288153D01*
X-10088554Y-90263292D01*
X-10053995Y-90244820D01*
X-10016499Y-90233445D01*
X-9971362Y-90229000D01*
X-9332638Y-90229000D01*
X-9287501Y-90233445D01*
X-9287501Y-90233445D01*
G37*
G36*
X-25791000Y-91356000D02*
G01*
X-29043000Y-91356000D01*
X-29043000Y-90254000D01*
X-25791000Y-90254000D01*
X-25791000Y-91356000D01*
X-25791000Y-91356000D01*
G37*
G36*
X-20741000Y-91356000D02*
G01*
X-23993000Y-91356000D01*
X-23993000Y-90254000D01*
X-20741000Y-90254000D01*
X-20741000Y-91356000D01*
X-20741000Y-91356000D01*
G37*
G36*
X-13081000Y-89916000D02*
G01*
X-14383000Y-89916000D01*
X-14383000Y-88614000D01*
X-13081000Y-88614000D01*
X-13081000Y-89916000D01*
X-13081000Y-89916000D01*
G37*
G36*
X-15081000Y-89916000D02*
G01*
X-16383000Y-89916000D01*
X-16383000Y-88614000D01*
X-15081000Y-88614000D01*
X-15081000Y-89916000D01*
X-15081000Y-89916000D01*
G37*
G36*
X-9287501Y-88483445D02*
G01*
X-9250005Y-88494820D01*
X-9215446Y-88513292D01*
X-9185153Y-88538153D01*
X-9160292Y-88568446D01*
X-9141820Y-88603005D01*
X-9130445Y-88640501D01*
X-9126000Y-88685638D01*
X-9126000Y-89424362D01*
X-9130445Y-89469499D01*
X-9141820Y-89506995D01*
X-9160292Y-89541554D01*
X-9185153Y-89571847D01*
X-9215446Y-89596708D01*
X-9250005Y-89615180D01*
X-9287501Y-89626555D01*
X-9332638Y-89631000D01*
X-9971362Y-89631000D01*
X-10016499Y-89626555D01*
X-10053995Y-89615180D01*
X-10088554Y-89596708D01*
X-10118847Y-89571847D01*
X-10143708Y-89541554D01*
X-10162180Y-89506995D01*
X-10173555Y-89469499D01*
X-10178000Y-89424362D01*
X-10178000Y-88685638D01*
X-10173555Y-88640501D01*
X-10162180Y-88603005D01*
X-10143708Y-88568446D01*
X-10118847Y-88538153D01*
X-10088554Y-88513292D01*
X-10053995Y-88494820D01*
X-10016499Y-88483445D01*
X-9971362Y-88479000D01*
X-9332638Y-88479000D01*
X-9287501Y-88483445D01*
X-9287501Y-88483445D01*
G37*
G36*
X25510442Y-85465518D02*
G01*
X25576627Y-85472037D01*
X25746466Y-85523557D01*
X25902991Y-85607222D01*
X25938729Y-85636552D01*
X26040186Y-85719814D01*
X26123448Y-85821271D01*
X26152778Y-85857009D01*
X26236443Y-86013534D01*
X26287963Y-86183373D01*
X26305359Y-86360000D01*
X26287963Y-86536627D01*
X26236443Y-86706466D01*
X26152778Y-86862991D01*
X26123448Y-86898729D01*
X26040186Y-87000186D01*
X25938729Y-87083448D01*
X25902991Y-87112778D01*
X25746466Y-87196443D01*
X25576627Y-87247963D01*
X25510442Y-87254482D01*
X25444260Y-87261000D01*
X25355740Y-87261000D01*
X25289558Y-87254482D01*
X25223373Y-87247963D01*
X25053534Y-87196443D01*
X24897009Y-87112778D01*
X24861271Y-87083448D01*
X24759814Y-87000186D01*
X24676552Y-86898729D01*
X24647222Y-86862991D01*
X24563557Y-86706466D01*
X24512037Y-86536627D01*
X24494641Y-86360000D01*
X24512037Y-86183373D01*
X24563557Y-86013534D01*
X24647222Y-85857009D01*
X24676552Y-85821271D01*
X24759814Y-85719814D01*
X24861271Y-85636552D01*
X24897009Y-85607222D01*
X25053534Y-85523557D01*
X25223373Y-85472037D01*
X25289558Y-85465518D01*
X25355740Y-85459000D01*
X25444260Y-85459000D01*
X25510442Y-85465518D01*
X25510442Y-85465518D01*
G37*
G36*
X22970442Y-85465518D02*
G01*
X23036627Y-85472037D01*
X23206466Y-85523557D01*
X23362991Y-85607222D01*
X23398729Y-85636552D01*
X23500186Y-85719814D01*
X23583448Y-85821271D01*
X23612778Y-85857009D01*
X23696443Y-86013534D01*
X23747963Y-86183373D01*
X23765359Y-86360000D01*
X23747963Y-86536627D01*
X23696443Y-86706466D01*
X23612778Y-86862991D01*
X23583448Y-86898729D01*
X23500186Y-87000186D01*
X23398729Y-87083448D01*
X23362991Y-87112778D01*
X23206466Y-87196443D01*
X23036627Y-87247963D01*
X22970442Y-87254482D01*
X22904260Y-87261000D01*
X22815740Y-87261000D01*
X22749558Y-87254482D01*
X22683373Y-87247963D01*
X22513534Y-87196443D01*
X22357009Y-87112778D01*
X22321271Y-87083448D01*
X22219814Y-87000186D01*
X22136552Y-86898729D01*
X22107222Y-86862991D01*
X22023557Y-86706466D01*
X21972037Y-86536627D01*
X21954641Y-86360000D01*
X21972037Y-86183373D01*
X22023557Y-86013534D01*
X22107222Y-85857009D01*
X22136552Y-85821271D01*
X22219814Y-85719814D01*
X22321271Y-85636552D01*
X22357009Y-85607222D01*
X22513534Y-85523557D01*
X22683373Y-85472037D01*
X22749558Y-85465518D01*
X22815740Y-85459000D01*
X22904260Y-85459000D01*
X22970442Y-85465518D01*
X22970442Y-85465518D01*
G37*
G36*
X-13754000Y-85076000D02*
G01*
X-15456000Y-85076000D01*
X-15456000Y-83474000D01*
X-13754000Y-83474000D01*
X-13754000Y-85076000D01*
X-13754000Y-85076000D01*
G37*
G36*
X25510443Y-82925519D02*
G01*
X25576627Y-82932037D01*
X25746466Y-82983557D01*
X25902991Y-83067222D01*
X25928766Y-83088375D01*
X26040186Y-83179814D01*
X26109519Y-83264298D01*
X26152778Y-83317009D01*
X26236443Y-83473534D01*
X26287963Y-83643373D01*
X26305359Y-83820000D01*
X26287963Y-83996627D01*
X26236443Y-84166466D01*
X26152778Y-84322991D01*
X26126732Y-84354728D01*
X26040186Y-84460186D01*
X25938729Y-84543448D01*
X25902991Y-84572778D01*
X25746466Y-84656443D01*
X25576627Y-84707963D01*
X25510443Y-84714481D01*
X25444260Y-84721000D01*
X25355740Y-84721000D01*
X25289557Y-84714481D01*
X25223373Y-84707963D01*
X25053534Y-84656443D01*
X24897009Y-84572778D01*
X24861271Y-84543448D01*
X24759814Y-84460186D01*
X24673268Y-84354728D01*
X24647222Y-84322991D01*
X24563557Y-84166466D01*
X24512037Y-83996627D01*
X24494641Y-83820000D01*
X24512037Y-83643373D01*
X24563557Y-83473534D01*
X24647222Y-83317009D01*
X24690481Y-83264298D01*
X24759814Y-83179814D01*
X24871234Y-83088375D01*
X24897009Y-83067222D01*
X25053534Y-82983557D01*
X25223373Y-82932037D01*
X25289557Y-82925519D01*
X25355740Y-82919000D01*
X25444260Y-82919000D01*
X25510443Y-82925519D01*
X25510443Y-82925519D01*
G37*
G36*
X22970443Y-82925519D02*
G01*
X23036627Y-82932037D01*
X23206466Y-82983557D01*
X23362991Y-83067222D01*
X23388766Y-83088375D01*
X23500186Y-83179814D01*
X23569519Y-83264298D01*
X23612778Y-83317009D01*
X23696443Y-83473534D01*
X23747963Y-83643373D01*
X23765359Y-83820000D01*
X23747963Y-83996627D01*
X23696443Y-84166466D01*
X23612778Y-84322991D01*
X23586732Y-84354728D01*
X23500186Y-84460186D01*
X23398729Y-84543448D01*
X23362991Y-84572778D01*
X23206466Y-84656443D01*
X23036627Y-84707963D01*
X22970443Y-84714481D01*
X22904260Y-84721000D01*
X22815740Y-84721000D01*
X22749557Y-84714481D01*
X22683373Y-84707963D01*
X22513534Y-84656443D01*
X22357009Y-84572778D01*
X22321271Y-84543448D01*
X22219814Y-84460186D01*
X22133268Y-84354728D01*
X22107222Y-84322991D01*
X22023557Y-84166466D01*
X21972037Y-83996627D01*
X21954641Y-83820000D01*
X21972037Y-83643373D01*
X22023557Y-83473534D01*
X22107222Y-83317009D01*
X22150481Y-83264298D01*
X22219814Y-83179814D01*
X22331234Y-83088375D01*
X22357009Y-83067222D01*
X22513534Y-82983557D01*
X22683373Y-82932037D01*
X22749557Y-82925519D01*
X22815740Y-82919000D01*
X22904260Y-82919000D01*
X22970443Y-82925519D01*
X22970443Y-82925519D01*
G37*
G36*
X-3009000Y-81856000D02*
G01*
X-3173340Y-81856000D01*
X-3197726Y-81858402D01*
X-3221175Y-81865515D01*
X-3242786Y-81877066D01*
X-3261728Y-81892611D01*
X-3277273Y-81911553D01*
X-3288824Y-81933164D01*
X-3295937Y-81956613D01*
X-3298339Y-81980999D01*
X-3295937Y-82005385D01*
X-3288824Y-82028834D01*
X-3277273Y-82050445D01*
X-3261728Y-82069387D01*
X-3252655Y-82077609D01*
X-3175736Y-82140736D01*
X-3103756Y-82228443D01*
X-3069571Y-82292399D01*
X-3050272Y-82328505D01*
X-3050271Y-82328508D01*
X-3017334Y-82437084D01*
X-3006213Y-82550000D01*
X-3017334Y-82662916D01*
X-3050271Y-82771492D01*
X-3050272Y-82771495D01*
X-3069571Y-82807601D01*
X-3103756Y-82871557D01*
X-3175736Y-82959264D01*
X-3263443Y-83031244D01*
X-3344859Y-83074761D01*
X-3365234Y-83088375D01*
X-3382561Y-83105702D01*
X-3396174Y-83126076D01*
X-3405552Y-83148715D01*
X-3410332Y-83172748D01*
X-3410332Y-83197252D01*
X-3405552Y-83221285D01*
X-3396174Y-83243924D01*
X-3382560Y-83264299D01*
X-3365233Y-83281626D01*
X-3344859Y-83295239D01*
X-3263443Y-83338756D01*
X-3175736Y-83410736D01*
X-3103756Y-83498443D01*
X-3069571Y-83562399D01*
X-3050272Y-83598505D01*
X-3050271Y-83598508D01*
X-3017334Y-83707084D01*
X-3006213Y-83820000D01*
X-3017334Y-83932916D01*
X-3050271Y-84041492D01*
X-3050272Y-84041495D01*
X-3069571Y-84077601D01*
X-3103756Y-84141557D01*
X-3175736Y-84229264D01*
X-3263443Y-84301244D01*
X-3327399Y-84335429D01*
X-3363505Y-84354728D01*
X-3363508Y-84354729D01*
X-3472084Y-84387666D01*
X-3556702Y-84396000D01*
X-4063298Y-84396000D01*
X-4147916Y-84387666D01*
X-4256492Y-84354729D01*
X-4256495Y-84354728D01*
X-4292601Y-84335429D01*
X-4356557Y-84301244D01*
X-4444264Y-84229264D01*
X-4516244Y-84141557D01*
X-4550429Y-84077601D01*
X-4569728Y-84041495D01*
X-4569729Y-84041492D01*
X-4602666Y-83932916D01*
X-4613787Y-83820000D01*
X-4602666Y-83707084D01*
X-4569729Y-83598508D01*
X-4569728Y-83598505D01*
X-4550429Y-83562399D01*
X-4516244Y-83498443D01*
X-4444264Y-83410736D01*
X-4356557Y-83338756D01*
X-4275141Y-83295239D01*
X-4254766Y-83281625D01*
X-4237439Y-83264298D01*
X-4223826Y-83243924D01*
X-4214448Y-83221285D01*
X-4209668Y-83197252D01*
X-4209668Y-83172748D01*
X-4214448Y-83148715D01*
X-4223826Y-83126076D01*
X-4237440Y-83105701D01*
X-4254767Y-83088374D01*
X-4275141Y-83074761D01*
X-4356557Y-83031244D01*
X-4444264Y-82959264D01*
X-4516244Y-82871557D01*
X-4550429Y-82807601D01*
X-4569728Y-82771495D01*
X-4569729Y-82771492D01*
X-4602666Y-82662916D01*
X-4613787Y-82550000D01*
X-4602666Y-82437084D01*
X-4569729Y-82328508D01*
X-4569728Y-82328505D01*
X-4550429Y-82292399D01*
X-4516244Y-82228443D01*
X-4444264Y-82140736D01*
X-4367354Y-82077617D01*
X-4350035Y-82060298D01*
X-4336421Y-82039923D01*
X-4327043Y-82017284D01*
X-4322263Y-81993251D01*
X-4322263Y-81968747D01*
X-4327043Y-81944714D01*
X-4336421Y-81922075D01*
X-4350034Y-81901701D01*
X-4367361Y-81884374D01*
X-4387736Y-81870760D01*
X-4410375Y-81861382D01*
X-4434408Y-81856602D01*
X-4446660Y-81856000D01*
X-4611000Y-81856000D01*
X-4611000Y-80704000D01*
X-3009000Y-80704000D01*
X-3009000Y-81856000D01*
X-3009000Y-81856000D01*
G37*
G36*
X-9160501Y-81978445D02*
G01*
X-9123005Y-81989820D01*
X-9088446Y-82008292D01*
X-9058153Y-82033153D01*
X-9033292Y-82063446D01*
X-9014820Y-82098005D01*
X-9003445Y-82135501D01*
X-8999000Y-82180638D01*
X-8999000Y-82919362D01*
X-9003445Y-82964499D01*
X-9014820Y-83001995D01*
X-9033292Y-83036554D01*
X-9058153Y-83066847D01*
X-9088446Y-83091708D01*
X-9123005Y-83110180D01*
X-9160501Y-83121555D01*
X-9205638Y-83126000D01*
X-9844362Y-83126000D01*
X-9889499Y-83121555D01*
X-9926995Y-83110180D01*
X-9961554Y-83091708D01*
X-9991847Y-83066847D01*
X-10016708Y-83036554D01*
X-10035180Y-83001995D01*
X-10046555Y-82964499D01*
X-10051000Y-82919362D01*
X-10051000Y-82180638D01*
X-10046555Y-82135501D01*
X-10035180Y-82098005D01*
X-10016708Y-82063446D01*
X-9991847Y-82033153D01*
X-9961554Y-82008292D01*
X-9926995Y-81989820D01*
X-9889499Y-81978445D01*
X-9844362Y-81974000D01*
X-9205638Y-81974000D01*
X-9160501Y-81978445D01*
X-9160501Y-81978445D01*
G37*
G36*
X-25649000Y-83101000D02*
G01*
X-28901000Y-83101000D01*
X-28901000Y-81999000D01*
X-25649000Y-81999000D01*
X-25649000Y-83101000D01*
X-25649000Y-83101000D01*
G37*
G36*
X-20599000Y-83101000D02*
G01*
X-23851000Y-83101000D01*
X-23851000Y-81999000D01*
X-20599000Y-81999000D01*
X-20599000Y-83101000D01*
X-20599000Y-83101000D01*
G37*
G36*
X25510265Y-80385501D02*
G01*
X25576627Y-80392037D01*
X25746466Y-80443557D01*
X25902991Y-80527222D01*
X25938729Y-80556552D01*
X26040186Y-80639814D01*
X26092861Y-80704000D01*
X26152778Y-80777009D01*
X26236443Y-80933534D01*
X26287963Y-81103373D01*
X26305359Y-81280000D01*
X26287963Y-81456627D01*
X26236443Y-81626466D01*
X26152778Y-81782991D01*
X26123448Y-81818729D01*
X26040186Y-81920186D01*
X25944149Y-81999000D01*
X25902991Y-82032778D01*
X25746466Y-82116443D01*
X25576627Y-82167963D01*
X25510443Y-82174481D01*
X25444260Y-82181000D01*
X25355740Y-82181000D01*
X25289557Y-82174481D01*
X25223373Y-82167963D01*
X25053534Y-82116443D01*
X24897009Y-82032778D01*
X24855851Y-81999000D01*
X24759814Y-81920186D01*
X24676552Y-81818729D01*
X24647222Y-81782991D01*
X24563557Y-81626466D01*
X24512037Y-81456627D01*
X24494641Y-81280000D01*
X24512037Y-81103373D01*
X24563557Y-80933534D01*
X24647222Y-80777009D01*
X24707139Y-80704000D01*
X24759814Y-80639814D01*
X24861271Y-80556552D01*
X24897009Y-80527222D01*
X25053534Y-80443557D01*
X25223373Y-80392037D01*
X25289735Y-80385501D01*
X25355740Y-80379000D01*
X25444260Y-80379000D01*
X25510265Y-80385501D01*
X25510265Y-80385501D01*
G37*
G36*
X22970265Y-80385501D02*
G01*
X23036627Y-80392037D01*
X23206466Y-80443557D01*
X23362991Y-80527222D01*
X23398729Y-80556552D01*
X23500186Y-80639814D01*
X23552861Y-80704000D01*
X23612778Y-80777009D01*
X23696443Y-80933534D01*
X23747963Y-81103373D01*
X23765359Y-81280000D01*
X23747963Y-81456627D01*
X23696443Y-81626466D01*
X23612778Y-81782991D01*
X23583448Y-81818729D01*
X23500186Y-81920186D01*
X23404149Y-81999000D01*
X23362991Y-82032778D01*
X23206466Y-82116443D01*
X23036627Y-82167963D01*
X22970443Y-82174481D01*
X22904260Y-82181000D01*
X22815740Y-82181000D01*
X22749557Y-82174481D01*
X22683373Y-82167963D01*
X22513534Y-82116443D01*
X22357009Y-82032778D01*
X22315851Y-81999000D01*
X22219814Y-81920186D01*
X22136552Y-81818729D01*
X22107222Y-81782991D01*
X22023557Y-81626466D01*
X21972037Y-81456627D01*
X21954641Y-81280000D01*
X21972037Y-81103373D01*
X22023557Y-80933534D01*
X22107222Y-80777009D01*
X22167139Y-80704000D01*
X22219814Y-80639814D01*
X22321271Y-80556552D01*
X22357009Y-80527222D01*
X22513534Y-80443557D01*
X22683373Y-80392037D01*
X22749735Y-80385501D01*
X22815740Y-80379000D01*
X22904260Y-80379000D01*
X22970265Y-80385501D01*
X22970265Y-80385501D01*
G37*
G36*
X-14954000Y-81676000D02*
G01*
X-16256000Y-81676000D01*
X-16256000Y-80374000D01*
X-14954000Y-80374000D01*
X-14954000Y-81676000D01*
X-14954000Y-81676000D01*
G37*
G36*
X-12954000Y-81676000D02*
G01*
X-14256000Y-81676000D01*
X-14256000Y-80374000D01*
X-12954000Y-80374000D01*
X-12954000Y-81676000D01*
X-12954000Y-81676000D01*
G37*
G36*
X-9160501Y-80228445D02*
G01*
X-9123005Y-80239820D01*
X-9088446Y-80258292D01*
X-9058153Y-80283153D01*
X-9033292Y-80313446D01*
X-9014820Y-80348005D01*
X-9003445Y-80385501D01*
X-8999000Y-80430638D01*
X-8999000Y-81169362D01*
X-9003445Y-81214499D01*
X-9014820Y-81251995D01*
X-9033292Y-81286554D01*
X-9058153Y-81316847D01*
X-9088446Y-81341708D01*
X-9123005Y-81360180D01*
X-9160501Y-81371555D01*
X-9205638Y-81376000D01*
X-9844362Y-81376000D01*
X-9889499Y-81371555D01*
X-9926995Y-81360180D01*
X-9961554Y-81341708D01*
X-9991847Y-81316847D01*
X-10016708Y-81286554D01*
X-10035180Y-81251995D01*
X-10046555Y-81214499D01*
X-10051000Y-81169362D01*
X-10051000Y-80430638D01*
X-10046555Y-80385501D01*
X-10035180Y-80348005D01*
X-10016708Y-80313446D01*
X-9991847Y-80283153D01*
X-9961554Y-80258292D01*
X-9926995Y-80239820D01*
X-9889499Y-80228445D01*
X-9844362Y-80224000D01*
X-9205638Y-80224000D01*
X-9160501Y-80228445D01*
X-9160501Y-80228445D01*
G37*
G36*
X25510443Y-77845519D02*
G01*
X25576627Y-77852037D01*
X25746466Y-77903557D01*
X25902991Y-77987222D01*
X25938729Y-78016552D01*
X26040186Y-78099814D01*
X26123448Y-78201271D01*
X26152778Y-78237009D01*
X26236443Y-78393534D01*
X26287963Y-78563373D01*
X26305359Y-78740000D01*
X26287963Y-78916627D01*
X26236443Y-79086466D01*
X26152778Y-79242991D01*
X26123448Y-79278729D01*
X26040186Y-79380186D01*
X25938729Y-79463448D01*
X25902991Y-79492778D01*
X25746466Y-79576443D01*
X25576627Y-79627963D01*
X25510442Y-79634482D01*
X25444260Y-79641000D01*
X25355740Y-79641000D01*
X25289558Y-79634482D01*
X25223373Y-79627963D01*
X25053534Y-79576443D01*
X24897009Y-79492778D01*
X24861271Y-79463448D01*
X24759814Y-79380186D01*
X24676552Y-79278729D01*
X24647222Y-79242991D01*
X24563557Y-79086466D01*
X24512037Y-78916627D01*
X24494641Y-78740000D01*
X24512037Y-78563373D01*
X24563557Y-78393534D01*
X24647222Y-78237009D01*
X24676552Y-78201271D01*
X24759814Y-78099814D01*
X24861271Y-78016552D01*
X24897009Y-77987222D01*
X25053534Y-77903557D01*
X25223373Y-77852037D01*
X25289557Y-77845519D01*
X25355740Y-77839000D01*
X25444260Y-77839000D01*
X25510443Y-77845519D01*
X25510443Y-77845519D01*
G37*
G36*
X22970443Y-77845519D02*
G01*
X23036627Y-77852037D01*
X23206466Y-77903557D01*
X23362991Y-77987222D01*
X23398729Y-78016552D01*
X23500186Y-78099814D01*
X23583448Y-78201271D01*
X23612778Y-78237009D01*
X23696443Y-78393534D01*
X23747963Y-78563373D01*
X23765359Y-78740000D01*
X23747963Y-78916627D01*
X23696443Y-79086466D01*
X23612778Y-79242991D01*
X23583448Y-79278729D01*
X23500186Y-79380186D01*
X23398729Y-79463448D01*
X23362991Y-79492778D01*
X23206466Y-79576443D01*
X23036627Y-79627963D01*
X22970442Y-79634482D01*
X22904260Y-79641000D01*
X22815740Y-79641000D01*
X22749558Y-79634482D01*
X22683373Y-79627963D01*
X22513534Y-79576443D01*
X22357009Y-79492778D01*
X22321271Y-79463448D01*
X22219814Y-79380186D01*
X22136552Y-79278729D01*
X22107222Y-79242991D01*
X22023557Y-79086466D01*
X21972037Y-78916627D01*
X21954641Y-78740000D01*
X21972037Y-78563373D01*
X22023557Y-78393534D01*
X22107222Y-78237009D01*
X22136552Y-78201271D01*
X22219814Y-78099814D01*
X22321271Y-78016552D01*
X22357009Y-77987222D01*
X22513534Y-77903557D01*
X22683373Y-77852037D01*
X22749557Y-77845519D01*
X22815740Y-77839000D01*
X22904260Y-77839000D01*
X22970443Y-77845519D01*
X22970443Y-77845519D01*
G37*
G36*
X25510442Y-75305518D02*
G01*
X25576627Y-75312037D01*
X25746466Y-75363557D01*
X25902991Y-75447222D01*
X25938729Y-75476552D01*
X26040186Y-75559814D01*
X26123448Y-75661271D01*
X26152778Y-75697009D01*
X26236443Y-75853534D01*
X26287963Y-76023373D01*
X26305359Y-76200000D01*
X26287963Y-76376627D01*
X26236443Y-76546466D01*
X26152778Y-76702991D01*
X26123448Y-76738729D01*
X26040186Y-76840186D01*
X25938729Y-76923448D01*
X25902991Y-76952778D01*
X25746466Y-77036443D01*
X25576627Y-77087963D01*
X25510442Y-77094482D01*
X25444260Y-77101000D01*
X25355740Y-77101000D01*
X25289558Y-77094482D01*
X25223373Y-77087963D01*
X25053534Y-77036443D01*
X24897009Y-76952778D01*
X24861271Y-76923448D01*
X24759814Y-76840186D01*
X24676552Y-76738729D01*
X24647222Y-76702991D01*
X24563557Y-76546466D01*
X24512037Y-76376627D01*
X24494641Y-76200000D01*
X24512037Y-76023373D01*
X24563557Y-75853534D01*
X24647222Y-75697009D01*
X24676552Y-75661271D01*
X24759814Y-75559814D01*
X24861271Y-75476552D01*
X24897009Y-75447222D01*
X25053534Y-75363557D01*
X25223373Y-75312037D01*
X25289558Y-75305518D01*
X25355740Y-75299000D01*
X25444260Y-75299000D01*
X25510442Y-75305518D01*
X25510442Y-75305518D01*
G37*
G36*
X22970442Y-75305518D02*
G01*
X23036627Y-75312037D01*
X23206466Y-75363557D01*
X23362991Y-75447222D01*
X23398729Y-75476552D01*
X23500186Y-75559814D01*
X23583448Y-75661271D01*
X23612778Y-75697009D01*
X23696443Y-75853534D01*
X23747963Y-76023373D01*
X23765359Y-76200000D01*
X23747963Y-76376627D01*
X23696443Y-76546466D01*
X23612778Y-76702991D01*
X23583448Y-76738729D01*
X23500186Y-76840186D01*
X23398729Y-76923448D01*
X23362991Y-76952778D01*
X23206466Y-77036443D01*
X23036627Y-77087963D01*
X22970442Y-77094482D01*
X22904260Y-77101000D01*
X22815740Y-77101000D01*
X22749558Y-77094482D01*
X22683373Y-77087963D01*
X22513534Y-77036443D01*
X22357009Y-76952778D01*
X22321271Y-76923448D01*
X22219814Y-76840186D01*
X22136552Y-76738729D01*
X22107222Y-76702991D01*
X22023557Y-76546466D01*
X21972037Y-76376627D01*
X21954641Y-76200000D01*
X21972037Y-76023373D01*
X22023557Y-75853534D01*
X22107222Y-75697009D01*
X22136552Y-75661271D01*
X22219814Y-75559814D01*
X22321271Y-75476552D01*
X22357009Y-75447222D01*
X22513534Y-75363557D01*
X22683373Y-75312037D01*
X22749558Y-75305518D01*
X22815740Y-75299000D01*
X22904260Y-75299000D01*
X22970442Y-75305518D01*
X22970442Y-75305518D01*
G37*
G36*
X22970442Y-72765518D02*
G01*
X23036627Y-72772037D01*
X23206466Y-72823557D01*
X23362991Y-72907222D01*
X23398729Y-72936552D01*
X23500186Y-73019814D01*
X23583448Y-73121271D01*
X23612778Y-73157009D01*
X23696443Y-73313534D01*
X23747963Y-73483373D01*
X23765359Y-73660000D01*
X23747963Y-73836627D01*
X23696443Y-74006466D01*
X23612778Y-74162991D01*
X23583448Y-74198729D01*
X23500186Y-74300186D01*
X23398729Y-74383448D01*
X23362991Y-74412778D01*
X23206466Y-74496443D01*
X23036627Y-74547963D01*
X22970442Y-74554482D01*
X22904260Y-74561000D01*
X22815740Y-74561000D01*
X22749558Y-74554482D01*
X22683373Y-74547963D01*
X22513534Y-74496443D01*
X22357009Y-74412778D01*
X22321271Y-74383448D01*
X22219814Y-74300186D01*
X22136552Y-74198729D01*
X22107222Y-74162991D01*
X22023557Y-74006466D01*
X21972037Y-73836627D01*
X21954641Y-73660000D01*
X21972037Y-73483373D01*
X22023557Y-73313534D01*
X22107222Y-73157009D01*
X22136552Y-73121271D01*
X22219814Y-73019814D01*
X22321271Y-72936552D01*
X22357009Y-72907222D01*
X22513534Y-72823557D01*
X22683373Y-72772037D01*
X22749558Y-72765518D01*
X22815740Y-72759000D01*
X22904260Y-72759000D01*
X22970442Y-72765518D01*
X22970442Y-72765518D01*
G37*
G36*
X25510442Y-72765518D02*
G01*
X25576627Y-72772037D01*
X25746466Y-72823557D01*
X25902991Y-72907222D01*
X25938729Y-72936552D01*
X26040186Y-73019814D01*
X26123448Y-73121271D01*
X26152778Y-73157009D01*
X26236443Y-73313534D01*
X26287963Y-73483373D01*
X26305359Y-73660000D01*
X26287963Y-73836627D01*
X26236443Y-74006466D01*
X26152778Y-74162991D01*
X26123448Y-74198729D01*
X26040186Y-74300186D01*
X25938729Y-74383448D01*
X25902991Y-74412778D01*
X25746466Y-74496443D01*
X25576627Y-74547963D01*
X25510442Y-74554482D01*
X25444260Y-74561000D01*
X25355740Y-74561000D01*
X25289558Y-74554482D01*
X25223373Y-74547963D01*
X25053534Y-74496443D01*
X24897009Y-74412778D01*
X24861271Y-74383448D01*
X24759814Y-74300186D01*
X24676552Y-74198729D01*
X24647222Y-74162991D01*
X24563557Y-74006466D01*
X24512037Y-73836627D01*
X24494641Y-73660000D01*
X24512037Y-73483373D01*
X24563557Y-73313534D01*
X24647222Y-73157009D01*
X24676552Y-73121271D01*
X24759814Y-73019814D01*
X24861271Y-72936552D01*
X24897009Y-72907222D01*
X25053534Y-72823557D01*
X25223373Y-72772037D01*
X25289558Y-72765518D01*
X25355740Y-72759000D01*
X25444260Y-72759000D01*
X25510442Y-72765518D01*
X25510442Y-72765518D01*
G37*
G36*
X22970442Y-70225518D02*
G01*
X23036627Y-70232037D01*
X23206466Y-70283557D01*
X23362991Y-70367222D01*
X23398729Y-70396552D01*
X23500186Y-70479814D01*
X23583448Y-70581271D01*
X23612778Y-70617009D01*
X23696443Y-70773534D01*
X23747963Y-70943373D01*
X23765359Y-71120000D01*
X23747963Y-71296627D01*
X23696443Y-71466466D01*
X23612778Y-71622991D01*
X23583448Y-71658729D01*
X23500186Y-71760186D01*
X23398729Y-71843448D01*
X23362991Y-71872778D01*
X23206466Y-71956443D01*
X23036627Y-72007963D01*
X22970443Y-72014481D01*
X22904260Y-72021000D01*
X22815740Y-72021000D01*
X22749557Y-72014481D01*
X22683373Y-72007963D01*
X22513534Y-71956443D01*
X22357009Y-71872778D01*
X22321271Y-71843448D01*
X22219814Y-71760186D01*
X22136552Y-71658729D01*
X22107222Y-71622991D01*
X22023557Y-71466466D01*
X21972037Y-71296627D01*
X21954641Y-71120000D01*
X21972037Y-70943373D01*
X22023557Y-70773534D01*
X22107222Y-70617009D01*
X22136552Y-70581271D01*
X22219814Y-70479814D01*
X22321271Y-70396552D01*
X22357009Y-70367222D01*
X22513534Y-70283557D01*
X22683373Y-70232037D01*
X22749558Y-70225518D01*
X22815740Y-70219000D01*
X22904260Y-70219000D01*
X22970442Y-70225518D01*
X22970442Y-70225518D01*
G37*
G36*
X25510442Y-70225518D02*
G01*
X25576627Y-70232037D01*
X25746466Y-70283557D01*
X25902991Y-70367222D01*
X25938729Y-70396552D01*
X26040186Y-70479814D01*
X26123448Y-70581271D01*
X26152778Y-70617009D01*
X26236443Y-70773534D01*
X26287963Y-70943373D01*
X26305359Y-71120000D01*
X26287963Y-71296627D01*
X26236443Y-71466466D01*
X26152778Y-71622991D01*
X26123448Y-71658729D01*
X26040186Y-71760186D01*
X25938729Y-71843448D01*
X25902991Y-71872778D01*
X25746466Y-71956443D01*
X25576627Y-72007963D01*
X25510443Y-72014481D01*
X25444260Y-72021000D01*
X25355740Y-72021000D01*
X25289557Y-72014481D01*
X25223373Y-72007963D01*
X25053534Y-71956443D01*
X24897009Y-71872778D01*
X24861271Y-71843448D01*
X24759814Y-71760186D01*
X24676552Y-71658729D01*
X24647222Y-71622991D01*
X24563557Y-71466466D01*
X24512037Y-71296627D01*
X24494641Y-71120000D01*
X24512037Y-70943373D01*
X24563557Y-70773534D01*
X24647222Y-70617009D01*
X24676552Y-70581271D01*
X24759814Y-70479814D01*
X24861271Y-70396552D01*
X24897009Y-70367222D01*
X25053534Y-70283557D01*
X25223373Y-70232037D01*
X25289558Y-70225518D01*
X25355740Y-70219000D01*
X25444260Y-70219000D01*
X25510442Y-70225518D01*
X25510442Y-70225518D01*
G37*
G36*
X25510443Y-67685519D02*
G01*
X25576627Y-67692037D01*
X25746466Y-67743557D01*
X25902991Y-67827222D01*
X25938729Y-67856552D01*
X26040186Y-67939814D01*
X26123448Y-68041271D01*
X26152778Y-68077009D01*
X26236443Y-68233534D01*
X26287963Y-68403373D01*
X26305359Y-68580000D01*
X26287963Y-68756627D01*
X26236443Y-68926466D01*
X26152778Y-69082991D01*
X26123448Y-69118729D01*
X26040186Y-69220186D01*
X25938729Y-69303448D01*
X25902991Y-69332778D01*
X25746466Y-69416443D01*
X25576627Y-69467963D01*
X25510442Y-69474482D01*
X25444260Y-69481000D01*
X25355740Y-69481000D01*
X25289558Y-69474482D01*
X25223373Y-69467963D01*
X25053534Y-69416443D01*
X24897009Y-69332778D01*
X24861271Y-69303448D01*
X24759814Y-69220186D01*
X24676552Y-69118729D01*
X24647222Y-69082991D01*
X24563557Y-68926466D01*
X24512037Y-68756627D01*
X24494641Y-68580000D01*
X24512037Y-68403373D01*
X24563557Y-68233534D01*
X24647222Y-68077009D01*
X24676552Y-68041271D01*
X24759814Y-67939814D01*
X24861271Y-67856552D01*
X24897009Y-67827222D01*
X25053534Y-67743557D01*
X25223373Y-67692037D01*
X25289557Y-67685519D01*
X25355740Y-67679000D01*
X25444260Y-67679000D01*
X25510443Y-67685519D01*
X25510443Y-67685519D01*
G37*
G36*
X22970443Y-67685519D02*
G01*
X23036627Y-67692037D01*
X23206466Y-67743557D01*
X23362991Y-67827222D01*
X23398729Y-67856552D01*
X23500186Y-67939814D01*
X23583448Y-68041271D01*
X23612778Y-68077009D01*
X23696443Y-68233534D01*
X23747963Y-68403373D01*
X23765359Y-68580000D01*
X23747963Y-68756627D01*
X23696443Y-68926466D01*
X23612778Y-69082991D01*
X23583448Y-69118729D01*
X23500186Y-69220186D01*
X23398729Y-69303448D01*
X23362991Y-69332778D01*
X23206466Y-69416443D01*
X23036627Y-69467963D01*
X22970442Y-69474482D01*
X22904260Y-69481000D01*
X22815740Y-69481000D01*
X22749558Y-69474482D01*
X22683373Y-69467963D01*
X22513534Y-69416443D01*
X22357009Y-69332778D01*
X22321271Y-69303448D01*
X22219814Y-69220186D01*
X22136552Y-69118729D01*
X22107222Y-69082991D01*
X22023557Y-68926466D01*
X21972037Y-68756627D01*
X21954641Y-68580000D01*
X21972037Y-68403373D01*
X22023557Y-68233534D01*
X22107222Y-68077009D01*
X22136552Y-68041271D01*
X22219814Y-67939814D01*
X22321271Y-67856552D01*
X22357009Y-67827222D01*
X22513534Y-67743557D01*
X22683373Y-67692037D01*
X22749557Y-67685519D01*
X22815740Y-67679000D01*
X22904260Y-67679000D01*
X22970443Y-67685519D01*
X22970443Y-67685519D01*
G37*
G36*
X22970442Y-65145518D02*
G01*
X23036627Y-65152037D01*
X23206466Y-65203557D01*
X23362991Y-65287222D01*
X23398729Y-65316552D01*
X23500186Y-65399814D01*
X23583448Y-65501271D01*
X23612778Y-65537009D01*
X23696443Y-65693534D01*
X23747963Y-65863373D01*
X23765359Y-66040000D01*
X23747963Y-66216627D01*
X23696443Y-66386466D01*
X23612778Y-66542991D01*
X23583448Y-66578729D01*
X23500186Y-66680186D01*
X23398729Y-66763448D01*
X23362991Y-66792778D01*
X23206466Y-66876443D01*
X23036627Y-66927963D01*
X22970442Y-66934482D01*
X22904260Y-66941000D01*
X22815740Y-66941000D01*
X22749558Y-66934482D01*
X22683373Y-66927963D01*
X22513534Y-66876443D01*
X22357009Y-66792778D01*
X22321271Y-66763448D01*
X22219814Y-66680186D01*
X22136552Y-66578729D01*
X22107222Y-66542991D01*
X22023557Y-66386466D01*
X21972037Y-66216627D01*
X21954641Y-66040000D01*
X21972037Y-65863373D01*
X22023557Y-65693534D01*
X22107222Y-65537009D01*
X22136552Y-65501271D01*
X22219814Y-65399814D01*
X22321271Y-65316552D01*
X22357009Y-65287222D01*
X22513534Y-65203557D01*
X22683373Y-65152037D01*
X22749558Y-65145518D01*
X22815740Y-65139000D01*
X22904260Y-65139000D01*
X22970442Y-65145518D01*
X22970442Y-65145518D01*
G37*
G36*
X25510442Y-65145518D02*
G01*
X25576627Y-65152037D01*
X25746466Y-65203557D01*
X25902991Y-65287222D01*
X25938729Y-65316552D01*
X26040186Y-65399814D01*
X26123448Y-65501271D01*
X26152778Y-65537009D01*
X26236443Y-65693534D01*
X26287963Y-65863373D01*
X26305359Y-66040000D01*
X26287963Y-66216627D01*
X26236443Y-66386466D01*
X26152778Y-66542991D01*
X26123448Y-66578729D01*
X26040186Y-66680186D01*
X25938729Y-66763448D01*
X25902991Y-66792778D01*
X25746466Y-66876443D01*
X25576627Y-66927963D01*
X25510442Y-66934482D01*
X25444260Y-66941000D01*
X25355740Y-66941000D01*
X25289558Y-66934482D01*
X25223373Y-66927963D01*
X25053534Y-66876443D01*
X24897009Y-66792778D01*
X24861271Y-66763448D01*
X24759814Y-66680186D01*
X24676552Y-66578729D01*
X24647222Y-66542991D01*
X24563557Y-66386466D01*
X24512037Y-66216627D01*
X24494641Y-66040000D01*
X24512037Y-65863373D01*
X24563557Y-65693534D01*
X24647222Y-65537009D01*
X24676552Y-65501271D01*
X24759814Y-65399814D01*
X24861271Y-65316552D01*
X24897009Y-65287222D01*
X25053534Y-65203557D01*
X25223373Y-65152037D01*
X25289558Y-65145518D01*
X25355740Y-65139000D01*
X25444260Y-65139000D01*
X25510442Y-65145518D01*
X25510442Y-65145518D01*
G37*
G36*
X25510442Y-62605518D02*
G01*
X25576627Y-62612037D01*
X25746466Y-62663557D01*
X25902991Y-62747222D01*
X25938729Y-62776552D01*
X26040186Y-62859814D01*
X26123448Y-62961271D01*
X26152778Y-62997009D01*
X26236443Y-63153534D01*
X26287963Y-63323373D01*
X26305359Y-63500000D01*
X26287963Y-63676627D01*
X26236443Y-63846466D01*
X26152778Y-64002991D01*
X26123448Y-64038729D01*
X26040186Y-64140186D01*
X25938729Y-64223448D01*
X25902991Y-64252778D01*
X25746466Y-64336443D01*
X25576627Y-64387963D01*
X25510442Y-64394482D01*
X25444260Y-64401000D01*
X25355740Y-64401000D01*
X25289558Y-64394482D01*
X25223373Y-64387963D01*
X25053534Y-64336443D01*
X24897009Y-64252778D01*
X24861271Y-64223448D01*
X24759814Y-64140186D01*
X24676552Y-64038729D01*
X24647222Y-64002991D01*
X24563557Y-63846466D01*
X24512037Y-63676627D01*
X24494641Y-63500000D01*
X24512037Y-63323373D01*
X24563557Y-63153534D01*
X24647222Y-62997009D01*
X24676552Y-62961271D01*
X24759814Y-62859814D01*
X24861271Y-62776552D01*
X24897009Y-62747222D01*
X25053534Y-62663557D01*
X25223373Y-62612037D01*
X25289558Y-62605518D01*
X25355740Y-62599000D01*
X25444260Y-62599000D01*
X25510442Y-62605518D01*
X25510442Y-62605518D01*
G37*
G36*
X-37989558Y-62605518D02*
G01*
X-37923373Y-62612037D01*
X-37753534Y-62663557D01*
X-37597009Y-62747222D01*
X-37561271Y-62776552D01*
X-37459814Y-62859814D01*
X-37376552Y-62961271D01*
X-37347222Y-62997009D01*
X-37263557Y-63153534D01*
X-37212037Y-63323373D01*
X-37194641Y-63500000D01*
X-37212037Y-63676627D01*
X-37263557Y-63846466D01*
X-37347222Y-64002991D01*
X-37376552Y-64038729D01*
X-37459814Y-64140186D01*
X-37561271Y-64223448D01*
X-37597009Y-64252778D01*
X-37753534Y-64336443D01*
X-37923373Y-64387963D01*
X-37989558Y-64394482D01*
X-38055740Y-64401000D01*
X-38144260Y-64401000D01*
X-38210442Y-64394482D01*
X-38276627Y-64387963D01*
X-38446466Y-64336443D01*
X-38602991Y-64252778D01*
X-38638729Y-64223448D01*
X-38740186Y-64140186D01*
X-38823448Y-64038729D01*
X-38852778Y-64002991D01*
X-38936443Y-63846466D01*
X-38987963Y-63676627D01*
X-39005359Y-63500000D01*
X-38987963Y-63323373D01*
X-38936443Y-63153534D01*
X-38852778Y-62997009D01*
X-38823448Y-62961271D01*
X-38740186Y-62859814D01*
X-38638729Y-62776552D01*
X-38602991Y-62747222D01*
X-38446466Y-62663557D01*
X-38276627Y-62612037D01*
X-38210442Y-62605518D01*
X-38144260Y-62599000D01*
X-38055740Y-62599000D01*
X-37989558Y-62605518D01*
X-37989558Y-62605518D01*
G37*
G36*
X22970442Y-62605518D02*
G01*
X23036627Y-62612037D01*
X23206466Y-62663557D01*
X23362991Y-62747222D01*
X23398729Y-62776552D01*
X23500186Y-62859814D01*
X23583448Y-62961271D01*
X23612778Y-62997009D01*
X23696443Y-63153534D01*
X23747963Y-63323373D01*
X23765359Y-63500000D01*
X23747963Y-63676627D01*
X23696443Y-63846466D01*
X23612778Y-64002991D01*
X23583448Y-64038729D01*
X23500186Y-64140186D01*
X23398729Y-64223448D01*
X23362991Y-64252778D01*
X23206466Y-64336443D01*
X23036627Y-64387963D01*
X22970442Y-64394482D01*
X22904260Y-64401000D01*
X22815740Y-64401000D01*
X22749558Y-64394482D01*
X22683373Y-64387963D01*
X22513534Y-64336443D01*
X22357009Y-64252778D01*
X22321271Y-64223448D01*
X22219814Y-64140186D01*
X22136552Y-64038729D01*
X22107222Y-64002991D01*
X22023557Y-63846466D01*
X21972037Y-63676627D01*
X21954641Y-63500000D01*
X21972037Y-63323373D01*
X22023557Y-63153534D01*
X22107222Y-62997009D01*
X22136552Y-62961271D01*
X22219814Y-62859814D01*
X22321271Y-62776552D01*
X22357009Y-62747222D01*
X22513534Y-62663557D01*
X22683373Y-62612037D01*
X22749558Y-62605518D01*
X22815740Y-62599000D01*
X22904260Y-62599000D01*
X22970442Y-62605518D01*
X22970442Y-62605518D01*
G37*
G36*
X-35449558Y-62605518D02*
G01*
X-35383373Y-62612037D01*
X-35213534Y-62663557D01*
X-35057009Y-62747222D01*
X-35021271Y-62776552D01*
X-34919814Y-62859814D01*
X-34836552Y-62961271D01*
X-34807222Y-62997009D01*
X-34723557Y-63153534D01*
X-34672037Y-63323373D01*
X-34654641Y-63500000D01*
X-34672037Y-63676627D01*
X-34723557Y-63846466D01*
X-34807222Y-64002991D01*
X-34836552Y-64038729D01*
X-34919814Y-64140186D01*
X-35021271Y-64223448D01*
X-35057009Y-64252778D01*
X-35213534Y-64336443D01*
X-35383373Y-64387963D01*
X-35449558Y-64394482D01*
X-35515740Y-64401000D01*
X-35604260Y-64401000D01*
X-35670442Y-64394482D01*
X-35736627Y-64387963D01*
X-35906466Y-64336443D01*
X-36062991Y-64252778D01*
X-36098729Y-64223448D01*
X-36200186Y-64140186D01*
X-36283448Y-64038729D01*
X-36312778Y-64002991D01*
X-36396443Y-63846466D01*
X-36447963Y-63676627D01*
X-36465359Y-63500000D01*
X-36447963Y-63323373D01*
X-36396443Y-63153534D01*
X-36312778Y-62997009D01*
X-36283448Y-62961271D01*
X-36200186Y-62859814D01*
X-36098729Y-62776552D01*
X-36062991Y-62747222D01*
X-35906466Y-62663557D01*
X-35736627Y-62612037D01*
X-35670442Y-62605518D01*
X-35604260Y-62599000D01*
X-35515740Y-62599000D01*
X-35449558Y-62605518D01*
X-35449558Y-62605518D01*
G37*
G36*
X25510442Y-60065518D02*
G01*
X25576627Y-60072037D01*
X25746466Y-60123557D01*
X25902991Y-60207222D01*
X25938729Y-60236552D01*
X26040186Y-60319814D01*
X26123448Y-60421271D01*
X26152778Y-60457009D01*
X26236443Y-60613534D01*
X26287963Y-60783373D01*
X26305359Y-60960000D01*
X26287963Y-61136627D01*
X26236443Y-61306466D01*
X26152778Y-61462991D01*
X26123448Y-61498729D01*
X26040186Y-61600186D01*
X25938729Y-61683448D01*
X25902991Y-61712778D01*
X25746466Y-61796443D01*
X25576627Y-61847963D01*
X25510443Y-61854481D01*
X25444260Y-61861000D01*
X25355740Y-61861000D01*
X25289557Y-61854481D01*
X25223373Y-61847963D01*
X25053534Y-61796443D01*
X24897009Y-61712778D01*
X24861271Y-61683448D01*
X24759814Y-61600186D01*
X24676552Y-61498729D01*
X24647222Y-61462991D01*
X24563557Y-61306466D01*
X24512037Y-61136627D01*
X24494641Y-60960000D01*
X24512037Y-60783373D01*
X24563557Y-60613534D01*
X24647222Y-60457009D01*
X24676552Y-60421271D01*
X24759814Y-60319814D01*
X24861271Y-60236552D01*
X24897009Y-60207222D01*
X25053534Y-60123557D01*
X25223373Y-60072037D01*
X25289558Y-60065518D01*
X25355740Y-60059000D01*
X25444260Y-60059000D01*
X25510442Y-60065518D01*
X25510442Y-60065518D01*
G37*
G36*
X-35449558Y-60065518D02*
G01*
X-35383373Y-60072037D01*
X-35213534Y-60123557D01*
X-35057009Y-60207222D01*
X-35021271Y-60236552D01*
X-34919814Y-60319814D01*
X-34836552Y-60421271D01*
X-34807222Y-60457009D01*
X-34723557Y-60613534D01*
X-34672037Y-60783373D01*
X-34654641Y-60960000D01*
X-34672037Y-61136627D01*
X-34723557Y-61306466D01*
X-34807222Y-61462991D01*
X-34836552Y-61498729D01*
X-34919814Y-61600186D01*
X-35021271Y-61683448D01*
X-35057009Y-61712778D01*
X-35213534Y-61796443D01*
X-35383373Y-61847963D01*
X-35449557Y-61854481D01*
X-35515740Y-61861000D01*
X-35604260Y-61861000D01*
X-35670443Y-61854481D01*
X-35736627Y-61847963D01*
X-35906466Y-61796443D01*
X-36062991Y-61712778D01*
X-36098729Y-61683448D01*
X-36200186Y-61600186D01*
X-36283448Y-61498729D01*
X-36312778Y-61462991D01*
X-36396443Y-61306466D01*
X-36447963Y-61136627D01*
X-36465359Y-60960000D01*
X-36447963Y-60783373D01*
X-36396443Y-60613534D01*
X-36312778Y-60457009D01*
X-36283448Y-60421271D01*
X-36200186Y-60319814D01*
X-36098729Y-60236552D01*
X-36062991Y-60207222D01*
X-35906466Y-60123557D01*
X-35736627Y-60072037D01*
X-35670442Y-60065518D01*
X-35604260Y-60059000D01*
X-35515740Y-60059000D01*
X-35449558Y-60065518D01*
X-35449558Y-60065518D01*
G37*
G36*
X-37989558Y-60065518D02*
G01*
X-37923373Y-60072037D01*
X-37753534Y-60123557D01*
X-37597009Y-60207222D01*
X-37561271Y-60236552D01*
X-37459814Y-60319814D01*
X-37376552Y-60421271D01*
X-37347222Y-60457009D01*
X-37263557Y-60613534D01*
X-37212037Y-60783373D01*
X-37194641Y-60960000D01*
X-37212037Y-61136627D01*
X-37263557Y-61306466D01*
X-37347222Y-61462991D01*
X-37376552Y-61498729D01*
X-37459814Y-61600186D01*
X-37561271Y-61683448D01*
X-37597009Y-61712778D01*
X-37753534Y-61796443D01*
X-37923373Y-61847963D01*
X-37989557Y-61854481D01*
X-38055740Y-61861000D01*
X-38144260Y-61861000D01*
X-38210443Y-61854481D01*
X-38276627Y-61847963D01*
X-38446466Y-61796443D01*
X-38602991Y-61712778D01*
X-38638729Y-61683448D01*
X-38740186Y-61600186D01*
X-38823448Y-61498729D01*
X-38852778Y-61462991D01*
X-38936443Y-61306466D01*
X-38987963Y-61136627D01*
X-39005359Y-60960000D01*
X-38987963Y-60783373D01*
X-38936443Y-60613534D01*
X-38852778Y-60457009D01*
X-38823448Y-60421271D01*
X-38740186Y-60319814D01*
X-38638729Y-60236552D01*
X-38602991Y-60207222D01*
X-38446466Y-60123557D01*
X-38276627Y-60072037D01*
X-38210442Y-60065518D01*
X-38144260Y-60059000D01*
X-38055740Y-60059000D01*
X-37989558Y-60065518D01*
X-37989558Y-60065518D01*
G37*
G36*
X22970442Y-60065518D02*
G01*
X23036627Y-60072037D01*
X23206466Y-60123557D01*
X23362991Y-60207222D01*
X23398729Y-60236552D01*
X23500186Y-60319814D01*
X23583448Y-60421271D01*
X23612778Y-60457009D01*
X23696443Y-60613534D01*
X23747963Y-60783373D01*
X23765359Y-60960000D01*
X23747963Y-61136627D01*
X23696443Y-61306466D01*
X23612778Y-61462991D01*
X23583448Y-61498729D01*
X23500186Y-61600186D01*
X23398729Y-61683448D01*
X23362991Y-61712778D01*
X23206466Y-61796443D01*
X23036627Y-61847963D01*
X22970443Y-61854481D01*
X22904260Y-61861000D01*
X22815740Y-61861000D01*
X22749557Y-61854481D01*
X22683373Y-61847963D01*
X22513534Y-61796443D01*
X22357009Y-61712778D01*
X22321271Y-61683448D01*
X22219814Y-61600186D01*
X22136552Y-61498729D01*
X22107222Y-61462991D01*
X22023557Y-61306466D01*
X21972037Y-61136627D01*
X21954641Y-60960000D01*
X21972037Y-60783373D01*
X22023557Y-60613534D01*
X22107222Y-60457009D01*
X22136552Y-60421271D01*
X22219814Y-60319814D01*
X22321271Y-60236552D01*
X22357009Y-60207222D01*
X22513534Y-60123557D01*
X22683373Y-60072037D01*
X22749558Y-60065518D01*
X22815740Y-60059000D01*
X22904260Y-60059000D01*
X22970442Y-60065518D01*
X22970442Y-60065518D01*
G37*
G36*
X-10333326Y-59848465D02*
G01*
X-10295633Y-59859899D01*
X-10260897Y-59878466D01*
X-10230452Y-59903452D01*
X-10205466Y-59933897D01*
X-10186899Y-59968633D01*
X-10175465Y-60006326D01*
X-10171000Y-60051661D01*
X-10171000Y-60888339D01*
X-10175465Y-60933674D01*
X-10186899Y-60971367D01*
X-10205466Y-61006103D01*
X-10230452Y-61036548D01*
X-10260897Y-61061534D01*
X-10295633Y-61080101D01*
X-10333326Y-61091535D01*
X-10378661Y-61096000D01*
X-11465339Y-61096000D01*
X-11510674Y-61091535D01*
X-11548367Y-61080101D01*
X-11583103Y-61061534D01*
X-11613548Y-61036548D01*
X-11638534Y-61006103D01*
X-11657101Y-60971367D01*
X-11668535Y-60933674D01*
X-11673000Y-60888339D01*
X-11673000Y-60051661D01*
X-11668535Y-60006326D01*
X-11657101Y-59968633D01*
X-11638534Y-59933897D01*
X-11613548Y-59903452D01*
X-11583103Y-59878466D01*
X-11548367Y-59859899D01*
X-11510674Y-59848465D01*
X-11465339Y-59844000D01*
X-10378661Y-59844000D01*
X-10333326Y-59848465D01*
X-10333326Y-59848465D01*
G37*
G36*
X-4491326Y-59848465D02*
G01*
X-4453633Y-59859899D01*
X-4418897Y-59878466D01*
X-4388452Y-59903452D01*
X-4363466Y-59933897D01*
X-4344899Y-59968633D01*
X-4333465Y-60006326D01*
X-4329000Y-60051661D01*
X-4329000Y-60888339D01*
X-4333465Y-60933674D01*
X-4344899Y-60971367D01*
X-4363466Y-61006103D01*
X-4388452Y-61036548D01*
X-4418897Y-61061534D01*
X-4453633Y-61080101D01*
X-4491326Y-61091535D01*
X-4536661Y-61096000D01*
X-5623339Y-61096000D01*
X-5668674Y-61091535D01*
X-5706367Y-61080101D01*
X-5741103Y-61061534D01*
X-5771548Y-61036548D01*
X-5796534Y-61006103D01*
X-5815101Y-60971367D01*
X-5826535Y-60933674D01*
X-5831000Y-60888339D01*
X-5831000Y-60051661D01*
X-5826535Y-60006326D01*
X-5815101Y-59968633D01*
X-5796534Y-59933897D01*
X-5771548Y-59903452D01*
X-5741103Y-59878466D01*
X-5706367Y-59859899D01*
X-5668674Y-59848465D01*
X-5623339Y-59844000D01*
X-4536661Y-59844000D01*
X-4491326Y-59848465D01*
X-4491326Y-59848465D01*
G37*
G36*
X-16048326Y-59848465D02*
G01*
X-16010633Y-59859899D01*
X-15975897Y-59878466D01*
X-15945452Y-59903452D01*
X-15920466Y-59933897D01*
X-15901899Y-59968633D01*
X-15890465Y-60006326D01*
X-15886000Y-60051661D01*
X-15886000Y-60888339D01*
X-15890465Y-60933674D01*
X-15901899Y-60971367D01*
X-15920466Y-61006103D01*
X-15945452Y-61036548D01*
X-15975897Y-61061534D01*
X-16010633Y-61080101D01*
X-16048326Y-61091535D01*
X-16093661Y-61096000D01*
X-17180339Y-61096000D01*
X-17225674Y-61091535D01*
X-17263367Y-61080101D01*
X-17298103Y-61061534D01*
X-17328548Y-61036548D01*
X-17353534Y-61006103D01*
X-17372101Y-60971367D01*
X-17383535Y-60933674D01*
X-17388000Y-60888339D01*
X-17388000Y-60051661D01*
X-17383535Y-60006326D01*
X-17372101Y-59968633D01*
X-17353534Y-59933897D01*
X-17328548Y-59903452D01*
X-17298103Y-59878466D01*
X-17263367Y-59859899D01*
X-17225674Y-59848465D01*
X-17180339Y-59844000D01*
X-16093661Y-59844000D01*
X-16048326Y-59848465D01*
X-16048326Y-59848465D01*
G37*
G36*
X1223674Y-59848465D02*
G01*
X1261367Y-59859899D01*
X1296103Y-59878466D01*
X1326548Y-59903452D01*
X1351534Y-59933897D01*
X1370101Y-59968633D01*
X1381535Y-60006326D01*
X1386000Y-60051661D01*
X1386000Y-60888339D01*
X1381535Y-60933674D01*
X1370101Y-60971367D01*
X1351534Y-61006103D01*
X1326548Y-61036548D01*
X1296103Y-61061534D01*
X1261367Y-61080101D01*
X1223674Y-61091535D01*
X1178339Y-61096000D01*
X91661Y-61096000D01*
X46326Y-61091535D01*
X8633Y-61080101D01*
X-26103Y-61061534D01*
X-56548Y-61036548D01*
X-81534Y-61006103D01*
X-100101Y-60971367D01*
X-111535Y-60933674D01*
X-116000Y-60888339D01*
X-116000Y-60051661D01*
X-111535Y-60006326D01*
X-100101Y-59968633D01*
X-81534Y-59933897D01*
X-56548Y-59903452D01*
X-26103Y-59878466D01*
X8633Y-59859899D01*
X46326Y-59848465D01*
X91661Y-59844000D01*
X1178339Y-59844000D01*
X1223674Y-59848465D01*
X1223674Y-59848465D01*
G37*
G36*
X-35449557Y-57525519D02*
G01*
X-35383373Y-57532037D01*
X-35213534Y-57583557D01*
X-35057009Y-57667222D01*
X-35021271Y-57696552D01*
X-34919814Y-57779814D01*
X-34859382Y-57853452D01*
X-34807222Y-57917009D01*
X-34723557Y-58073534D01*
X-34672037Y-58243373D01*
X-34654641Y-58420000D01*
X-34672037Y-58596627D01*
X-34723557Y-58766466D01*
X-34807222Y-58922991D01*
X-34834397Y-58956103D01*
X-34919814Y-59060186D01*
X-35021271Y-59143448D01*
X-35057009Y-59172778D01*
X-35213534Y-59256443D01*
X-35383373Y-59307963D01*
X-35449558Y-59314482D01*
X-35515740Y-59321000D01*
X-35604260Y-59321000D01*
X-35670442Y-59314482D01*
X-35736627Y-59307963D01*
X-35906466Y-59256443D01*
X-36062991Y-59172778D01*
X-36098729Y-59143448D01*
X-36200186Y-59060186D01*
X-36285603Y-58956103D01*
X-36312778Y-58922991D01*
X-36396443Y-58766466D01*
X-36447963Y-58596627D01*
X-36465359Y-58420000D01*
X-36447963Y-58243373D01*
X-36396443Y-58073534D01*
X-36312778Y-57917009D01*
X-36260618Y-57853452D01*
X-36200186Y-57779814D01*
X-36098729Y-57696552D01*
X-36062991Y-57667222D01*
X-35906466Y-57583557D01*
X-35736627Y-57532037D01*
X-35670443Y-57525519D01*
X-35604260Y-57519000D01*
X-35515740Y-57519000D01*
X-35449557Y-57525519D01*
X-35449557Y-57525519D01*
G37*
G36*
X25510443Y-57525519D02*
G01*
X25576627Y-57532037D01*
X25746466Y-57583557D01*
X25902991Y-57667222D01*
X25938729Y-57696552D01*
X26040186Y-57779814D01*
X26100618Y-57853452D01*
X26152778Y-57917009D01*
X26236443Y-58073534D01*
X26287963Y-58243373D01*
X26305359Y-58420000D01*
X26287963Y-58596627D01*
X26236443Y-58766466D01*
X26152778Y-58922991D01*
X26125603Y-58956103D01*
X26040186Y-59060186D01*
X25938729Y-59143448D01*
X25902991Y-59172778D01*
X25746466Y-59256443D01*
X25576627Y-59307963D01*
X25510442Y-59314482D01*
X25444260Y-59321000D01*
X25355740Y-59321000D01*
X25289558Y-59314482D01*
X25223373Y-59307963D01*
X25053534Y-59256443D01*
X24897009Y-59172778D01*
X24861271Y-59143448D01*
X24759814Y-59060186D01*
X24674397Y-58956103D01*
X24647222Y-58922991D01*
X24563557Y-58766466D01*
X24512037Y-58596627D01*
X24494641Y-58420000D01*
X24512037Y-58243373D01*
X24563557Y-58073534D01*
X24647222Y-57917009D01*
X24699382Y-57853452D01*
X24759814Y-57779814D01*
X24861271Y-57696552D01*
X24897009Y-57667222D01*
X25053534Y-57583557D01*
X25223373Y-57532037D01*
X25289557Y-57525519D01*
X25355740Y-57519000D01*
X25444260Y-57519000D01*
X25510443Y-57525519D01*
X25510443Y-57525519D01*
G37*
G36*
X22970443Y-57525519D02*
G01*
X23036627Y-57532037D01*
X23206466Y-57583557D01*
X23362991Y-57667222D01*
X23398729Y-57696552D01*
X23500186Y-57779814D01*
X23560618Y-57853452D01*
X23612778Y-57917009D01*
X23696443Y-58073534D01*
X23747963Y-58243373D01*
X23765359Y-58420000D01*
X23747963Y-58596627D01*
X23696443Y-58766466D01*
X23612778Y-58922991D01*
X23585603Y-58956103D01*
X23500186Y-59060186D01*
X23398729Y-59143448D01*
X23362991Y-59172778D01*
X23206466Y-59256443D01*
X23036627Y-59307963D01*
X22970442Y-59314482D01*
X22904260Y-59321000D01*
X22815740Y-59321000D01*
X22749558Y-59314482D01*
X22683373Y-59307963D01*
X22513534Y-59256443D01*
X22357009Y-59172778D01*
X22321271Y-59143448D01*
X22219814Y-59060186D01*
X22134397Y-58956103D01*
X22107222Y-58922991D01*
X22023557Y-58766466D01*
X21972037Y-58596627D01*
X21954641Y-58420000D01*
X21972037Y-58243373D01*
X22023557Y-58073534D01*
X22107222Y-57917009D01*
X22159382Y-57853452D01*
X22219814Y-57779814D01*
X22321271Y-57696552D01*
X22357009Y-57667222D01*
X22513534Y-57583557D01*
X22683373Y-57532037D01*
X22749557Y-57525519D01*
X22815740Y-57519000D01*
X22904260Y-57519000D01*
X22970443Y-57525519D01*
X22970443Y-57525519D01*
G37*
G36*
X-37989557Y-57525519D02*
G01*
X-37923373Y-57532037D01*
X-37753534Y-57583557D01*
X-37597009Y-57667222D01*
X-37561271Y-57696552D01*
X-37459814Y-57779814D01*
X-37399382Y-57853452D01*
X-37347222Y-57917009D01*
X-37263557Y-58073534D01*
X-37212037Y-58243373D01*
X-37194641Y-58420000D01*
X-37212037Y-58596627D01*
X-37263557Y-58766466D01*
X-37347222Y-58922991D01*
X-37374397Y-58956103D01*
X-37459814Y-59060186D01*
X-37561271Y-59143448D01*
X-37597009Y-59172778D01*
X-37753534Y-59256443D01*
X-37923373Y-59307963D01*
X-37989558Y-59314482D01*
X-38055740Y-59321000D01*
X-38144260Y-59321000D01*
X-38210442Y-59314482D01*
X-38276627Y-59307963D01*
X-38446466Y-59256443D01*
X-38602991Y-59172778D01*
X-38638729Y-59143448D01*
X-38740186Y-59060186D01*
X-38825603Y-58956103D01*
X-38852778Y-58922991D01*
X-38936443Y-58766466D01*
X-38987963Y-58596627D01*
X-39005359Y-58420000D01*
X-38987963Y-58243373D01*
X-38936443Y-58073534D01*
X-38852778Y-57917009D01*
X-38800618Y-57853452D01*
X-38740186Y-57779814D01*
X-38638729Y-57696552D01*
X-38602991Y-57667222D01*
X-38446466Y-57583557D01*
X-38276627Y-57532037D01*
X-38210443Y-57525519D01*
X-38144260Y-57519000D01*
X-38055740Y-57519000D01*
X-37989557Y-57525519D01*
X-37989557Y-57525519D01*
G37*
G36*
X-10333326Y-57798465D02*
G01*
X-10295633Y-57809899D01*
X-10260897Y-57828466D01*
X-10230452Y-57853452D01*
X-10205466Y-57883897D01*
X-10186899Y-57918633D01*
X-10175465Y-57956326D01*
X-10171000Y-58001661D01*
X-10171000Y-58838339D01*
X-10175465Y-58883674D01*
X-10186899Y-58921367D01*
X-10205466Y-58956103D01*
X-10230452Y-58986548D01*
X-10260897Y-59011534D01*
X-10295633Y-59030101D01*
X-10333326Y-59041535D01*
X-10378661Y-59046000D01*
X-11465339Y-59046000D01*
X-11510674Y-59041535D01*
X-11548367Y-59030101D01*
X-11583103Y-59011534D01*
X-11613548Y-58986548D01*
X-11638534Y-58956103D01*
X-11657101Y-58921367D01*
X-11668535Y-58883674D01*
X-11673000Y-58838339D01*
X-11673000Y-58001661D01*
X-11668535Y-57956326D01*
X-11657101Y-57918633D01*
X-11638534Y-57883897D01*
X-11613548Y-57853452D01*
X-11583103Y-57828466D01*
X-11548367Y-57809899D01*
X-11510674Y-57798465D01*
X-11465339Y-57794000D01*
X-10378661Y-57794000D01*
X-10333326Y-57798465D01*
X-10333326Y-57798465D01*
G37*
G36*
X1223674Y-57798465D02*
G01*
X1261367Y-57809899D01*
X1296103Y-57828466D01*
X1326548Y-57853452D01*
X1351534Y-57883897D01*
X1370101Y-57918633D01*
X1381535Y-57956326D01*
X1386000Y-58001661D01*
X1386000Y-58838339D01*
X1381535Y-58883674D01*
X1370101Y-58921367D01*
X1351534Y-58956103D01*
X1326548Y-58986548D01*
X1296103Y-59011534D01*
X1261367Y-59030101D01*
X1223674Y-59041535D01*
X1178339Y-59046000D01*
X91661Y-59046000D01*
X46326Y-59041535D01*
X8633Y-59030101D01*
X-26103Y-59011534D01*
X-56548Y-58986548D01*
X-81534Y-58956103D01*
X-100101Y-58921367D01*
X-111535Y-58883674D01*
X-116000Y-58838339D01*
X-116000Y-58001661D01*
X-111535Y-57956326D01*
X-100101Y-57918633D01*
X-81534Y-57883897D01*
X-56548Y-57853452D01*
X-26103Y-57828466D01*
X8633Y-57809899D01*
X46326Y-57798465D01*
X91661Y-57794000D01*
X1178339Y-57794000D01*
X1223674Y-57798465D01*
X1223674Y-57798465D01*
G37*
G36*
X-4491326Y-57798465D02*
G01*
X-4453633Y-57809899D01*
X-4418897Y-57828466D01*
X-4388452Y-57853452D01*
X-4363466Y-57883897D01*
X-4344899Y-57918633D01*
X-4333465Y-57956326D01*
X-4329000Y-58001661D01*
X-4329000Y-58838339D01*
X-4333465Y-58883674D01*
X-4344899Y-58921367D01*
X-4363466Y-58956103D01*
X-4388452Y-58986548D01*
X-4418897Y-59011534D01*
X-4453633Y-59030101D01*
X-4491326Y-59041535D01*
X-4536661Y-59046000D01*
X-5623339Y-59046000D01*
X-5668674Y-59041535D01*
X-5706367Y-59030101D01*
X-5741103Y-59011534D01*
X-5771548Y-58986548D01*
X-5796534Y-58956103D01*
X-5815101Y-58921367D01*
X-5826535Y-58883674D01*
X-5831000Y-58838339D01*
X-5831000Y-58001661D01*
X-5826535Y-57956326D01*
X-5815101Y-57918633D01*
X-5796534Y-57883897D01*
X-5771548Y-57853452D01*
X-5741103Y-57828466D01*
X-5706367Y-57809899D01*
X-5668674Y-57798465D01*
X-5623339Y-57794000D01*
X-4536661Y-57794000D01*
X-4491326Y-57798465D01*
X-4491326Y-57798465D01*
G37*
G36*
X-16048326Y-57798465D02*
G01*
X-16010633Y-57809899D01*
X-15975897Y-57828466D01*
X-15945452Y-57853452D01*
X-15920466Y-57883897D01*
X-15901899Y-57918633D01*
X-15890465Y-57956326D01*
X-15886000Y-58001661D01*
X-15886000Y-58838339D01*
X-15890465Y-58883674D01*
X-15901899Y-58921367D01*
X-15920466Y-58956103D01*
X-15945452Y-58986548D01*
X-15975897Y-59011534D01*
X-16010633Y-59030101D01*
X-16048326Y-59041535D01*
X-16093661Y-59046000D01*
X-17180339Y-59046000D01*
X-17225674Y-59041535D01*
X-17263367Y-59030101D01*
X-17298103Y-59011534D01*
X-17328548Y-58986548D01*
X-17353534Y-58956103D01*
X-17372101Y-58921367D01*
X-17383535Y-58883674D01*
X-17388000Y-58838339D01*
X-17388000Y-58001661D01*
X-17383535Y-57956326D01*
X-17372101Y-57918633D01*
X-17353534Y-57883897D01*
X-17328548Y-57853452D01*
X-17298103Y-57828466D01*
X-17263367Y-57809899D01*
X-17225674Y-57798465D01*
X-17180339Y-57794000D01*
X-16093661Y-57794000D01*
X-16048326Y-57798465D01*
X-16048326Y-57798465D01*
G37*
G36*
X-35449557Y-54985519D02*
G01*
X-35383373Y-54992037D01*
X-35213534Y-55043557D01*
X-35057009Y-55127222D01*
X-35021271Y-55156552D01*
X-34919814Y-55239814D01*
X-34859382Y-55313452D01*
X-34807222Y-55377009D01*
X-34723557Y-55533534D01*
X-34672037Y-55703373D01*
X-34654641Y-55880000D01*
X-34672037Y-56056627D01*
X-34723557Y-56226466D01*
X-34807222Y-56382991D01*
X-34834397Y-56416103D01*
X-34919814Y-56520186D01*
X-35021271Y-56603448D01*
X-35057009Y-56632778D01*
X-35213534Y-56716443D01*
X-35383373Y-56767963D01*
X-35449557Y-56774481D01*
X-35515740Y-56781000D01*
X-35604260Y-56781000D01*
X-35670443Y-56774481D01*
X-35736627Y-56767963D01*
X-35906466Y-56716443D01*
X-36062991Y-56632778D01*
X-36098729Y-56603448D01*
X-36200186Y-56520186D01*
X-36285603Y-56416103D01*
X-36312778Y-56382991D01*
X-36396443Y-56226466D01*
X-36447963Y-56056627D01*
X-36465359Y-55880000D01*
X-36447963Y-55703373D01*
X-36396443Y-55533534D01*
X-36312778Y-55377009D01*
X-36260618Y-55313452D01*
X-36200186Y-55239814D01*
X-36098729Y-55156552D01*
X-36062991Y-55127222D01*
X-35906466Y-55043557D01*
X-35736627Y-54992037D01*
X-35670443Y-54985519D01*
X-35604260Y-54979000D01*
X-35515740Y-54979000D01*
X-35449557Y-54985519D01*
X-35449557Y-54985519D01*
G37*
G36*
X22970443Y-54985519D02*
G01*
X23036627Y-54992037D01*
X23206466Y-55043557D01*
X23362991Y-55127222D01*
X23398729Y-55156552D01*
X23500186Y-55239814D01*
X23560618Y-55313452D01*
X23612778Y-55377009D01*
X23696443Y-55533534D01*
X23747963Y-55703373D01*
X23765359Y-55880000D01*
X23747963Y-56056627D01*
X23696443Y-56226466D01*
X23612778Y-56382991D01*
X23585603Y-56416103D01*
X23500186Y-56520186D01*
X23398729Y-56603448D01*
X23362991Y-56632778D01*
X23206466Y-56716443D01*
X23036627Y-56767963D01*
X22970443Y-56774481D01*
X22904260Y-56781000D01*
X22815740Y-56781000D01*
X22749557Y-56774481D01*
X22683373Y-56767963D01*
X22513534Y-56716443D01*
X22357009Y-56632778D01*
X22321271Y-56603448D01*
X22219814Y-56520186D01*
X22134397Y-56416103D01*
X22107222Y-56382991D01*
X22023557Y-56226466D01*
X21972037Y-56056627D01*
X21954641Y-55880000D01*
X21972037Y-55703373D01*
X22023557Y-55533534D01*
X22107222Y-55377009D01*
X22159382Y-55313452D01*
X22219814Y-55239814D01*
X22321271Y-55156552D01*
X22357009Y-55127222D01*
X22513534Y-55043557D01*
X22683373Y-54992037D01*
X22749557Y-54985519D01*
X22815740Y-54979000D01*
X22904260Y-54979000D01*
X22970443Y-54985519D01*
X22970443Y-54985519D01*
G37*
G36*
X25510443Y-54985519D02*
G01*
X25576627Y-54992037D01*
X25746466Y-55043557D01*
X25902991Y-55127222D01*
X25938729Y-55156552D01*
X26040186Y-55239814D01*
X26100618Y-55313452D01*
X26152778Y-55377009D01*
X26236443Y-55533534D01*
X26287963Y-55703373D01*
X26305359Y-55880000D01*
X26287963Y-56056627D01*
X26236443Y-56226466D01*
X26152778Y-56382991D01*
X26125603Y-56416103D01*
X26040186Y-56520186D01*
X25938729Y-56603448D01*
X25902991Y-56632778D01*
X25746466Y-56716443D01*
X25576627Y-56767963D01*
X25510443Y-56774481D01*
X25444260Y-56781000D01*
X25355740Y-56781000D01*
X25289557Y-56774481D01*
X25223373Y-56767963D01*
X25053534Y-56716443D01*
X24897009Y-56632778D01*
X24861271Y-56603448D01*
X24759814Y-56520186D01*
X24674397Y-56416103D01*
X24647222Y-56382991D01*
X24563557Y-56226466D01*
X24512037Y-56056627D01*
X24494641Y-55880000D01*
X24512037Y-55703373D01*
X24563557Y-55533534D01*
X24647222Y-55377009D01*
X24699382Y-55313452D01*
X24759814Y-55239814D01*
X24861271Y-55156552D01*
X24897009Y-55127222D01*
X25053534Y-55043557D01*
X25223373Y-54992037D01*
X25289557Y-54985519D01*
X25355740Y-54979000D01*
X25444260Y-54979000D01*
X25510443Y-54985519D01*
X25510443Y-54985519D01*
G37*
G36*
X-37989557Y-54985519D02*
G01*
X-37923373Y-54992037D01*
X-37753534Y-55043557D01*
X-37597009Y-55127222D01*
X-37561271Y-55156552D01*
X-37459814Y-55239814D01*
X-37399382Y-55313452D01*
X-37347222Y-55377009D01*
X-37263557Y-55533534D01*
X-37212037Y-55703373D01*
X-37194641Y-55880000D01*
X-37212037Y-56056627D01*
X-37263557Y-56226466D01*
X-37347222Y-56382991D01*
X-37374397Y-56416103D01*
X-37459814Y-56520186D01*
X-37561271Y-56603448D01*
X-37597009Y-56632778D01*
X-37753534Y-56716443D01*
X-37923373Y-56767963D01*
X-37989557Y-56774481D01*
X-38055740Y-56781000D01*
X-38144260Y-56781000D01*
X-38210443Y-56774481D01*
X-38276627Y-56767963D01*
X-38446466Y-56716443D01*
X-38602991Y-56632778D01*
X-38638729Y-56603448D01*
X-38740186Y-56520186D01*
X-38825603Y-56416103D01*
X-38852778Y-56382991D01*
X-38936443Y-56226466D01*
X-38987963Y-56056627D01*
X-39005359Y-55880000D01*
X-38987963Y-55703373D01*
X-38936443Y-55533534D01*
X-38852778Y-55377009D01*
X-38800618Y-55313452D01*
X-38740186Y-55239814D01*
X-38638729Y-55156552D01*
X-38602991Y-55127222D01*
X-38446466Y-55043557D01*
X-38276627Y-54992037D01*
X-38210443Y-54985519D01*
X-38144260Y-54979000D01*
X-38055740Y-54979000D01*
X-37989557Y-54985519D01*
X-37989557Y-54985519D01*
G37*
G36*
X-16048326Y-55258465D02*
G01*
X-16010633Y-55269899D01*
X-15975897Y-55288466D01*
X-15945452Y-55313452D01*
X-15920466Y-55343897D01*
X-15901899Y-55378633D01*
X-15890465Y-55416326D01*
X-15886000Y-55461661D01*
X-15886000Y-56298339D01*
X-15890465Y-56343674D01*
X-15901899Y-56381367D01*
X-15920466Y-56416103D01*
X-15945452Y-56446548D01*
X-15975897Y-56471534D01*
X-16010633Y-56490101D01*
X-16048326Y-56501535D01*
X-16093661Y-56506000D01*
X-17180339Y-56506000D01*
X-17225674Y-56501535D01*
X-17263367Y-56490101D01*
X-17298103Y-56471534D01*
X-17328548Y-56446548D01*
X-17353534Y-56416103D01*
X-17372101Y-56381367D01*
X-17383535Y-56343674D01*
X-17388000Y-56298339D01*
X-17388000Y-55461661D01*
X-17383535Y-55416326D01*
X-17372101Y-55378633D01*
X-17353534Y-55343897D01*
X-17328548Y-55313452D01*
X-17298103Y-55288466D01*
X-17263367Y-55269899D01*
X-17225674Y-55258465D01*
X-17180339Y-55254000D01*
X-16093661Y-55254000D01*
X-16048326Y-55258465D01*
X-16048326Y-55258465D01*
G37*
G36*
X-10290993Y-55258465D02*
G01*
X-10253300Y-55269899D01*
X-10218564Y-55288466D01*
X-10188119Y-55313452D01*
X-10163133Y-55343897D01*
X-10144566Y-55378633D01*
X-10133132Y-55416326D01*
X-10128667Y-55461661D01*
X-10128667Y-56298339D01*
X-10133132Y-56343674D01*
X-10144566Y-56381367D01*
X-10163133Y-56416103D01*
X-10188119Y-56446548D01*
X-10218564Y-56471534D01*
X-10253300Y-56490101D01*
X-10290993Y-56501535D01*
X-10336328Y-56506000D01*
X-11423006Y-56506000D01*
X-11468341Y-56501535D01*
X-11506034Y-56490101D01*
X-11540770Y-56471534D01*
X-11571215Y-56446548D01*
X-11596201Y-56416103D01*
X-11614768Y-56381367D01*
X-11626202Y-56343674D01*
X-11630667Y-56298339D01*
X-11630667Y-55461661D01*
X-11626202Y-55416326D01*
X-11614768Y-55378633D01*
X-11596201Y-55343897D01*
X-11571215Y-55313452D01*
X-11540770Y-55288466D01*
X-11506034Y-55269899D01*
X-11468341Y-55258465D01*
X-11423006Y-55254000D01*
X-10336328Y-55254000D01*
X-10290993Y-55258465D01*
X-10290993Y-55258465D01*
G37*
G36*
X-4533660Y-55258465D02*
G01*
X-4495967Y-55269899D01*
X-4461231Y-55288466D01*
X-4430786Y-55313452D01*
X-4405800Y-55343897D01*
X-4387233Y-55378633D01*
X-4375799Y-55416326D01*
X-4371334Y-55461661D01*
X-4371334Y-56298339D01*
X-4375799Y-56343674D01*
X-4387233Y-56381367D01*
X-4405800Y-56416103D01*
X-4430786Y-56446548D01*
X-4461231Y-56471534D01*
X-4495967Y-56490101D01*
X-4533660Y-56501535D01*
X-4578995Y-56506000D01*
X-5665673Y-56506000D01*
X-5711008Y-56501535D01*
X-5748701Y-56490101D01*
X-5783437Y-56471534D01*
X-5813882Y-56446548D01*
X-5838868Y-56416103D01*
X-5857435Y-56381367D01*
X-5868869Y-56343674D01*
X-5873334Y-56298339D01*
X-5873334Y-55461661D01*
X-5868869Y-55416326D01*
X-5857435Y-55378633D01*
X-5838868Y-55343897D01*
X-5813882Y-55313452D01*
X-5783437Y-55288466D01*
X-5748701Y-55269899D01*
X-5711008Y-55258465D01*
X-5665673Y-55254000D01*
X-4578995Y-55254000D01*
X-4533660Y-55258465D01*
X-4533660Y-55258465D01*
G37*
G36*
X1223674Y-55258465D02*
G01*
X1261367Y-55269899D01*
X1296103Y-55288466D01*
X1326548Y-55313452D01*
X1351534Y-55343897D01*
X1370101Y-55378633D01*
X1381535Y-55416326D01*
X1386000Y-55461661D01*
X1386000Y-56298339D01*
X1381535Y-56343674D01*
X1370101Y-56381367D01*
X1351534Y-56416103D01*
X1326548Y-56446548D01*
X1296103Y-56471534D01*
X1261367Y-56490101D01*
X1223674Y-56501535D01*
X1178339Y-56506000D01*
X91661Y-56506000D01*
X46326Y-56501535D01*
X8633Y-56490101D01*
X-26103Y-56471534D01*
X-56548Y-56446548D01*
X-81534Y-56416103D01*
X-100101Y-56381367D01*
X-111535Y-56343674D01*
X-116000Y-56298339D01*
X-116000Y-55461661D01*
X-111535Y-55416326D01*
X-100101Y-55378633D01*
X-81534Y-55343897D01*
X-56548Y-55313452D01*
X-26103Y-55288466D01*
X8633Y-55269899D01*
X46326Y-55258465D01*
X91661Y-55254000D01*
X1178339Y-55254000D01*
X1223674Y-55258465D01*
X1223674Y-55258465D01*
G37*
G36*
X-16048326Y-53208465D02*
G01*
X-16010633Y-53219899D01*
X-15975897Y-53238466D01*
X-15945452Y-53263452D01*
X-15920466Y-53293897D01*
X-15901899Y-53328633D01*
X-15890465Y-53366326D01*
X-15886000Y-53411661D01*
X-15886000Y-54248339D01*
X-15890465Y-54293674D01*
X-15901899Y-54331367D01*
X-15920466Y-54366103D01*
X-15945452Y-54396548D01*
X-15975897Y-54421534D01*
X-16010633Y-54440101D01*
X-16048326Y-54451535D01*
X-16093661Y-54456000D01*
X-17180339Y-54456000D01*
X-17225674Y-54451535D01*
X-17263367Y-54440101D01*
X-17298103Y-54421534D01*
X-17328548Y-54396548D01*
X-17353534Y-54366103D01*
X-17372101Y-54331367D01*
X-17383535Y-54293674D01*
X-17388000Y-54248339D01*
X-17388000Y-53411661D01*
X-17383535Y-53366326D01*
X-17372101Y-53328633D01*
X-17353534Y-53293897D01*
X-17328548Y-53263452D01*
X-17298103Y-53238466D01*
X-17263367Y-53219899D01*
X-17225674Y-53208465D01*
X-17180339Y-53204000D01*
X-16093661Y-53204000D01*
X-16048326Y-53208465D01*
X-16048326Y-53208465D01*
G37*
G36*
X1223674Y-53208465D02*
G01*
X1261367Y-53219899D01*
X1296103Y-53238466D01*
X1326548Y-53263452D01*
X1351534Y-53293897D01*
X1370101Y-53328633D01*
X1381535Y-53366326D01*
X1386000Y-53411661D01*
X1386000Y-54248339D01*
X1381535Y-54293674D01*
X1370101Y-54331367D01*
X1351534Y-54366103D01*
X1326548Y-54396548D01*
X1296103Y-54421534D01*
X1261367Y-54440101D01*
X1223674Y-54451535D01*
X1178339Y-54456000D01*
X91661Y-54456000D01*
X46326Y-54451535D01*
X8633Y-54440101D01*
X-26103Y-54421534D01*
X-56548Y-54396548D01*
X-81534Y-54366103D01*
X-100101Y-54331367D01*
X-111535Y-54293674D01*
X-116000Y-54248339D01*
X-116000Y-53411661D01*
X-111535Y-53366326D01*
X-100101Y-53328633D01*
X-81534Y-53293897D01*
X-56548Y-53263452D01*
X-26103Y-53238466D01*
X8633Y-53219899D01*
X46326Y-53208465D01*
X91661Y-53204000D01*
X1178339Y-53204000D01*
X1223674Y-53208465D01*
X1223674Y-53208465D01*
G37*
G36*
X-4533660Y-53208465D02*
G01*
X-4495967Y-53219899D01*
X-4461231Y-53238466D01*
X-4430786Y-53263452D01*
X-4405800Y-53293897D01*
X-4387233Y-53328633D01*
X-4375799Y-53366326D01*
X-4371334Y-53411661D01*
X-4371334Y-54248339D01*
X-4375799Y-54293674D01*
X-4387233Y-54331367D01*
X-4405800Y-54366103D01*
X-4430786Y-54396548D01*
X-4461231Y-54421534D01*
X-4495967Y-54440101D01*
X-4533660Y-54451535D01*
X-4578995Y-54456000D01*
X-5665673Y-54456000D01*
X-5711008Y-54451535D01*
X-5748701Y-54440101D01*
X-5783437Y-54421534D01*
X-5813882Y-54396548D01*
X-5838868Y-54366103D01*
X-5857435Y-54331367D01*
X-5868869Y-54293674D01*
X-5873334Y-54248339D01*
X-5873334Y-53411661D01*
X-5868869Y-53366326D01*
X-5857435Y-53328633D01*
X-5838868Y-53293897D01*
X-5813882Y-53263452D01*
X-5783437Y-53238466D01*
X-5748701Y-53219899D01*
X-5711008Y-53208465D01*
X-5665673Y-53204000D01*
X-4578995Y-53204000D01*
X-4533660Y-53208465D01*
X-4533660Y-53208465D01*
G37*
G36*
X-10290993Y-53208465D02*
G01*
X-10253300Y-53219899D01*
X-10218564Y-53238466D01*
X-10188119Y-53263452D01*
X-10163133Y-53293897D01*
X-10144566Y-53328633D01*
X-10133132Y-53366326D01*
X-10128667Y-53411661D01*
X-10128667Y-54248339D01*
X-10133132Y-54293674D01*
X-10144566Y-54331367D01*
X-10163133Y-54366103D01*
X-10188119Y-54396548D01*
X-10218564Y-54421534D01*
X-10253300Y-54440101D01*
X-10290993Y-54451535D01*
X-10336328Y-54456000D01*
X-11423006Y-54456000D01*
X-11468341Y-54451535D01*
X-11506034Y-54440101D01*
X-11540770Y-54421534D01*
X-11571215Y-54396548D01*
X-11596201Y-54366103D01*
X-11614768Y-54331367D01*
X-11626202Y-54293674D01*
X-11630667Y-54248339D01*
X-11630667Y-53411661D01*
X-11626202Y-53366326D01*
X-11614768Y-53328633D01*
X-11596201Y-53293897D01*
X-11571215Y-53263452D01*
X-11540770Y-53238466D01*
X-11506034Y-53219899D01*
X-11468341Y-53208465D01*
X-11423006Y-53204000D01*
X-10336328Y-53204000D01*
X-10290993Y-53208465D01*
X-10290993Y-53208465D01*
G37*
G36*
X22970443Y-52445519D02*
G01*
X23036627Y-52452037D01*
X23206466Y-52503557D01*
X23362991Y-52587222D01*
X23398729Y-52616552D01*
X23500186Y-52699814D01*
X23583448Y-52801271D01*
X23612778Y-52837009D01*
X23696443Y-52993534D01*
X23747963Y-53163373D01*
X23765359Y-53340000D01*
X23747963Y-53516627D01*
X23696443Y-53686466D01*
X23612778Y-53842991D01*
X23583448Y-53878729D01*
X23500186Y-53980186D01*
X23398729Y-54063448D01*
X23362991Y-54092778D01*
X23206466Y-54176443D01*
X23036627Y-54227963D01*
X22970442Y-54234482D01*
X22904260Y-54241000D01*
X22815740Y-54241000D01*
X22749558Y-54234482D01*
X22683373Y-54227963D01*
X22513534Y-54176443D01*
X22357009Y-54092778D01*
X22321271Y-54063448D01*
X22219814Y-53980186D01*
X22136552Y-53878729D01*
X22107222Y-53842991D01*
X22023557Y-53686466D01*
X21972037Y-53516627D01*
X21954641Y-53340000D01*
X21972037Y-53163373D01*
X22023557Y-52993534D01*
X22107222Y-52837009D01*
X22136552Y-52801271D01*
X22219814Y-52699814D01*
X22321271Y-52616552D01*
X22357009Y-52587222D01*
X22513534Y-52503557D01*
X22683373Y-52452037D01*
X22749558Y-52445518D01*
X22815740Y-52439000D01*
X22904260Y-52439000D01*
X22970443Y-52445519D01*
X22970443Y-52445519D01*
G37*
G36*
X-37989558Y-52445518D02*
G01*
X-37923373Y-52452037D01*
X-37753534Y-52503557D01*
X-37597009Y-52587222D01*
X-37561271Y-52616552D01*
X-37459814Y-52699814D01*
X-37376552Y-52801271D01*
X-37347222Y-52837009D01*
X-37263557Y-52993534D01*
X-37212037Y-53163373D01*
X-37194641Y-53340000D01*
X-37212037Y-53516627D01*
X-37263557Y-53686466D01*
X-37347222Y-53842991D01*
X-37376552Y-53878729D01*
X-37459814Y-53980186D01*
X-37561271Y-54063448D01*
X-37597009Y-54092778D01*
X-37753534Y-54176443D01*
X-37923373Y-54227963D01*
X-37989558Y-54234482D01*
X-38055740Y-54241000D01*
X-38144260Y-54241000D01*
X-38210442Y-54234482D01*
X-38276627Y-54227963D01*
X-38446466Y-54176443D01*
X-38602991Y-54092778D01*
X-38638729Y-54063448D01*
X-38740186Y-53980186D01*
X-38823448Y-53878729D01*
X-38852778Y-53842991D01*
X-38936443Y-53686466D01*
X-38987963Y-53516627D01*
X-39005359Y-53340000D01*
X-38987963Y-53163373D01*
X-38936443Y-52993534D01*
X-38852778Y-52837009D01*
X-38823448Y-52801271D01*
X-38740186Y-52699814D01*
X-38638729Y-52616552D01*
X-38602991Y-52587222D01*
X-38446466Y-52503557D01*
X-38276627Y-52452037D01*
X-38210443Y-52445519D01*
X-38144260Y-52439000D01*
X-38055740Y-52439000D01*
X-37989558Y-52445518D01*
X-37989558Y-52445518D01*
G37*
G36*
X-35449558Y-52445518D02*
G01*
X-35383373Y-52452037D01*
X-35213534Y-52503557D01*
X-35057009Y-52587222D01*
X-35021271Y-52616552D01*
X-34919814Y-52699814D01*
X-34836552Y-52801271D01*
X-34807222Y-52837009D01*
X-34723557Y-52993534D01*
X-34672037Y-53163373D01*
X-34654641Y-53340000D01*
X-34672037Y-53516627D01*
X-34723557Y-53686466D01*
X-34807222Y-53842991D01*
X-34836552Y-53878729D01*
X-34919814Y-53980186D01*
X-35021271Y-54063448D01*
X-35057009Y-54092778D01*
X-35213534Y-54176443D01*
X-35383373Y-54227963D01*
X-35449558Y-54234482D01*
X-35515740Y-54241000D01*
X-35604260Y-54241000D01*
X-35670442Y-54234482D01*
X-35736627Y-54227963D01*
X-35906466Y-54176443D01*
X-36062991Y-54092778D01*
X-36098729Y-54063448D01*
X-36200186Y-53980186D01*
X-36283448Y-53878729D01*
X-36312778Y-53842991D01*
X-36396443Y-53686466D01*
X-36447963Y-53516627D01*
X-36465359Y-53340000D01*
X-36447963Y-53163373D01*
X-36396443Y-52993534D01*
X-36312778Y-52837009D01*
X-36283448Y-52801271D01*
X-36200186Y-52699814D01*
X-36098729Y-52616552D01*
X-36062991Y-52587222D01*
X-35906466Y-52503557D01*
X-35736627Y-52452037D01*
X-35670443Y-52445519D01*
X-35604260Y-52439000D01*
X-35515740Y-52439000D01*
X-35449558Y-52445518D01*
X-35449558Y-52445518D01*
G37*
G36*
X25510443Y-52445519D02*
G01*
X25576627Y-52452037D01*
X25746466Y-52503557D01*
X25902991Y-52587222D01*
X25938729Y-52616552D01*
X26040186Y-52699814D01*
X26123448Y-52801271D01*
X26152778Y-52837009D01*
X26236443Y-52993534D01*
X26287963Y-53163373D01*
X26305359Y-53340000D01*
X26287963Y-53516627D01*
X26236443Y-53686466D01*
X26152778Y-53842991D01*
X26123448Y-53878729D01*
X26040186Y-53980186D01*
X25938729Y-54063448D01*
X25902991Y-54092778D01*
X25746466Y-54176443D01*
X25576627Y-54227963D01*
X25510442Y-54234482D01*
X25444260Y-54241000D01*
X25355740Y-54241000D01*
X25289558Y-54234482D01*
X25223373Y-54227963D01*
X25053534Y-54176443D01*
X24897009Y-54092778D01*
X24861271Y-54063448D01*
X24759814Y-53980186D01*
X24676552Y-53878729D01*
X24647222Y-53842991D01*
X24563557Y-53686466D01*
X24512037Y-53516627D01*
X24494641Y-53340000D01*
X24512037Y-53163373D01*
X24563557Y-52993534D01*
X24647222Y-52837009D01*
X24676552Y-52801271D01*
X24759814Y-52699814D01*
X24861271Y-52616552D01*
X24897009Y-52587222D01*
X25053534Y-52503557D01*
X25223373Y-52452037D01*
X25289558Y-52445518D01*
X25355740Y-52439000D01*
X25444260Y-52439000D01*
X25510443Y-52445519D01*
X25510443Y-52445519D01*
G37*
G36*
X22970442Y-49905518D02*
G01*
X23036627Y-49912037D01*
X23206466Y-49963557D01*
X23362991Y-50047222D01*
X23398729Y-50076552D01*
X23500186Y-50159814D01*
X23583448Y-50261271D01*
X23612778Y-50297009D01*
X23696443Y-50453534D01*
X23747963Y-50623373D01*
X23765359Y-50800000D01*
X23747963Y-50976627D01*
X23696443Y-51146466D01*
X23612778Y-51302991D01*
X23583448Y-51338729D01*
X23500186Y-51440186D01*
X23398729Y-51523448D01*
X23362991Y-51552778D01*
X23206466Y-51636443D01*
X23036627Y-51687963D01*
X22970442Y-51694482D01*
X22904260Y-51701000D01*
X22815740Y-51701000D01*
X22749558Y-51694482D01*
X22683373Y-51687963D01*
X22513534Y-51636443D01*
X22357009Y-51552778D01*
X22321271Y-51523448D01*
X22219814Y-51440186D01*
X22136552Y-51338729D01*
X22107222Y-51302991D01*
X22023557Y-51146466D01*
X21972037Y-50976627D01*
X21954641Y-50800000D01*
X21972037Y-50623373D01*
X22023557Y-50453534D01*
X22107222Y-50297009D01*
X22136552Y-50261271D01*
X22219814Y-50159814D01*
X22321271Y-50076552D01*
X22357009Y-50047222D01*
X22513534Y-49963557D01*
X22683373Y-49912037D01*
X22749558Y-49905518D01*
X22815740Y-49899000D01*
X22904260Y-49899000D01*
X22970442Y-49905518D01*
X22970442Y-49905518D01*
G37*
G36*
X-37989557Y-49905519D02*
G01*
X-37923373Y-49912037D01*
X-37753534Y-49963557D01*
X-37597009Y-50047222D01*
X-37561271Y-50076552D01*
X-37459814Y-50159814D01*
X-37376552Y-50261271D01*
X-37347222Y-50297009D01*
X-37263557Y-50453534D01*
X-37212037Y-50623373D01*
X-37194641Y-50800000D01*
X-37212037Y-50976627D01*
X-37263557Y-51146466D01*
X-37347222Y-51302991D01*
X-37376552Y-51338729D01*
X-37459814Y-51440186D01*
X-37561271Y-51523448D01*
X-37597009Y-51552778D01*
X-37753534Y-51636443D01*
X-37923373Y-51687963D01*
X-37989558Y-51694482D01*
X-38055740Y-51701000D01*
X-38144260Y-51701000D01*
X-38210442Y-51694482D01*
X-38276627Y-51687963D01*
X-38446466Y-51636443D01*
X-38602991Y-51552778D01*
X-38638729Y-51523448D01*
X-38740186Y-51440186D01*
X-38823448Y-51338729D01*
X-38852778Y-51302991D01*
X-38936443Y-51146466D01*
X-38987963Y-50976627D01*
X-39005359Y-50800000D01*
X-38987963Y-50623373D01*
X-38936443Y-50453534D01*
X-38852778Y-50297009D01*
X-38823448Y-50261271D01*
X-38740186Y-50159814D01*
X-38638729Y-50076552D01*
X-38602991Y-50047222D01*
X-38446466Y-49963557D01*
X-38276627Y-49912037D01*
X-38210442Y-49905518D01*
X-38144260Y-49899000D01*
X-38055740Y-49899000D01*
X-37989557Y-49905519D01*
X-37989557Y-49905519D01*
G37*
G36*
X-35449557Y-49905519D02*
G01*
X-35383373Y-49912037D01*
X-35213534Y-49963557D01*
X-35057009Y-50047222D01*
X-35021271Y-50076552D01*
X-34919814Y-50159814D01*
X-34836552Y-50261271D01*
X-34807222Y-50297009D01*
X-34723557Y-50453534D01*
X-34672037Y-50623373D01*
X-34654641Y-50800000D01*
X-34672037Y-50976627D01*
X-34723557Y-51146466D01*
X-34807222Y-51302991D01*
X-34836552Y-51338729D01*
X-34919814Y-51440186D01*
X-35021271Y-51523448D01*
X-35057009Y-51552778D01*
X-35213534Y-51636443D01*
X-35383373Y-51687963D01*
X-35449558Y-51694482D01*
X-35515740Y-51701000D01*
X-35604260Y-51701000D01*
X-35670442Y-51694482D01*
X-35736627Y-51687963D01*
X-35906466Y-51636443D01*
X-36062991Y-51552778D01*
X-36098729Y-51523448D01*
X-36200186Y-51440186D01*
X-36283448Y-51338729D01*
X-36312778Y-51302991D01*
X-36396443Y-51146466D01*
X-36447963Y-50976627D01*
X-36465359Y-50800000D01*
X-36447963Y-50623373D01*
X-36396443Y-50453534D01*
X-36312778Y-50297009D01*
X-36283448Y-50261271D01*
X-36200186Y-50159814D01*
X-36098729Y-50076552D01*
X-36062991Y-50047222D01*
X-35906466Y-49963557D01*
X-35736627Y-49912037D01*
X-35670442Y-49905518D01*
X-35604260Y-49899000D01*
X-35515740Y-49899000D01*
X-35449557Y-49905519D01*
X-35449557Y-49905519D01*
G37*
G36*
X25510442Y-49905518D02*
G01*
X25576627Y-49912037D01*
X25746466Y-49963557D01*
X25902991Y-50047222D01*
X25938729Y-50076552D01*
X26040186Y-50159814D01*
X26123448Y-50261271D01*
X26152778Y-50297009D01*
X26236443Y-50453534D01*
X26287963Y-50623373D01*
X26305359Y-50800000D01*
X26287963Y-50976627D01*
X26236443Y-51146466D01*
X26152778Y-51302991D01*
X26123448Y-51338729D01*
X26040186Y-51440186D01*
X25938729Y-51523448D01*
X25902991Y-51552778D01*
X25746466Y-51636443D01*
X25576627Y-51687963D01*
X25510442Y-51694482D01*
X25444260Y-51701000D01*
X25355740Y-51701000D01*
X25289558Y-51694482D01*
X25223373Y-51687963D01*
X25053534Y-51636443D01*
X24897009Y-51552778D01*
X24861271Y-51523448D01*
X24759814Y-51440186D01*
X24676552Y-51338729D01*
X24647222Y-51302991D01*
X24563557Y-51146466D01*
X24512037Y-50976627D01*
X24494641Y-50800000D01*
X24512037Y-50623373D01*
X24563557Y-50453534D01*
X24647222Y-50297009D01*
X24676552Y-50261271D01*
X24759814Y-50159814D01*
X24861271Y-50076552D01*
X24897009Y-50047222D01*
X25053534Y-49963557D01*
X25223373Y-49912037D01*
X25289558Y-49905518D01*
X25355740Y-49899000D01*
X25444260Y-49899000D01*
X25510442Y-49905518D01*
X25510442Y-49905518D01*
G37*
G36*
X25510443Y-47365519D02*
G01*
X25576627Y-47372037D01*
X25746466Y-47423557D01*
X25902991Y-47507222D01*
X25938729Y-47536552D01*
X26040186Y-47619814D01*
X26123448Y-47721271D01*
X26152778Y-47757009D01*
X26236443Y-47913534D01*
X26287963Y-48083373D01*
X26305359Y-48260000D01*
X26287963Y-48436627D01*
X26236443Y-48606466D01*
X26152778Y-48762991D01*
X26123448Y-48798729D01*
X26040186Y-48900186D01*
X25938729Y-48983448D01*
X25902991Y-49012778D01*
X25746466Y-49096443D01*
X25576627Y-49147963D01*
X25510443Y-49154481D01*
X25444260Y-49161000D01*
X25355740Y-49161000D01*
X25289557Y-49154481D01*
X25223373Y-49147963D01*
X25053534Y-49096443D01*
X24897009Y-49012778D01*
X24861271Y-48983448D01*
X24759814Y-48900186D01*
X24676552Y-48798729D01*
X24647222Y-48762991D01*
X24563557Y-48606466D01*
X24512037Y-48436627D01*
X24494641Y-48260000D01*
X24512037Y-48083373D01*
X24563557Y-47913534D01*
X24647222Y-47757009D01*
X24676552Y-47721271D01*
X24759814Y-47619814D01*
X24861271Y-47536552D01*
X24897009Y-47507222D01*
X25053534Y-47423557D01*
X25223373Y-47372037D01*
X25289557Y-47365519D01*
X25355740Y-47359000D01*
X25444260Y-47359000D01*
X25510443Y-47365519D01*
X25510443Y-47365519D01*
G37*
G36*
X22970443Y-47365519D02*
G01*
X23036627Y-47372037D01*
X23206466Y-47423557D01*
X23362991Y-47507222D01*
X23398729Y-47536552D01*
X23500186Y-47619814D01*
X23583448Y-47721271D01*
X23612778Y-47757009D01*
X23696443Y-47913534D01*
X23747963Y-48083373D01*
X23765359Y-48260000D01*
X23747963Y-48436627D01*
X23696443Y-48606466D01*
X23612778Y-48762991D01*
X23583448Y-48798729D01*
X23500186Y-48900186D01*
X23398729Y-48983448D01*
X23362991Y-49012778D01*
X23206466Y-49096443D01*
X23036627Y-49147963D01*
X22970443Y-49154481D01*
X22904260Y-49161000D01*
X22815740Y-49161000D01*
X22749557Y-49154481D01*
X22683373Y-49147963D01*
X22513534Y-49096443D01*
X22357009Y-49012778D01*
X22321271Y-48983448D01*
X22219814Y-48900186D01*
X22136552Y-48798729D01*
X22107222Y-48762991D01*
X22023557Y-48606466D01*
X21972037Y-48436627D01*
X21954641Y-48260000D01*
X21972037Y-48083373D01*
X22023557Y-47913534D01*
X22107222Y-47757009D01*
X22136552Y-47721271D01*
X22219814Y-47619814D01*
X22321271Y-47536552D01*
X22357009Y-47507222D01*
X22513534Y-47423557D01*
X22683373Y-47372037D01*
X22749557Y-47365519D01*
X22815740Y-47359000D01*
X22904260Y-47359000D01*
X22970443Y-47365519D01*
X22970443Y-47365519D01*
G37*
G36*
X-37989557Y-47365519D02*
G01*
X-37923373Y-47372037D01*
X-37753534Y-47423557D01*
X-37597009Y-47507222D01*
X-37561271Y-47536552D01*
X-37459814Y-47619814D01*
X-37376552Y-47721271D01*
X-37347222Y-47757009D01*
X-37263557Y-47913534D01*
X-37212037Y-48083373D01*
X-37194641Y-48260000D01*
X-37212037Y-48436627D01*
X-37263557Y-48606466D01*
X-37347222Y-48762991D01*
X-37376552Y-48798729D01*
X-37459814Y-48900186D01*
X-37561271Y-48983448D01*
X-37597009Y-49012778D01*
X-37753534Y-49096443D01*
X-37923373Y-49147963D01*
X-37989557Y-49154481D01*
X-38055740Y-49161000D01*
X-38144260Y-49161000D01*
X-38210443Y-49154481D01*
X-38276627Y-49147963D01*
X-38446466Y-49096443D01*
X-38602991Y-49012778D01*
X-38638729Y-48983448D01*
X-38740186Y-48900186D01*
X-38823448Y-48798729D01*
X-38852778Y-48762991D01*
X-38936443Y-48606466D01*
X-38987963Y-48436627D01*
X-39005359Y-48260000D01*
X-38987963Y-48083373D01*
X-38936443Y-47913534D01*
X-38852778Y-47757009D01*
X-38823448Y-47721271D01*
X-38740186Y-47619814D01*
X-38638729Y-47536552D01*
X-38602991Y-47507222D01*
X-38446466Y-47423557D01*
X-38276627Y-47372037D01*
X-38210443Y-47365519D01*
X-38144260Y-47359000D01*
X-38055740Y-47359000D01*
X-37989557Y-47365519D01*
X-37989557Y-47365519D01*
G37*
G36*
X-35449557Y-47365519D02*
G01*
X-35383373Y-47372037D01*
X-35213534Y-47423557D01*
X-35057009Y-47507222D01*
X-35021271Y-47536552D01*
X-34919814Y-47619814D01*
X-34836552Y-47721271D01*
X-34807222Y-47757009D01*
X-34723557Y-47913534D01*
X-34672037Y-48083373D01*
X-34654641Y-48260000D01*
X-34672037Y-48436627D01*
X-34723557Y-48606466D01*
X-34807222Y-48762991D01*
X-34836552Y-48798729D01*
X-34919814Y-48900186D01*
X-35021271Y-48983448D01*
X-35057009Y-49012778D01*
X-35213534Y-49096443D01*
X-35383373Y-49147963D01*
X-35449557Y-49154481D01*
X-35515740Y-49161000D01*
X-35604260Y-49161000D01*
X-35670443Y-49154481D01*
X-35736627Y-49147963D01*
X-35906466Y-49096443D01*
X-36062991Y-49012778D01*
X-36098729Y-48983448D01*
X-36200186Y-48900186D01*
X-36283448Y-48798729D01*
X-36312778Y-48762991D01*
X-36396443Y-48606466D01*
X-36447963Y-48436627D01*
X-36465359Y-48260000D01*
X-36447963Y-48083373D01*
X-36396443Y-47913534D01*
X-36312778Y-47757009D01*
X-36283448Y-47721271D01*
X-36200186Y-47619814D01*
X-36098729Y-47536552D01*
X-36062991Y-47507222D01*
X-35906466Y-47423557D01*
X-35736627Y-47372037D01*
X-35670443Y-47365519D01*
X-35604260Y-47359000D01*
X-35515740Y-47359000D01*
X-35449557Y-47365519D01*
X-35449557Y-47365519D01*
G37*
G36*
X25510442Y-44825518D02*
G01*
X25576627Y-44832037D01*
X25746466Y-44883557D01*
X25902991Y-44967222D01*
X25938729Y-44996552D01*
X26040186Y-45079814D01*
X26123448Y-45181271D01*
X26152778Y-45217009D01*
X26236443Y-45373534D01*
X26287963Y-45543373D01*
X26305359Y-45720000D01*
X26287963Y-45896627D01*
X26236443Y-46066466D01*
X26152778Y-46222991D01*
X26123448Y-46258729D01*
X26040186Y-46360186D01*
X25938729Y-46443448D01*
X25902991Y-46472778D01*
X25746466Y-46556443D01*
X25576627Y-46607963D01*
X25510442Y-46614482D01*
X25444260Y-46621000D01*
X25355740Y-46621000D01*
X25289558Y-46614482D01*
X25223373Y-46607963D01*
X25053534Y-46556443D01*
X24897009Y-46472778D01*
X24861271Y-46443448D01*
X24759814Y-46360186D01*
X24676552Y-46258729D01*
X24647222Y-46222991D01*
X24563557Y-46066466D01*
X24512037Y-45896627D01*
X24494641Y-45720000D01*
X24512037Y-45543373D01*
X24563557Y-45373534D01*
X24647222Y-45217009D01*
X24676552Y-45181271D01*
X24759814Y-45079814D01*
X24861271Y-44996552D01*
X24897009Y-44967222D01*
X25053534Y-44883557D01*
X25223373Y-44832037D01*
X25289558Y-44825518D01*
X25355740Y-44819000D01*
X25444260Y-44819000D01*
X25510442Y-44825518D01*
X25510442Y-44825518D01*
G37*
G36*
X22970442Y-44825518D02*
G01*
X23036627Y-44832037D01*
X23206466Y-44883557D01*
X23362991Y-44967222D01*
X23398729Y-44996552D01*
X23500186Y-45079814D01*
X23583448Y-45181271D01*
X23612778Y-45217009D01*
X23696443Y-45373534D01*
X23747963Y-45543373D01*
X23765359Y-45720000D01*
X23747963Y-45896627D01*
X23696443Y-46066466D01*
X23612778Y-46222991D01*
X23583448Y-46258729D01*
X23500186Y-46360186D01*
X23398729Y-46443448D01*
X23362991Y-46472778D01*
X23206466Y-46556443D01*
X23036627Y-46607963D01*
X22970442Y-46614482D01*
X22904260Y-46621000D01*
X22815740Y-46621000D01*
X22749558Y-46614482D01*
X22683373Y-46607963D01*
X22513534Y-46556443D01*
X22357009Y-46472778D01*
X22321271Y-46443448D01*
X22219814Y-46360186D01*
X22136552Y-46258729D01*
X22107222Y-46222991D01*
X22023557Y-46066466D01*
X21972037Y-45896627D01*
X21954641Y-45720000D01*
X21972037Y-45543373D01*
X22023557Y-45373534D01*
X22107222Y-45217009D01*
X22136552Y-45181271D01*
X22219814Y-45079814D01*
X22321271Y-44996552D01*
X22357009Y-44967222D01*
X22513534Y-44883557D01*
X22683373Y-44832037D01*
X22749558Y-44825518D01*
X22815740Y-44819000D01*
X22904260Y-44819000D01*
X22970442Y-44825518D01*
X22970442Y-44825518D01*
G37*
G36*
X-35449558Y-44825518D02*
G01*
X-35383373Y-44832037D01*
X-35213534Y-44883557D01*
X-35057009Y-44967222D01*
X-35021271Y-44996552D01*
X-34919814Y-45079814D01*
X-34836552Y-45181271D01*
X-34807222Y-45217009D01*
X-34723557Y-45373534D01*
X-34672037Y-45543373D01*
X-34654641Y-45720000D01*
X-34672037Y-45896627D01*
X-34723557Y-46066466D01*
X-34807222Y-46222991D01*
X-34836552Y-46258729D01*
X-34919814Y-46360186D01*
X-35021271Y-46443448D01*
X-35057009Y-46472778D01*
X-35213534Y-46556443D01*
X-35383373Y-46607963D01*
X-35449558Y-46614482D01*
X-35515740Y-46621000D01*
X-35604260Y-46621000D01*
X-35670442Y-46614482D01*
X-35736627Y-46607963D01*
X-35906466Y-46556443D01*
X-36062991Y-46472778D01*
X-36098729Y-46443448D01*
X-36200186Y-46360186D01*
X-36283448Y-46258729D01*
X-36312778Y-46222991D01*
X-36396443Y-46066466D01*
X-36447963Y-45896627D01*
X-36465359Y-45720000D01*
X-36447963Y-45543373D01*
X-36396443Y-45373534D01*
X-36312778Y-45217009D01*
X-36283448Y-45181271D01*
X-36200186Y-45079814D01*
X-36098729Y-44996552D01*
X-36062991Y-44967222D01*
X-35906466Y-44883557D01*
X-35736627Y-44832037D01*
X-35670442Y-44825518D01*
X-35604260Y-44819000D01*
X-35515740Y-44819000D01*
X-35449558Y-44825518D01*
X-35449558Y-44825518D01*
G37*
G36*
X-37989558Y-44825518D02*
G01*
X-37923373Y-44832037D01*
X-37753534Y-44883557D01*
X-37597009Y-44967222D01*
X-37561271Y-44996552D01*
X-37459814Y-45079814D01*
X-37376552Y-45181271D01*
X-37347222Y-45217009D01*
X-37263557Y-45373534D01*
X-37212037Y-45543373D01*
X-37194641Y-45720000D01*
X-37212037Y-45896627D01*
X-37263557Y-46066466D01*
X-37347222Y-46222991D01*
X-37376552Y-46258729D01*
X-37459814Y-46360186D01*
X-37561271Y-46443448D01*
X-37597009Y-46472778D01*
X-37753534Y-46556443D01*
X-37923373Y-46607963D01*
X-37989558Y-46614482D01*
X-38055740Y-46621000D01*
X-38144260Y-46621000D01*
X-38210442Y-46614482D01*
X-38276627Y-46607963D01*
X-38446466Y-46556443D01*
X-38602991Y-46472778D01*
X-38638729Y-46443448D01*
X-38740186Y-46360186D01*
X-38823448Y-46258729D01*
X-38852778Y-46222991D01*
X-38936443Y-46066466D01*
X-38987963Y-45896627D01*
X-39005359Y-45720000D01*
X-38987963Y-45543373D01*
X-38936443Y-45373534D01*
X-38852778Y-45217009D01*
X-38823448Y-45181271D01*
X-38740186Y-45079814D01*
X-38638729Y-44996552D01*
X-38602991Y-44967222D01*
X-38446466Y-44883557D01*
X-38276627Y-44832037D01*
X-38210442Y-44825518D01*
X-38144260Y-44819000D01*
X-38055740Y-44819000D01*
X-37989558Y-44825518D01*
X-37989558Y-44825518D01*
G37*
G36*
X-15336000Y-44481000D02*
G01*
X-17938000Y-44481000D01*
X-17938000Y-41879000D01*
X-15336000Y-41879000D01*
X-15336000Y-44481000D01*
X-15336000Y-44481000D01*
G37*
G36*
X2571000Y-44481000D02*
G01*
X-31000Y-44481000D01*
X-31000Y-41879000D01*
X2571000Y-41879000D01*
X2571000Y-44481000D01*
X2571000Y-44481000D01*
G37*
G36*
X-3398000Y-44481000D02*
G01*
X-6000000Y-44481000D01*
X-6000000Y-41879000D01*
X-3398000Y-41879000D01*
X-3398000Y-44481000D01*
X-3398000Y-44481000D01*
G37*
G36*
X-9282334Y-44481000D02*
G01*
X-11884334Y-44481000D01*
X-11884334Y-41879000D01*
X-9282334Y-41879000D01*
X-9282334Y-44481000D01*
X-9282334Y-44481000D01*
G37*
G36*
X22970442Y-42285518D02*
G01*
X23036627Y-42292037D01*
X23206466Y-42343557D01*
X23362991Y-42427222D01*
X23398729Y-42456552D01*
X23500186Y-42539814D01*
X23583448Y-42641271D01*
X23612778Y-42677009D01*
X23696443Y-42833534D01*
X23747963Y-43003373D01*
X23765359Y-43180000D01*
X23747963Y-43356627D01*
X23696443Y-43526466D01*
X23612778Y-43682991D01*
X23583448Y-43718729D01*
X23500186Y-43820186D01*
X23398729Y-43903448D01*
X23362991Y-43932778D01*
X23206466Y-44016443D01*
X23036627Y-44067963D01*
X22970443Y-44074481D01*
X22904260Y-44081000D01*
X22815740Y-44081000D01*
X22749557Y-44074481D01*
X22683373Y-44067963D01*
X22513534Y-44016443D01*
X22357009Y-43932778D01*
X22321271Y-43903448D01*
X22219814Y-43820186D01*
X22136552Y-43718729D01*
X22107222Y-43682991D01*
X22023557Y-43526466D01*
X21972037Y-43356627D01*
X21954641Y-43180000D01*
X21972037Y-43003373D01*
X22023557Y-42833534D01*
X22107222Y-42677009D01*
X22136552Y-42641271D01*
X22219814Y-42539814D01*
X22321271Y-42456552D01*
X22357009Y-42427222D01*
X22513534Y-42343557D01*
X22683373Y-42292037D01*
X22749558Y-42285518D01*
X22815740Y-42279000D01*
X22904260Y-42279000D01*
X22970442Y-42285518D01*
X22970442Y-42285518D01*
G37*
G36*
X25510442Y-42285518D02*
G01*
X25576627Y-42292037D01*
X25746466Y-42343557D01*
X25902991Y-42427222D01*
X25938729Y-42456552D01*
X26040186Y-42539814D01*
X26123448Y-42641271D01*
X26152778Y-42677009D01*
X26236443Y-42833534D01*
X26287963Y-43003373D01*
X26305359Y-43180000D01*
X26287963Y-43356627D01*
X26236443Y-43526466D01*
X26152778Y-43682991D01*
X26123448Y-43718729D01*
X26040186Y-43820186D01*
X25938729Y-43903448D01*
X25902991Y-43932778D01*
X25746466Y-44016443D01*
X25576627Y-44067963D01*
X25510443Y-44074481D01*
X25444260Y-44081000D01*
X25355740Y-44081000D01*
X25289557Y-44074481D01*
X25223373Y-44067963D01*
X25053534Y-44016443D01*
X24897009Y-43932778D01*
X24861271Y-43903448D01*
X24759814Y-43820186D01*
X24676552Y-43718729D01*
X24647222Y-43682991D01*
X24563557Y-43526466D01*
X24512037Y-43356627D01*
X24494641Y-43180000D01*
X24512037Y-43003373D01*
X24563557Y-42833534D01*
X24647222Y-42677009D01*
X24676552Y-42641271D01*
X24759814Y-42539814D01*
X24861271Y-42456552D01*
X24897009Y-42427222D01*
X25053534Y-42343557D01*
X25223373Y-42292037D01*
X25289558Y-42285518D01*
X25355740Y-42279000D01*
X25444260Y-42279000D01*
X25510442Y-42285518D01*
X25510442Y-42285518D01*
G37*
G36*
X-37989558Y-42285518D02*
G01*
X-37923373Y-42292037D01*
X-37753534Y-42343557D01*
X-37597009Y-42427222D01*
X-37561271Y-42456552D01*
X-37459814Y-42539814D01*
X-37376552Y-42641271D01*
X-37347222Y-42677009D01*
X-37263557Y-42833534D01*
X-37212037Y-43003373D01*
X-37194641Y-43180000D01*
X-37212037Y-43356627D01*
X-37263557Y-43526466D01*
X-37347222Y-43682991D01*
X-37376552Y-43718729D01*
X-37459814Y-43820186D01*
X-37561271Y-43903448D01*
X-37597009Y-43932778D01*
X-37753534Y-44016443D01*
X-37923373Y-44067963D01*
X-37989557Y-44074481D01*
X-38055740Y-44081000D01*
X-38144260Y-44081000D01*
X-38210443Y-44074481D01*
X-38276627Y-44067963D01*
X-38446466Y-44016443D01*
X-38602991Y-43932778D01*
X-38638729Y-43903448D01*
X-38740186Y-43820186D01*
X-38823448Y-43718729D01*
X-38852778Y-43682991D01*
X-38936443Y-43526466D01*
X-38987963Y-43356627D01*
X-39005359Y-43180000D01*
X-38987963Y-43003373D01*
X-38936443Y-42833534D01*
X-38852778Y-42677009D01*
X-38823448Y-42641271D01*
X-38740186Y-42539814D01*
X-38638729Y-42456552D01*
X-38602991Y-42427222D01*
X-38446466Y-42343557D01*
X-38276627Y-42292037D01*
X-38210442Y-42285518D01*
X-38144260Y-42279000D01*
X-38055740Y-42279000D01*
X-37989558Y-42285518D01*
X-37989558Y-42285518D01*
G37*
G36*
X-35449558Y-42285518D02*
G01*
X-35383373Y-42292037D01*
X-35213534Y-42343557D01*
X-35057009Y-42427222D01*
X-35021271Y-42456552D01*
X-34919814Y-42539814D01*
X-34836552Y-42641271D01*
X-34807222Y-42677009D01*
X-34723557Y-42833534D01*
X-34672037Y-43003373D01*
X-34654641Y-43180000D01*
X-34672037Y-43356627D01*
X-34723557Y-43526466D01*
X-34807222Y-43682991D01*
X-34836552Y-43718729D01*
X-34919814Y-43820186D01*
X-35021271Y-43903448D01*
X-35057009Y-43932778D01*
X-35213534Y-44016443D01*
X-35383373Y-44067963D01*
X-35449557Y-44074481D01*
X-35515740Y-44081000D01*
X-35604260Y-44081000D01*
X-35670443Y-44074481D01*
X-35736627Y-44067963D01*
X-35906466Y-44016443D01*
X-36062991Y-43932778D01*
X-36098729Y-43903448D01*
X-36200186Y-43820186D01*
X-36283448Y-43718729D01*
X-36312778Y-43682991D01*
X-36396443Y-43526466D01*
X-36447963Y-43356627D01*
X-36465359Y-43180000D01*
X-36447963Y-43003373D01*
X-36396443Y-42833534D01*
X-36312778Y-42677009D01*
X-36283448Y-42641271D01*
X-36200186Y-42539814D01*
X-36098729Y-42456552D01*
X-36062991Y-42427222D01*
X-35906466Y-42343557D01*
X-35736627Y-42292037D01*
X-35670442Y-42285518D01*
X-35604260Y-42279000D01*
X-35515740Y-42279000D01*
X-35449558Y-42285518D01*
X-35449558Y-42285518D01*
G37*
G36*
X-37199000Y-41541000D02*
G01*
X-39001000Y-41541000D01*
X-39001000Y-39739000D01*
X-37199000Y-39739000D01*
X-37199000Y-41541000D01*
X-37199000Y-41541000D01*
G37*
G36*
X-35449558Y-39745518D02*
G01*
X-35383373Y-39752037D01*
X-35213534Y-39803557D01*
X-35057009Y-39887222D01*
X-35021271Y-39916552D01*
X-34919814Y-39999814D01*
X-34836552Y-40101271D01*
X-34807222Y-40137009D01*
X-34723557Y-40293534D01*
X-34672037Y-40463373D01*
X-34654641Y-40640000D01*
X-34672037Y-40816627D01*
X-34723557Y-40986466D01*
X-34807222Y-41142991D01*
X-34836552Y-41178729D01*
X-34919814Y-41280186D01*
X-35021271Y-41363448D01*
X-35057009Y-41392778D01*
X-35213534Y-41476443D01*
X-35383373Y-41527963D01*
X-35449558Y-41534482D01*
X-35515740Y-41541000D01*
X-35604260Y-41541000D01*
X-35670442Y-41534482D01*
X-35736627Y-41527963D01*
X-35906466Y-41476443D01*
X-36062991Y-41392778D01*
X-36098729Y-41363448D01*
X-36200186Y-41280186D01*
X-36283448Y-41178729D01*
X-36312778Y-41142991D01*
X-36396443Y-40986466D01*
X-36447963Y-40816627D01*
X-36465359Y-40640000D01*
X-36447963Y-40463373D01*
X-36396443Y-40293534D01*
X-36312778Y-40137009D01*
X-36283448Y-40101271D01*
X-36200186Y-39999814D01*
X-36098729Y-39916552D01*
X-36062991Y-39887222D01*
X-35906466Y-39803557D01*
X-35736627Y-39752037D01*
X-35670442Y-39745518D01*
X-35604260Y-39739000D01*
X-35515740Y-39739000D01*
X-35449558Y-39745518D01*
X-35449558Y-39745518D01*
G37*
G36*
X23761000Y-41541000D02*
G01*
X21959000Y-41541000D01*
X21959000Y-39739000D01*
X23761000Y-39739000D01*
X23761000Y-41541000D01*
X23761000Y-41541000D01*
G37*
G36*
X25510442Y-39745518D02*
G01*
X25576627Y-39752037D01*
X25746466Y-39803557D01*
X25902991Y-39887222D01*
X25938729Y-39916552D01*
X26040186Y-39999814D01*
X26123448Y-40101271D01*
X26152778Y-40137009D01*
X26236443Y-40293534D01*
X26287963Y-40463373D01*
X26305359Y-40640000D01*
X26287963Y-40816627D01*
X26236443Y-40986466D01*
X26152778Y-41142991D01*
X26123448Y-41178729D01*
X26040186Y-41280186D01*
X25938729Y-41363448D01*
X25902991Y-41392778D01*
X25746466Y-41476443D01*
X25576627Y-41527963D01*
X25510442Y-41534482D01*
X25444260Y-41541000D01*
X25355740Y-41541000D01*
X25289558Y-41534482D01*
X25223373Y-41527963D01*
X25053534Y-41476443D01*
X24897009Y-41392778D01*
X24861271Y-41363448D01*
X24759814Y-41280186D01*
X24676552Y-41178729D01*
X24647222Y-41142991D01*
X24563557Y-40986466D01*
X24512037Y-40816627D01*
X24494641Y-40640000D01*
X24512037Y-40463373D01*
X24563557Y-40293534D01*
X24647222Y-40137009D01*
X24676552Y-40101271D01*
X24759814Y-39999814D01*
X24861271Y-39916552D01*
X24897009Y-39887222D01*
X25053534Y-39803557D01*
X25223373Y-39752037D01*
X25289558Y-39745518D01*
X25355740Y-39739000D01*
X25444260Y-39739000D01*
X25510442Y-39745518D01*
X25510442Y-39745518D01*
G37*
M02*
