G04 #@! TF.GenerationSoftware,KiCad,Pcbnew,(5.1.2)-2*
G04 #@! TF.CreationDate,2021-03-17T00:24:42+02:00*
G04 #@! TF.ProjectId,extension_board,65787465-6e73-4696-9f6e-5f626f617264,rev?*
G04 #@! TF.SameCoordinates,Original*
G04 #@! TF.FileFunction,Paste,Top*
G04 #@! TF.FilePolarity,Positive*
%FSLAX46Y46*%
G04 Gerber Fmt 4.6, Leading zero omitted, Abs format (unit mm)*
G04 Created by KiCad (PCBNEW (5.1.2)-2) date 2021-03-17 00:24:42*
%MOMM*%
%LPD*%
G04 APERTURE LIST*
%ADD10C,0.100000*%
%ADD11C,1.600000*%
%ADD12R,3.150000X1.000000*%
%ADD13C,1.150000*%
%ADD14C,0.950000*%
%ADD15R,1.200000X1.200000*%
%ADD16R,1.600000X1.500000*%
G04 APERTURE END LIST*
D10*
G36*
X-37275496Y-135869204D02*
G01*
X-37251227Y-135872804D01*
X-37227429Y-135878765D01*
X-37204329Y-135887030D01*
X-37182151Y-135897520D01*
X-37161107Y-135910133D01*
X-37141402Y-135924747D01*
X-37123223Y-135941223D01*
X-37106747Y-135959402D01*
X-37092133Y-135979107D01*
X-37079520Y-136000151D01*
X-37069030Y-136022329D01*
X-37060765Y-136045429D01*
X-37054804Y-136069227D01*
X-37051204Y-136093496D01*
X-37050000Y-136118000D01*
X-37050000Y-137218000D01*
X-37051204Y-137242504D01*
X-37054804Y-137266773D01*
X-37060765Y-137290571D01*
X-37069030Y-137313671D01*
X-37079520Y-137335849D01*
X-37092133Y-137356893D01*
X-37106747Y-137376598D01*
X-37123223Y-137394777D01*
X-37141402Y-137411253D01*
X-37161107Y-137425867D01*
X-37182151Y-137438480D01*
X-37204329Y-137448970D01*
X-37227429Y-137457235D01*
X-37251227Y-137463196D01*
X-37275496Y-137466796D01*
X-37300000Y-137468000D01*
X-39400000Y-137468000D01*
X-39424504Y-137466796D01*
X-39448773Y-137463196D01*
X-39472571Y-137457235D01*
X-39495671Y-137448970D01*
X-39517849Y-137438480D01*
X-39538893Y-137425867D01*
X-39558598Y-137411253D01*
X-39576777Y-137394777D01*
X-39593253Y-137376598D01*
X-39607867Y-137356893D01*
X-39620480Y-137335849D01*
X-39630970Y-137313671D01*
X-39639235Y-137290571D01*
X-39645196Y-137266773D01*
X-39648796Y-137242504D01*
X-39650000Y-137218000D01*
X-39650000Y-136118000D01*
X-39648796Y-136093496D01*
X-39645196Y-136069227D01*
X-39639235Y-136045429D01*
X-39630970Y-136022329D01*
X-39620480Y-136000151D01*
X-39607867Y-135979107D01*
X-39593253Y-135959402D01*
X-39576777Y-135941223D01*
X-39558598Y-135924747D01*
X-39538893Y-135910133D01*
X-39517849Y-135897520D01*
X-39495671Y-135887030D01*
X-39472571Y-135878765D01*
X-39448773Y-135872804D01*
X-39424504Y-135869204D01*
X-39400000Y-135868000D01*
X-37300000Y-135868000D01*
X-37275496Y-135869204D01*
X-37275496Y-135869204D01*
G37*
D11*
X-38350000Y-136668000D03*
D10*
G36*
X-33675496Y-135869204D02*
G01*
X-33651227Y-135872804D01*
X-33627429Y-135878765D01*
X-33604329Y-135887030D01*
X-33582151Y-135897520D01*
X-33561107Y-135910133D01*
X-33541402Y-135924747D01*
X-33523223Y-135941223D01*
X-33506747Y-135959402D01*
X-33492133Y-135979107D01*
X-33479520Y-136000151D01*
X-33469030Y-136022329D01*
X-33460765Y-136045429D01*
X-33454804Y-136069227D01*
X-33451204Y-136093496D01*
X-33450000Y-136118000D01*
X-33450000Y-137218000D01*
X-33451204Y-137242504D01*
X-33454804Y-137266773D01*
X-33460765Y-137290571D01*
X-33469030Y-137313671D01*
X-33479520Y-137335849D01*
X-33492133Y-137356893D01*
X-33506747Y-137376598D01*
X-33523223Y-137394777D01*
X-33541402Y-137411253D01*
X-33561107Y-137425867D01*
X-33582151Y-137438480D01*
X-33604329Y-137448970D01*
X-33627429Y-137457235D01*
X-33651227Y-137463196D01*
X-33675496Y-137466796D01*
X-33700000Y-137468000D01*
X-35800000Y-137468000D01*
X-35824504Y-137466796D01*
X-35848773Y-137463196D01*
X-35872571Y-137457235D01*
X-35895671Y-137448970D01*
X-35917849Y-137438480D01*
X-35938893Y-137425867D01*
X-35958598Y-137411253D01*
X-35976777Y-137394777D01*
X-35993253Y-137376598D01*
X-36007867Y-137356893D01*
X-36020480Y-137335849D01*
X-36030970Y-137313671D01*
X-36039235Y-137290571D01*
X-36045196Y-137266773D01*
X-36048796Y-137242504D01*
X-36050000Y-137218000D01*
X-36050000Y-136118000D01*
X-36048796Y-136093496D01*
X-36045196Y-136069227D01*
X-36039235Y-136045429D01*
X-36030970Y-136022329D01*
X-36020480Y-136000151D01*
X-36007867Y-135979107D01*
X-35993253Y-135959402D01*
X-35976777Y-135941223D01*
X-35958598Y-135924747D01*
X-35938893Y-135910133D01*
X-35917849Y-135897520D01*
X-35895671Y-135887030D01*
X-35872571Y-135878765D01*
X-35848773Y-135872804D01*
X-35824504Y-135869204D01*
X-35800000Y-135868000D01*
X-33700000Y-135868000D01*
X-33675496Y-135869204D01*
X-33675496Y-135869204D01*
G37*
D11*
X-34750000Y-136668000D03*
D12*
X18785000Y-102870000D03*
X23835000Y-102870000D03*
X18785000Y-105410000D03*
X23835000Y-105410000D03*
X18785000Y-107950000D03*
X23835000Y-107950000D03*
X18785000Y-110490000D03*
X23835000Y-110490000D03*
X18785000Y-113030000D03*
X23835000Y-113030000D03*
X18785000Y-115570000D03*
X23835000Y-115570000D03*
X18785000Y-118110000D03*
X23835000Y-118110000D03*
X18785000Y-120650000D03*
X23835000Y-120650000D03*
X18785000Y-123190000D03*
X23835000Y-123190000D03*
X18785000Y-125730000D03*
X23835000Y-125730000D03*
X18785000Y-128270000D03*
X23835000Y-128270000D03*
X18785000Y-130810000D03*
X23835000Y-130810000D03*
X18785000Y-133350000D03*
X23835000Y-133350000D03*
X18785000Y-135890000D03*
X23835000Y-135890000D03*
X18785000Y-138430000D03*
X23835000Y-138430000D03*
X18785000Y-140970000D03*
X23835000Y-140970000D03*
X18785000Y-143510000D03*
X23835000Y-143510000D03*
X18785000Y-146050000D03*
X23835000Y-146050000D03*
X18785000Y-148590000D03*
X23835000Y-148590000D03*
X18785000Y-151130000D03*
X23835000Y-151130000D03*
D10*
G36*
X-26810495Y-132651204D02*
G01*
X-26786227Y-132654804D01*
X-26762428Y-132660765D01*
X-26739329Y-132669030D01*
X-26717150Y-132679520D01*
X-26696107Y-132692132D01*
X-26676401Y-132706747D01*
X-26658223Y-132723223D01*
X-26641747Y-132741401D01*
X-26627132Y-132761107D01*
X-26614520Y-132782150D01*
X-26604030Y-132804329D01*
X-26595765Y-132827428D01*
X-26589804Y-132851227D01*
X-26586204Y-132875495D01*
X-26585000Y-132899999D01*
X-26585000Y-133800001D01*
X-26586204Y-133824505D01*
X-26589804Y-133848773D01*
X-26595765Y-133872572D01*
X-26604030Y-133895671D01*
X-26614520Y-133917850D01*
X-26627132Y-133938893D01*
X-26641747Y-133958599D01*
X-26658223Y-133976777D01*
X-26676401Y-133993253D01*
X-26696107Y-134007868D01*
X-26717150Y-134020480D01*
X-26739329Y-134030970D01*
X-26762428Y-134039235D01*
X-26786227Y-134045196D01*
X-26810495Y-134048796D01*
X-26834999Y-134050000D01*
X-27485001Y-134050000D01*
X-27509505Y-134048796D01*
X-27533773Y-134045196D01*
X-27557572Y-134039235D01*
X-27580671Y-134030970D01*
X-27602850Y-134020480D01*
X-27623893Y-134007868D01*
X-27643599Y-133993253D01*
X-27661777Y-133976777D01*
X-27678253Y-133958599D01*
X-27692868Y-133938893D01*
X-27705480Y-133917850D01*
X-27715970Y-133895671D01*
X-27724235Y-133872572D01*
X-27730196Y-133848773D01*
X-27733796Y-133824505D01*
X-27735000Y-133800001D01*
X-27735000Y-132899999D01*
X-27733796Y-132875495D01*
X-27730196Y-132851227D01*
X-27724235Y-132827428D01*
X-27715970Y-132804329D01*
X-27705480Y-132782150D01*
X-27692868Y-132761107D01*
X-27678253Y-132741401D01*
X-27661777Y-132723223D01*
X-27643599Y-132706747D01*
X-27623893Y-132692132D01*
X-27602850Y-132679520D01*
X-27580671Y-132669030D01*
X-27557572Y-132660765D01*
X-27533773Y-132654804D01*
X-27509505Y-132651204D01*
X-27485001Y-132650000D01*
X-26834999Y-132650000D01*
X-26810495Y-132651204D01*
X-26810495Y-132651204D01*
G37*
D13*
X-27160000Y-133350000D03*
D10*
G36*
X-28860495Y-132651204D02*
G01*
X-28836227Y-132654804D01*
X-28812428Y-132660765D01*
X-28789329Y-132669030D01*
X-28767150Y-132679520D01*
X-28746107Y-132692132D01*
X-28726401Y-132706747D01*
X-28708223Y-132723223D01*
X-28691747Y-132741401D01*
X-28677132Y-132761107D01*
X-28664520Y-132782150D01*
X-28654030Y-132804329D01*
X-28645765Y-132827428D01*
X-28639804Y-132851227D01*
X-28636204Y-132875495D01*
X-28635000Y-132899999D01*
X-28635000Y-133800001D01*
X-28636204Y-133824505D01*
X-28639804Y-133848773D01*
X-28645765Y-133872572D01*
X-28654030Y-133895671D01*
X-28664520Y-133917850D01*
X-28677132Y-133938893D01*
X-28691747Y-133958599D01*
X-28708223Y-133976777D01*
X-28726401Y-133993253D01*
X-28746107Y-134007868D01*
X-28767150Y-134020480D01*
X-28789329Y-134030970D01*
X-28812428Y-134039235D01*
X-28836227Y-134045196D01*
X-28860495Y-134048796D01*
X-28884999Y-134050000D01*
X-29535001Y-134050000D01*
X-29559505Y-134048796D01*
X-29583773Y-134045196D01*
X-29607572Y-134039235D01*
X-29630671Y-134030970D01*
X-29652850Y-134020480D01*
X-29673893Y-134007868D01*
X-29693599Y-133993253D01*
X-29711777Y-133976777D01*
X-29728253Y-133958599D01*
X-29742868Y-133938893D01*
X-29755480Y-133917850D01*
X-29765970Y-133895671D01*
X-29774235Y-133872572D01*
X-29780196Y-133848773D01*
X-29783796Y-133824505D01*
X-29785000Y-133800001D01*
X-29785000Y-132899999D01*
X-29783796Y-132875495D01*
X-29780196Y-132851227D01*
X-29774235Y-132827428D01*
X-29765970Y-132804329D01*
X-29755480Y-132782150D01*
X-29742868Y-132761107D01*
X-29728253Y-132741401D01*
X-29711777Y-132723223D01*
X-29693599Y-132706747D01*
X-29673893Y-132692132D01*
X-29652850Y-132679520D01*
X-29630671Y-132669030D01*
X-29607572Y-132660765D01*
X-29583773Y-132654804D01*
X-29559505Y-132651204D01*
X-29535001Y-132650000D01*
X-28884999Y-132650000D01*
X-28860495Y-132651204D01*
X-28860495Y-132651204D01*
G37*
D13*
X-29210000Y-133350000D03*
D12*
X-27529000Y-106807000D03*
X-22479000Y-106807000D03*
X-22509000Y-98552000D03*
X-27559000Y-98552000D03*
X-22225000Y-82550000D03*
X-27275000Y-82550000D03*
X-36525000Y-121920000D03*
X-31475000Y-121920000D03*
X-36525000Y-124460000D03*
X-31475000Y-124460000D03*
X-36525000Y-127000000D03*
X-31475000Y-127000000D03*
X-27417000Y-90805000D03*
X-22367000Y-90805000D03*
X-7605000Y-117475000D03*
X-2555000Y-117475000D03*
X-7605000Y-120015000D03*
X-2555000Y-120015000D03*
X-7605000Y-122555000D03*
X-2555000Y-122555000D03*
X-7605000Y-125095000D03*
X-2555000Y-125095000D03*
X-7605000Y-127635000D03*
X-2555000Y-127635000D03*
X-7605000Y-130175000D03*
X-2555000Y-130175000D03*
X-7605000Y-132715000D03*
X-2555000Y-132715000D03*
X-7605000Y-135255000D03*
X-2555000Y-135255000D03*
X-7605000Y-137795000D03*
X-2555000Y-137795000D03*
X-7605000Y-140335000D03*
X-2555000Y-140335000D03*
X-7605000Y-142875000D03*
X-2555000Y-142875000D03*
X-7605000Y-145415000D03*
X-2555000Y-145415000D03*
X-7605000Y-147955000D03*
X-2555000Y-147955000D03*
X-7605000Y-150495000D03*
X-2555000Y-150495000D03*
D10*
G36*
X1109505Y-55306204D02*
G01*
X1133773Y-55309804D01*
X1157572Y-55315765D01*
X1180671Y-55324030D01*
X1202850Y-55334520D01*
X1223893Y-55347132D01*
X1243599Y-55361747D01*
X1261777Y-55378223D01*
X1278253Y-55396401D01*
X1292868Y-55416107D01*
X1305480Y-55437150D01*
X1315970Y-55459329D01*
X1324235Y-55482428D01*
X1330196Y-55506227D01*
X1333796Y-55530495D01*
X1335000Y-55554999D01*
X1335000Y-56205001D01*
X1333796Y-56229505D01*
X1330196Y-56253773D01*
X1324235Y-56277572D01*
X1315970Y-56300671D01*
X1305480Y-56322850D01*
X1292868Y-56343893D01*
X1278253Y-56363599D01*
X1261777Y-56381777D01*
X1243599Y-56398253D01*
X1223893Y-56412868D01*
X1202850Y-56425480D01*
X1180671Y-56435970D01*
X1157572Y-56444235D01*
X1133773Y-56450196D01*
X1109505Y-56453796D01*
X1085001Y-56455000D01*
X184999Y-56455000D01*
X160495Y-56453796D01*
X136227Y-56450196D01*
X112428Y-56444235D01*
X89329Y-56435970D01*
X67150Y-56425480D01*
X46107Y-56412868D01*
X26401Y-56398253D01*
X8223Y-56381777D01*
X-8253Y-56363599D01*
X-22868Y-56343893D01*
X-35480Y-56322850D01*
X-45970Y-56300671D01*
X-54235Y-56277572D01*
X-60196Y-56253773D01*
X-63796Y-56229505D01*
X-65000Y-56205001D01*
X-65000Y-55554999D01*
X-63796Y-55530495D01*
X-60196Y-55506227D01*
X-54235Y-55482428D01*
X-45970Y-55459329D01*
X-35480Y-55437150D01*
X-22868Y-55416107D01*
X-8253Y-55396401D01*
X8223Y-55378223D01*
X26401Y-55361747D01*
X46107Y-55347132D01*
X67150Y-55334520D01*
X89329Y-55324030D01*
X112428Y-55315765D01*
X136227Y-55309804D01*
X160495Y-55306204D01*
X184999Y-55305000D01*
X1085001Y-55305000D01*
X1109505Y-55306204D01*
X1109505Y-55306204D01*
G37*
D13*
X635000Y-55880000D03*
D10*
G36*
X1109505Y-53256204D02*
G01*
X1133773Y-53259804D01*
X1157572Y-53265765D01*
X1180671Y-53274030D01*
X1202850Y-53284520D01*
X1223893Y-53297132D01*
X1243599Y-53311747D01*
X1261777Y-53328223D01*
X1278253Y-53346401D01*
X1292868Y-53366107D01*
X1305480Y-53387150D01*
X1315970Y-53409329D01*
X1324235Y-53432428D01*
X1330196Y-53456227D01*
X1333796Y-53480495D01*
X1335000Y-53504999D01*
X1335000Y-54155001D01*
X1333796Y-54179505D01*
X1330196Y-54203773D01*
X1324235Y-54227572D01*
X1315970Y-54250671D01*
X1305480Y-54272850D01*
X1292868Y-54293893D01*
X1278253Y-54313599D01*
X1261777Y-54331777D01*
X1243599Y-54348253D01*
X1223893Y-54362868D01*
X1202850Y-54375480D01*
X1180671Y-54385970D01*
X1157572Y-54394235D01*
X1133773Y-54400196D01*
X1109505Y-54403796D01*
X1085001Y-54405000D01*
X184999Y-54405000D01*
X160495Y-54403796D01*
X136227Y-54400196D01*
X112428Y-54394235D01*
X89329Y-54385970D01*
X67150Y-54375480D01*
X46107Y-54362868D01*
X26401Y-54348253D01*
X8223Y-54331777D01*
X-8253Y-54313599D01*
X-22868Y-54293893D01*
X-35480Y-54272850D01*
X-45970Y-54250671D01*
X-54235Y-54227572D01*
X-60196Y-54203773D01*
X-63796Y-54179505D01*
X-65000Y-54155001D01*
X-65000Y-53504999D01*
X-63796Y-53480495D01*
X-60196Y-53456227D01*
X-54235Y-53432428D01*
X-45970Y-53409329D01*
X-35480Y-53387150D01*
X-22868Y-53366107D01*
X-8253Y-53346401D01*
X8223Y-53328223D01*
X26401Y-53311747D01*
X46107Y-53297132D01*
X67150Y-53284520D01*
X89329Y-53274030D01*
X112428Y-53265765D01*
X136227Y-53259804D01*
X160495Y-53256204D01*
X184999Y-53255000D01*
X1085001Y-53255000D01*
X1109505Y-53256204D01*
X1109505Y-53256204D01*
G37*
D13*
X635000Y-53830000D03*
D10*
G36*
X1109505Y-57846204D02*
G01*
X1133773Y-57849804D01*
X1157572Y-57855765D01*
X1180671Y-57864030D01*
X1202850Y-57874520D01*
X1223893Y-57887132D01*
X1243599Y-57901747D01*
X1261777Y-57918223D01*
X1278253Y-57936401D01*
X1292868Y-57956107D01*
X1305480Y-57977150D01*
X1315970Y-57999329D01*
X1324235Y-58022428D01*
X1330196Y-58046227D01*
X1333796Y-58070495D01*
X1335000Y-58094999D01*
X1335000Y-58745001D01*
X1333796Y-58769505D01*
X1330196Y-58793773D01*
X1324235Y-58817572D01*
X1315970Y-58840671D01*
X1305480Y-58862850D01*
X1292868Y-58883893D01*
X1278253Y-58903599D01*
X1261777Y-58921777D01*
X1243599Y-58938253D01*
X1223893Y-58952868D01*
X1202850Y-58965480D01*
X1180671Y-58975970D01*
X1157572Y-58984235D01*
X1133773Y-58990196D01*
X1109505Y-58993796D01*
X1085001Y-58995000D01*
X184999Y-58995000D01*
X160495Y-58993796D01*
X136227Y-58990196D01*
X112428Y-58984235D01*
X89329Y-58975970D01*
X67150Y-58965480D01*
X46107Y-58952868D01*
X26401Y-58938253D01*
X8223Y-58921777D01*
X-8253Y-58903599D01*
X-22868Y-58883893D01*
X-35480Y-58862850D01*
X-45970Y-58840671D01*
X-54235Y-58817572D01*
X-60196Y-58793773D01*
X-63796Y-58769505D01*
X-65000Y-58745001D01*
X-65000Y-58094999D01*
X-63796Y-58070495D01*
X-60196Y-58046227D01*
X-54235Y-58022428D01*
X-45970Y-57999329D01*
X-35480Y-57977150D01*
X-22868Y-57956107D01*
X-8253Y-57936401D01*
X8223Y-57918223D01*
X26401Y-57901747D01*
X46107Y-57887132D01*
X67150Y-57874520D01*
X89329Y-57864030D01*
X112428Y-57855765D01*
X136227Y-57849804D01*
X160495Y-57846204D01*
X184999Y-57845000D01*
X1085001Y-57845000D01*
X1109505Y-57846204D01*
X1109505Y-57846204D01*
G37*
D13*
X635000Y-58420000D03*
D10*
G36*
X1109505Y-59896204D02*
G01*
X1133773Y-59899804D01*
X1157572Y-59905765D01*
X1180671Y-59914030D01*
X1202850Y-59924520D01*
X1223893Y-59937132D01*
X1243599Y-59951747D01*
X1261777Y-59968223D01*
X1278253Y-59986401D01*
X1292868Y-60006107D01*
X1305480Y-60027150D01*
X1315970Y-60049329D01*
X1324235Y-60072428D01*
X1330196Y-60096227D01*
X1333796Y-60120495D01*
X1335000Y-60144999D01*
X1335000Y-60795001D01*
X1333796Y-60819505D01*
X1330196Y-60843773D01*
X1324235Y-60867572D01*
X1315970Y-60890671D01*
X1305480Y-60912850D01*
X1292868Y-60933893D01*
X1278253Y-60953599D01*
X1261777Y-60971777D01*
X1243599Y-60988253D01*
X1223893Y-61002868D01*
X1202850Y-61015480D01*
X1180671Y-61025970D01*
X1157572Y-61034235D01*
X1133773Y-61040196D01*
X1109505Y-61043796D01*
X1085001Y-61045000D01*
X184999Y-61045000D01*
X160495Y-61043796D01*
X136227Y-61040196D01*
X112428Y-61034235D01*
X89329Y-61025970D01*
X67150Y-61015480D01*
X46107Y-61002868D01*
X26401Y-60988253D01*
X8223Y-60971777D01*
X-8253Y-60953599D01*
X-22868Y-60933893D01*
X-35480Y-60912850D01*
X-45970Y-60890671D01*
X-54235Y-60867572D01*
X-60196Y-60843773D01*
X-63796Y-60819505D01*
X-65000Y-60795001D01*
X-65000Y-60144999D01*
X-63796Y-60120495D01*
X-60196Y-60096227D01*
X-54235Y-60072428D01*
X-45970Y-60049329D01*
X-35480Y-60027150D01*
X-22868Y-60006107D01*
X-8253Y-59986401D01*
X8223Y-59968223D01*
X26401Y-59951747D01*
X46107Y-59937132D01*
X67150Y-59924520D01*
X89329Y-59914030D01*
X112428Y-59905765D01*
X136227Y-59899804D01*
X160495Y-59896204D01*
X184999Y-59895000D01*
X1085001Y-59895000D01*
X1109505Y-59896204D01*
X1109505Y-59896204D01*
G37*
D13*
X635000Y-60470000D03*
D10*
G36*
X-4647829Y-55306204D02*
G01*
X-4623561Y-55309804D01*
X-4599762Y-55315765D01*
X-4576663Y-55324030D01*
X-4554484Y-55334520D01*
X-4533441Y-55347132D01*
X-4513735Y-55361747D01*
X-4495557Y-55378223D01*
X-4479081Y-55396401D01*
X-4464466Y-55416107D01*
X-4451854Y-55437150D01*
X-4441364Y-55459329D01*
X-4433099Y-55482428D01*
X-4427138Y-55506227D01*
X-4423538Y-55530495D01*
X-4422334Y-55554999D01*
X-4422334Y-56205001D01*
X-4423538Y-56229505D01*
X-4427138Y-56253773D01*
X-4433099Y-56277572D01*
X-4441364Y-56300671D01*
X-4451854Y-56322850D01*
X-4464466Y-56343893D01*
X-4479081Y-56363599D01*
X-4495557Y-56381777D01*
X-4513735Y-56398253D01*
X-4533441Y-56412868D01*
X-4554484Y-56425480D01*
X-4576663Y-56435970D01*
X-4599762Y-56444235D01*
X-4623561Y-56450196D01*
X-4647829Y-56453796D01*
X-4672333Y-56455000D01*
X-5572335Y-56455000D01*
X-5596839Y-56453796D01*
X-5621107Y-56450196D01*
X-5644906Y-56444235D01*
X-5668005Y-56435970D01*
X-5690184Y-56425480D01*
X-5711227Y-56412868D01*
X-5730933Y-56398253D01*
X-5749111Y-56381777D01*
X-5765587Y-56363599D01*
X-5780202Y-56343893D01*
X-5792814Y-56322850D01*
X-5803304Y-56300671D01*
X-5811569Y-56277572D01*
X-5817530Y-56253773D01*
X-5821130Y-56229505D01*
X-5822334Y-56205001D01*
X-5822334Y-55554999D01*
X-5821130Y-55530495D01*
X-5817530Y-55506227D01*
X-5811569Y-55482428D01*
X-5803304Y-55459329D01*
X-5792814Y-55437150D01*
X-5780202Y-55416107D01*
X-5765587Y-55396401D01*
X-5749111Y-55378223D01*
X-5730933Y-55361747D01*
X-5711227Y-55347132D01*
X-5690184Y-55334520D01*
X-5668005Y-55324030D01*
X-5644906Y-55315765D01*
X-5621107Y-55309804D01*
X-5596839Y-55306204D01*
X-5572335Y-55305000D01*
X-4672333Y-55305000D01*
X-4647829Y-55306204D01*
X-4647829Y-55306204D01*
G37*
D13*
X-5122334Y-55880000D03*
D10*
G36*
X-4647829Y-53256204D02*
G01*
X-4623561Y-53259804D01*
X-4599762Y-53265765D01*
X-4576663Y-53274030D01*
X-4554484Y-53284520D01*
X-4533441Y-53297132D01*
X-4513735Y-53311747D01*
X-4495557Y-53328223D01*
X-4479081Y-53346401D01*
X-4464466Y-53366107D01*
X-4451854Y-53387150D01*
X-4441364Y-53409329D01*
X-4433099Y-53432428D01*
X-4427138Y-53456227D01*
X-4423538Y-53480495D01*
X-4422334Y-53504999D01*
X-4422334Y-54155001D01*
X-4423538Y-54179505D01*
X-4427138Y-54203773D01*
X-4433099Y-54227572D01*
X-4441364Y-54250671D01*
X-4451854Y-54272850D01*
X-4464466Y-54293893D01*
X-4479081Y-54313599D01*
X-4495557Y-54331777D01*
X-4513735Y-54348253D01*
X-4533441Y-54362868D01*
X-4554484Y-54375480D01*
X-4576663Y-54385970D01*
X-4599762Y-54394235D01*
X-4623561Y-54400196D01*
X-4647829Y-54403796D01*
X-4672333Y-54405000D01*
X-5572335Y-54405000D01*
X-5596839Y-54403796D01*
X-5621107Y-54400196D01*
X-5644906Y-54394235D01*
X-5668005Y-54385970D01*
X-5690184Y-54375480D01*
X-5711227Y-54362868D01*
X-5730933Y-54348253D01*
X-5749111Y-54331777D01*
X-5765587Y-54313599D01*
X-5780202Y-54293893D01*
X-5792814Y-54272850D01*
X-5803304Y-54250671D01*
X-5811569Y-54227572D01*
X-5817530Y-54203773D01*
X-5821130Y-54179505D01*
X-5822334Y-54155001D01*
X-5822334Y-53504999D01*
X-5821130Y-53480495D01*
X-5817530Y-53456227D01*
X-5811569Y-53432428D01*
X-5803304Y-53409329D01*
X-5792814Y-53387150D01*
X-5780202Y-53366107D01*
X-5765587Y-53346401D01*
X-5749111Y-53328223D01*
X-5730933Y-53311747D01*
X-5711227Y-53297132D01*
X-5690184Y-53284520D01*
X-5668005Y-53274030D01*
X-5644906Y-53265765D01*
X-5621107Y-53259804D01*
X-5596839Y-53256204D01*
X-5572335Y-53255000D01*
X-4672333Y-53255000D01*
X-4647829Y-53256204D01*
X-4647829Y-53256204D01*
G37*
D13*
X-5122334Y-53830000D03*
D10*
G36*
X-4605495Y-57846204D02*
G01*
X-4581227Y-57849804D01*
X-4557428Y-57855765D01*
X-4534329Y-57864030D01*
X-4512150Y-57874520D01*
X-4491107Y-57887132D01*
X-4471401Y-57901747D01*
X-4453223Y-57918223D01*
X-4436747Y-57936401D01*
X-4422132Y-57956107D01*
X-4409520Y-57977150D01*
X-4399030Y-57999329D01*
X-4390765Y-58022428D01*
X-4384804Y-58046227D01*
X-4381204Y-58070495D01*
X-4380000Y-58094999D01*
X-4380000Y-58745001D01*
X-4381204Y-58769505D01*
X-4384804Y-58793773D01*
X-4390765Y-58817572D01*
X-4399030Y-58840671D01*
X-4409520Y-58862850D01*
X-4422132Y-58883893D01*
X-4436747Y-58903599D01*
X-4453223Y-58921777D01*
X-4471401Y-58938253D01*
X-4491107Y-58952868D01*
X-4512150Y-58965480D01*
X-4534329Y-58975970D01*
X-4557428Y-58984235D01*
X-4581227Y-58990196D01*
X-4605495Y-58993796D01*
X-4629999Y-58995000D01*
X-5530001Y-58995000D01*
X-5554505Y-58993796D01*
X-5578773Y-58990196D01*
X-5602572Y-58984235D01*
X-5625671Y-58975970D01*
X-5647850Y-58965480D01*
X-5668893Y-58952868D01*
X-5688599Y-58938253D01*
X-5706777Y-58921777D01*
X-5723253Y-58903599D01*
X-5737868Y-58883893D01*
X-5750480Y-58862850D01*
X-5760970Y-58840671D01*
X-5769235Y-58817572D01*
X-5775196Y-58793773D01*
X-5778796Y-58769505D01*
X-5780000Y-58745001D01*
X-5780000Y-58094999D01*
X-5778796Y-58070495D01*
X-5775196Y-58046227D01*
X-5769235Y-58022428D01*
X-5760970Y-57999329D01*
X-5750480Y-57977150D01*
X-5737868Y-57956107D01*
X-5723253Y-57936401D01*
X-5706777Y-57918223D01*
X-5688599Y-57901747D01*
X-5668893Y-57887132D01*
X-5647850Y-57874520D01*
X-5625671Y-57864030D01*
X-5602572Y-57855765D01*
X-5578773Y-57849804D01*
X-5554505Y-57846204D01*
X-5530001Y-57845000D01*
X-4629999Y-57845000D01*
X-4605495Y-57846204D01*
X-4605495Y-57846204D01*
G37*
D13*
X-5080000Y-58420000D03*
D10*
G36*
X-4605495Y-59896204D02*
G01*
X-4581227Y-59899804D01*
X-4557428Y-59905765D01*
X-4534329Y-59914030D01*
X-4512150Y-59924520D01*
X-4491107Y-59937132D01*
X-4471401Y-59951747D01*
X-4453223Y-59968223D01*
X-4436747Y-59986401D01*
X-4422132Y-60006107D01*
X-4409520Y-60027150D01*
X-4399030Y-60049329D01*
X-4390765Y-60072428D01*
X-4384804Y-60096227D01*
X-4381204Y-60120495D01*
X-4380000Y-60144999D01*
X-4380000Y-60795001D01*
X-4381204Y-60819505D01*
X-4384804Y-60843773D01*
X-4390765Y-60867572D01*
X-4399030Y-60890671D01*
X-4409520Y-60912850D01*
X-4422132Y-60933893D01*
X-4436747Y-60953599D01*
X-4453223Y-60971777D01*
X-4471401Y-60988253D01*
X-4491107Y-61002868D01*
X-4512150Y-61015480D01*
X-4534329Y-61025970D01*
X-4557428Y-61034235D01*
X-4581227Y-61040196D01*
X-4605495Y-61043796D01*
X-4629999Y-61045000D01*
X-5530001Y-61045000D01*
X-5554505Y-61043796D01*
X-5578773Y-61040196D01*
X-5602572Y-61034235D01*
X-5625671Y-61025970D01*
X-5647850Y-61015480D01*
X-5668893Y-61002868D01*
X-5688599Y-60988253D01*
X-5706777Y-60971777D01*
X-5723253Y-60953599D01*
X-5737868Y-60933893D01*
X-5750480Y-60912850D01*
X-5760970Y-60890671D01*
X-5769235Y-60867572D01*
X-5775196Y-60843773D01*
X-5778796Y-60819505D01*
X-5780000Y-60795001D01*
X-5780000Y-60144999D01*
X-5778796Y-60120495D01*
X-5775196Y-60096227D01*
X-5769235Y-60072428D01*
X-5760970Y-60049329D01*
X-5750480Y-60027150D01*
X-5737868Y-60006107D01*
X-5723253Y-59986401D01*
X-5706777Y-59968223D01*
X-5688599Y-59951747D01*
X-5668893Y-59937132D01*
X-5647850Y-59924520D01*
X-5625671Y-59914030D01*
X-5602572Y-59905765D01*
X-5578773Y-59899804D01*
X-5554505Y-59896204D01*
X-5530001Y-59895000D01*
X-4629999Y-59895000D01*
X-4605495Y-59896204D01*
X-4605495Y-59896204D01*
G37*
D13*
X-5080000Y-60470000D03*
D10*
G36*
X-10405162Y-53256204D02*
G01*
X-10380894Y-53259804D01*
X-10357095Y-53265765D01*
X-10333996Y-53274030D01*
X-10311817Y-53284520D01*
X-10290774Y-53297132D01*
X-10271068Y-53311747D01*
X-10252890Y-53328223D01*
X-10236414Y-53346401D01*
X-10221799Y-53366107D01*
X-10209187Y-53387150D01*
X-10198697Y-53409329D01*
X-10190432Y-53432428D01*
X-10184471Y-53456227D01*
X-10180871Y-53480495D01*
X-10179667Y-53504999D01*
X-10179667Y-54155001D01*
X-10180871Y-54179505D01*
X-10184471Y-54203773D01*
X-10190432Y-54227572D01*
X-10198697Y-54250671D01*
X-10209187Y-54272850D01*
X-10221799Y-54293893D01*
X-10236414Y-54313599D01*
X-10252890Y-54331777D01*
X-10271068Y-54348253D01*
X-10290774Y-54362868D01*
X-10311817Y-54375480D01*
X-10333996Y-54385970D01*
X-10357095Y-54394235D01*
X-10380894Y-54400196D01*
X-10405162Y-54403796D01*
X-10429666Y-54405000D01*
X-11329668Y-54405000D01*
X-11354172Y-54403796D01*
X-11378440Y-54400196D01*
X-11402239Y-54394235D01*
X-11425338Y-54385970D01*
X-11447517Y-54375480D01*
X-11468560Y-54362868D01*
X-11488266Y-54348253D01*
X-11506444Y-54331777D01*
X-11522920Y-54313599D01*
X-11537535Y-54293893D01*
X-11550147Y-54272850D01*
X-11560637Y-54250671D01*
X-11568902Y-54227572D01*
X-11574863Y-54203773D01*
X-11578463Y-54179505D01*
X-11579667Y-54155001D01*
X-11579667Y-53504999D01*
X-11578463Y-53480495D01*
X-11574863Y-53456227D01*
X-11568902Y-53432428D01*
X-11560637Y-53409329D01*
X-11550147Y-53387150D01*
X-11537535Y-53366107D01*
X-11522920Y-53346401D01*
X-11506444Y-53328223D01*
X-11488266Y-53311747D01*
X-11468560Y-53297132D01*
X-11447517Y-53284520D01*
X-11425338Y-53274030D01*
X-11402239Y-53265765D01*
X-11378440Y-53259804D01*
X-11354172Y-53256204D01*
X-11329668Y-53255000D01*
X-10429666Y-53255000D01*
X-10405162Y-53256204D01*
X-10405162Y-53256204D01*
G37*
D13*
X-10879667Y-53830000D03*
D10*
G36*
X-10405162Y-55306204D02*
G01*
X-10380894Y-55309804D01*
X-10357095Y-55315765D01*
X-10333996Y-55324030D01*
X-10311817Y-55334520D01*
X-10290774Y-55347132D01*
X-10271068Y-55361747D01*
X-10252890Y-55378223D01*
X-10236414Y-55396401D01*
X-10221799Y-55416107D01*
X-10209187Y-55437150D01*
X-10198697Y-55459329D01*
X-10190432Y-55482428D01*
X-10184471Y-55506227D01*
X-10180871Y-55530495D01*
X-10179667Y-55554999D01*
X-10179667Y-56205001D01*
X-10180871Y-56229505D01*
X-10184471Y-56253773D01*
X-10190432Y-56277572D01*
X-10198697Y-56300671D01*
X-10209187Y-56322850D01*
X-10221799Y-56343893D01*
X-10236414Y-56363599D01*
X-10252890Y-56381777D01*
X-10271068Y-56398253D01*
X-10290774Y-56412868D01*
X-10311817Y-56425480D01*
X-10333996Y-56435970D01*
X-10357095Y-56444235D01*
X-10380894Y-56450196D01*
X-10405162Y-56453796D01*
X-10429666Y-56455000D01*
X-11329668Y-56455000D01*
X-11354172Y-56453796D01*
X-11378440Y-56450196D01*
X-11402239Y-56444235D01*
X-11425338Y-56435970D01*
X-11447517Y-56425480D01*
X-11468560Y-56412868D01*
X-11488266Y-56398253D01*
X-11506444Y-56381777D01*
X-11522920Y-56363599D01*
X-11537535Y-56343893D01*
X-11550147Y-56322850D01*
X-11560637Y-56300671D01*
X-11568902Y-56277572D01*
X-11574863Y-56253773D01*
X-11578463Y-56229505D01*
X-11579667Y-56205001D01*
X-11579667Y-55554999D01*
X-11578463Y-55530495D01*
X-11574863Y-55506227D01*
X-11568902Y-55482428D01*
X-11560637Y-55459329D01*
X-11550147Y-55437150D01*
X-11537535Y-55416107D01*
X-11522920Y-55396401D01*
X-11506444Y-55378223D01*
X-11488266Y-55361747D01*
X-11468560Y-55347132D01*
X-11447517Y-55334520D01*
X-11425338Y-55324030D01*
X-11402239Y-55315765D01*
X-11378440Y-55309804D01*
X-11354172Y-55306204D01*
X-11329668Y-55305000D01*
X-10429666Y-55305000D01*
X-10405162Y-55306204D01*
X-10405162Y-55306204D01*
G37*
D13*
X-10879667Y-55880000D03*
D10*
G36*
X-10447495Y-59896204D02*
G01*
X-10423227Y-59899804D01*
X-10399428Y-59905765D01*
X-10376329Y-59914030D01*
X-10354150Y-59924520D01*
X-10333107Y-59937132D01*
X-10313401Y-59951747D01*
X-10295223Y-59968223D01*
X-10278747Y-59986401D01*
X-10264132Y-60006107D01*
X-10251520Y-60027150D01*
X-10241030Y-60049329D01*
X-10232765Y-60072428D01*
X-10226804Y-60096227D01*
X-10223204Y-60120495D01*
X-10222000Y-60144999D01*
X-10222000Y-60795001D01*
X-10223204Y-60819505D01*
X-10226804Y-60843773D01*
X-10232765Y-60867572D01*
X-10241030Y-60890671D01*
X-10251520Y-60912850D01*
X-10264132Y-60933893D01*
X-10278747Y-60953599D01*
X-10295223Y-60971777D01*
X-10313401Y-60988253D01*
X-10333107Y-61002868D01*
X-10354150Y-61015480D01*
X-10376329Y-61025970D01*
X-10399428Y-61034235D01*
X-10423227Y-61040196D01*
X-10447495Y-61043796D01*
X-10471999Y-61045000D01*
X-11372001Y-61045000D01*
X-11396505Y-61043796D01*
X-11420773Y-61040196D01*
X-11444572Y-61034235D01*
X-11467671Y-61025970D01*
X-11489850Y-61015480D01*
X-11510893Y-61002868D01*
X-11530599Y-60988253D01*
X-11548777Y-60971777D01*
X-11565253Y-60953599D01*
X-11579868Y-60933893D01*
X-11592480Y-60912850D01*
X-11602970Y-60890671D01*
X-11611235Y-60867572D01*
X-11617196Y-60843773D01*
X-11620796Y-60819505D01*
X-11622000Y-60795001D01*
X-11622000Y-60144999D01*
X-11620796Y-60120495D01*
X-11617196Y-60096227D01*
X-11611235Y-60072428D01*
X-11602970Y-60049329D01*
X-11592480Y-60027150D01*
X-11579868Y-60006107D01*
X-11565253Y-59986401D01*
X-11548777Y-59968223D01*
X-11530599Y-59951747D01*
X-11510893Y-59937132D01*
X-11489850Y-59924520D01*
X-11467671Y-59914030D01*
X-11444572Y-59905765D01*
X-11420773Y-59899804D01*
X-11396505Y-59896204D01*
X-11372001Y-59895000D01*
X-10471999Y-59895000D01*
X-10447495Y-59896204D01*
X-10447495Y-59896204D01*
G37*
D13*
X-10922000Y-60470000D03*
D10*
G36*
X-10447495Y-57846204D02*
G01*
X-10423227Y-57849804D01*
X-10399428Y-57855765D01*
X-10376329Y-57864030D01*
X-10354150Y-57874520D01*
X-10333107Y-57887132D01*
X-10313401Y-57901747D01*
X-10295223Y-57918223D01*
X-10278747Y-57936401D01*
X-10264132Y-57956107D01*
X-10251520Y-57977150D01*
X-10241030Y-57999329D01*
X-10232765Y-58022428D01*
X-10226804Y-58046227D01*
X-10223204Y-58070495D01*
X-10222000Y-58094999D01*
X-10222000Y-58745001D01*
X-10223204Y-58769505D01*
X-10226804Y-58793773D01*
X-10232765Y-58817572D01*
X-10241030Y-58840671D01*
X-10251520Y-58862850D01*
X-10264132Y-58883893D01*
X-10278747Y-58903599D01*
X-10295223Y-58921777D01*
X-10313401Y-58938253D01*
X-10333107Y-58952868D01*
X-10354150Y-58965480D01*
X-10376329Y-58975970D01*
X-10399428Y-58984235D01*
X-10423227Y-58990196D01*
X-10447495Y-58993796D01*
X-10471999Y-58995000D01*
X-11372001Y-58995000D01*
X-11396505Y-58993796D01*
X-11420773Y-58990196D01*
X-11444572Y-58984235D01*
X-11467671Y-58975970D01*
X-11489850Y-58965480D01*
X-11510893Y-58952868D01*
X-11530599Y-58938253D01*
X-11548777Y-58921777D01*
X-11565253Y-58903599D01*
X-11579868Y-58883893D01*
X-11592480Y-58862850D01*
X-11602970Y-58840671D01*
X-11611235Y-58817572D01*
X-11617196Y-58793773D01*
X-11620796Y-58769505D01*
X-11622000Y-58745001D01*
X-11622000Y-58094999D01*
X-11620796Y-58070495D01*
X-11617196Y-58046227D01*
X-11611235Y-58022428D01*
X-11602970Y-57999329D01*
X-11592480Y-57977150D01*
X-11579868Y-57956107D01*
X-11565253Y-57936401D01*
X-11548777Y-57918223D01*
X-11530599Y-57901747D01*
X-11510893Y-57887132D01*
X-11489850Y-57874520D01*
X-11467671Y-57864030D01*
X-11444572Y-57855765D01*
X-11420773Y-57849804D01*
X-11396505Y-57846204D01*
X-11372001Y-57845000D01*
X-10471999Y-57845000D01*
X-10447495Y-57846204D01*
X-10447495Y-57846204D01*
G37*
D13*
X-10922000Y-58420000D03*
D10*
G36*
X-16162495Y-55306204D02*
G01*
X-16138227Y-55309804D01*
X-16114428Y-55315765D01*
X-16091329Y-55324030D01*
X-16069150Y-55334520D01*
X-16048107Y-55347132D01*
X-16028401Y-55361747D01*
X-16010223Y-55378223D01*
X-15993747Y-55396401D01*
X-15979132Y-55416107D01*
X-15966520Y-55437150D01*
X-15956030Y-55459329D01*
X-15947765Y-55482428D01*
X-15941804Y-55506227D01*
X-15938204Y-55530495D01*
X-15937000Y-55554999D01*
X-15937000Y-56205001D01*
X-15938204Y-56229505D01*
X-15941804Y-56253773D01*
X-15947765Y-56277572D01*
X-15956030Y-56300671D01*
X-15966520Y-56322850D01*
X-15979132Y-56343893D01*
X-15993747Y-56363599D01*
X-16010223Y-56381777D01*
X-16028401Y-56398253D01*
X-16048107Y-56412868D01*
X-16069150Y-56425480D01*
X-16091329Y-56435970D01*
X-16114428Y-56444235D01*
X-16138227Y-56450196D01*
X-16162495Y-56453796D01*
X-16186999Y-56455000D01*
X-17087001Y-56455000D01*
X-17111505Y-56453796D01*
X-17135773Y-56450196D01*
X-17159572Y-56444235D01*
X-17182671Y-56435970D01*
X-17204850Y-56425480D01*
X-17225893Y-56412868D01*
X-17245599Y-56398253D01*
X-17263777Y-56381777D01*
X-17280253Y-56363599D01*
X-17294868Y-56343893D01*
X-17307480Y-56322850D01*
X-17317970Y-56300671D01*
X-17326235Y-56277572D01*
X-17332196Y-56253773D01*
X-17335796Y-56229505D01*
X-17337000Y-56205001D01*
X-17337000Y-55554999D01*
X-17335796Y-55530495D01*
X-17332196Y-55506227D01*
X-17326235Y-55482428D01*
X-17317970Y-55459329D01*
X-17307480Y-55437150D01*
X-17294868Y-55416107D01*
X-17280253Y-55396401D01*
X-17263777Y-55378223D01*
X-17245599Y-55361747D01*
X-17225893Y-55347132D01*
X-17204850Y-55334520D01*
X-17182671Y-55324030D01*
X-17159572Y-55315765D01*
X-17135773Y-55309804D01*
X-17111505Y-55306204D01*
X-17087001Y-55305000D01*
X-16186999Y-55305000D01*
X-16162495Y-55306204D01*
X-16162495Y-55306204D01*
G37*
D13*
X-16637000Y-55880000D03*
D10*
G36*
X-16162495Y-53256204D02*
G01*
X-16138227Y-53259804D01*
X-16114428Y-53265765D01*
X-16091329Y-53274030D01*
X-16069150Y-53284520D01*
X-16048107Y-53297132D01*
X-16028401Y-53311747D01*
X-16010223Y-53328223D01*
X-15993747Y-53346401D01*
X-15979132Y-53366107D01*
X-15966520Y-53387150D01*
X-15956030Y-53409329D01*
X-15947765Y-53432428D01*
X-15941804Y-53456227D01*
X-15938204Y-53480495D01*
X-15937000Y-53504999D01*
X-15937000Y-54155001D01*
X-15938204Y-54179505D01*
X-15941804Y-54203773D01*
X-15947765Y-54227572D01*
X-15956030Y-54250671D01*
X-15966520Y-54272850D01*
X-15979132Y-54293893D01*
X-15993747Y-54313599D01*
X-16010223Y-54331777D01*
X-16028401Y-54348253D01*
X-16048107Y-54362868D01*
X-16069150Y-54375480D01*
X-16091329Y-54385970D01*
X-16114428Y-54394235D01*
X-16138227Y-54400196D01*
X-16162495Y-54403796D01*
X-16186999Y-54405000D01*
X-17087001Y-54405000D01*
X-17111505Y-54403796D01*
X-17135773Y-54400196D01*
X-17159572Y-54394235D01*
X-17182671Y-54385970D01*
X-17204850Y-54375480D01*
X-17225893Y-54362868D01*
X-17245599Y-54348253D01*
X-17263777Y-54331777D01*
X-17280253Y-54313599D01*
X-17294868Y-54293893D01*
X-17307480Y-54272850D01*
X-17317970Y-54250671D01*
X-17326235Y-54227572D01*
X-17332196Y-54203773D01*
X-17335796Y-54179505D01*
X-17337000Y-54155001D01*
X-17337000Y-53504999D01*
X-17335796Y-53480495D01*
X-17332196Y-53456227D01*
X-17326235Y-53432428D01*
X-17317970Y-53409329D01*
X-17307480Y-53387150D01*
X-17294868Y-53366107D01*
X-17280253Y-53346401D01*
X-17263777Y-53328223D01*
X-17245599Y-53311747D01*
X-17225893Y-53297132D01*
X-17204850Y-53284520D01*
X-17182671Y-53274030D01*
X-17159572Y-53265765D01*
X-17135773Y-53259804D01*
X-17111505Y-53256204D01*
X-17087001Y-53255000D01*
X-16186999Y-53255000D01*
X-16162495Y-53256204D01*
X-16162495Y-53256204D01*
G37*
D13*
X-16637000Y-53830000D03*
D10*
G36*
X-16162495Y-57846204D02*
G01*
X-16138227Y-57849804D01*
X-16114428Y-57855765D01*
X-16091329Y-57864030D01*
X-16069150Y-57874520D01*
X-16048107Y-57887132D01*
X-16028401Y-57901747D01*
X-16010223Y-57918223D01*
X-15993747Y-57936401D01*
X-15979132Y-57956107D01*
X-15966520Y-57977150D01*
X-15956030Y-57999329D01*
X-15947765Y-58022428D01*
X-15941804Y-58046227D01*
X-15938204Y-58070495D01*
X-15937000Y-58094999D01*
X-15937000Y-58745001D01*
X-15938204Y-58769505D01*
X-15941804Y-58793773D01*
X-15947765Y-58817572D01*
X-15956030Y-58840671D01*
X-15966520Y-58862850D01*
X-15979132Y-58883893D01*
X-15993747Y-58903599D01*
X-16010223Y-58921777D01*
X-16028401Y-58938253D01*
X-16048107Y-58952868D01*
X-16069150Y-58965480D01*
X-16091329Y-58975970D01*
X-16114428Y-58984235D01*
X-16138227Y-58990196D01*
X-16162495Y-58993796D01*
X-16186999Y-58995000D01*
X-17087001Y-58995000D01*
X-17111505Y-58993796D01*
X-17135773Y-58990196D01*
X-17159572Y-58984235D01*
X-17182671Y-58975970D01*
X-17204850Y-58965480D01*
X-17225893Y-58952868D01*
X-17245599Y-58938253D01*
X-17263777Y-58921777D01*
X-17280253Y-58903599D01*
X-17294868Y-58883893D01*
X-17307480Y-58862850D01*
X-17317970Y-58840671D01*
X-17326235Y-58817572D01*
X-17332196Y-58793773D01*
X-17335796Y-58769505D01*
X-17337000Y-58745001D01*
X-17337000Y-58094999D01*
X-17335796Y-58070495D01*
X-17332196Y-58046227D01*
X-17326235Y-58022428D01*
X-17317970Y-57999329D01*
X-17307480Y-57977150D01*
X-17294868Y-57956107D01*
X-17280253Y-57936401D01*
X-17263777Y-57918223D01*
X-17245599Y-57901747D01*
X-17225893Y-57887132D01*
X-17204850Y-57874520D01*
X-17182671Y-57864030D01*
X-17159572Y-57855765D01*
X-17135773Y-57849804D01*
X-17111505Y-57846204D01*
X-17087001Y-57845000D01*
X-16186999Y-57845000D01*
X-16162495Y-57846204D01*
X-16162495Y-57846204D01*
G37*
D13*
X-16637000Y-58420000D03*
D10*
G36*
X-16162495Y-59896204D02*
G01*
X-16138227Y-59899804D01*
X-16114428Y-59905765D01*
X-16091329Y-59914030D01*
X-16069150Y-59924520D01*
X-16048107Y-59937132D01*
X-16028401Y-59951747D01*
X-16010223Y-59968223D01*
X-15993747Y-59986401D01*
X-15979132Y-60006107D01*
X-15966520Y-60027150D01*
X-15956030Y-60049329D01*
X-15947765Y-60072428D01*
X-15941804Y-60096227D01*
X-15938204Y-60120495D01*
X-15937000Y-60144999D01*
X-15937000Y-60795001D01*
X-15938204Y-60819505D01*
X-15941804Y-60843773D01*
X-15947765Y-60867572D01*
X-15956030Y-60890671D01*
X-15966520Y-60912850D01*
X-15979132Y-60933893D01*
X-15993747Y-60953599D01*
X-16010223Y-60971777D01*
X-16028401Y-60988253D01*
X-16048107Y-61002868D01*
X-16069150Y-61015480D01*
X-16091329Y-61025970D01*
X-16114428Y-61034235D01*
X-16138227Y-61040196D01*
X-16162495Y-61043796D01*
X-16186999Y-61045000D01*
X-17087001Y-61045000D01*
X-17111505Y-61043796D01*
X-17135773Y-61040196D01*
X-17159572Y-61034235D01*
X-17182671Y-61025970D01*
X-17204850Y-61015480D01*
X-17225893Y-61002868D01*
X-17245599Y-60988253D01*
X-17263777Y-60971777D01*
X-17280253Y-60953599D01*
X-17294868Y-60933893D01*
X-17307480Y-60912850D01*
X-17317970Y-60890671D01*
X-17326235Y-60867572D01*
X-17332196Y-60843773D01*
X-17335796Y-60819505D01*
X-17337000Y-60795001D01*
X-17337000Y-60144999D01*
X-17335796Y-60120495D01*
X-17332196Y-60096227D01*
X-17326235Y-60072428D01*
X-17317970Y-60049329D01*
X-17307480Y-60027150D01*
X-17294868Y-60006107D01*
X-17280253Y-59986401D01*
X-17263777Y-59968223D01*
X-17245599Y-59951747D01*
X-17225893Y-59937132D01*
X-17204850Y-59924520D01*
X-17182671Y-59914030D01*
X-17159572Y-59905765D01*
X-17135773Y-59899804D01*
X-17111505Y-59896204D01*
X-17087001Y-59895000D01*
X-16186999Y-59895000D01*
X-16162495Y-59896204D01*
X-16162495Y-59896204D01*
G37*
D13*
X-16637000Y-60470000D03*
D10*
G36*
X-22265495Y-132651204D02*
G01*
X-22241227Y-132654804D01*
X-22217428Y-132660765D01*
X-22194329Y-132669030D01*
X-22172150Y-132679520D01*
X-22151107Y-132692132D01*
X-22131401Y-132706747D01*
X-22113223Y-132723223D01*
X-22096747Y-132741401D01*
X-22082132Y-132761107D01*
X-22069520Y-132782150D01*
X-22059030Y-132804329D01*
X-22050765Y-132827428D01*
X-22044804Y-132851227D01*
X-22041204Y-132875495D01*
X-22040000Y-132899999D01*
X-22040000Y-133800001D01*
X-22041204Y-133824505D01*
X-22044804Y-133848773D01*
X-22050765Y-133872572D01*
X-22059030Y-133895671D01*
X-22069520Y-133917850D01*
X-22082132Y-133938893D01*
X-22096747Y-133958599D01*
X-22113223Y-133976777D01*
X-22131401Y-133993253D01*
X-22151107Y-134007868D01*
X-22172150Y-134020480D01*
X-22194329Y-134030970D01*
X-22217428Y-134039235D01*
X-22241227Y-134045196D01*
X-22265495Y-134048796D01*
X-22289999Y-134050000D01*
X-22940001Y-134050000D01*
X-22964505Y-134048796D01*
X-22988773Y-134045196D01*
X-23012572Y-134039235D01*
X-23035671Y-134030970D01*
X-23057850Y-134020480D01*
X-23078893Y-134007868D01*
X-23098599Y-133993253D01*
X-23116777Y-133976777D01*
X-23133253Y-133958599D01*
X-23147868Y-133938893D01*
X-23160480Y-133917850D01*
X-23170970Y-133895671D01*
X-23179235Y-133872572D01*
X-23185196Y-133848773D01*
X-23188796Y-133824505D01*
X-23190000Y-133800001D01*
X-23190000Y-132899999D01*
X-23188796Y-132875495D01*
X-23185196Y-132851227D01*
X-23179235Y-132827428D01*
X-23170970Y-132804329D01*
X-23160480Y-132782150D01*
X-23147868Y-132761107D01*
X-23133253Y-132741401D01*
X-23116777Y-132723223D01*
X-23098599Y-132706747D01*
X-23078893Y-132692132D01*
X-23057850Y-132679520D01*
X-23035671Y-132669030D01*
X-23012572Y-132660765D01*
X-22988773Y-132654804D01*
X-22964505Y-132651204D01*
X-22940001Y-132650000D01*
X-22289999Y-132650000D01*
X-22265495Y-132651204D01*
X-22265495Y-132651204D01*
G37*
D13*
X-22615000Y-133350000D03*
D10*
G36*
X-20215495Y-132651204D02*
G01*
X-20191227Y-132654804D01*
X-20167428Y-132660765D01*
X-20144329Y-132669030D01*
X-20122150Y-132679520D01*
X-20101107Y-132692132D01*
X-20081401Y-132706747D01*
X-20063223Y-132723223D01*
X-20046747Y-132741401D01*
X-20032132Y-132761107D01*
X-20019520Y-132782150D01*
X-20009030Y-132804329D01*
X-20000765Y-132827428D01*
X-19994804Y-132851227D01*
X-19991204Y-132875495D01*
X-19990000Y-132899999D01*
X-19990000Y-133800001D01*
X-19991204Y-133824505D01*
X-19994804Y-133848773D01*
X-20000765Y-133872572D01*
X-20009030Y-133895671D01*
X-20019520Y-133917850D01*
X-20032132Y-133938893D01*
X-20046747Y-133958599D01*
X-20063223Y-133976777D01*
X-20081401Y-133993253D01*
X-20101107Y-134007868D01*
X-20122150Y-134020480D01*
X-20144329Y-134030970D01*
X-20167428Y-134039235D01*
X-20191227Y-134045196D01*
X-20215495Y-134048796D01*
X-20239999Y-134050000D01*
X-20890001Y-134050000D01*
X-20914505Y-134048796D01*
X-20938773Y-134045196D01*
X-20962572Y-134039235D01*
X-20985671Y-134030970D01*
X-21007850Y-134020480D01*
X-21028893Y-134007868D01*
X-21048599Y-133993253D01*
X-21066777Y-133976777D01*
X-21083253Y-133958599D01*
X-21097868Y-133938893D01*
X-21110480Y-133917850D01*
X-21120970Y-133895671D01*
X-21129235Y-133872572D01*
X-21135196Y-133848773D01*
X-21138796Y-133824505D01*
X-21140000Y-133800001D01*
X-21140000Y-132899999D01*
X-21138796Y-132875495D01*
X-21135196Y-132851227D01*
X-21129235Y-132827428D01*
X-21120970Y-132804329D01*
X-21110480Y-132782150D01*
X-21097868Y-132761107D01*
X-21083253Y-132741401D01*
X-21066777Y-132723223D01*
X-21048599Y-132706747D01*
X-21028893Y-132692132D01*
X-21007850Y-132679520D01*
X-20985671Y-132669030D01*
X-20962572Y-132660765D01*
X-20938773Y-132654804D01*
X-20914505Y-132651204D01*
X-20890001Y-132650000D01*
X-20239999Y-132650000D01*
X-20215495Y-132651204D01*
X-20215495Y-132651204D01*
G37*
D13*
X-20565000Y-133350000D03*
D10*
G36*
X-9518221Y-106283144D02*
G01*
X-9495166Y-106286563D01*
X-9472557Y-106292227D01*
X-9450613Y-106300079D01*
X-9429543Y-106310044D01*
X-9409552Y-106322026D01*
X-9390832Y-106335910D01*
X-9373562Y-106351562D01*
X-9357910Y-106368832D01*
X-9344026Y-106387552D01*
X-9332044Y-106407543D01*
X-9322079Y-106428613D01*
X-9314227Y-106450557D01*
X-9308563Y-106473166D01*
X-9305144Y-106496221D01*
X-9304000Y-106519500D01*
X-9304000Y-107094500D01*
X-9305144Y-107117779D01*
X-9308563Y-107140834D01*
X-9314227Y-107163443D01*
X-9322079Y-107185387D01*
X-9332044Y-107206457D01*
X-9344026Y-107226448D01*
X-9357910Y-107245168D01*
X-9373562Y-107262438D01*
X-9390832Y-107278090D01*
X-9409552Y-107291974D01*
X-9429543Y-107303956D01*
X-9450613Y-107313921D01*
X-9472557Y-107321773D01*
X-9495166Y-107327437D01*
X-9518221Y-107330856D01*
X-9541500Y-107332000D01*
X-10016500Y-107332000D01*
X-10039779Y-107330856D01*
X-10062834Y-107327437D01*
X-10085443Y-107321773D01*
X-10107387Y-107313921D01*
X-10128457Y-107303956D01*
X-10148448Y-107291974D01*
X-10167168Y-107278090D01*
X-10184438Y-107262438D01*
X-10200090Y-107245168D01*
X-10213974Y-107226448D01*
X-10225956Y-107206457D01*
X-10235921Y-107185387D01*
X-10243773Y-107163443D01*
X-10249437Y-107140834D01*
X-10252856Y-107117779D01*
X-10254000Y-107094500D01*
X-10254000Y-106519500D01*
X-10252856Y-106496221D01*
X-10249437Y-106473166D01*
X-10243773Y-106450557D01*
X-10235921Y-106428613D01*
X-10225956Y-106407543D01*
X-10213974Y-106387552D01*
X-10200090Y-106368832D01*
X-10184438Y-106351562D01*
X-10167168Y-106335910D01*
X-10148448Y-106322026D01*
X-10128457Y-106310044D01*
X-10107387Y-106300079D01*
X-10085443Y-106292227D01*
X-10062834Y-106286563D01*
X-10039779Y-106283144D01*
X-10016500Y-106282000D01*
X-9541500Y-106282000D01*
X-9518221Y-106283144D01*
X-9518221Y-106283144D01*
G37*
D14*
X-9779000Y-106807000D03*
D10*
G36*
X-9518221Y-104533144D02*
G01*
X-9495166Y-104536563D01*
X-9472557Y-104542227D01*
X-9450613Y-104550079D01*
X-9429543Y-104560044D01*
X-9409552Y-104572026D01*
X-9390832Y-104585910D01*
X-9373562Y-104601562D01*
X-9357910Y-104618832D01*
X-9344026Y-104637552D01*
X-9332044Y-104657543D01*
X-9322079Y-104678613D01*
X-9314227Y-104700557D01*
X-9308563Y-104723166D01*
X-9305144Y-104746221D01*
X-9304000Y-104769500D01*
X-9304000Y-105344500D01*
X-9305144Y-105367779D01*
X-9308563Y-105390834D01*
X-9314227Y-105413443D01*
X-9322079Y-105435387D01*
X-9332044Y-105456457D01*
X-9344026Y-105476448D01*
X-9357910Y-105495168D01*
X-9373562Y-105512438D01*
X-9390832Y-105528090D01*
X-9409552Y-105541974D01*
X-9429543Y-105553956D01*
X-9450613Y-105563921D01*
X-9472557Y-105571773D01*
X-9495166Y-105577437D01*
X-9518221Y-105580856D01*
X-9541500Y-105582000D01*
X-10016500Y-105582000D01*
X-10039779Y-105580856D01*
X-10062834Y-105577437D01*
X-10085443Y-105571773D01*
X-10107387Y-105563921D01*
X-10128457Y-105553956D01*
X-10148448Y-105541974D01*
X-10167168Y-105528090D01*
X-10184438Y-105512438D01*
X-10200090Y-105495168D01*
X-10213974Y-105476448D01*
X-10225956Y-105456457D01*
X-10235921Y-105435387D01*
X-10243773Y-105413443D01*
X-10249437Y-105390834D01*
X-10252856Y-105367779D01*
X-10254000Y-105344500D01*
X-10254000Y-104769500D01*
X-10252856Y-104746221D01*
X-10249437Y-104723166D01*
X-10243773Y-104700557D01*
X-10235921Y-104678613D01*
X-10225956Y-104657543D01*
X-10213974Y-104637552D01*
X-10200090Y-104618832D01*
X-10184438Y-104601562D01*
X-10167168Y-104585910D01*
X-10148448Y-104572026D01*
X-10128457Y-104560044D01*
X-10107387Y-104550079D01*
X-10085443Y-104542227D01*
X-10062834Y-104536563D01*
X-10039779Y-104533144D01*
X-10016500Y-104532000D01*
X-9541500Y-104532000D01*
X-9518221Y-104533144D01*
X-9518221Y-104533144D01*
G37*
D14*
X-9779000Y-105057000D03*
D10*
G36*
X-9518221Y-98282144D02*
G01*
X-9495166Y-98285563D01*
X-9472557Y-98291227D01*
X-9450613Y-98299079D01*
X-9429543Y-98309044D01*
X-9409552Y-98321026D01*
X-9390832Y-98334910D01*
X-9373562Y-98350562D01*
X-9357910Y-98367832D01*
X-9344026Y-98386552D01*
X-9332044Y-98406543D01*
X-9322079Y-98427613D01*
X-9314227Y-98449557D01*
X-9308563Y-98472166D01*
X-9305144Y-98495221D01*
X-9304000Y-98518500D01*
X-9304000Y-99093500D01*
X-9305144Y-99116779D01*
X-9308563Y-99139834D01*
X-9314227Y-99162443D01*
X-9322079Y-99184387D01*
X-9332044Y-99205457D01*
X-9344026Y-99225448D01*
X-9357910Y-99244168D01*
X-9373562Y-99261438D01*
X-9390832Y-99277090D01*
X-9409552Y-99290974D01*
X-9429543Y-99302956D01*
X-9450613Y-99312921D01*
X-9472557Y-99320773D01*
X-9495166Y-99326437D01*
X-9518221Y-99329856D01*
X-9541500Y-99331000D01*
X-10016500Y-99331000D01*
X-10039779Y-99329856D01*
X-10062834Y-99326437D01*
X-10085443Y-99320773D01*
X-10107387Y-99312921D01*
X-10128457Y-99302956D01*
X-10148448Y-99290974D01*
X-10167168Y-99277090D01*
X-10184438Y-99261438D01*
X-10200090Y-99244168D01*
X-10213974Y-99225448D01*
X-10225956Y-99205457D01*
X-10235921Y-99184387D01*
X-10243773Y-99162443D01*
X-10249437Y-99139834D01*
X-10252856Y-99116779D01*
X-10254000Y-99093500D01*
X-10254000Y-98518500D01*
X-10252856Y-98495221D01*
X-10249437Y-98472166D01*
X-10243773Y-98449557D01*
X-10235921Y-98427613D01*
X-10225956Y-98406543D01*
X-10213974Y-98386552D01*
X-10200090Y-98367832D01*
X-10184438Y-98350562D01*
X-10167168Y-98334910D01*
X-10148448Y-98321026D01*
X-10128457Y-98309044D01*
X-10107387Y-98299079D01*
X-10085443Y-98291227D01*
X-10062834Y-98285563D01*
X-10039779Y-98282144D01*
X-10016500Y-98281000D01*
X-9541500Y-98281000D01*
X-9518221Y-98282144D01*
X-9518221Y-98282144D01*
G37*
D14*
X-9779000Y-98806000D03*
D10*
G36*
X-9518221Y-96532144D02*
G01*
X-9495166Y-96535563D01*
X-9472557Y-96541227D01*
X-9450613Y-96549079D01*
X-9429543Y-96559044D01*
X-9409552Y-96571026D01*
X-9390832Y-96584910D01*
X-9373562Y-96600562D01*
X-9357910Y-96617832D01*
X-9344026Y-96636552D01*
X-9332044Y-96656543D01*
X-9322079Y-96677613D01*
X-9314227Y-96699557D01*
X-9308563Y-96722166D01*
X-9305144Y-96745221D01*
X-9304000Y-96768500D01*
X-9304000Y-97343500D01*
X-9305144Y-97366779D01*
X-9308563Y-97389834D01*
X-9314227Y-97412443D01*
X-9322079Y-97434387D01*
X-9332044Y-97455457D01*
X-9344026Y-97475448D01*
X-9357910Y-97494168D01*
X-9373562Y-97511438D01*
X-9390832Y-97527090D01*
X-9409552Y-97540974D01*
X-9429543Y-97552956D01*
X-9450613Y-97562921D01*
X-9472557Y-97570773D01*
X-9495166Y-97576437D01*
X-9518221Y-97579856D01*
X-9541500Y-97581000D01*
X-10016500Y-97581000D01*
X-10039779Y-97579856D01*
X-10062834Y-97576437D01*
X-10085443Y-97570773D01*
X-10107387Y-97562921D01*
X-10128457Y-97552956D01*
X-10148448Y-97540974D01*
X-10167168Y-97527090D01*
X-10184438Y-97511438D01*
X-10200090Y-97494168D01*
X-10213974Y-97475448D01*
X-10225956Y-97455457D01*
X-10235921Y-97434387D01*
X-10243773Y-97412443D01*
X-10249437Y-97389834D01*
X-10252856Y-97366779D01*
X-10254000Y-97343500D01*
X-10254000Y-96768500D01*
X-10252856Y-96745221D01*
X-10249437Y-96722166D01*
X-10243773Y-96699557D01*
X-10235921Y-96677613D01*
X-10225956Y-96656543D01*
X-10213974Y-96636552D01*
X-10200090Y-96617832D01*
X-10184438Y-96600562D01*
X-10167168Y-96584910D01*
X-10148448Y-96571026D01*
X-10128457Y-96559044D01*
X-10107387Y-96549079D01*
X-10085443Y-96541227D01*
X-10062834Y-96535563D01*
X-10039779Y-96532144D01*
X-10016500Y-96531000D01*
X-9541500Y-96531000D01*
X-9518221Y-96532144D01*
X-9518221Y-96532144D01*
G37*
D14*
X-9779000Y-97056000D03*
D10*
G36*
X-9264221Y-80276144D02*
G01*
X-9241166Y-80279563D01*
X-9218557Y-80285227D01*
X-9196613Y-80293079D01*
X-9175543Y-80303044D01*
X-9155552Y-80315026D01*
X-9136832Y-80328910D01*
X-9119562Y-80344562D01*
X-9103910Y-80361832D01*
X-9090026Y-80380552D01*
X-9078044Y-80400543D01*
X-9068079Y-80421613D01*
X-9060227Y-80443557D01*
X-9054563Y-80466166D01*
X-9051144Y-80489221D01*
X-9050000Y-80512500D01*
X-9050000Y-81087500D01*
X-9051144Y-81110779D01*
X-9054563Y-81133834D01*
X-9060227Y-81156443D01*
X-9068079Y-81178387D01*
X-9078044Y-81199457D01*
X-9090026Y-81219448D01*
X-9103910Y-81238168D01*
X-9119562Y-81255438D01*
X-9136832Y-81271090D01*
X-9155552Y-81284974D01*
X-9175543Y-81296956D01*
X-9196613Y-81306921D01*
X-9218557Y-81314773D01*
X-9241166Y-81320437D01*
X-9264221Y-81323856D01*
X-9287500Y-81325000D01*
X-9762500Y-81325000D01*
X-9785779Y-81323856D01*
X-9808834Y-81320437D01*
X-9831443Y-81314773D01*
X-9853387Y-81306921D01*
X-9874457Y-81296956D01*
X-9894448Y-81284974D01*
X-9913168Y-81271090D01*
X-9930438Y-81255438D01*
X-9946090Y-81238168D01*
X-9959974Y-81219448D01*
X-9971956Y-81199457D01*
X-9981921Y-81178387D01*
X-9989773Y-81156443D01*
X-9995437Y-81133834D01*
X-9998856Y-81110779D01*
X-10000000Y-81087500D01*
X-10000000Y-80512500D01*
X-9998856Y-80489221D01*
X-9995437Y-80466166D01*
X-9989773Y-80443557D01*
X-9981921Y-80421613D01*
X-9971956Y-80400543D01*
X-9959974Y-80380552D01*
X-9946090Y-80361832D01*
X-9930438Y-80344562D01*
X-9913168Y-80328910D01*
X-9894448Y-80315026D01*
X-9874457Y-80303044D01*
X-9853387Y-80293079D01*
X-9831443Y-80285227D01*
X-9808834Y-80279563D01*
X-9785779Y-80276144D01*
X-9762500Y-80275000D01*
X-9287500Y-80275000D01*
X-9264221Y-80276144D01*
X-9264221Y-80276144D01*
G37*
D14*
X-9525000Y-80800000D03*
D10*
G36*
X-9264221Y-82026144D02*
G01*
X-9241166Y-82029563D01*
X-9218557Y-82035227D01*
X-9196613Y-82043079D01*
X-9175543Y-82053044D01*
X-9155552Y-82065026D01*
X-9136832Y-82078910D01*
X-9119562Y-82094562D01*
X-9103910Y-82111832D01*
X-9090026Y-82130552D01*
X-9078044Y-82150543D01*
X-9068079Y-82171613D01*
X-9060227Y-82193557D01*
X-9054563Y-82216166D01*
X-9051144Y-82239221D01*
X-9050000Y-82262500D01*
X-9050000Y-82837500D01*
X-9051144Y-82860779D01*
X-9054563Y-82883834D01*
X-9060227Y-82906443D01*
X-9068079Y-82928387D01*
X-9078044Y-82949457D01*
X-9090026Y-82969448D01*
X-9103910Y-82988168D01*
X-9119562Y-83005438D01*
X-9136832Y-83021090D01*
X-9155552Y-83034974D01*
X-9175543Y-83046956D01*
X-9196613Y-83056921D01*
X-9218557Y-83064773D01*
X-9241166Y-83070437D01*
X-9264221Y-83073856D01*
X-9287500Y-83075000D01*
X-9762500Y-83075000D01*
X-9785779Y-83073856D01*
X-9808834Y-83070437D01*
X-9831443Y-83064773D01*
X-9853387Y-83056921D01*
X-9874457Y-83046956D01*
X-9894448Y-83034974D01*
X-9913168Y-83021090D01*
X-9930438Y-83005438D01*
X-9946090Y-82988168D01*
X-9959974Y-82969448D01*
X-9971956Y-82949457D01*
X-9981921Y-82928387D01*
X-9989773Y-82906443D01*
X-9995437Y-82883834D01*
X-9998856Y-82860779D01*
X-10000000Y-82837500D01*
X-10000000Y-82262500D01*
X-9998856Y-82239221D01*
X-9995437Y-82216166D01*
X-9989773Y-82193557D01*
X-9981921Y-82171613D01*
X-9971956Y-82150543D01*
X-9959974Y-82130552D01*
X-9946090Y-82111832D01*
X-9930438Y-82094562D01*
X-9913168Y-82078910D01*
X-9894448Y-82065026D01*
X-9874457Y-82053044D01*
X-9853387Y-82043079D01*
X-9831443Y-82035227D01*
X-9808834Y-82029563D01*
X-9785779Y-82026144D01*
X-9762500Y-82025000D01*
X-9287500Y-82025000D01*
X-9264221Y-82026144D01*
X-9264221Y-82026144D01*
G37*
D14*
X-9525000Y-82550000D03*
D10*
G36*
X-9391221Y-88531144D02*
G01*
X-9368166Y-88534563D01*
X-9345557Y-88540227D01*
X-9323613Y-88548079D01*
X-9302543Y-88558044D01*
X-9282552Y-88570026D01*
X-9263832Y-88583910D01*
X-9246562Y-88599562D01*
X-9230910Y-88616832D01*
X-9217026Y-88635552D01*
X-9205044Y-88655543D01*
X-9195079Y-88676613D01*
X-9187227Y-88698557D01*
X-9181563Y-88721166D01*
X-9178144Y-88744221D01*
X-9177000Y-88767500D01*
X-9177000Y-89342500D01*
X-9178144Y-89365779D01*
X-9181563Y-89388834D01*
X-9187227Y-89411443D01*
X-9195079Y-89433387D01*
X-9205044Y-89454457D01*
X-9217026Y-89474448D01*
X-9230910Y-89493168D01*
X-9246562Y-89510438D01*
X-9263832Y-89526090D01*
X-9282552Y-89539974D01*
X-9302543Y-89551956D01*
X-9323613Y-89561921D01*
X-9345557Y-89569773D01*
X-9368166Y-89575437D01*
X-9391221Y-89578856D01*
X-9414500Y-89580000D01*
X-9889500Y-89580000D01*
X-9912779Y-89578856D01*
X-9935834Y-89575437D01*
X-9958443Y-89569773D01*
X-9980387Y-89561921D01*
X-10001457Y-89551956D01*
X-10021448Y-89539974D01*
X-10040168Y-89526090D01*
X-10057438Y-89510438D01*
X-10073090Y-89493168D01*
X-10086974Y-89474448D01*
X-10098956Y-89454457D01*
X-10108921Y-89433387D01*
X-10116773Y-89411443D01*
X-10122437Y-89388834D01*
X-10125856Y-89365779D01*
X-10127000Y-89342500D01*
X-10127000Y-88767500D01*
X-10125856Y-88744221D01*
X-10122437Y-88721166D01*
X-10116773Y-88698557D01*
X-10108921Y-88676613D01*
X-10098956Y-88655543D01*
X-10086974Y-88635552D01*
X-10073090Y-88616832D01*
X-10057438Y-88599562D01*
X-10040168Y-88583910D01*
X-10021448Y-88570026D01*
X-10001457Y-88558044D01*
X-9980387Y-88548079D01*
X-9958443Y-88540227D01*
X-9935834Y-88534563D01*
X-9912779Y-88531144D01*
X-9889500Y-88530000D01*
X-9414500Y-88530000D01*
X-9391221Y-88531144D01*
X-9391221Y-88531144D01*
G37*
D14*
X-9652000Y-89055000D03*
D10*
G36*
X-9391221Y-90281144D02*
G01*
X-9368166Y-90284563D01*
X-9345557Y-90290227D01*
X-9323613Y-90298079D01*
X-9302543Y-90308044D01*
X-9282552Y-90320026D01*
X-9263832Y-90333910D01*
X-9246562Y-90349562D01*
X-9230910Y-90366832D01*
X-9217026Y-90385552D01*
X-9205044Y-90405543D01*
X-9195079Y-90426613D01*
X-9187227Y-90448557D01*
X-9181563Y-90471166D01*
X-9178144Y-90494221D01*
X-9177000Y-90517500D01*
X-9177000Y-91092500D01*
X-9178144Y-91115779D01*
X-9181563Y-91138834D01*
X-9187227Y-91161443D01*
X-9195079Y-91183387D01*
X-9205044Y-91204457D01*
X-9217026Y-91224448D01*
X-9230910Y-91243168D01*
X-9246562Y-91260438D01*
X-9263832Y-91276090D01*
X-9282552Y-91289974D01*
X-9302543Y-91301956D01*
X-9323613Y-91311921D01*
X-9345557Y-91319773D01*
X-9368166Y-91325437D01*
X-9391221Y-91328856D01*
X-9414500Y-91330000D01*
X-9889500Y-91330000D01*
X-9912779Y-91328856D01*
X-9935834Y-91325437D01*
X-9958443Y-91319773D01*
X-9980387Y-91311921D01*
X-10001457Y-91301956D01*
X-10021448Y-91289974D01*
X-10040168Y-91276090D01*
X-10057438Y-91260438D01*
X-10073090Y-91243168D01*
X-10086974Y-91224448D01*
X-10098956Y-91204457D01*
X-10108921Y-91183387D01*
X-10116773Y-91161443D01*
X-10122437Y-91138834D01*
X-10125856Y-91115779D01*
X-10127000Y-91092500D01*
X-10127000Y-90517500D01*
X-10125856Y-90494221D01*
X-10122437Y-90471166D01*
X-10116773Y-90448557D01*
X-10108921Y-90426613D01*
X-10098956Y-90405543D01*
X-10086974Y-90385552D01*
X-10073090Y-90366832D01*
X-10057438Y-90349562D01*
X-10040168Y-90333910D01*
X-10021448Y-90320026D01*
X-10001457Y-90308044D01*
X-9980387Y-90298079D01*
X-9958443Y-90290227D01*
X-9935834Y-90284563D01*
X-9912779Y-90281144D01*
X-9889500Y-90280000D01*
X-9414500Y-90280000D01*
X-9391221Y-90281144D01*
X-9391221Y-90281144D01*
G37*
D14*
X-9652000Y-90805000D03*
D15*
X-15859000Y-105267000D03*
X-13859000Y-105267000D03*
D16*
X-14859000Y-108517000D03*
X-14859000Y-100292000D03*
D15*
X-13859000Y-97042000D03*
X-15859000Y-97042000D03*
D16*
X-14605000Y-84275000D03*
D15*
X-13605000Y-81025000D03*
X-15605000Y-81025000D03*
X-15732000Y-89265000D03*
X-13732000Y-89265000D03*
D16*
X-14732000Y-92515000D03*
M02*
