M48
; DRILL file {KiCad (5.1.2)-2} date 17.3.2021 0.24.33
; FORMAT={-:-/ absolute / inch / decimal}
; #@! TF.CreationDate,2021-03-17T00:24:33+02:00
; #@! TF.GenerationSoftware,Kicad,Pcbnew,(5.1.2)-2
; #@! TF.FileFunction,Plated,1,2,PTH
FMAT,2
INCH
T1C0.0197
T2C0.0295
T3C0.0394
T4C0.0512
%
G90
G05
T1
X-1.745Y-4.57
X-1.715Y-5.19
X-1.71Y-4.685
X-1.675Y-5.135
X-1.59Y-3.1
X-1.515Y-2.635
X-1.515Y-2.735
X-1.51Y-5.135
X-1.505Y-4.695
X-1.415Y-2.635
X-1.415Y-2.735
X-1.375Y-4.565
X-1.335Y-5.19
X-1.2Y-5.4
X-1.2Y-5.5
X-1.2Y-5.6
X-1.15Y-2.415
X-1.1Y-5.4
X-1.1Y-5.5
X-1.1Y-5.6
X-1.1Y-5.7
X-1.1Y-5.775
X-1.0Y-5.4
X-1.0Y-5.5
X-1.0Y-5.6
X-1.0Y-5.7
X-0.9Y-5.4
X-0.9Y-5.5
X-0.9Y-5.6
X-0.9Y-5.7
X-0.795Y-5.395
X-0.795Y-5.495
X-0.795Y-5.595
X-0.795Y-5.695
X-0.78Y-1.545
X-0.695Y-5.395
X-0.695Y-5.495
X-0.695Y-5.595
X-0.695Y-5.695
X-0.68Y-1.545
X-0.66Y-2.5
X-0.635Y-2.745
X-0.63Y-2.625
X-0.63Y-2.685
X-0.595Y-5.395
X-0.595Y-5.495
X-0.595Y-5.595
X-0.595Y-5.695
X-0.58Y-1.545
X-0.495Y-5.395
X-0.495Y-5.495
X-0.495Y-5.595
X-0.495Y-5.695
X-0.48Y-1.545
X-0.435Y-5.075
X-0.43Y-2.5
X-0.395Y-2.745
X-0.38Y-1.545
X-0.28Y-1.545
X-0.21Y-3.105
X-0.2Y-2.5
X-0.18Y-1.545
X-0.175Y-2.69
X-0.08Y-1.545
X-0.03Y-4.43
X0.015Y-3.7
X0.02Y-1.545
X0.02Y-2.5
X0.045Y-2.625
X0.09Y-5.67
X0.1Y-5.575
X0.12Y-1.545
X0.165Y-5.48
X0.17Y-2.495
X0.19Y-5.06
X0.19Y-5.375
X0.195Y-4.425
X0.2Y-3.565
X0.23Y-5.725
X0.23Y-5.775
X0.24Y-5.625
X0.245Y-5.43
X0.28Y-3.81
X0.3135Y-1.9665
X0.38Y-5.63
X0.415Y-3.87
X0.42Y-5.345
X0.465Y-5.77
X0.5065Y-5.485
X0.52Y-5.725
X0.59Y-5.115
X0.605Y-3.615
X0.7035Y-1.8565
X0.7035Y-1.9565
X0.735Y-3.805
X0.735Y-3.895
X0.7785Y-1.8615
X0.7785Y-1.9615
X1.045Y-3.71
X1.115Y-5.565
X1.15Y-5.675
X1.19Y-5.09
X1.21Y-5.4
X1.255Y-5.71
X1.375Y-3.62
T2
X-0.16Y-3.84
X-0.16Y-3.89
X-0.16Y-3.94
X-0.155Y-3.5
X-0.155Y-3.55
X-0.155Y-3.6
X-0.15Y-3.2
X-0.15Y-3.25
X-0.15Y-3.3
X-0.16Y-4.155
X-0.16Y-4.205
X-0.16Y-4.255
T3
X-1.5Y-1.6
X-1.5Y-1.7
X-1.5Y-1.8
X-1.5Y-1.9
X-1.5Y-2.0
X-1.5Y-2.1
X-1.5Y-2.2
X-1.5Y-2.3
X-1.5Y-2.4
X-1.5Y-2.5
X-1.4Y-1.6
X-1.4Y-1.7
X-1.4Y-1.8
X-1.4Y-1.9
X-1.4Y-2.0
X-1.4Y-2.1
X-1.4Y-2.2
X-1.4Y-2.3
X-1.4Y-2.4
X-1.4Y-2.5
X0.9Y-1.6
X0.9Y-1.7
X0.9Y-1.8
X0.9Y-1.9
X0.9Y-2.0
X0.9Y-2.1
X0.9Y-2.2
X0.9Y-2.3
X0.9Y-2.4
X0.9Y-2.5
X0.9Y-2.6
X0.9Y-2.7
X0.9Y-2.8
X0.9Y-2.9
X0.9Y-3.0
X0.9Y-3.1
X0.9Y-3.2
X0.9Y-3.3
X0.9Y-3.4
X1.0Y-1.6
X1.0Y-1.7
X1.0Y-1.8
X1.0Y-1.9
X1.0Y-2.0
X1.0Y-2.1
X1.0Y-2.2
X1.0Y-2.3
X1.0Y-2.4
X1.0Y-2.5
X1.0Y-2.6
X1.0Y-2.7
X1.0Y-2.8
X1.0Y-2.9
X1.0Y-3.0
X1.0Y-3.1
X1.0Y-3.2
X1.0Y-3.3
X1.0Y-3.4
T4
X-1.4626Y-5.85
X-1.2626Y-5.85
T0
M30
