G04 #@! TF.GenerationSoftware,KiCad,Pcbnew,(5.1.2)-2*
G04 #@! TF.CreationDate,2021-03-17T00:24:42+02:00*
G04 #@! TF.ProjectId,extension_board,65787465-6e73-4696-9f6e-5f626f617264,rev?*
G04 #@! TF.SameCoordinates,Original*
G04 #@! TF.FileFunction,Copper,L2,Bot*
G04 #@! TF.FilePolarity,Positive*
%FSLAX46Y46*%
G04 Gerber Fmt 4.6, Leading zero omitted, Abs format (unit mm)*
G04 Created by KiCad (PCBNEW (5.1.2)-2) date 2021-03-17 00:24:42*
%MOMM*%
%LPD*%
G04 APERTURE LIST*
%ADD10O,1.500000X1.050000*%
%ADD11R,1.500000X1.050000*%
%ADD12O,1.700000X1.700000*%
%ADD13R,1.700000X1.700000*%
%ADD14R,2.200000X2.200000*%
%ADD15C,2.300000*%
%ADD16C,0.800000*%
%ADD17C,1.000000*%
%ADD18C,0.300000*%
%ADD19C,0.254000*%
G04 APERTURE END LIST*
D10*
X-3810000Y-82550000D03*
X-3810000Y-83820000D03*
D11*
X-3810000Y-81280000D03*
D12*
X25400000Y-86360000D03*
X22860000Y-86360000D03*
X25400000Y-83820000D03*
X22860000Y-83820000D03*
X25400000Y-81280000D03*
X22860000Y-81280000D03*
X25400000Y-78740000D03*
X22860000Y-78740000D03*
X25400000Y-76200000D03*
X22860000Y-76200000D03*
X25400000Y-73660000D03*
X22860000Y-73660000D03*
X25400000Y-71120000D03*
X22860000Y-71120000D03*
X25400000Y-68580000D03*
X22860000Y-68580000D03*
X25400000Y-66040000D03*
X22860000Y-66040000D03*
X25400000Y-63500000D03*
X22860000Y-63500000D03*
X25400000Y-60960000D03*
X22860000Y-60960000D03*
X25400000Y-58420000D03*
X22860000Y-58420000D03*
X25400000Y-55880000D03*
X22860000Y-55880000D03*
X25400000Y-53340000D03*
X22860000Y-53340000D03*
X25400000Y-50800000D03*
X22860000Y-50800000D03*
X25400000Y-48260000D03*
X22860000Y-48260000D03*
X25400000Y-45720000D03*
X22860000Y-45720000D03*
X25400000Y-43180000D03*
X22860000Y-43180000D03*
X25400000Y-40640000D03*
D13*
X22860000Y-40640000D03*
D12*
X-35560000Y-63500000D03*
X-38100000Y-63500000D03*
X-35560000Y-60960000D03*
X-38100000Y-60960000D03*
X-35560000Y-58420000D03*
X-38100000Y-58420000D03*
X-35560000Y-55880000D03*
X-38100000Y-55880000D03*
X-35560000Y-53340000D03*
X-38100000Y-53340000D03*
X-35560000Y-50800000D03*
X-38100000Y-50800000D03*
X-35560000Y-48260000D03*
X-38100000Y-48260000D03*
X-35560000Y-45720000D03*
X-38100000Y-45720000D03*
X-35560000Y-43180000D03*
X-38100000Y-43180000D03*
X-35560000Y-40640000D03*
D13*
X-38100000Y-40640000D03*
D14*
X-37150000Y-148590000D03*
D15*
X-32070000Y-148590000D03*
D11*
X-4064000Y-105537000D03*
D10*
X-4064000Y-108077000D03*
X-4064000Y-106807000D03*
X-4064000Y-98806000D03*
X-4064000Y-100076000D03*
D11*
X-4064000Y-97536000D03*
X-3937000Y-88900000D03*
D10*
X-3937000Y-91440000D03*
X-3937000Y-90170000D03*
D16*
X-29210000Y-61341092D03*
X-5334000Y-78867000D03*
X-40386000Y-78740000D03*
X508000Y-63500000D03*
X7961999Y-49950001D03*
X4318000Y-63373000D03*
X-5080000Y-63500000D03*
X-10922000Y-63500000D03*
X-16764000Y-63500000D03*
X-762000Y-112522000D03*
X4953000Y-112395000D03*
X5080000Y-90551000D03*
X-38481000Y-66929000D03*
X-35941000Y-66929000D03*
X-38481000Y-69469000D03*
X-35941000Y-69469000D03*
X-19812000Y-39243000D03*
X-17272000Y-39243000D03*
X-14732000Y-39243000D03*
X-12192000Y-39243000D03*
X-9652000Y-39243000D03*
X-7112000Y-39243000D03*
X-4572000Y-39243000D03*
X-2032000Y-39243000D03*
X508000Y-39243000D03*
X3048000Y-39243000D03*
X-20193000Y-137033000D03*
X-17653000Y-137033000D03*
X-15113000Y-137033000D03*
X-12573000Y-137033000D03*
X-20193000Y-139573000D03*
X-17653000Y-139573000D03*
X-15113000Y-139573000D03*
X-12573000Y-139573000D03*
X-20193000Y-142113000D03*
X-17653000Y-142113000D03*
X-15113000Y-142113000D03*
X-12573000Y-142113000D03*
X-20193000Y-144653000D03*
X-17653000Y-144653000D03*
X-15113000Y-144653000D03*
X-12573000Y-144653000D03*
X-30480000Y-137160000D03*
X-27940000Y-137160000D03*
X-25400000Y-137160000D03*
X-22860000Y-137160000D03*
X-30480000Y-139700000D03*
X-27940000Y-139700000D03*
X-25400000Y-139700000D03*
X-22860000Y-139700000D03*
X-30480000Y-142240000D03*
X-27940000Y-142240000D03*
X-25400000Y-142240000D03*
X-22860000Y-142240000D03*
X-27940000Y-146685000D03*
X-27940000Y-144780000D03*
X-25400000Y-144780000D03*
X-22860000Y-144780000D03*
X17867999Y-47156001D03*
X19772999Y-47283001D03*
X17867999Y-49696001D03*
X19772999Y-49823001D03*
X18669000Y-98933000D03*
X10541000Y-98298000D03*
X4826000Y-136525000D03*
X10668002Y-135763002D03*
X18669000Y-96647000D03*
X7112000Y-96774000D03*
X26543000Y-94234000D03*
X381000Y-93980000D03*
X30226000Y-129286000D03*
X14986000Y-129921000D03*
X-34925000Y-115951000D03*
X-44323000Y-116078000D03*
X-38227000Y-119253000D03*
X-43434000Y-118999000D03*
X13208000Y-145415000D03*
X5842000Y-145415000D03*
X15367000Y-91821000D03*
X34925000Y-91948000D03*
X31877000Y-145034000D03*
X30734000Y-137160000D03*
X6223000Y-137922000D03*
X12866000Y-139319000D03*
X4191000Y-139192000D03*
X28321000Y-141351000D03*
X2540000Y-141605000D03*
X11811000Y-146558000D03*
X5842000Y-146685000D03*
X29210000Y-144145000D03*
X2286000Y-144018000D03*
X9652000Y-143002000D03*
X6096000Y-142875000D03*
X1143000Y-66675000D03*
X-16002000Y-66675000D03*
X4826000Y-128524000D03*
X-11049000Y-128905000D03*
X-16002000Y-68199000D03*
X-4445000Y-68326006D03*
X-10033000Y-69723000D03*
X-16129000Y-69723000D03*
X-42545000Y-130429000D03*
X-38353992Y-130429008D03*
X-33909000Y-131826000D03*
X-43561000Y-131826004D03*
D17*
X-33147000Y-60960000D02*
X-29591000Y-60960000D01*
D18*
X-29210000Y-61341000D02*
X-29210000Y-61341092D01*
X-29591000Y-60960000D02*
X-29210000Y-61341000D01*
D17*
X-33147000Y-60960000D02*
X-35560000Y-60960000D01*
D18*
X-40259000Y-78867000D02*
X-40386000Y-78740000D01*
D17*
X-5334000Y-78867000D02*
X-40259000Y-78867000D01*
D18*
X22860000Y-50800000D02*
X22010001Y-49950001D01*
X635000Y-63373000D02*
X508000Y-63500000D01*
D17*
X4318000Y-63500000D02*
X635000Y-63500000D01*
X-5080000Y-63500000D02*
X508000Y-63500000D01*
X-10922000Y-63500000D02*
X-5080000Y-63500000D01*
X-35560000Y-63500000D02*
X-16764000Y-63500000D01*
X-16764000Y-63500000D02*
X-10922000Y-63500000D01*
X17867999Y-49950001D02*
X7961999Y-49950001D01*
X22010001Y-49950001D02*
X17867999Y-49950001D01*
X27813000Y-78740000D02*
X25400000Y-78740000D01*
X29210000Y-77343000D02*
X27813000Y-78740000D01*
D18*
X29083000Y-63500000D02*
X29210000Y-63373000D01*
D17*
X25400000Y-63500000D02*
X29083000Y-63500000D01*
X29210000Y-63373000D02*
X29210000Y-77343000D01*
X-762000Y-112522000D02*
X4826000Y-112522000D01*
D18*
X4826000Y-112522000D02*
X4953000Y-112395000D01*
D17*
X5080000Y-90551000D02*
X5715000Y-89916000D01*
X5715000Y-89916000D02*
X29083000Y-89916000D01*
X29210000Y-89789000D02*
X29210000Y-77343000D01*
D18*
X29083000Y-89916000D02*
X29210000Y-89789000D01*
D17*
X29210000Y-37465000D02*
X29210000Y-63373000D01*
X28575000Y-36830000D02*
X29210000Y-37465000D01*
X18288000Y-36830000D02*
X28575000Y-36830000D01*
X17867999Y-49950001D02*
X17867999Y-47156001D01*
X17867999Y-37250001D02*
X18288000Y-36830000D01*
X22010001Y-49109999D02*
X22860000Y-48260000D01*
X22010001Y-49950001D02*
X22010001Y-49109999D01*
X17867999Y-47156001D02*
X17867999Y-37250001D01*
D18*
X18034000Y-98298000D02*
X10541000Y-98298000D01*
X18669000Y-98933000D02*
X18034000Y-98298000D01*
X10102317Y-135763002D02*
X10668002Y-135763002D01*
X6349998Y-135763002D02*
X10102317Y-135763002D01*
X4826000Y-136525000D02*
X5588000Y-136525000D01*
X5588000Y-136525000D02*
X6349998Y-135763002D01*
X7239000Y-96647000D02*
X7112000Y-96774000D01*
X18669000Y-96647000D02*
X7239000Y-96647000D01*
X635000Y-94234000D02*
X381000Y-93980000D01*
X26543000Y-94234000D02*
X635000Y-94234000D01*
X15385999Y-129521001D02*
X14986000Y-129921000D01*
X15404998Y-129540000D02*
X15385999Y-129521001D01*
X30226000Y-129286000D02*
X29972000Y-129540000D01*
X29972000Y-129540000D02*
X15404998Y-129540000D01*
X-44196000Y-115951000D02*
X-44323000Y-116078000D01*
X-34925000Y-115951000D02*
X-44196000Y-115951000D01*
X-43180000Y-119253000D02*
X-43434000Y-118999000D01*
X-38227000Y-119253000D02*
X-43180000Y-119253000D01*
X13208000Y-145415000D02*
X5842000Y-145415000D01*
X15367000Y-91821000D02*
X34671000Y-91821000D01*
X34671000Y-91821000D02*
X34798000Y-91948000D01*
X34798000Y-91948000D02*
X34925000Y-91948000D01*
X14986000Y-147193000D02*
X13208000Y-145415000D01*
X31877000Y-145034000D02*
X29718000Y-147193000D01*
X29718000Y-147193000D02*
X14986000Y-147193000D01*
X6985000Y-137160000D02*
X6223000Y-137922000D01*
X30734000Y-137160000D02*
X6985000Y-137160000D01*
X12300315Y-139319000D02*
X11665315Y-139954000D01*
X12866000Y-139319000D02*
X12300315Y-139319000D01*
X4953000Y-139954000D02*
X4191000Y-139192000D01*
X11665315Y-139954000D02*
X4953000Y-139954000D01*
X2921000Y-141986000D02*
X2540000Y-141605000D01*
X28321000Y-141351000D02*
X27686000Y-141986000D01*
X27686000Y-141986000D02*
X2921000Y-141986000D01*
X5969000Y-146558000D02*
X5842000Y-146685000D01*
X11811000Y-146558000D02*
X5969000Y-146558000D01*
X2667000Y-144399000D02*
X2286000Y-144018000D01*
X29210000Y-144145000D02*
X28956000Y-144399000D01*
X28956000Y-144399000D02*
X2667000Y-144399000D01*
X6223000Y-143002000D02*
X6096000Y-142875000D01*
X9652000Y-143002000D02*
X6223000Y-143002000D01*
X1143000Y-66675000D02*
X-16002000Y-66675000D01*
X4445000Y-128905000D02*
X-11049000Y-128905000D01*
X4826000Y-128524000D02*
X4445000Y-128905000D01*
X-16002000Y-68199000D02*
X-4572006Y-68199000D01*
X-4572006Y-68199000D02*
X-4445000Y-68326006D01*
X-10033000Y-69723000D02*
X-16129000Y-69723000D01*
X-42545000Y-130429000D02*
X-38354000Y-130429000D01*
X-38354000Y-130429000D02*
X-38353992Y-130429008D01*
X-33909000Y-131826000D02*
X-43560996Y-131826000D01*
X-43560996Y-131826000D02*
X-43561000Y-131826004D01*
D19*
G36*
X17816176Y-35690916D02*
G01*
X17603017Y-35804851D01*
X17416183Y-35958183D01*
X17377761Y-36005000D01*
X17042995Y-36339766D01*
X16996183Y-36378184D01*
X16842851Y-36565018D01*
X16728916Y-36778177D01*
X16658754Y-37009468D01*
X16635064Y-37250001D01*
X16641000Y-37310271D01*
X16640999Y-47216268D01*
X16641000Y-47216278D01*
X16640999Y-48723001D01*
X7901731Y-48723001D01*
X7721465Y-48740756D01*
X7490175Y-48810917D01*
X7277016Y-48924852D01*
X7090182Y-49078184D01*
X6936850Y-49265018D01*
X6822915Y-49478177D01*
X6752754Y-49709467D01*
X6729063Y-49950001D01*
X6752754Y-50190535D01*
X6822915Y-50421825D01*
X6936850Y-50634984D01*
X7090182Y-50821818D01*
X7277016Y-50975150D01*
X7490175Y-51089085D01*
X7721465Y-51159246D01*
X7901731Y-51177001D01*
X17807731Y-51177001D01*
X17867999Y-51182937D01*
X17928267Y-51177001D01*
X21326402Y-51177001D01*
X21395993Y-51406412D01*
X21542428Y-51680373D01*
X21739497Y-51920503D01*
X21921660Y-52070000D01*
X21739497Y-52219497D01*
X21542428Y-52459627D01*
X21395993Y-52733588D01*
X21305818Y-53030854D01*
X21275370Y-53340000D01*
X21305818Y-53649146D01*
X21395993Y-53946412D01*
X21542428Y-54220373D01*
X21739497Y-54460503D01*
X21921660Y-54610000D01*
X21739497Y-54759497D01*
X21542428Y-54999627D01*
X21395993Y-55273588D01*
X21305818Y-55570854D01*
X21275370Y-55880000D01*
X21305818Y-56189146D01*
X21395993Y-56486412D01*
X21542428Y-56760373D01*
X21739497Y-57000503D01*
X21921660Y-57150000D01*
X21739497Y-57299497D01*
X21542428Y-57539627D01*
X21395993Y-57813588D01*
X21305818Y-58110854D01*
X21275370Y-58420000D01*
X21305818Y-58729146D01*
X21395993Y-59026412D01*
X21542428Y-59300373D01*
X21739497Y-59540503D01*
X21921660Y-59690000D01*
X21739497Y-59839497D01*
X21542428Y-60079627D01*
X21395993Y-60353588D01*
X21305818Y-60650854D01*
X21275370Y-60960000D01*
X21305818Y-61269146D01*
X21395993Y-61566412D01*
X21542428Y-61840373D01*
X21739497Y-62080503D01*
X21921660Y-62230000D01*
X21739497Y-62379497D01*
X21542428Y-62619627D01*
X21395993Y-62893588D01*
X21305818Y-63190854D01*
X21275370Y-63500000D01*
X21305818Y-63809146D01*
X21395993Y-64106412D01*
X21542428Y-64380373D01*
X21739497Y-64620503D01*
X21921660Y-64770000D01*
X21739497Y-64919497D01*
X21542428Y-65159627D01*
X21395993Y-65433588D01*
X21305818Y-65730854D01*
X21275370Y-66040000D01*
X21305818Y-66349146D01*
X21395993Y-66646412D01*
X21542428Y-66920373D01*
X21739497Y-67160503D01*
X21921660Y-67310000D01*
X21739497Y-67459497D01*
X21542428Y-67699627D01*
X21395993Y-67973588D01*
X21305818Y-68270854D01*
X21275370Y-68580000D01*
X21305818Y-68889146D01*
X21395993Y-69186412D01*
X21542428Y-69460373D01*
X21739497Y-69700503D01*
X21921660Y-69850000D01*
X21739497Y-69999497D01*
X21542428Y-70239627D01*
X21395993Y-70513588D01*
X21305818Y-70810854D01*
X21275370Y-71120000D01*
X21305818Y-71429146D01*
X21395993Y-71726412D01*
X21542428Y-72000373D01*
X21739497Y-72240503D01*
X21921660Y-72390000D01*
X21739497Y-72539497D01*
X21542428Y-72779627D01*
X21395993Y-73053588D01*
X21305818Y-73350854D01*
X21275370Y-73660000D01*
X21305818Y-73969146D01*
X21395993Y-74266412D01*
X21542428Y-74540373D01*
X21739497Y-74780503D01*
X21921660Y-74930000D01*
X21739497Y-75079497D01*
X21542428Y-75319627D01*
X21395993Y-75593588D01*
X21305818Y-75890854D01*
X21275370Y-76200000D01*
X21305818Y-76509146D01*
X21395993Y-76806412D01*
X21542428Y-77080373D01*
X21739497Y-77320503D01*
X21921660Y-77470000D01*
X21739497Y-77619497D01*
X21542428Y-77859627D01*
X21395993Y-78133588D01*
X21305818Y-78430854D01*
X21275370Y-78740000D01*
X21305818Y-79049146D01*
X21395993Y-79346412D01*
X21542428Y-79620373D01*
X21739497Y-79860503D01*
X21921660Y-80010000D01*
X21739497Y-80159497D01*
X21542428Y-80399627D01*
X21395993Y-80673588D01*
X21305818Y-80970854D01*
X21275370Y-81280000D01*
X21305818Y-81589146D01*
X21395993Y-81886412D01*
X21542428Y-82160373D01*
X21739497Y-82400503D01*
X21921660Y-82550000D01*
X21739497Y-82699497D01*
X21542428Y-82939627D01*
X21395993Y-83213588D01*
X21305818Y-83510854D01*
X21275370Y-83820000D01*
X21305818Y-84129146D01*
X21395993Y-84426412D01*
X21542428Y-84700373D01*
X21739497Y-84940503D01*
X21921660Y-85090000D01*
X21739497Y-85239497D01*
X21542428Y-85479627D01*
X21395993Y-85753588D01*
X21305818Y-86050854D01*
X21275370Y-86360000D01*
X21305818Y-86669146D01*
X21395993Y-86966412D01*
X21542428Y-87240373D01*
X21739497Y-87480503D01*
X21979627Y-87677572D01*
X22253588Y-87824007D01*
X22550854Y-87914182D01*
X22782531Y-87937000D01*
X22937469Y-87937000D01*
X23169146Y-87914182D01*
X23466412Y-87824007D01*
X23740373Y-87677572D01*
X23980503Y-87480503D01*
X24130000Y-87298340D01*
X24279497Y-87480503D01*
X24519627Y-87677572D01*
X24793588Y-87824007D01*
X25090854Y-87914182D01*
X25322531Y-87937000D01*
X25477469Y-87937000D01*
X25709146Y-87914182D01*
X26006412Y-87824007D01*
X26280373Y-87677572D01*
X26520503Y-87480503D01*
X26717572Y-87240373D01*
X26864007Y-86966412D01*
X26954182Y-86669146D01*
X26984630Y-86360000D01*
X26954182Y-86050854D01*
X26864007Y-85753588D01*
X26717572Y-85479627D01*
X26520503Y-85239497D01*
X26338340Y-85090000D01*
X26520503Y-84940503D01*
X26717572Y-84700373D01*
X26864007Y-84426412D01*
X26954182Y-84129146D01*
X26984630Y-83820000D01*
X26954182Y-83510854D01*
X26864007Y-83213588D01*
X26717572Y-82939627D01*
X26520503Y-82699497D01*
X26338340Y-82550000D01*
X26520503Y-82400503D01*
X26717572Y-82160373D01*
X26864007Y-81886412D01*
X26954182Y-81589146D01*
X26984630Y-81280000D01*
X26954182Y-80970854D01*
X26864007Y-80673588D01*
X26717572Y-80399627D01*
X26520503Y-80159497D01*
X26338340Y-80010000D01*
X26390736Y-79967000D01*
X27752740Y-79967000D01*
X27813000Y-79972935D01*
X27873260Y-79967000D01*
X27873268Y-79967000D01*
X27983001Y-79956192D01*
X27983000Y-88689000D01*
X5775263Y-88689000D01*
X5715000Y-88683065D01*
X5654737Y-88689000D01*
X5654732Y-88689000D01*
X5594946Y-88694889D01*
X5474466Y-88706754D01*
X5256085Y-88773000D01*
X5243176Y-88776916D01*
X5030017Y-88890851D01*
X4843183Y-89044183D01*
X4804761Y-89091000D01*
X4169765Y-89725996D01*
X4054852Y-89866018D01*
X3940917Y-90079176D01*
X3870755Y-90310467D01*
X3847065Y-90551000D01*
X3870755Y-90791533D01*
X3940917Y-91022824D01*
X4054852Y-91235982D01*
X4208183Y-91422817D01*
X4395018Y-91576148D01*
X4608176Y-91690083D01*
X4839467Y-91760245D01*
X5080000Y-91783935D01*
X5320533Y-91760245D01*
X5551824Y-91690083D01*
X5764982Y-91576148D01*
X5905004Y-91461235D01*
X6223239Y-91143000D01*
X14464594Y-91143000D01*
X14368266Y-91287165D01*
X14283310Y-91492266D01*
X14240000Y-91710000D01*
X14240000Y-91932000D01*
X14283310Y-92149734D01*
X14368266Y-92354835D01*
X14491602Y-92539421D01*
X14648579Y-92696398D01*
X14833165Y-92819734D01*
X15038266Y-92904690D01*
X15256000Y-92948000D01*
X15478000Y-92948000D01*
X15695734Y-92904690D01*
X15900835Y-92819734D01*
X16083023Y-92698000D01*
X34081181Y-92698000D01*
X34206579Y-92823398D01*
X34391165Y-92946734D01*
X34596266Y-93031690D01*
X34814000Y-93075000D01*
X35036000Y-93075000D01*
X35253734Y-93031690D01*
X35458835Y-92946734D01*
X35643421Y-92823398D01*
X35800398Y-92666421D01*
X35923734Y-92481835D01*
X36008690Y-92276734D01*
X36052000Y-92059000D01*
X36052000Y-91837000D01*
X36008690Y-91619266D01*
X35923734Y-91414165D01*
X35800398Y-91229579D01*
X35643421Y-91072602D01*
X35458835Y-90949266D01*
X35253734Y-90864310D01*
X35036000Y-90821000D01*
X34814000Y-90821000D01*
X34596266Y-90864310D01*
X34403878Y-90944000D01*
X29762649Y-90944000D01*
X29767983Y-90941149D01*
X29954817Y-90787817D01*
X30012064Y-90718062D01*
X30081817Y-90660817D01*
X30235149Y-90473983D01*
X30349084Y-90260824D01*
X30419245Y-90029534D01*
X30437000Y-89849268D01*
X30437000Y-77403261D01*
X30442935Y-77343001D01*
X30437000Y-77282741D01*
X30437000Y-37525263D01*
X30442935Y-37465000D01*
X30419246Y-37224466D01*
X30349084Y-36993176D01*
X30235149Y-36780017D01*
X30081817Y-36593183D01*
X30035001Y-36554762D01*
X29485239Y-36005000D01*
X29446817Y-35958183D01*
X29259983Y-35804851D01*
X29046824Y-35690916D01*
X29000949Y-35677000D01*
X36713001Y-35677000D01*
X36713000Y-157363000D01*
X-47508000Y-157363000D01*
X-47508000Y-149690000D01*
X-38888072Y-149690000D01*
X-38875812Y-149814482D01*
X-38839502Y-149934180D01*
X-38780537Y-150044494D01*
X-38701185Y-150141185D01*
X-38604494Y-150220537D01*
X-38494180Y-150279502D01*
X-38374482Y-150315812D01*
X-38250000Y-150328072D01*
X-37435750Y-150325000D01*
X-37277000Y-150166250D01*
X-37277000Y-148717000D01*
X-37023000Y-148717000D01*
X-37023000Y-150166250D01*
X-36864250Y-150325000D01*
X-36050000Y-150328072D01*
X-35925518Y-150315812D01*
X-35805820Y-150279502D01*
X-35695506Y-150220537D01*
X-35598815Y-150141185D01*
X-35519463Y-150044494D01*
X-35460498Y-149934180D01*
X-35424188Y-149814482D01*
X-35411928Y-149690000D01*
X-35415000Y-148875750D01*
X-35573750Y-148717000D01*
X-37023000Y-148717000D01*
X-37277000Y-148717000D01*
X-38726250Y-148717000D01*
X-38885000Y-148875750D01*
X-38888072Y-149690000D01*
X-47508000Y-149690000D01*
X-47508000Y-147490000D01*
X-38888072Y-147490000D01*
X-38885000Y-148304250D01*
X-38726250Y-148463000D01*
X-37277000Y-148463000D01*
X-37277000Y-147013750D01*
X-37023000Y-147013750D01*
X-37023000Y-148463000D01*
X-35573750Y-148463000D01*
X-35515882Y-148405132D01*
X-33947000Y-148405132D01*
X-33947000Y-148774868D01*
X-33874868Y-149137501D01*
X-33733376Y-149479093D01*
X-33527961Y-149786518D01*
X-33266518Y-150047961D01*
X-32959093Y-150253376D01*
X-32617501Y-150394868D01*
X-32254868Y-150467000D01*
X-31885132Y-150467000D01*
X-31522499Y-150394868D01*
X-31180907Y-150253376D01*
X-30873482Y-150047961D01*
X-30612039Y-149786518D01*
X-30406624Y-149479093D01*
X-30265132Y-149137501D01*
X-30193000Y-148774868D01*
X-30193000Y-148405132D01*
X-30265132Y-148042499D01*
X-30406624Y-147700907D01*
X-30612039Y-147393482D01*
X-30873482Y-147132039D01*
X-31180907Y-146926624D01*
X-31522499Y-146785132D01*
X-31885132Y-146713000D01*
X-32254868Y-146713000D01*
X-32617501Y-146785132D01*
X-32959093Y-146926624D01*
X-33266518Y-147132039D01*
X-33527961Y-147393482D01*
X-33733376Y-147700907D01*
X-33874868Y-148042499D01*
X-33947000Y-148405132D01*
X-35515882Y-148405132D01*
X-35415000Y-148304250D01*
X-35411928Y-147490000D01*
X-35424188Y-147365518D01*
X-35460498Y-147245820D01*
X-35519463Y-147135506D01*
X-35598815Y-147038815D01*
X-35695506Y-146959463D01*
X-35805820Y-146900498D01*
X-35925518Y-146864188D01*
X-36050000Y-146851928D01*
X-36864250Y-146855000D01*
X-37023000Y-147013750D01*
X-37277000Y-147013750D01*
X-37435750Y-146855000D01*
X-38250000Y-146851928D01*
X-38374482Y-146864188D01*
X-38494180Y-146900498D01*
X-38604494Y-146959463D01*
X-38701185Y-147038815D01*
X-38780537Y-147135506D01*
X-38839502Y-147245820D01*
X-38875812Y-147365518D01*
X-38888072Y-147490000D01*
X-47508000Y-147490000D01*
X-47508000Y-144542000D01*
X-21320000Y-144542000D01*
X-21320000Y-144764000D01*
X-21276690Y-144981734D01*
X-21191734Y-145186835D01*
X-21068398Y-145371421D01*
X-20911421Y-145528398D01*
X-20726835Y-145651734D01*
X-20521734Y-145736690D01*
X-20304000Y-145780000D01*
X-20082000Y-145780000D01*
X-19864266Y-145736690D01*
X-19659165Y-145651734D01*
X-19474579Y-145528398D01*
X-19317602Y-145371421D01*
X-19194266Y-145186835D01*
X-19109310Y-144981734D01*
X-19066000Y-144764000D01*
X-19066000Y-144542000D01*
X-18780000Y-144542000D01*
X-18780000Y-144764000D01*
X-18736690Y-144981734D01*
X-18651734Y-145186835D01*
X-18528398Y-145371421D01*
X-18371421Y-145528398D01*
X-18186835Y-145651734D01*
X-17981734Y-145736690D01*
X-17764000Y-145780000D01*
X-17542000Y-145780000D01*
X-17324266Y-145736690D01*
X-17119165Y-145651734D01*
X-16934579Y-145528398D01*
X-16777602Y-145371421D01*
X-16654266Y-145186835D01*
X-16569310Y-144981734D01*
X-16526000Y-144764000D01*
X-16526000Y-144542000D01*
X-16240000Y-144542000D01*
X-16240000Y-144764000D01*
X-16196690Y-144981734D01*
X-16111734Y-145186835D01*
X-15988398Y-145371421D01*
X-15831421Y-145528398D01*
X-15646835Y-145651734D01*
X-15441734Y-145736690D01*
X-15224000Y-145780000D01*
X-15002000Y-145780000D01*
X-14784266Y-145736690D01*
X-14579165Y-145651734D01*
X-14394579Y-145528398D01*
X-14237602Y-145371421D01*
X-14114266Y-145186835D01*
X-14029310Y-144981734D01*
X-13986000Y-144764000D01*
X-13986000Y-144542000D01*
X-13700000Y-144542000D01*
X-13700000Y-144764000D01*
X-13656690Y-144981734D01*
X-13571734Y-145186835D01*
X-13448398Y-145371421D01*
X-13291421Y-145528398D01*
X-13106835Y-145651734D01*
X-12901734Y-145736690D01*
X-12684000Y-145780000D01*
X-12462000Y-145780000D01*
X-12244266Y-145736690D01*
X-12039165Y-145651734D01*
X-11854579Y-145528398D01*
X-11697602Y-145371421D01*
X-11574266Y-145186835D01*
X-11489310Y-144981734D01*
X-11446000Y-144764000D01*
X-11446000Y-144542000D01*
X-11489310Y-144324266D01*
X-11574266Y-144119165D01*
X-11697602Y-143934579D01*
X-11725181Y-143907000D01*
X1159000Y-143907000D01*
X1159000Y-144129000D01*
X1202310Y-144346734D01*
X1287266Y-144551835D01*
X1410602Y-144736421D01*
X1567579Y-144893398D01*
X1752165Y-145016734D01*
X1957266Y-145101690D01*
X2175000Y-145145000D01*
X2202240Y-145145000D01*
X2329763Y-145213162D01*
X2495078Y-145263310D01*
X2623921Y-145276000D01*
X2623930Y-145276000D01*
X2666999Y-145280242D01*
X2710069Y-145276000D01*
X4720570Y-145276000D01*
X4715000Y-145304000D01*
X4715000Y-145526000D01*
X4758310Y-145743734D01*
X4843266Y-145948835D01*
X4910862Y-146050000D01*
X4843266Y-146151165D01*
X4758310Y-146356266D01*
X4715000Y-146574000D01*
X4715000Y-146796000D01*
X4758310Y-147013734D01*
X4843266Y-147218835D01*
X4966602Y-147403421D01*
X5123579Y-147560398D01*
X5308165Y-147683734D01*
X5513266Y-147768690D01*
X5731000Y-147812000D01*
X5953000Y-147812000D01*
X6170734Y-147768690D01*
X6375835Y-147683734D01*
X6560421Y-147560398D01*
X6685819Y-147435000D01*
X11094977Y-147435000D01*
X11277165Y-147556734D01*
X11482266Y-147641690D01*
X11700000Y-147685000D01*
X11922000Y-147685000D01*
X12139734Y-147641690D01*
X12344835Y-147556734D01*
X12529421Y-147433398D01*
X12686398Y-147276421D01*
X12809734Y-147091835D01*
X12894690Y-146886734D01*
X12938000Y-146669000D01*
X12938000Y-146510373D01*
X13094173Y-146541438D01*
X14335403Y-147782668D01*
X14362867Y-147816133D01*
X14496408Y-147925727D01*
X14648763Y-148007162D01*
X14814077Y-148057310D01*
X14986000Y-148074243D01*
X15029079Y-148070000D01*
X29674921Y-148070000D01*
X29718000Y-148074243D01*
X29761079Y-148070000D01*
X29889922Y-148057310D01*
X30055237Y-148007162D01*
X30207592Y-147925727D01*
X30341133Y-147816133D01*
X30368597Y-147782668D01*
X31990828Y-146160437D01*
X32205734Y-146117690D01*
X32410835Y-146032734D01*
X32595421Y-145909398D01*
X32752398Y-145752421D01*
X32875734Y-145567835D01*
X32960690Y-145362734D01*
X33004000Y-145145000D01*
X33004000Y-144923000D01*
X32960690Y-144705266D01*
X32875734Y-144500165D01*
X32752398Y-144315579D01*
X32595421Y-144158602D01*
X32410835Y-144035266D01*
X32205734Y-143950310D01*
X31988000Y-143907000D01*
X31766000Y-143907000D01*
X31548266Y-143950310D01*
X31343165Y-144035266D01*
X31158579Y-144158602D01*
X31001602Y-144315579D01*
X30878266Y-144500165D01*
X30793310Y-144705266D01*
X30750563Y-144920172D01*
X29354735Y-146316000D01*
X15349265Y-146316000D01*
X14334438Y-145301173D01*
X14329430Y-145276000D01*
X28912921Y-145276000D01*
X28956000Y-145280243D01*
X28999079Y-145276000D01*
X29039692Y-145272000D01*
X29079359Y-145268093D01*
X29099000Y-145272000D01*
X29321000Y-145272000D01*
X29538734Y-145228690D01*
X29743835Y-145143734D01*
X29928421Y-145020398D01*
X30085398Y-144863421D01*
X30208734Y-144678835D01*
X30293690Y-144473734D01*
X30337000Y-144256000D01*
X30337000Y-144034000D01*
X30293690Y-143816266D01*
X30208734Y-143611165D01*
X30085398Y-143426579D01*
X29928421Y-143269602D01*
X29743835Y-143146266D01*
X29538734Y-143061310D01*
X29321000Y-143018000D01*
X29099000Y-143018000D01*
X28881266Y-143061310D01*
X28676165Y-143146266D01*
X28491579Y-143269602D01*
X28334602Y-143426579D01*
X28270844Y-143522000D01*
X10656465Y-143522000D01*
X10735690Y-143330734D01*
X10779000Y-143113000D01*
X10779000Y-142891000D01*
X10773430Y-142863000D01*
X27642921Y-142863000D01*
X27686000Y-142867243D01*
X27729079Y-142863000D01*
X27857922Y-142850310D01*
X28023237Y-142800162D01*
X28175592Y-142718727D01*
X28309133Y-142609133D01*
X28336597Y-142575668D01*
X28434827Y-142477438D01*
X28649734Y-142434690D01*
X28854835Y-142349734D01*
X29039421Y-142226398D01*
X29196398Y-142069421D01*
X29319734Y-141884835D01*
X29404690Y-141679734D01*
X29448000Y-141462000D01*
X29448000Y-141240000D01*
X29404690Y-141022266D01*
X29319734Y-140817165D01*
X29196398Y-140632579D01*
X29039421Y-140475602D01*
X28854835Y-140352266D01*
X28649734Y-140267310D01*
X28432000Y-140224000D01*
X28210000Y-140224000D01*
X27992266Y-140267310D01*
X27787165Y-140352266D01*
X27602579Y-140475602D01*
X27445602Y-140632579D01*
X27322266Y-140817165D01*
X27237310Y-141022266D01*
X27220058Y-141109000D01*
X3554406Y-141109000D01*
X3538734Y-141071165D01*
X3415398Y-140886579D01*
X3258421Y-140729602D01*
X3073835Y-140606266D01*
X2868734Y-140521310D01*
X2651000Y-140478000D01*
X2429000Y-140478000D01*
X2211266Y-140521310D01*
X2006165Y-140606266D01*
X1821579Y-140729602D01*
X1664602Y-140886579D01*
X1541266Y-141071165D01*
X1456310Y-141276266D01*
X1413000Y-141494000D01*
X1413000Y-141716000D01*
X1456310Y-141933734D01*
X1541266Y-142138835D01*
X1664602Y-142323421D01*
X1821579Y-142480398D01*
X2006165Y-142603734D01*
X2211266Y-142688690D01*
X2429000Y-142732000D01*
X2456240Y-142732000D01*
X2583763Y-142800162D01*
X2749078Y-142850310D01*
X2877921Y-142863000D01*
X2877930Y-142863000D01*
X2920999Y-142867242D01*
X2964069Y-142863000D01*
X4969000Y-142863000D01*
X4969000Y-142986000D01*
X5012310Y-143203734D01*
X5097266Y-143408835D01*
X5172880Y-143522000D01*
X3300406Y-143522000D01*
X3284734Y-143484165D01*
X3161398Y-143299579D01*
X3004421Y-143142602D01*
X2819835Y-143019266D01*
X2614734Y-142934310D01*
X2397000Y-142891000D01*
X2175000Y-142891000D01*
X1957266Y-142934310D01*
X1752165Y-143019266D01*
X1567579Y-143142602D01*
X1410602Y-143299579D01*
X1287266Y-143484165D01*
X1202310Y-143689266D01*
X1159000Y-143907000D01*
X-11725181Y-143907000D01*
X-11854579Y-143777602D01*
X-12039165Y-143654266D01*
X-12244266Y-143569310D01*
X-12462000Y-143526000D01*
X-12684000Y-143526000D01*
X-12901734Y-143569310D01*
X-13106835Y-143654266D01*
X-13291421Y-143777602D01*
X-13448398Y-143934579D01*
X-13571734Y-144119165D01*
X-13656690Y-144324266D01*
X-13700000Y-144542000D01*
X-13986000Y-144542000D01*
X-14029310Y-144324266D01*
X-14114266Y-144119165D01*
X-14237602Y-143934579D01*
X-14394579Y-143777602D01*
X-14579165Y-143654266D01*
X-14784266Y-143569310D01*
X-15002000Y-143526000D01*
X-15224000Y-143526000D01*
X-15441734Y-143569310D01*
X-15646835Y-143654266D01*
X-15831421Y-143777602D01*
X-15988398Y-143934579D01*
X-16111734Y-144119165D01*
X-16196690Y-144324266D01*
X-16240000Y-144542000D01*
X-16526000Y-144542000D01*
X-16569310Y-144324266D01*
X-16654266Y-144119165D01*
X-16777602Y-143934579D01*
X-16934579Y-143777602D01*
X-17119165Y-143654266D01*
X-17324266Y-143569310D01*
X-17542000Y-143526000D01*
X-17764000Y-143526000D01*
X-17981734Y-143569310D01*
X-18186835Y-143654266D01*
X-18371421Y-143777602D01*
X-18528398Y-143934579D01*
X-18651734Y-144119165D01*
X-18736690Y-144324266D01*
X-18780000Y-144542000D01*
X-19066000Y-144542000D01*
X-19109310Y-144324266D01*
X-19194266Y-144119165D01*
X-19317602Y-143934579D01*
X-19474579Y-143777602D01*
X-19659165Y-143654266D01*
X-19864266Y-143569310D01*
X-20082000Y-143526000D01*
X-20304000Y-143526000D01*
X-20521734Y-143569310D01*
X-20726835Y-143654266D01*
X-20911421Y-143777602D01*
X-21068398Y-143934579D01*
X-21191734Y-144119165D01*
X-21276690Y-144324266D01*
X-21320000Y-144542000D01*
X-47508000Y-144542000D01*
X-47508000Y-142002000D01*
X-21320000Y-142002000D01*
X-21320000Y-142224000D01*
X-21276690Y-142441734D01*
X-21191734Y-142646835D01*
X-21068398Y-142831421D01*
X-20911421Y-142988398D01*
X-20726835Y-143111734D01*
X-20521734Y-143196690D01*
X-20304000Y-143240000D01*
X-20082000Y-143240000D01*
X-19864266Y-143196690D01*
X-19659165Y-143111734D01*
X-19474579Y-142988398D01*
X-19317602Y-142831421D01*
X-19194266Y-142646835D01*
X-19109310Y-142441734D01*
X-19066000Y-142224000D01*
X-19066000Y-142002000D01*
X-18780000Y-142002000D01*
X-18780000Y-142224000D01*
X-18736690Y-142441734D01*
X-18651734Y-142646835D01*
X-18528398Y-142831421D01*
X-18371421Y-142988398D01*
X-18186835Y-143111734D01*
X-17981734Y-143196690D01*
X-17764000Y-143240000D01*
X-17542000Y-143240000D01*
X-17324266Y-143196690D01*
X-17119165Y-143111734D01*
X-16934579Y-142988398D01*
X-16777602Y-142831421D01*
X-16654266Y-142646835D01*
X-16569310Y-142441734D01*
X-16526000Y-142224000D01*
X-16526000Y-142002000D01*
X-16240000Y-142002000D01*
X-16240000Y-142224000D01*
X-16196690Y-142441734D01*
X-16111734Y-142646835D01*
X-15988398Y-142831421D01*
X-15831421Y-142988398D01*
X-15646835Y-143111734D01*
X-15441734Y-143196690D01*
X-15224000Y-143240000D01*
X-15002000Y-143240000D01*
X-14784266Y-143196690D01*
X-14579165Y-143111734D01*
X-14394579Y-142988398D01*
X-14237602Y-142831421D01*
X-14114266Y-142646835D01*
X-14029310Y-142441734D01*
X-13986000Y-142224000D01*
X-13986000Y-142002000D01*
X-13700000Y-142002000D01*
X-13700000Y-142224000D01*
X-13656690Y-142441734D01*
X-13571734Y-142646835D01*
X-13448398Y-142831421D01*
X-13291421Y-142988398D01*
X-13106835Y-143111734D01*
X-12901734Y-143196690D01*
X-12684000Y-143240000D01*
X-12462000Y-143240000D01*
X-12244266Y-143196690D01*
X-12039165Y-143111734D01*
X-11854579Y-142988398D01*
X-11697602Y-142831421D01*
X-11574266Y-142646835D01*
X-11489310Y-142441734D01*
X-11446000Y-142224000D01*
X-11446000Y-142002000D01*
X-11489310Y-141784266D01*
X-11574266Y-141579165D01*
X-11697602Y-141394579D01*
X-11854579Y-141237602D01*
X-12039165Y-141114266D01*
X-12244266Y-141029310D01*
X-12462000Y-140986000D01*
X-12684000Y-140986000D01*
X-12901734Y-141029310D01*
X-13106835Y-141114266D01*
X-13291421Y-141237602D01*
X-13448398Y-141394579D01*
X-13571734Y-141579165D01*
X-13656690Y-141784266D01*
X-13700000Y-142002000D01*
X-13986000Y-142002000D01*
X-14029310Y-141784266D01*
X-14114266Y-141579165D01*
X-14237602Y-141394579D01*
X-14394579Y-141237602D01*
X-14579165Y-141114266D01*
X-14784266Y-141029310D01*
X-15002000Y-140986000D01*
X-15224000Y-140986000D01*
X-15441734Y-141029310D01*
X-15646835Y-141114266D01*
X-15831421Y-141237602D01*
X-15988398Y-141394579D01*
X-16111734Y-141579165D01*
X-16196690Y-141784266D01*
X-16240000Y-142002000D01*
X-16526000Y-142002000D01*
X-16569310Y-141784266D01*
X-16654266Y-141579165D01*
X-16777602Y-141394579D01*
X-16934579Y-141237602D01*
X-17119165Y-141114266D01*
X-17324266Y-141029310D01*
X-17542000Y-140986000D01*
X-17764000Y-140986000D01*
X-17981734Y-141029310D01*
X-18186835Y-141114266D01*
X-18371421Y-141237602D01*
X-18528398Y-141394579D01*
X-18651734Y-141579165D01*
X-18736690Y-141784266D01*
X-18780000Y-142002000D01*
X-19066000Y-142002000D01*
X-19109310Y-141784266D01*
X-19194266Y-141579165D01*
X-19317602Y-141394579D01*
X-19474579Y-141237602D01*
X-19659165Y-141114266D01*
X-19864266Y-141029310D01*
X-20082000Y-140986000D01*
X-20304000Y-140986000D01*
X-20521734Y-141029310D01*
X-20726835Y-141114266D01*
X-20911421Y-141237602D01*
X-21068398Y-141394579D01*
X-21191734Y-141579165D01*
X-21276690Y-141784266D01*
X-21320000Y-142002000D01*
X-47508000Y-142002000D01*
X-47508000Y-139462000D01*
X-21320000Y-139462000D01*
X-21320000Y-139684000D01*
X-21276690Y-139901734D01*
X-21191734Y-140106835D01*
X-21068398Y-140291421D01*
X-20911421Y-140448398D01*
X-20726835Y-140571734D01*
X-20521734Y-140656690D01*
X-20304000Y-140700000D01*
X-20082000Y-140700000D01*
X-19864266Y-140656690D01*
X-19659165Y-140571734D01*
X-19474579Y-140448398D01*
X-19317602Y-140291421D01*
X-19194266Y-140106835D01*
X-19109310Y-139901734D01*
X-19066000Y-139684000D01*
X-19066000Y-139462000D01*
X-18780000Y-139462000D01*
X-18780000Y-139684000D01*
X-18736690Y-139901734D01*
X-18651734Y-140106835D01*
X-18528398Y-140291421D01*
X-18371421Y-140448398D01*
X-18186835Y-140571734D01*
X-17981734Y-140656690D01*
X-17764000Y-140700000D01*
X-17542000Y-140700000D01*
X-17324266Y-140656690D01*
X-17119165Y-140571734D01*
X-16934579Y-140448398D01*
X-16777602Y-140291421D01*
X-16654266Y-140106835D01*
X-16569310Y-139901734D01*
X-16526000Y-139684000D01*
X-16526000Y-139462000D01*
X-16240000Y-139462000D01*
X-16240000Y-139684000D01*
X-16196690Y-139901734D01*
X-16111734Y-140106835D01*
X-15988398Y-140291421D01*
X-15831421Y-140448398D01*
X-15646835Y-140571734D01*
X-15441734Y-140656690D01*
X-15224000Y-140700000D01*
X-15002000Y-140700000D01*
X-14784266Y-140656690D01*
X-14579165Y-140571734D01*
X-14394579Y-140448398D01*
X-14237602Y-140291421D01*
X-14114266Y-140106835D01*
X-14029310Y-139901734D01*
X-13986000Y-139684000D01*
X-13986000Y-139462000D01*
X-13700000Y-139462000D01*
X-13700000Y-139684000D01*
X-13656690Y-139901734D01*
X-13571734Y-140106835D01*
X-13448398Y-140291421D01*
X-13291421Y-140448398D01*
X-13106835Y-140571734D01*
X-12901734Y-140656690D01*
X-12684000Y-140700000D01*
X-12462000Y-140700000D01*
X-12244266Y-140656690D01*
X-12039165Y-140571734D01*
X-11854579Y-140448398D01*
X-11697602Y-140291421D01*
X-11574266Y-140106835D01*
X-11489310Y-139901734D01*
X-11446000Y-139684000D01*
X-11446000Y-139462000D01*
X-11489310Y-139244266D01*
X-11556937Y-139081000D01*
X3064000Y-139081000D01*
X3064000Y-139303000D01*
X3107310Y-139520734D01*
X3192266Y-139725835D01*
X3315602Y-139910421D01*
X3472579Y-140067398D01*
X3657165Y-140190734D01*
X3862266Y-140275690D01*
X4077172Y-140318437D01*
X4302408Y-140543673D01*
X4329867Y-140577133D01*
X4363326Y-140604592D01*
X4363328Y-140604594D01*
X4397428Y-140632579D01*
X4463408Y-140686727D01*
X4615763Y-140768162D01*
X4781077Y-140818310D01*
X4953000Y-140835243D01*
X4996079Y-140831000D01*
X11622236Y-140831000D01*
X11665315Y-140835243D01*
X11708394Y-140831000D01*
X11837237Y-140818310D01*
X12002552Y-140768162D01*
X12154907Y-140686727D01*
X12288448Y-140577133D01*
X12315912Y-140543668D01*
X12480432Y-140379148D01*
X12537266Y-140402690D01*
X12755000Y-140446000D01*
X12977000Y-140446000D01*
X13194734Y-140402690D01*
X13399835Y-140317734D01*
X13584421Y-140194398D01*
X13741398Y-140037421D01*
X13864734Y-139852835D01*
X13949690Y-139647734D01*
X13993000Y-139430000D01*
X13993000Y-139208000D01*
X13949690Y-138990266D01*
X13864734Y-138785165D01*
X13741398Y-138600579D01*
X13584421Y-138443602D01*
X13399835Y-138320266D01*
X13194734Y-138235310D01*
X12977000Y-138192000D01*
X12755000Y-138192000D01*
X12537266Y-138235310D01*
X12332165Y-138320266D01*
X12147579Y-138443602D01*
X12137376Y-138453805D01*
X12128392Y-138454690D01*
X11963078Y-138504838D01*
X11810723Y-138586273D01*
X11677182Y-138695867D01*
X11649718Y-138729332D01*
X11302050Y-139077000D01*
X5317204Y-139077000D01*
X5274690Y-138863266D01*
X5189734Y-138658165D01*
X5066398Y-138473579D01*
X4909421Y-138316602D01*
X4724835Y-138193266D01*
X4519734Y-138108310D01*
X4302000Y-138065000D01*
X4080000Y-138065000D01*
X3862266Y-138108310D01*
X3657165Y-138193266D01*
X3472579Y-138316602D01*
X3315602Y-138473579D01*
X3192266Y-138658165D01*
X3107310Y-138863266D01*
X3064000Y-139081000D01*
X-11556937Y-139081000D01*
X-11574266Y-139039165D01*
X-11697602Y-138854579D01*
X-11854579Y-138697602D01*
X-12039165Y-138574266D01*
X-12244266Y-138489310D01*
X-12462000Y-138446000D01*
X-12684000Y-138446000D01*
X-12901734Y-138489310D01*
X-13106835Y-138574266D01*
X-13291421Y-138697602D01*
X-13448398Y-138854579D01*
X-13571734Y-139039165D01*
X-13656690Y-139244266D01*
X-13700000Y-139462000D01*
X-13986000Y-139462000D01*
X-14029310Y-139244266D01*
X-14114266Y-139039165D01*
X-14237602Y-138854579D01*
X-14394579Y-138697602D01*
X-14579165Y-138574266D01*
X-14784266Y-138489310D01*
X-15002000Y-138446000D01*
X-15224000Y-138446000D01*
X-15441734Y-138489310D01*
X-15646835Y-138574266D01*
X-15831421Y-138697602D01*
X-15988398Y-138854579D01*
X-16111734Y-139039165D01*
X-16196690Y-139244266D01*
X-16240000Y-139462000D01*
X-16526000Y-139462000D01*
X-16569310Y-139244266D01*
X-16654266Y-139039165D01*
X-16777602Y-138854579D01*
X-16934579Y-138697602D01*
X-17119165Y-138574266D01*
X-17324266Y-138489310D01*
X-17542000Y-138446000D01*
X-17764000Y-138446000D01*
X-17981734Y-138489310D01*
X-18186835Y-138574266D01*
X-18371421Y-138697602D01*
X-18528398Y-138854579D01*
X-18651734Y-139039165D01*
X-18736690Y-139244266D01*
X-18780000Y-139462000D01*
X-19066000Y-139462000D01*
X-19109310Y-139244266D01*
X-19194266Y-139039165D01*
X-19317602Y-138854579D01*
X-19474579Y-138697602D01*
X-19659165Y-138574266D01*
X-19864266Y-138489310D01*
X-20082000Y-138446000D01*
X-20304000Y-138446000D01*
X-20521734Y-138489310D01*
X-20726835Y-138574266D01*
X-20911421Y-138697602D01*
X-21068398Y-138854579D01*
X-21191734Y-139039165D01*
X-21276690Y-139244266D01*
X-21320000Y-139462000D01*
X-47508000Y-139462000D01*
X-47508000Y-136922000D01*
X-21320000Y-136922000D01*
X-21320000Y-137144000D01*
X-21276690Y-137361734D01*
X-21191734Y-137566835D01*
X-21068398Y-137751421D01*
X-20911421Y-137908398D01*
X-20726835Y-138031734D01*
X-20521734Y-138116690D01*
X-20304000Y-138160000D01*
X-20082000Y-138160000D01*
X-19864266Y-138116690D01*
X-19659165Y-138031734D01*
X-19474579Y-137908398D01*
X-19317602Y-137751421D01*
X-19194266Y-137566835D01*
X-19109310Y-137361734D01*
X-19066000Y-137144000D01*
X-19066000Y-136922000D01*
X-18780000Y-136922000D01*
X-18780000Y-137144000D01*
X-18736690Y-137361734D01*
X-18651734Y-137566835D01*
X-18528398Y-137751421D01*
X-18371421Y-137908398D01*
X-18186835Y-138031734D01*
X-17981734Y-138116690D01*
X-17764000Y-138160000D01*
X-17542000Y-138160000D01*
X-17324266Y-138116690D01*
X-17119165Y-138031734D01*
X-16934579Y-137908398D01*
X-16777602Y-137751421D01*
X-16654266Y-137566835D01*
X-16569310Y-137361734D01*
X-16526000Y-137144000D01*
X-16526000Y-136922000D01*
X-16240000Y-136922000D01*
X-16240000Y-137144000D01*
X-16196690Y-137361734D01*
X-16111734Y-137566835D01*
X-15988398Y-137751421D01*
X-15831421Y-137908398D01*
X-15646835Y-138031734D01*
X-15441734Y-138116690D01*
X-15224000Y-138160000D01*
X-15002000Y-138160000D01*
X-14784266Y-138116690D01*
X-14579165Y-138031734D01*
X-14394579Y-137908398D01*
X-14237602Y-137751421D01*
X-14114266Y-137566835D01*
X-14029310Y-137361734D01*
X-13986000Y-137144000D01*
X-13986000Y-136922000D01*
X-13700000Y-136922000D01*
X-13700000Y-137144000D01*
X-13656690Y-137361734D01*
X-13571734Y-137566835D01*
X-13448398Y-137751421D01*
X-13291421Y-137908398D01*
X-13106835Y-138031734D01*
X-12901734Y-138116690D01*
X-12684000Y-138160000D01*
X-12462000Y-138160000D01*
X-12244266Y-138116690D01*
X-12039165Y-138031734D01*
X-11854579Y-137908398D01*
X-11697602Y-137751421D01*
X-11574266Y-137566835D01*
X-11489310Y-137361734D01*
X-11446000Y-137144000D01*
X-11446000Y-136922000D01*
X-11489310Y-136704266D01*
X-11574266Y-136499165D01*
X-11631171Y-136414000D01*
X3699000Y-136414000D01*
X3699000Y-136636000D01*
X3742310Y-136853734D01*
X3827266Y-137058835D01*
X3950602Y-137243421D01*
X4107579Y-137400398D01*
X4292165Y-137523734D01*
X4497266Y-137608690D01*
X4715000Y-137652000D01*
X4937000Y-137652000D01*
X5135480Y-137612520D01*
X5096000Y-137811000D01*
X5096000Y-138033000D01*
X5139310Y-138250734D01*
X5224266Y-138455835D01*
X5347602Y-138640421D01*
X5504579Y-138797398D01*
X5689165Y-138920734D01*
X5894266Y-139005690D01*
X6112000Y-139049000D01*
X6334000Y-139049000D01*
X6551734Y-139005690D01*
X6756835Y-138920734D01*
X6941421Y-138797398D01*
X7098398Y-138640421D01*
X7221734Y-138455835D01*
X7306690Y-138250734D01*
X7349204Y-138037000D01*
X30017977Y-138037000D01*
X30200165Y-138158734D01*
X30405266Y-138243690D01*
X30623000Y-138287000D01*
X30845000Y-138287000D01*
X31062734Y-138243690D01*
X31267835Y-138158734D01*
X31452421Y-138035398D01*
X31609398Y-137878421D01*
X31732734Y-137693835D01*
X31817690Y-137488734D01*
X31861000Y-137271000D01*
X31861000Y-137049000D01*
X31817690Y-136831266D01*
X31732734Y-136626165D01*
X31609398Y-136441579D01*
X31452421Y-136284602D01*
X31267835Y-136161266D01*
X31062734Y-136076310D01*
X30845000Y-136033000D01*
X30623000Y-136033000D01*
X30405266Y-136076310D01*
X30200165Y-136161266D01*
X30017977Y-136283000D01*
X11672467Y-136283000D01*
X11751692Y-136091736D01*
X11795002Y-135874002D01*
X11795002Y-135652002D01*
X11751692Y-135434268D01*
X11666736Y-135229167D01*
X11543400Y-135044581D01*
X11386423Y-134887604D01*
X11201837Y-134764268D01*
X10996736Y-134679312D01*
X10779002Y-134636002D01*
X10557002Y-134636002D01*
X10339268Y-134679312D01*
X10134167Y-134764268D01*
X9951979Y-134886002D01*
X6393077Y-134886002D01*
X6349998Y-134881759D01*
X6178075Y-134898692D01*
X6012761Y-134948840D01*
X5860406Y-135030275D01*
X5726865Y-135139869D01*
X5699406Y-135173329D01*
X5350383Y-135522351D01*
X5154734Y-135441310D01*
X4937000Y-135398000D01*
X4715000Y-135398000D01*
X4497266Y-135441310D01*
X4292165Y-135526266D01*
X4107579Y-135649602D01*
X3950602Y-135806579D01*
X3827266Y-135991165D01*
X3742310Y-136196266D01*
X3699000Y-136414000D01*
X-11631171Y-136414000D01*
X-11697602Y-136314579D01*
X-11854579Y-136157602D01*
X-12039165Y-136034266D01*
X-12244266Y-135949310D01*
X-12462000Y-135906000D01*
X-12684000Y-135906000D01*
X-12901734Y-135949310D01*
X-13106835Y-136034266D01*
X-13291421Y-136157602D01*
X-13448398Y-136314579D01*
X-13571734Y-136499165D01*
X-13656690Y-136704266D01*
X-13700000Y-136922000D01*
X-13986000Y-136922000D01*
X-14029310Y-136704266D01*
X-14114266Y-136499165D01*
X-14237602Y-136314579D01*
X-14394579Y-136157602D01*
X-14579165Y-136034266D01*
X-14784266Y-135949310D01*
X-15002000Y-135906000D01*
X-15224000Y-135906000D01*
X-15441734Y-135949310D01*
X-15646835Y-136034266D01*
X-15831421Y-136157602D01*
X-15988398Y-136314579D01*
X-16111734Y-136499165D01*
X-16196690Y-136704266D01*
X-16240000Y-136922000D01*
X-16526000Y-136922000D01*
X-16569310Y-136704266D01*
X-16654266Y-136499165D01*
X-16777602Y-136314579D01*
X-16934579Y-136157602D01*
X-17119165Y-136034266D01*
X-17324266Y-135949310D01*
X-17542000Y-135906000D01*
X-17764000Y-135906000D01*
X-17981734Y-135949310D01*
X-18186835Y-136034266D01*
X-18371421Y-136157602D01*
X-18528398Y-136314579D01*
X-18651734Y-136499165D01*
X-18736690Y-136704266D01*
X-18780000Y-136922000D01*
X-19066000Y-136922000D01*
X-19109310Y-136704266D01*
X-19194266Y-136499165D01*
X-19317602Y-136314579D01*
X-19474579Y-136157602D01*
X-19659165Y-136034266D01*
X-19864266Y-135949310D01*
X-20082000Y-135906000D01*
X-20304000Y-135906000D01*
X-20521734Y-135949310D01*
X-20726835Y-136034266D01*
X-20911421Y-136157602D01*
X-21068398Y-136314579D01*
X-21191734Y-136499165D01*
X-21276690Y-136704266D01*
X-21320000Y-136922000D01*
X-47508000Y-136922000D01*
X-47508000Y-131715004D01*
X-44688000Y-131715004D01*
X-44688000Y-131937004D01*
X-44644690Y-132154738D01*
X-44559734Y-132359839D01*
X-44436398Y-132544425D01*
X-44279421Y-132701402D01*
X-44094835Y-132824738D01*
X-43889734Y-132909694D01*
X-43672000Y-132953004D01*
X-43450000Y-132953004D01*
X-43232266Y-132909694D01*
X-43027165Y-132824738D01*
X-42844971Y-132703000D01*
X-34625023Y-132703000D01*
X-34442835Y-132824734D01*
X-34237734Y-132909690D01*
X-34020000Y-132953000D01*
X-33798000Y-132953000D01*
X-33580266Y-132909690D01*
X-33375165Y-132824734D01*
X-33190579Y-132701398D01*
X-33033602Y-132544421D01*
X-32910266Y-132359835D01*
X-32825310Y-132154734D01*
X-32782000Y-131937000D01*
X-32782000Y-131715000D01*
X-32825310Y-131497266D01*
X-32910266Y-131292165D01*
X-33033602Y-131107579D01*
X-33190579Y-130950602D01*
X-33375165Y-130827266D01*
X-33580266Y-130742310D01*
X-33798000Y-130699000D01*
X-34020000Y-130699000D01*
X-34237734Y-130742310D01*
X-34442835Y-130827266D01*
X-34625023Y-130949000D01*
X-37349524Y-130949000D01*
X-37270302Y-130757742D01*
X-37226992Y-130540008D01*
X-37226992Y-130318008D01*
X-37270302Y-130100274D01*
X-37355258Y-129895173D01*
X-37478594Y-129710587D01*
X-37635571Y-129553610D01*
X-37820157Y-129430274D01*
X-38025258Y-129345318D01*
X-38242992Y-129302008D01*
X-38464992Y-129302008D01*
X-38682726Y-129345318D01*
X-38887827Y-129430274D01*
X-39070003Y-129552000D01*
X-41828977Y-129552000D01*
X-42011165Y-129430266D01*
X-42216266Y-129345310D01*
X-42434000Y-129302000D01*
X-42656000Y-129302000D01*
X-42873734Y-129345310D01*
X-43078835Y-129430266D01*
X-43263421Y-129553602D01*
X-43420398Y-129710579D01*
X-43543734Y-129895165D01*
X-43628690Y-130100266D01*
X-43672000Y-130318000D01*
X-43672000Y-130540000D01*
X-43640372Y-130699004D01*
X-43672000Y-130699004D01*
X-43889734Y-130742314D01*
X-44094835Y-130827270D01*
X-44279421Y-130950606D01*
X-44436398Y-131107583D01*
X-44559734Y-131292169D01*
X-44644690Y-131497270D01*
X-44688000Y-131715004D01*
X-47508000Y-131715004D01*
X-47508000Y-128794000D01*
X-12176000Y-128794000D01*
X-12176000Y-129016000D01*
X-12132690Y-129233734D01*
X-12047734Y-129438835D01*
X-11924398Y-129623421D01*
X-11767421Y-129780398D01*
X-11582835Y-129903734D01*
X-11377734Y-129988690D01*
X-11160000Y-130032000D01*
X-10938000Y-130032000D01*
X-10720266Y-129988690D01*
X-10515165Y-129903734D01*
X-10374883Y-129810000D01*
X13859000Y-129810000D01*
X13859000Y-130032000D01*
X13902310Y-130249734D01*
X13987266Y-130454835D01*
X14110602Y-130639421D01*
X14267579Y-130796398D01*
X14452165Y-130919734D01*
X14657266Y-131004690D01*
X14875000Y-131048000D01*
X15097000Y-131048000D01*
X15314734Y-131004690D01*
X15519835Y-130919734D01*
X15704421Y-130796398D01*
X15861398Y-130639421D01*
X15984734Y-130454835D01*
X16000406Y-130417000D01*
X29928921Y-130417000D01*
X29972000Y-130421243D01*
X30015079Y-130417000D01*
X30055692Y-130413000D01*
X30095359Y-130409093D01*
X30115000Y-130413000D01*
X30337000Y-130413000D01*
X30554734Y-130369690D01*
X30759835Y-130284734D01*
X30944421Y-130161398D01*
X31101398Y-130004421D01*
X31224734Y-129819835D01*
X31309690Y-129614734D01*
X31353000Y-129397000D01*
X31353000Y-129175000D01*
X31309690Y-128957266D01*
X31224734Y-128752165D01*
X31101398Y-128567579D01*
X30944421Y-128410602D01*
X30759835Y-128287266D01*
X30554734Y-128202310D01*
X30337000Y-128159000D01*
X30115000Y-128159000D01*
X29897266Y-128202310D01*
X29692165Y-128287266D01*
X29507579Y-128410602D01*
X29350602Y-128567579D01*
X29286844Y-128663000D01*
X15578719Y-128663000D01*
X15557921Y-128656691D01*
X15385999Y-128639758D01*
X15385998Y-128639758D01*
X15214076Y-128656691D01*
X15048762Y-128706839D01*
X14896407Y-128788275D01*
X14889431Y-128794000D01*
X14875000Y-128794000D01*
X14657266Y-128837310D01*
X14452165Y-128922266D01*
X14267579Y-129045602D01*
X14110602Y-129202579D01*
X13987266Y-129387165D01*
X13902310Y-129592266D01*
X13859000Y-129810000D01*
X-10374883Y-129810000D01*
X-10332977Y-129782000D01*
X4401921Y-129782000D01*
X4445000Y-129786243D01*
X4488079Y-129782000D01*
X4504345Y-129780398D01*
X4616922Y-129769310D01*
X4782237Y-129719162D01*
X4909760Y-129651000D01*
X4937000Y-129651000D01*
X5154734Y-129607690D01*
X5359835Y-129522734D01*
X5544421Y-129399398D01*
X5701398Y-129242421D01*
X5824734Y-129057835D01*
X5909690Y-128852734D01*
X5953000Y-128635000D01*
X5953000Y-128413000D01*
X5909690Y-128195266D01*
X5824734Y-127990165D01*
X5701398Y-127805579D01*
X5544421Y-127648602D01*
X5359835Y-127525266D01*
X5154734Y-127440310D01*
X4937000Y-127397000D01*
X4715000Y-127397000D01*
X4497266Y-127440310D01*
X4292165Y-127525266D01*
X4107579Y-127648602D01*
X3950602Y-127805579D01*
X3827266Y-127990165D01*
X3811594Y-128028000D01*
X-10332977Y-128028000D01*
X-10515165Y-127906266D01*
X-10720266Y-127821310D01*
X-10938000Y-127778000D01*
X-11160000Y-127778000D01*
X-11377734Y-127821310D01*
X-11582835Y-127906266D01*
X-11767421Y-128029602D01*
X-11924398Y-128186579D01*
X-12047734Y-128371165D01*
X-12132690Y-128576266D01*
X-12176000Y-128794000D01*
X-47508000Y-128794000D01*
X-47508000Y-118888000D01*
X-44561000Y-118888000D01*
X-44561000Y-119110000D01*
X-44517690Y-119327734D01*
X-44432734Y-119532835D01*
X-44309398Y-119717421D01*
X-44152421Y-119874398D01*
X-43967835Y-119997734D01*
X-43762734Y-120082690D01*
X-43545000Y-120126000D01*
X-43323000Y-120126000D01*
X-43303359Y-120122093D01*
X-43223079Y-120130000D01*
X-43223070Y-120130000D01*
X-43180001Y-120134242D01*
X-43136931Y-120130000D01*
X-38943023Y-120130000D01*
X-38760835Y-120251734D01*
X-38555734Y-120336690D01*
X-38338000Y-120380000D01*
X-38116000Y-120380000D01*
X-37898266Y-120336690D01*
X-37693165Y-120251734D01*
X-37508579Y-120128398D01*
X-37351602Y-119971421D01*
X-37228266Y-119786835D01*
X-37143310Y-119581734D01*
X-37100000Y-119364000D01*
X-37100000Y-119142000D01*
X-37143310Y-118924266D01*
X-37228266Y-118719165D01*
X-37351602Y-118534579D01*
X-37508579Y-118377602D01*
X-37693165Y-118254266D01*
X-37898266Y-118169310D01*
X-38116000Y-118126000D01*
X-38338000Y-118126000D01*
X-38555734Y-118169310D01*
X-38760835Y-118254266D01*
X-38943023Y-118376000D01*
X-42494844Y-118376000D01*
X-42558602Y-118280579D01*
X-42715579Y-118123602D01*
X-42900165Y-118000266D01*
X-43105266Y-117915310D01*
X-43323000Y-117872000D01*
X-43545000Y-117872000D01*
X-43762734Y-117915310D01*
X-43967835Y-118000266D01*
X-44152421Y-118123602D01*
X-44309398Y-118280579D01*
X-44432734Y-118465165D01*
X-44517690Y-118670266D01*
X-44561000Y-118888000D01*
X-47508000Y-118888000D01*
X-47508000Y-115967000D01*
X-45450000Y-115967000D01*
X-45450000Y-116189000D01*
X-45406690Y-116406734D01*
X-45321734Y-116611835D01*
X-45198398Y-116796421D01*
X-45041421Y-116953398D01*
X-44856835Y-117076734D01*
X-44651734Y-117161690D01*
X-44434000Y-117205000D01*
X-44212000Y-117205000D01*
X-43994266Y-117161690D01*
X-43789165Y-117076734D01*
X-43604579Y-116953398D01*
X-43479181Y-116828000D01*
X-35641023Y-116828000D01*
X-35458835Y-116949734D01*
X-35253734Y-117034690D01*
X-35036000Y-117078000D01*
X-34814000Y-117078000D01*
X-34596266Y-117034690D01*
X-34391165Y-116949734D01*
X-34206579Y-116826398D01*
X-34049602Y-116669421D01*
X-33926266Y-116484835D01*
X-33841310Y-116279734D01*
X-33798000Y-116062000D01*
X-33798000Y-115840000D01*
X-33841310Y-115622266D01*
X-33926266Y-115417165D01*
X-34049602Y-115232579D01*
X-34206579Y-115075602D01*
X-34391165Y-114952266D01*
X-34596266Y-114867310D01*
X-34814000Y-114824000D01*
X-35036000Y-114824000D01*
X-35253734Y-114867310D01*
X-35458835Y-114952266D01*
X-35641023Y-115074000D01*
X-43801878Y-115074000D01*
X-43994266Y-114994310D01*
X-44212000Y-114951000D01*
X-44434000Y-114951000D01*
X-44651734Y-114994310D01*
X-44856835Y-115079266D01*
X-45041421Y-115202602D01*
X-45198398Y-115359579D01*
X-45321734Y-115544165D01*
X-45406690Y-115749266D01*
X-45450000Y-115967000D01*
X-47508000Y-115967000D01*
X-47508000Y-112522000D01*
X-1994936Y-112522000D01*
X-1971245Y-112762534D01*
X-1901084Y-112993824D01*
X-1787149Y-113206983D01*
X-1633817Y-113393817D01*
X-1446983Y-113547149D01*
X-1233824Y-113661084D01*
X-1002534Y-113731245D01*
X-822268Y-113749000D01*
X4886268Y-113749000D01*
X5066534Y-113731245D01*
X5297824Y-113661084D01*
X5510983Y-113547149D01*
X5697817Y-113393817D01*
X5851149Y-113206983D01*
X5965084Y-112993824D01*
X6035245Y-112762534D01*
X6041398Y-112700068D01*
X6080000Y-112506000D01*
X6080000Y-112284000D01*
X6036690Y-112066266D01*
X5951734Y-111861165D01*
X5828398Y-111676579D01*
X5671421Y-111519602D01*
X5486835Y-111396266D01*
X5281734Y-111311310D01*
X5064000Y-111268000D01*
X4842000Y-111268000D01*
X4706262Y-111295000D01*
X-822268Y-111295000D01*
X-1002534Y-111312755D01*
X-1233824Y-111382916D01*
X-1446983Y-111496851D01*
X-1633817Y-111650183D01*
X-1787149Y-111837017D01*
X-1901084Y-112050176D01*
X-1971245Y-112281466D01*
X-1994936Y-112522000D01*
X-47508000Y-112522000D01*
X-47508000Y-106807000D01*
X-5547057Y-106807000D01*
X-5522884Y-107052435D01*
X-5451293Y-107288438D01*
X-5369212Y-107442000D01*
X-5451293Y-107595562D01*
X-5522884Y-107831565D01*
X-5547057Y-108077000D01*
X-5522884Y-108322435D01*
X-5451293Y-108558438D01*
X-5335036Y-108775939D01*
X-5178581Y-108966581D01*
X-4987939Y-109123036D01*
X-4770438Y-109239293D01*
X-4534435Y-109310884D01*
X-4350498Y-109329000D01*
X-3777502Y-109329000D01*
X-3593565Y-109310884D01*
X-3357562Y-109239293D01*
X-3140061Y-109123036D01*
X-2949419Y-108966581D01*
X-2792964Y-108775939D01*
X-2676707Y-108558438D01*
X-2605116Y-108322435D01*
X-2580943Y-108077000D01*
X-2605116Y-107831565D01*
X-2676707Y-107595562D01*
X-2758788Y-107442000D01*
X-2676707Y-107288438D01*
X-2605116Y-107052435D01*
X-2580943Y-106807000D01*
X-2605116Y-106561565D01*
X-2676707Y-106325562D01*
X-2710946Y-106261505D01*
X-2688188Y-106186482D01*
X-2675928Y-106062000D01*
X-2679000Y-105822750D01*
X-2837750Y-105664000D01*
X-3321467Y-105664000D01*
X-3357562Y-105644707D01*
X-3593565Y-105573116D01*
X-3777502Y-105555000D01*
X-4350498Y-105555000D01*
X-4534435Y-105573116D01*
X-4770438Y-105644707D01*
X-4806533Y-105664000D01*
X-5290250Y-105664000D01*
X-5449000Y-105822750D01*
X-5452072Y-106062000D01*
X-5439812Y-106186482D01*
X-5417054Y-106261505D01*
X-5451293Y-106325562D01*
X-5522884Y-106561565D01*
X-5547057Y-106807000D01*
X-47508000Y-106807000D01*
X-47508000Y-105012000D01*
X-5452072Y-105012000D01*
X-5449000Y-105251250D01*
X-5290250Y-105410000D01*
X-4191000Y-105410000D01*
X-4191000Y-104535750D01*
X-3937000Y-104535750D01*
X-3937000Y-105410000D01*
X-2837750Y-105410000D01*
X-2679000Y-105251250D01*
X-2675928Y-105012000D01*
X-2688188Y-104887518D01*
X-2724498Y-104767820D01*
X-2783463Y-104657506D01*
X-2862815Y-104560815D01*
X-2959506Y-104481463D01*
X-3069820Y-104422498D01*
X-3189518Y-104386188D01*
X-3314000Y-104373928D01*
X-3778250Y-104377000D01*
X-3937000Y-104535750D01*
X-4191000Y-104535750D01*
X-4349750Y-104377000D01*
X-4814000Y-104373928D01*
X-4938482Y-104386188D01*
X-5058180Y-104422498D01*
X-5168494Y-104481463D01*
X-5265185Y-104560815D01*
X-5344537Y-104657506D01*
X-5403502Y-104767820D01*
X-5439812Y-104887518D01*
X-5452072Y-105012000D01*
X-47508000Y-105012000D01*
X-47508000Y-98806000D01*
X-5547057Y-98806000D01*
X-5522884Y-99051435D01*
X-5451293Y-99287438D01*
X-5369212Y-99441000D01*
X-5451293Y-99594562D01*
X-5522884Y-99830565D01*
X-5547057Y-100076000D01*
X-5522884Y-100321435D01*
X-5451293Y-100557438D01*
X-5335036Y-100774939D01*
X-5178581Y-100965581D01*
X-4987939Y-101122036D01*
X-4770438Y-101238293D01*
X-4534435Y-101309884D01*
X-4350498Y-101328000D01*
X-3777502Y-101328000D01*
X-3593565Y-101309884D01*
X-3357562Y-101238293D01*
X-3140061Y-101122036D01*
X-2949419Y-100965581D01*
X-2792964Y-100774939D01*
X-2676707Y-100557438D01*
X-2605116Y-100321435D01*
X-2580943Y-100076000D01*
X-2605116Y-99830565D01*
X-2676707Y-99594562D01*
X-2758788Y-99441000D01*
X-2676707Y-99287438D01*
X-2605116Y-99051435D01*
X-2580943Y-98806000D01*
X-2605116Y-98560565D01*
X-2676707Y-98324562D01*
X-2710946Y-98260505D01*
X-2688188Y-98185482D01*
X-2675928Y-98061000D01*
X-2679000Y-97821750D01*
X-2837750Y-97663000D01*
X-3321467Y-97663000D01*
X-3357562Y-97643707D01*
X-3593565Y-97572116D01*
X-3777502Y-97554000D01*
X-4350498Y-97554000D01*
X-4534435Y-97572116D01*
X-4770438Y-97643707D01*
X-4806533Y-97663000D01*
X-5290250Y-97663000D01*
X-5449000Y-97821750D01*
X-5452072Y-98061000D01*
X-5439812Y-98185482D01*
X-5417054Y-98260505D01*
X-5451293Y-98324562D01*
X-5522884Y-98560565D01*
X-5547057Y-98806000D01*
X-47508000Y-98806000D01*
X-47508000Y-97011000D01*
X-5452072Y-97011000D01*
X-5449000Y-97250250D01*
X-5290250Y-97409000D01*
X-4191000Y-97409000D01*
X-4191000Y-96534750D01*
X-3937000Y-96534750D01*
X-3937000Y-97409000D01*
X-2837750Y-97409000D01*
X-2679000Y-97250250D01*
X-2675928Y-97011000D01*
X-2688188Y-96886518D01*
X-2724498Y-96766820D01*
X-2779991Y-96663000D01*
X5985000Y-96663000D01*
X5985000Y-96885000D01*
X6028310Y-97102734D01*
X6113266Y-97307835D01*
X6236602Y-97492421D01*
X6393579Y-97649398D01*
X6578165Y-97772734D01*
X6783266Y-97857690D01*
X7001000Y-97901000D01*
X7223000Y-97901000D01*
X7440734Y-97857690D01*
X7645835Y-97772734D01*
X7830421Y-97649398D01*
X7955819Y-97524000D01*
X9721181Y-97524000D01*
X9665602Y-97579579D01*
X9542266Y-97764165D01*
X9457310Y-97969266D01*
X9414000Y-98187000D01*
X9414000Y-98409000D01*
X9457310Y-98626734D01*
X9542266Y-98831835D01*
X9665602Y-99016421D01*
X9822579Y-99173398D01*
X10007165Y-99296734D01*
X10212266Y-99381690D01*
X10430000Y-99425000D01*
X10652000Y-99425000D01*
X10869734Y-99381690D01*
X11074835Y-99296734D01*
X11257023Y-99175000D01*
X17568058Y-99175000D01*
X17585310Y-99261734D01*
X17670266Y-99466835D01*
X17793602Y-99651421D01*
X17950579Y-99808398D01*
X18135165Y-99931734D01*
X18340266Y-100016690D01*
X18558000Y-100060000D01*
X18780000Y-100060000D01*
X18997734Y-100016690D01*
X19202835Y-99931734D01*
X19387421Y-99808398D01*
X19544398Y-99651421D01*
X19667734Y-99466835D01*
X19752690Y-99261734D01*
X19796000Y-99044000D01*
X19796000Y-98822000D01*
X19752690Y-98604266D01*
X19667734Y-98399165D01*
X19544398Y-98214579D01*
X19387421Y-98057602D01*
X19202835Y-97934266D01*
X18997734Y-97849310D01*
X18782827Y-97806562D01*
X18750265Y-97774000D01*
X18780000Y-97774000D01*
X18997734Y-97730690D01*
X19202835Y-97645734D01*
X19387421Y-97522398D01*
X19544398Y-97365421D01*
X19667734Y-97180835D01*
X19752690Y-96975734D01*
X19796000Y-96758000D01*
X19796000Y-96536000D01*
X19752690Y-96318266D01*
X19667734Y-96113165D01*
X19544398Y-95928579D01*
X19387421Y-95771602D01*
X19202835Y-95648266D01*
X18997734Y-95563310D01*
X18780000Y-95520000D01*
X18558000Y-95520000D01*
X18340266Y-95563310D01*
X18135165Y-95648266D01*
X17952977Y-95770000D01*
X7633122Y-95770000D01*
X7440734Y-95690310D01*
X7223000Y-95647000D01*
X7001000Y-95647000D01*
X6783266Y-95690310D01*
X6578165Y-95775266D01*
X6393579Y-95898602D01*
X6236602Y-96055579D01*
X6113266Y-96240165D01*
X6028310Y-96445266D01*
X5985000Y-96663000D01*
X-2779991Y-96663000D01*
X-2783463Y-96656506D01*
X-2862815Y-96559815D01*
X-2959506Y-96480463D01*
X-3069820Y-96421498D01*
X-3189518Y-96385188D01*
X-3314000Y-96372928D01*
X-3778250Y-96376000D01*
X-3937000Y-96534750D01*
X-4191000Y-96534750D01*
X-4349750Y-96376000D01*
X-4814000Y-96372928D01*
X-4938482Y-96385188D01*
X-5058180Y-96421498D01*
X-5168494Y-96480463D01*
X-5265185Y-96559815D01*
X-5344537Y-96656506D01*
X-5403502Y-96766820D01*
X-5439812Y-96886518D01*
X-5452072Y-97011000D01*
X-47508000Y-97011000D01*
X-47508000Y-93869000D01*
X-746000Y-93869000D01*
X-746000Y-94091000D01*
X-702690Y-94308734D01*
X-617734Y-94513835D01*
X-494398Y-94698421D01*
X-337421Y-94855398D01*
X-152835Y-94978734D01*
X52266Y-95063690D01*
X270000Y-95107000D01*
X492000Y-95107000D01*
X511641Y-95103093D01*
X591921Y-95111000D01*
X591930Y-95111000D01*
X634999Y-95115242D01*
X678069Y-95111000D01*
X25826977Y-95111000D01*
X26009165Y-95232734D01*
X26214266Y-95317690D01*
X26432000Y-95361000D01*
X26654000Y-95361000D01*
X26871734Y-95317690D01*
X27076835Y-95232734D01*
X27261421Y-95109398D01*
X27418398Y-94952421D01*
X27541734Y-94767835D01*
X27626690Y-94562734D01*
X27670000Y-94345000D01*
X27670000Y-94123000D01*
X27626690Y-93905266D01*
X27541734Y-93700165D01*
X27418398Y-93515579D01*
X27261421Y-93358602D01*
X27076835Y-93235266D01*
X26871734Y-93150310D01*
X26654000Y-93107000D01*
X26432000Y-93107000D01*
X26214266Y-93150310D01*
X26009165Y-93235266D01*
X25826977Y-93357000D01*
X1320156Y-93357000D01*
X1256398Y-93261579D01*
X1099421Y-93104602D01*
X914835Y-92981266D01*
X709734Y-92896310D01*
X492000Y-92853000D01*
X270000Y-92853000D01*
X52266Y-92896310D01*
X-152835Y-92981266D01*
X-337421Y-93104602D01*
X-494398Y-93261579D01*
X-617734Y-93446165D01*
X-702690Y-93651266D01*
X-746000Y-93869000D01*
X-47508000Y-93869000D01*
X-47508000Y-90170000D01*
X-5420057Y-90170000D01*
X-5395884Y-90415435D01*
X-5324293Y-90651438D01*
X-5242212Y-90805000D01*
X-5324293Y-90958562D01*
X-5395884Y-91194565D01*
X-5420057Y-91440000D01*
X-5395884Y-91685435D01*
X-5324293Y-91921438D01*
X-5208036Y-92138939D01*
X-5051581Y-92329581D01*
X-4860939Y-92486036D01*
X-4643438Y-92602293D01*
X-4407435Y-92673884D01*
X-4223498Y-92692000D01*
X-3650502Y-92692000D01*
X-3466565Y-92673884D01*
X-3230562Y-92602293D01*
X-3013061Y-92486036D01*
X-2822419Y-92329581D01*
X-2665964Y-92138939D01*
X-2549707Y-91921438D01*
X-2478116Y-91685435D01*
X-2453943Y-91440000D01*
X-2478116Y-91194565D01*
X-2549707Y-90958562D01*
X-2631788Y-90805000D01*
X-2549707Y-90651438D01*
X-2478116Y-90415435D01*
X-2453943Y-90170000D01*
X-2478116Y-89924565D01*
X-2549707Y-89688562D01*
X-2583946Y-89624505D01*
X-2561188Y-89549482D01*
X-2548928Y-89425000D01*
X-2552000Y-89185750D01*
X-2710750Y-89027000D01*
X-3194467Y-89027000D01*
X-3230562Y-89007707D01*
X-3466565Y-88936116D01*
X-3650502Y-88918000D01*
X-4223498Y-88918000D01*
X-4407435Y-88936116D01*
X-4643438Y-89007707D01*
X-4679533Y-89027000D01*
X-5163250Y-89027000D01*
X-5322000Y-89185750D01*
X-5325072Y-89425000D01*
X-5312812Y-89549482D01*
X-5290054Y-89624505D01*
X-5324293Y-89688562D01*
X-5395884Y-89924565D01*
X-5420057Y-90170000D01*
X-47508000Y-90170000D01*
X-47508000Y-88375000D01*
X-5325072Y-88375000D01*
X-5322000Y-88614250D01*
X-5163250Y-88773000D01*
X-4064000Y-88773000D01*
X-4064000Y-87898750D01*
X-3810000Y-87898750D01*
X-3810000Y-88773000D01*
X-2710750Y-88773000D01*
X-2552000Y-88614250D01*
X-2548928Y-88375000D01*
X-2561188Y-88250518D01*
X-2597498Y-88130820D01*
X-2656463Y-88020506D01*
X-2735815Y-87923815D01*
X-2832506Y-87844463D01*
X-2942820Y-87785498D01*
X-3062518Y-87749188D01*
X-3187000Y-87736928D01*
X-3651250Y-87740000D01*
X-3810000Y-87898750D01*
X-4064000Y-87898750D01*
X-4222750Y-87740000D01*
X-4687000Y-87736928D01*
X-4811482Y-87749188D01*
X-4931180Y-87785498D01*
X-5041494Y-87844463D01*
X-5138185Y-87923815D01*
X-5217537Y-88020506D01*
X-5276502Y-88130820D01*
X-5312812Y-88250518D01*
X-5325072Y-88375000D01*
X-47508000Y-88375000D01*
X-47508000Y-82550000D01*
X-5293057Y-82550000D01*
X-5268884Y-82795435D01*
X-5197293Y-83031438D01*
X-5115212Y-83185000D01*
X-5197293Y-83338562D01*
X-5268884Y-83574565D01*
X-5293057Y-83820000D01*
X-5268884Y-84065435D01*
X-5197293Y-84301438D01*
X-5081036Y-84518939D01*
X-4924581Y-84709581D01*
X-4733939Y-84866036D01*
X-4516438Y-84982293D01*
X-4280435Y-85053884D01*
X-4096498Y-85072000D01*
X-3523502Y-85072000D01*
X-3339565Y-85053884D01*
X-3103562Y-84982293D01*
X-2886061Y-84866036D01*
X-2695419Y-84709581D01*
X-2538964Y-84518939D01*
X-2422707Y-84301438D01*
X-2351116Y-84065435D01*
X-2326943Y-83820000D01*
X-2351116Y-83574565D01*
X-2422707Y-83338562D01*
X-2504788Y-83185000D01*
X-2422707Y-83031438D01*
X-2351116Y-82795435D01*
X-2326943Y-82550000D01*
X-2351116Y-82304565D01*
X-2422707Y-82068562D01*
X-2456946Y-82004505D01*
X-2434188Y-81929482D01*
X-2421928Y-81805000D01*
X-2425000Y-81565750D01*
X-2583750Y-81407000D01*
X-3067467Y-81407000D01*
X-3103562Y-81387707D01*
X-3339565Y-81316116D01*
X-3523502Y-81298000D01*
X-4096498Y-81298000D01*
X-4280435Y-81316116D01*
X-4516438Y-81387707D01*
X-4552533Y-81407000D01*
X-5036250Y-81407000D01*
X-5195000Y-81565750D01*
X-5198072Y-81805000D01*
X-5185812Y-81929482D01*
X-5163054Y-82004505D01*
X-5197293Y-82068562D01*
X-5268884Y-82304565D01*
X-5293057Y-82550000D01*
X-47508000Y-82550000D01*
X-47508000Y-80755000D01*
X-5198072Y-80755000D01*
X-5195000Y-80994250D01*
X-5036250Y-81153000D01*
X-3937000Y-81153000D01*
X-3937000Y-80278750D01*
X-3683000Y-80278750D01*
X-3683000Y-81153000D01*
X-2583750Y-81153000D01*
X-2425000Y-80994250D01*
X-2421928Y-80755000D01*
X-2434188Y-80630518D01*
X-2470498Y-80510820D01*
X-2529463Y-80400506D01*
X-2608815Y-80303815D01*
X-2705506Y-80224463D01*
X-2815820Y-80165498D01*
X-2935518Y-80129188D01*
X-3060000Y-80116928D01*
X-3524250Y-80120000D01*
X-3683000Y-80278750D01*
X-3937000Y-80278750D01*
X-4095750Y-80120000D01*
X-4560000Y-80116928D01*
X-4684482Y-80129188D01*
X-4804180Y-80165498D01*
X-4914494Y-80224463D01*
X-5011185Y-80303815D01*
X-5090537Y-80400506D01*
X-5149502Y-80510820D01*
X-5185812Y-80630518D01*
X-5198072Y-80755000D01*
X-47508000Y-80755000D01*
X-47508000Y-69358000D01*
X-39608000Y-69358000D01*
X-39608000Y-69580000D01*
X-39564690Y-69797734D01*
X-39479734Y-70002835D01*
X-39356398Y-70187421D01*
X-39199421Y-70344398D01*
X-39014835Y-70467734D01*
X-38809734Y-70552690D01*
X-38592000Y-70596000D01*
X-38370000Y-70596000D01*
X-38152266Y-70552690D01*
X-37947165Y-70467734D01*
X-37762579Y-70344398D01*
X-37605602Y-70187421D01*
X-37482266Y-70002835D01*
X-37397310Y-69797734D01*
X-37354000Y-69580000D01*
X-37354000Y-69358000D01*
X-37068000Y-69358000D01*
X-37068000Y-69580000D01*
X-37024690Y-69797734D01*
X-36939734Y-70002835D01*
X-36816398Y-70187421D01*
X-36659421Y-70344398D01*
X-36474835Y-70467734D01*
X-36269734Y-70552690D01*
X-36052000Y-70596000D01*
X-35830000Y-70596000D01*
X-35612266Y-70552690D01*
X-35407165Y-70467734D01*
X-35222579Y-70344398D01*
X-35065602Y-70187421D01*
X-34942266Y-70002835D01*
X-34857310Y-69797734D01*
X-34820366Y-69612000D01*
X-17256000Y-69612000D01*
X-17256000Y-69834000D01*
X-17212690Y-70051734D01*
X-17127734Y-70256835D01*
X-17004398Y-70441421D01*
X-16847421Y-70598398D01*
X-16662835Y-70721734D01*
X-16457734Y-70806690D01*
X-16240000Y-70850000D01*
X-16018000Y-70850000D01*
X-15800266Y-70806690D01*
X-15595165Y-70721734D01*
X-15412977Y-70600000D01*
X-10749023Y-70600000D01*
X-10566835Y-70721734D01*
X-10361734Y-70806690D01*
X-10144000Y-70850000D01*
X-9922000Y-70850000D01*
X-9704266Y-70806690D01*
X-9499165Y-70721734D01*
X-9314579Y-70598398D01*
X-9157602Y-70441421D01*
X-9034266Y-70256835D01*
X-8949310Y-70051734D01*
X-8906000Y-69834000D01*
X-8906000Y-69612000D01*
X-8949310Y-69394266D01*
X-9034266Y-69189165D01*
X-9109880Y-69076000D01*
X-5288825Y-69076000D01*
X-5163421Y-69201404D01*
X-4978835Y-69324740D01*
X-4773734Y-69409696D01*
X-4556000Y-69453006D01*
X-4334000Y-69453006D01*
X-4116266Y-69409696D01*
X-3911165Y-69324740D01*
X-3726579Y-69201404D01*
X-3569602Y-69044427D01*
X-3446266Y-68859841D01*
X-3361310Y-68654740D01*
X-3318000Y-68437006D01*
X-3318000Y-68215006D01*
X-3361310Y-67997272D01*
X-3446266Y-67792171D01*
X-3569602Y-67607585D01*
X-3625187Y-67552000D01*
X426977Y-67552000D01*
X609165Y-67673734D01*
X814266Y-67758690D01*
X1032000Y-67802000D01*
X1254000Y-67802000D01*
X1471734Y-67758690D01*
X1676835Y-67673734D01*
X1861421Y-67550398D01*
X2018398Y-67393421D01*
X2141734Y-67208835D01*
X2226690Y-67003734D01*
X2270000Y-66786000D01*
X2270000Y-66564000D01*
X2226690Y-66346266D01*
X2141734Y-66141165D01*
X2018398Y-65956579D01*
X1861421Y-65799602D01*
X1676835Y-65676266D01*
X1471734Y-65591310D01*
X1254000Y-65548000D01*
X1032000Y-65548000D01*
X814266Y-65591310D01*
X609165Y-65676266D01*
X426977Y-65798000D01*
X-15285977Y-65798000D01*
X-15468165Y-65676266D01*
X-15673266Y-65591310D01*
X-15891000Y-65548000D01*
X-16113000Y-65548000D01*
X-16330734Y-65591310D01*
X-16535835Y-65676266D01*
X-16720421Y-65799602D01*
X-16877398Y-65956579D01*
X-17000734Y-66141165D01*
X-17085690Y-66346266D01*
X-17129000Y-66564000D01*
X-17129000Y-66786000D01*
X-17085690Y-67003734D01*
X-17000734Y-67208835D01*
X-16877398Y-67393421D01*
X-16833819Y-67437000D01*
X-16877398Y-67480579D01*
X-17000734Y-67665165D01*
X-17085690Y-67870266D01*
X-17129000Y-68088000D01*
X-17129000Y-68310000D01*
X-17085690Y-68527734D01*
X-17000734Y-68732835D01*
X-16893356Y-68893537D01*
X-17004398Y-69004579D01*
X-17127734Y-69189165D01*
X-17212690Y-69394266D01*
X-17256000Y-69612000D01*
X-34820366Y-69612000D01*
X-34814000Y-69580000D01*
X-34814000Y-69358000D01*
X-34857310Y-69140266D01*
X-34942266Y-68935165D01*
X-35065602Y-68750579D01*
X-35222579Y-68593602D01*
X-35407165Y-68470266D01*
X-35612266Y-68385310D01*
X-35830000Y-68342000D01*
X-36052000Y-68342000D01*
X-36269734Y-68385310D01*
X-36474835Y-68470266D01*
X-36659421Y-68593602D01*
X-36816398Y-68750579D01*
X-36939734Y-68935165D01*
X-37024690Y-69140266D01*
X-37068000Y-69358000D01*
X-37354000Y-69358000D01*
X-37397310Y-69140266D01*
X-37482266Y-68935165D01*
X-37605602Y-68750579D01*
X-37762579Y-68593602D01*
X-37947165Y-68470266D01*
X-38152266Y-68385310D01*
X-38370000Y-68342000D01*
X-38592000Y-68342000D01*
X-38809734Y-68385310D01*
X-39014835Y-68470266D01*
X-39199421Y-68593602D01*
X-39356398Y-68750579D01*
X-39479734Y-68935165D01*
X-39564690Y-69140266D01*
X-39608000Y-69358000D01*
X-47508000Y-69358000D01*
X-47508000Y-66818000D01*
X-39608000Y-66818000D01*
X-39608000Y-67040000D01*
X-39564690Y-67257734D01*
X-39479734Y-67462835D01*
X-39356398Y-67647421D01*
X-39199421Y-67804398D01*
X-39014835Y-67927734D01*
X-38809734Y-68012690D01*
X-38592000Y-68056000D01*
X-38370000Y-68056000D01*
X-38152266Y-68012690D01*
X-37947165Y-67927734D01*
X-37762579Y-67804398D01*
X-37605602Y-67647421D01*
X-37482266Y-67462835D01*
X-37397310Y-67257734D01*
X-37354000Y-67040000D01*
X-37354000Y-66818000D01*
X-37068000Y-66818000D01*
X-37068000Y-67040000D01*
X-37024690Y-67257734D01*
X-36939734Y-67462835D01*
X-36816398Y-67647421D01*
X-36659421Y-67804398D01*
X-36474835Y-67927734D01*
X-36269734Y-68012690D01*
X-36052000Y-68056000D01*
X-35830000Y-68056000D01*
X-35612266Y-68012690D01*
X-35407165Y-67927734D01*
X-35222579Y-67804398D01*
X-35065602Y-67647421D01*
X-34942266Y-67462835D01*
X-34857310Y-67257734D01*
X-34814000Y-67040000D01*
X-34814000Y-66818000D01*
X-34857310Y-66600266D01*
X-34942266Y-66395165D01*
X-35065602Y-66210579D01*
X-35222579Y-66053602D01*
X-35407165Y-65930266D01*
X-35612266Y-65845310D01*
X-35830000Y-65802000D01*
X-36052000Y-65802000D01*
X-36269734Y-65845310D01*
X-36474835Y-65930266D01*
X-36659421Y-66053602D01*
X-36816398Y-66210579D01*
X-36939734Y-66395165D01*
X-37024690Y-66600266D01*
X-37068000Y-66818000D01*
X-37354000Y-66818000D01*
X-37397310Y-66600266D01*
X-37482266Y-66395165D01*
X-37605602Y-66210579D01*
X-37762579Y-66053602D01*
X-37947165Y-65930266D01*
X-38152266Y-65845310D01*
X-38370000Y-65802000D01*
X-38592000Y-65802000D01*
X-38809734Y-65845310D01*
X-39014835Y-65930266D01*
X-39199421Y-66053602D01*
X-39356398Y-66210579D01*
X-39479734Y-66395165D01*
X-39564690Y-66600266D01*
X-39608000Y-66818000D01*
X-47508000Y-66818000D01*
X-47508000Y-43180000D01*
X-39684630Y-43180000D01*
X-39654182Y-43489146D01*
X-39564007Y-43786412D01*
X-39417572Y-44060373D01*
X-39220503Y-44300503D01*
X-39038340Y-44450000D01*
X-39220503Y-44599497D01*
X-39417572Y-44839627D01*
X-39564007Y-45113588D01*
X-39654182Y-45410854D01*
X-39684630Y-45720000D01*
X-39654182Y-46029146D01*
X-39564007Y-46326412D01*
X-39417572Y-46600373D01*
X-39220503Y-46840503D01*
X-39038340Y-46990000D01*
X-39220503Y-47139497D01*
X-39417572Y-47379627D01*
X-39564007Y-47653588D01*
X-39654182Y-47950854D01*
X-39684630Y-48260000D01*
X-39654182Y-48569146D01*
X-39564007Y-48866412D01*
X-39417572Y-49140373D01*
X-39220503Y-49380503D01*
X-39038340Y-49530000D01*
X-39220503Y-49679497D01*
X-39417572Y-49919627D01*
X-39564007Y-50193588D01*
X-39654182Y-50490854D01*
X-39684630Y-50800000D01*
X-39654182Y-51109146D01*
X-39564007Y-51406412D01*
X-39417572Y-51680373D01*
X-39220503Y-51920503D01*
X-39038340Y-52070000D01*
X-39220503Y-52219497D01*
X-39417572Y-52459627D01*
X-39564007Y-52733588D01*
X-39654182Y-53030854D01*
X-39684630Y-53340000D01*
X-39654182Y-53649146D01*
X-39564007Y-53946412D01*
X-39417572Y-54220373D01*
X-39220503Y-54460503D01*
X-39038340Y-54610000D01*
X-39220503Y-54759497D01*
X-39417572Y-54999627D01*
X-39564007Y-55273588D01*
X-39654182Y-55570854D01*
X-39684630Y-55880000D01*
X-39654182Y-56189146D01*
X-39564007Y-56486412D01*
X-39417572Y-56760373D01*
X-39220503Y-57000503D01*
X-39038340Y-57150000D01*
X-39220503Y-57299497D01*
X-39417572Y-57539627D01*
X-39564007Y-57813588D01*
X-39654182Y-58110854D01*
X-39684630Y-58420000D01*
X-39654182Y-58729146D01*
X-39564007Y-59026412D01*
X-39417572Y-59300373D01*
X-39220503Y-59540503D01*
X-39038340Y-59690000D01*
X-39220503Y-59839497D01*
X-39417572Y-60079627D01*
X-39564007Y-60353588D01*
X-39654182Y-60650854D01*
X-39684630Y-60960000D01*
X-39654182Y-61269146D01*
X-39564007Y-61566412D01*
X-39417572Y-61840373D01*
X-39220503Y-62080503D01*
X-39038340Y-62230000D01*
X-39220503Y-62379497D01*
X-39417572Y-62619627D01*
X-39564007Y-62893588D01*
X-39654182Y-63190854D01*
X-39684630Y-63500000D01*
X-39654182Y-63809146D01*
X-39564007Y-64106412D01*
X-39417572Y-64380373D01*
X-39220503Y-64620503D01*
X-38980373Y-64817572D01*
X-38706412Y-64964007D01*
X-38409146Y-65054182D01*
X-38177469Y-65077000D01*
X-38022531Y-65077000D01*
X-37790854Y-65054182D01*
X-37493588Y-64964007D01*
X-37219627Y-64817572D01*
X-36979497Y-64620503D01*
X-36830000Y-64438340D01*
X-36680503Y-64620503D01*
X-36440373Y-64817572D01*
X-36166412Y-64964007D01*
X-35869146Y-65054182D01*
X-35637469Y-65077000D01*
X-35482531Y-65077000D01*
X-35250854Y-65054182D01*
X-34953588Y-64964007D01*
X-34679627Y-64817572D01*
X-34569264Y-64727000D01*
X568268Y-64727000D01*
X571500Y-64726682D01*
X574732Y-64727000D01*
X4378268Y-64727000D01*
X4558534Y-64709245D01*
X4789824Y-64639084D01*
X5002983Y-64525149D01*
X5189817Y-64371817D01*
X5343149Y-64184983D01*
X5457084Y-63971824D01*
X5527245Y-63740534D01*
X5550936Y-63500000D01*
X5527245Y-63259466D01*
X5457084Y-63028176D01*
X5343149Y-62815017D01*
X5189817Y-62628183D01*
X5062582Y-62523763D01*
X5036421Y-62497602D01*
X5005662Y-62477049D01*
X5002983Y-62474851D01*
X4999927Y-62473217D01*
X4851835Y-62374266D01*
X4646734Y-62289310D01*
X4429000Y-62246000D01*
X4207000Y-62246000D01*
X4071262Y-62273000D01*
X574732Y-62273000D01*
X571500Y-62273318D01*
X568268Y-62273000D01*
X-34569264Y-62273000D01*
X-34679627Y-62182428D01*
X-34703221Y-62169817D01*
X-34678645Y-62155178D01*
X-34462412Y-61960269D01*
X-34288359Y-61726920D01*
X-34163175Y-61464099D01*
X-34118524Y-61316890D01*
X-34239845Y-61087000D01*
X-35433000Y-61087000D01*
X-35433000Y-61107000D01*
X-35687000Y-61107000D01*
X-35687000Y-61087000D01*
X-35707000Y-61087000D01*
X-35707000Y-60833000D01*
X-35687000Y-60833000D01*
X-35687000Y-60813000D01*
X-35433000Y-60813000D01*
X-35433000Y-60833000D01*
X-34239845Y-60833000D01*
X-34118524Y-60603110D01*
X-34163175Y-60455901D01*
X-34288359Y-60193080D01*
X-34462412Y-59959731D01*
X-34678645Y-59764822D01*
X-34703221Y-59750183D01*
X-34679627Y-59737572D01*
X-34439497Y-59540503D01*
X-34242428Y-59300373D01*
X-34095993Y-59026412D01*
X-34005818Y-58729146D01*
X-33975370Y-58420000D01*
X-34005818Y-58110854D01*
X-34095993Y-57813588D01*
X-34242428Y-57539627D01*
X-34439497Y-57299497D01*
X-34621660Y-57150000D01*
X-34439497Y-57000503D01*
X-34242428Y-56760373D01*
X-34095993Y-56486412D01*
X-34005818Y-56189146D01*
X-33975370Y-55880000D01*
X-34005818Y-55570854D01*
X-34095993Y-55273588D01*
X-34242428Y-54999627D01*
X-34439497Y-54759497D01*
X-34621660Y-54610000D01*
X-34439497Y-54460503D01*
X-34242428Y-54220373D01*
X-34095993Y-53946412D01*
X-34005818Y-53649146D01*
X-33975370Y-53340000D01*
X-34005818Y-53030854D01*
X-34095993Y-52733588D01*
X-34242428Y-52459627D01*
X-34439497Y-52219497D01*
X-34621660Y-52070000D01*
X-34439497Y-51920503D01*
X-34242428Y-51680373D01*
X-34095993Y-51406412D01*
X-34005818Y-51109146D01*
X-33975370Y-50800000D01*
X-34005818Y-50490854D01*
X-34095993Y-50193588D01*
X-34242428Y-49919627D01*
X-34439497Y-49679497D01*
X-34621660Y-49530000D01*
X-34439497Y-49380503D01*
X-34242428Y-49140373D01*
X-34095993Y-48866412D01*
X-34005818Y-48569146D01*
X-33975370Y-48260000D01*
X-34005818Y-47950854D01*
X-34095993Y-47653588D01*
X-34242428Y-47379627D01*
X-34439497Y-47139497D01*
X-34679627Y-46942428D01*
X-34703221Y-46929817D01*
X-34678645Y-46915178D01*
X-34462412Y-46720269D01*
X-34288359Y-46486920D01*
X-34163175Y-46224099D01*
X-34118524Y-46076890D01*
X-34239845Y-45847000D01*
X-35433000Y-45847000D01*
X-35433000Y-45867000D01*
X-35687000Y-45867000D01*
X-35687000Y-45847000D01*
X-35707000Y-45847000D01*
X-35707000Y-45593000D01*
X-35687000Y-45593000D01*
X-35687000Y-45573000D01*
X-35433000Y-45573000D01*
X-35433000Y-45593000D01*
X-34239845Y-45593000D01*
X-34118524Y-45363110D01*
X-34163175Y-45215901D01*
X-34288359Y-44953080D01*
X-34462412Y-44719731D01*
X-34678645Y-44524822D01*
X-34703221Y-44510183D01*
X-34679627Y-44497572D01*
X-34439497Y-44300503D01*
X-34242428Y-44060373D01*
X-34095993Y-43786412D01*
X-34005818Y-43489146D01*
X-33975370Y-43180000D01*
X-34005818Y-42870854D01*
X-34095993Y-42573588D01*
X-34242428Y-42299627D01*
X-34439497Y-42059497D01*
X-34621660Y-41910000D01*
X-34439497Y-41760503D01*
X-34242428Y-41520373D01*
X-34095993Y-41246412D01*
X-34005818Y-40949146D01*
X-33975370Y-40640000D01*
X-34005818Y-40330854D01*
X-34095993Y-40033588D01*
X-34242428Y-39759627D01*
X-34439497Y-39519497D01*
X-34679627Y-39322428D01*
X-34953588Y-39175993D01*
X-35098612Y-39132000D01*
X-20939000Y-39132000D01*
X-20939000Y-39354000D01*
X-20895690Y-39571734D01*
X-20810734Y-39776835D01*
X-20687398Y-39961421D01*
X-20530421Y-40118398D01*
X-20345835Y-40241734D01*
X-20140734Y-40326690D01*
X-19923000Y-40370000D01*
X-19701000Y-40370000D01*
X-19483266Y-40326690D01*
X-19278165Y-40241734D01*
X-19093579Y-40118398D01*
X-18936602Y-39961421D01*
X-18813266Y-39776835D01*
X-18728310Y-39571734D01*
X-18685000Y-39354000D01*
X-18685000Y-39132000D01*
X-18399000Y-39132000D01*
X-18399000Y-39354000D01*
X-18355690Y-39571734D01*
X-18270734Y-39776835D01*
X-18147398Y-39961421D01*
X-17990421Y-40118398D01*
X-17805835Y-40241734D01*
X-17600734Y-40326690D01*
X-17383000Y-40370000D01*
X-17161000Y-40370000D01*
X-16943266Y-40326690D01*
X-16738165Y-40241734D01*
X-16553579Y-40118398D01*
X-16396602Y-39961421D01*
X-16273266Y-39776835D01*
X-16188310Y-39571734D01*
X-16145000Y-39354000D01*
X-16145000Y-39132000D01*
X-15859000Y-39132000D01*
X-15859000Y-39354000D01*
X-15815690Y-39571734D01*
X-15730734Y-39776835D01*
X-15607398Y-39961421D01*
X-15450421Y-40118398D01*
X-15265835Y-40241734D01*
X-15060734Y-40326690D01*
X-14843000Y-40370000D01*
X-14621000Y-40370000D01*
X-14403266Y-40326690D01*
X-14198165Y-40241734D01*
X-14013579Y-40118398D01*
X-13856602Y-39961421D01*
X-13733266Y-39776835D01*
X-13648310Y-39571734D01*
X-13605000Y-39354000D01*
X-13605000Y-39132000D01*
X-13319000Y-39132000D01*
X-13319000Y-39354000D01*
X-13275690Y-39571734D01*
X-13190734Y-39776835D01*
X-13067398Y-39961421D01*
X-12910421Y-40118398D01*
X-12725835Y-40241734D01*
X-12520734Y-40326690D01*
X-12303000Y-40370000D01*
X-12081000Y-40370000D01*
X-11863266Y-40326690D01*
X-11658165Y-40241734D01*
X-11473579Y-40118398D01*
X-11316602Y-39961421D01*
X-11193266Y-39776835D01*
X-11108310Y-39571734D01*
X-11065000Y-39354000D01*
X-11065000Y-39132000D01*
X-10779000Y-39132000D01*
X-10779000Y-39354000D01*
X-10735690Y-39571734D01*
X-10650734Y-39776835D01*
X-10527398Y-39961421D01*
X-10370421Y-40118398D01*
X-10185835Y-40241734D01*
X-9980734Y-40326690D01*
X-9763000Y-40370000D01*
X-9541000Y-40370000D01*
X-9323266Y-40326690D01*
X-9118165Y-40241734D01*
X-8933579Y-40118398D01*
X-8776602Y-39961421D01*
X-8653266Y-39776835D01*
X-8568310Y-39571734D01*
X-8525000Y-39354000D01*
X-8525000Y-39132000D01*
X-8239000Y-39132000D01*
X-8239000Y-39354000D01*
X-8195690Y-39571734D01*
X-8110734Y-39776835D01*
X-7987398Y-39961421D01*
X-7830421Y-40118398D01*
X-7645835Y-40241734D01*
X-7440734Y-40326690D01*
X-7223000Y-40370000D01*
X-7001000Y-40370000D01*
X-6783266Y-40326690D01*
X-6578165Y-40241734D01*
X-6393579Y-40118398D01*
X-6236602Y-39961421D01*
X-6113266Y-39776835D01*
X-6028310Y-39571734D01*
X-5985000Y-39354000D01*
X-5985000Y-39132000D01*
X-5699000Y-39132000D01*
X-5699000Y-39354000D01*
X-5655690Y-39571734D01*
X-5570734Y-39776835D01*
X-5447398Y-39961421D01*
X-5290421Y-40118398D01*
X-5105835Y-40241734D01*
X-4900734Y-40326690D01*
X-4683000Y-40370000D01*
X-4461000Y-40370000D01*
X-4243266Y-40326690D01*
X-4038165Y-40241734D01*
X-3853579Y-40118398D01*
X-3696602Y-39961421D01*
X-3573266Y-39776835D01*
X-3488310Y-39571734D01*
X-3445000Y-39354000D01*
X-3445000Y-39132000D01*
X-3159000Y-39132000D01*
X-3159000Y-39354000D01*
X-3115690Y-39571734D01*
X-3030734Y-39776835D01*
X-2907398Y-39961421D01*
X-2750421Y-40118398D01*
X-2565835Y-40241734D01*
X-2360734Y-40326690D01*
X-2143000Y-40370000D01*
X-1921000Y-40370000D01*
X-1703266Y-40326690D01*
X-1498165Y-40241734D01*
X-1313579Y-40118398D01*
X-1156602Y-39961421D01*
X-1033266Y-39776835D01*
X-948310Y-39571734D01*
X-905000Y-39354000D01*
X-905000Y-39132000D01*
X-619000Y-39132000D01*
X-619000Y-39354000D01*
X-575690Y-39571734D01*
X-490734Y-39776835D01*
X-367398Y-39961421D01*
X-210421Y-40118398D01*
X-25835Y-40241734D01*
X179266Y-40326690D01*
X397000Y-40370000D01*
X619000Y-40370000D01*
X836734Y-40326690D01*
X1041835Y-40241734D01*
X1226421Y-40118398D01*
X1383398Y-39961421D01*
X1506734Y-39776835D01*
X1591690Y-39571734D01*
X1635000Y-39354000D01*
X1635000Y-39132000D01*
X1921000Y-39132000D01*
X1921000Y-39354000D01*
X1964310Y-39571734D01*
X2049266Y-39776835D01*
X2172602Y-39961421D01*
X2329579Y-40118398D01*
X2514165Y-40241734D01*
X2719266Y-40326690D01*
X2937000Y-40370000D01*
X3159000Y-40370000D01*
X3376734Y-40326690D01*
X3581835Y-40241734D01*
X3766421Y-40118398D01*
X3923398Y-39961421D01*
X4046734Y-39776835D01*
X4131690Y-39571734D01*
X4175000Y-39354000D01*
X4175000Y-39132000D01*
X4131690Y-38914266D01*
X4046734Y-38709165D01*
X3923398Y-38524579D01*
X3766421Y-38367602D01*
X3581835Y-38244266D01*
X3376734Y-38159310D01*
X3159000Y-38116000D01*
X2937000Y-38116000D01*
X2719266Y-38159310D01*
X2514165Y-38244266D01*
X2329579Y-38367602D01*
X2172602Y-38524579D01*
X2049266Y-38709165D01*
X1964310Y-38914266D01*
X1921000Y-39132000D01*
X1635000Y-39132000D01*
X1591690Y-38914266D01*
X1506734Y-38709165D01*
X1383398Y-38524579D01*
X1226421Y-38367602D01*
X1041835Y-38244266D01*
X836734Y-38159310D01*
X619000Y-38116000D01*
X397000Y-38116000D01*
X179266Y-38159310D01*
X-25835Y-38244266D01*
X-210421Y-38367602D01*
X-367398Y-38524579D01*
X-490734Y-38709165D01*
X-575690Y-38914266D01*
X-619000Y-39132000D01*
X-905000Y-39132000D01*
X-948310Y-38914266D01*
X-1033266Y-38709165D01*
X-1156602Y-38524579D01*
X-1313579Y-38367602D01*
X-1498165Y-38244266D01*
X-1703266Y-38159310D01*
X-1921000Y-38116000D01*
X-2143000Y-38116000D01*
X-2360734Y-38159310D01*
X-2565835Y-38244266D01*
X-2750421Y-38367602D01*
X-2907398Y-38524579D01*
X-3030734Y-38709165D01*
X-3115690Y-38914266D01*
X-3159000Y-39132000D01*
X-3445000Y-39132000D01*
X-3488310Y-38914266D01*
X-3573266Y-38709165D01*
X-3696602Y-38524579D01*
X-3853579Y-38367602D01*
X-4038165Y-38244266D01*
X-4243266Y-38159310D01*
X-4461000Y-38116000D01*
X-4683000Y-38116000D01*
X-4900734Y-38159310D01*
X-5105835Y-38244266D01*
X-5290421Y-38367602D01*
X-5447398Y-38524579D01*
X-5570734Y-38709165D01*
X-5655690Y-38914266D01*
X-5699000Y-39132000D01*
X-5985000Y-39132000D01*
X-6028310Y-38914266D01*
X-6113266Y-38709165D01*
X-6236602Y-38524579D01*
X-6393579Y-38367602D01*
X-6578165Y-38244266D01*
X-6783266Y-38159310D01*
X-7001000Y-38116000D01*
X-7223000Y-38116000D01*
X-7440734Y-38159310D01*
X-7645835Y-38244266D01*
X-7830421Y-38367602D01*
X-7987398Y-38524579D01*
X-8110734Y-38709165D01*
X-8195690Y-38914266D01*
X-8239000Y-39132000D01*
X-8525000Y-39132000D01*
X-8568310Y-38914266D01*
X-8653266Y-38709165D01*
X-8776602Y-38524579D01*
X-8933579Y-38367602D01*
X-9118165Y-38244266D01*
X-9323266Y-38159310D01*
X-9541000Y-38116000D01*
X-9763000Y-38116000D01*
X-9980734Y-38159310D01*
X-10185835Y-38244266D01*
X-10370421Y-38367602D01*
X-10527398Y-38524579D01*
X-10650734Y-38709165D01*
X-10735690Y-38914266D01*
X-10779000Y-39132000D01*
X-11065000Y-39132000D01*
X-11108310Y-38914266D01*
X-11193266Y-38709165D01*
X-11316602Y-38524579D01*
X-11473579Y-38367602D01*
X-11658165Y-38244266D01*
X-11863266Y-38159310D01*
X-12081000Y-38116000D01*
X-12303000Y-38116000D01*
X-12520734Y-38159310D01*
X-12725835Y-38244266D01*
X-12910421Y-38367602D01*
X-13067398Y-38524579D01*
X-13190734Y-38709165D01*
X-13275690Y-38914266D01*
X-13319000Y-39132000D01*
X-13605000Y-39132000D01*
X-13648310Y-38914266D01*
X-13733266Y-38709165D01*
X-13856602Y-38524579D01*
X-14013579Y-38367602D01*
X-14198165Y-38244266D01*
X-14403266Y-38159310D01*
X-14621000Y-38116000D01*
X-14843000Y-38116000D01*
X-15060734Y-38159310D01*
X-15265835Y-38244266D01*
X-15450421Y-38367602D01*
X-15607398Y-38524579D01*
X-15730734Y-38709165D01*
X-15815690Y-38914266D01*
X-15859000Y-39132000D01*
X-16145000Y-39132000D01*
X-16188310Y-38914266D01*
X-16273266Y-38709165D01*
X-16396602Y-38524579D01*
X-16553579Y-38367602D01*
X-16738165Y-38244266D01*
X-16943266Y-38159310D01*
X-17161000Y-38116000D01*
X-17383000Y-38116000D01*
X-17600734Y-38159310D01*
X-17805835Y-38244266D01*
X-17990421Y-38367602D01*
X-18147398Y-38524579D01*
X-18270734Y-38709165D01*
X-18355690Y-38914266D01*
X-18399000Y-39132000D01*
X-18685000Y-39132000D01*
X-18728310Y-38914266D01*
X-18813266Y-38709165D01*
X-18936602Y-38524579D01*
X-19093579Y-38367602D01*
X-19278165Y-38244266D01*
X-19483266Y-38159310D01*
X-19701000Y-38116000D01*
X-19923000Y-38116000D01*
X-20140734Y-38159310D01*
X-20345835Y-38244266D01*
X-20530421Y-38367602D01*
X-20687398Y-38524579D01*
X-20810734Y-38709165D01*
X-20895690Y-38914266D01*
X-20939000Y-39132000D01*
X-35098612Y-39132000D01*
X-35250854Y-39085818D01*
X-35482531Y-39063000D01*
X-35637469Y-39063000D01*
X-35869146Y-39085818D01*
X-36166412Y-39175993D01*
X-36440373Y-39322428D01*
X-36603868Y-39456604D01*
X-36642597Y-39384147D01*
X-36733446Y-39273446D01*
X-36844147Y-39182597D01*
X-36970443Y-39115090D01*
X-37107483Y-39073520D01*
X-37250000Y-39059483D01*
X-38950000Y-39059483D01*
X-39092517Y-39073520D01*
X-39229557Y-39115090D01*
X-39355853Y-39182597D01*
X-39466554Y-39273446D01*
X-39557403Y-39384147D01*
X-39624910Y-39510443D01*
X-39666480Y-39647483D01*
X-39680517Y-39790000D01*
X-39680517Y-41490000D01*
X-39666480Y-41632517D01*
X-39624910Y-41769557D01*
X-39557403Y-41895853D01*
X-39466554Y-42006554D01*
X-39355853Y-42097403D01*
X-39283396Y-42136132D01*
X-39417572Y-42299627D01*
X-39564007Y-42573588D01*
X-39654182Y-42870854D01*
X-39684630Y-43180000D01*
X-47508000Y-43180000D01*
X-47508000Y-35677000D01*
X17862051Y-35677000D01*
X17816176Y-35690916D01*
X17816176Y-35690916D01*
G37*
X17816176Y-35690916D02*
X17603017Y-35804851D01*
X17416183Y-35958183D01*
X17377761Y-36005000D01*
X17042995Y-36339766D01*
X16996183Y-36378184D01*
X16842851Y-36565018D01*
X16728916Y-36778177D01*
X16658754Y-37009468D01*
X16635064Y-37250001D01*
X16641000Y-37310271D01*
X16640999Y-47216268D01*
X16641000Y-47216278D01*
X16640999Y-48723001D01*
X7901731Y-48723001D01*
X7721465Y-48740756D01*
X7490175Y-48810917D01*
X7277016Y-48924852D01*
X7090182Y-49078184D01*
X6936850Y-49265018D01*
X6822915Y-49478177D01*
X6752754Y-49709467D01*
X6729063Y-49950001D01*
X6752754Y-50190535D01*
X6822915Y-50421825D01*
X6936850Y-50634984D01*
X7090182Y-50821818D01*
X7277016Y-50975150D01*
X7490175Y-51089085D01*
X7721465Y-51159246D01*
X7901731Y-51177001D01*
X17807731Y-51177001D01*
X17867999Y-51182937D01*
X17928267Y-51177001D01*
X21326402Y-51177001D01*
X21395993Y-51406412D01*
X21542428Y-51680373D01*
X21739497Y-51920503D01*
X21921660Y-52070000D01*
X21739497Y-52219497D01*
X21542428Y-52459627D01*
X21395993Y-52733588D01*
X21305818Y-53030854D01*
X21275370Y-53340000D01*
X21305818Y-53649146D01*
X21395993Y-53946412D01*
X21542428Y-54220373D01*
X21739497Y-54460503D01*
X21921660Y-54610000D01*
X21739497Y-54759497D01*
X21542428Y-54999627D01*
X21395993Y-55273588D01*
X21305818Y-55570854D01*
X21275370Y-55880000D01*
X21305818Y-56189146D01*
X21395993Y-56486412D01*
X21542428Y-56760373D01*
X21739497Y-57000503D01*
X21921660Y-57150000D01*
X21739497Y-57299497D01*
X21542428Y-57539627D01*
X21395993Y-57813588D01*
X21305818Y-58110854D01*
X21275370Y-58420000D01*
X21305818Y-58729146D01*
X21395993Y-59026412D01*
X21542428Y-59300373D01*
X21739497Y-59540503D01*
X21921660Y-59690000D01*
X21739497Y-59839497D01*
X21542428Y-60079627D01*
X21395993Y-60353588D01*
X21305818Y-60650854D01*
X21275370Y-60960000D01*
X21305818Y-61269146D01*
X21395993Y-61566412D01*
X21542428Y-61840373D01*
X21739497Y-62080503D01*
X21921660Y-62230000D01*
X21739497Y-62379497D01*
X21542428Y-62619627D01*
X21395993Y-62893588D01*
X21305818Y-63190854D01*
X21275370Y-63500000D01*
X21305818Y-63809146D01*
X21395993Y-64106412D01*
X21542428Y-64380373D01*
X21739497Y-64620503D01*
X21921660Y-64770000D01*
X21739497Y-64919497D01*
X21542428Y-65159627D01*
X21395993Y-65433588D01*
X21305818Y-65730854D01*
X21275370Y-66040000D01*
X21305818Y-66349146D01*
X21395993Y-66646412D01*
X21542428Y-66920373D01*
X21739497Y-67160503D01*
X21921660Y-67310000D01*
X21739497Y-67459497D01*
X21542428Y-67699627D01*
X21395993Y-67973588D01*
X21305818Y-68270854D01*
X21275370Y-68580000D01*
X21305818Y-68889146D01*
X21395993Y-69186412D01*
X21542428Y-69460373D01*
X21739497Y-69700503D01*
X21921660Y-69850000D01*
X21739497Y-69999497D01*
X21542428Y-70239627D01*
X21395993Y-70513588D01*
X21305818Y-70810854D01*
X21275370Y-71120000D01*
X21305818Y-71429146D01*
X21395993Y-71726412D01*
X21542428Y-72000373D01*
X21739497Y-72240503D01*
X21921660Y-72390000D01*
X21739497Y-72539497D01*
X21542428Y-72779627D01*
X21395993Y-73053588D01*
X21305818Y-73350854D01*
X21275370Y-73660000D01*
X21305818Y-73969146D01*
X21395993Y-74266412D01*
X21542428Y-74540373D01*
X21739497Y-74780503D01*
X21921660Y-74930000D01*
X21739497Y-75079497D01*
X21542428Y-75319627D01*
X21395993Y-75593588D01*
X21305818Y-75890854D01*
X21275370Y-76200000D01*
X21305818Y-76509146D01*
X21395993Y-76806412D01*
X21542428Y-77080373D01*
X21739497Y-77320503D01*
X21921660Y-77470000D01*
X21739497Y-77619497D01*
X21542428Y-77859627D01*
X21395993Y-78133588D01*
X21305818Y-78430854D01*
X21275370Y-78740000D01*
X21305818Y-79049146D01*
X21395993Y-79346412D01*
X21542428Y-79620373D01*
X21739497Y-79860503D01*
X21921660Y-80010000D01*
X21739497Y-80159497D01*
X21542428Y-80399627D01*
X21395993Y-80673588D01*
X21305818Y-80970854D01*
X21275370Y-81280000D01*
X21305818Y-81589146D01*
X21395993Y-81886412D01*
X21542428Y-82160373D01*
X21739497Y-82400503D01*
X21921660Y-82550000D01*
X21739497Y-82699497D01*
X21542428Y-82939627D01*
X21395993Y-83213588D01*
X21305818Y-83510854D01*
X21275370Y-83820000D01*
X21305818Y-84129146D01*
X21395993Y-84426412D01*
X21542428Y-84700373D01*
X21739497Y-84940503D01*
X21921660Y-85090000D01*
X21739497Y-85239497D01*
X21542428Y-85479627D01*
X21395993Y-85753588D01*
X21305818Y-86050854D01*
X21275370Y-86360000D01*
X21305818Y-86669146D01*
X21395993Y-86966412D01*
X21542428Y-87240373D01*
X21739497Y-87480503D01*
X21979627Y-87677572D01*
X22253588Y-87824007D01*
X22550854Y-87914182D01*
X22782531Y-87937000D01*
X22937469Y-87937000D01*
X23169146Y-87914182D01*
X23466412Y-87824007D01*
X23740373Y-87677572D01*
X23980503Y-87480503D01*
X24130000Y-87298340D01*
X24279497Y-87480503D01*
X24519627Y-87677572D01*
X24793588Y-87824007D01*
X25090854Y-87914182D01*
X25322531Y-87937000D01*
X25477469Y-87937000D01*
X25709146Y-87914182D01*
X26006412Y-87824007D01*
X26280373Y-87677572D01*
X26520503Y-87480503D01*
X26717572Y-87240373D01*
X26864007Y-86966412D01*
X26954182Y-86669146D01*
X26984630Y-86360000D01*
X26954182Y-86050854D01*
X26864007Y-85753588D01*
X26717572Y-85479627D01*
X26520503Y-85239497D01*
X26338340Y-85090000D01*
X26520503Y-84940503D01*
X26717572Y-84700373D01*
X26864007Y-84426412D01*
X26954182Y-84129146D01*
X26984630Y-83820000D01*
X26954182Y-83510854D01*
X26864007Y-83213588D01*
X26717572Y-82939627D01*
X26520503Y-82699497D01*
X26338340Y-82550000D01*
X26520503Y-82400503D01*
X26717572Y-82160373D01*
X26864007Y-81886412D01*
X26954182Y-81589146D01*
X26984630Y-81280000D01*
X26954182Y-80970854D01*
X26864007Y-80673588D01*
X26717572Y-80399627D01*
X26520503Y-80159497D01*
X26338340Y-80010000D01*
X26390736Y-79967000D01*
X27752740Y-79967000D01*
X27813000Y-79972935D01*
X27873260Y-79967000D01*
X27873268Y-79967000D01*
X27983001Y-79956192D01*
X27983000Y-88689000D01*
X5775263Y-88689000D01*
X5715000Y-88683065D01*
X5654737Y-88689000D01*
X5654732Y-88689000D01*
X5594946Y-88694889D01*
X5474466Y-88706754D01*
X5256085Y-88773000D01*
X5243176Y-88776916D01*
X5030017Y-88890851D01*
X4843183Y-89044183D01*
X4804761Y-89091000D01*
X4169765Y-89725996D01*
X4054852Y-89866018D01*
X3940917Y-90079176D01*
X3870755Y-90310467D01*
X3847065Y-90551000D01*
X3870755Y-90791533D01*
X3940917Y-91022824D01*
X4054852Y-91235982D01*
X4208183Y-91422817D01*
X4395018Y-91576148D01*
X4608176Y-91690083D01*
X4839467Y-91760245D01*
X5080000Y-91783935D01*
X5320533Y-91760245D01*
X5551824Y-91690083D01*
X5764982Y-91576148D01*
X5905004Y-91461235D01*
X6223239Y-91143000D01*
X14464594Y-91143000D01*
X14368266Y-91287165D01*
X14283310Y-91492266D01*
X14240000Y-91710000D01*
X14240000Y-91932000D01*
X14283310Y-92149734D01*
X14368266Y-92354835D01*
X14491602Y-92539421D01*
X14648579Y-92696398D01*
X14833165Y-92819734D01*
X15038266Y-92904690D01*
X15256000Y-92948000D01*
X15478000Y-92948000D01*
X15695734Y-92904690D01*
X15900835Y-92819734D01*
X16083023Y-92698000D01*
X34081181Y-92698000D01*
X34206579Y-92823398D01*
X34391165Y-92946734D01*
X34596266Y-93031690D01*
X34814000Y-93075000D01*
X35036000Y-93075000D01*
X35253734Y-93031690D01*
X35458835Y-92946734D01*
X35643421Y-92823398D01*
X35800398Y-92666421D01*
X35923734Y-92481835D01*
X36008690Y-92276734D01*
X36052000Y-92059000D01*
X36052000Y-91837000D01*
X36008690Y-91619266D01*
X35923734Y-91414165D01*
X35800398Y-91229579D01*
X35643421Y-91072602D01*
X35458835Y-90949266D01*
X35253734Y-90864310D01*
X35036000Y-90821000D01*
X34814000Y-90821000D01*
X34596266Y-90864310D01*
X34403878Y-90944000D01*
X29762649Y-90944000D01*
X29767983Y-90941149D01*
X29954817Y-90787817D01*
X30012064Y-90718062D01*
X30081817Y-90660817D01*
X30235149Y-90473983D01*
X30349084Y-90260824D01*
X30419245Y-90029534D01*
X30437000Y-89849268D01*
X30437000Y-77403261D01*
X30442935Y-77343001D01*
X30437000Y-77282741D01*
X30437000Y-37525263D01*
X30442935Y-37465000D01*
X30419246Y-37224466D01*
X30349084Y-36993176D01*
X30235149Y-36780017D01*
X30081817Y-36593183D01*
X30035001Y-36554762D01*
X29485239Y-36005000D01*
X29446817Y-35958183D01*
X29259983Y-35804851D01*
X29046824Y-35690916D01*
X29000949Y-35677000D01*
X36713001Y-35677000D01*
X36713000Y-157363000D01*
X-47508000Y-157363000D01*
X-47508000Y-149690000D01*
X-38888072Y-149690000D01*
X-38875812Y-149814482D01*
X-38839502Y-149934180D01*
X-38780537Y-150044494D01*
X-38701185Y-150141185D01*
X-38604494Y-150220537D01*
X-38494180Y-150279502D01*
X-38374482Y-150315812D01*
X-38250000Y-150328072D01*
X-37435750Y-150325000D01*
X-37277000Y-150166250D01*
X-37277000Y-148717000D01*
X-37023000Y-148717000D01*
X-37023000Y-150166250D01*
X-36864250Y-150325000D01*
X-36050000Y-150328072D01*
X-35925518Y-150315812D01*
X-35805820Y-150279502D01*
X-35695506Y-150220537D01*
X-35598815Y-150141185D01*
X-35519463Y-150044494D01*
X-35460498Y-149934180D01*
X-35424188Y-149814482D01*
X-35411928Y-149690000D01*
X-35415000Y-148875750D01*
X-35573750Y-148717000D01*
X-37023000Y-148717000D01*
X-37277000Y-148717000D01*
X-38726250Y-148717000D01*
X-38885000Y-148875750D01*
X-38888072Y-149690000D01*
X-47508000Y-149690000D01*
X-47508000Y-147490000D01*
X-38888072Y-147490000D01*
X-38885000Y-148304250D01*
X-38726250Y-148463000D01*
X-37277000Y-148463000D01*
X-37277000Y-147013750D01*
X-37023000Y-147013750D01*
X-37023000Y-148463000D01*
X-35573750Y-148463000D01*
X-35515882Y-148405132D01*
X-33947000Y-148405132D01*
X-33947000Y-148774868D01*
X-33874868Y-149137501D01*
X-33733376Y-149479093D01*
X-33527961Y-149786518D01*
X-33266518Y-150047961D01*
X-32959093Y-150253376D01*
X-32617501Y-150394868D01*
X-32254868Y-150467000D01*
X-31885132Y-150467000D01*
X-31522499Y-150394868D01*
X-31180907Y-150253376D01*
X-30873482Y-150047961D01*
X-30612039Y-149786518D01*
X-30406624Y-149479093D01*
X-30265132Y-149137501D01*
X-30193000Y-148774868D01*
X-30193000Y-148405132D01*
X-30265132Y-148042499D01*
X-30406624Y-147700907D01*
X-30612039Y-147393482D01*
X-30873482Y-147132039D01*
X-31180907Y-146926624D01*
X-31522499Y-146785132D01*
X-31885132Y-146713000D01*
X-32254868Y-146713000D01*
X-32617501Y-146785132D01*
X-32959093Y-146926624D01*
X-33266518Y-147132039D01*
X-33527961Y-147393482D01*
X-33733376Y-147700907D01*
X-33874868Y-148042499D01*
X-33947000Y-148405132D01*
X-35515882Y-148405132D01*
X-35415000Y-148304250D01*
X-35411928Y-147490000D01*
X-35424188Y-147365518D01*
X-35460498Y-147245820D01*
X-35519463Y-147135506D01*
X-35598815Y-147038815D01*
X-35695506Y-146959463D01*
X-35805820Y-146900498D01*
X-35925518Y-146864188D01*
X-36050000Y-146851928D01*
X-36864250Y-146855000D01*
X-37023000Y-147013750D01*
X-37277000Y-147013750D01*
X-37435750Y-146855000D01*
X-38250000Y-146851928D01*
X-38374482Y-146864188D01*
X-38494180Y-146900498D01*
X-38604494Y-146959463D01*
X-38701185Y-147038815D01*
X-38780537Y-147135506D01*
X-38839502Y-147245820D01*
X-38875812Y-147365518D01*
X-38888072Y-147490000D01*
X-47508000Y-147490000D01*
X-47508000Y-144542000D01*
X-21320000Y-144542000D01*
X-21320000Y-144764000D01*
X-21276690Y-144981734D01*
X-21191734Y-145186835D01*
X-21068398Y-145371421D01*
X-20911421Y-145528398D01*
X-20726835Y-145651734D01*
X-20521734Y-145736690D01*
X-20304000Y-145780000D01*
X-20082000Y-145780000D01*
X-19864266Y-145736690D01*
X-19659165Y-145651734D01*
X-19474579Y-145528398D01*
X-19317602Y-145371421D01*
X-19194266Y-145186835D01*
X-19109310Y-144981734D01*
X-19066000Y-144764000D01*
X-19066000Y-144542000D01*
X-18780000Y-144542000D01*
X-18780000Y-144764000D01*
X-18736690Y-144981734D01*
X-18651734Y-145186835D01*
X-18528398Y-145371421D01*
X-18371421Y-145528398D01*
X-18186835Y-145651734D01*
X-17981734Y-145736690D01*
X-17764000Y-145780000D01*
X-17542000Y-145780000D01*
X-17324266Y-145736690D01*
X-17119165Y-145651734D01*
X-16934579Y-145528398D01*
X-16777602Y-145371421D01*
X-16654266Y-145186835D01*
X-16569310Y-144981734D01*
X-16526000Y-144764000D01*
X-16526000Y-144542000D01*
X-16240000Y-144542000D01*
X-16240000Y-144764000D01*
X-16196690Y-144981734D01*
X-16111734Y-145186835D01*
X-15988398Y-145371421D01*
X-15831421Y-145528398D01*
X-15646835Y-145651734D01*
X-15441734Y-145736690D01*
X-15224000Y-145780000D01*
X-15002000Y-145780000D01*
X-14784266Y-145736690D01*
X-14579165Y-145651734D01*
X-14394579Y-145528398D01*
X-14237602Y-145371421D01*
X-14114266Y-145186835D01*
X-14029310Y-144981734D01*
X-13986000Y-144764000D01*
X-13986000Y-144542000D01*
X-13700000Y-144542000D01*
X-13700000Y-144764000D01*
X-13656690Y-144981734D01*
X-13571734Y-145186835D01*
X-13448398Y-145371421D01*
X-13291421Y-145528398D01*
X-13106835Y-145651734D01*
X-12901734Y-145736690D01*
X-12684000Y-145780000D01*
X-12462000Y-145780000D01*
X-12244266Y-145736690D01*
X-12039165Y-145651734D01*
X-11854579Y-145528398D01*
X-11697602Y-145371421D01*
X-11574266Y-145186835D01*
X-11489310Y-144981734D01*
X-11446000Y-144764000D01*
X-11446000Y-144542000D01*
X-11489310Y-144324266D01*
X-11574266Y-144119165D01*
X-11697602Y-143934579D01*
X-11725181Y-143907000D01*
X1159000Y-143907000D01*
X1159000Y-144129000D01*
X1202310Y-144346734D01*
X1287266Y-144551835D01*
X1410602Y-144736421D01*
X1567579Y-144893398D01*
X1752165Y-145016734D01*
X1957266Y-145101690D01*
X2175000Y-145145000D01*
X2202240Y-145145000D01*
X2329763Y-145213162D01*
X2495078Y-145263310D01*
X2623921Y-145276000D01*
X2623930Y-145276000D01*
X2666999Y-145280242D01*
X2710069Y-145276000D01*
X4720570Y-145276000D01*
X4715000Y-145304000D01*
X4715000Y-145526000D01*
X4758310Y-145743734D01*
X4843266Y-145948835D01*
X4910862Y-146050000D01*
X4843266Y-146151165D01*
X4758310Y-146356266D01*
X4715000Y-146574000D01*
X4715000Y-146796000D01*
X4758310Y-147013734D01*
X4843266Y-147218835D01*
X4966602Y-147403421D01*
X5123579Y-147560398D01*
X5308165Y-147683734D01*
X5513266Y-147768690D01*
X5731000Y-147812000D01*
X5953000Y-147812000D01*
X6170734Y-147768690D01*
X6375835Y-147683734D01*
X6560421Y-147560398D01*
X6685819Y-147435000D01*
X11094977Y-147435000D01*
X11277165Y-147556734D01*
X11482266Y-147641690D01*
X11700000Y-147685000D01*
X11922000Y-147685000D01*
X12139734Y-147641690D01*
X12344835Y-147556734D01*
X12529421Y-147433398D01*
X12686398Y-147276421D01*
X12809734Y-147091835D01*
X12894690Y-146886734D01*
X12938000Y-146669000D01*
X12938000Y-146510373D01*
X13094173Y-146541438D01*
X14335403Y-147782668D01*
X14362867Y-147816133D01*
X14496408Y-147925727D01*
X14648763Y-148007162D01*
X14814077Y-148057310D01*
X14986000Y-148074243D01*
X15029079Y-148070000D01*
X29674921Y-148070000D01*
X29718000Y-148074243D01*
X29761079Y-148070000D01*
X29889922Y-148057310D01*
X30055237Y-148007162D01*
X30207592Y-147925727D01*
X30341133Y-147816133D01*
X30368597Y-147782668D01*
X31990828Y-146160437D01*
X32205734Y-146117690D01*
X32410835Y-146032734D01*
X32595421Y-145909398D01*
X32752398Y-145752421D01*
X32875734Y-145567835D01*
X32960690Y-145362734D01*
X33004000Y-145145000D01*
X33004000Y-144923000D01*
X32960690Y-144705266D01*
X32875734Y-144500165D01*
X32752398Y-144315579D01*
X32595421Y-144158602D01*
X32410835Y-144035266D01*
X32205734Y-143950310D01*
X31988000Y-143907000D01*
X31766000Y-143907000D01*
X31548266Y-143950310D01*
X31343165Y-144035266D01*
X31158579Y-144158602D01*
X31001602Y-144315579D01*
X30878266Y-144500165D01*
X30793310Y-144705266D01*
X30750563Y-144920172D01*
X29354735Y-146316000D01*
X15349265Y-146316000D01*
X14334438Y-145301173D01*
X14329430Y-145276000D01*
X28912921Y-145276000D01*
X28956000Y-145280243D01*
X28999079Y-145276000D01*
X29039692Y-145272000D01*
X29079359Y-145268093D01*
X29099000Y-145272000D01*
X29321000Y-145272000D01*
X29538734Y-145228690D01*
X29743835Y-145143734D01*
X29928421Y-145020398D01*
X30085398Y-144863421D01*
X30208734Y-144678835D01*
X30293690Y-144473734D01*
X30337000Y-144256000D01*
X30337000Y-144034000D01*
X30293690Y-143816266D01*
X30208734Y-143611165D01*
X30085398Y-143426579D01*
X29928421Y-143269602D01*
X29743835Y-143146266D01*
X29538734Y-143061310D01*
X29321000Y-143018000D01*
X29099000Y-143018000D01*
X28881266Y-143061310D01*
X28676165Y-143146266D01*
X28491579Y-143269602D01*
X28334602Y-143426579D01*
X28270844Y-143522000D01*
X10656465Y-143522000D01*
X10735690Y-143330734D01*
X10779000Y-143113000D01*
X10779000Y-142891000D01*
X10773430Y-142863000D01*
X27642921Y-142863000D01*
X27686000Y-142867243D01*
X27729079Y-142863000D01*
X27857922Y-142850310D01*
X28023237Y-142800162D01*
X28175592Y-142718727D01*
X28309133Y-142609133D01*
X28336597Y-142575668D01*
X28434827Y-142477438D01*
X28649734Y-142434690D01*
X28854835Y-142349734D01*
X29039421Y-142226398D01*
X29196398Y-142069421D01*
X29319734Y-141884835D01*
X29404690Y-141679734D01*
X29448000Y-141462000D01*
X29448000Y-141240000D01*
X29404690Y-141022266D01*
X29319734Y-140817165D01*
X29196398Y-140632579D01*
X29039421Y-140475602D01*
X28854835Y-140352266D01*
X28649734Y-140267310D01*
X28432000Y-140224000D01*
X28210000Y-140224000D01*
X27992266Y-140267310D01*
X27787165Y-140352266D01*
X27602579Y-140475602D01*
X27445602Y-140632579D01*
X27322266Y-140817165D01*
X27237310Y-141022266D01*
X27220058Y-141109000D01*
X3554406Y-141109000D01*
X3538734Y-141071165D01*
X3415398Y-140886579D01*
X3258421Y-140729602D01*
X3073835Y-140606266D01*
X2868734Y-140521310D01*
X2651000Y-140478000D01*
X2429000Y-140478000D01*
X2211266Y-140521310D01*
X2006165Y-140606266D01*
X1821579Y-140729602D01*
X1664602Y-140886579D01*
X1541266Y-141071165D01*
X1456310Y-141276266D01*
X1413000Y-141494000D01*
X1413000Y-141716000D01*
X1456310Y-141933734D01*
X1541266Y-142138835D01*
X1664602Y-142323421D01*
X1821579Y-142480398D01*
X2006165Y-142603734D01*
X2211266Y-142688690D01*
X2429000Y-142732000D01*
X2456240Y-142732000D01*
X2583763Y-142800162D01*
X2749078Y-142850310D01*
X2877921Y-142863000D01*
X2877930Y-142863000D01*
X2920999Y-142867242D01*
X2964069Y-142863000D01*
X4969000Y-142863000D01*
X4969000Y-142986000D01*
X5012310Y-143203734D01*
X5097266Y-143408835D01*
X5172880Y-143522000D01*
X3300406Y-143522000D01*
X3284734Y-143484165D01*
X3161398Y-143299579D01*
X3004421Y-143142602D01*
X2819835Y-143019266D01*
X2614734Y-142934310D01*
X2397000Y-142891000D01*
X2175000Y-142891000D01*
X1957266Y-142934310D01*
X1752165Y-143019266D01*
X1567579Y-143142602D01*
X1410602Y-143299579D01*
X1287266Y-143484165D01*
X1202310Y-143689266D01*
X1159000Y-143907000D01*
X-11725181Y-143907000D01*
X-11854579Y-143777602D01*
X-12039165Y-143654266D01*
X-12244266Y-143569310D01*
X-12462000Y-143526000D01*
X-12684000Y-143526000D01*
X-12901734Y-143569310D01*
X-13106835Y-143654266D01*
X-13291421Y-143777602D01*
X-13448398Y-143934579D01*
X-13571734Y-144119165D01*
X-13656690Y-144324266D01*
X-13700000Y-144542000D01*
X-13986000Y-144542000D01*
X-14029310Y-144324266D01*
X-14114266Y-144119165D01*
X-14237602Y-143934579D01*
X-14394579Y-143777602D01*
X-14579165Y-143654266D01*
X-14784266Y-143569310D01*
X-15002000Y-143526000D01*
X-15224000Y-143526000D01*
X-15441734Y-143569310D01*
X-15646835Y-143654266D01*
X-15831421Y-143777602D01*
X-15988398Y-143934579D01*
X-16111734Y-144119165D01*
X-16196690Y-144324266D01*
X-16240000Y-144542000D01*
X-16526000Y-144542000D01*
X-16569310Y-144324266D01*
X-16654266Y-144119165D01*
X-16777602Y-143934579D01*
X-16934579Y-143777602D01*
X-17119165Y-143654266D01*
X-17324266Y-143569310D01*
X-17542000Y-143526000D01*
X-17764000Y-143526000D01*
X-17981734Y-143569310D01*
X-18186835Y-143654266D01*
X-18371421Y-143777602D01*
X-18528398Y-143934579D01*
X-18651734Y-144119165D01*
X-18736690Y-144324266D01*
X-18780000Y-144542000D01*
X-19066000Y-144542000D01*
X-19109310Y-144324266D01*
X-19194266Y-144119165D01*
X-19317602Y-143934579D01*
X-19474579Y-143777602D01*
X-19659165Y-143654266D01*
X-19864266Y-143569310D01*
X-20082000Y-143526000D01*
X-20304000Y-143526000D01*
X-20521734Y-143569310D01*
X-20726835Y-143654266D01*
X-20911421Y-143777602D01*
X-21068398Y-143934579D01*
X-21191734Y-144119165D01*
X-21276690Y-144324266D01*
X-21320000Y-144542000D01*
X-47508000Y-144542000D01*
X-47508000Y-142002000D01*
X-21320000Y-142002000D01*
X-21320000Y-142224000D01*
X-21276690Y-142441734D01*
X-21191734Y-142646835D01*
X-21068398Y-142831421D01*
X-20911421Y-142988398D01*
X-20726835Y-143111734D01*
X-20521734Y-143196690D01*
X-20304000Y-143240000D01*
X-20082000Y-143240000D01*
X-19864266Y-143196690D01*
X-19659165Y-143111734D01*
X-19474579Y-142988398D01*
X-19317602Y-142831421D01*
X-19194266Y-142646835D01*
X-19109310Y-142441734D01*
X-19066000Y-142224000D01*
X-19066000Y-142002000D01*
X-18780000Y-142002000D01*
X-18780000Y-142224000D01*
X-18736690Y-142441734D01*
X-18651734Y-142646835D01*
X-18528398Y-142831421D01*
X-18371421Y-142988398D01*
X-18186835Y-143111734D01*
X-17981734Y-143196690D01*
X-17764000Y-143240000D01*
X-17542000Y-143240000D01*
X-17324266Y-143196690D01*
X-17119165Y-143111734D01*
X-16934579Y-142988398D01*
X-16777602Y-142831421D01*
X-16654266Y-142646835D01*
X-16569310Y-142441734D01*
X-16526000Y-142224000D01*
X-16526000Y-142002000D01*
X-16240000Y-142002000D01*
X-16240000Y-142224000D01*
X-16196690Y-142441734D01*
X-16111734Y-142646835D01*
X-15988398Y-142831421D01*
X-15831421Y-142988398D01*
X-15646835Y-143111734D01*
X-15441734Y-143196690D01*
X-15224000Y-143240000D01*
X-15002000Y-143240000D01*
X-14784266Y-143196690D01*
X-14579165Y-143111734D01*
X-14394579Y-142988398D01*
X-14237602Y-142831421D01*
X-14114266Y-142646835D01*
X-14029310Y-142441734D01*
X-13986000Y-142224000D01*
X-13986000Y-142002000D01*
X-13700000Y-142002000D01*
X-13700000Y-142224000D01*
X-13656690Y-142441734D01*
X-13571734Y-142646835D01*
X-13448398Y-142831421D01*
X-13291421Y-142988398D01*
X-13106835Y-143111734D01*
X-12901734Y-143196690D01*
X-12684000Y-143240000D01*
X-12462000Y-143240000D01*
X-12244266Y-143196690D01*
X-12039165Y-143111734D01*
X-11854579Y-142988398D01*
X-11697602Y-142831421D01*
X-11574266Y-142646835D01*
X-11489310Y-142441734D01*
X-11446000Y-142224000D01*
X-11446000Y-142002000D01*
X-11489310Y-141784266D01*
X-11574266Y-141579165D01*
X-11697602Y-141394579D01*
X-11854579Y-141237602D01*
X-12039165Y-141114266D01*
X-12244266Y-141029310D01*
X-12462000Y-140986000D01*
X-12684000Y-140986000D01*
X-12901734Y-141029310D01*
X-13106835Y-141114266D01*
X-13291421Y-141237602D01*
X-13448398Y-141394579D01*
X-13571734Y-141579165D01*
X-13656690Y-141784266D01*
X-13700000Y-142002000D01*
X-13986000Y-142002000D01*
X-14029310Y-141784266D01*
X-14114266Y-141579165D01*
X-14237602Y-141394579D01*
X-14394579Y-141237602D01*
X-14579165Y-141114266D01*
X-14784266Y-141029310D01*
X-15002000Y-140986000D01*
X-15224000Y-140986000D01*
X-15441734Y-141029310D01*
X-15646835Y-141114266D01*
X-15831421Y-141237602D01*
X-15988398Y-141394579D01*
X-16111734Y-141579165D01*
X-16196690Y-141784266D01*
X-16240000Y-142002000D01*
X-16526000Y-142002000D01*
X-16569310Y-141784266D01*
X-16654266Y-141579165D01*
X-16777602Y-141394579D01*
X-16934579Y-141237602D01*
X-17119165Y-141114266D01*
X-17324266Y-141029310D01*
X-17542000Y-140986000D01*
X-17764000Y-140986000D01*
X-17981734Y-141029310D01*
X-18186835Y-141114266D01*
X-18371421Y-141237602D01*
X-18528398Y-141394579D01*
X-18651734Y-141579165D01*
X-18736690Y-141784266D01*
X-18780000Y-142002000D01*
X-19066000Y-142002000D01*
X-19109310Y-141784266D01*
X-19194266Y-141579165D01*
X-19317602Y-141394579D01*
X-19474579Y-141237602D01*
X-19659165Y-141114266D01*
X-19864266Y-141029310D01*
X-20082000Y-140986000D01*
X-20304000Y-140986000D01*
X-20521734Y-141029310D01*
X-20726835Y-141114266D01*
X-20911421Y-141237602D01*
X-21068398Y-141394579D01*
X-21191734Y-141579165D01*
X-21276690Y-141784266D01*
X-21320000Y-142002000D01*
X-47508000Y-142002000D01*
X-47508000Y-139462000D01*
X-21320000Y-139462000D01*
X-21320000Y-139684000D01*
X-21276690Y-139901734D01*
X-21191734Y-140106835D01*
X-21068398Y-140291421D01*
X-20911421Y-140448398D01*
X-20726835Y-140571734D01*
X-20521734Y-140656690D01*
X-20304000Y-140700000D01*
X-20082000Y-140700000D01*
X-19864266Y-140656690D01*
X-19659165Y-140571734D01*
X-19474579Y-140448398D01*
X-19317602Y-140291421D01*
X-19194266Y-140106835D01*
X-19109310Y-139901734D01*
X-19066000Y-139684000D01*
X-19066000Y-139462000D01*
X-18780000Y-139462000D01*
X-18780000Y-139684000D01*
X-18736690Y-139901734D01*
X-18651734Y-140106835D01*
X-18528398Y-140291421D01*
X-18371421Y-140448398D01*
X-18186835Y-140571734D01*
X-17981734Y-140656690D01*
X-17764000Y-140700000D01*
X-17542000Y-140700000D01*
X-17324266Y-140656690D01*
X-17119165Y-140571734D01*
X-16934579Y-140448398D01*
X-16777602Y-140291421D01*
X-16654266Y-140106835D01*
X-16569310Y-139901734D01*
X-16526000Y-139684000D01*
X-16526000Y-139462000D01*
X-16240000Y-139462000D01*
X-16240000Y-139684000D01*
X-16196690Y-139901734D01*
X-16111734Y-140106835D01*
X-15988398Y-140291421D01*
X-15831421Y-140448398D01*
X-15646835Y-140571734D01*
X-15441734Y-140656690D01*
X-15224000Y-140700000D01*
X-15002000Y-140700000D01*
X-14784266Y-140656690D01*
X-14579165Y-140571734D01*
X-14394579Y-140448398D01*
X-14237602Y-140291421D01*
X-14114266Y-140106835D01*
X-14029310Y-139901734D01*
X-13986000Y-139684000D01*
X-13986000Y-139462000D01*
X-13700000Y-139462000D01*
X-13700000Y-139684000D01*
X-13656690Y-139901734D01*
X-13571734Y-140106835D01*
X-13448398Y-140291421D01*
X-13291421Y-140448398D01*
X-13106835Y-140571734D01*
X-12901734Y-140656690D01*
X-12684000Y-140700000D01*
X-12462000Y-140700000D01*
X-12244266Y-140656690D01*
X-12039165Y-140571734D01*
X-11854579Y-140448398D01*
X-11697602Y-140291421D01*
X-11574266Y-140106835D01*
X-11489310Y-139901734D01*
X-11446000Y-139684000D01*
X-11446000Y-139462000D01*
X-11489310Y-139244266D01*
X-11556937Y-139081000D01*
X3064000Y-139081000D01*
X3064000Y-139303000D01*
X3107310Y-139520734D01*
X3192266Y-139725835D01*
X3315602Y-139910421D01*
X3472579Y-140067398D01*
X3657165Y-140190734D01*
X3862266Y-140275690D01*
X4077172Y-140318437D01*
X4302408Y-140543673D01*
X4329867Y-140577133D01*
X4363326Y-140604592D01*
X4363328Y-140604594D01*
X4397428Y-140632579D01*
X4463408Y-140686727D01*
X4615763Y-140768162D01*
X4781077Y-140818310D01*
X4953000Y-140835243D01*
X4996079Y-140831000D01*
X11622236Y-140831000D01*
X11665315Y-140835243D01*
X11708394Y-140831000D01*
X11837237Y-140818310D01*
X12002552Y-140768162D01*
X12154907Y-140686727D01*
X12288448Y-140577133D01*
X12315912Y-140543668D01*
X12480432Y-140379148D01*
X12537266Y-140402690D01*
X12755000Y-140446000D01*
X12977000Y-140446000D01*
X13194734Y-140402690D01*
X13399835Y-140317734D01*
X13584421Y-140194398D01*
X13741398Y-140037421D01*
X13864734Y-139852835D01*
X13949690Y-139647734D01*
X13993000Y-139430000D01*
X13993000Y-139208000D01*
X13949690Y-138990266D01*
X13864734Y-138785165D01*
X13741398Y-138600579D01*
X13584421Y-138443602D01*
X13399835Y-138320266D01*
X13194734Y-138235310D01*
X12977000Y-138192000D01*
X12755000Y-138192000D01*
X12537266Y-138235310D01*
X12332165Y-138320266D01*
X12147579Y-138443602D01*
X12137376Y-138453805D01*
X12128392Y-138454690D01*
X11963078Y-138504838D01*
X11810723Y-138586273D01*
X11677182Y-138695867D01*
X11649718Y-138729332D01*
X11302050Y-139077000D01*
X5317204Y-139077000D01*
X5274690Y-138863266D01*
X5189734Y-138658165D01*
X5066398Y-138473579D01*
X4909421Y-138316602D01*
X4724835Y-138193266D01*
X4519734Y-138108310D01*
X4302000Y-138065000D01*
X4080000Y-138065000D01*
X3862266Y-138108310D01*
X3657165Y-138193266D01*
X3472579Y-138316602D01*
X3315602Y-138473579D01*
X3192266Y-138658165D01*
X3107310Y-138863266D01*
X3064000Y-139081000D01*
X-11556937Y-139081000D01*
X-11574266Y-139039165D01*
X-11697602Y-138854579D01*
X-11854579Y-138697602D01*
X-12039165Y-138574266D01*
X-12244266Y-138489310D01*
X-12462000Y-138446000D01*
X-12684000Y-138446000D01*
X-12901734Y-138489310D01*
X-13106835Y-138574266D01*
X-13291421Y-138697602D01*
X-13448398Y-138854579D01*
X-13571734Y-139039165D01*
X-13656690Y-139244266D01*
X-13700000Y-139462000D01*
X-13986000Y-139462000D01*
X-14029310Y-139244266D01*
X-14114266Y-139039165D01*
X-14237602Y-138854579D01*
X-14394579Y-138697602D01*
X-14579165Y-138574266D01*
X-14784266Y-138489310D01*
X-15002000Y-138446000D01*
X-15224000Y-138446000D01*
X-15441734Y-138489310D01*
X-15646835Y-138574266D01*
X-15831421Y-138697602D01*
X-15988398Y-138854579D01*
X-16111734Y-139039165D01*
X-16196690Y-139244266D01*
X-16240000Y-139462000D01*
X-16526000Y-139462000D01*
X-16569310Y-139244266D01*
X-16654266Y-139039165D01*
X-16777602Y-138854579D01*
X-16934579Y-138697602D01*
X-17119165Y-138574266D01*
X-17324266Y-138489310D01*
X-17542000Y-138446000D01*
X-17764000Y-138446000D01*
X-17981734Y-138489310D01*
X-18186835Y-138574266D01*
X-18371421Y-138697602D01*
X-18528398Y-138854579D01*
X-18651734Y-139039165D01*
X-18736690Y-139244266D01*
X-18780000Y-139462000D01*
X-19066000Y-139462000D01*
X-19109310Y-139244266D01*
X-19194266Y-139039165D01*
X-19317602Y-138854579D01*
X-19474579Y-138697602D01*
X-19659165Y-138574266D01*
X-19864266Y-138489310D01*
X-20082000Y-138446000D01*
X-20304000Y-138446000D01*
X-20521734Y-138489310D01*
X-20726835Y-138574266D01*
X-20911421Y-138697602D01*
X-21068398Y-138854579D01*
X-21191734Y-139039165D01*
X-21276690Y-139244266D01*
X-21320000Y-139462000D01*
X-47508000Y-139462000D01*
X-47508000Y-136922000D01*
X-21320000Y-136922000D01*
X-21320000Y-137144000D01*
X-21276690Y-137361734D01*
X-21191734Y-137566835D01*
X-21068398Y-137751421D01*
X-20911421Y-137908398D01*
X-20726835Y-138031734D01*
X-20521734Y-138116690D01*
X-20304000Y-138160000D01*
X-20082000Y-138160000D01*
X-19864266Y-138116690D01*
X-19659165Y-138031734D01*
X-19474579Y-137908398D01*
X-19317602Y-137751421D01*
X-19194266Y-137566835D01*
X-19109310Y-137361734D01*
X-19066000Y-137144000D01*
X-19066000Y-136922000D01*
X-18780000Y-136922000D01*
X-18780000Y-137144000D01*
X-18736690Y-137361734D01*
X-18651734Y-137566835D01*
X-18528398Y-137751421D01*
X-18371421Y-137908398D01*
X-18186835Y-138031734D01*
X-17981734Y-138116690D01*
X-17764000Y-138160000D01*
X-17542000Y-138160000D01*
X-17324266Y-138116690D01*
X-17119165Y-138031734D01*
X-16934579Y-137908398D01*
X-16777602Y-137751421D01*
X-16654266Y-137566835D01*
X-16569310Y-137361734D01*
X-16526000Y-137144000D01*
X-16526000Y-136922000D01*
X-16240000Y-136922000D01*
X-16240000Y-137144000D01*
X-16196690Y-137361734D01*
X-16111734Y-137566835D01*
X-15988398Y-137751421D01*
X-15831421Y-137908398D01*
X-15646835Y-138031734D01*
X-15441734Y-138116690D01*
X-15224000Y-138160000D01*
X-15002000Y-138160000D01*
X-14784266Y-138116690D01*
X-14579165Y-138031734D01*
X-14394579Y-137908398D01*
X-14237602Y-137751421D01*
X-14114266Y-137566835D01*
X-14029310Y-137361734D01*
X-13986000Y-137144000D01*
X-13986000Y-136922000D01*
X-13700000Y-136922000D01*
X-13700000Y-137144000D01*
X-13656690Y-137361734D01*
X-13571734Y-137566835D01*
X-13448398Y-137751421D01*
X-13291421Y-137908398D01*
X-13106835Y-138031734D01*
X-12901734Y-138116690D01*
X-12684000Y-138160000D01*
X-12462000Y-138160000D01*
X-12244266Y-138116690D01*
X-12039165Y-138031734D01*
X-11854579Y-137908398D01*
X-11697602Y-137751421D01*
X-11574266Y-137566835D01*
X-11489310Y-137361734D01*
X-11446000Y-137144000D01*
X-11446000Y-136922000D01*
X-11489310Y-136704266D01*
X-11574266Y-136499165D01*
X-11631171Y-136414000D01*
X3699000Y-136414000D01*
X3699000Y-136636000D01*
X3742310Y-136853734D01*
X3827266Y-137058835D01*
X3950602Y-137243421D01*
X4107579Y-137400398D01*
X4292165Y-137523734D01*
X4497266Y-137608690D01*
X4715000Y-137652000D01*
X4937000Y-137652000D01*
X5135480Y-137612520D01*
X5096000Y-137811000D01*
X5096000Y-138033000D01*
X5139310Y-138250734D01*
X5224266Y-138455835D01*
X5347602Y-138640421D01*
X5504579Y-138797398D01*
X5689165Y-138920734D01*
X5894266Y-139005690D01*
X6112000Y-139049000D01*
X6334000Y-139049000D01*
X6551734Y-139005690D01*
X6756835Y-138920734D01*
X6941421Y-138797398D01*
X7098398Y-138640421D01*
X7221734Y-138455835D01*
X7306690Y-138250734D01*
X7349204Y-138037000D01*
X30017977Y-138037000D01*
X30200165Y-138158734D01*
X30405266Y-138243690D01*
X30623000Y-138287000D01*
X30845000Y-138287000D01*
X31062734Y-138243690D01*
X31267835Y-138158734D01*
X31452421Y-138035398D01*
X31609398Y-137878421D01*
X31732734Y-137693835D01*
X31817690Y-137488734D01*
X31861000Y-137271000D01*
X31861000Y-137049000D01*
X31817690Y-136831266D01*
X31732734Y-136626165D01*
X31609398Y-136441579D01*
X31452421Y-136284602D01*
X31267835Y-136161266D01*
X31062734Y-136076310D01*
X30845000Y-136033000D01*
X30623000Y-136033000D01*
X30405266Y-136076310D01*
X30200165Y-136161266D01*
X30017977Y-136283000D01*
X11672467Y-136283000D01*
X11751692Y-136091736D01*
X11795002Y-135874002D01*
X11795002Y-135652002D01*
X11751692Y-135434268D01*
X11666736Y-135229167D01*
X11543400Y-135044581D01*
X11386423Y-134887604D01*
X11201837Y-134764268D01*
X10996736Y-134679312D01*
X10779002Y-134636002D01*
X10557002Y-134636002D01*
X10339268Y-134679312D01*
X10134167Y-134764268D01*
X9951979Y-134886002D01*
X6393077Y-134886002D01*
X6349998Y-134881759D01*
X6178075Y-134898692D01*
X6012761Y-134948840D01*
X5860406Y-135030275D01*
X5726865Y-135139869D01*
X5699406Y-135173329D01*
X5350383Y-135522351D01*
X5154734Y-135441310D01*
X4937000Y-135398000D01*
X4715000Y-135398000D01*
X4497266Y-135441310D01*
X4292165Y-135526266D01*
X4107579Y-135649602D01*
X3950602Y-135806579D01*
X3827266Y-135991165D01*
X3742310Y-136196266D01*
X3699000Y-136414000D01*
X-11631171Y-136414000D01*
X-11697602Y-136314579D01*
X-11854579Y-136157602D01*
X-12039165Y-136034266D01*
X-12244266Y-135949310D01*
X-12462000Y-135906000D01*
X-12684000Y-135906000D01*
X-12901734Y-135949310D01*
X-13106835Y-136034266D01*
X-13291421Y-136157602D01*
X-13448398Y-136314579D01*
X-13571734Y-136499165D01*
X-13656690Y-136704266D01*
X-13700000Y-136922000D01*
X-13986000Y-136922000D01*
X-14029310Y-136704266D01*
X-14114266Y-136499165D01*
X-14237602Y-136314579D01*
X-14394579Y-136157602D01*
X-14579165Y-136034266D01*
X-14784266Y-135949310D01*
X-15002000Y-135906000D01*
X-15224000Y-135906000D01*
X-15441734Y-135949310D01*
X-15646835Y-136034266D01*
X-15831421Y-136157602D01*
X-15988398Y-136314579D01*
X-16111734Y-136499165D01*
X-16196690Y-136704266D01*
X-16240000Y-136922000D01*
X-16526000Y-136922000D01*
X-16569310Y-136704266D01*
X-16654266Y-136499165D01*
X-16777602Y-136314579D01*
X-16934579Y-136157602D01*
X-17119165Y-136034266D01*
X-17324266Y-135949310D01*
X-17542000Y-135906000D01*
X-17764000Y-135906000D01*
X-17981734Y-135949310D01*
X-18186835Y-136034266D01*
X-18371421Y-136157602D01*
X-18528398Y-136314579D01*
X-18651734Y-136499165D01*
X-18736690Y-136704266D01*
X-18780000Y-136922000D01*
X-19066000Y-136922000D01*
X-19109310Y-136704266D01*
X-19194266Y-136499165D01*
X-19317602Y-136314579D01*
X-19474579Y-136157602D01*
X-19659165Y-136034266D01*
X-19864266Y-135949310D01*
X-20082000Y-135906000D01*
X-20304000Y-135906000D01*
X-20521734Y-135949310D01*
X-20726835Y-136034266D01*
X-20911421Y-136157602D01*
X-21068398Y-136314579D01*
X-21191734Y-136499165D01*
X-21276690Y-136704266D01*
X-21320000Y-136922000D01*
X-47508000Y-136922000D01*
X-47508000Y-131715004D01*
X-44688000Y-131715004D01*
X-44688000Y-131937004D01*
X-44644690Y-132154738D01*
X-44559734Y-132359839D01*
X-44436398Y-132544425D01*
X-44279421Y-132701402D01*
X-44094835Y-132824738D01*
X-43889734Y-132909694D01*
X-43672000Y-132953004D01*
X-43450000Y-132953004D01*
X-43232266Y-132909694D01*
X-43027165Y-132824738D01*
X-42844971Y-132703000D01*
X-34625023Y-132703000D01*
X-34442835Y-132824734D01*
X-34237734Y-132909690D01*
X-34020000Y-132953000D01*
X-33798000Y-132953000D01*
X-33580266Y-132909690D01*
X-33375165Y-132824734D01*
X-33190579Y-132701398D01*
X-33033602Y-132544421D01*
X-32910266Y-132359835D01*
X-32825310Y-132154734D01*
X-32782000Y-131937000D01*
X-32782000Y-131715000D01*
X-32825310Y-131497266D01*
X-32910266Y-131292165D01*
X-33033602Y-131107579D01*
X-33190579Y-130950602D01*
X-33375165Y-130827266D01*
X-33580266Y-130742310D01*
X-33798000Y-130699000D01*
X-34020000Y-130699000D01*
X-34237734Y-130742310D01*
X-34442835Y-130827266D01*
X-34625023Y-130949000D01*
X-37349524Y-130949000D01*
X-37270302Y-130757742D01*
X-37226992Y-130540008D01*
X-37226992Y-130318008D01*
X-37270302Y-130100274D01*
X-37355258Y-129895173D01*
X-37478594Y-129710587D01*
X-37635571Y-129553610D01*
X-37820157Y-129430274D01*
X-38025258Y-129345318D01*
X-38242992Y-129302008D01*
X-38464992Y-129302008D01*
X-38682726Y-129345318D01*
X-38887827Y-129430274D01*
X-39070003Y-129552000D01*
X-41828977Y-129552000D01*
X-42011165Y-129430266D01*
X-42216266Y-129345310D01*
X-42434000Y-129302000D01*
X-42656000Y-129302000D01*
X-42873734Y-129345310D01*
X-43078835Y-129430266D01*
X-43263421Y-129553602D01*
X-43420398Y-129710579D01*
X-43543734Y-129895165D01*
X-43628690Y-130100266D01*
X-43672000Y-130318000D01*
X-43672000Y-130540000D01*
X-43640372Y-130699004D01*
X-43672000Y-130699004D01*
X-43889734Y-130742314D01*
X-44094835Y-130827270D01*
X-44279421Y-130950606D01*
X-44436398Y-131107583D01*
X-44559734Y-131292169D01*
X-44644690Y-131497270D01*
X-44688000Y-131715004D01*
X-47508000Y-131715004D01*
X-47508000Y-128794000D01*
X-12176000Y-128794000D01*
X-12176000Y-129016000D01*
X-12132690Y-129233734D01*
X-12047734Y-129438835D01*
X-11924398Y-129623421D01*
X-11767421Y-129780398D01*
X-11582835Y-129903734D01*
X-11377734Y-129988690D01*
X-11160000Y-130032000D01*
X-10938000Y-130032000D01*
X-10720266Y-129988690D01*
X-10515165Y-129903734D01*
X-10374883Y-129810000D01*
X13859000Y-129810000D01*
X13859000Y-130032000D01*
X13902310Y-130249734D01*
X13987266Y-130454835D01*
X14110602Y-130639421D01*
X14267579Y-130796398D01*
X14452165Y-130919734D01*
X14657266Y-131004690D01*
X14875000Y-131048000D01*
X15097000Y-131048000D01*
X15314734Y-131004690D01*
X15519835Y-130919734D01*
X15704421Y-130796398D01*
X15861398Y-130639421D01*
X15984734Y-130454835D01*
X16000406Y-130417000D01*
X29928921Y-130417000D01*
X29972000Y-130421243D01*
X30015079Y-130417000D01*
X30055692Y-130413000D01*
X30095359Y-130409093D01*
X30115000Y-130413000D01*
X30337000Y-130413000D01*
X30554734Y-130369690D01*
X30759835Y-130284734D01*
X30944421Y-130161398D01*
X31101398Y-130004421D01*
X31224734Y-129819835D01*
X31309690Y-129614734D01*
X31353000Y-129397000D01*
X31353000Y-129175000D01*
X31309690Y-128957266D01*
X31224734Y-128752165D01*
X31101398Y-128567579D01*
X30944421Y-128410602D01*
X30759835Y-128287266D01*
X30554734Y-128202310D01*
X30337000Y-128159000D01*
X30115000Y-128159000D01*
X29897266Y-128202310D01*
X29692165Y-128287266D01*
X29507579Y-128410602D01*
X29350602Y-128567579D01*
X29286844Y-128663000D01*
X15578719Y-128663000D01*
X15557921Y-128656691D01*
X15385999Y-128639758D01*
X15385998Y-128639758D01*
X15214076Y-128656691D01*
X15048762Y-128706839D01*
X14896407Y-128788275D01*
X14889431Y-128794000D01*
X14875000Y-128794000D01*
X14657266Y-128837310D01*
X14452165Y-128922266D01*
X14267579Y-129045602D01*
X14110602Y-129202579D01*
X13987266Y-129387165D01*
X13902310Y-129592266D01*
X13859000Y-129810000D01*
X-10374883Y-129810000D01*
X-10332977Y-129782000D01*
X4401921Y-129782000D01*
X4445000Y-129786243D01*
X4488079Y-129782000D01*
X4504345Y-129780398D01*
X4616922Y-129769310D01*
X4782237Y-129719162D01*
X4909760Y-129651000D01*
X4937000Y-129651000D01*
X5154734Y-129607690D01*
X5359835Y-129522734D01*
X5544421Y-129399398D01*
X5701398Y-129242421D01*
X5824734Y-129057835D01*
X5909690Y-128852734D01*
X5953000Y-128635000D01*
X5953000Y-128413000D01*
X5909690Y-128195266D01*
X5824734Y-127990165D01*
X5701398Y-127805579D01*
X5544421Y-127648602D01*
X5359835Y-127525266D01*
X5154734Y-127440310D01*
X4937000Y-127397000D01*
X4715000Y-127397000D01*
X4497266Y-127440310D01*
X4292165Y-127525266D01*
X4107579Y-127648602D01*
X3950602Y-127805579D01*
X3827266Y-127990165D01*
X3811594Y-128028000D01*
X-10332977Y-128028000D01*
X-10515165Y-127906266D01*
X-10720266Y-127821310D01*
X-10938000Y-127778000D01*
X-11160000Y-127778000D01*
X-11377734Y-127821310D01*
X-11582835Y-127906266D01*
X-11767421Y-128029602D01*
X-11924398Y-128186579D01*
X-12047734Y-128371165D01*
X-12132690Y-128576266D01*
X-12176000Y-128794000D01*
X-47508000Y-128794000D01*
X-47508000Y-118888000D01*
X-44561000Y-118888000D01*
X-44561000Y-119110000D01*
X-44517690Y-119327734D01*
X-44432734Y-119532835D01*
X-44309398Y-119717421D01*
X-44152421Y-119874398D01*
X-43967835Y-119997734D01*
X-43762734Y-120082690D01*
X-43545000Y-120126000D01*
X-43323000Y-120126000D01*
X-43303359Y-120122093D01*
X-43223079Y-120130000D01*
X-43223070Y-120130000D01*
X-43180001Y-120134242D01*
X-43136931Y-120130000D01*
X-38943023Y-120130000D01*
X-38760835Y-120251734D01*
X-38555734Y-120336690D01*
X-38338000Y-120380000D01*
X-38116000Y-120380000D01*
X-37898266Y-120336690D01*
X-37693165Y-120251734D01*
X-37508579Y-120128398D01*
X-37351602Y-119971421D01*
X-37228266Y-119786835D01*
X-37143310Y-119581734D01*
X-37100000Y-119364000D01*
X-37100000Y-119142000D01*
X-37143310Y-118924266D01*
X-37228266Y-118719165D01*
X-37351602Y-118534579D01*
X-37508579Y-118377602D01*
X-37693165Y-118254266D01*
X-37898266Y-118169310D01*
X-38116000Y-118126000D01*
X-38338000Y-118126000D01*
X-38555734Y-118169310D01*
X-38760835Y-118254266D01*
X-38943023Y-118376000D01*
X-42494844Y-118376000D01*
X-42558602Y-118280579D01*
X-42715579Y-118123602D01*
X-42900165Y-118000266D01*
X-43105266Y-117915310D01*
X-43323000Y-117872000D01*
X-43545000Y-117872000D01*
X-43762734Y-117915310D01*
X-43967835Y-118000266D01*
X-44152421Y-118123602D01*
X-44309398Y-118280579D01*
X-44432734Y-118465165D01*
X-44517690Y-118670266D01*
X-44561000Y-118888000D01*
X-47508000Y-118888000D01*
X-47508000Y-115967000D01*
X-45450000Y-115967000D01*
X-45450000Y-116189000D01*
X-45406690Y-116406734D01*
X-45321734Y-116611835D01*
X-45198398Y-116796421D01*
X-45041421Y-116953398D01*
X-44856835Y-117076734D01*
X-44651734Y-117161690D01*
X-44434000Y-117205000D01*
X-44212000Y-117205000D01*
X-43994266Y-117161690D01*
X-43789165Y-117076734D01*
X-43604579Y-116953398D01*
X-43479181Y-116828000D01*
X-35641023Y-116828000D01*
X-35458835Y-116949734D01*
X-35253734Y-117034690D01*
X-35036000Y-117078000D01*
X-34814000Y-117078000D01*
X-34596266Y-117034690D01*
X-34391165Y-116949734D01*
X-34206579Y-116826398D01*
X-34049602Y-116669421D01*
X-33926266Y-116484835D01*
X-33841310Y-116279734D01*
X-33798000Y-116062000D01*
X-33798000Y-115840000D01*
X-33841310Y-115622266D01*
X-33926266Y-115417165D01*
X-34049602Y-115232579D01*
X-34206579Y-115075602D01*
X-34391165Y-114952266D01*
X-34596266Y-114867310D01*
X-34814000Y-114824000D01*
X-35036000Y-114824000D01*
X-35253734Y-114867310D01*
X-35458835Y-114952266D01*
X-35641023Y-115074000D01*
X-43801878Y-115074000D01*
X-43994266Y-114994310D01*
X-44212000Y-114951000D01*
X-44434000Y-114951000D01*
X-44651734Y-114994310D01*
X-44856835Y-115079266D01*
X-45041421Y-115202602D01*
X-45198398Y-115359579D01*
X-45321734Y-115544165D01*
X-45406690Y-115749266D01*
X-45450000Y-115967000D01*
X-47508000Y-115967000D01*
X-47508000Y-112522000D01*
X-1994936Y-112522000D01*
X-1971245Y-112762534D01*
X-1901084Y-112993824D01*
X-1787149Y-113206983D01*
X-1633817Y-113393817D01*
X-1446983Y-113547149D01*
X-1233824Y-113661084D01*
X-1002534Y-113731245D01*
X-822268Y-113749000D01*
X4886268Y-113749000D01*
X5066534Y-113731245D01*
X5297824Y-113661084D01*
X5510983Y-113547149D01*
X5697817Y-113393817D01*
X5851149Y-113206983D01*
X5965084Y-112993824D01*
X6035245Y-112762534D01*
X6041398Y-112700068D01*
X6080000Y-112506000D01*
X6080000Y-112284000D01*
X6036690Y-112066266D01*
X5951734Y-111861165D01*
X5828398Y-111676579D01*
X5671421Y-111519602D01*
X5486835Y-111396266D01*
X5281734Y-111311310D01*
X5064000Y-111268000D01*
X4842000Y-111268000D01*
X4706262Y-111295000D01*
X-822268Y-111295000D01*
X-1002534Y-111312755D01*
X-1233824Y-111382916D01*
X-1446983Y-111496851D01*
X-1633817Y-111650183D01*
X-1787149Y-111837017D01*
X-1901084Y-112050176D01*
X-1971245Y-112281466D01*
X-1994936Y-112522000D01*
X-47508000Y-112522000D01*
X-47508000Y-106807000D01*
X-5547057Y-106807000D01*
X-5522884Y-107052435D01*
X-5451293Y-107288438D01*
X-5369212Y-107442000D01*
X-5451293Y-107595562D01*
X-5522884Y-107831565D01*
X-5547057Y-108077000D01*
X-5522884Y-108322435D01*
X-5451293Y-108558438D01*
X-5335036Y-108775939D01*
X-5178581Y-108966581D01*
X-4987939Y-109123036D01*
X-4770438Y-109239293D01*
X-4534435Y-109310884D01*
X-4350498Y-109329000D01*
X-3777502Y-109329000D01*
X-3593565Y-109310884D01*
X-3357562Y-109239293D01*
X-3140061Y-109123036D01*
X-2949419Y-108966581D01*
X-2792964Y-108775939D01*
X-2676707Y-108558438D01*
X-2605116Y-108322435D01*
X-2580943Y-108077000D01*
X-2605116Y-107831565D01*
X-2676707Y-107595562D01*
X-2758788Y-107442000D01*
X-2676707Y-107288438D01*
X-2605116Y-107052435D01*
X-2580943Y-106807000D01*
X-2605116Y-106561565D01*
X-2676707Y-106325562D01*
X-2710946Y-106261505D01*
X-2688188Y-106186482D01*
X-2675928Y-106062000D01*
X-2679000Y-105822750D01*
X-2837750Y-105664000D01*
X-3321467Y-105664000D01*
X-3357562Y-105644707D01*
X-3593565Y-105573116D01*
X-3777502Y-105555000D01*
X-4350498Y-105555000D01*
X-4534435Y-105573116D01*
X-4770438Y-105644707D01*
X-4806533Y-105664000D01*
X-5290250Y-105664000D01*
X-5449000Y-105822750D01*
X-5452072Y-106062000D01*
X-5439812Y-106186482D01*
X-5417054Y-106261505D01*
X-5451293Y-106325562D01*
X-5522884Y-106561565D01*
X-5547057Y-106807000D01*
X-47508000Y-106807000D01*
X-47508000Y-105012000D01*
X-5452072Y-105012000D01*
X-5449000Y-105251250D01*
X-5290250Y-105410000D01*
X-4191000Y-105410000D01*
X-4191000Y-104535750D01*
X-3937000Y-104535750D01*
X-3937000Y-105410000D01*
X-2837750Y-105410000D01*
X-2679000Y-105251250D01*
X-2675928Y-105012000D01*
X-2688188Y-104887518D01*
X-2724498Y-104767820D01*
X-2783463Y-104657506D01*
X-2862815Y-104560815D01*
X-2959506Y-104481463D01*
X-3069820Y-104422498D01*
X-3189518Y-104386188D01*
X-3314000Y-104373928D01*
X-3778250Y-104377000D01*
X-3937000Y-104535750D01*
X-4191000Y-104535750D01*
X-4349750Y-104377000D01*
X-4814000Y-104373928D01*
X-4938482Y-104386188D01*
X-5058180Y-104422498D01*
X-5168494Y-104481463D01*
X-5265185Y-104560815D01*
X-5344537Y-104657506D01*
X-5403502Y-104767820D01*
X-5439812Y-104887518D01*
X-5452072Y-105012000D01*
X-47508000Y-105012000D01*
X-47508000Y-98806000D01*
X-5547057Y-98806000D01*
X-5522884Y-99051435D01*
X-5451293Y-99287438D01*
X-5369212Y-99441000D01*
X-5451293Y-99594562D01*
X-5522884Y-99830565D01*
X-5547057Y-100076000D01*
X-5522884Y-100321435D01*
X-5451293Y-100557438D01*
X-5335036Y-100774939D01*
X-5178581Y-100965581D01*
X-4987939Y-101122036D01*
X-4770438Y-101238293D01*
X-4534435Y-101309884D01*
X-4350498Y-101328000D01*
X-3777502Y-101328000D01*
X-3593565Y-101309884D01*
X-3357562Y-101238293D01*
X-3140061Y-101122036D01*
X-2949419Y-100965581D01*
X-2792964Y-100774939D01*
X-2676707Y-100557438D01*
X-2605116Y-100321435D01*
X-2580943Y-100076000D01*
X-2605116Y-99830565D01*
X-2676707Y-99594562D01*
X-2758788Y-99441000D01*
X-2676707Y-99287438D01*
X-2605116Y-99051435D01*
X-2580943Y-98806000D01*
X-2605116Y-98560565D01*
X-2676707Y-98324562D01*
X-2710946Y-98260505D01*
X-2688188Y-98185482D01*
X-2675928Y-98061000D01*
X-2679000Y-97821750D01*
X-2837750Y-97663000D01*
X-3321467Y-97663000D01*
X-3357562Y-97643707D01*
X-3593565Y-97572116D01*
X-3777502Y-97554000D01*
X-4350498Y-97554000D01*
X-4534435Y-97572116D01*
X-4770438Y-97643707D01*
X-4806533Y-97663000D01*
X-5290250Y-97663000D01*
X-5449000Y-97821750D01*
X-5452072Y-98061000D01*
X-5439812Y-98185482D01*
X-5417054Y-98260505D01*
X-5451293Y-98324562D01*
X-5522884Y-98560565D01*
X-5547057Y-98806000D01*
X-47508000Y-98806000D01*
X-47508000Y-97011000D01*
X-5452072Y-97011000D01*
X-5449000Y-97250250D01*
X-5290250Y-97409000D01*
X-4191000Y-97409000D01*
X-4191000Y-96534750D01*
X-3937000Y-96534750D01*
X-3937000Y-97409000D01*
X-2837750Y-97409000D01*
X-2679000Y-97250250D01*
X-2675928Y-97011000D01*
X-2688188Y-96886518D01*
X-2724498Y-96766820D01*
X-2779991Y-96663000D01*
X5985000Y-96663000D01*
X5985000Y-96885000D01*
X6028310Y-97102734D01*
X6113266Y-97307835D01*
X6236602Y-97492421D01*
X6393579Y-97649398D01*
X6578165Y-97772734D01*
X6783266Y-97857690D01*
X7001000Y-97901000D01*
X7223000Y-97901000D01*
X7440734Y-97857690D01*
X7645835Y-97772734D01*
X7830421Y-97649398D01*
X7955819Y-97524000D01*
X9721181Y-97524000D01*
X9665602Y-97579579D01*
X9542266Y-97764165D01*
X9457310Y-97969266D01*
X9414000Y-98187000D01*
X9414000Y-98409000D01*
X9457310Y-98626734D01*
X9542266Y-98831835D01*
X9665602Y-99016421D01*
X9822579Y-99173398D01*
X10007165Y-99296734D01*
X10212266Y-99381690D01*
X10430000Y-99425000D01*
X10652000Y-99425000D01*
X10869734Y-99381690D01*
X11074835Y-99296734D01*
X11257023Y-99175000D01*
X17568058Y-99175000D01*
X17585310Y-99261734D01*
X17670266Y-99466835D01*
X17793602Y-99651421D01*
X17950579Y-99808398D01*
X18135165Y-99931734D01*
X18340266Y-100016690D01*
X18558000Y-100060000D01*
X18780000Y-100060000D01*
X18997734Y-100016690D01*
X19202835Y-99931734D01*
X19387421Y-99808398D01*
X19544398Y-99651421D01*
X19667734Y-99466835D01*
X19752690Y-99261734D01*
X19796000Y-99044000D01*
X19796000Y-98822000D01*
X19752690Y-98604266D01*
X19667734Y-98399165D01*
X19544398Y-98214579D01*
X19387421Y-98057602D01*
X19202835Y-97934266D01*
X18997734Y-97849310D01*
X18782827Y-97806562D01*
X18750265Y-97774000D01*
X18780000Y-97774000D01*
X18997734Y-97730690D01*
X19202835Y-97645734D01*
X19387421Y-97522398D01*
X19544398Y-97365421D01*
X19667734Y-97180835D01*
X19752690Y-96975734D01*
X19796000Y-96758000D01*
X19796000Y-96536000D01*
X19752690Y-96318266D01*
X19667734Y-96113165D01*
X19544398Y-95928579D01*
X19387421Y-95771602D01*
X19202835Y-95648266D01*
X18997734Y-95563310D01*
X18780000Y-95520000D01*
X18558000Y-95520000D01*
X18340266Y-95563310D01*
X18135165Y-95648266D01*
X17952977Y-95770000D01*
X7633122Y-95770000D01*
X7440734Y-95690310D01*
X7223000Y-95647000D01*
X7001000Y-95647000D01*
X6783266Y-95690310D01*
X6578165Y-95775266D01*
X6393579Y-95898602D01*
X6236602Y-96055579D01*
X6113266Y-96240165D01*
X6028310Y-96445266D01*
X5985000Y-96663000D01*
X-2779991Y-96663000D01*
X-2783463Y-96656506D01*
X-2862815Y-96559815D01*
X-2959506Y-96480463D01*
X-3069820Y-96421498D01*
X-3189518Y-96385188D01*
X-3314000Y-96372928D01*
X-3778250Y-96376000D01*
X-3937000Y-96534750D01*
X-4191000Y-96534750D01*
X-4349750Y-96376000D01*
X-4814000Y-96372928D01*
X-4938482Y-96385188D01*
X-5058180Y-96421498D01*
X-5168494Y-96480463D01*
X-5265185Y-96559815D01*
X-5344537Y-96656506D01*
X-5403502Y-96766820D01*
X-5439812Y-96886518D01*
X-5452072Y-97011000D01*
X-47508000Y-97011000D01*
X-47508000Y-93869000D01*
X-746000Y-93869000D01*
X-746000Y-94091000D01*
X-702690Y-94308734D01*
X-617734Y-94513835D01*
X-494398Y-94698421D01*
X-337421Y-94855398D01*
X-152835Y-94978734D01*
X52266Y-95063690D01*
X270000Y-95107000D01*
X492000Y-95107000D01*
X511641Y-95103093D01*
X591921Y-95111000D01*
X591930Y-95111000D01*
X634999Y-95115242D01*
X678069Y-95111000D01*
X25826977Y-95111000D01*
X26009165Y-95232734D01*
X26214266Y-95317690D01*
X26432000Y-95361000D01*
X26654000Y-95361000D01*
X26871734Y-95317690D01*
X27076835Y-95232734D01*
X27261421Y-95109398D01*
X27418398Y-94952421D01*
X27541734Y-94767835D01*
X27626690Y-94562734D01*
X27670000Y-94345000D01*
X27670000Y-94123000D01*
X27626690Y-93905266D01*
X27541734Y-93700165D01*
X27418398Y-93515579D01*
X27261421Y-93358602D01*
X27076835Y-93235266D01*
X26871734Y-93150310D01*
X26654000Y-93107000D01*
X26432000Y-93107000D01*
X26214266Y-93150310D01*
X26009165Y-93235266D01*
X25826977Y-93357000D01*
X1320156Y-93357000D01*
X1256398Y-93261579D01*
X1099421Y-93104602D01*
X914835Y-92981266D01*
X709734Y-92896310D01*
X492000Y-92853000D01*
X270000Y-92853000D01*
X52266Y-92896310D01*
X-152835Y-92981266D01*
X-337421Y-93104602D01*
X-494398Y-93261579D01*
X-617734Y-93446165D01*
X-702690Y-93651266D01*
X-746000Y-93869000D01*
X-47508000Y-93869000D01*
X-47508000Y-90170000D01*
X-5420057Y-90170000D01*
X-5395884Y-90415435D01*
X-5324293Y-90651438D01*
X-5242212Y-90805000D01*
X-5324293Y-90958562D01*
X-5395884Y-91194565D01*
X-5420057Y-91440000D01*
X-5395884Y-91685435D01*
X-5324293Y-91921438D01*
X-5208036Y-92138939D01*
X-5051581Y-92329581D01*
X-4860939Y-92486036D01*
X-4643438Y-92602293D01*
X-4407435Y-92673884D01*
X-4223498Y-92692000D01*
X-3650502Y-92692000D01*
X-3466565Y-92673884D01*
X-3230562Y-92602293D01*
X-3013061Y-92486036D01*
X-2822419Y-92329581D01*
X-2665964Y-92138939D01*
X-2549707Y-91921438D01*
X-2478116Y-91685435D01*
X-2453943Y-91440000D01*
X-2478116Y-91194565D01*
X-2549707Y-90958562D01*
X-2631788Y-90805000D01*
X-2549707Y-90651438D01*
X-2478116Y-90415435D01*
X-2453943Y-90170000D01*
X-2478116Y-89924565D01*
X-2549707Y-89688562D01*
X-2583946Y-89624505D01*
X-2561188Y-89549482D01*
X-2548928Y-89425000D01*
X-2552000Y-89185750D01*
X-2710750Y-89027000D01*
X-3194467Y-89027000D01*
X-3230562Y-89007707D01*
X-3466565Y-88936116D01*
X-3650502Y-88918000D01*
X-4223498Y-88918000D01*
X-4407435Y-88936116D01*
X-4643438Y-89007707D01*
X-4679533Y-89027000D01*
X-5163250Y-89027000D01*
X-5322000Y-89185750D01*
X-5325072Y-89425000D01*
X-5312812Y-89549482D01*
X-5290054Y-89624505D01*
X-5324293Y-89688562D01*
X-5395884Y-89924565D01*
X-5420057Y-90170000D01*
X-47508000Y-90170000D01*
X-47508000Y-88375000D01*
X-5325072Y-88375000D01*
X-5322000Y-88614250D01*
X-5163250Y-88773000D01*
X-4064000Y-88773000D01*
X-4064000Y-87898750D01*
X-3810000Y-87898750D01*
X-3810000Y-88773000D01*
X-2710750Y-88773000D01*
X-2552000Y-88614250D01*
X-2548928Y-88375000D01*
X-2561188Y-88250518D01*
X-2597498Y-88130820D01*
X-2656463Y-88020506D01*
X-2735815Y-87923815D01*
X-2832506Y-87844463D01*
X-2942820Y-87785498D01*
X-3062518Y-87749188D01*
X-3187000Y-87736928D01*
X-3651250Y-87740000D01*
X-3810000Y-87898750D01*
X-4064000Y-87898750D01*
X-4222750Y-87740000D01*
X-4687000Y-87736928D01*
X-4811482Y-87749188D01*
X-4931180Y-87785498D01*
X-5041494Y-87844463D01*
X-5138185Y-87923815D01*
X-5217537Y-88020506D01*
X-5276502Y-88130820D01*
X-5312812Y-88250518D01*
X-5325072Y-88375000D01*
X-47508000Y-88375000D01*
X-47508000Y-82550000D01*
X-5293057Y-82550000D01*
X-5268884Y-82795435D01*
X-5197293Y-83031438D01*
X-5115212Y-83185000D01*
X-5197293Y-83338562D01*
X-5268884Y-83574565D01*
X-5293057Y-83820000D01*
X-5268884Y-84065435D01*
X-5197293Y-84301438D01*
X-5081036Y-84518939D01*
X-4924581Y-84709581D01*
X-4733939Y-84866036D01*
X-4516438Y-84982293D01*
X-4280435Y-85053884D01*
X-4096498Y-85072000D01*
X-3523502Y-85072000D01*
X-3339565Y-85053884D01*
X-3103562Y-84982293D01*
X-2886061Y-84866036D01*
X-2695419Y-84709581D01*
X-2538964Y-84518939D01*
X-2422707Y-84301438D01*
X-2351116Y-84065435D01*
X-2326943Y-83820000D01*
X-2351116Y-83574565D01*
X-2422707Y-83338562D01*
X-2504788Y-83185000D01*
X-2422707Y-83031438D01*
X-2351116Y-82795435D01*
X-2326943Y-82550000D01*
X-2351116Y-82304565D01*
X-2422707Y-82068562D01*
X-2456946Y-82004505D01*
X-2434188Y-81929482D01*
X-2421928Y-81805000D01*
X-2425000Y-81565750D01*
X-2583750Y-81407000D01*
X-3067467Y-81407000D01*
X-3103562Y-81387707D01*
X-3339565Y-81316116D01*
X-3523502Y-81298000D01*
X-4096498Y-81298000D01*
X-4280435Y-81316116D01*
X-4516438Y-81387707D01*
X-4552533Y-81407000D01*
X-5036250Y-81407000D01*
X-5195000Y-81565750D01*
X-5198072Y-81805000D01*
X-5185812Y-81929482D01*
X-5163054Y-82004505D01*
X-5197293Y-82068562D01*
X-5268884Y-82304565D01*
X-5293057Y-82550000D01*
X-47508000Y-82550000D01*
X-47508000Y-80755000D01*
X-5198072Y-80755000D01*
X-5195000Y-80994250D01*
X-5036250Y-81153000D01*
X-3937000Y-81153000D01*
X-3937000Y-80278750D01*
X-3683000Y-80278750D01*
X-3683000Y-81153000D01*
X-2583750Y-81153000D01*
X-2425000Y-80994250D01*
X-2421928Y-80755000D01*
X-2434188Y-80630518D01*
X-2470498Y-80510820D01*
X-2529463Y-80400506D01*
X-2608815Y-80303815D01*
X-2705506Y-80224463D01*
X-2815820Y-80165498D01*
X-2935518Y-80129188D01*
X-3060000Y-80116928D01*
X-3524250Y-80120000D01*
X-3683000Y-80278750D01*
X-3937000Y-80278750D01*
X-4095750Y-80120000D01*
X-4560000Y-80116928D01*
X-4684482Y-80129188D01*
X-4804180Y-80165498D01*
X-4914494Y-80224463D01*
X-5011185Y-80303815D01*
X-5090537Y-80400506D01*
X-5149502Y-80510820D01*
X-5185812Y-80630518D01*
X-5198072Y-80755000D01*
X-47508000Y-80755000D01*
X-47508000Y-69358000D01*
X-39608000Y-69358000D01*
X-39608000Y-69580000D01*
X-39564690Y-69797734D01*
X-39479734Y-70002835D01*
X-39356398Y-70187421D01*
X-39199421Y-70344398D01*
X-39014835Y-70467734D01*
X-38809734Y-70552690D01*
X-38592000Y-70596000D01*
X-38370000Y-70596000D01*
X-38152266Y-70552690D01*
X-37947165Y-70467734D01*
X-37762579Y-70344398D01*
X-37605602Y-70187421D01*
X-37482266Y-70002835D01*
X-37397310Y-69797734D01*
X-37354000Y-69580000D01*
X-37354000Y-69358000D01*
X-37068000Y-69358000D01*
X-37068000Y-69580000D01*
X-37024690Y-69797734D01*
X-36939734Y-70002835D01*
X-36816398Y-70187421D01*
X-36659421Y-70344398D01*
X-36474835Y-70467734D01*
X-36269734Y-70552690D01*
X-36052000Y-70596000D01*
X-35830000Y-70596000D01*
X-35612266Y-70552690D01*
X-35407165Y-70467734D01*
X-35222579Y-70344398D01*
X-35065602Y-70187421D01*
X-34942266Y-70002835D01*
X-34857310Y-69797734D01*
X-34820366Y-69612000D01*
X-17256000Y-69612000D01*
X-17256000Y-69834000D01*
X-17212690Y-70051734D01*
X-17127734Y-70256835D01*
X-17004398Y-70441421D01*
X-16847421Y-70598398D01*
X-16662835Y-70721734D01*
X-16457734Y-70806690D01*
X-16240000Y-70850000D01*
X-16018000Y-70850000D01*
X-15800266Y-70806690D01*
X-15595165Y-70721734D01*
X-15412977Y-70600000D01*
X-10749023Y-70600000D01*
X-10566835Y-70721734D01*
X-10361734Y-70806690D01*
X-10144000Y-70850000D01*
X-9922000Y-70850000D01*
X-9704266Y-70806690D01*
X-9499165Y-70721734D01*
X-9314579Y-70598398D01*
X-9157602Y-70441421D01*
X-9034266Y-70256835D01*
X-8949310Y-70051734D01*
X-8906000Y-69834000D01*
X-8906000Y-69612000D01*
X-8949310Y-69394266D01*
X-9034266Y-69189165D01*
X-9109880Y-69076000D01*
X-5288825Y-69076000D01*
X-5163421Y-69201404D01*
X-4978835Y-69324740D01*
X-4773734Y-69409696D01*
X-4556000Y-69453006D01*
X-4334000Y-69453006D01*
X-4116266Y-69409696D01*
X-3911165Y-69324740D01*
X-3726579Y-69201404D01*
X-3569602Y-69044427D01*
X-3446266Y-68859841D01*
X-3361310Y-68654740D01*
X-3318000Y-68437006D01*
X-3318000Y-68215006D01*
X-3361310Y-67997272D01*
X-3446266Y-67792171D01*
X-3569602Y-67607585D01*
X-3625187Y-67552000D01*
X426977Y-67552000D01*
X609165Y-67673734D01*
X814266Y-67758690D01*
X1032000Y-67802000D01*
X1254000Y-67802000D01*
X1471734Y-67758690D01*
X1676835Y-67673734D01*
X1861421Y-67550398D01*
X2018398Y-67393421D01*
X2141734Y-67208835D01*
X2226690Y-67003734D01*
X2270000Y-66786000D01*
X2270000Y-66564000D01*
X2226690Y-66346266D01*
X2141734Y-66141165D01*
X2018398Y-65956579D01*
X1861421Y-65799602D01*
X1676835Y-65676266D01*
X1471734Y-65591310D01*
X1254000Y-65548000D01*
X1032000Y-65548000D01*
X814266Y-65591310D01*
X609165Y-65676266D01*
X426977Y-65798000D01*
X-15285977Y-65798000D01*
X-15468165Y-65676266D01*
X-15673266Y-65591310D01*
X-15891000Y-65548000D01*
X-16113000Y-65548000D01*
X-16330734Y-65591310D01*
X-16535835Y-65676266D01*
X-16720421Y-65799602D01*
X-16877398Y-65956579D01*
X-17000734Y-66141165D01*
X-17085690Y-66346266D01*
X-17129000Y-66564000D01*
X-17129000Y-66786000D01*
X-17085690Y-67003734D01*
X-17000734Y-67208835D01*
X-16877398Y-67393421D01*
X-16833819Y-67437000D01*
X-16877398Y-67480579D01*
X-17000734Y-67665165D01*
X-17085690Y-67870266D01*
X-17129000Y-68088000D01*
X-17129000Y-68310000D01*
X-17085690Y-68527734D01*
X-17000734Y-68732835D01*
X-16893356Y-68893537D01*
X-17004398Y-69004579D01*
X-17127734Y-69189165D01*
X-17212690Y-69394266D01*
X-17256000Y-69612000D01*
X-34820366Y-69612000D01*
X-34814000Y-69580000D01*
X-34814000Y-69358000D01*
X-34857310Y-69140266D01*
X-34942266Y-68935165D01*
X-35065602Y-68750579D01*
X-35222579Y-68593602D01*
X-35407165Y-68470266D01*
X-35612266Y-68385310D01*
X-35830000Y-68342000D01*
X-36052000Y-68342000D01*
X-36269734Y-68385310D01*
X-36474835Y-68470266D01*
X-36659421Y-68593602D01*
X-36816398Y-68750579D01*
X-36939734Y-68935165D01*
X-37024690Y-69140266D01*
X-37068000Y-69358000D01*
X-37354000Y-69358000D01*
X-37397310Y-69140266D01*
X-37482266Y-68935165D01*
X-37605602Y-68750579D01*
X-37762579Y-68593602D01*
X-37947165Y-68470266D01*
X-38152266Y-68385310D01*
X-38370000Y-68342000D01*
X-38592000Y-68342000D01*
X-38809734Y-68385310D01*
X-39014835Y-68470266D01*
X-39199421Y-68593602D01*
X-39356398Y-68750579D01*
X-39479734Y-68935165D01*
X-39564690Y-69140266D01*
X-39608000Y-69358000D01*
X-47508000Y-69358000D01*
X-47508000Y-66818000D01*
X-39608000Y-66818000D01*
X-39608000Y-67040000D01*
X-39564690Y-67257734D01*
X-39479734Y-67462835D01*
X-39356398Y-67647421D01*
X-39199421Y-67804398D01*
X-39014835Y-67927734D01*
X-38809734Y-68012690D01*
X-38592000Y-68056000D01*
X-38370000Y-68056000D01*
X-38152266Y-68012690D01*
X-37947165Y-67927734D01*
X-37762579Y-67804398D01*
X-37605602Y-67647421D01*
X-37482266Y-67462835D01*
X-37397310Y-67257734D01*
X-37354000Y-67040000D01*
X-37354000Y-66818000D01*
X-37068000Y-66818000D01*
X-37068000Y-67040000D01*
X-37024690Y-67257734D01*
X-36939734Y-67462835D01*
X-36816398Y-67647421D01*
X-36659421Y-67804398D01*
X-36474835Y-67927734D01*
X-36269734Y-68012690D01*
X-36052000Y-68056000D01*
X-35830000Y-68056000D01*
X-35612266Y-68012690D01*
X-35407165Y-67927734D01*
X-35222579Y-67804398D01*
X-35065602Y-67647421D01*
X-34942266Y-67462835D01*
X-34857310Y-67257734D01*
X-34814000Y-67040000D01*
X-34814000Y-66818000D01*
X-34857310Y-66600266D01*
X-34942266Y-66395165D01*
X-35065602Y-66210579D01*
X-35222579Y-66053602D01*
X-35407165Y-65930266D01*
X-35612266Y-65845310D01*
X-35830000Y-65802000D01*
X-36052000Y-65802000D01*
X-36269734Y-65845310D01*
X-36474835Y-65930266D01*
X-36659421Y-66053602D01*
X-36816398Y-66210579D01*
X-36939734Y-66395165D01*
X-37024690Y-66600266D01*
X-37068000Y-66818000D01*
X-37354000Y-66818000D01*
X-37397310Y-66600266D01*
X-37482266Y-66395165D01*
X-37605602Y-66210579D01*
X-37762579Y-66053602D01*
X-37947165Y-65930266D01*
X-38152266Y-65845310D01*
X-38370000Y-65802000D01*
X-38592000Y-65802000D01*
X-38809734Y-65845310D01*
X-39014835Y-65930266D01*
X-39199421Y-66053602D01*
X-39356398Y-66210579D01*
X-39479734Y-66395165D01*
X-39564690Y-66600266D01*
X-39608000Y-66818000D01*
X-47508000Y-66818000D01*
X-47508000Y-43180000D01*
X-39684630Y-43180000D01*
X-39654182Y-43489146D01*
X-39564007Y-43786412D01*
X-39417572Y-44060373D01*
X-39220503Y-44300503D01*
X-39038340Y-44450000D01*
X-39220503Y-44599497D01*
X-39417572Y-44839627D01*
X-39564007Y-45113588D01*
X-39654182Y-45410854D01*
X-39684630Y-45720000D01*
X-39654182Y-46029146D01*
X-39564007Y-46326412D01*
X-39417572Y-46600373D01*
X-39220503Y-46840503D01*
X-39038340Y-46990000D01*
X-39220503Y-47139497D01*
X-39417572Y-47379627D01*
X-39564007Y-47653588D01*
X-39654182Y-47950854D01*
X-39684630Y-48260000D01*
X-39654182Y-48569146D01*
X-39564007Y-48866412D01*
X-39417572Y-49140373D01*
X-39220503Y-49380503D01*
X-39038340Y-49530000D01*
X-39220503Y-49679497D01*
X-39417572Y-49919627D01*
X-39564007Y-50193588D01*
X-39654182Y-50490854D01*
X-39684630Y-50800000D01*
X-39654182Y-51109146D01*
X-39564007Y-51406412D01*
X-39417572Y-51680373D01*
X-39220503Y-51920503D01*
X-39038340Y-52070000D01*
X-39220503Y-52219497D01*
X-39417572Y-52459627D01*
X-39564007Y-52733588D01*
X-39654182Y-53030854D01*
X-39684630Y-53340000D01*
X-39654182Y-53649146D01*
X-39564007Y-53946412D01*
X-39417572Y-54220373D01*
X-39220503Y-54460503D01*
X-39038340Y-54610000D01*
X-39220503Y-54759497D01*
X-39417572Y-54999627D01*
X-39564007Y-55273588D01*
X-39654182Y-55570854D01*
X-39684630Y-55880000D01*
X-39654182Y-56189146D01*
X-39564007Y-56486412D01*
X-39417572Y-56760373D01*
X-39220503Y-57000503D01*
X-39038340Y-57150000D01*
X-39220503Y-57299497D01*
X-39417572Y-57539627D01*
X-39564007Y-57813588D01*
X-39654182Y-58110854D01*
X-39684630Y-58420000D01*
X-39654182Y-58729146D01*
X-39564007Y-59026412D01*
X-39417572Y-59300373D01*
X-39220503Y-59540503D01*
X-39038340Y-59690000D01*
X-39220503Y-59839497D01*
X-39417572Y-60079627D01*
X-39564007Y-60353588D01*
X-39654182Y-60650854D01*
X-39684630Y-60960000D01*
X-39654182Y-61269146D01*
X-39564007Y-61566412D01*
X-39417572Y-61840373D01*
X-39220503Y-62080503D01*
X-39038340Y-62230000D01*
X-39220503Y-62379497D01*
X-39417572Y-62619627D01*
X-39564007Y-62893588D01*
X-39654182Y-63190854D01*
X-39684630Y-63500000D01*
X-39654182Y-63809146D01*
X-39564007Y-64106412D01*
X-39417572Y-64380373D01*
X-39220503Y-64620503D01*
X-38980373Y-64817572D01*
X-38706412Y-64964007D01*
X-38409146Y-65054182D01*
X-38177469Y-65077000D01*
X-38022531Y-65077000D01*
X-37790854Y-65054182D01*
X-37493588Y-64964007D01*
X-37219627Y-64817572D01*
X-36979497Y-64620503D01*
X-36830000Y-64438340D01*
X-36680503Y-64620503D01*
X-36440373Y-64817572D01*
X-36166412Y-64964007D01*
X-35869146Y-65054182D01*
X-35637469Y-65077000D01*
X-35482531Y-65077000D01*
X-35250854Y-65054182D01*
X-34953588Y-64964007D01*
X-34679627Y-64817572D01*
X-34569264Y-64727000D01*
X568268Y-64727000D01*
X571500Y-64726682D01*
X574732Y-64727000D01*
X4378268Y-64727000D01*
X4558534Y-64709245D01*
X4789824Y-64639084D01*
X5002983Y-64525149D01*
X5189817Y-64371817D01*
X5343149Y-64184983D01*
X5457084Y-63971824D01*
X5527245Y-63740534D01*
X5550936Y-63500000D01*
X5527245Y-63259466D01*
X5457084Y-63028176D01*
X5343149Y-62815017D01*
X5189817Y-62628183D01*
X5062582Y-62523763D01*
X5036421Y-62497602D01*
X5005662Y-62477049D01*
X5002983Y-62474851D01*
X4999927Y-62473217D01*
X4851835Y-62374266D01*
X4646734Y-62289310D01*
X4429000Y-62246000D01*
X4207000Y-62246000D01*
X4071262Y-62273000D01*
X574732Y-62273000D01*
X571500Y-62273318D01*
X568268Y-62273000D01*
X-34569264Y-62273000D01*
X-34679627Y-62182428D01*
X-34703221Y-62169817D01*
X-34678645Y-62155178D01*
X-34462412Y-61960269D01*
X-34288359Y-61726920D01*
X-34163175Y-61464099D01*
X-34118524Y-61316890D01*
X-34239845Y-61087000D01*
X-35433000Y-61087000D01*
X-35433000Y-61107000D01*
X-35687000Y-61107000D01*
X-35687000Y-61087000D01*
X-35707000Y-61087000D01*
X-35707000Y-60833000D01*
X-35687000Y-60833000D01*
X-35687000Y-60813000D01*
X-35433000Y-60813000D01*
X-35433000Y-60833000D01*
X-34239845Y-60833000D01*
X-34118524Y-60603110D01*
X-34163175Y-60455901D01*
X-34288359Y-60193080D01*
X-34462412Y-59959731D01*
X-34678645Y-59764822D01*
X-34703221Y-59750183D01*
X-34679627Y-59737572D01*
X-34439497Y-59540503D01*
X-34242428Y-59300373D01*
X-34095993Y-59026412D01*
X-34005818Y-58729146D01*
X-33975370Y-58420000D01*
X-34005818Y-58110854D01*
X-34095993Y-57813588D01*
X-34242428Y-57539627D01*
X-34439497Y-57299497D01*
X-34621660Y-57150000D01*
X-34439497Y-57000503D01*
X-34242428Y-56760373D01*
X-34095993Y-56486412D01*
X-34005818Y-56189146D01*
X-33975370Y-55880000D01*
X-34005818Y-55570854D01*
X-34095993Y-55273588D01*
X-34242428Y-54999627D01*
X-34439497Y-54759497D01*
X-34621660Y-54610000D01*
X-34439497Y-54460503D01*
X-34242428Y-54220373D01*
X-34095993Y-53946412D01*
X-34005818Y-53649146D01*
X-33975370Y-53340000D01*
X-34005818Y-53030854D01*
X-34095993Y-52733588D01*
X-34242428Y-52459627D01*
X-34439497Y-52219497D01*
X-34621660Y-52070000D01*
X-34439497Y-51920503D01*
X-34242428Y-51680373D01*
X-34095993Y-51406412D01*
X-34005818Y-51109146D01*
X-33975370Y-50800000D01*
X-34005818Y-50490854D01*
X-34095993Y-50193588D01*
X-34242428Y-49919627D01*
X-34439497Y-49679497D01*
X-34621660Y-49530000D01*
X-34439497Y-49380503D01*
X-34242428Y-49140373D01*
X-34095993Y-48866412D01*
X-34005818Y-48569146D01*
X-33975370Y-48260000D01*
X-34005818Y-47950854D01*
X-34095993Y-47653588D01*
X-34242428Y-47379627D01*
X-34439497Y-47139497D01*
X-34679627Y-46942428D01*
X-34703221Y-46929817D01*
X-34678645Y-46915178D01*
X-34462412Y-46720269D01*
X-34288359Y-46486920D01*
X-34163175Y-46224099D01*
X-34118524Y-46076890D01*
X-34239845Y-45847000D01*
X-35433000Y-45847000D01*
X-35433000Y-45867000D01*
X-35687000Y-45867000D01*
X-35687000Y-45847000D01*
X-35707000Y-45847000D01*
X-35707000Y-45593000D01*
X-35687000Y-45593000D01*
X-35687000Y-45573000D01*
X-35433000Y-45573000D01*
X-35433000Y-45593000D01*
X-34239845Y-45593000D01*
X-34118524Y-45363110D01*
X-34163175Y-45215901D01*
X-34288359Y-44953080D01*
X-34462412Y-44719731D01*
X-34678645Y-44524822D01*
X-34703221Y-44510183D01*
X-34679627Y-44497572D01*
X-34439497Y-44300503D01*
X-34242428Y-44060373D01*
X-34095993Y-43786412D01*
X-34005818Y-43489146D01*
X-33975370Y-43180000D01*
X-34005818Y-42870854D01*
X-34095993Y-42573588D01*
X-34242428Y-42299627D01*
X-34439497Y-42059497D01*
X-34621660Y-41910000D01*
X-34439497Y-41760503D01*
X-34242428Y-41520373D01*
X-34095993Y-41246412D01*
X-34005818Y-40949146D01*
X-33975370Y-40640000D01*
X-34005818Y-40330854D01*
X-34095993Y-40033588D01*
X-34242428Y-39759627D01*
X-34439497Y-39519497D01*
X-34679627Y-39322428D01*
X-34953588Y-39175993D01*
X-35098612Y-39132000D01*
X-20939000Y-39132000D01*
X-20939000Y-39354000D01*
X-20895690Y-39571734D01*
X-20810734Y-39776835D01*
X-20687398Y-39961421D01*
X-20530421Y-40118398D01*
X-20345835Y-40241734D01*
X-20140734Y-40326690D01*
X-19923000Y-40370000D01*
X-19701000Y-40370000D01*
X-19483266Y-40326690D01*
X-19278165Y-40241734D01*
X-19093579Y-40118398D01*
X-18936602Y-39961421D01*
X-18813266Y-39776835D01*
X-18728310Y-39571734D01*
X-18685000Y-39354000D01*
X-18685000Y-39132000D01*
X-18399000Y-39132000D01*
X-18399000Y-39354000D01*
X-18355690Y-39571734D01*
X-18270734Y-39776835D01*
X-18147398Y-39961421D01*
X-17990421Y-40118398D01*
X-17805835Y-40241734D01*
X-17600734Y-40326690D01*
X-17383000Y-40370000D01*
X-17161000Y-40370000D01*
X-16943266Y-40326690D01*
X-16738165Y-40241734D01*
X-16553579Y-40118398D01*
X-16396602Y-39961421D01*
X-16273266Y-39776835D01*
X-16188310Y-39571734D01*
X-16145000Y-39354000D01*
X-16145000Y-39132000D01*
X-15859000Y-39132000D01*
X-15859000Y-39354000D01*
X-15815690Y-39571734D01*
X-15730734Y-39776835D01*
X-15607398Y-39961421D01*
X-15450421Y-40118398D01*
X-15265835Y-40241734D01*
X-15060734Y-40326690D01*
X-14843000Y-40370000D01*
X-14621000Y-40370000D01*
X-14403266Y-40326690D01*
X-14198165Y-40241734D01*
X-14013579Y-40118398D01*
X-13856602Y-39961421D01*
X-13733266Y-39776835D01*
X-13648310Y-39571734D01*
X-13605000Y-39354000D01*
X-13605000Y-39132000D01*
X-13319000Y-39132000D01*
X-13319000Y-39354000D01*
X-13275690Y-39571734D01*
X-13190734Y-39776835D01*
X-13067398Y-39961421D01*
X-12910421Y-40118398D01*
X-12725835Y-40241734D01*
X-12520734Y-40326690D01*
X-12303000Y-40370000D01*
X-12081000Y-40370000D01*
X-11863266Y-40326690D01*
X-11658165Y-40241734D01*
X-11473579Y-40118398D01*
X-11316602Y-39961421D01*
X-11193266Y-39776835D01*
X-11108310Y-39571734D01*
X-11065000Y-39354000D01*
X-11065000Y-39132000D01*
X-10779000Y-39132000D01*
X-10779000Y-39354000D01*
X-10735690Y-39571734D01*
X-10650734Y-39776835D01*
X-10527398Y-39961421D01*
X-10370421Y-40118398D01*
X-10185835Y-40241734D01*
X-9980734Y-40326690D01*
X-9763000Y-40370000D01*
X-9541000Y-40370000D01*
X-9323266Y-40326690D01*
X-9118165Y-40241734D01*
X-8933579Y-40118398D01*
X-8776602Y-39961421D01*
X-8653266Y-39776835D01*
X-8568310Y-39571734D01*
X-8525000Y-39354000D01*
X-8525000Y-39132000D01*
X-8239000Y-39132000D01*
X-8239000Y-39354000D01*
X-8195690Y-39571734D01*
X-8110734Y-39776835D01*
X-7987398Y-39961421D01*
X-7830421Y-40118398D01*
X-7645835Y-40241734D01*
X-7440734Y-40326690D01*
X-7223000Y-40370000D01*
X-7001000Y-40370000D01*
X-6783266Y-40326690D01*
X-6578165Y-40241734D01*
X-6393579Y-40118398D01*
X-6236602Y-39961421D01*
X-6113266Y-39776835D01*
X-6028310Y-39571734D01*
X-5985000Y-39354000D01*
X-5985000Y-39132000D01*
X-5699000Y-39132000D01*
X-5699000Y-39354000D01*
X-5655690Y-39571734D01*
X-5570734Y-39776835D01*
X-5447398Y-39961421D01*
X-5290421Y-40118398D01*
X-5105835Y-40241734D01*
X-4900734Y-40326690D01*
X-4683000Y-40370000D01*
X-4461000Y-40370000D01*
X-4243266Y-40326690D01*
X-4038165Y-40241734D01*
X-3853579Y-40118398D01*
X-3696602Y-39961421D01*
X-3573266Y-39776835D01*
X-3488310Y-39571734D01*
X-3445000Y-39354000D01*
X-3445000Y-39132000D01*
X-3159000Y-39132000D01*
X-3159000Y-39354000D01*
X-3115690Y-39571734D01*
X-3030734Y-39776835D01*
X-2907398Y-39961421D01*
X-2750421Y-40118398D01*
X-2565835Y-40241734D01*
X-2360734Y-40326690D01*
X-2143000Y-40370000D01*
X-1921000Y-40370000D01*
X-1703266Y-40326690D01*
X-1498165Y-40241734D01*
X-1313579Y-40118398D01*
X-1156602Y-39961421D01*
X-1033266Y-39776835D01*
X-948310Y-39571734D01*
X-905000Y-39354000D01*
X-905000Y-39132000D01*
X-619000Y-39132000D01*
X-619000Y-39354000D01*
X-575690Y-39571734D01*
X-490734Y-39776835D01*
X-367398Y-39961421D01*
X-210421Y-40118398D01*
X-25835Y-40241734D01*
X179266Y-40326690D01*
X397000Y-40370000D01*
X619000Y-40370000D01*
X836734Y-40326690D01*
X1041835Y-40241734D01*
X1226421Y-40118398D01*
X1383398Y-39961421D01*
X1506734Y-39776835D01*
X1591690Y-39571734D01*
X1635000Y-39354000D01*
X1635000Y-39132000D01*
X1921000Y-39132000D01*
X1921000Y-39354000D01*
X1964310Y-39571734D01*
X2049266Y-39776835D01*
X2172602Y-39961421D01*
X2329579Y-40118398D01*
X2514165Y-40241734D01*
X2719266Y-40326690D01*
X2937000Y-40370000D01*
X3159000Y-40370000D01*
X3376734Y-40326690D01*
X3581835Y-40241734D01*
X3766421Y-40118398D01*
X3923398Y-39961421D01*
X4046734Y-39776835D01*
X4131690Y-39571734D01*
X4175000Y-39354000D01*
X4175000Y-39132000D01*
X4131690Y-38914266D01*
X4046734Y-38709165D01*
X3923398Y-38524579D01*
X3766421Y-38367602D01*
X3581835Y-38244266D01*
X3376734Y-38159310D01*
X3159000Y-38116000D01*
X2937000Y-38116000D01*
X2719266Y-38159310D01*
X2514165Y-38244266D01*
X2329579Y-38367602D01*
X2172602Y-38524579D01*
X2049266Y-38709165D01*
X1964310Y-38914266D01*
X1921000Y-39132000D01*
X1635000Y-39132000D01*
X1591690Y-38914266D01*
X1506734Y-38709165D01*
X1383398Y-38524579D01*
X1226421Y-38367602D01*
X1041835Y-38244266D01*
X836734Y-38159310D01*
X619000Y-38116000D01*
X397000Y-38116000D01*
X179266Y-38159310D01*
X-25835Y-38244266D01*
X-210421Y-38367602D01*
X-367398Y-38524579D01*
X-490734Y-38709165D01*
X-575690Y-38914266D01*
X-619000Y-39132000D01*
X-905000Y-39132000D01*
X-948310Y-38914266D01*
X-1033266Y-38709165D01*
X-1156602Y-38524579D01*
X-1313579Y-38367602D01*
X-1498165Y-38244266D01*
X-1703266Y-38159310D01*
X-1921000Y-38116000D01*
X-2143000Y-38116000D01*
X-2360734Y-38159310D01*
X-2565835Y-38244266D01*
X-2750421Y-38367602D01*
X-2907398Y-38524579D01*
X-3030734Y-38709165D01*
X-3115690Y-38914266D01*
X-3159000Y-39132000D01*
X-3445000Y-39132000D01*
X-3488310Y-38914266D01*
X-3573266Y-38709165D01*
X-3696602Y-38524579D01*
X-3853579Y-38367602D01*
X-4038165Y-38244266D01*
X-4243266Y-38159310D01*
X-4461000Y-38116000D01*
X-4683000Y-38116000D01*
X-4900734Y-38159310D01*
X-5105835Y-38244266D01*
X-5290421Y-38367602D01*
X-5447398Y-38524579D01*
X-5570734Y-38709165D01*
X-5655690Y-38914266D01*
X-5699000Y-39132000D01*
X-5985000Y-39132000D01*
X-6028310Y-38914266D01*
X-6113266Y-38709165D01*
X-6236602Y-38524579D01*
X-6393579Y-38367602D01*
X-6578165Y-38244266D01*
X-6783266Y-38159310D01*
X-7001000Y-38116000D01*
X-7223000Y-38116000D01*
X-7440734Y-38159310D01*
X-7645835Y-38244266D01*
X-7830421Y-38367602D01*
X-7987398Y-38524579D01*
X-8110734Y-38709165D01*
X-8195690Y-38914266D01*
X-8239000Y-39132000D01*
X-8525000Y-39132000D01*
X-8568310Y-38914266D01*
X-8653266Y-38709165D01*
X-8776602Y-38524579D01*
X-8933579Y-38367602D01*
X-9118165Y-38244266D01*
X-9323266Y-38159310D01*
X-9541000Y-38116000D01*
X-9763000Y-38116000D01*
X-9980734Y-38159310D01*
X-10185835Y-38244266D01*
X-10370421Y-38367602D01*
X-10527398Y-38524579D01*
X-10650734Y-38709165D01*
X-10735690Y-38914266D01*
X-10779000Y-39132000D01*
X-11065000Y-39132000D01*
X-11108310Y-38914266D01*
X-11193266Y-38709165D01*
X-11316602Y-38524579D01*
X-11473579Y-38367602D01*
X-11658165Y-38244266D01*
X-11863266Y-38159310D01*
X-12081000Y-38116000D01*
X-12303000Y-38116000D01*
X-12520734Y-38159310D01*
X-12725835Y-38244266D01*
X-12910421Y-38367602D01*
X-13067398Y-38524579D01*
X-13190734Y-38709165D01*
X-13275690Y-38914266D01*
X-13319000Y-39132000D01*
X-13605000Y-39132000D01*
X-13648310Y-38914266D01*
X-13733266Y-38709165D01*
X-13856602Y-38524579D01*
X-14013579Y-38367602D01*
X-14198165Y-38244266D01*
X-14403266Y-38159310D01*
X-14621000Y-38116000D01*
X-14843000Y-38116000D01*
X-15060734Y-38159310D01*
X-15265835Y-38244266D01*
X-15450421Y-38367602D01*
X-15607398Y-38524579D01*
X-15730734Y-38709165D01*
X-15815690Y-38914266D01*
X-15859000Y-39132000D01*
X-16145000Y-39132000D01*
X-16188310Y-38914266D01*
X-16273266Y-38709165D01*
X-16396602Y-38524579D01*
X-16553579Y-38367602D01*
X-16738165Y-38244266D01*
X-16943266Y-38159310D01*
X-17161000Y-38116000D01*
X-17383000Y-38116000D01*
X-17600734Y-38159310D01*
X-17805835Y-38244266D01*
X-17990421Y-38367602D01*
X-18147398Y-38524579D01*
X-18270734Y-38709165D01*
X-18355690Y-38914266D01*
X-18399000Y-39132000D01*
X-18685000Y-39132000D01*
X-18728310Y-38914266D01*
X-18813266Y-38709165D01*
X-18936602Y-38524579D01*
X-19093579Y-38367602D01*
X-19278165Y-38244266D01*
X-19483266Y-38159310D01*
X-19701000Y-38116000D01*
X-19923000Y-38116000D01*
X-20140734Y-38159310D01*
X-20345835Y-38244266D01*
X-20530421Y-38367602D01*
X-20687398Y-38524579D01*
X-20810734Y-38709165D01*
X-20895690Y-38914266D01*
X-20939000Y-39132000D01*
X-35098612Y-39132000D01*
X-35250854Y-39085818D01*
X-35482531Y-39063000D01*
X-35637469Y-39063000D01*
X-35869146Y-39085818D01*
X-36166412Y-39175993D01*
X-36440373Y-39322428D01*
X-36603868Y-39456604D01*
X-36642597Y-39384147D01*
X-36733446Y-39273446D01*
X-36844147Y-39182597D01*
X-36970443Y-39115090D01*
X-37107483Y-39073520D01*
X-37250000Y-39059483D01*
X-38950000Y-39059483D01*
X-39092517Y-39073520D01*
X-39229557Y-39115090D01*
X-39355853Y-39182597D01*
X-39466554Y-39273446D01*
X-39557403Y-39384147D01*
X-39624910Y-39510443D01*
X-39666480Y-39647483D01*
X-39680517Y-39790000D01*
X-39680517Y-41490000D01*
X-39666480Y-41632517D01*
X-39624910Y-41769557D01*
X-39557403Y-41895853D01*
X-39466554Y-42006554D01*
X-39355853Y-42097403D01*
X-39283396Y-42136132D01*
X-39417572Y-42299627D01*
X-39564007Y-42573588D01*
X-39654182Y-42870854D01*
X-39684630Y-43180000D01*
X-47508000Y-43180000D01*
X-47508000Y-35677000D01*
X17862051Y-35677000D01*
X17816176Y-35690916D01*
M02*
