G04 #@! TF.GenerationSoftware,KiCad,Pcbnew,(5.1.2)-2*
G04 #@! TF.CreationDate,2021-06-22T12:17:49+03:00*
G04 #@! TF.ProjectId,extension_board,65787465-6e73-4696-9f6e-5f626f617264,rev?*
G04 #@! TF.SameCoordinates,Original*
G04 #@! TF.FileFunction,Soldermask,Top*
G04 #@! TF.FilePolarity,Negative*
%FSLAX46Y46*%
G04 Gerber Fmt 4.6, Leading zero omitted, Abs format (unit mm)*
G04 Created by KiCad (PCBNEW (5.1.2)-2) date 2021-06-22 12:17:49*
%MOMM*%
%LPD*%
G04 APERTURE LIST*
%ADD10C,0.100000*%
G04 APERTURE END LIST*
D10*
G36*
X88168318Y-142355153D02*
G01*
X88386885Y-142445687D01*
X88386887Y-142445688D01*
X88583593Y-142577122D01*
X88750878Y-142744407D01*
X88882312Y-142941113D01*
X88882313Y-142941115D01*
X88972847Y-143159682D01*
X89019000Y-143391710D01*
X89019000Y-143628290D01*
X88972847Y-143860318D01*
X88882313Y-144078885D01*
X88882312Y-144078887D01*
X88750878Y-144275593D01*
X88583593Y-144442878D01*
X88386887Y-144574312D01*
X88386886Y-144574313D01*
X88386885Y-144574313D01*
X88168318Y-144664847D01*
X87936290Y-144711000D01*
X87699710Y-144711000D01*
X87467682Y-144664847D01*
X87249115Y-144574313D01*
X87249114Y-144574313D01*
X87249113Y-144574312D01*
X87052407Y-144442878D01*
X86885122Y-144275593D01*
X86753688Y-144078887D01*
X86753687Y-144078885D01*
X86663153Y-143860318D01*
X86617000Y-143628290D01*
X86617000Y-143391710D01*
X86663153Y-143159682D01*
X86753687Y-142941115D01*
X86753688Y-142941113D01*
X86885122Y-142744407D01*
X87052407Y-142577122D01*
X87249113Y-142445688D01*
X87249115Y-142445687D01*
X87467682Y-142355153D01*
X87699710Y-142309000D01*
X87936290Y-142309000D01*
X88168318Y-142355153D01*
X88168318Y-142355153D01*
G37*
G36*
X83889000Y-144661000D02*
G01*
X81587000Y-144661000D01*
X81587000Y-142359000D01*
X83889000Y-142359000D01*
X83889000Y-144661000D01*
X83889000Y-144661000D01*
G37*
G36*
X86343997Y-135059051D02*
G01*
X86377652Y-135069261D01*
X86408665Y-135085838D01*
X86435851Y-135108149D01*
X86458162Y-135135335D01*
X86474739Y-135166348D01*
X86484949Y-135200003D01*
X86489000Y-135241138D01*
X86489000Y-136570862D01*
X86484949Y-136611997D01*
X86474739Y-136645652D01*
X86458162Y-136676665D01*
X86435851Y-136703851D01*
X86408665Y-136726162D01*
X86377652Y-136742739D01*
X86343997Y-136752949D01*
X86302862Y-136757000D01*
X83973138Y-136757000D01*
X83932003Y-136752949D01*
X83898348Y-136742739D01*
X83867335Y-136726162D01*
X83840149Y-136703851D01*
X83817838Y-136676665D01*
X83801261Y-136645652D01*
X83791051Y-136611997D01*
X83787000Y-136570862D01*
X83787000Y-135241138D01*
X83791051Y-135200003D01*
X83801261Y-135166348D01*
X83817838Y-135135335D01*
X83840149Y-135108149D01*
X83867335Y-135085838D01*
X83898348Y-135069261D01*
X83932003Y-135059051D01*
X83973138Y-135055000D01*
X86302862Y-135055000D01*
X86343997Y-135059051D01*
X86343997Y-135059051D01*
G37*
G36*
X82743997Y-135059051D02*
G01*
X82777652Y-135069261D01*
X82808665Y-135085838D01*
X82835851Y-135108149D01*
X82858162Y-135135335D01*
X82874739Y-135166348D01*
X82884949Y-135200003D01*
X82889000Y-135241138D01*
X82889000Y-136570862D01*
X82884949Y-136611997D01*
X82874739Y-136645652D01*
X82858162Y-136676665D01*
X82835851Y-136703851D01*
X82808665Y-136726162D01*
X82777652Y-136742739D01*
X82743997Y-136752949D01*
X82702862Y-136757000D01*
X80373138Y-136757000D01*
X80332003Y-136752949D01*
X80298348Y-136742739D01*
X80267335Y-136726162D01*
X80240149Y-136703851D01*
X80217838Y-136676665D01*
X80201261Y-136645652D01*
X80191051Y-136611997D01*
X80187000Y-136570862D01*
X80187000Y-135241138D01*
X80191051Y-135200003D01*
X80201261Y-135166348D01*
X80217838Y-135135335D01*
X80240149Y-135108149D01*
X80267335Y-135085838D01*
X80298348Y-135069261D01*
X80332003Y-135059051D01*
X80373138Y-135055000D01*
X82702862Y-135055000D01*
X82743997Y-135059051D01*
X82743997Y-135059051D01*
G37*
G36*
X138771000Y-135425000D02*
G01*
X135519000Y-135425000D01*
X135519000Y-134323000D01*
X138771000Y-134323000D01*
X138771000Y-135425000D01*
X138771000Y-135425000D01*
G37*
G36*
X133721000Y-135425000D02*
G01*
X130469000Y-135425000D01*
X130469000Y-134323000D01*
X133721000Y-134323000D01*
X133721000Y-135425000D01*
X133721000Y-135425000D01*
G37*
G36*
X143986500Y-134091500D02*
G01*
X141374500Y-134091500D01*
X141374500Y-132989500D01*
X143986500Y-132989500D01*
X143986500Y-134091500D01*
X143986500Y-134091500D01*
G37*
G36*
X99786674Y-131841465D02*
G01*
X99824367Y-131852899D01*
X99859103Y-131871466D01*
X99889548Y-131896452D01*
X99914534Y-131926897D01*
X99933101Y-131961633D01*
X99944535Y-131999326D01*
X99949000Y-132044661D01*
X99949000Y-133131339D01*
X99944535Y-133176674D01*
X99933101Y-133214367D01*
X99914534Y-133249103D01*
X99889548Y-133279548D01*
X99859103Y-133304534D01*
X99824367Y-133323101D01*
X99786674Y-133334535D01*
X99741339Y-133339000D01*
X98904661Y-133339000D01*
X98859326Y-133334535D01*
X98821633Y-133323101D01*
X98786897Y-133304534D01*
X98756452Y-133279548D01*
X98731466Y-133249103D01*
X98712899Y-133214367D01*
X98701465Y-133176674D01*
X98697000Y-133131339D01*
X98697000Y-132044661D01*
X98701465Y-131999326D01*
X98712899Y-131961633D01*
X98731466Y-131926897D01*
X98756452Y-131896452D01*
X98786897Y-131871466D01*
X98821633Y-131852899D01*
X98859326Y-131841465D01*
X98904661Y-131837000D01*
X99741339Y-131837000D01*
X99786674Y-131841465D01*
X99786674Y-131841465D01*
G37*
G36*
X97736674Y-131841465D02*
G01*
X97774367Y-131852899D01*
X97809103Y-131871466D01*
X97839548Y-131896452D01*
X97864534Y-131926897D01*
X97883101Y-131961633D01*
X97894535Y-131999326D01*
X97899000Y-132044661D01*
X97899000Y-133131339D01*
X97894535Y-133176674D01*
X97883101Y-133214367D01*
X97864534Y-133249103D01*
X97839548Y-133279548D01*
X97809103Y-133304534D01*
X97774367Y-133323101D01*
X97736674Y-133334535D01*
X97691339Y-133339000D01*
X96854661Y-133339000D01*
X96809326Y-133334535D01*
X96771633Y-133323101D01*
X96736897Y-133304534D01*
X96706452Y-133279548D01*
X96681466Y-133249103D01*
X96662899Y-133214367D01*
X96651465Y-133176674D01*
X96647000Y-133131339D01*
X96647000Y-132044661D01*
X96651465Y-131999326D01*
X96662899Y-131961633D01*
X96681466Y-131926897D01*
X96706452Y-131896452D01*
X96736897Y-131871466D01*
X96771633Y-131852899D01*
X96809326Y-131841465D01*
X96854661Y-131837000D01*
X97691339Y-131837000D01*
X97736674Y-131841465D01*
X97736674Y-131841465D01*
G37*
G36*
X91141674Y-131841465D02*
G01*
X91179367Y-131852899D01*
X91214103Y-131871466D01*
X91244548Y-131896452D01*
X91269534Y-131926897D01*
X91288101Y-131961633D01*
X91299535Y-131999326D01*
X91304000Y-132044661D01*
X91304000Y-133131339D01*
X91299535Y-133176674D01*
X91288101Y-133214367D01*
X91269534Y-133249103D01*
X91244548Y-133279548D01*
X91214103Y-133304534D01*
X91179367Y-133323101D01*
X91141674Y-133334535D01*
X91096339Y-133339000D01*
X90259661Y-133339000D01*
X90214326Y-133334535D01*
X90176633Y-133323101D01*
X90141897Y-133304534D01*
X90111452Y-133279548D01*
X90086466Y-133249103D01*
X90067899Y-133214367D01*
X90056465Y-133176674D01*
X90052000Y-133131339D01*
X90052000Y-132044661D01*
X90056465Y-131999326D01*
X90067899Y-131961633D01*
X90086466Y-131926897D01*
X90111452Y-131896452D01*
X90141897Y-131871466D01*
X90176633Y-131852899D01*
X90214326Y-131841465D01*
X90259661Y-131837000D01*
X91096339Y-131837000D01*
X91141674Y-131841465D01*
X91141674Y-131841465D01*
G37*
G36*
X93191674Y-131841465D02*
G01*
X93229367Y-131852899D01*
X93264103Y-131871466D01*
X93294548Y-131896452D01*
X93319534Y-131926897D01*
X93338101Y-131961633D01*
X93349535Y-131999326D01*
X93354000Y-132044661D01*
X93354000Y-133131339D01*
X93349535Y-133176674D01*
X93338101Y-133214367D01*
X93319534Y-133249103D01*
X93294548Y-133279548D01*
X93264103Y-133304534D01*
X93229367Y-133323101D01*
X93191674Y-133334535D01*
X93146339Y-133339000D01*
X92309661Y-133339000D01*
X92264326Y-133334535D01*
X92226633Y-133323101D01*
X92191897Y-133304534D01*
X92161452Y-133279548D01*
X92136466Y-133249103D01*
X92117899Y-133214367D01*
X92106465Y-133176674D01*
X92102000Y-133131339D01*
X92102000Y-132044661D01*
X92106465Y-131999326D01*
X92117899Y-131961633D01*
X92136466Y-131926897D01*
X92161452Y-131896452D01*
X92191897Y-131871466D01*
X92226633Y-131852899D01*
X92264326Y-131841465D01*
X92309661Y-131837000D01*
X93146339Y-131837000D01*
X93191674Y-131841465D01*
X93191674Y-131841465D01*
G37*
G36*
X138771000Y-132885000D02*
G01*
X135519000Y-132885000D01*
X135519000Y-131783000D01*
X138771000Y-131783000D01*
X138771000Y-132885000D01*
X138771000Y-132885000D01*
G37*
G36*
X133721000Y-132885000D02*
G01*
X130469000Y-132885000D01*
X130469000Y-131783000D01*
X133721000Y-131783000D01*
X133721000Y-132885000D01*
X133721000Y-132885000D01*
G37*
G36*
X147296500Y-131551500D02*
G01*
X144684500Y-131551500D01*
X144684500Y-130449500D01*
X147296500Y-130449500D01*
X147296500Y-131551500D01*
X147296500Y-131551500D01*
G37*
G36*
X133721000Y-130345000D02*
G01*
X130469000Y-130345000D01*
X130469000Y-129243000D01*
X133721000Y-129243000D01*
X133721000Y-130345000D01*
X133721000Y-130345000D01*
G37*
G36*
X138771000Y-130345000D02*
G01*
X135519000Y-130345000D01*
X135519000Y-129243000D01*
X138771000Y-129243000D01*
X138771000Y-130345000D01*
X138771000Y-130345000D01*
G37*
G36*
X143986500Y-129011500D02*
G01*
X141374500Y-129011500D01*
X141374500Y-127909500D01*
X143986500Y-127909500D01*
X143986500Y-129011500D01*
X143986500Y-129011500D01*
G37*
G36*
X133721000Y-127805000D02*
G01*
X130469000Y-127805000D01*
X130469000Y-126703000D01*
X133721000Y-126703000D01*
X133721000Y-127805000D01*
X133721000Y-127805000D01*
G37*
G36*
X138771000Y-127805000D02*
G01*
X135519000Y-127805000D01*
X135519000Y-126703000D01*
X138771000Y-126703000D01*
X138771000Y-127805000D01*
X138771000Y-127805000D01*
G37*
G36*
X147296500Y-126471500D02*
G01*
X144684500Y-126471500D01*
X144684500Y-125369500D01*
X147296500Y-125369500D01*
X147296500Y-126471500D01*
X147296500Y-126471500D01*
G37*
G36*
X92797000Y-126408000D02*
G01*
X89545000Y-126408000D01*
X89545000Y-125306000D01*
X92797000Y-125306000D01*
X92797000Y-126408000D01*
X92797000Y-126408000D01*
G37*
G36*
X87747000Y-126408000D02*
G01*
X84495000Y-126408000D01*
X84495000Y-125306000D01*
X87747000Y-125306000D01*
X87747000Y-126408000D01*
X87747000Y-126408000D01*
G37*
G36*
X138771000Y-125265000D02*
G01*
X135519000Y-125265000D01*
X135519000Y-124163000D01*
X138771000Y-124163000D01*
X138771000Y-125265000D01*
X138771000Y-125265000D01*
G37*
G36*
X133721000Y-125265000D02*
G01*
X130469000Y-125265000D01*
X130469000Y-124163000D01*
X133721000Y-124163000D01*
X133721000Y-125265000D01*
X133721000Y-125265000D01*
G37*
G36*
X143986500Y-123931500D02*
G01*
X141374500Y-123931500D01*
X141374500Y-122829500D01*
X143986500Y-122829500D01*
X143986500Y-123931500D01*
X143986500Y-123931500D01*
G37*
G36*
X87747000Y-123868000D02*
G01*
X84495000Y-123868000D01*
X84495000Y-122766000D01*
X87747000Y-122766000D01*
X87747000Y-123868000D01*
X87747000Y-123868000D01*
G37*
G36*
X92797000Y-123868000D02*
G01*
X89545000Y-123868000D01*
X89545000Y-122766000D01*
X92797000Y-122766000D01*
X92797000Y-123868000D01*
X92797000Y-123868000D01*
G37*
G36*
X138771000Y-122725000D02*
G01*
X135519000Y-122725000D01*
X135519000Y-121623000D01*
X138771000Y-121623000D01*
X138771000Y-122725000D01*
X138771000Y-122725000D01*
G37*
G36*
X133721000Y-122725000D02*
G01*
X130469000Y-122725000D01*
X130469000Y-121623000D01*
X133721000Y-121623000D01*
X133721000Y-122725000D01*
X133721000Y-122725000D01*
G37*
G36*
X147296500Y-121391500D02*
G01*
X144684500Y-121391500D01*
X144684500Y-120289500D01*
X147296500Y-120289500D01*
X147296500Y-121391500D01*
X147296500Y-121391500D01*
G37*
G36*
X92797000Y-121328000D02*
G01*
X89545000Y-121328000D01*
X89545000Y-120226000D01*
X92797000Y-120226000D01*
X92797000Y-121328000D01*
X92797000Y-121328000D01*
G37*
G36*
X87747000Y-121328000D02*
G01*
X84495000Y-121328000D01*
X84495000Y-120226000D01*
X87747000Y-120226000D01*
X87747000Y-121328000D01*
X87747000Y-121328000D01*
G37*
G36*
X133721000Y-120185000D02*
G01*
X130469000Y-120185000D01*
X130469000Y-119083000D01*
X133721000Y-119083000D01*
X133721000Y-120185000D01*
X133721000Y-120185000D01*
G37*
G36*
X138771000Y-120185000D02*
G01*
X135519000Y-120185000D01*
X135519000Y-119083000D01*
X138771000Y-119083000D01*
X138771000Y-120185000D01*
X138771000Y-120185000D01*
G37*
G36*
X116057642Y-117593781D02*
G01*
X116181295Y-117645000D01*
X116203416Y-117654163D01*
X116334608Y-117741822D01*
X116446178Y-117853392D01*
X116533837Y-117984584D01*
X116533838Y-117984586D01*
X116594219Y-118130358D01*
X116625000Y-118285107D01*
X116625000Y-118442893D01*
X116594219Y-118597642D01*
X116533838Y-118743414D01*
X116533837Y-118743416D01*
X116446178Y-118874608D01*
X116334608Y-118986178D01*
X116203416Y-119073837D01*
X116203415Y-119073838D01*
X116203414Y-119073838D01*
X116057642Y-119134219D01*
X115902893Y-119165000D01*
X115745107Y-119165000D01*
X115590358Y-119134219D01*
X115444586Y-119073838D01*
X115444585Y-119073838D01*
X115444584Y-119073837D01*
X115313392Y-118986178D01*
X115201822Y-118874608D01*
X115114163Y-118743416D01*
X115114162Y-118743414D01*
X115053781Y-118597642D01*
X115023000Y-118442893D01*
X115023000Y-118285107D01*
X115053781Y-118130358D01*
X115114162Y-117984586D01*
X115114163Y-117984584D01*
X115201822Y-117853392D01*
X115313392Y-117741822D01*
X115444584Y-117654163D01*
X115466705Y-117645000D01*
X115590358Y-117593781D01*
X115745107Y-117563000D01*
X115902893Y-117563000D01*
X116057642Y-117593781D01*
X116057642Y-117593781D01*
G37*
G36*
X143986500Y-118851500D02*
G01*
X141374500Y-118851500D01*
X141374500Y-117749500D01*
X143986500Y-117749500D01*
X143986500Y-118851500D01*
X143986500Y-118851500D01*
G37*
G36*
X133721000Y-117645000D02*
G01*
X130469000Y-117645000D01*
X130469000Y-116543000D01*
X133721000Y-116543000D01*
X133721000Y-117645000D01*
X133721000Y-117645000D01*
G37*
G36*
X138771000Y-117645000D02*
G01*
X135519000Y-117645000D01*
X135519000Y-116543000D01*
X138771000Y-116543000D01*
X138771000Y-117645000D01*
X138771000Y-117645000D01*
G37*
G36*
X116057642Y-115053781D02*
G01*
X116181295Y-115105000D01*
X116203416Y-115114163D01*
X116334608Y-115201822D01*
X116446178Y-115313392D01*
X116533837Y-115444584D01*
X116533838Y-115444586D01*
X116594219Y-115590358D01*
X116625000Y-115745107D01*
X116625000Y-115902893D01*
X116594219Y-116057642D01*
X116533838Y-116203414D01*
X116533837Y-116203416D01*
X116446178Y-116334608D01*
X116334608Y-116446178D01*
X116203416Y-116533837D01*
X116203415Y-116533838D01*
X116203414Y-116533838D01*
X116057642Y-116594219D01*
X115902893Y-116625000D01*
X115745107Y-116625000D01*
X115590358Y-116594219D01*
X115444586Y-116533838D01*
X115444585Y-116533838D01*
X115444584Y-116533837D01*
X115313392Y-116446178D01*
X115201822Y-116334608D01*
X115114163Y-116203416D01*
X115114162Y-116203414D01*
X115053781Y-116057642D01*
X115023000Y-115902893D01*
X115023000Y-115745107D01*
X115053781Y-115590358D01*
X115114162Y-115444586D01*
X115114163Y-115444584D01*
X115201822Y-115313392D01*
X115313392Y-115201822D01*
X115444584Y-115114163D01*
X115466705Y-115105000D01*
X115590358Y-115053781D01*
X115745107Y-115023000D01*
X115902893Y-115023000D01*
X116057642Y-115053781D01*
X116057642Y-115053781D01*
G37*
G36*
X147296500Y-116311500D02*
G01*
X144684500Y-116311500D01*
X144684500Y-115209500D01*
X147296500Y-115209500D01*
X147296500Y-116311500D01*
X147296500Y-116311500D01*
G37*
G36*
X133721000Y-115105000D02*
G01*
X130469000Y-115105000D01*
X130469000Y-114003000D01*
X133721000Y-114003000D01*
X133721000Y-115105000D01*
X133721000Y-115105000D01*
G37*
G36*
X138771000Y-115105000D02*
G01*
X135519000Y-115105000D01*
X135519000Y-114003000D01*
X138771000Y-114003000D01*
X138771000Y-115105000D01*
X138771000Y-115105000D01*
G37*
G36*
X116625000Y-114085000D02*
G01*
X115023000Y-114085000D01*
X115023000Y-112483000D01*
X116625000Y-112483000D01*
X116625000Y-114085000D01*
X116625000Y-114085000D01*
G37*
G36*
X143986500Y-113771500D02*
G01*
X141374500Y-113771500D01*
X141374500Y-112669500D01*
X143986500Y-112669500D01*
X143986500Y-113771500D01*
X143986500Y-113771500D01*
G37*
G36*
X105880000Y-112874000D02*
G01*
X104178000Y-112874000D01*
X104178000Y-111272000D01*
X105880000Y-111272000D01*
X105880000Y-112874000D01*
X105880000Y-112874000D01*
G37*
G36*
X138771000Y-112565000D02*
G01*
X135519000Y-112565000D01*
X135519000Y-111463000D01*
X138771000Y-111463000D01*
X138771000Y-112565000D01*
X138771000Y-112565000D01*
G37*
G36*
X133721000Y-112565000D02*
G01*
X130469000Y-112565000D01*
X130469000Y-111463000D01*
X133721000Y-111463000D01*
X133721000Y-112565000D01*
X133721000Y-112565000D01*
G37*
G36*
X95785000Y-111264000D02*
G01*
X93983000Y-111264000D01*
X93983000Y-109462000D01*
X95785000Y-109462000D01*
X95785000Y-111264000D01*
X95785000Y-111264000D01*
G37*
G36*
X110473499Y-109791445D02*
G01*
X110510995Y-109802820D01*
X110545554Y-109821292D01*
X110575847Y-109846153D01*
X110600708Y-109876446D01*
X110619180Y-109911005D01*
X110630555Y-109948501D01*
X110635000Y-109993638D01*
X110635000Y-110732362D01*
X110630555Y-110777499D01*
X110619180Y-110814995D01*
X110600708Y-110849554D01*
X110575847Y-110879847D01*
X110545554Y-110904708D01*
X110510995Y-110923180D01*
X110473499Y-110934555D01*
X110428362Y-110939000D01*
X109789638Y-110939000D01*
X109744501Y-110934555D01*
X109707005Y-110923180D01*
X109672446Y-110904708D01*
X109642153Y-110879847D01*
X109617292Y-110849554D01*
X109598820Y-110814995D01*
X109587445Y-110777499D01*
X109583000Y-110732362D01*
X109583000Y-109993638D01*
X109587445Y-109948501D01*
X109598820Y-109911005D01*
X109617292Y-109876446D01*
X109642153Y-109846153D01*
X109672446Y-109821292D01*
X109707005Y-109802820D01*
X109744501Y-109791445D01*
X109789638Y-109787000D01*
X110428362Y-109787000D01*
X110473499Y-109791445D01*
X110473499Y-109791445D01*
G37*
G36*
X138771000Y-110025000D02*
G01*
X135519000Y-110025000D01*
X135519000Y-108923000D01*
X138771000Y-108923000D01*
X138771000Y-110025000D01*
X138771000Y-110025000D01*
G37*
G36*
X133721000Y-110025000D02*
G01*
X130469000Y-110025000D01*
X130469000Y-108923000D01*
X133721000Y-108923000D01*
X133721000Y-110025000D01*
X133721000Y-110025000D01*
G37*
G36*
X116057642Y-107941781D02*
G01*
X116197289Y-107999625D01*
X116203416Y-108002163D01*
X116334608Y-108089822D01*
X116446178Y-108201392D01*
X116533837Y-108332584D01*
X116533838Y-108332586D01*
X116594219Y-108478358D01*
X116625000Y-108633107D01*
X116625000Y-108790893D01*
X116594219Y-108945642D01*
X116544781Y-109064995D01*
X116533837Y-109091416D01*
X116446178Y-109222608D01*
X116334608Y-109334178D01*
X116203416Y-109421837D01*
X116203415Y-109421838D01*
X116203414Y-109421838D01*
X116057642Y-109482219D01*
X115902893Y-109513000D01*
X115745107Y-109513000D01*
X115590358Y-109482219D01*
X115444586Y-109421838D01*
X115444585Y-109421838D01*
X115444584Y-109421837D01*
X115313392Y-109334178D01*
X115201822Y-109222608D01*
X115114163Y-109091416D01*
X115103219Y-109064995D01*
X115053781Y-108945642D01*
X115023000Y-108790893D01*
X115023000Y-108633107D01*
X115053781Y-108478358D01*
X115114162Y-108332586D01*
X115114163Y-108332584D01*
X115201822Y-108201392D01*
X115313392Y-108089822D01*
X115444584Y-108002163D01*
X115450711Y-107999625D01*
X115590358Y-107941781D01*
X115745107Y-107911000D01*
X115902893Y-107911000D01*
X116057642Y-107941781D01*
X116057642Y-107941781D01*
G37*
G36*
X104680000Y-109474000D02*
G01*
X103378000Y-109474000D01*
X103378000Y-108172000D01*
X104680000Y-108172000D01*
X104680000Y-109474000D01*
X104680000Y-109474000D01*
G37*
G36*
X106680000Y-109474000D02*
G01*
X105378000Y-109474000D01*
X105378000Y-108172000D01*
X106680000Y-108172000D01*
X106680000Y-109474000D01*
X106680000Y-109474000D01*
G37*
G36*
X110473499Y-108041445D02*
G01*
X110510995Y-108052820D01*
X110545554Y-108071292D01*
X110575847Y-108096153D01*
X110600708Y-108126446D01*
X110619180Y-108161005D01*
X110630555Y-108198501D01*
X110635000Y-108243638D01*
X110635000Y-108982362D01*
X110630555Y-109027499D01*
X110619180Y-109064995D01*
X110600708Y-109099554D01*
X110575847Y-109129847D01*
X110545554Y-109154708D01*
X110510995Y-109173180D01*
X110473499Y-109184555D01*
X110428362Y-109189000D01*
X109789638Y-109189000D01*
X109744501Y-109184555D01*
X109707005Y-109173180D01*
X109672446Y-109154708D01*
X109642153Y-109129847D01*
X109617292Y-109099554D01*
X109598820Y-109064995D01*
X109587445Y-109027499D01*
X109583000Y-108982362D01*
X109583000Y-108243638D01*
X109587445Y-108198501D01*
X109598820Y-108161005D01*
X109617292Y-108126446D01*
X109642153Y-108096153D01*
X109672446Y-108071292D01*
X109707005Y-108052820D01*
X109744501Y-108041445D01*
X109789638Y-108037000D01*
X110428362Y-108037000D01*
X110473499Y-108041445D01*
X110473499Y-108041445D01*
G37*
G36*
X94994443Y-106928519D02*
G01*
X95060627Y-106935037D01*
X95230466Y-106986557D01*
X95386991Y-107070222D01*
X95422729Y-107099552D01*
X95524186Y-107182814D01*
X95607448Y-107284271D01*
X95636778Y-107320009D01*
X95720443Y-107476534D01*
X95771963Y-107646373D01*
X95789359Y-107823000D01*
X95771963Y-107999627D01*
X95720443Y-108169466D01*
X95636778Y-108325991D01*
X95607448Y-108361729D01*
X95524186Y-108463186D01*
X95422729Y-108546448D01*
X95386991Y-108575778D01*
X95230466Y-108659443D01*
X95060627Y-108710963D01*
X94994443Y-108717481D01*
X94928260Y-108724000D01*
X94839740Y-108724000D01*
X94773557Y-108717481D01*
X94707373Y-108710963D01*
X94537534Y-108659443D01*
X94381009Y-108575778D01*
X94345271Y-108546448D01*
X94243814Y-108463186D01*
X94160552Y-108361729D01*
X94131222Y-108325991D01*
X94047557Y-108169466D01*
X93996037Y-107999627D01*
X93978641Y-107823000D01*
X93996037Y-107646373D01*
X94047557Y-107476534D01*
X94131222Y-107320009D01*
X94160552Y-107284271D01*
X94243814Y-107182814D01*
X94345271Y-107099552D01*
X94381009Y-107070222D01*
X94537534Y-106986557D01*
X94707373Y-106935037D01*
X94773557Y-106928519D01*
X94839740Y-106922000D01*
X94928260Y-106922000D01*
X94994443Y-106928519D01*
X94994443Y-106928519D01*
G37*
G36*
X133721000Y-107485000D02*
G01*
X130469000Y-107485000D01*
X130469000Y-106383000D01*
X133721000Y-106383000D01*
X133721000Y-107485000D01*
X133721000Y-107485000D01*
G37*
G36*
X138771000Y-107485000D02*
G01*
X135519000Y-107485000D01*
X135519000Y-106383000D01*
X138771000Y-106383000D01*
X138771000Y-107485000D01*
X138771000Y-107485000D01*
G37*
G36*
X116057642Y-105401781D02*
G01*
X116203414Y-105462162D01*
X116203416Y-105462163D01*
X116334608Y-105549822D01*
X116446178Y-105661392D01*
X116533837Y-105792584D01*
X116533838Y-105792586D01*
X116594219Y-105938358D01*
X116625000Y-106093107D01*
X116625000Y-106250893D01*
X116594219Y-106405642D01*
X116533838Y-106551414D01*
X116533837Y-106551416D01*
X116446178Y-106682608D01*
X116334608Y-106794178D01*
X116203416Y-106881837D01*
X116203415Y-106881838D01*
X116203414Y-106881838D01*
X116057642Y-106942219D01*
X115902893Y-106973000D01*
X115745107Y-106973000D01*
X115590358Y-106942219D01*
X115444586Y-106881838D01*
X115444585Y-106881838D01*
X115444584Y-106881837D01*
X115313392Y-106794178D01*
X115201822Y-106682608D01*
X115114163Y-106551416D01*
X115114162Y-106551414D01*
X115053781Y-106405642D01*
X115023000Y-106250893D01*
X115023000Y-106093107D01*
X115053781Y-105938358D01*
X115114162Y-105792586D01*
X115114163Y-105792584D01*
X115201822Y-105661392D01*
X115313392Y-105549822D01*
X115444584Y-105462163D01*
X115444586Y-105462162D01*
X115590358Y-105401781D01*
X115745107Y-105371000D01*
X115902893Y-105371000D01*
X116057642Y-105401781D01*
X116057642Y-105401781D01*
G37*
G36*
X138771000Y-104945000D02*
G01*
X135519000Y-104945000D01*
X135519000Y-103843000D01*
X138771000Y-103843000D01*
X138771000Y-104945000D01*
X138771000Y-104945000D01*
G37*
G36*
X133721000Y-104945000D02*
G01*
X130469000Y-104945000D01*
X130469000Y-103843000D01*
X133721000Y-103843000D01*
X133721000Y-104945000D01*
X133721000Y-104945000D01*
G37*
G36*
X105880000Y-104649000D02*
G01*
X104178000Y-104649000D01*
X104178000Y-103047000D01*
X105880000Y-103047000D01*
X105880000Y-104649000D01*
X105880000Y-104649000D01*
G37*
G36*
X116625000Y-104433000D02*
G01*
X115023000Y-104433000D01*
X115023000Y-102831000D01*
X116625000Y-102831000D01*
X116625000Y-104433000D01*
X116625000Y-104433000D01*
G37*
G36*
X95755000Y-103009000D02*
G01*
X93953000Y-103009000D01*
X93953000Y-101207000D01*
X95755000Y-101207000D01*
X95755000Y-103009000D01*
X95755000Y-103009000D01*
G37*
G36*
X110473499Y-101790445D02*
G01*
X110510995Y-101801820D01*
X110545554Y-101820292D01*
X110575847Y-101845153D01*
X110600708Y-101875446D01*
X110619180Y-101910005D01*
X110630555Y-101947501D01*
X110635000Y-101992638D01*
X110635000Y-102731362D01*
X110630555Y-102776499D01*
X110619180Y-102813995D01*
X110600708Y-102848554D01*
X110575847Y-102878847D01*
X110545554Y-102903708D01*
X110510995Y-102922180D01*
X110473499Y-102933555D01*
X110428362Y-102938000D01*
X109789638Y-102938000D01*
X109744501Y-102933555D01*
X109707005Y-102922180D01*
X109672446Y-102903708D01*
X109642153Y-102878847D01*
X109617292Y-102848554D01*
X109598820Y-102813995D01*
X109587445Y-102776499D01*
X109583000Y-102731362D01*
X109583000Y-101992638D01*
X109587445Y-101947501D01*
X109598820Y-101910005D01*
X109617292Y-101875446D01*
X109642153Y-101845153D01*
X109672446Y-101820292D01*
X109707005Y-101801820D01*
X109744501Y-101790445D01*
X109789638Y-101786000D01*
X110428362Y-101786000D01*
X110473499Y-101790445D01*
X110473499Y-101790445D01*
G37*
G36*
X133721000Y-102405000D02*
G01*
X130469000Y-102405000D01*
X130469000Y-101303000D01*
X133721000Y-101303000D01*
X133721000Y-102405000D01*
X133721000Y-102405000D01*
G37*
G36*
X138771000Y-102405000D02*
G01*
X135519000Y-102405000D01*
X135519000Y-101303000D01*
X138771000Y-101303000D01*
X138771000Y-102405000D01*
X138771000Y-102405000D01*
G37*
G36*
X104680000Y-101249000D02*
G01*
X103378000Y-101249000D01*
X103378000Y-99947000D01*
X104680000Y-99947000D01*
X104680000Y-101249000D01*
X104680000Y-101249000D01*
G37*
G36*
X106680000Y-101249000D02*
G01*
X105378000Y-101249000D01*
X105378000Y-99947000D01*
X106680000Y-99947000D01*
X106680000Y-101249000D01*
X106680000Y-101249000D01*
G37*
G36*
X110473499Y-100040445D02*
G01*
X110510995Y-100051820D01*
X110545554Y-100070292D01*
X110575847Y-100095153D01*
X110600708Y-100125446D01*
X110619180Y-100160005D01*
X110630555Y-100197501D01*
X110635000Y-100242638D01*
X110635000Y-100981362D01*
X110630555Y-101026499D01*
X110619180Y-101063995D01*
X110600708Y-101098554D01*
X110575847Y-101128847D01*
X110545554Y-101153708D01*
X110510995Y-101172180D01*
X110473499Y-101183555D01*
X110428362Y-101188000D01*
X109789638Y-101188000D01*
X109744501Y-101183555D01*
X109707005Y-101172180D01*
X109672446Y-101153708D01*
X109642153Y-101128847D01*
X109617292Y-101098554D01*
X109598820Y-101063995D01*
X109587445Y-101026499D01*
X109583000Y-100981362D01*
X109583000Y-100242638D01*
X109587445Y-100197501D01*
X109598820Y-100160005D01*
X109617292Y-100125446D01*
X109642153Y-100095153D01*
X109672446Y-100070292D01*
X109707005Y-100051820D01*
X109744501Y-100040445D01*
X109789638Y-100036000D01*
X110428362Y-100036000D01*
X110473499Y-100040445D01*
X110473499Y-100040445D01*
G37*
G36*
X94964442Y-98673518D02*
G01*
X95030627Y-98680037D01*
X95200466Y-98731557D01*
X95356991Y-98815222D01*
X95392729Y-98844552D01*
X95494186Y-98927814D01*
X95577448Y-99029271D01*
X95606778Y-99065009D01*
X95690443Y-99221534D01*
X95741963Y-99391373D01*
X95759359Y-99568000D01*
X95741963Y-99744627D01*
X95690443Y-99914466D01*
X95606778Y-100070991D01*
X95577448Y-100106729D01*
X95494186Y-100208186D01*
X95392729Y-100291448D01*
X95356991Y-100320778D01*
X95200466Y-100404443D01*
X95030627Y-100455963D01*
X94964442Y-100462482D01*
X94898260Y-100469000D01*
X94809740Y-100469000D01*
X94743557Y-100462481D01*
X94677373Y-100455963D01*
X94507534Y-100404443D01*
X94351009Y-100320778D01*
X94315271Y-100291448D01*
X94213814Y-100208186D01*
X94130552Y-100106729D01*
X94101222Y-100070991D01*
X94017557Y-99914466D01*
X93966037Y-99744627D01*
X93948641Y-99568000D01*
X93966037Y-99391373D01*
X94017557Y-99221534D01*
X94101222Y-99065009D01*
X94130552Y-99029271D01*
X94213814Y-98927814D01*
X94315271Y-98844552D01*
X94351009Y-98815222D01*
X94507534Y-98731557D01*
X94677373Y-98680037D01*
X94743558Y-98673518D01*
X94809740Y-98667000D01*
X94898260Y-98667000D01*
X94964442Y-98673518D01*
X94964442Y-98673518D01*
G37*
G36*
X116184642Y-98797781D02*
G01*
X116330414Y-98858162D01*
X116330416Y-98858163D01*
X116461608Y-98945822D01*
X116573178Y-99057392D01*
X116660837Y-99188584D01*
X116660838Y-99188586D01*
X116721219Y-99334358D01*
X116752000Y-99489107D01*
X116752000Y-99646893D01*
X116721219Y-99801642D01*
X116661009Y-99947000D01*
X116660837Y-99947416D01*
X116573178Y-100078608D01*
X116461608Y-100190178D01*
X116330416Y-100277837D01*
X116330415Y-100277838D01*
X116330414Y-100277838D01*
X116184642Y-100338219D01*
X116029893Y-100369000D01*
X115872107Y-100369000D01*
X115717358Y-100338219D01*
X115571586Y-100277838D01*
X115571585Y-100277838D01*
X115571584Y-100277837D01*
X115440392Y-100190178D01*
X115328822Y-100078608D01*
X115241163Y-99947416D01*
X115240991Y-99947000D01*
X115180781Y-99801642D01*
X115150000Y-99646893D01*
X115150000Y-99489107D01*
X115180781Y-99334358D01*
X115241162Y-99188586D01*
X115241163Y-99188584D01*
X115328822Y-99057392D01*
X115440392Y-98945822D01*
X115571584Y-98858163D01*
X115571586Y-98858162D01*
X115717358Y-98797781D01*
X115872107Y-98767000D01*
X116029893Y-98767000D01*
X116184642Y-98797781D01*
X116184642Y-98797781D01*
G37*
G36*
X116184642Y-96257781D02*
G01*
X116330414Y-96318162D01*
X116330416Y-96318163D01*
X116461608Y-96405822D01*
X116573178Y-96517392D01*
X116660837Y-96648584D01*
X116660838Y-96648586D01*
X116721219Y-96794358D01*
X116752000Y-96949107D01*
X116752000Y-97106893D01*
X116721219Y-97261642D01*
X116660838Y-97407414D01*
X116660837Y-97407416D01*
X116573178Y-97538608D01*
X116461608Y-97650178D01*
X116330416Y-97737837D01*
X116330415Y-97737838D01*
X116330414Y-97737838D01*
X116184642Y-97798219D01*
X116029893Y-97829000D01*
X115872107Y-97829000D01*
X115717358Y-97798219D01*
X115571586Y-97737838D01*
X115571585Y-97737838D01*
X115571584Y-97737837D01*
X115440392Y-97650178D01*
X115328822Y-97538608D01*
X115241163Y-97407416D01*
X115241162Y-97407414D01*
X115180781Y-97261642D01*
X115150000Y-97106893D01*
X115150000Y-96949107D01*
X115180781Y-96794358D01*
X115241162Y-96648586D01*
X115241163Y-96648584D01*
X115328822Y-96517392D01*
X115440392Y-96405822D01*
X115571584Y-96318163D01*
X115571586Y-96318162D01*
X115717358Y-96257781D01*
X115872107Y-96227000D01*
X116029893Y-96227000D01*
X116184642Y-96257781D01*
X116184642Y-96257781D01*
G37*
G36*
X106007000Y-96872000D02*
G01*
X104305000Y-96872000D01*
X104305000Y-95270000D01*
X106007000Y-95270000D01*
X106007000Y-96872000D01*
X106007000Y-96872000D01*
G37*
G36*
X116752000Y-95289000D02*
G01*
X115150000Y-95289000D01*
X115150000Y-93687000D01*
X116752000Y-93687000D01*
X116752000Y-95289000D01*
X116752000Y-95289000D01*
G37*
G36*
X95897000Y-95262000D02*
G01*
X94095000Y-95262000D01*
X94095000Y-93460000D01*
X95897000Y-93460000D01*
X95897000Y-95262000D01*
X95897000Y-95262000D01*
G37*
G36*
X110600499Y-93789445D02*
G01*
X110637995Y-93800820D01*
X110672554Y-93819292D01*
X110702847Y-93844153D01*
X110727708Y-93874446D01*
X110746180Y-93909005D01*
X110757555Y-93946501D01*
X110762000Y-93991638D01*
X110762000Y-94730362D01*
X110757555Y-94775499D01*
X110746180Y-94812995D01*
X110727708Y-94847554D01*
X110702847Y-94877847D01*
X110672554Y-94902708D01*
X110637995Y-94921180D01*
X110600499Y-94932555D01*
X110555362Y-94937000D01*
X109916638Y-94937000D01*
X109871501Y-94932555D01*
X109834005Y-94921180D01*
X109799446Y-94902708D01*
X109769153Y-94877847D01*
X109744292Y-94847554D01*
X109725820Y-94812995D01*
X109714445Y-94775499D01*
X109710000Y-94730362D01*
X109710000Y-93991638D01*
X109714445Y-93946501D01*
X109725820Y-93909005D01*
X109744292Y-93874446D01*
X109769153Y-93844153D01*
X109799446Y-93819292D01*
X109834005Y-93800820D01*
X109871501Y-93789445D01*
X109916638Y-93785000D01*
X110555362Y-93785000D01*
X110600499Y-93789445D01*
X110600499Y-93789445D01*
G37*
G36*
X104807000Y-93472000D02*
G01*
X103505000Y-93472000D01*
X103505000Y-92170000D01*
X104807000Y-92170000D01*
X104807000Y-93472000D01*
X104807000Y-93472000D01*
G37*
G36*
X106807000Y-93472000D02*
G01*
X105505000Y-93472000D01*
X105505000Y-92170000D01*
X106807000Y-92170000D01*
X106807000Y-93472000D01*
X106807000Y-93472000D01*
G37*
G36*
X145398443Y-91561519D02*
G01*
X145464627Y-91568037D01*
X145634466Y-91619557D01*
X145790991Y-91703222D01*
X145826729Y-91732552D01*
X145928186Y-91815814D01*
X146011448Y-91917271D01*
X146040778Y-91953009D01*
X146124443Y-92109534D01*
X146175963Y-92279373D01*
X146193359Y-92456000D01*
X146175963Y-92632627D01*
X146124443Y-92802466D01*
X146040778Y-92958991D01*
X146027386Y-92975309D01*
X145928186Y-93096186D01*
X145841922Y-93166980D01*
X145790991Y-93208778D01*
X145634466Y-93292443D01*
X145464627Y-93343963D01*
X145398442Y-93350482D01*
X145332260Y-93357000D01*
X145243740Y-93357000D01*
X145177558Y-93350482D01*
X145111373Y-93343963D01*
X144941534Y-93292443D01*
X144785009Y-93208778D01*
X144734078Y-93166980D01*
X144647814Y-93096186D01*
X144548614Y-92975309D01*
X144535222Y-92958991D01*
X144451557Y-92802466D01*
X144400037Y-92632627D01*
X144382641Y-92456000D01*
X144400037Y-92279373D01*
X144451557Y-92109534D01*
X144535222Y-91953009D01*
X144564552Y-91917271D01*
X144647814Y-91815814D01*
X144749271Y-91732552D01*
X144785009Y-91703222D01*
X144941534Y-91619557D01*
X145111373Y-91568037D01*
X145177557Y-91561519D01*
X145243740Y-91555000D01*
X145332260Y-91555000D01*
X145398443Y-91561519D01*
X145398443Y-91561519D01*
G37*
G36*
X142858443Y-91561519D02*
G01*
X142924627Y-91568037D01*
X143094466Y-91619557D01*
X143250991Y-91703222D01*
X143286729Y-91732552D01*
X143388186Y-91815814D01*
X143471448Y-91917271D01*
X143500778Y-91953009D01*
X143584443Y-92109534D01*
X143635963Y-92279373D01*
X143653359Y-92456000D01*
X143635963Y-92632627D01*
X143584443Y-92802466D01*
X143500778Y-92958991D01*
X143487386Y-92975309D01*
X143388186Y-93096186D01*
X143301922Y-93166980D01*
X143250991Y-93208778D01*
X143094466Y-93292443D01*
X142924627Y-93343963D01*
X142858442Y-93350482D01*
X142792260Y-93357000D01*
X142703740Y-93357000D01*
X142637558Y-93350482D01*
X142571373Y-93343963D01*
X142401534Y-93292443D01*
X142245009Y-93208778D01*
X142194078Y-93166980D01*
X142107814Y-93096186D01*
X142008614Y-92975309D01*
X141995222Y-92958991D01*
X141911557Y-92802466D01*
X141860037Y-92632627D01*
X141842641Y-92456000D01*
X141860037Y-92279373D01*
X141911557Y-92109534D01*
X141995222Y-91953009D01*
X142024552Y-91917271D01*
X142107814Y-91815814D01*
X142209271Y-91732552D01*
X142245009Y-91703222D01*
X142401534Y-91619557D01*
X142571373Y-91568037D01*
X142637557Y-91561519D01*
X142703740Y-91555000D01*
X142792260Y-91555000D01*
X142858443Y-91561519D01*
X142858443Y-91561519D01*
G37*
G36*
X110600499Y-92039445D02*
G01*
X110637995Y-92050820D01*
X110672554Y-92069292D01*
X110702847Y-92094153D01*
X110727708Y-92124446D01*
X110746180Y-92159005D01*
X110757555Y-92196501D01*
X110762000Y-92241638D01*
X110762000Y-92980362D01*
X110757555Y-93025499D01*
X110746180Y-93062995D01*
X110727708Y-93097554D01*
X110702847Y-93127847D01*
X110672554Y-93152708D01*
X110637995Y-93171180D01*
X110600499Y-93182555D01*
X110555362Y-93187000D01*
X109916638Y-93187000D01*
X109871501Y-93182555D01*
X109834005Y-93171180D01*
X109799446Y-93152708D01*
X109769153Y-93127847D01*
X109744292Y-93097554D01*
X109725820Y-93062995D01*
X109714445Y-93025499D01*
X109710000Y-92980362D01*
X109710000Y-92241638D01*
X109714445Y-92196501D01*
X109725820Y-92159005D01*
X109744292Y-92124446D01*
X109769153Y-92094153D01*
X109799446Y-92069292D01*
X109834005Y-92050820D01*
X109871501Y-92039445D01*
X109916638Y-92035000D01*
X110555362Y-92035000D01*
X110600499Y-92039445D01*
X110600499Y-92039445D01*
G37*
G36*
X95106443Y-90926519D02*
G01*
X95172627Y-90933037D01*
X95342466Y-90984557D01*
X95498991Y-91068222D01*
X95534729Y-91097552D01*
X95636186Y-91180814D01*
X95719448Y-91282271D01*
X95748778Y-91318009D01*
X95832443Y-91474534D01*
X95883963Y-91644373D01*
X95901359Y-91821000D01*
X95883963Y-91997627D01*
X95832443Y-92167466D01*
X95748778Y-92323991D01*
X95719448Y-92359729D01*
X95636186Y-92461186D01*
X95534729Y-92544448D01*
X95498991Y-92573778D01*
X95342466Y-92657443D01*
X95172627Y-92708963D01*
X95106443Y-92715481D01*
X95040260Y-92722000D01*
X94951740Y-92722000D01*
X94885557Y-92715481D01*
X94819373Y-92708963D01*
X94649534Y-92657443D01*
X94493009Y-92573778D01*
X94457271Y-92544448D01*
X94355814Y-92461186D01*
X94272552Y-92359729D01*
X94243222Y-92323991D01*
X94159557Y-92167466D01*
X94108037Y-91997627D01*
X94090641Y-91821000D01*
X94108037Y-91644373D01*
X94159557Y-91474534D01*
X94243222Y-91318009D01*
X94272552Y-91282271D01*
X94355814Y-91180814D01*
X94457271Y-91097552D01*
X94493009Y-91068222D01*
X94649534Y-90984557D01*
X94819373Y-90933037D01*
X94885557Y-90926519D01*
X94951740Y-90920000D01*
X95040260Y-90920000D01*
X95106443Y-90926519D01*
X95106443Y-90926519D01*
G37*
G36*
X145398442Y-89021518D02*
G01*
X145464627Y-89028037D01*
X145634466Y-89079557D01*
X145790991Y-89163222D01*
X145826729Y-89192552D01*
X145928186Y-89275814D01*
X146011448Y-89377271D01*
X146040778Y-89413009D01*
X146124443Y-89569534D01*
X146175963Y-89739373D01*
X146193359Y-89916000D01*
X146175963Y-90092627D01*
X146124443Y-90262466D01*
X146040778Y-90418991D01*
X146011448Y-90454729D01*
X145928186Y-90556186D01*
X145826729Y-90639448D01*
X145790991Y-90668778D01*
X145634466Y-90752443D01*
X145464627Y-90803963D01*
X145398443Y-90810481D01*
X145332260Y-90817000D01*
X145243740Y-90817000D01*
X145177557Y-90810481D01*
X145111373Y-90803963D01*
X144941534Y-90752443D01*
X144785009Y-90668778D01*
X144749271Y-90639448D01*
X144647814Y-90556186D01*
X144564552Y-90454729D01*
X144535222Y-90418991D01*
X144451557Y-90262466D01*
X144400037Y-90092627D01*
X144382641Y-89916000D01*
X144400037Y-89739373D01*
X144451557Y-89569534D01*
X144535222Y-89413009D01*
X144564552Y-89377271D01*
X144647814Y-89275814D01*
X144749271Y-89192552D01*
X144785009Y-89163222D01*
X144941534Y-89079557D01*
X145111373Y-89028037D01*
X145177558Y-89021518D01*
X145243740Y-89015000D01*
X145332260Y-89015000D01*
X145398442Y-89021518D01*
X145398442Y-89021518D01*
G37*
G36*
X142858442Y-89021518D02*
G01*
X142924627Y-89028037D01*
X143094466Y-89079557D01*
X143250991Y-89163222D01*
X143286729Y-89192552D01*
X143388186Y-89275814D01*
X143471448Y-89377271D01*
X143500778Y-89413009D01*
X143584443Y-89569534D01*
X143635963Y-89739373D01*
X143653359Y-89916000D01*
X143635963Y-90092627D01*
X143584443Y-90262466D01*
X143500778Y-90418991D01*
X143471448Y-90454729D01*
X143388186Y-90556186D01*
X143286729Y-90639448D01*
X143250991Y-90668778D01*
X143094466Y-90752443D01*
X142924627Y-90803963D01*
X142858443Y-90810481D01*
X142792260Y-90817000D01*
X142703740Y-90817000D01*
X142637557Y-90810481D01*
X142571373Y-90803963D01*
X142401534Y-90752443D01*
X142245009Y-90668778D01*
X142209271Y-90639448D01*
X142107814Y-90556186D01*
X142024552Y-90454729D01*
X141995222Y-90418991D01*
X141911557Y-90262466D01*
X141860037Y-90092627D01*
X141842641Y-89916000D01*
X141860037Y-89739373D01*
X141911557Y-89569534D01*
X141995222Y-89413009D01*
X142024552Y-89377271D01*
X142107814Y-89275814D01*
X142209271Y-89192552D01*
X142245009Y-89163222D01*
X142401534Y-89079557D01*
X142571373Y-89028037D01*
X142637558Y-89021518D01*
X142703740Y-89015000D01*
X142792260Y-89015000D01*
X142858442Y-89021518D01*
X142858442Y-89021518D01*
G37*
G36*
X116311642Y-87113781D02*
G01*
X116457414Y-87174162D01*
X116457416Y-87174163D01*
X116588608Y-87261822D01*
X116700178Y-87373392D01*
X116787837Y-87504584D01*
X116787838Y-87504586D01*
X116848219Y-87650358D01*
X116879000Y-87805107D01*
X116879000Y-87962893D01*
X116848219Y-88117642D01*
X116808951Y-88212442D01*
X116787837Y-88263416D01*
X116700178Y-88394608D01*
X116588608Y-88506178D01*
X116457416Y-88593837D01*
X116457415Y-88593838D01*
X116457414Y-88593838D01*
X116311642Y-88654219D01*
X116156893Y-88685000D01*
X115999107Y-88685000D01*
X115844358Y-88654219D01*
X115698586Y-88593838D01*
X115698585Y-88593838D01*
X115698584Y-88593837D01*
X115567392Y-88506178D01*
X115455822Y-88394608D01*
X115368163Y-88263416D01*
X115347049Y-88212442D01*
X115307781Y-88117642D01*
X115277000Y-87962893D01*
X115277000Y-87805107D01*
X115307781Y-87650358D01*
X115368162Y-87504586D01*
X115368163Y-87504584D01*
X115455822Y-87373392D01*
X115567392Y-87261822D01*
X115698584Y-87174163D01*
X115698586Y-87174162D01*
X115844358Y-87113781D01*
X115999107Y-87083000D01*
X116156893Y-87083000D01*
X116311642Y-87113781D01*
X116311642Y-87113781D01*
G37*
G36*
X106134000Y-88632000D02*
G01*
X104432000Y-88632000D01*
X104432000Y-87030000D01*
X106134000Y-87030000D01*
X106134000Y-88632000D01*
X106134000Y-88632000D01*
G37*
G36*
X142858442Y-86481518D02*
G01*
X142924627Y-86488037D01*
X143094466Y-86539557D01*
X143250991Y-86623222D01*
X143268604Y-86637677D01*
X143388186Y-86735814D01*
X143471448Y-86837271D01*
X143500778Y-86873009D01*
X143584443Y-87029534D01*
X143635963Y-87199373D01*
X143653359Y-87376000D01*
X143635963Y-87552627D01*
X143584443Y-87722466D01*
X143500778Y-87878991D01*
X143471448Y-87914729D01*
X143388186Y-88016186D01*
X143286729Y-88099448D01*
X143250991Y-88128778D01*
X143094466Y-88212443D01*
X142924627Y-88263963D01*
X142858442Y-88270482D01*
X142792260Y-88277000D01*
X142703740Y-88277000D01*
X142637558Y-88270482D01*
X142571373Y-88263963D01*
X142401534Y-88212443D01*
X142245009Y-88128778D01*
X142209271Y-88099448D01*
X142107814Y-88016186D01*
X142024552Y-87914729D01*
X141995222Y-87878991D01*
X141911557Y-87722466D01*
X141860037Y-87552627D01*
X141842641Y-87376000D01*
X141860037Y-87199373D01*
X141911557Y-87029534D01*
X141995222Y-86873009D01*
X142024552Y-86837271D01*
X142107814Y-86735814D01*
X142227396Y-86637677D01*
X142245009Y-86623222D01*
X142401534Y-86539557D01*
X142571373Y-86488037D01*
X142637558Y-86481518D01*
X142703740Y-86475000D01*
X142792260Y-86475000D01*
X142858442Y-86481518D01*
X142858442Y-86481518D01*
G37*
G36*
X145398442Y-86481518D02*
G01*
X145464627Y-86488037D01*
X145634466Y-86539557D01*
X145790991Y-86623222D01*
X145808604Y-86637677D01*
X145928186Y-86735814D01*
X146011448Y-86837271D01*
X146040778Y-86873009D01*
X146124443Y-87029534D01*
X146175963Y-87199373D01*
X146193359Y-87376000D01*
X146175963Y-87552627D01*
X146124443Y-87722466D01*
X146040778Y-87878991D01*
X146011448Y-87914729D01*
X145928186Y-88016186D01*
X145826729Y-88099448D01*
X145790991Y-88128778D01*
X145634466Y-88212443D01*
X145464627Y-88263963D01*
X145398442Y-88270482D01*
X145332260Y-88277000D01*
X145243740Y-88277000D01*
X145177558Y-88270482D01*
X145111373Y-88263963D01*
X144941534Y-88212443D01*
X144785009Y-88128778D01*
X144749271Y-88099448D01*
X144647814Y-88016186D01*
X144564552Y-87914729D01*
X144535222Y-87878991D01*
X144451557Y-87722466D01*
X144400037Y-87552627D01*
X144382641Y-87376000D01*
X144400037Y-87199373D01*
X144451557Y-87029534D01*
X144535222Y-86873009D01*
X144564552Y-86837271D01*
X144647814Y-86735814D01*
X144767396Y-86637677D01*
X144785009Y-86623222D01*
X144941534Y-86539557D01*
X145111373Y-86488037D01*
X145177558Y-86481518D01*
X145243740Y-86475000D01*
X145332260Y-86475000D01*
X145398442Y-86481518D01*
X145398442Y-86481518D01*
G37*
G36*
X96039000Y-87007000D02*
G01*
X94237000Y-87007000D01*
X94237000Y-85205000D01*
X96039000Y-85205000D01*
X96039000Y-87007000D01*
X96039000Y-87007000D01*
G37*
G36*
X110727499Y-85534445D02*
G01*
X110764995Y-85545820D01*
X110799554Y-85564292D01*
X110829847Y-85589153D01*
X110854708Y-85619446D01*
X110873180Y-85654005D01*
X110884555Y-85691501D01*
X110889000Y-85736638D01*
X110889000Y-86475362D01*
X110884555Y-86520499D01*
X110873180Y-86557995D01*
X110854708Y-86592554D01*
X110829847Y-86622847D01*
X110799554Y-86647708D01*
X110764995Y-86666180D01*
X110727499Y-86677555D01*
X110682362Y-86682000D01*
X110043638Y-86682000D01*
X109998501Y-86677555D01*
X109961005Y-86666180D01*
X109926446Y-86647708D01*
X109896153Y-86622847D01*
X109871292Y-86592554D01*
X109852820Y-86557995D01*
X109841445Y-86520499D01*
X109837000Y-86475362D01*
X109837000Y-85736638D01*
X109841445Y-85691501D01*
X109852820Y-85654005D01*
X109871292Y-85619446D01*
X109896153Y-85589153D01*
X109926446Y-85564292D01*
X109961005Y-85545820D01*
X109998501Y-85534445D01*
X110043638Y-85530000D01*
X110682362Y-85530000D01*
X110727499Y-85534445D01*
X110727499Y-85534445D01*
G37*
G36*
X116311642Y-84573781D02*
G01*
X116457414Y-84634162D01*
X116457416Y-84634163D01*
X116588608Y-84721822D01*
X116700178Y-84833392D01*
X116762689Y-84926947D01*
X116787838Y-84964586D01*
X116848219Y-85110358D01*
X116879000Y-85265107D01*
X116879000Y-85422893D01*
X116848219Y-85577642D01*
X116787838Y-85723414D01*
X116787837Y-85723416D01*
X116700178Y-85854608D01*
X116588608Y-85966178D01*
X116457416Y-86053837D01*
X116457415Y-86053838D01*
X116457414Y-86053838D01*
X116311642Y-86114219D01*
X116156893Y-86145000D01*
X115999107Y-86145000D01*
X115844358Y-86114219D01*
X115698586Y-86053838D01*
X115698585Y-86053838D01*
X115698584Y-86053837D01*
X115567392Y-85966178D01*
X115455822Y-85854608D01*
X115368163Y-85723416D01*
X115368162Y-85723414D01*
X115307781Y-85577642D01*
X115277000Y-85422893D01*
X115277000Y-85265107D01*
X115307781Y-85110358D01*
X115368162Y-84964586D01*
X115393311Y-84926947D01*
X115455822Y-84833392D01*
X115567392Y-84721822D01*
X115698584Y-84634163D01*
X115698586Y-84634162D01*
X115844358Y-84573781D01*
X115999107Y-84543000D01*
X116156893Y-84543000D01*
X116311642Y-84573781D01*
X116311642Y-84573781D01*
G37*
G36*
X145398265Y-83941501D02*
G01*
X145464627Y-83948037D01*
X145634466Y-83999557D01*
X145790991Y-84083222D01*
X145826729Y-84112552D01*
X145928186Y-84195814D01*
X146011448Y-84297271D01*
X146040778Y-84333009D01*
X146124443Y-84489534D01*
X146175963Y-84659373D01*
X146193359Y-84836000D01*
X146175963Y-85012627D01*
X146124443Y-85182466D01*
X146040778Y-85338991D01*
X146011448Y-85374729D01*
X145928186Y-85476186D01*
X145826729Y-85559448D01*
X145790991Y-85588778D01*
X145634466Y-85672443D01*
X145464627Y-85723963D01*
X145398443Y-85730481D01*
X145332260Y-85737000D01*
X145243740Y-85737000D01*
X145177557Y-85730481D01*
X145111373Y-85723963D01*
X144941534Y-85672443D01*
X144785009Y-85588778D01*
X144749271Y-85559448D01*
X144647814Y-85476186D01*
X144564552Y-85374729D01*
X144535222Y-85338991D01*
X144451557Y-85182466D01*
X144400037Y-85012627D01*
X144382641Y-84836000D01*
X144400037Y-84659373D01*
X144451557Y-84489534D01*
X144535222Y-84333009D01*
X144564552Y-84297271D01*
X144647814Y-84195814D01*
X144749271Y-84112552D01*
X144785009Y-84083222D01*
X144941534Y-83999557D01*
X145111373Y-83948037D01*
X145177735Y-83941501D01*
X145243740Y-83935000D01*
X145332260Y-83935000D01*
X145398265Y-83941501D01*
X145398265Y-83941501D01*
G37*
G36*
X142858265Y-83941501D02*
G01*
X142924627Y-83948037D01*
X143094466Y-83999557D01*
X143250991Y-84083222D01*
X143286729Y-84112552D01*
X143388186Y-84195814D01*
X143471448Y-84297271D01*
X143500778Y-84333009D01*
X143584443Y-84489534D01*
X143635963Y-84659373D01*
X143653359Y-84836000D01*
X143635963Y-85012627D01*
X143584443Y-85182466D01*
X143500778Y-85338991D01*
X143471448Y-85374729D01*
X143388186Y-85476186D01*
X143286729Y-85559448D01*
X143250991Y-85588778D01*
X143094466Y-85672443D01*
X142924627Y-85723963D01*
X142858443Y-85730481D01*
X142792260Y-85737000D01*
X142703740Y-85737000D01*
X142637557Y-85730481D01*
X142571373Y-85723963D01*
X142401534Y-85672443D01*
X142245009Y-85588778D01*
X142209271Y-85559448D01*
X142107814Y-85476186D01*
X142024552Y-85374729D01*
X141995222Y-85338991D01*
X141911557Y-85182466D01*
X141860037Y-85012627D01*
X141842641Y-84836000D01*
X141860037Y-84659373D01*
X141911557Y-84489534D01*
X141995222Y-84333009D01*
X142024552Y-84297271D01*
X142107814Y-84195814D01*
X142209271Y-84112552D01*
X142245009Y-84083222D01*
X142401534Y-83999557D01*
X142571373Y-83948037D01*
X142637735Y-83941501D01*
X142703740Y-83935000D01*
X142792260Y-83935000D01*
X142858265Y-83941501D01*
X142858265Y-83941501D01*
G37*
G36*
X106934000Y-85232000D02*
G01*
X105632000Y-85232000D01*
X105632000Y-83930000D01*
X106934000Y-83930000D01*
X106934000Y-85232000D01*
X106934000Y-85232000D01*
G37*
G36*
X104934000Y-85232000D02*
G01*
X103632000Y-85232000D01*
X103632000Y-83930000D01*
X104934000Y-83930000D01*
X104934000Y-85232000D01*
X104934000Y-85232000D01*
G37*
G36*
X110727499Y-83784445D02*
G01*
X110764995Y-83795820D01*
X110799554Y-83814292D01*
X110829847Y-83839153D01*
X110854708Y-83869446D01*
X110873180Y-83904005D01*
X110884555Y-83941501D01*
X110889000Y-83986638D01*
X110889000Y-84725362D01*
X110884555Y-84770499D01*
X110873180Y-84807995D01*
X110854708Y-84842554D01*
X110829847Y-84872847D01*
X110799554Y-84897708D01*
X110764995Y-84916180D01*
X110727499Y-84927555D01*
X110682362Y-84932000D01*
X110043638Y-84932000D01*
X109998501Y-84927555D01*
X109961005Y-84916180D01*
X109926446Y-84897708D01*
X109896153Y-84872847D01*
X109871292Y-84842554D01*
X109852820Y-84807995D01*
X109841445Y-84770499D01*
X109837000Y-84725362D01*
X109837000Y-83986638D01*
X109841445Y-83941501D01*
X109852820Y-83904005D01*
X109871292Y-83869446D01*
X109896153Y-83839153D01*
X109926446Y-83814292D01*
X109961005Y-83795820D01*
X109998501Y-83784445D01*
X110043638Y-83780000D01*
X110682362Y-83780000D01*
X110727499Y-83784445D01*
X110727499Y-83784445D01*
G37*
G36*
X95248442Y-82671518D02*
G01*
X95314627Y-82678037D01*
X95484466Y-82729557D01*
X95640991Y-82813222D01*
X95676729Y-82842552D01*
X95778186Y-82925814D01*
X95861448Y-83027271D01*
X95890778Y-83063009D01*
X95974443Y-83219534D01*
X96025963Y-83389373D01*
X96043359Y-83566000D01*
X96025963Y-83742627D01*
X95974443Y-83912466D01*
X95890778Y-84068991D01*
X95861448Y-84104729D01*
X95778186Y-84206186D01*
X95676729Y-84289448D01*
X95640991Y-84318778D01*
X95484466Y-84402443D01*
X95314627Y-84453963D01*
X95248443Y-84460481D01*
X95182260Y-84467000D01*
X95093740Y-84467000D01*
X95027557Y-84460481D01*
X94961373Y-84453963D01*
X94791534Y-84402443D01*
X94635009Y-84318778D01*
X94599271Y-84289448D01*
X94497814Y-84206186D01*
X94414552Y-84104729D01*
X94385222Y-84068991D01*
X94301557Y-83912466D01*
X94250037Y-83742627D01*
X94232641Y-83566000D01*
X94250037Y-83389373D01*
X94301557Y-83219534D01*
X94385222Y-83063009D01*
X94414552Y-83027271D01*
X94497814Y-82925814D01*
X94599271Y-82842552D01*
X94635009Y-82813222D01*
X94791534Y-82729557D01*
X94961373Y-82678037D01*
X95027558Y-82671518D01*
X95093740Y-82665000D01*
X95182260Y-82665000D01*
X95248442Y-82671518D01*
X95248442Y-82671518D01*
G37*
G36*
X116879000Y-83605000D02*
G01*
X115277000Y-83605000D01*
X115277000Y-82003000D01*
X116879000Y-82003000D01*
X116879000Y-83605000D01*
X116879000Y-83605000D01*
G37*
G36*
X142858443Y-81401519D02*
G01*
X142924627Y-81408037D01*
X143094466Y-81459557D01*
X143250991Y-81543222D01*
X143286729Y-81572552D01*
X143388186Y-81655814D01*
X143471448Y-81757271D01*
X143500778Y-81793009D01*
X143584443Y-81949534D01*
X143635963Y-82119373D01*
X143653359Y-82296000D01*
X143635963Y-82472627D01*
X143584443Y-82642466D01*
X143500778Y-82798991D01*
X143471448Y-82834729D01*
X143388186Y-82936186D01*
X143286729Y-83019448D01*
X143250991Y-83048778D01*
X143094466Y-83132443D01*
X142924627Y-83183963D01*
X142858442Y-83190482D01*
X142792260Y-83197000D01*
X142703740Y-83197000D01*
X142637558Y-83190482D01*
X142571373Y-83183963D01*
X142401534Y-83132443D01*
X142245009Y-83048778D01*
X142209271Y-83019448D01*
X142107814Y-82936186D01*
X142024552Y-82834729D01*
X141995222Y-82798991D01*
X141911557Y-82642466D01*
X141860037Y-82472627D01*
X141842641Y-82296000D01*
X141860037Y-82119373D01*
X141911557Y-81949534D01*
X141995222Y-81793009D01*
X142024552Y-81757271D01*
X142107814Y-81655814D01*
X142209271Y-81572552D01*
X142245009Y-81543222D01*
X142401534Y-81459557D01*
X142571373Y-81408037D01*
X142637557Y-81401519D01*
X142703740Y-81395000D01*
X142792260Y-81395000D01*
X142858443Y-81401519D01*
X142858443Y-81401519D01*
G37*
G36*
X145398443Y-81401519D02*
G01*
X145464627Y-81408037D01*
X145634466Y-81459557D01*
X145790991Y-81543222D01*
X145826729Y-81572552D01*
X145928186Y-81655814D01*
X146011448Y-81757271D01*
X146040778Y-81793009D01*
X146124443Y-81949534D01*
X146175963Y-82119373D01*
X146193359Y-82296000D01*
X146175963Y-82472627D01*
X146124443Y-82642466D01*
X146040778Y-82798991D01*
X146011448Y-82834729D01*
X145928186Y-82936186D01*
X145826729Y-83019448D01*
X145790991Y-83048778D01*
X145634466Y-83132443D01*
X145464627Y-83183963D01*
X145398442Y-83190482D01*
X145332260Y-83197000D01*
X145243740Y-83197000D01*
X145177558Y-83190482D01*
X145111373Y-83183963D01*
X144941534Y-83132443D01*
X144785009Y-83048778D01*
X144749271Y-83019448D01*
X144647814Y-82936186D01*
X144564552Y-82834729D01*
X144535222Y-82798991D01*
X144451557Y-82642466D01*
X144400037Y-82472627D01*
X144382641Y-82296000D01*
X144400037Y-82119373D01*
X144451557Y-81949534D01*
X144535222Y-81793009D01*
X144564552Y-81757271D01*
X144647814Y-81655814D01*
X144749271Y-81572552D01*
X144785009Y-81543222D01*
X144941534Y-81459557D01*
X145111373Y-81408037D01*
X145177557Y-81401519D01*
X145243740Y-81395000D01*
X145332260Y-81395000D01*
X145398443Y-81401519D01*
X145398443Y-81401519D01*
G37*
G36*
X145398443Y-78861519D02*
G01*
X145464627Y-78868037D01*
X145634466Y-78919557D01*
X145790991Y-79003222D01*
X145826729Y-79032552D01*
X145928186Y-79115814D01*
X146011448Y-79217271D01*
X146040778Y-79253009D01*
X146124443Y-79409534D01*
X146175963Y-79579373D01*
X146193359Y-79756000D01*
X146175963Y-79932627D01*
X146124443Y-80102466D01*
X146040778Y-80258991D01*
X146011448Y-80294729D01*
X145928186Y-80396186D01*
X145826729Y-80479448D01*
X145790991Y-80508778D01*
X145634466Y-80592443D01*
X145464627Y-80643963D01*
X145398443Y-80650481D01*
X145332260Y-80657000D01*
X145243740Y-80657000D01*
X145177557Y-80650481D01*
X145111373Y-80643963D01*
X144941534Y-80592443D01*
X144785009Y-80508778D01*
X144749271Y-80479448D01*
X144647814Y-80396186D01*
X144564552Y-80294729D01*
X144535222Y-80258991D01*
X144451557Y-80102466D01*
X144400037Y-79932627D01*
X144382641Y-79756000D01*
X144400037Y-79579373D01*
X144451557Y-79409534D01*
X144535222Y-79253009D01*
X144564552Y-79217271D01*
X144647814Y-79115814D01*
X144749271Y-79032552D01*
X144785009Y-79003222D01*
X144941534Y-78919557D01*
X145111373Y-78868037D01*
X145177557Y-78861519D01*
X145243740Y-78855000D01*
X145332260Y-78855000D01*
X145398443Y-78861519D01*
X145398443Y-78861519D01*
G37*
G36*
X142858443Y-78861519D02*
G01*
X142924627Y-78868037D01*
X143094466Y-78919557D01*
X143250991Y-79003222D01*
X143286729Y-79032552D01*
X143388186Y-79115814D01*
X143471448Y-79217271D01*
X143500778Y-79253009D01*
X143584443Y-79409534D01*
X143635963Y-79579373D01*
X143653359Y-79756000D01*
X143635963Y-79932627D01*
X143584443Y-80102466D01*
X143500778Y-80258991D01*
X143471448Y-80294729D01*
X143388186Y-80396186D01*
X143286729Y-80479448D01*
X143250991Y-80508778D01*
X143094466Y-80592443D01*
X142924627Y-80643963D01*
X142858443Y-80650481D01*
X142792260Y-80657000D01*
X142703740Y-80657000D01*
X142637557Y-80650481D01*
X142571373Y-80643963D01*
X142401534Y-80592443D01*
X142245009Y-80508778D01*
X142209271Y-80479448D01*
X142107814Y-80396186D01*
X142024552Y-80294729D01*
X141995222Y-80258991D01*
X141911557Y-80102466D01*
X141860037Y-79932627D01*
X141842641Y-79756000D01*
X141860037Y-79579373D01*
X141911557Y-79409534D01*
X141995222Y-79253009D01*
X142024552Y-79217271D01*
X142107814Y-79115814D01*
X142209271Y-79032552D01*
X142245009Y-79003222D01*
X142401534Y-78919557D01*
X142571373Y-78868037D01*
X142637557Y-78861519D01*
X142703740Y-78855000D01*
X142792260Y-78855000D01*
X142858443Y-78861519D01*
X142858443Y-78861519D01*
G37*
G36*
X145398442Y-76321518D02*
G01*
X145464627Y-76328037D01*
X145634466Y-76379557D01*
X145790991Y-76463222D01*
X145826729Y-76492552D01*
X145928186Y-76575814D01*
X146011448Y-76677271D01*
X146040778Y-76713009D01*
X146124443Y-76869534D01*
X146175963Y-77039373D01*
X146193359Y-77216000D01*
X146175963Y-77392627D01*
X146124443Y-77562466D01*
X146040778Y-77718991D01*
X146011448Y-77754729D01*
X145928186Y-77856186D01*
X145826729Y-77939448D01*
X145790991Y-77968778D01*
X145634466Y-78052443D01*
X145464627Y-78103963D01*
X145398442Y-78110482D01*
X145332260Y-78117000D01*
X145243740Y-78117000D01*
X145177558Y-78110482D01*
X145111373Y-78103963D01*
X144941534Y-78052443D01*
X144785009Y-77968778D01*
X144749271Y-77939448D01*
X144647814Y-77856186D01*
X144564552Y-77754729D01*
X144535222Y-77718991D01*
X144451557Y-77562466D01*
X144400037Y-77392627D01*
X144382641Y-77216000D01*
X144400037Y-77039373D01*
X144451557Y-76869534D01*
X144535222Y-76713009D01*
X144564552Y-76677271D01*
X144647814Y-76575814D01*
X144749271Y-76492552D01*
X144785009Y-76463222D01*
X144941534Y-76379557D01*
X145111373Y-76328037D01*
X145177558Y-76321518D01*
X145243740Y-76315000D01*
X145332260Y-76315000D01*
X145398442Y-76321518D01*
X145398442Y-76321518D01*
G37*
G36*
X142858442Y-76321518D02*
G01*
X142924627Y-76328037D01*
X143094466Y-76379557D01*
X143250991Y-76463222D01*
X143286729Y-76492552D01*
X143388186Y-76575814D01*
X143471448Y-76677271D01*
X143500778Y-76713009D01*
X143584443Y-76869534D01*
X143635963Y-77039373D01*
X143653359Y-77216000D01*
X143635963Y-77392627D01*
X143584443Y-77562466D01*
X143500778Y-77718991D01*
X143471448Y-77754729D01*
X143388186Y-77856186D01*
X143286729Y-77939448D01*
X143250991Y-77968778D01*
X143094466Y-78052443D01*
X142924627Y-78103963D01*
X142858442Y-78110482D01*
X142792260Y-78117000D01*
X142703740Y-78117000D01*
X142637558Y-78110482D01*
X142571373Y-78103963D01*
X142401534Y-78052443D01*
X142245009Y-77968778D01*
X142209271Y-77939448D01*
X142107814Y-77856186D01*
X142024552Y-77754729D01*
X141995222Y-77718991D01*
X141911557Y-77562466D01*
X141860037Y-77392627D01*
X141842641Y-77216000D01*
X141860037Y-77039373D01*
X141911557Y-76869534D01*
X141995222Y-76713009D01*
X142024552Y-76677271D01*
X142107814Y-76575814D01*
X142209271Y-76492552D01*
X142245009Y-76463222D01*
X142401534Y-76379557D01*
X142571373Y-76328037D01*
X142637558Y-76321518D01*
X142703740Y-76315000D01*
X142792260Y-76315000D01*
X142858442Y-76321518D01*
X142858442Y-76321518D01*
G37*
G36*
X142858443Y-73781519D02*
G01*
X142924627Y-73788037D01*
X143094466Y-73839557D01*
X143250991Y-73923222D01*
X143286729Y-73952552D01*
X143388186Y-74035814D01*
X143471448Y-74137271D01*
X143500778Y-74173009D01*
X143584443Y-74329534D01*
X143635963Y-74499373D01*
X143653359Y-74676000D01*
X143635963Y-74852627D01*
X143584443Y-75022466D01*
X143500778Y-75178991D01*
X143471448Y-75214729D01*
X143388186Y-75316186D01*
X143286729Y-75399448D01*
X143250991Y-75428778D01*
X143094466Y-75512443D01*
X142924627Y-75563963D01*
X142858443Y-75570481D01*
X142792260Y-75577000D01*
X142703740Y-75577000D01*
X142637557Y-75570481D01*
X142571373Y-75563963D01*
X142401534Y-75512443D01*
X142245009Y-75428778D01*
X142209271Y-75399448D01*
X142107814Y-75316186D01*
X142024552Y-75214729D01*
X141995222Y-75178991D01*
X141911557Y-75022466D01*
X141860037Y-74852627D01*
X141842641Y-74676000D01*
X141860037Y-74499373D01*
X141911557Y-74329534D01*
X141995222Y-74173009D01*
X142024552Y-74137271D01*
X142107814Y-74035814D01*
X142209271Y-73952552D01*
X142245009Y-73923222D01*
X142401534Y-73839557D01*
X142571373Y-73788037D01*
X142637557Y-73781519D01*
X142703740Y-73775000D01*
X142792260Y-73775000D01*
X142858443Y-73781519D01*
X142858443Y-73781519D01*
G37*
G36*
X145398443Y-73781519D02*
G01*
X145464627Y-73788037D01*
X145634466Y-73839557D01*
X145790991Y-73923222D01*
X145826729Y-73952552D01*
X145928186Y-74035814D01*
X146011448Y-74137271D01*
X146040778Y-74173009D01*
X146124443Y-74329534D01*
X146175963Y-74499373D01*
X146193359Y-74676000D01*
X146175963Y-74852627D01*
X146124443Y-75022466D01*
X146040778Y-75178991D01*
X146011448Y-75214729D01*
X145928186Y-75316186D01*
X145826729Y-75399448D01*
X145790991Y-75428778D01*
X145634466Y-75512443D01*
X145464627Y-75563963D01*
X145398443Y-75570481D01*
X145332260Y-75577000D01*
X145243740Y-75577000D01*
X145177557Y-75570481D01*
X145111373Y-75563963D01*
X144941534Y-75512443D01*
X144785009Y-75428778D01*
X144749271Y-75399448D01*
X144647814Y-75316186D01*
X144564552Y-75214729D01*
X144535222Y-75178991D01*
X144451557Y-75022466D01*
X144400037Y-74852627D01*
X144382641Y-74676000D01*
X144400037Y-74499373D01*
X144451557Y-74329534D01*
X144535222Y-74173009D01*
X144564552Y-74137271D01*
X144647814Y-74035814D01*
X144749271Y-73952552D01*
X144785009Y-73923222D01*
X144941534Y-73839557D01*
X145111373Y-73788037D01*
X145177557Y-73781519D01*
X145243740Y-73775000D01*
X145332260Y-73775000D01*
X145398443Y-73781519D01*
X145398443Y-73781519D01*
G37*
G36*
X142858443Y-71241519D02*
G01*
X142924627Y-71248037D01*
X143094466Y-71299557D01*
X143250991Y-71383222D01*
X143286729Y-71412552D01*
X143388186Y-71495814D01*
X143471448Y-71597271D01*
X143500778Y-71633009D01*
X143584443Y-71789534D01*
X143635963Y-71959373D01*
X143653359Y-72136000D01*
X143635963Y-72312627D01*
X143584443Y-72482466D01*
X143500778Y-72638991D01*
X143471448Y-72674729D01*
X143388186Y-72776186D01*
X143286729Y-72859448D01*
X143250991Y-72888778D01*
X143094466Y-72972443D01*
X142924627Y-73023963D01*
X142858443Y-73030481D01*
X142792260Y-73037000D01*
X142703740Y-73037000D01*
X142637557Y-73030481D01*
X142571373Y-73023963D01*
X142401534Y-72972443D01*
X142245009Y-72888778D01*
X142209271Y-72859448D01*
X142107814Y-72776186D01*
X142024552Y-72674729D01*
X141995222Y-72638991D01*
X141911557Y-72482466D01*
X141860037Y-72312627D01*
X141842641Y-72136000D01*
X141860037Y-71959373D01*
X141911557Y-71789534D01*
X141995222Y-71633009D01*
X142024552Y-71597271D01*
X142107814Y-71495814D01*
X142209271Y-71412552D01*
X142245009Y-71383222D01*
X142401534Y-71299557D01*
X142571373Y-71248037D01*
X142637557Y-71241519D01*
X142703740Y-71235000D01*
X142792260Y-71235000D01*
X142858443Y-71241519D01*
X142858443Y-71241519D01*
G37*
G36*
X145398443Y-71241519D02*
G01*
X145464627Y-71248037D01*
X145634466Y-71299557D01*
X145790991Y-71383222D01*
X145826729Y-71412552D01*
X145928186Y-71495814D01*
X146011448Y-71597271D01*
X146040778Y-71633009D01*
X146124443Y-71789534D01*
X146175963Y-71959373D01*
X146193359Y-72136000D01*
X146175963Y-72312627D01*
X146124443Y-72482466D01*
X146040778Y-72638991D01*
X146011448Y-72674729D01*
X145928186Y-72776186D01*
X145826729Y-72859448D01*
X145790991Y-72888778D01*
X145634466Y-72972443D01*
X145464627Y-73023963D01*
X145398443Y-73030481D01*
X145332260Y-73037000D01*
X145243740Y-73037000D01*
X145177557Y-73030481D01*
X145111373Y-73023963D01*
X144941534Y-72972443D01*
X144785009Y-72888778D01*
X144749271Y-72859448D01*
X144647814Y-72776186D01*
X144564552Y-72674729D01*
X144535222Y-72638991D01*
X144451557Y-72482466D01*
X144400037Y-72312627D01*
X144382641Y-72136000D01*
X144400037Y-71959373D01*
X144451557Y-71789534D01*
X144535222Y-71633009D01*
X144564552Y-71597271D01*
X144647814Y-71495814D01*
X144749271Y-71412552D01*
X144785009Y-71383222D01*
X144941534Y-71299557D01*
X145111373Y-71248037D01*
X145177557Y-71241519D01*
X145243740Y-71235000D01*
X145332260Y-71235000D01*
X145398443Y-71241519D01*
X145398443Y-71241519D01*
G37*
G36*
X145398443Y-68701519D02*
G01*
X145464627Y-68708037D01*
X145634466Y-68759557D01*
X145790991Y-68843222D01*
X145826729Y-68872552D01*
X145928186Y-68955814D01*
X146011448Y-69057271D01*
X146040778Y-69093009D01*
X146124443Y-69249534D01*
X146175963Y-69419373D01*
X146193359Y-69596000D01*
X146175963Y-69772627D01*
X146124443Y-69942466D01*
X146040778Y-70098991D01*
X146011448Y-70134729D01*
X145928186Y-70236186D01*
X145826729Y-70319448D01*
X145790991Y-70348778D01*
X145634466Y-70432443D01*
X145464627Y-70483963D01*
X145398443Y-70490481D01*
X145332260Y-70497000D01*
X145243740Y-70497000D01*
X145177557Y-70490481D01*
X145111373Y-70483963D01*
X144941534Y-70432443D01*
X144785009Y-70348778D01*
X144749271Y-70319448D01*
X144647814Y-70236186D01*
X144564552Y-70134729D01*
X144535222Y-70098991D01*
X144451557Y-69942466D01*
X144400037Y-69772627D01*
X144382641Y-69596000D01*
X144400037Y-69419373D01*
X144451557Y-69249534D01*
X144535222Y-69093009D01*
X144564552Y-69057271D01*
X144647814Y-68955814D01*
X144749271Y-68872552D01*
X144785009Y-68843222D01*
X144941534Y-68759557D01*
X145111373Y-68708037D01*
X145177557Y-68701519D01*
X145243740Y-68695000D01*
X145332260Y-68695000D01*
X145398443Y-68701519D01*
X145398443Y-68701519D01*
G37*
G36*
X142858443Y-68701519D02*
G01*
X142924627Y-68708037D01*
X143094466Y-68759557D01*
X143250991Y-68843222D01*
X143286729Y-68872552D01*
X143388186Y-68955814D01*
X143471448Y-69057271D01*
X143500778Y-69093009D01*
X143584443Y-69249534D01*
X143635963Y-69419373D01*
X143653359Y-69596000D01*
X143635963Y-69772627D01*
X143584443Y-69942466D01*
X143500778Y-70098991D01*
X143471448Y-70134729D01*
X143388186Y-70236186D01*
X143286729Y-70319448D01*
X143250991Y-70348778D01*
X143094466Y-70432443D01*
X142924627Y-70483963D01*
X142858443Y-70490481D01*
X142792260Y-70497000D01*
X142703740Y-70497000D01*
X142637557Y-70490481D01*
X142571373Y-70483963D01*
X142401534Y-70432443D01*
X142245009Y-70348778D01*
X142209271Y-70319448D01*
X142107814Y-70236186D01*
X142024552Y-70134729D01*
X141995222Y-70098991D01*
X141911557Y-69942466D01*
X141860037Y-69772627D01*
X141842641Y-69596000D01*
X141860037Y-69419373D01*
X141911557Y-69249534D01*
X141995222Y-69093009D01*
X142024552Y-69057271D01*
X142107814Y-68955814D01*
X142209271Y-68872552D01*
X142245009Y-68843222D01*
X142401534Y-68759557D01*
X142571373Y-68708037D01*
X142637557Y-68701519D01*
X142703740Y-68695000D01*
X142792260Y-68695000D01*
X142858443Y-68701519D01*
X142858443Y-68701519D01*
G37*
G36*
X84438443Y-68701519D02*
G01*
X84504627Y-68708037D01*
X84674466Y-68759557D01*
X84830991Y-68843222D01*
X84866729Y-68872552D01*
X84968186Y-68955814D01*
X85051448Y-69057271D01*
X85080778Y-69093009D01*
X85164443Y-69249534D01*
X85215963Y-69419373D01*
X85233359Y-69596000D01*
X85215963Y-69772627D01*
X85164443Y-69942466D01*
X85080778Y-70098991D01*
X85051448Y-70134729D01*
X84968186Y-70236186D01*
X84866729Y-70319448D01*
X84830991Y-70348778D01*
X84674466Y-70432443D01*
X84504627Y-70483963D01*
X84438443Y-70490481D01*
X84372260Y-70497000D01*
X84283740Y-70497000D01*
X84217557Y-70490481D01*
X84151373Y-70483963D01*
X83981534Y-70432443D01*
X83825009Y-70348778D01*
X83789271Y-70319448D01*
X83687814Y-70236186D01*
X83604552Y-70134729D01*
X83575222Y-70098991D01*
X83491557Y-69942466D01*
X83440037Y-69772627D01*
X83422641Y-69596000D01*
X83440037Y-69419373D01*
X83491557Y-69249534D01*
X83575222Y-69093009D01*
X83604552Y-69057271D01*
X83687814Y-68955814D01*
X83789271Y-68872552D01*
X83825009Y-68843222D01*
X83981534Y-68759557D01*
X84151373Y-68708037D01*
X84217557Y-68701519D01*
X84283740Y-68695000D01*
X84372260Y-68695000D01*
X84438443Y-68701519D01*
X84438443Y-68701519D01*
G37*
G36*
X81898443Y-68701519D02*
G01*
X81964627Y-68708037D01*
X82134466Y-68759557D01*
X82290991Y-68843222D01*
X82326729Y-68872552D01*
X82428186Y-68955814D01*
X82511448Y-69057271D01*
X82540778Y-69093009D01*
X82624443Y-69249534D01*
X82675963Y-69419373D01*
X82693359Y-69596000D01*
X82675963Y-69772627D01*
X82624443Y-69942466D01*
X82540778Y-70098991D01*
X82511448Y-70134729D01*
X82428186Y-70236186D01*
X82326729Y-70319448D01*
X82290991Y-70348778D01*
X82134466Y-70432443D01*
X81964627Y-70483963D01*
X81898443Y-70490481D01*
X81832260Y-70497000D01*
X81743740Y-70497000D01*
X81677557Y-70490481D01*
X81611373Y-70483963D01*
X81441534Y-70432443D01*
X81285009Y-70348778D01*
X81249271Y-70319448D01*
X81147814Y-70236186D01*
X81064552Y-70134729D01*
X81035222Y-70098991D01*
X80951557Y-69942466D01*
X80900037Y-69772627D01*
X80882641Y-69596000D01*
X80900037Y-69419373D01*
X80951557Y-69249534D01*
X81035222Y-69093009D01*
X81064552Y-69057271D01*
X81147814Y-68955814D01*
X81249271Y-68872552D01*
X81285009Y-68843222D01*
X81441534Y-68759557D01*
X81611373Y-68708037D01*
X81677557Y-68701519D01*
X81743740Y-68695000D01*
X81832260Y-68695000D01*
X81898443Y-68701519D01*
X81898443Y-68701519D01*
G37*
G36*
X81898442Y-66161518D02*
G01*
X81964627Y-66168037D01*
X82134466Y-66219557D01*
X82290991Y-66303222D01*
X82326729Y-66332552D01*
X82428186Y-66415814D01*
X82511448Y-66517271D01*
X82540778Y-66553009D01*
X82624443Y-66709534D01*
X82675963Y-66879373D01*
X82693359Y-67056000D01*
X82675963Y-67232627D01*
X82624443Y-67402466D01*
X82540778Y-67558991D01*
X82511448Y-67594729D01*
X82428186Y-67696186D01*
X82326729Y-67779448D01*
X82290991Y-67808778D01*
X82134466Y-67892443D01*
X81964627Y-67943963D01*
X81898442Y-67950482D01*
X81832260Y-67957000D01*
X81743740Y-67957000D01*
X81677558Y-67950482D01*
X81611373Y-67943963D01*
X81441534Y-67892443D01*
X81285009Y-67808778D01*
X81249271Y-67779448D01*
X81147814Y-67696186D01*
X81064552Y-67594729D01*
X81035222Y-67558991D01*
X80951557Y-67402466D01*
X80900037Y-67232627D01*
X80882641Y-67056000D01*
X80900037Y-66879373D01*
X80951557Y-66709534D01*
X81035222Y-66553009D01*
X81064552Y-66517271D01*
X81147814Y-66415814D01*
X81249271Y-66332552D01*
X81285009Y-66303222D01*
X81441534Y-66219557D01*
X81611373Y-66168037D01*
X81677558Y-66161518D01*
X81743740Y-66155000D01*
X81832260Y-66155000D01*
X81898442Y-66161518D01*
X81898442Y-66161518D01*
G37*
G36*
X84438442Y-66161518D02*
G01*
X84504627Y-66168037D01*
X84674466Y-66219557D01*
X84830991Y-66303222D01*
X84866729Y-66332552D01*
X84968186Y-66415814D01*
X85051448Y-66517271D01*
X85080778Y-66553009D01*
X85164443Y-66709534D01*
X85215963Y-66879373D01*
X85233359Y-67056000D01*
X85215963Y-67232627D01*
X85164443Y-67402466D01*
X85080778Y-67558991D01*
X85051448Y-67594729D01*
X84968186Y-67696186D01*
X84866729Y-67779448D01*
X84830991Y-67808778D01*
X84674466Y-67892443D01*
X84504627Y-67943963D01*
X84438442Y-67950482D01*
X84372260Y-67957000D01*
X84283740Y-67957000D01*
X84217558Y-67950482D01*
X84151373Y-67943963D01*
X83981534Y-67892443D01*
X83825009Y-67808778D01*
X83789271Y-67779448D01*
X83687814Y-67696186D01*
X83604552Y-67594729D01*
X83575222Y-67558991D01*
X83491557Y-67402466D01*
X83440037Y-67232627D01*
X83422641Y-67056000D01*
X83440037Y-66879373D01*
X83491557Y-66709534D01*
X83575222Y-66553009D01*
X83604552Y-66517271D01*
X83687814Y-66415814D01*
X83789271Y-66332552D01*
X83825009Y-66303222D01*
X83981534Y-66219557D01*
X84151373Y-66168037D01*
X84217558Y-66161518D01*
X84283740Y-66155000D01*
X84372260Y-66155000D01*
X84438442Y-66161518D01*
X84438442Y-66161518D01*
G37*
G36*
X145398442Y-66161518D02*
G01*
X145464627Y-66168037D01*
X145634466Y-66219557D01*
X145790991Y-66303222D01*
X145826729Y-66332552D01*
X145928186Y-66415814D01*
X146011448Y-66517271D01*
X146040778Y-66553009D01*
X146124443Y-66709534D01*
X146175963Y-66879373D01*
X146193359Y-67056000D01*
X146175963Y-67232627D01*
X146124443Y-67402466D01*
X146040778Y-67558991D01*
X146011448Y-67594729D01*
X145928186Y-67696186D01*
X145826729Y-67779448D01*
X145790991Y-67808778D01*
X145634466Y-67892443D01*
X145464627Y-67943963D01*
X145398442Y-67950482D01*
X145332260Y-67957000D01*
X145243740Y-67957000D01*
X145177558Y-67950482D01*
X145111373Y-67943963D01*
X144941534Y-67892443D01*
X144785009Y-67808778D01*
X144749271Y-67779448D01*
X144647814Y-67696186D01*
X144564552Y-67594729D01*
X144535222Y-67558991D01*
X144451557Y-67402466D01*
X144400037Y-67232627D01*
X144382641Y-67056000D01*
X144400037Y-66879373D01*
X144451557Y-66709534D01*
X144535222Y-66553009D01*
X144564552Y-66517271D01*
X144647814Y-66415814D01*
X144749271Y-66332552D01*
X144785009Y-66303222D01*
X144941534Y-66219557D01*
X145111373Y-66168037D01*
X145177558Y-66161518D01*
X145243740Y-66155000D01*
X145332260Y-66155000D01*
X145398442Y-66161518D01*
X145398442Y-66161518D01*
G37*
G36*
X142858442Y-66161518D02*
G01*
X142924627Y-66168037D01*
X143094466Y-66219557D01*
X143250991Y-66303222D01*
X143286729Y-66332552D01*
X143388186Y-66415814D01*
X143471448Y-66517271D01*
X143500778Y-66553009D01*
X143584443Y-66709534D01*
X143635963Y-66879373D01*
X143653359Y-67056000D01*
X143635963Y-67232627D01*
X143584443Y-67402466D01*
X143500778Y-67558991D01*
X143471448Y-67594729D01*
X143388186Y-67696186D01*
X143286729Y-67779448D01*
X143250991Y-67808778D01*
X143094466Y-67892443D01*
X142924627Y-67943963D01*
X142858442Y-67950482D01*
X142792260Y-67957000D01*
X142703740Y-67957000D01*
X142637558Y-67950482D01*
X142571373Y-67943963D01*
X142401534Y-67892443D01*
X142245009Y-67808778D01*
X142209271Y-67779448D01*
X142107814Y-67696186D01*
X142024552Y-67594729D01*
X141995222Y-67558991D01*
X141911557Y-67402466D01*
X141860037Y-67232627D01*
X141842641Y-67056000D01*
X141860037Y-66879373D01*
X141911557Y-66709534D01*
X141995222Y-66553009D01*
X142024552Y-66517271D01*
X142107814Y-66415814D01*
X142209271Y-66332552D01*
X142245009Y-66303222D01*
X142401534Y-66219557D01*
X142571373Y-66168037D01*
X142637558Y-66161518D01*
X142703740Y-66155000D01*
X142792260Y-66155000D01*
X142858442Y-66161518D01*
X142858442Y-66161518D01*
G37*
G36*
X109554674Y-65944465D02*
G01*
X109592367Y-65955899D01*
X109627103Y-65974466D01*
X109657548Y-65999452D01*
X109682534Y-66029897D01*
X109701101Y-66064633D01*
X109712535Y-66102326D01*
X109717000Y-66147661D01*
X109717000Y-66984339D01*
X109712535Y-67029674D01*
X109701101Y-67067367D01*
X109682534Y-67102103D01*
X109657548Y-67132548D01*
X109627103Y-67157534D01*
X109592367Y-67176101D01*
X109554674Y-67187535D01*
X109509339Y-67192000D01*
X108422661Y-67192000D01*
X108377326Y-67187535D01*
X108339633Y-67176101D01*
X108304897Y-67157534D01*
X108274452Y-67132548D01*
X108249466Y-67102103D01*
X108230899Y-67067367D01*
X108219465Y-67029674D01*
X108215000Y-66984339D01*
X108215000Y-66147661D01*
X108219465Y-66102326D01*
X108230899Y-66064633D01*
X108249466Y-66029897D01*
X108274452Y-65999452D01*
X108304897Y-65974466D01*
X108339633Y-65955899D01*
X108377326Y-65944465D01*
X108422661Y-65940000D01*
X109509339Y-65940000D01*
X109554674Y-65944465D01*
X109554674Y-65944465D01*
G37*
G36*
X121111674Y-65944465D02*
G01*
X121149367Y-65955899D01*
X121184103Y-65974466D01*
X121214548Y-65999452D01*
X121239534Y-66029897D01*
X121258101Y-66064633D01*
X121269535Y-66102326D01*
X121274000Y-66147661D01*
X121274000Y-66984339D01*
X121269535Y-67029674D01*
X121258101Y-67067367D01*
X121239534Y-67102103D01*
X121214548Y-67132548D01*
X121184103Y-67157534D01*
X121149367Y-67176101D01*
X121111674Y-67187535D01*
X121066339Y-67192000D01*
X119979661Y-67192000D01*
X119934326Y-67187535D01*
X119896633Y-67176101D01*
X119861897Y-67157534D01*
X119831452Y-67132548D01*
X119806466Y-67102103D01*
X119787899Y-67067367D01*
X119776465Y-67029674D01*
X119772000Y-66984339D01*
X119772000Y-66147661D01*
X119776465Y-66102326D01*
X119787899Y-66064633D01*
X119806466Y-66029897D01*
X119831452Y-65999452D01*
X119861897Y-65974466D01*
X119896633Y-65955899D01*
X119934326Y-65944465D01*
X119979661Y-65940000D01*
X121066339Y-65940000D01*
X121111674Y-65944465D01*
X121111674Y-65944465D01*
G37*
G36*
X115396674Y-65944465D02*
G01*
X115434367Y-65955899D01*
X115469103Y-65974466D01*
X115499548Y-65999452D01*
X115524534Y-66029897D01*
X115543101Y-66064633D01*
X115554535Y-66102326D01*
X115559000Y-66147661D01*
X115559000Y-66984339D01*
X115554535Y-67029674D01*
X115543101Y-67067367D01*
X115524534Y-67102103D01*
X115499548Y-67132548D01*
X115469103Y-67157534D01*
X115434367Y-67176101D01*
X115396674Y-67187535D01*
X115351339Y-67192000D01*
X114264661Y-67192000D01*
X114219326Y-67187535D01*
X114181633Y-67176101D01*
X114146897Y-67157534D01*
X114116452Y-67132548D01*
X114091466Y-67102103D01*
X114072899Y-67067367D01*
X114061465Y-67029674D01*
X114057000Y-66984339D01*
X114057000Y-66147661D01*
X114061465Y-66102326D01*
X114072899Y-66064633D01*
X114091466Y-66029897D01*
X114116452Y-65999452D01*
X114146897Y-65974466D01*
X114181633Y-65955899D01*
X114219326Y-65944465D01*
X114264661Y-65940000D01*
X115351339Y-65940000D01*
X115396674Y-65944465D01*
X115396674Y-65944465D01*
G37*
G36*
X103839674Y-65944465D02*
G01*
X103877367Y-65955899D01*
X103912103Y-65974466D01*
X103942548Y-65999452D01*
X103967534Y-66029897D01*
X103986101Y-66064633D01*
X103997535Y-66102326D01*
X104002000Y-66147661D01*
X104002000Y-66984339D01*
X103997535Y-67029674D01*
X103986101Y-67067367D01*
X103967534Y-67102103D01*
X103942548Y-67132548D01*
X103912103Y-67157534D01*
X103877367Y-67176101D01*
X103839674Y-67187535D01*
X103794339Y-67192000D01*
X102707661Y-67192000D01*
X102662326Y-67187535D01*
X102624633Y-67176101D01*
X102589897Y-67157534D01*
X102559452Y-67132548D01*
X102534466Y-67102103D01*
X102515899Y-67067367D01*
X102504465Y-67029674D01*
X102500000Y-66984339D01*
X102500000Y-66147661D01*
X102504465Y-66102326D01*
X102515899Y-66064633D01*
X102534466Y-66029897D01*
X102559452Y-65999452D01*
X102589897Y-65974466D01*
X102624633Y-65955899D01*
X102662326Y-65944465D01*
X102707661Y-65940000D01*
X103794339Y-65940000D01*
X103839674Y-65944465D01*
X103839674Y-65944465D01*
G37*
G36*
X81898443Y-63621519D02*
G01*
X81964627Y-63628037D01*
X82134466Y-63679557D01*
X82290991Y-63763222D01*
X82299530Y-63770230D01*
X82428186Y-63875814D01*
X82488618Y-63949452D01*
X82540778Y-64013009D01*
X82624443Y-64169534D01*
X82675963Y-64339373D01*
X82693359Y-64516000D01*
X82675963Y-64692627D01*
X82624443Y-64862466D01*
X82540778Y-65018991D01*
X82517032Y-65047925D01*
X82428186Y-65156186D01*
X82349049Y-65221131D01*
X82290991Y-65268778D01*
X82134466Y-65352443D01*
X81964627Y-65403963D01*
X81898443Y-65410481D01*
X81832260Y-65417000D01*
X81743740Y-65417000D01*
X81677557Y-65410481D01*
X81611373Y-65403963D01*
X81441534Y-65352443D01*
X81285009Y-65268778D01*
X81226951Y-65221131D01*
X81147814Y-65156186D01*
X81058968Y-65047925D01*
X81035222Y-65018991D01*
X80951557Y-64862466D01*
X80900037Y-64692627D01*
X80882641Y-64516000D01*
X80900037Y-64339373D01*
X80951557Y-64169534D01*
X81035222Y-64013009D01*
X81087382Y-63949452D01*
X81147814Y-63875814D01*
X81276470Y-63770230D01*
X81285009Y-63763222D01*
X81441534Y-63679557D01*
X81611373Y-63628037D01*
X81677557Y-63621519D01*
X81743740Y-63615000D01*
X81832260Y-63615000D01*
X81898443Y-63621519D01*
X81898443Y-63621519D01*
G37*
G36*
X84438443Y-63621519D02*
G01*
X84504627Y-63628037D01*
X84674466Y-63679557D01*
X84830991Y-63763222D01*
X84839530Y-63770230D01*
X84968186Y-63875814D01*
X85028618Y-63949452D01*
X85080778Y-64013009D01*
X85164443Y-64169534D01*
X85215963Y-64339373D01*
X85233359Y-64516000D01*
X85215963Y-64692627D01*
X85164443Y-64862466D01*
X85080778Y-65018991D01*
X85057032Y-65047925D01*
X84968186Y-65156186D01*
X84889049Y-65221131D01*
X84830991Y-65268778D01*
X84674466Y-65352443D01*
X84504627Y-65403963D01*
X84438443Y-65410481D01*
X84372260Y-65417000D01*
X84283740Y-65417000D01*
X84217557Y-65410481D01*
X84151373Y-65403963D01*
X83981534Y-65352443D01*
X83825009Y-65268778D01*
X83766951Y-65221131D01*
X83687814Y-65156186D01*
X83598968Y-65047925D01*
X83575222Y-65018991D01*
X83491557Y-64862466D01*
X83440037Y-64692627D01*
X83422641Y-64516000D01*
X83440037Y-64339373D01*
X83491557Y-64169534D01*
X83575222Y-64013009D01*
X83627382Y-63949452D01*
X83687814Y-63875814D01*
X83816470Y-63770230D01*
X83825009Y-63763222D01*
X83981534Y-63679557D01*
X84151373Y-63628037D01*
X84217557Y-63621519D01*
X84283740Y-63615000D01*
X84372260Y-63615000D01*
X84438443Y-63621519D01*
X84438443Y-63621519D01*
G37*
G36*
X145398443Y-63621519D02*
G01*
X145464627Y-63628037D01*
X145634466Y-63679557D01*
X145790991Y-63763222D01*
X145799530Y-63770230D01*
X145928186Y-63875814D01*
X145988618Y-63949452D01*
X146040778Y-64013009D01*
X146124443Y-64169534D01*
X146175963Y-64339373D01*
X146193359Y-64516000D01*
X146175963Y-64692627D01*
X146124443Y-64862466D01*
X146040778Y-65018991D01*
X146017032Y-65047925D01*
X145928186Y-65156186D01*
X145849049Y-65221131D01*
X145790991Y-65268778D01*
X145634466Y-65352443D01*
X145464627Y-65403963D01*
X145398443Y-65410481D01*
X145332260Y-65417000D01*
X145243740Y-65417000D01*
X145177557Y-65410481D01*
X145111373Y-65403963D01*
X144941534Y-65352443D01*
X144785009Y-65268778D01*
X144726951Y-65221131D01*
X144647814Y-65156186D01*
X144558968Y-65047925D01*
X144535222Y-65018991D01*
X144451557Y-64862466D01*
X144400037Y-64692627D01*
X144382641Y-64516000D01*
X144400037Y-64339373D01*
X144451557Y-64169534D01*
X144535222Y-64013009D01*
X144587382Y-63949452D01*
X144647814Y-63875814D01*
X144776470Y-63770230D01*
X144785009Y-63763222D01*
X144941534Y-63679557D01*
X145111373Y-63628037D01*
X145177557Y-63621519D01*
X145243740Y-63615000D01*
X145332260Y-63615000D01*
X145398443Y-63621519D01*
X145398443Y-63621519D01*
G37*
G36*
X142858443Y-63621519D02*
G01*
X142924627Y-63628037D01*
X143094466Y-63679557D01*
X143250991Y-63763222D01*
X143259530Y-63770230D01*
X143388186Y-63875814D01*
X143448618Y-63949452D01*
X143500778Y-64013009D01*
X143584443Y-64169534D01*
X143635963Y-64339373D01*
X143653359Y-64516000D01*
X143635963Y-64692627D01*
X143584443Y-64862466D01*
X143500778Y-65018991D01*
X143477032Y-65047925D01*
X143388186Y-65156186D01*
X143309049Y-65221131D01*
X143250991Y-65268778D01*
X143094466Y-65352443D01*
X142924627Y-65403963D01*
X142858443Y-65410481D01*
X142792260Y-65417000D01*
X142703740Y-65417000D01*
X142637557Y-65410481D01*
X142571373Y-65403963D01*
X142401534Y-65352443D01*
X142245009Y-65268778D01*
X142186951Y-65221131D01*
X142107814Y-65156186D01*
X142018968Y-65047925D01*
X141995222Y-65018991D01*
X141911557Y-64862466D01*
X141860037Y-64692627D01*
X141842641Y-64516000D01*
X141860037Y-64339373D01*
X141911557Y-64169534D01*
X141995222Y-64013009D01*
X142047382Y-63949452D01*
X142107814Y-63875814D01*
X142236470Y-63770230D01*
X142245009Y-63763222D01*
X142401534Y-63679557D01*
X142571373Y-63628037D01*
X142637557Y-63621519D01*
X142703740Y-63615000D01*
X142792260Y-63615000D01*
X142858443Y-63621519D01*
X142858443Y-63621519D01*
G37*
G36*
X91921674Y-63769465D02*
G01*
X91959367Y-63780899D01*
X91994103Y-63799466D01*
X92024548Y-63824452D01*
X92049534Y-63854897D01*
X92068101Y-63889633D01*
X92079535Y-63927326D01*
X92084000Y-63972661D01*
X92084000Y-65059339D01*
X92079535Y-65104674D01*
X92068101Y-65142367D01*
X92049534Y-65177103D01*
X92024548Y-65207548D01*
X91994103Y-65232534D01*
X91959367Y-65251101D01*
X91921674Y-65262535D01*
X91876339Y-65267000D01*
X91039661Y-65267000D01*
X90994326Y-65262535D01*
X90956633Y-65251101D01*
X90921897Y-65232534D01*
X90891452Y-65207548D01*
X90866466Y-65177103D01*
X90847899Y-65142367D01*
X90836465Y-65104674D01*
X90832000Y-65059339D01*
X90832000Y-63972661D01*
X90836465Y-63927326D01*
X90847899Y-63889633D01*
X90866466Y-63854897D01*
X90891452Y-63824452D01*
X90921897Y-63799466D01*
X90956633Y-63780899D01*
X90994326Y-63769465D01*
X91039661Y-63765000D01*
X91876339Y-63765000D01*
X91921674Y-63769465D01*
X91921674Y-63769465D01*
G37*
G36*
X89871674Y-63769465D02*
G01*
X89909367Y-63780899D01*
X89944103Y-63799466D01*
X89974548Y-63824452D01*
X89999534Y-63854897D01*
X90018101Y-63889633D01*
X90029535Y-63927326D01*
X90034000Y-63972661D01*
X90034000Y-65059339D01*
X90029535Y-65104674D01*
X90018101Y-65142367D01*
X89999534Y-65177103D01*
X89974548Y-65207548D01*
X89944103Y-65232534D01*
X89909367Y-65251101D01*
X89871674Y-65262535D01*
X89826339Y-65267000D01*
X88989661Y-65267000D01*
X88944326Y-65262535D01*
X88906633Y-65251101D01*
X88871897Y-65232534D01*
X88841452Y-65207548D01*
X88816466Y-65177103D01*
X88797899Y-65142367D01*
X88786465Y-65104674D01*
X88782000Y-65059339D01*
X88782000Y-63972661D01*
X88786465Y-63927326D01*
X88797899Y-63889633D01*
X88816466Y-63854897D01*
X88841452Y-63824452D01*
X88871897Y-63799466D01*
X88906633Y-63780899D01*
X88944326Y-63769465D01*
X88989661Y-63765000D01*
X89826339Y-63765000D01*
X89871674Y-63769465D01*
X89871674Y-63769465D01*
G37*
G36*
X109554674Y-63894465D02*
G01*
X109592367Y-63905899D01*
X109627103Y-63924466D01*
X109657548Y-63949452D01*
X109682534Y-63979897D01*
X109701101Y-64014633D01*
X109712535Y-64052326D01*
X109717000Y-64097661D01*
X109717000Y-64934339D01*
X109712535Y-64979674D01*
X109701101Y-65017367D01*
X109682534Y-65052103D01*
X109657548Y-65082548D01*
X109627103Y-65107534D01*
X109592367Y-65126101D01*
X109554674Y-65137535D01*
X109509339Y-65142000D01*
X108422661Y-65142000D01*
X108377326Y-65137535D01*
X108339633Y-65126101D01*
X108304897Y-65107534D01*
X108274452Y-65082548D01*
X108249466Y-65052103D01*
X108230899Y-65017367D01*
X108219465Y-64979674D01*
X108215000Y-64934339D01*
X108215000Y-64097661D01*
X108219465Y-64052326D01*
X108230899Y-64014633D01*
X108249466Y-63979897D01*
X108274452Y-63949452D01*
X108304897Y-63924466D01*
X108339633Y-63905899D01*
X108377326Y-63894465D01*
X108422661Y-63890000D01*
X109509339Y-63890000D01*
X109554674Y-63894465D01*
X109554674Y-63894465D01*
G37*
G36*
X103839674Y-63894465D02*
G01*
X103877367Y-63905899D01*
X103912103Y-63924466D01*
X103942548Y-63949452D01*
X103967534Y-63979897D01*
X103986101Y-64014633D01*
X103997535Y-64052326D01*
X104002000Y-64097661D01*
X104002000Y-64934339D01*
X103997535Y-64979674D01*
X103986101Y-65017367D01*
X103967534Y-65052103D01*
X103942548Y-65082548D01*
X103912103Y-65107534D01*
X103877367Y-65126101D01*
X103839674Y-65137535D01*
X103794339Y-65142000D01*
X102707661Y-65142000D01*
X102662326Y-65137535D01*
X102624633Y-65126101D01*
X102589897Y-65107534D01*
X102559452Y-65082548D01*
X102534466Y-65052103D01*
X102515899Y-65017367D01*
X102504465Y-64979674D01*
X102500000Y-64934339D01*
X102500000Y-64097661D01*
X102504465Y-64052326D01*
X102515899Y-64014633D01*
X102534466Y-63979897D01*
X102559452Y-63949452D01*
X102589897Y-63924466D01*
X102624633Y-63905899D01*
X102662326Y-63894465D01*
X102707661Y-63890000D01*
X103794339Y-63890000D01*
X103839674Y-63894465D01*
X103839674Y-63894465D01*
G37*
G36*
X115396674Y-63894465D02*
G01*
X115434367Y-63905899D01*
X115469103Y-63924466D01*
X115499548Y-63949452D01*
X115524534Y-63979897D01*
X115543101Y-64014633D01*
X115554535Y-64052326D01*
X115559000Y-64097661D01*
X115559000Y-64934339D01*
X115554535Y-64979674D01*
X115543101Y-65017367D01*
X115524534Y-65052103D01*
X115499548Y-65082548D01*
X115469103Y-65107534D01*
X115434367Y-65126101D01*
X115396674Y-65137535D01*
X115351339Y-65142000D01*
X114264661Y-65142000D01*
X114219326Y-65137535D01*
X114181633Y-65126101D01*
X114146897Y-65107534D01*
X114116452Y-65082548D01*
X114091466Y-65052103D01*
X114072899Y-65017367D01*
X114061465Y-64979674D01*
X114057000Y-64934339D01*
X114057000Y-64097661D01*
X114061465Y-64052326D01*
X114072899Y-64014633D01*
X114091466Y-63979897D01*
X114116452Y-63949452D01*
X114146897Y-63924466D01*
X114181633Y-63905899D01*
X114219326Y-63894465D01*
X114264661Y-63890000D01*
X115351339Y-63890000D01*
X115396674Y-63894465D01*
X115396674Y-63894465D01*
G37*
G36*
X121111674Y-63894465D02*
G01*
X121149367Y-63905899D01*
X121184103Y-63924466D01*
X121214548Y-63949452D01*
X121239534Y-63979897D01*
X121258101Y-64014633D01*
X121269535Y-64052326D01*
X121274000Y-64097661D01*
X121274000Y-64934339D01*
X121269535Y-64979674D01*
X121258101Y-65017367D01*
X121239534Y-65052103D01*
X121214548Y-65082548D01*
X121184103Y-65107534D01*
X121149367Y-65126101D01*
X121111674Y-65137535D01*
X121066339Y-65142000D01*
X119979661Y-65142000D01*
X119934326Y-65137535D01*
X119896633Y-65126101D01*
X119861897Y-65107534D01*
X119831452Y-65082548D01*
X119806466Y-65052103D01*
X119787899Y-65017367D01*
X119776465Y-64979674D01*
X119772000Y-64934339D01*
X119772000Y-64097661D01*
X119776465Y-64052326D01*
X119787899Y-64014633D01*
X119806466Y-63979897D01*
X119831452Y-63949452D01*
X119861897Y-63924466D01*
X119896633Y-63905899D01*
X119934326Y-63894465D01*
X119979661Y-63890000D01*
X121066339Y-63890000D01*
X121111674Y-63894465D01*
X121111674Y-63894465D01*
G37*
G36*
X142858442Y-61081518D02*
G01*
X142924627Y-61088037D01*
X143094466Y-61139557D01*
X143094468Y-61139558D01*
X143150811Y-61169674D01*
X143250991Y-61223222D01*
X143273997Y-61242103D01*
X143388186Y-61335814D01*
X143448618Y-61409452D01*
X143500778Y-61473009D01*
X143584443Y-61629534D01*
X143635963Y-61799373D01*
X143653359Y-61976000D01*
X143635963Y-62152627D01*
X143584443Y-62322466D01*
X143500778Y-62478991D01*
X143473603Y-62512103D01*
X143388186Y-62616186D01*
X143286729Y-62699448D01*
X143250991Y-62728778D01*
X143094466Y-62812443D01*
X142924627Y-62863963D01*
X142858443Y-62870481D01*
X142792260Y-62877000D01*
X142703740Y-62877000D01*
X142637557Y-62870481D01*
X142571373Y-62863963D01*
X142401534Y-62812443D01*
X142245009Y-62728778D01*
X142209271Y-62699448D01*
X142107814Y-62616186D01*
X142022397Y-62512103D01*
X141995222Y-62478991D01*
X141911557Y-62322466D01*
X141860037Y-62152627D01*
X141842641Y-61976000D01*
X141860037Y-61799373D01*
X141911557Y-61629534D01*
X141995222Y-61473009D01*
X142047382Y-61409452D01*
X142107814Y-61335814D01*
X142222003Y-61242103D01*
X142245009Y-61223222D01*
X142345189Y-61169674D01*
X142401532Y-61139558D01*
X142401534Y-61139557D01*
X142571373Y-61088037D01*
X142637558Y-61081518D01*
X142703740Y-61075000D01*
X142792260Y-61075000D01*
X142858442Y-61081518D01*
X142858442Y-61081518D01*
G37*
G36*
X81898442Y-61081518D02*
G01*
X81964627Y-61088037D01*
X82134466Y-61139557D01*
X82134468Y-61139558D01*
X82190811Y-61169674D01*
X82290991Y-61223222D01*
X82313997Y-61242103D01*
X82428186Y-61335814D01*
X82488618Y-61409452D01*
X82540778Y-61473009D01*
X82624443Y-61629534D01*
X82675963Y-61799373D01*
X82693359Y-61976000D01*
X82675963Y-62152627D01*
X82624443Y-62322466D01*
X82540778Y-62478991D01*
X82513603Y-62512103D01*
X82428186Y-62616186D01*
X82326729Y-62699448D01*
X82290991Y-62728778D01*
X82134466Y-62812443D01*
X81964627Y-62863963D01*
X81898443Y-62870481D01*
X81832260Y-62877000D01*
X81743740Y-62877000D01*
X81677557Y-62870481D01*
X81611373Y-62863963D01*
X81441534Y-62812443D01*
X81285009Y-62728778D01*
X81249271Y-62699448D01*
X81147814Y-62616186D01*
X81062397Y-62512103D01*
X81035222Y-62478991D01*
X80951557Y-62322466D01*
X80900037Y-62152627D01*
X80882641Y-61976000D01*
X80900037Y-61799373D01*
X80951557Y-61629534D01*
X81035222Y-61473009D01*
X81087382Y-61409452D01*
X81147814Y-61335814D01*
X81262003Y-61242103D01*
X81285009Y-61223222D01*
X81385189Y-61169674D01*
X81441532Y-61139558D01*
X81441534Y-61139557D01*
X81611373Y-61088037D01*
X81677558Y-61081518D01*
X81743740Y-61075000D01*
X81832260Y-61075000D01*
X81898442Y-61081518D01*
X81898442Y-61081518D01*
G37*
G36*
X145398442Y-61081518D02*
G01*
X145464627Y-61088037D01*
X145634466Y-61139557D01*
X145634468Y-61139558D01*
X145690811Y-61169674D01*
X145790991Y-61223222D01*
X145813997Y-61242103D01*
X145928186Y-61335814D01*
X145988618Y-61409452D01*
X146040778Y-61473009D01*
X146124443Y-61629534D01*
X146175963Y-61799373D01*
X146193359Y-61976000D01*
X146175963Y-62152627D01*
X146124443Y-62322466D01*
X146040778Y-62478991D01*
X146013603Y-62512103D01*
X145928186Y-62616186D01*
X145826729Y-62699448D01*
X145790991Y-62728778D01*
X145634466Y-62812443D01*
X145464627Y-62863963D01*
X145398443Y-62870481D01*
X145332260Y-62877000D01*
X145243740Y-62877000D01*
X145177557Y-62870481D01*
X145111373Y-62863963D01*
X144941534Y-62812443D01*
X144785009Y-62728778D01*
X144749271Y-62699448D01*
X144647814Y-62616186D01*
X144562397Y-62512103D01*
X144535222Y-62478991D01*
X144451557Y-62322466D01*
X144400037Y-62152627D01*
X144382641Y-61976000D01*
X144400037Y-61799373D01*
X144451557Y-61629534D01*
X144535222Y-61473009D01*
X144587382Y-61409452D01*
X144647814Y-61335814D01*
X144762003Y-61242103D01*
X144785009Y-61223222D01*
X144885189Y-61169674D01*
X144941532Y-61139558D01*
X144941534Y-61139557D01*
X145111373Y-61088037D01*
X145177558Y-61081518D01*
X145243740Y-61075000D01*
X145332260Y-61075000D01*
X145398442Y-61081518D01*
X145398442Y-61081518D01*
G37*
G36*
X84438442Y-61081518D02*
G01*
X84504627Y-61088037D01*
X84674466Y-61139557D01*
X84674468Y-61139558D01*
X84730811Y-61169674D01*
X84830991Y-61223222D01*
X84853997Y-61242103D01*
X84968186Y-61335814D01*
X85028618Y-61409452D01*
X85080778Y-61473009D01*
X85164443Y-61629534D01*
X85215963Y-61799373D01*
X85233359Y-61976000D01*
X85215963Y-62152627D01*
X85164443Y-62322466D01*
X85080778Y-62478991D01*
X85053603Y-62512103D01*
X84968186Y-62616186D01*
X84866729Y-62699448D01*
X84830991Y-62728778D01*
X84674466Y-62812443D01*
X84504627Y-62863963D01*
X84438443Y-62870481D01*
X84372260Y-62877000D01*
X84283740Y-62877000D01*
X84217557Y-62870481D01*
X84151373Y-62863963D01*
X83981534Y-62812443D01*
X83825009Y-62728778D01*
X83789271Y-62699448D01*
X83687814Y-62616186D01*
X83602397Y-62512103D01*
X83575222Y-62478991D01*
X83491557Y-62322466D01*
X83440037Y-62152627D01*
X83422641Y-61976000D01*
X83440037Y-61799373D01*
X83491557Y-61629534D01*
X83575222Y-61473009D01*
X83627382Y-61409452D01*
X83687814Y-61335814D01*
X83802003Y-61242103D01*
X83825009Y-61223222D01*
X83925189Y-61169674D01*
X83981532Y-61139558D01*
X83981534Y-61139557D01*
X84151373Y-61088037D01*
X84217558Y-61081518D01*
X84283740Y-61075000D01*
X84372260Y-61075000D01*
X84438442Y-61081518D01*
X84438442Y-61081518D01*
G37*
G36*
X121111674Y-61354465D02*
G01*
X121149367Y-61365899D01*
X121184103Y-61384466D01*
X121214548Y-61409452D01*
X121239534Y-61439897D01*
X121258101Y-61474633D01*
X121269535Y-61512326D01*
X121274000Y-61557661D01*
X121274000Y-62394339D01*
X121269535Y-62439674D01*
X121258101Y-62477367D01*
X121239534Y-62512103D01*
X121214548Y-62542548D01*
X121184103Y-62567534D01*
X121149367Y-62586101D01*
X121111674Y-62597535D01*
X121066339Y-62602000D01*
X119979661Y-62602000D01*
X119934326Y-62597535D01*
X119896633Y-62586101D01*
X119861897Y-62567534D01*
X119831452Y-62542548D01*
X119806466Y-62512103D01*
X119787899Y-62477367D01*
X119776465Y-62439674D01*
X119772000Y-62394339D01*
X119772000Y-61557661D01*
X119776465Y-61512326D01*
X119787899Y-61474633D01*
X119806466Y-61439897D01*
X119831452Y-61409452D01*
X119861897Y-61384466D01*
X119896633Y-61365899D01*
X119934326Y-61354465D01*
X119979661Y-61350000D01*
X121066339Y-61350000D01*
X121111674Y-61354465D01*
X121111674Y-61354465D01*
G37*
G36*
X115354340Y-61354465D02*
G01*
X115392033Y-61365899D01*
X115426769Y-61384466D01*
X115457214Y-61409452D01*
X115482200Y-61439897D01*
X115500767Y-61474633D01*
X115512201Y-61512326D01*
X115516666Y-61557661D01*
X115516666Y-62394339D01*
X115512201Y-62439674D01*
X115500767Y-62477367D01*
X115482200Y-62512103D01*
X115457214Y-62542548D01*
X115426769Y-62567534D01*
X115392033Y-62586101D01*
X115354340Y-62597535D01*
X115309005Y-62602000D01*
X114222327Y-62602000D01*
X114176992Y-62597535D01*
X114139299Y-62586101D01*
X114104563Y-62567534D01*
X114074118Y-62542548D01*
X114049132Y-62512103D01*
X114030565Y-62477367D01*
X114019131Y-62439674D01*
X114014666Y-62394339D01*
X114014666Y-61557661D01*
X114019131Y-61512326D01*
X114030565Y-61474633D01*
X114049132Y-61439897D01*
X114074118Y-61409452D01*
X114104563Y-61384466D01*
X114139299Y-61365899D01*
X114176992Y-61354465D01*
X114222327Y-61350000D01*
X115309005Y-61350000D01*
X115354340Y-61354465D01*
X115354340Y-61354465D01*
G37*
G36*
X109597007Y-61354465D02*
G01*
X109634700Y-61365899D01*
X109669436Y-61384466D01*
X109699881Y-61409452D01*
X109724867Y-61439897D01*
X109743434Y-61474633D01*
X109754868Y-61512326D01*
X109759333Y-61557661D01*
X109759333Y-62394339D01*
X109754868Y-62439674D01*
X109743434Y-62477367D01*
X109724867Y-62512103D01*
X109699881Y-62542548D01*
X109669436Y-62567534D01*
X109634700Y-62586101D01*
X109597007Y-62597535D01*
X109551672Y-62602000D01*
X108464994Y-62602000D01*
X108419659Y-62597535D01*
X108381966Y-62586101D01*
X108347230Y-62567534D01*
X108316785Y-62542548D01*
X108291799Y-62512103D01*
X108273232Y-62477367D01*
X108261798Y-62439674D01*
X108257333Y-62394339D01*
X108257333Y-61557661D01*
X108261798Y-61512326D01*
X108273232Y-61474633D01*
X108291799Y-61439897D01*
X108316785Y-61409452D01*
X108347230Y-61384466D01*
X108381966Y-61365899D01*
X108419659Y-61354465D01*
X108464994Y-61350000D01*
X109551672Y-61350000D01*
X109597007Y-61354465D01*
X109597007Y-61354465D01*
G37*
G36*
X103839674Y-61354465D02*
G01*
X103877367Y-61365899D01*
X103912103Y-61384466D01*
X103942548Y-61409452D01*
X103967534Y-61439897D01*
X103986101Y-61474633D01*
X103997535Y-61512326D01*
X104002000Y-61557661D01*
X104002000Y-62394339D01*
X103997535Y-62439674D01*
X103986101Y-62477367D01*
X103967534Y-62512103D01*
X103942548Y-62542548D01*
X103912103Y-62567534D01*
X103877367Y-62586101D01*
X103839674Y-62597535D01*
X103794339Y-62602000D01*
X102707661Y-62602000D01*
X102662326Y-62597535D01*
X102624633Y-62586101D01*
X102589897Y-62567534D01*
X102559452Y-62542548D01*
X102534466Y-62512103D01*
X102515899Y-62477367D01*
X102504465Y-62439674D01*
X102500000Y-62394339D01*
X102500000Y-61557661D01*
X102504465Y-61512326D01*
X102515899Y-61474633D01*
X102534466Y-61439897D01*
X102559452Y-61409452D01*
X102589897Y-61384466D01*
X102624633Y-61365899D01*
X102662326Y-61354465D01*
X102707661Y-61350000D01*
X103794339Y-61350000D01*
X103839674Y-61354465D01*
X103839674Y-61354465D01*
G37*
G36*
X92028674Y-60084465D02*
G01*
X92066367Y-60095899D01*
X92101103Y-60114466D01*
X92131548Y-60139452D01*
X92156534Y-60169897D01*
X92175101Y-60204633D01*
X92186535Y-60242326D01*
X92191000Y-60287661D01*
X92191000Y-61124339D01*
X92186535Y-61169674D01*
X92175101Y-61207367D01*
X92156534Y-61242103D01*
X92131548Y-61272548D01*
X92101103Y-61297534D01*
X92066367Y-61316101D01*
X92028674Y-61327535D01*
X91983339Y-61332000D01*
X90896661Y-61332000D01*
X90851326Y-61327535D01*
X90813633Y-61316101D01*
X90778897Y-61297534D01*
X90748452Y-61272548D01*
X90723466Y-61242103D01*
X90704899Y-61207367D01*
X90693465Y-61169674D01*
X90689000Y-61124339D01*
X90689000Y-60287661D01*
X90693465Y-60242326D01*
X90704899Y-60204633D01*
X90723466Y-60169897D01*
X90748452Y-60139452D01*
X90778897Y-60114466D01*
X90813633Y-60095899D01*
X90851326Y-60084465D01*
X90896661Y-60080000D01*
X91983339Y-60080000D01*
X92028674Y-60084465D01*
X92028674Y-60084465D01*
G37*
G36*
X121111674Y-59304465D02*
G01*
X121149367Y-59315899D01*
X121184103Y-59334466D01*
X121214548Y-59359452D01*
X121239534Y-59389897D01*
X121258101Y-59424633D01*
X121269535Y-59462326D01*
X121274000Y-59507661D01*
X121274000Y-60344339D01*
X121269535Y-60389674D01*
X121258101Y-60427367D01*
X121239534Y-60462103D01*
X121214548Y-60492548D01*
X121184103Y-60517534D01*
X121149367Y-60536101D01*
X121111674Y-60547535D01*
X121066339Y-60552000D01*
X119979661Y-60552000D01*
X119934326Y-60547535D01*
X119896633Y-60536101D01*
X119861897Y-60517534D01*
X119831452Y-60492548D01*
X119806466Y-60462103D01*
X119787899Y-60427367D01*
X119776465Y-60389674D01*
X119772000Y-60344339D01*
X119772000Y-59507661D01*
X119776465Y-59462326D01*
X119787899Y-59424633D01*
X119806466Y-59389897D01*
X119831452Y-59359452D01*
X119861897Y-59334466D01*
X119896633Y-59315899D01*
X119934326Y-59304465D01*
X119979661Y-59300000D01*
X121066339Y-59300000D01*
X121111674Y-59304465D01*
X121111674Y-59304465D01*
G37*
G36*
X103839674Y-59304465D02*
G01*
X103877367Y-59315899D01*
X103912103Y-59334466D01*
X103942548Y-59359452D01*
X103967534Y-59389897D01*
X103986101Y-59424633D01*
X103997535Y-59462326D01*
X104002000Y-59507661D01*
X104002000Y-60344339D01*
X103997535Y-60389674D01*
X103986101Y-60427367D01*
X103967534Y-60462103D01*
X103942548Y-60492548D01*
X103912103Y-60517534D01*
X103877367Y-60536101D01*
X103839674Y-60547535D01*
X103794339Y-60552000D01*
X102707661Y-60552000D01*
X102662326Y-60547535D01*
X102624633Y-60536101D01*
X102589897Y-60517534D01*
X102559452Y-60492548D01*
X102534466Y-60462103D01*
X102515899Y-60427367D01*
X102504465Y-60389674D01*
X102500000Y-60344339D01*
X102500000Y-59507661D01*
X102504465Y-59462326D01*
X102515899Y-59424633D01*
X102534466Y-59389897D01*
X102559452Y-59359452D01*
X102589897Y-59334466D01*
X102624633Y-59315899D01*
X102662326Y-59304465D01*
X102707661Y-59300000D01*
X103794339Y-59300000D01*
X103839674Y-59304465D01*
X103839674Y-59304465D01*
G37*
G36*
X115354340Y-59304465D02*
G01*
X115392033Y-59315899D01*
X115426769Y-59334466D01*
X115457214Y-59359452D01*
X115482200Y-59389897D01*
X115500767Y-59424633D01*
X115512201Y-59462326D01*
X115516666Y-59507661D01*
X115516666Y-60344339D01*
X115512201Y-60389674D01*
X115500767Y-60427367D01*
X115482200Y-60462103D01*
X115457214Y-60492548D01*
X115426769Y-60517534D01*
X115392033Y-60536101D01*
X115354340Y-60547535D01*
X115309005Y-60552000D01*
X114222327Y-60552000D01*
X114176992Y-60547535D01*
X114139299Y-60536101D01*
X114104563Y-60517534D01*
X114074118Y-60492548D01*
X114049132Y-60462103D01*
X114030565Y-60427367D01*
X114019131Y-60389674D01*
X114014666Y-60344339D01*
X114014666Y-59507661D01*
X114019131Y-59462326D01*
X114030565Y-59424633D01*
X114049132Y-59389897D01*
X114074118Y-59359452D01*
X114104563Y-59334466D01*
X114139299Y-59315899D01*
X114176992Y-59304465D01*
X114222327Y-59300000D01*
X115309005Y-59300000D01*
X115354340Y-59304465D01*
X115354340Y-59304465D01*
G37*
G36*
X109597007Y-59304465D02*
G01*
X109634700Y-59315899D01*
X109669436Y-59334466D01*
X109699881Y-59359452D01*
X109724867Y-59389897D01*
X109743434Y-59424633D01*
X109754868Y-59462326D01*
X109759333Y-59507661D01*
X109759333Y-60344339D01*
X109754868Y-60389674D01*
X109743434Y-60427367D01*
X109724867Y-60462103D01*
X109699881Y-60492548D01*
X109669436Y-60517534D01*
X109634700Y-60536101D01*
X109597007Y-60547535D01*
X109551672Y-60552000D01*
X108464994Y-60552000D01*
X108419659Y-60547535D01*
X108381966Y-60536101D01*
X108347230Y-60517534D01*
X108316785Y-60492548D01*
X108291799Y-60462103D01*
X108273232Y-60427367D01*
X108261798Y-60389674D01*
X108257333Y-60344339D01*
X108257333Y-59507661D01*
X108261798Y-59462326D01*
X108273232Y-59424633D01*
X108291799Y-59389897D01*
X108316785Y-59359452D01*
X108347230Y-59334466D01*
X108381966Y-59315899D01*
X108419659Y-59304465D01*
X108464994Y-59300000D01*
X109551672Y-59300000D01*
X109597007Y-59304465D01*
X109597007Y-59304465D01*
G37*
G36*
X81898443Y-58541519D02*
G01*
X81964627Y-58548037D01*
X82134466Y-58599557D01*
X82290991Y-58683222D01*
X82326729Y-58712552D01*
X82428186Y-58795814D01*
X82511448Y-58897271D01*
X82540778Y-58933009D01*
X82624443Y-59089534D01*
X82675963Y-59259373D01*
X82693359Y-59436000D01*
X82675963Y-59612627D01*
X82624443Y-59782466D01*
X82540778Y-59938991D01*
X82511448Y-59974729D01*
X82428186Y-60076186D01*
X82326729Y-60159448D01*
X82290991Y-60188778D01*
X82261329Y-60204633D01*
X82180164Y-60248017D01*
X82134466Y-60272443D01*
X81964627Y-60323963D01*
X81898442Y-60330482D01*
X81832260Y-60337000D01*
X81743740Y-60337000D01*
X81677558Y-60330482D01*
X81611373Y-60323963D01*
X81441534Y-60272443D01*
X81395837Y-60248017D01*
X81314671Y-60204633D01*
X81285009Y-60188778D01*
X81249271Y-60159448D01*
X81147814Y-60076186D01*
X81064552Y-59974729D01*
X81035222Y-59938991D01*
X80951557Y-59782466D01*
X80900037Y-59612627D01*
X80882641Y-59436000D01*
X80900037Y-59259373D01*
X80951557Y-59089534D01*
X81035222Y-58933009D01*
X81064552Y-58897271D01*
X81147814Y-58795814D01*
X81249271Y-58712552D01*
X81285009Y-58683222D01*
X81441534Y-58599557D01*
X81611373Y-58548037D01*
X81677557Y-58541519D01*
X81743740Y-58535000D01*
X81832260Y-58535000D01*
X81898443Y-58541519D01*
X81898443Y-58541519D01*
G37*
G36*
X84438443Y-58541519D02*
G01*
X84504627Y-58548037D01*
X84674466Y-58599557D01*
X84830991Y-58683222D01*
X84866729Y-58712552D01*
X84968186Y-58795814D01*
X85051448Y-58897271D01*
X85080778Y-58933009D01*
X85164443Y-59089534D01*
X85215963Y-59259373D01*
X85233359Y-59436000D01*
X85215963Y-59612627D01*
X85164443Y-59782466D01*
X85080778Y-59938991D01*
X85051448Y-59974729D01*
X84968186Y-60076186D01*
X84866729Y-60159448D01*
X84830991Y-60188778D01*
X84801329Y-60204633D01*
X84720164Y-60248017D01*
X84674466Y-60272443D01*
X84504627Y-60323963D01*
X84438442Y-60330482D01*
X84372260Y-60337000D01*
X84283740Y-60337000D01*
X84217558Y-60330482D01*
X84151373Y-60323963D01*
X83981534Y-60272443D01*
X83935837Y-60248017D01*
X83854671Y-60204633D01*
X83825009Y-60188778D01*
X83789271Y-60159448D01*
X83687814Y-60076186D01*
X83604552Y-59974729D01*
X83575222Y-59938991D01*
X83491557Y-59782466D01*
X83440037Y-59612627D01*
X83422641Y-59436000D01*
X83440037Y-59259373D01*
X83491557Y-59089534D01*
X83575222Y-58933009D01*
X83604552Y-58897271D01*
X83687814Y-58795814D01*
X83789271Y-58712552D01*
X83825009Y-58683222D01*
X83981534Y-58599557D01*
X84151373Y-58548037D01*
X84217557Y-58541519D01*
X84283740Y-58535000D01*
X84372260Y-58535000D01*
X84438443Y-58541519D01*
X84438443Y-58541519D01*
G37*
G36*
X142858443Y-58541519D02*
G01*
X142924627Y-58548037D01*
X143094466Y-58599557D01*
X143250991Y-58683222D01*
X143286729Y-58712552D01*
X143388186Y-58795814D01*
X143471448Y-58897271D01*
X143500778Y-58933009D01*
X143584443Y-59089534D01*
X143635963Y-59259373D01*
X143653359Y-59436000D01*
X143635963Y-59612627D01*
X143584443Y-59782466D01*
X143500778Y-59938991D01*
X143471448Y-59974729D01*
X143388186Y-60076186D01*
X143286729Y-60159448D01*
X143250991Y-60188778D01*
X143221329Y-60204633D01*
X143140164Y-60248017D01*
X143094466Y-60272443D01*
X142924627Y-60323963D01*
X142858442Y-60330482D01*
X142792260Y-60337000D01*
X142703740Y-60337000D01*
X142637558Y-60330482D01*
X142571373Y-60323963D01*
X142401534Y-60272443D01*
X142355837Y-60248017D01*
X142274671Y-60204633D01*
X142245009Y-60188778D01*
X142209271Y-60159448D01*
X142107814Y-60076186D01*
X142024552Y-59974729D01*
X141995222Y-59938991D01*
X141911557Y-59782466D01*
X141860037Y-59612627D01*
X141842641Y-59436000D01*
X141860037Y-59259373D01*
X141911557Y-59089534D01*
X141995222Y-58933009D01*
X142024552Y-58897271D01*
X142107814Y-58795814D01*
X142209271Y-58712552D01*
X142245009Y-58683222D01*
X142401534Y-58599557D01*
X142571373Y-58548037D01*
X142637557Y-58541519D01*
X142703740Y-58535000D01*
X142792260Y-58535000D01*
X142858443Y-58541519D01*
X142858443Y-58541519D01*
G37*
G36*
X145398443Y-58541519D02*
G01*
X145464627Y-58548037D01*
X145634466Y-58599557D01*
X145790991Y-58683222D01*
X145826729Y-58712552D01*
X145928186Y-58795814D01*
X146011448Y-58897271D01*
X146040778Y-58933009D01*
X146124443Y-59089534D01*
X146175963Y-59259373D01*
X146193359Y-59436000D01*
X146175963Y-59612627D01*
X146124443Y-59782466D01*
X146040778Y-59938991D01*
X146011448Y-59974729D01*
X145928186Y-60076186D01*
X145826729Y-60159448D01*
X145790991Y-60188778D01*
X145761329Y-60204633D01*
X145680164Y-60248017D01*
X145634466Y-60272443D01*
X145464627Y-60323963D01*
X145398442Y-60330482D01*
X145332260Y-60337000D01*
X145243740Y-60337000D01*
X145177558Y-60330482D01*
X145111373Y-60323963D01*
X144941534Y-60272443D01*
X144895837Y-60248017D01*
X144814671Y-60204633D01*
X144785009Y-60188778D01*
X144749271Y-60159448D01*
X144647814Y-60076186D01*
X144564552Y-59974729D01*
X144535222Y-59938991D01*
X144451557Y-59782466D01*
X144400037Y-59612627D01*
X144382641Y-59436000D01*
X144400037Y-59259373D01*
X144451557Y-59089534D01*
X144535222Y-58933009D01*
X144564552Y-58897271D01*
X144647814Y-58795814D01*
X144749271Y-58712552D01*
X144785009Y-58683222D01*
X144941534Y-58599557D01*
X145111373Y-58548037D01*
X145177557Y-58541519D01*
X145243740Y-58535000D01*
X145332260Y-58535000D01*
X145398443Y-58541519D01*
X145398443Y-58541519D01*
G37*
G36*
X92028674Y-58034465D02*
G01*
X92066367Y-58045899D01*
X92101103Y-58064466D01*
X92131548Y-58089452D01*
X92156534Y-58119897D01*
X92175101Y-58154633D01*
X92186535Y-58192326D01*
X92191000Y-58237661D01*
X92191000Y-59074339D01*
X92186535Y-59119674D01*
X92175101Y-59157367D01*
X92156534Y-59192103D01*
X92131548Y-59222548D01*
X92101103Y-59247534D01*
X92066367Y-59266101D01*
X92028674Y-59277535D01*
X91983339Y-59282000D01*
X90896661Y-59282000D01*
X90851326Y-59277535D01*
X90813633Y-59266101D01*
X90778897Y-59247534D01*
X90748452Y-59222548D01*
X90723466Y-59192103D01*
X90704899Y-59157367D01*
X90693465Y-59119674D01*
X90689000Y-59074339D01*
X90689000Y-58237661D01*
X90693465Y-58192326D01*
X90704899Y-58154633D01*
X90723466Y-58119897D01*
X90748452Y-58089452D01*
X90778897Y-58064466D01*
X90813633Y-58045899D01*
X90851326Y-58034465D01*
X90896661Y-58030000D01*
X91983339Y-58030000D01*
X92028674Y-58034465D01*
X92028674Y-58034465D01*
G37*
G36*
X142858442Y-56001518D02*
G01*
X142924627Y-56008037D01*
X143094466Y-56059557D01*
X143250991Y-56143222D01*
X143286729Y-56172552D01*
X143388186Y-56255814D01*
X143471448Y-56357271D01*
X143500778Y-56393009D01*
X143584443Y-56549534D01*
X143635963Y-56719373D01*
X143653359Y-56896000D01*
X143635963Y-57072627D01*
X143584443Y-57242466D01*
X143500778Y-57398991D01*
X143471448Y-57434729D01*
X143388186Y-57536186D01*
X143286729Y-57619448D01*
X143250991Y-57648778D01*
X143094466Y-57732443D01*
X142924627Y-57783963D01*
X142858442Y-57790482D01*
X142792260Y-57797000D01*
X142703740Y-57797000D01*
X142637558Y-57790482D01*
X142571373Y-57783963D01*
X142401534Y-57732443D01*
X142245009Y-57648778D01*
X142209271Y-57619448D01*
X142107814Y-57536186D01*
X142024552Y-57434729D01*
X141995222Y-57398991D01*
X141911557Y-57242466D01*
X141860037Y-57072627D01*
X141842641Y-56896000D01*
X141860037Y-56719373D01*
X141911557Y-56549534D01*
X141995222Y-56393009D01*
X142024552Y-56357271D01*
X142107814Y-56255814D01*
X142209271Y-56172552D01*
X142245009Y-56143222D01*
X142401534Y-56059557D01*
X142571373Y-56008037D01*
X142637558Y-56001518D01*
X142703740Y-55995000D01*
X142792260Y-55995000D01*
X142858442Y-56001518D01*
X142858442Y-56001518D01*
G37*
G36*
X84438442Y-56001518D02*
G01*
X84504627Y-56008037D01*
X84674466Y-56059557D01*
X84830991Y-56143222D01*
X84866729Y-56172552D01*
X84968186Y-56255814D01*
X85051448Y-56357271D01*
X85080778Y-56393009D01*
X85164443Y-56549534D01*
X85215963Y-56719373D01*
X85233359Y-56896000D01*
X85215963Y-57072627D01*
X85164443Y-57242466D01*
X85080778Y-57398991D01*
X85051448Y-57434729D01*
X84968186Y-57536186D01*
X84866729Y-57619448D01*
X84830991Y-57648778D01*
X84674466Y-57732443D01*
X84504627Y-57783963D01*
X84438442Y-57790482D01*
X84372260Y-57797000D01*
X84283740Y-57797000D01*
X84217558Y-57790482D01*
X84151373Y-57783963D01*
X83981534Y-57732443D01*
X83825009Y-57648778D01*
X83789271Y-57619448D01*
X83687814Y-57536186D01*
X83604552Y-57434729D01*
X83575222Y-57398991D01*
X83491557Y-57242466D01*
X83440037Y-57072627D01*
X83422641Y-56896000D01*
X83440037Y-56719373D01*
X83491557Y-56549534D01*
X83575222Y-56393009D01*
X83604552Y-56357271D01*
X83687814Y-56255814D01*
X83789271Y-56172552D01*
X83825009Y-56143222D01*
X83981534Y-56059557D01*
X84151373Y-56008037D01*
X84217558Y-56001518D01*
X84283740Y-55995000D01*
X84372260Y-55995000D01*
X84438442Y-56001518D01*
X84438442Y-56001518D01*
G37*
G36*
X145398442Y-56001518D02*
G01*
X145464627Y-56008037D01*
X145634466Y-56059557D01*
X145790991Y-56143222D01*
X145826729Y-56172552D01*
X145928186Y-56255814D01*
X146011448Y-56357271D01*
X146040778Y-56393009D01*
X146124443Y-56549534D01*
X146175963Y-56719373D01*
X146193359Y-56896000D01*
X146175963Y-57072627D01*
X146124443Y-57242466D01*
X146040778Y-57398991D01*
X146011448Y-57434729D01*
X145928186Y-57536186D01*
X145826729Y-57619448D01*
X145790991Y-57648778D01*
X145634466Y-57732443D01*
X145464627Y-57783963D01*
X145398442Y-57790482D01*
X145332260Y-57797000D01*
X145243740Y-57797000D01*
X145177558Y-57790482D01*
X145111373Y-57783963D01*
X144941534Y-57732443D01*
X144785009Y-57648778D01*
X144749271Y-57619448D01*
X144647814Y-57536186D01*
X144564552Y-57434729D01*
X144535222Y-57398991D01*
X144451557Y-57242466D01*
X144400037Y-57072627D01*
X144382641Y-56896000D01*
X144400037Y-56719373D01*
X144451557Y-56549534D01*
X144535222Y-56393009D01*
X144564552Y-56357271D01*
X144647814Y-56255814D01*
X144749271Y-56172552D01*
X144785009Y-56143222D01*
X144941534Y-56059557D01*
X145111373Y-56008037D01*
X145177558Y-56001518D01*
X145243740Y-55995000D01*
X145332260Y-55995000D01*
X145398442Y-56001518D01*
X145398442Y-56001518D01*
G37*
G36*
X81898442Y-56001518D02*
G01*
X81964627Y-56008037D01*
X82134466Y-56059557D01*
X82290991Y-56143222D01*
X82326729Y-56172552D01*
X82428186Y-56255814D01*
X82511448Y-56357271D01*
X82540778Y-56393009D01*
X82624443Y-56549534D01*
X82675963Y-56719373D01*
X82693359Y-56896000D01*
X82675963Y-57072627D01*
X82624443Y-57242466D01*
X82540778Y-57398991D01*
X82511448Y-57434729D01*
X82428186Y-57536186D01*
X82326729Y-57619448D01*
X82290991Y-57648778D01*
X82134466Y-57732443D01*
X81964627Y-57783963D01*
X81898442Y-57790482D01*
X81832260Y-57797000D01*
X81743740Y-57797000D01*
X81677558Y-57790482D01*
X81611373Y-57783963D01*
X81441534Y-57732443D01*
X81285009Y-57648778D01*
X81249271Y-57619448D01*
X81147814Y-57536186D01*
X81064552Y-57434729D01*
X81035222Y-57398991D01*
X80951557Y-57242466D01*
X80900037Y-57072627D01*
X80882641Y-56896000D01*
X80900037Y-56719373D01*
X80951557Y-56549534D01*
X81035222Y-56393009D01*
X81064552Y-56357271D01*
X81147814Y-56255814D01*
X81249271Y-56172552D01*
X81285009Y-56143222D01*
X81441534Y-56059557D01*
X81611373Y-56008037D01*
X81677558Y-56001518D01*
X81743740Y-55995000D01*
X81832260Y-55995000D01*
X81898442Y-56001518D01*
X81898442Y-56001518D01*
G37*
G36*
X142858442Y-53461518D02*
G01*
X142924627Y-53468037D01*
X143094466Y-53519557D01*
X143250991Y-53603222D01*
X143286729Y-53632552D01*
X143388186Y-53715814D01*
X143471448Y-53817271D01*
X143500778Y-53853009D01*
X143584443Y-54009534D01*
X143635963Y-54179373D01*
X143653359Y-54356000D01*
X143635963Y-54532627D01*
X143584443Y-54702466D01*
X143500778Y-54858991D01*
X143471448Y-54894729D01*
X143388186Y-54996186D01*
X143286729Y-55079448D01*
X143250991Y-55108778D01*
X143094466Y-55192443D01*
X142924627Y-55243963D01*
X142858442Y-55250482D01*
X142792260Y-55257000D01*
X142703740Y-55257000D01*
X142637558Y-55250482D01*
X142571373Y-55243963D01*
X142401534Y-55192443D01*
X142245009Y-55108778D01*
X142209271Y-55079448D01*
X142107814Y-54996186D01*
X142024552Y-54894729D01*
X141995222Y-54858991D01*
X141911557Y-54702466D01*
X141860037Y-54532627D01*
X141842641Y-54356000D01*
X141860037Y-54179373D01*
X141911557Y-54009534D01*
X141995222Y-53853009D01*
X142024552Y-53817271D01*
X142107814Y-53715814D01*
X142209271Y-53632552D01*
X142245009Y-53603222D01*
X142401534Y-53519557D01*
X142571373Y-53468037D01*
X142637558Y-53461518D01*
X142703740Y-53455000D01*
X142792260Y-53455000D01*
X142858442Y-53461518D01*
X142858442Y-53461518D01*
G37*
G36*
X84438442Y-53461518D02*
G01*
X84504627Y-53468037D01*
X84674466Y-53519557D01*
X84830991Y-53603222D01*
X84866729Y-53632552D01*
X84968186Y-53715814D01*
X85051448Y-53817271D01*
X85080778Y-53853009D01*
X85164443Y-54009534D01*
X85215963Y-54179373D01*
X85233359Y-54356000D01*
X85215963Y-54532627D01*
X85164443Y-54702466D01*
X85080778Y-54858991D01*
X85051448Y-54894729D01*
X84968186Y-54996186D01*
X84866729Y-55079448D01*
X84830991Y-55108778D01*
X84674466Y-55192443D01*
X84504627Y-55243963D01*
X84438442Y-55250482D01*
X84372260Y-55257000D01*
X84283740Y-55257000D01*
X84217558Y-55250482D01*
X84151373Y-55243963D01*
X83981534Y-55192443D01*
X83825009Y-55108778D01*
X83789271Y-55079448D01*
X83687814Y-54996186D01*
X83604552Y-54894729D01*
X83575222Y-54858991D01*
X83491557Y-54702466D01*
X83440037Y-54532627D01*
X83422641Y-54356000D01*
X83440037Y-54179373D01*
X83491557Y-54009534D01*
X83575222Y-53853009D01*
X83604552Y-53817271D01*
X83687814Y-53715814D01*
X83789271Y-53632552D01*
X83825009Y-53603222D01*
X83981534Y-53519557D01*
X84151373Y-53468037D01*
X84217558Y-53461518D01*
X84283740Y-53455000D01*
X84372260Y-53455000D01*
X84438442Y-53461518D01*
X84438442Y-53461518D01*
G37*
G36*
X81898442Y-53461518D02*
G01*
X81964627Y-53468037D01*
X82134466Y-53519557D01*
X82290991Y-53603222D01*
X82326729Y-53632552D01*
X82428186Y-53715814D01*
X82511448Y-53817271D01*
X82540778Y-53853009D01*
X82624443Y-54009534D01*
X82675963Y-54179373D01*
X82693359Y-54356000D01*
X82675963Y-54532627D01*
X82624443Y-54702466D01*
X82540778Y-54858991D01*
X82511448Y-54894729D01*
X82428186Y-54996186D01*
X82326729Y-55079448D01*
X82290991Y-55108778D01*
X82134466Y-55192443D01*
X81964627Y-55243963D01*
X81898442Y-55250482D01*
X81832260Y-55257000D01*
X81743740Y-55257000D01*
X81677558Y-55250482D01*
X81611373Y-55243963D01*
X81441534Y-55192443D01*
X81285009Y-55108778D01*
X81249271Y-55079448D01*
X81147814Y-54996186D01*
X81064552Y-54894729D01*
X81035222Y-54858991D01*
X80951557Y-54702466D01*
X80900037Y-54532627D01*
X80882641Y-54356000D01*
X80900037Y-54179373D01*
X80951557Y-54009534D01*
X81035222Y-53853009D01*
X81064552Y-53817271D01*
X81147814Y-53715814D01*
X81249271Y-53632552D01*
X81285009Y-53603222D01*
X81441534Y-53519557D01*
X81611373Y-53468037D01*
X81677558Y-53461518D01*
X81743740Y-53455000D01*
X81832260Y-53455000D01*
X81898442Y-53461518D01*
X81898442Y-53461518D01*
G37*
G36*
X145398442Y-53461518D02*
G01*
X145464627Y-53468037D01*
X145634466Y-53519557D01*
X145790991Y-53603222D01*
X145826729Y-53632552D01*
X145928186Y-53715814D01*
X146011448Y-53817271D01*
X146040778Y-53853009D01*
X146124443Y-54009534D01*
X146175963Y-54179373D01*
X146193359Y-54356000D01*
X146175963Y-54532627D01*
X146124443Y-54702466D01*
X146040778Y-54858991D01*
X146011448Y-54894729D01*
X145928186Y-54996186D01*
X145826729Y-55079448D01*
X145790991Y-55108778D01*
X145634466Y-55192443D01*
X145464627Y-55243963D01*
X145398442Y-55250482D01*
X145332260Y-55257000D01*
X145243740Y-55257000D01*
X145177558Y-55250482D01*
X145111373Y-55243963D01*
X144941534Y-55192443D01*
X144785009Y-55108778D01*
X144749271Y-55079448D01*
X144647814Y-54996186D01*
X144564552Y-54894729D01*
X144535222Y-54858991D01*
X144451557Y-54702466D01*
X144400037Y-54532627D01*
X144382641Y-54356000D01*
X144400037Y-54179373D01*
X144451557Y-54009534D01*
X144535222Y-53853009D01*
X144564552Y-53817271D01*
X144647814Y-53715814D01*
X144749271Y-53632552D01*
X144785009Y-53603222D01*
X144941534Y-53519557D01*
X145111373Y-53468037D01*
X145177558Y-53461518D01*
X145243740Y-53455000D01*
X145332260Y-53455000D01*
X145398442Y-53461518D01*
X145398442Y-53461518D01*
G37*
G36*
X84438443Y-50921519D02*
G01*
X84504627Y-50928037D01*
X84674466Y-50979557D01*
X84830991Y-51063222D01*
X84866729Y-51092552D01*
X84968186Y-51175814D01*
X85051448Y-51277271D01*
X85080778Y-51313009D01*
X85164443Y-51469534D01*
X85215963Y-51639373D01*
X85233359Y-51816000D01*
X85215963Y-51992627D01*
X85164443Y-52162466D01*
X85080778Y-52318991D01*
X85051448Y-52354729D01*
X84968186Y-52456186D01*
X84866729Y-52539448D01*
X84830991Y-52568778D01*
X84674466Y-52652443D01*
X84504627Y-52703963D01*
X84438443Y-52710481D01*
X84372260Y-52717000D01*
X84283740Y-52717000D01*
X84217558Y-52710482D01*
X84151373Y-52703963D01*
X83981534Y-52652443D01*
X83825009Y-52568778D01*
X83789271Y-52539448D01*
X83687814Y-52456186D01*
X83604552Y-52354729D01*
X83575222Y-52318991D01*
X83491557Y-52162466D01*
X83440037Y-51992627D01*
X83422641Y-51816000D01*
X83440037Y-51639373D01*
X83491557Y-51469534D01*
X83575222Y-51313009D01*
X83604552Y-51277271D01*
X83687814Y-51175814D01*
X83789271Y-51092552D01*
X83825009Y-51063222D01*
X83981534Y-50979557D01*
X84151373Y-50928037D01*
X84217557Y-50921519D01*
X84283740Y-50915000D01*
X84372260Y-50915000D01*
X84438443Y-50921519D01*
X84438443Y-50921519D01*
G37*
G36*
X145398443Y-50921519D02*
G01*
X145464627Y-50928037D01*
X145634466Y-50979557D01*
X145790991Y-51063222D01*
X145826729Y-51092552D01*
X145928186Y-51175814D01*
X146011448Y-51277271D01*
X146040778Y-51313009D01*
X146124443Y-51469534D01*
X146175963Y-51639373D01*
X146193359Y-51816000D01*
X146175963Y-51992627D01*
X146124443Y-52162466D01*
X146040778Y-52318991D01*
X146011448Y-52354729D01*
X145928186Y-52456186D01*
X145826729Y-52539448D01*
X145790991Y-52568778D01*
X145634466Y-52652443D01*
X145464627Y-52703963D01*
X145398443Y-52710481D01*
X145332260Y-52717000D01*
X145243740Y-52717000D01*
X145177558Y-52710482D01*
X145111373Y-52703963D01*
X144941534Y-52652443D01*
X144785009Y-52568778D01*
X144749271Y-52539448D01*
X144647814Y-52456186D01*
X144564552Y-52354729D01*
X144535222Y-52318991D01*
X144451557Y-52162466D01*
X144400037Y-51992627D01*
X144382641Y-51816000D01*
X144400037Y-51639373D01*
X144451557Y-51469534D01*
X144535222Y-51313009D01*
X144564552Y-51277271D01*
X144647814Y-51175814D01*
X144749271Y-51092552D01*
X144785009Y-51063222D01*
X144941534Y-50979557D01*
X145111373Y-50928037D01*
X145177557Y-50921519D01*
X145243740Y-50915000D01*
X145332260Y-50915000D01*
X145398443Y-50921519D01*
X145398443Y-50921519D01*
G37*
G36*
X142858443Y-50921519D02*
G01*
X142924627Y-50928037D01*
X143094466Y-50979557D01*
X143250991Y-51063222D01*
X143286729Y-51092552D01*
X143388186Y-51175814D01*
X143471448Y-51277271D01*
X143500778Y-51313009D01*
X143584443Y-51469534D01*
X143635963Y-51639373D01*
X143653359Y-51816000D01*
X143635963Y-51992627D01*
X143584443Y-52162466D01*
X143500778Y-52318991D01*
X143471448Y-52354729D01*
X143388186Y-52456186D01*
X143286729Y-52539448D01*
X143250991Y-52568778D01*
X143094466Y-52652443D01*
X142924627Y-52703963D01*
X142858443Y-52710481D01*
X142792260Y-52717000D01*
X142703740Y-52717000D01*
X142637558Y-52710482D01*
X142571373Y-52703963D01*
X142401534Y-52652443D01*
X142245009Y-52568778D01*
X142209271Y-52539448D01*
X142107814Y-52456186D01*
X142024552Y-52354729D01*
X141995222Y-52318991D01*
X141911557Y-52162466D01*
X141860037Y-51992627D01*
X141842641Y-51816000D01*
X141860037Y-51639373D01*
X141911557Y-51469534D01*
X141995222Y-51313009D01*
X142024552Y-51277271D01*
X142107814Y-51175814D01*
X142209271Y-51092552D01*
X142245009Y-51063222D01*
X142401534Y-50979557D01*
X142571373Y-50928037D01*
X142637557Y-50921519D01*
X142703740Y-50915000D01*
X142792260Y-50915000D01*
X142858443Y-50921519D01*
X142858443Y-50921519D01*
G37*
G36*
X81898443Y-50921519D02*
G01*
X81964627Y-50928037D01*
X82134466Y-50979557D01*
X82290991Y-51063222D01*
X82326729Y-51092552D01*
X82428186Y-51175814D01*
X82511448Y-51277271D01*
X82540778Y-51313009D01*
X82624443Y-51469534D01*
X82675963Y-51639373D01*
X82693359Y-51816000D01*
X82675963Y-51992627D01*
X82624443Y-52162466D01*
X82540778Y-52318991D01*
X82511448Y-52354729D01*
X82428186Y-52456186D01*
X82326729Y-52539448D01*
X82290991Y-52568778D01*
X82134466Y-52652443D01*
X81964627Y-52703963D01*
X81898443Y-52710481D01*
X81832260Y-52717000D01*
X81743740Y-52717000D01*
X81677558Y-52710482D01*
X81611373Y-52703963D01*
X81441534Y-52652443D01*
X81285009Y-52568778D01*
X81249271Y-52539448D01*
X81147814Y-52456186D01*
X81064552Y-52354729D01*
X81035222Y-52318991D01*
X80951557Y-52162466D01*
X80900037Y-51992627D01*
X80882641Y-51816000D01*
X80900037Y-51639373D01*
X80951557Y-51469534D01*
X81035222Y-51313009D01*
X81064552Y-51277271D01*
X81147814Y-51175814D01*
X81249271Y-51092552D01*
X81285009Y-51063222D01*
X81441534Y-50979557D01*
X81611373Y-50928037D01*
X81677557Y-50921519D01*
X81743740Y-50915000D01*
X81832260Y-50915000D01*
X81898443Y-50921519D01*
X81898443Y-50921519D01*
G37*
G36*
X81898442Y-48381518D02*
G01*
X81964627Y-48388037D01*
X82134466Y-48439557D01*
X82290991Y-48523222D01*
X82326729Y-48552552D01*
X82428186Y-48635814D01*
X82501378Y-48725000D01*
X82540778Y-48773009D01*
X82624443Y-48929534D01*
X82675963Y-49099373D01*
X82693359Y-49276000D01*
X82675963Y-49452627D01*
X82624443Y-49622466D01*
X82540778Y-49778991D01*
X82511448Y-49814729D01*
X82428186Y-49916186D01*
X82326729Y-49999448D01*
X82290991Y-50028778D01*
X82134466Y-50112443D01*
X81964627Y-50163963D01*
X81898443Y-50170481D01*
X81832260Y-50177000D01*
X81743740Y-50177000D01*
X81677557Y-50170481D01*
X81611373Y-50163963D01*
X81441534Y-50112443D01*
X81285009Y-50028778D01*
X81249271Y-49999448D01*
X81147814Y-49916186D01*
X81064552Y-49814729D01*
X81035222Y-49778991D01*
X80951557Y-49622466D01*
X80900037Y-49452627D01*
X80882641Y-49276000D01*
X80900037Y-49099373D01*
X80951557Y-48929534D01*
X81035222Y-48773009D01*
X81074622Y-48725000D01*
X81147814Y-48635814D01*
X81249271Y-48552552D01*
X81285009Y-48523222D01*
X81441534Y-48439557D01*
X81611373Y-48388037D01*
X81677558Y-48381518D01*
X81743740Y-48375000D01*
X81832260Y-48375000D01*
X81898442Y-48381518D01*
X81898442Y-48381518D01*
G37*
G36*
X84438442Y-48381518D02*
G01*
X84504627Y-48388037D01*
X84674466Y-48439557D01*
X84830991Y-48523222D01*
X84866729Y-48552552D01*
X84968186Y-48635814D01*
X85041378Y-48725000D01*
X85080778Y-48773009D01*
X85164443Y-48929534D01*
X85215963Y-49099373D01*
X85233359Y-49276000D01*
X85215963Y-49452627D01*
X85164443Y-49622466D01*
X85080778Y-49778991D01*
X85051448Y-49814729D01*
X84968186Y-49916186D01*
X84866729Y-49999448D01*
X84830991Y-50028778D01*
X84674466Y-50112443D01*
X84504627Y-50163963D01*
X84438443Y-50170481D01*
X84372260Y-50177000D01*
X84283740Y-50177000D01*
X84217557Y-50170481D01*
X84151373Y-50163963D01*
X83981534Y-50112443D01*
X83825009Y-50028778D01*
X83789271Y-49999448D01*
X83687814Y-49916186D01*
X83604552Y-49814729D01*
X83575222Y-49778991D01*
X83491557Y-49622466D01*
X83440037Y-49452627D01*
X83422641Y-49276000D01*
X83440037Y-49099373D01*
X83491557Y-48929534D01*
X83575222Y-48773009D01*
X83614622Y-48725000D01*
X83687814Y-48635814D01*
X83789271Y-48552552D01*
X83825009Y-48523222D01*
X83981534Y-48439557D01*
X84151373Y-48388037D01*
X84217558Y-48381518D01*
X84283740Y-48375000D01*
X84372260Y-48375000D01*
X84438442Y-48381518D01*
X84438442Y-48381518D01*
G37*
G36*
X142858442Y-48381518D02*
G01*
X142924627Y-48388037D01*
X143094466Y-48439557D01*
X143250991Y-48523222D01*
X143286729Y-48552552D01*
X143388186Y-48635814D01*
X143461378Y-48725000D01*
X143500778Y-48773009D01*
X143584443Y-48929534D01*
X143635963Y-49099373D01*
X143653359Y-49276000D01*
X143635963Y-49452627D01*
X143584443Y-49622466D01*
X143500778Y-49778991D01*
X143471448Y-49814729D01*
X143388186Y-49916186D01*
X143286729Y-49999448D01*
X143250991Y-50028778D01*
X143094466Y-50112443D01*
X142924627Y-50163963D01*
X142858443Y-50170481D01*
X142792260Y-50177000D01*
X142703740Y-50177000D01*
X142637557Y-50170481D01*
X142571373Y-50163963D01*
X142401534Y-50112443D01*
X142245009Y-50028778D01*
X142209271Y-49999448D01*
X142107814Y-49916186D01*
X142024552Y-49814729D01*
X141995222Y-49778991D01*
X141911557Y-49622466D01*
X141860037Y-49452627D01*
X141842641Y-49276000D01*
X141860037Y-49099373D01*
X141911557Y-48929534D01*
X141995222Y-48773009D01*
X142034622Y-48725000D01*
X142107814Y-48635814D01*
X142209271Y-48552552D01*
X142245009Y-48523222D01*
X142401534Y-48439557D01*
X142571373Y-48388037D01*
X142637558Y-48381518D01*
X142703740Y-48375000D01*
X142792260Y-48375000D01*
X142858442Y-48381518D01*
X142858442Y-48381518D01*
G37*
G36*
X145398442Y-48381518D02*
G01*
X145464627Y-48388037D01*
X145634466Y-48439557D01*
X145790991Y-48523222D01*
X145826729Y-48552552D01*
X145928186Y-48635814D01*
X146001378Y-48725000D01*
X146040778Y-48773009D01*
X146124443Y-48929534D01*
X146175963Y-49099373D01*
X146193359Y-49276000D01*
X146175963Y-49452627D01*
X146124443Y-49622466D01*
X146040778Y-49778991D01*
X146011448Y-49814729D01*
X145928186Y-49916186D01*
X145826729Y-49999448D01*
X145790991Y-50028778D01*
X145634466Y-50112443D01*
X145464627Y-50163963D01*
X145398443Y-50170481D01*
X145332260Y-50177000D01*
X145243740Y-50177000D01*
X145177557Y-50170481D01*
X145111373Y-50163963D01*
X144941534Y-50112443D01*
X144785009Y-50028778D01*
X144749271Y-49999448D01*
X144647814Y-49916186D01*
X144564552Y-49814729D01*
X144535222Y-49778991D01*
X144451557Y-49622466D01*
X144400037Y-49452627D01*
X144382641Y-49276000D01*
X144400037Y-49099373D01*
X144451557Y-48929534D01*
X144535222Y-48773009D01*
X144574622Y-48725000D01*
X144647814Y-48635814D01*
X144749271Y-48552552D01*
X144785009Y-48523222D01*
X144941534Y-48439557D01*
X145111373Y-48388037D01*
X145177558Y-48381518D01*
X145243740Y-48375000D01*
X145332260Y-48375000D01*
X145398442Y-48381518D01*
X145398442Y-48381518D01*
G37*
G36*
X121709000Y-49827000D02*
G01*
X120607000Y-49827000D01*
X120607000Y-48725000D01*
X121709000Y-48725000D01*
X121709000Y-49827000D01*
X121709000Y-49827000D01*
G37*
G36*
X103802000Y-49827000D02*
G01*
X102700000Y-49827000D01*
X102700000Y-48725000D01*
X103802000Y-48725000D01*
X103802000Y-49827000D01*
X103802000Y-49827000D01*
G37*
G36*
X109855666Y-49827000D02*
G01*
X108753666Y-49827000D01*
X108753666Y-48725000D01*
X109855666Y-48725000D01*
X109855666Y-49827000D01*
X109855666Y-49827000D01*
G37*
G36*
X115740000Y-49827000D02*
G01*
X114638000Y-49827000D01*
X114638000Y-48725000D01*
X115740000Y-48725000D01*
X115740000Y-49827000D01*
X115740000Y-49827000D01*
G37*
G36*
X143649000Y-47637000D02*
G01*
X141847000Y-47637000D01*
X141847000Y-45835000D01*
X143649000Y-45835000D01*
X143649000Y-47637000D01*
X143649000Y-47637000D01*
G37*
G36*
X84438443Y-45841519D02*
G01*
X84504627Y-45848037D01*
X84674466Y-45899557D01*
X84830991Y-45983222D01*
X84866729Y-46012552D01*
X84968186Y-46095814D01*
X85051448Y-46197271D01*
X85080778Y-46233009D01*
X85164443Y-46389534D01*
X85215963Y-46559373D01*
X85233359Y-46736000D01*
X85215963Y-46912627D01*
X85164443Y-47082466D01*
X85080778Y-47238991D01*
X85051448Y-47274729D01*
X84968186Y-47376186D01*
X84866729Y-47459448D01*
X84830991Y-47488778D01*
X84674466Y-47572443D01*
X84504627Y-47623963D01*
X84438442Y-47630482D01*
X84372260Y-47637000D01*
X84283740Y-47637000D01*
X84217558Y-47630482D01*
X84151373Y-47623963D01*
X83981534Y-47572443D01*
X83825009Y-47488778D01*
X83789271Y-47459448D01*
X83687814Y-47376186D01*
X83604552Y-47274729D01*
X83575222Y-47238991D01*
X83491557Y-47082466D01*
X83440037Y-46912627D01*
X83422641Y-46736000D01*
X83440037Y-46559373D01*
X83491557Y-46389534D01*
X83575222Y-46233009D01*
X83604552Y-46197271D01*
X83687814Y-46095814D01*
X83789271Y-46012552D01*
X83825009Y-45983222D01*
X83981534Y-45899557D01*
X84151373Y-45848037D01*
X84217558Y-45841518D01*
X84283740Y-45835000D01*
X84372260Y-45835000D01*
X84438443Y-45841519D01*
X84438443Y-45841519D01*
G37*
G36*
X82689000Y-47637000D02*
G01*
X80887000Y-47637000D01*
X80887000Y-45835000D01*
X82689000Y-45835000D01*
X82689000Y-47637000D01*
X82689000Y-47637000D01*
G37*
G36*
X145398443Y-45841519D02*
G01*
X145464627Y-45848037D01*
X145634466Y-45899557D01*
X145790991Y-45983222D01*
X145826729Y-46012552D01*
X145928186Y-46095814D01*
X146011448Y-46197271D01*
X146040778Y-46233009D01*
X146124443Y-46389534D01*
X146175963Y-46559373D01*
X146193359Y-46736000D01*
X146175963Y-46912627D01*
X146124443Y-47082466D01*
X146040778Y-47238991D01*
X146011448Y-47274729D01*
X145928186Y-47376186D01*
X145826729Y-47459448D01*
X145790991Y-47488778D01*
X145634466Y-47572443D01*
X145464627Y-47623963D01*
X145398442Y-47630482D01*
X145332260Y-47637000D01*
X145243740Y-47637000D01*
X145177558Y-47630482D01*
X145111373Y-47623963D01*
X144941534Y-47572443D01*
X144785009Y-47488778D01*
X144749271Y-47459448D01*
X144647814Y-47376186D01*
X144564552Y-47274729D01*
X144535222Y-47238991D01*
X144451557Y-47082466D01*
X144400037Y-46912627D01*
X144382641Y-46736000D01*
X144400037Y-46559373D01*
X144451557Y-46389534D01*
X144535222Y-46233009D01*
X144564552Y-46197271D01*
X144647814Y-46095814D01*
X144749271Y-46012552D01*
X144785009Y-45983222D01*
X144941534Y-45899557D01*
X145111373Y-45848037D01*
X145177558Y-45841518D01*
X145243740Y-45835000D01*
X145332260Y-45835000D01*
X145398443Y-45841519D01*
X145398443Y-45841519D01*
G37*
M02*
