G04 #@! TF.GenerationSoftware,KiCad,Pcbnew,(5.1.2)-2*
G04 #@! TF.CreationDate,2021-06-22T12:17:49+03:00*
G04 #@! TF.ProjectId,extension_board,65787465-6e73-4696-9f6e-5f626f617264,rev?*
G04 #@! TF.SameCoordinates,Original*
G04 #@! TF.FileFunction,Copper,L2,Bot*
G04 #@! TF.FilePolarity,Positive*
%FSLAX46Y46*%
G04 Gerber Fmt 4.6, Leading zero omitted, Abs format (unit mm)*
G04 Created by KiCad (PCBNEW (5.1.2)-2) date 2021-06-22 12:17:49*
%MOMM*%
%LPD*%
G04 APERTURE LIST*
%ADD10R,1.500000X1.500000*%
%ADD11C,1.500000*%
%ADD12O,1.700000X1.700000*%
%ADD13R,1.700000X1.700000*%
%ADD14R,2.200000X2.200000*%
%ADD15C,2.300000*%
%ADD16C,0.800000*%
%ADD17C,1.000000*%
%ADD18C,0.300000*%
%ADD19C,0.254000*%
G04 APERTURE END LIST*
D10*
X115951000Y-94488000D03*
D11*
X115951000Y-99568000D03*
X115951000Y-97028000D03*
D10*
X115824000Y-103632000D03*
D11*
X115824000Y-108712000D03*
X115824000Y-106172000D03*
D12*
X94996000Y-91821000D03*
D13*
X94996000Y-94361000D03*
D12*
X95138000Y-83566000D03*
D13*
X95138000Y-86106000D03*
D12*
X94854000Y-99568000D03*
D13*
X94854000Y-102108000D03*
D12*
X94884000Y-107823000D03*
D13*
X94884000Y-110363000D03*
D10*
X116078000Y-82804000D03*
D11*
X116078000Y-87884000D03*
X116078000Y-85344000D03*
D10*
X115824000Y-113284000D03*
D11*
X115824000Y-118364000D03*
X115824000Y-115824000D03*
D12*
X145288000Y-92456000D03*
X142748000Y-92456000D03*
X145288000Y-89916000D03*
X142748000Y-89916000D03*
X145288000Y-87376000D03*
X142748000Y-87376000D03*
X145288000Y-84836000D03*
X142748000Y-84836000D03*
X145288000Y-82296000D03*
X142748000Y-82296000D03*
X145288000Y-79756000D03*
X142748000Y-79756000D03*
X145288000Y-77216000D03*
X142748000Y-77216000D03*
X145288000Y-74676000D03*
X142748000Y-74676000D03*
X145288000Y-72136000D03*
X142748000Y-72136000D03*
X145288000Y-69596000D03*
X142748000Y-69596000D03*
X145288000Y-67056000D03*
X142748000Y-67056000D03*
X145288000Y-64516000D03*
X142748000Y-64516000D03*
X145288000Y-61976000D03*
X142748000Y-61976000D03*
X145288000Y-59436000D03*
X142748000Y-59436000D03*
X145288000Y-56896000D03*
X142748000Y-56896000D03*
X145288000Y-54356000D03*
X142748000Y-54356000D03*
X145288000Y-51816000D03*
X142748000Y-51816000D03*
X145288000Y-49276000D03*
X142748000Y-49276000D03*
X145288000Y-46736000D03*
D13*
X142748000Y-46736000D03*
D12*
X84328000Y-69596000D03*
X81788000Y-69596000D03*
X84328000Y-67056000D03*
X81788000Y-67056000D03*
X84328000Y-64516000D03*
X81788000Y-64516000D03*
X84328000Y-61976000D03*
X81788000Y-61976000D03*
X84328000Y-59436000D03*
X81788000Y-59436000D03*
X84328000Y-56896000D03*
X81788000Y-56896000D03*
X84328000Y-54356000D03*
X81788000Y-54356000D03*
X84328000Y-51816000D03*
X81788000Y-51816000D03*
X84328000Y-49276000D03*
X81788000Y-49276000D03*
X84328000Y-46736000D03*
D13*
X81788000Y-46736000D03*
D14*
X82738000Y-143510000D03*
D15*
X87818000Y-143510000D03*
D16*
X120396000Y-69596000D03*
X114808000Y-69596000D03*
X108966000Y-69596000D03*
X103124000Y-69596000D03*
X88519000Y-67056000D03*
X87185500Y-118110000D03*
X87122000Y-130111500D03*
X85979000Y-81851500D03*
X96329500Y-81026000D03*
X98488500Y-51689000D03*
X109918500Y-131127500D03*
X112458500Y-131127500D03*
X114998500Y-131127500D03*
X109918500Y-133667500D03*
X112458500Y-133667500D03*
X114998500Y-133667500D03*
X109918500Y-136207500D03*
X112458500Y-136207500D03*
X114998500Y-136207500D03*
X108045250Y-117443250D03*
X109251750Y-116236750D03*
X129540000Y-124714000D03*
X129466021Y-117221000D03*
X95123000Y-54356000D03*
X94742000Y-69596000D03*
X140081000Y-124841000D03*
X133032500Y-100647500D03*
X139763500Y-101219000D03*
X139700000Y-109410500D03*
X129032000Y-109728000D03*
X91868500Y-135906000D03*
X94408500Y-135906000D03*
X96948500Y-135906000D03*
X91868500Y-138446000D03*
X94408500Y-138446000D03*
X96948500Y-138446000D03*
X91868500Y-140986000D03*
X94408500Y-140986000D03*
X96948500Y-140986000D03*
X122936000Y-134874000D03*
X125476000Y-134874000D03*
X122936000Y-137414000D03*
X125476000Y-137414000D03*
X139763500Y-118173500D03*
X143319500Y-111633000D03*
X127165990Y-119164990D03*
X129476500Y-119189500D03*
X126428508Y-109893986D03*
X124718009Y-119888000D03*
X139700000Y-120142000D03*
X124714000Y-116586000D03*
X143827500Y-116078000D03*
X132080000Y-96266000D03*
X143891000Y-97155000D03*
X145034000Y-107696000D03*
X120586500Y-108521500D03*
X120459500Y-126301500D03*
X143383000Y-125984000D03*
X145923000Y-111379000D03*
X145859500Y-128460500D03*
X93281500Y-48323500D03*
X82296000Y-119380028D03*
X79438504Y-119380000D03*
X139446000Y-122174000D03*
X147383500Y-122618500D03*
X148272500Y-123952000D03*
X128866000Y-123380500D03*
X129540002Y-130810000D03*
X148399500Y-128841500D03*
X126492000Y-128016000D03*
X140081000Y-127698500D03*
X140208000Y-103378000D03*
X130048000Y-99568000D03*
X120142000Y-107188000D03*
X129540000Y-107188000D03*
X119126000Y-106172000D03*
X140208000Y-106172000D03*
X121031000Y-72771000D03*
X103886000Y-72771000D03*
X123698000Y-111760000D03*
X129781624Y-111772376D03*
X121158000Y-112268000D03*
X139802490Y-112268000D03*
X103886000Y-74295000D03*
X115443000Y-74422006D03*
X122966978Y-114300000D03*
X129540000Y-114046000D03*
X109855000Y-75819000D03*
X103759000Y-75819000D03*
X122174000Y-115570000D03*
X139700000Y-114998500D03*
X79413990Y-122546001D03*
X83248500Y-122618500D03*
D17*
X86741000Y-67056000D02*
X84328000Y-67056000D01*
D18*
X120523000Y-69469000D02*
X120396000Y-69596000D01*
D17*
X114808000Y-69596000D02*
X120396000Y-69596000D01*
X108966000Y-69596000D02*
X114808000Y-69596000D01*
X84328000Y-69596000D02*
X94742000Y-69596000D01*
X103124000Y-69596000D02*
X108966000Y-69596000D01*
X86741000Y-67056000D02*
X88519000Y-67056000D01*
X88582500Y-128651000D02*
X87122000Y-130111500D01*
X87185500Y-118110000D02*
X88582500Y-119507000D01*
X88582500Y-119507000D02*
X88582500Y-128651000D01*
X105981500Y-119507000D02*
X88582500Y-119507000D01*
X115824000Y-113284000D02*
X112204500Y-113284000D01*
X112204500Y-113284000D02*
X109251750Y-116236750D01*
X86804500Y-81026000D02*
X85979000Y-81851500D01*
X96329500Y-81026000D02*
X86804500Y-81026000D01*
X98361500Y-51816000D02*
X98488500Y-51689000D01*
X96901000Y-51816000D02*
X98361500Y-51816000D01*
X84328000Y-51816000D02*
X96901000Y-51816000D01*
X98806000Y-81026000D02*
X96329500Y-81026000D01*
X99822000Y-82042000D02*
X98806000Y-81026000D01*
X116078000Y-82804000D02*
X115316000Y-82042000D01*
X115316000Y-82042000D02*
X99822000Y-82042000D01*
X108045250Y-117443250D02*
X105981500Y-119507000D01*
X109251750Y-116236750D02*
X108045250Y-117443250D01*
X120396000Y-69596000D02*
X120523000Y-69596000D01*
X84328000Y-54356000D02*
X95123000Y-54356000D01*
X94742000Y-69596000D02*
X103124000Y-69596000D01*
X95123000Y-54356000D02*
X95567500Y-54356000D01*
D18*
X146137999Y-83986001D02*
X145288000Y-84836000D01*
X147193000Y-82931000D02*
X146137999Y-83986001D01*
X146617081Y-69723000D02*
X147193000Y-69723000D01*
X146490081Y-69596000D02*
X146617081Y-69723000D01*
X145288000Y-69596000D02*
X146490081Y-69596000D01*
X147193000Y-69723000D02*
X147193000Y-82931000D01*
X147701000Y-69215000D02*
X147193000Y-69723000D01*
X147701000Y-46037500D02*
X147701000Y-69215000D01*
X121158000Y-69596000D02*
X121983500Y-68770500D01*
X120396000Y-69596000D02*
X121158000Y-69596000D01*
X121983500Y-68770500D02*
X121983500Y-64071500D01*
X141224000Y-44831000D02*
X146494500Y-44831000D01*
X146494500Y-44831000D02*
X147701000Y-46037500D01*
X134874000Y-56896000D02*
X132016500Y-54038500D01*
X142748000Y-56896000D02*
X134874000Y-56896000D01*
X121983500Y-64071500D02*
X132016500Y-54038500D01*
X132016500Y-54038500D02*
X141224000Y-44831000D01*
X129540000Y-124714000D02*
X139954000Y-124714000D01*
X139954000Y-124714000D02*
X140081000Y-124841000D01*
X127165990Y-119164990D02*
X129451990Y-119164990D01*
X129451990Y-119164990D02*
X129476500Y-119189500D01*
X143319500Y-111633000D02*
X142455001Y-110768501D01*
X126828507Y-110293985D02*
X126428508Y-109893986D01*
X127303023Y-110768501D02*
X126828507Y-110293985D01*
X142455001Y-110768501D02*
X127303023Y-110768501D01*
X143573500Y-116332000D02*
X143827500Y-116078000D01*
X124968000Y-116332000D02*
X143573500Y-116332000D01*
X124714000Y-116586000D02*
X124968000Y-116332000D01*
X139255500Y-120586500D02*
X139700000Y-120142000D01*
X124718009Y-119888000D02*
X125416509Y-120586500D01*
X125416509Y-120586500D02*
X139255500Y-120586500D01*
X132080000Y-96266000D02*
X143002000Y-96266000D01*
X143002000Y-96266000D02*
X143891000Y-97155000D01*
X129464502Y-108521500D02*
X120586500Y-108521500D01*
X145034000Y-107696000D02*
X144208500Y-108521500D01*
X144208500Y-108521500D02*
X129464502Y-108521500D01*
X120586500Y-108521500D02*
X120586500Y-108521500D01*
X120459500Y-126301500D02*
X143065500Y-126301500D01*
X143065500Y-126301500D02*
X143383000Y-125984000D01*
X149122501Y-125197499D02*
X145859500Y-128460500D01*
X145923000Y-111379000D02*
X149122501Y-114578501D01*
X149122501Y-114578501D02*
X149122501Y-125197499D01*
X92881501Y-47923501D02*
X93281500Y-48323500D01*
X80518000Y-45085000D02*
X90043000Y-45085000D01*
X79375000Y-46228000D02*
X80518000Y-45085000D01*
X79375000Y-46863000D02*
X79375000Y-46228000D01*
X81788000Y-49276000D02*
X79375000Y-46863000D01*
X90043000Y-45085000D02*
X92881501Y-47923501D01*
X82296000Y-119380028D02*
X79438532Y-119380028D01*
X79438532Y-119380028D02*
X79438504Y-119380000D01*
X146983501Y-122218501D02*
X147383500Y-122618500D01*
X146939000Y-122174000D02*
X146983501Y-122218501D01*
X139446000Y-122174000D02*
X146939000Y-122174000D01*
X146887498Y-123380500D02*
X128866000Y-123380500D01*
X148272500Y-123952000D02*
X147458998Y-123952000D01*
X147458998Y-123952000D02*
X146887498Y-123380500D01*
X129540002Y-130810000D02*
X146431000Y-130810000D01*
X147999501Y-129241499D02*
X148399500Y-128841500D01*
X146431000Y-130810000D02*
X147999501Y-129241499D01*
X139446000Y-128333500D02*
X140081000Y-127698500D01*
X126492000Y-128016000D02*
X126809500Y-128333500D01*
X126809500Y-128333500D02*
X139446000Y-128333500D01*
X139890500Y-103060500D02*
X140208000Y-103378000D01*
X130238500Y-103060500D02*
X139890500Y-103060500D01*
X129032000Y-101854000D02*
X130238500Y-103060500D01*
X94884000Y-107823000D02*
X100853000Y-101854000D01*
X100853000Y-101854000D02*
X129032000Y-101854000D01*
X129648001Y-99967999D02*
X130048000Y-99568000D01*
X128524000Y-101092000D02*
X129648001Y-99967999D01*
X97282000Y-101092000D02*
X128524000Y-101092000D01*
X94854000Y-99568000D02*
X95758000Y-99568000D01*
X95758000Y-99568000D02*
X97282000Y-101092000D01*
X120142000Y-107188000D02*
X129540000Y-107188000D01*
X139763500Y-105727500D02*
X140208000Y-106172000D01*
X119126000Y-106172000D02*
X119570500Y-105727500D01*
X119570500Y-105727500D02*
X139763500Y-105727500D01*
X121031000Y-72771000D02*
X103886000Y-72771000D01*
X129769248Y-111760000D02*
X129781624Y-111772376D01*
X123698000Y-111760000D02*
X129769248Y-111760000D01*
X139402491Y-112667999D02*
X139802490Y-112268000D01*
X121557999Y-112667999D02*
X139402491Y-112667999D01*
X121158000Y-112268000D02*
X121557999Y-112667999D01*
X103886000Y-74295000D02*
X115315994Y-74295000D01*
X115315994Y-74295000D02*
X115443000Y-74422006D01*
X129140001Y-113646001D02*
X129540000Y-114046000D01*
X129095500Y-113601500D02*
X129140001Y-113646001D01*
X124771872Y-113601500D02*
X129095500Y-113601500D01*
X122966978Y-114300000D02*
X124073372Y-114300000D01*
X124073372Y-114300000D02*
X124771872Y-113601500D01*
X109855000Y-75819000D02*
X103759000Y-75819000D01*
X139128500Y-115570000D02*
X139300001Y-115398499D01*
X122174000Y-115570000D02*
X139128500Y-115570000D01*
X139300001Y-115398499D02*
X139700000Y-114998500D01*
X83176001Y-122546001D02*
X83248500Y-122618500D01*
X79413990Y-122546001D02*
X83176001Y-122546001D01*
D19*
G36*
X149136000Y-113351735D02*
G01*
X147049438Y-111265173D01*
X147006690Y-111050266D01*
X146921734Y-110845165D01*
X146798398Y-110660579D01*
X146641421Y-110503602D01*
X146456835Y-110380266D01*
X146251734Y-110295310D01*
X146034000Y-110252000D01*
X145812000Y-110252000D01*
X145594266Y-110295310D01*
X145389165Y-110380266D01*
X145204579Y-110503602D01*
X145047602Y-110660579D01*
X144924266Y-110845165D01*
X144839310Y-111050266D01*
X144796000Y-111268000D01*
X144796000Y-111490000D01*
X144839310Y-111707734D01*
X144924266Y-111912835D01*
X145047602Y-112097421D01*
X145204579Y-112254398D01*
X145389165Y-112377734D01*
X145594266Y-112462690D01*
X145809173Y-112505438D01*
X148245501Y-114941766D01*
X148245502Y-121886683D01*
X148101921Y-121743102D01*
X147917335Y-121619766D01*
X147712234Y-121534810D01*
X147494500Y-121491500D01*
X147489794Y-121491500D01*
X147428592Y-121441273D01*
X147276237Y-121359838D01*
X147110922Y-121309690D01*
X146939000Y-121292757D01*
X146895921Y-121297000D01*
X140162023Y-121297000D01*
X140045134Y-121218897D01*
X140233835Y-121140734D01*
X140418421Y-121017398D01*
X140575398Y-120860421D01*
X140698734Y-120675835D01*
X140783690Y-120470734D01*
X140827000Y-120253000D01*
X140827000Y-120031000D01*
X140783690Y-119813266D01*
X140698734Y-119608165D01*
X140575398Y-119423579D01*
X140418421Y-119266602D01*
X140233835Y-119143266D01*
X140028734Y-119058310D01*
X139811000Y-119015000D01*
X139589000Y-119015000D01*
X139371266Y-119058310D01*
X139166165Y-119143266D01*
X138981579Y-119266602D01*
X138824602Y-119423579D01*
X138701266Y-119608165D01*
X138659291Y-119709500D01*
X130480965Y-119709500D01*
X130560190Y-119518234D01*
X130603500Y-119300500D01*
X130603500Y-119078500D01*
X130560190Y-118860766D01*
X130475234Y-118655665D01*
X130351898Y-118471079D01*
X130194921Y-118314102D01*
X130010335Y-118190766D01*
X129805234Y-118105810D01*
X129587500Y-118062500D01*
X129365500Y-118062500D01*
X129147766Y-118105810D01*
X128942665Y-118190766D01*
X128797159Y-118287990D01*
X127882013Y-118287990D01*
X127699825Y-118166256D01*
X127494724Y-118081300D01*
X127276990Y-118037990D01*
X127054990Y-118037990D01*
X126837256Y-118081300D01*
X126632155Y-118166256D01*
X126447569Y-118289592D01*
X126290592Y-118446569D01*
X126167256Y-118631155D01*
X126082300Y-118836256D01*
X126038990Y-119053990D01*
X126038990Y-119275990D01*
X126082300Y-119493724D01*
X126167256Y-119698825D01*
X126174389Y-119709500D01*
X125831582Y-119709500D01*
X125801699Y-119559266D01*
X125716743Y-119354165D01*
X125593407Y-119169579D01*
X125436430Y-119012602D01*
X125251844Y-118889266D01*
X125046743Y-118804310D01*
X124829009Y-118761000D01*
X124607009Y-118761000D01*
X124389275Y-118804310D01*
X124184174Y-118889266D01*
X123999588Y-119012602D01*
X123842611Y-119169579D01*
X123719275Y-119354165D01*
X123634319Y-119559266D01*
X123591009Y-119777000D01*
X123591009Y-119999000D01*
X123634319Y-120216734D01*
X123719275Y-120421835D01*
X123842611Y-120606421D01*
X123999588Y-120763398D01*
X124184174Y-120886734D01*
X124389275Y-120971690D01*
X124604182Y-121014438D01*
X124765912Y-121176168D01*
X124793376Y-121209633D01*
X124926917Y-121319227D01*
X125079272Y-121400662D01*
X125244587Y-121450810D01*
X125373430Y-121463500D01*
X125373431Y-121463500D01*
X125416508Y-121467743D01*
X125459585Y-121463500D01*
X138565309Y-121463500D01*
X138447266Y-121640165D01*
X138362310Y-121845266D01*
X138319000Y-122063000D01*
X138319000Y-122285000D01*
X138362310Y-122502734D01*
X138362627Y-122503500D01*
X129582023Y-122503500D01*
X129399835Y-122381766D01*
X129194734Y-122296810D01*
X128977000Y-122253500D01*
X128755000Y-122253500D01*
X128537266Y-122296810D01*
X128332165Y-122381766D01*
X128147579Y-122505102D01*
X127990602Y-122662079D01*
X127867266Y-122846665D01*
X127782310Y-123051766D01*
X127739000Y-123269500D01*
X127739000Y-123491500D01*
X127782310Y-123709234D01*
X127867266Y-123914335D01*
X127990602Y-124098921D01*
X128147579Y-124255898D01*
X128332165Y-124379234D01*
X128537266Y-124464190D01*
X128755000Y-124507500D01*
X128977000Y-124507500D01*
X129194734Y-124464190D01*
X129399835Y-124379234D01*
X129582023Y-124257500D01*
X146524233Y-124257500D01*
X146808401Y-124541668D01*
X146835865Y-124575133D01*
X146969406Y-124684727D01*
X147121761Y-124766162D01*
X147287075Y-124816310D01*
X147458997Y-124833243D01*
X147502077Y-124829000D01*
X147556477Y-124829000D01*
X147738665Y-124950734D01*
X147943766Y-125035690D01*
X148027408Y-125052327D01*
X145745673Y-127334062D01*
X145530766Y-127376810D01*
X145325665Y-127461766D01*
X145141079Y-127585102D01*
X144984102Y-127742079D01*
X144860766Y-127926665D01*
X144775810Y-128131766D01*
X144732500Y-128349500D01*
X144732500Y-128571500D01*
X144775810Y-128789234D01*
X144860766Y-128994335D01*
X144984102Y-129178921D01*
X145141079Y-129335898D01*
X145325665Y-129459234D01*
X145530766Y-129544190D01*
X145748500Y-129587500D01*
X145970500Y-129587500D01*
X146188234Y-129544190D01*
X146393335Y-129459234D01*
X146577921Y-129335898D01*
X146734898Y-129178921D01*
X146858234Y-128994335D01*
X146943190Y-128789234D01*
X146985938Y-128574327D01*
X149136000Y-126424265D01*
X149136000Y-127984181D01*
X149117921Y-127966102D01*
X148933335Y-127842766D01*
X148728234Y-127757810D01*
X148510500Y-127714500D01*
X148288500Y-127714500D01*
X148070766Y-127757810D01*
X147865665Y-127842766D01*
X147681079Y-127966102D01*
X147524102Y-128123079D01*
X147400766Y-128307665D01*
X147315810Y-128512766D01*
X147273062Y-128727673D01*
X146067735Y-129933000D01*
X130256025Y-129933000D01*
X130073837Y-129811266D01*
X129868736Y-129726310D01*
X129651002Y-129683000D01*
X129429002Y-129683000D01*
X129211268Y-129726310D01*
X129006167Y-129811266D01*
X128821581Y-129934602D01*
X128664604Y-130091579D01*
X128541268Y-130276165D01*
X128456312Y-130481266D01*
X128413002Y-130699000D01*
X128413002Y-130921000D01*
X128456312Y-131138734D01*
X128541268Y-131343835D01*
X128664604Y-131528421D01*
X128821581Y-131685398D01*
X129006167Y-131808734D01*
X129211268Y-131893690D01*
X129429002Y-131937000D01*
X129651002Y-131937000D01*
X129868736Y-131893690D01*
X130073837Y-131808734D01*
X130256025Y-131687000D01*
X146387921Y-131687000D01*
X146431000Y-131691243D01*
X146474079Y-131687000D01*
X146490345Y-131685398D01*
X146602922Y-131674310D01*
X146768237Y-131624162D01*
X146920592Y-131542727D01*
X147054133Y-131433133D01*
X147081597Y-131399668D01*
X148513327Y-129967938D01*
X148728234Y-129925190D01*
X148933335Y-129840234D01*
X149117921Y-129716898D01*
X149136000Y-129698819D01*
X149136000Y-137248000D01*
X132116938Y-137248000D01*
X132080000Y-137244362D01*
X132043062Y-137248000D01*
X131932582Y-137258881D01*
X131790830Y-137301882D01*
X131660190Y-137371710D01*
X131545683Y-137465683D01*
X131451710Y-137580190D01*
X131381882Y-137710830D01*
X131338881Y-137852582D01*
X131324362Y-138000000D01*
X131328000Y-138036937D01*
X131328001Y-147344000D01*
X77968000Y-147344000D01*
X77968000Y-142410000D01*
X80907483Y-142410000D01*
X80907483Y-144610000D01*
X80921520Y-144752517D01*
X80963090Y-144889557D01*
X81030597Y-145015853D01*
X81121446Y-145126554D01*
X81232147Y-145217403D01*
X81358443Y-145284910D01*
X81495483Y-145326480D01*
X81638000Y-145340517D01*
X83838000Y-145340517D01*
X83980517Y-145326480D01*
X84117557Y-145284910D01*
X84243853Y-145217403D01*
X84354554Y-145126554D01*
X84445403Y-145015853D01*
X84512910Y-144889557D01*
X84554480Y-144752517D01*
X84554496Y-144752349D01*
X86755256Y-144752349D01*
X86869118Y-145032090D01*
X87184296Y-145187961D01*
X87523826Y-145279349D01*
X87874661Y-145302741D01*
X88223319Y-145257240D01*
X88556400Y-145144594D01*
X88766882Y-145032090D01*
X88880744Y-144752349D01*
X87818000Y-143689605D01*
X86755256Y-144752349D01*
X84554496Y-144752349D01*
X84568517Y-144610000D01*
X84568517Y-143566661D01*
X86025259Y-143566661D01*
X86070760Y-143915319D01*
X86183406Y-144248400D01*
X86295910Y-144458882D01*
X86575651Y-144572744D01*
X87638395Y-143510000D01*
X87997605Y-143510000D01*
X89060349Y-144572744D01*
X89340090Y-144458882D01*
X89495961Y-144143704D01*
X89587349Y-143804174D01*
X89610741Y-143453339D01*
X89565240Y-143104681D01*
X89452594Y-142771600D01*
X89340090Y-142561118D01*
X89060349Y-142447256D01*
X87997605Y-143510000D01*
X87638395Y-143510000D01*
X86575651Y-142447256D01*
X86295910Y-142561118D01*
X86140039Y-142876296D01*
X86048651Y-143215826D01*
X86025259Y-143566661D01*
X84568517Y-143566661D01*
X84568517Y-142410000D01*
X84554497Y-142267651D01*
X86755256Y-142267651D01*
X87818000Y-143330395D01*
X88880744Y-142267651D01*
X88766882Y-141987910D01*
X88451704Y-141832039D01*
X88112174Y-141740651D01*
X87761339Y-141717259D01*
X87412681Y-141762760D01*
X87079600Y-141875406D01*
X86869118Y-141987910D01*
X86755256Y-142267651D01*
X84554497Y-142267651D01*
X84554480Y-142267483D01*
X84512910Y-142130443D01*
X84445403Y-142004147D01*
X84354554Y-141893446D01*
X84243853Y-141802597D01*
X84117557Y-141735090D01*
X83980517Y-141693520D01*
X83838000Y-141679483D01*
X81638000Y-141679483D01*
X81495483Y-141693520D01*
X81358443Y-141735090D01*
X81232147Y-141802597D01*
X81121446Y-141893446D01*
X81030597Y-142004147D01*
X80963090Y-142130443D01*
X80921520Y-142267483D01*
X80907483Y-142410000D01*
X77968000Y-142410000D01*
X77968000Y-136096500D01*
X108791500Y-136096500D01*
X108791500Y-136318500D01*
X108834810Y-136536234D01*
X108919766Y-136741335D01*
X109043102Y-136925921D01*
X109200079Y-137082898D01*
X109384665Y-137206234D01*
X109589766Y-137291190D01*
X109807500Y-137334500D01*
X110029500Y-137334500D01*
X110247234Y-137291190D01*
X110452335Y-137206234D01*
X110636921Y-137082898D01*
X110793898Y-136925921D01*
X110917234Y-136741335D01*
X111002190Y-136536234D01*
X111045500Y-136318500D01*
X111045500Y-136096500D01*
X111331500Y-136096500D01*
X111331500Y-136318500D01*
X111374810Y-136536234D01*
X111459766Y-136741335D01*
X111583102Y-136925921D01*
X111740079Y-137082898D01*
X111924665Y-137206234D01*
X112129766Y-137291190D01*
X112347500Y-137334500D01*
X112569500Y-137334500D01*
X112787234Y-137291190D01*
X112992335Y-137206234D01*
X113176921Y-137082898D01*
X113333898Y-136925921D01*
X113457234Y-136741335D01*
X113542190Y-136536234D01*
X113585500Y-136318500D01*
X113585500Y-136096500D01*
X113871500Y-136096500D01*
X113871500Y-136318500D01*
X113914810Y-136536234D01*
X113999766Y-136741335D01*
X114123102Y-136925921D01*
X114280079Y-137082898D01*
X114464665Y-137206234D01*
X114669766Y-137291190D01*
X114887500Y-137334500D01*
X115109500Y-137334500D01*
X115327234Y-137291190D01*
X115532335Y-137206234D01*
X115716921Y-137082898D01*
X115873898Y-136925921D01*
X115997234Y-136741335D01*
X116082190Y-136536234D01*
X116125500Y-136318500D01*
X116125500Y-136096500D01*
X116082190Y-135878766D01*
X115997234Y-135673665D01*
X115873898Y-135489079D01*
X115716921Y-135332102D01*
X115532335Y-135208766D01*
X115327234Y-135123810D01*
X115109500Y-135080500D01*
X114887500Y-135080500D01*
X114669766Y-135123810D01*
X114464665Y-135208766D01*
X114280079Y-135332102D01*
X114123102Y-135489079D01*
X113999766Y-135673665D01*
X113914810Y-135878766D01*
X113871500Y-136096500D01*
X113585500Y-136096500D01*
X113542190Y-135878766D01*
X113457234Y-135673665D01*
X113333898Y-135489079D01*
X113176921Y-135332102D01*
X112992335Y-135208766D01*
X112787234Y-135123810D01*
X112569500Y-135080500D01*
X112347500Y-135080500D01*
X112129766Y-135123810D01*
X111924665Y-135208766D01*
X111740079Y-135332102D01*
X111583102Y-135489079D01*
X111459766Y-135673665D01*
X111374810Y-135878766D01*
X111331500Y-136096500D01*
X111045500Y-136096500D01*
X111002190Y-135878766D01*
X110917234Y-135673665D01*
X110793898Y-135489079D01*
X110636921Y-135332102D01*
X110452335Y-135208766D01*
X110247234Y-135123810D01*
X110029500Y-135080500D01*
X109807500Y-135080500D01*
X109589766Y-135123810D01*
X109384665Y-135208766D01*
X109200079Y-135332102D01*
X109043102Y-135489079D01*
X108919766Y-135673665D01*
X108834810Y-135878766D01*
X108791500Y-136096500D01*
X77968000Y-136096500D01*
X77968000Y-133556500D01*
X108791500Y-133556500D01*
X108791500Y-133778500D01*
X108834810Y-133996234D01*
X108919766Y-134201335D01*
X109043102Y-134385921D01*
X109200079Y-134542898D01*
X109384665Y-134666234D01*
X109589766Y-134751190D01*
X109807500Y-134794500D01*
X110029500Y-134794500D01*
X110247234Y-134751190D01*
X110452335Y-134666234D01*
X110636921Y-134542898D01*
X110793898Y-134385921D01*
X110917234Y-134201335D01*
X111002190Y-133996234D01*
X111045500Y-133778500D01*
X111045500Y-133556500D01*
X111331500Y-133556500D01*
X111331500Y-133778500D01*
X111374810Y-133996234D01*
X111459766Y-134201335D01*
X111583102Y-134385921D01*
X111740079Y-134542898D01*
X111924665Y-134666234D01*
X112129766Y-134751190D01*
X112347500Y-134794500D01*
X112569500Y-134794500D01*
X112787234Y-134751190D01*
X112992335Y-134666234D01*
X113176921Y-134542898D01*
X113333898Y-134385921D01*
X113457234Y-134201335D01*
X113542190Y-133996234D01*
X113585500Y-133778500D01*
X113585500Y-133556500D01*
X113871500Y-133556500D01*
X113871500Y-133778500D01*
X113914810Y-133996234D01*
X113999766Y-134201335D01*
X114123102Y-134385921D01*
X114280079Y-134542898D01*
X114464665Y-134666234D01*
X114669766Y-134751190D01*
X114887500Y-134794500D01*
X115109500Y-134794500D01*
X115327234Y-134751190D01*
X115532335Y-134666234D01*
X115716921Y-134542898D01*
X115873898Y-134385921D01*
X115997234Y-134201335D01*
X116082190Y-133996234D01*
X116125500Y-133778500D01*
X116125500Y-133556500D01*
X116082190Y-133338766D01*
X115997234Y-133133665D01*
X115873898Y-132949079D01*
X115716921Y-132792102D01*
X115532335Y-132668766D01*
X115327234Y-132583810D01*
X115109500Y-132540500D01*
X114887500Y-132540500D01*
X114669766Y-132583810D01*
X114464665Y-132668766D01*
X114280079Y-132792102D01*
X114123102Y-132949079D01*
X113999766Y-133133665D01*
X113914810Y-133338766D01*
X113871500Y-133556500D01*
X113585500Y-133556500D01*
X113542190Y-133338766D01*
X113457234Y-133133665D01*
X113333898Y-132949079D01*
X113176921Y-132792102D01*
X112992335Y-132668766D01*
X112787234Y-132583810D01*
X112569500Y-132540500D01*
X112347500Y-132540500D01*
X112129766Y-132583810D01*
X111924665Y-132668766D01*
X111740079Y-132792102D01*
X111583102Y-132949079D01*
X111459766Y-133133665D01*
X111374810Y-133338766D01*
X111331500Y-133556500D01*
X111045500Y-133556500D01*
X111002190Y-133338766D01*
X110917234Y-133133665D01*
X110793898Y-132949079D01*
X110636921Y-132792102D01*
X110452335Y-132668766D01*
X110247234Y-132583810D01*
X110029500Y-132540500D01*
X109807500Y-132540500D01*
X109589766Y-132583810D01*
X109384665Y-132668766D01*
X109200079Y-132792102D01*
X109043102Y-132949079D01*
X108919766Y-133133665D01*
X108834810Y-133338766D01*
X108791500Y-133556500D01*
X77968000Y-133556500D01*
X77968000Y-130111500D01*
X85889065Y-130111500D01*
X85912755Y-130352033D01*
X85982917Y-130583324D01*
X86096852Y-130796482D01*
X86250183Y-130983317D01*
X86437018Y-131136648D01*
X86650176Y-131250583D01*
X86881467Y-131320745D01*
X87122000Y-131344435D01*
X87362533Y-131320745D01*
X87593824Y-131250583D01*
X87806982Y-131136648D01*
X87947004Y-131021735D01*
X87952239Y-131016500D01*
X108791500Y-131016500D01*
X108791500Y-131238500D01*
X108834810Y-131456234D01*
X108919766Y-131661335D01*
X109043102Y-131845921D01*
X109200079Y-132002898D01*
X109384665Y-132126234D01*
X109589766Y-132211190D01*
X109807500Y-132254500D01*
X110029500Y-132254500D01*
X110247234Y-132211190D01*
X110452335Y-132126234D01*
X110636921Y-132002898D01*
X110793898Y-131845921D01*
X110917234Y-131661335D01*
X111002190Y-131456234D01*
X111045500Y-131238500D01*
X111045500Y-131016500D01*
X111331500Y-131016500D01*
X111331500Y-131238500D01*
X111374810Y-131456234D01*
X111459766Y-131661335D01*
X111583102Y-131845921D01*
X111740079Y-132002898D01*
X111924665Y-132126234D01*
X112129766Y-132211190D01*
X112347500Y-132254500D01*
X112569500Y-132254500D01*
X112787234Y-132211190D01*
X112992335Y-132126234D01*
X113176921Y-132002898D01*
X113333898Y-131845921D01*
X113457234Y-131661335D01*
X113542190Y-131456234D01*
X113585500Y-131238500D01*
X113585500Y-131016500D01*
X113871500Y-131016500D01*
X113871500Y-131238500D01*
X113914810Y-131456234D01*
X113999766Y-131661335D01*
X114123102Y-131845921D01*
X114280079Y-132002898D01*
X114464665Y-132126234D01*
X114669766Y-132211190D01*
X114887500Y-132254500D01*
X115109500Y-132254500D01*
X115327234Y-132211190D01*
X115532335Y-132126234D01*
X115716921Y-132002898D01*
X115873898Y-131845921D01*
X115997234Y-131661335D01*
X116082190Y-131456234D01*
X116125500Y-131238500D01*
X116125500Y-131016500D01*
X116082190Y-130798766D01*
X115997234Y-130593665D01*
X115873898Y-130409079D01*
X115716921Y-130252102D01*
X115532335Y-130128766D01*
X115327234Y-130043810D01*
X115109500Y-130000500D01*
X114887500Y-130000500D01*
X114669766Y-130043810D01*
X114464665Y-130128766D01*
X114280079Y-130252102D01*
X114123102Y-130409079D01*
X113999766Y-130593665D01*
X113914810Y-130798766D01*
X113871500Y-131016500D01*
X113585500Y-131016500D01*
X113542190Y-130798766D01*
X113457234Y-130593665D01*
X113333898Y-130409079D01*
X113176921Y-130252102D01*
X112992335Y-130128766D01*
X112787234Y-130043810D01*
X112569500Y-130000500D01*
X112347500Y-130000500D01*
X112129766Y-130043810D01*
X111924665Y-130128766D01*
X111740079Y-130252102D01*
X111583102Y-130409079D01*
X111459766Y-130593665D01*
X111374810Y-130798766D01*
X111331500Y-131016500D01*
X111045500Y-131016500D01*
X111002190Y-130798766D01*
X110917234Y-130593665D01*
X110793898Y-130409079D01*
X110636921Y-130252102D01*
X110452335Y-130128766D01*
X110247234Y-130043810D01*
X110029500Y-130000500D01*
X109807500Y-130000500D01*
X109589766Y-130043810D01*
X109384665Y-130128766D01*
X109200079Y-130252102D01*
X109043102Y-130409079D01*
X108919766Y-130593665D01*
X108834810Y-130798766D01*
X108791500Y-131016500D01*
X87952239Y-131016500D01*
X89407505Y-129561235D01*
X89454317Y-129522817D01*
X89607649Y-129335983D01*
X89710800Y-129143000D01*
X89721584Y-129122825D01*
X89791745Y-128891534D01*
X89800983Y-128797736D01*
X89809500Y-128711268D01*
X89809500Y-128711260D01*
X89815435Y-128651000D01*
X89809500Y-128590740D01*
X89809500Y-126190500D01*
X119332500Y-126190500D01*
X119332500Y-126412500D01*
X119375810Y-126630234D01*
X119460766Y-126835335D01*
X119584102Y-127019921D01*
X119741079Y-127176898D01*
X119925665Y-127300234D01*
X120130766Y-127385190D01*
X120348500Y-127428500D01*
X120570500Y-127428500D01*
X120788234Y-127385190D01*
X120993335Y-127300234D01*
X121175523Y-127178500D01*
X125735681Y-127178500D01*
X125616602Y-127297579D01*
X125493266Y-127482165D01*
X125408310Y-127687266D01*
X125365000Y-127905000D01*
X125365000Y-128127000D01*
X125408310Y-128344734D01*
X125493266Y-128549835D01*
X125616602Y-128734421D01*
X125773579Y-128891398D01*
X125958165Y-129014734D01*
X126163266Y-129099690D01*
X126381000Y-129143000D01*
X126463541Y-129143000D01*
X126472263Y-129147662D01*
X126546673Y-129170234D01*
X126637577Y-129197810D01*
X126809500Y-129214743D01*
X126852579Y-129210500D01*
X139402921Y-129210500D01*
X139446000Y-129214743D01*
X139489079Y-129210500D01*
X139617922Y-129197810D01*
X139783237Y-129147662D01*
X139935592Y-129066227D01*
X140069133Y-128956633D01*
X140096597Y-128923168D01*
X140194827Y-128824938D01*
X140409734Y-128782190D01*
X140614835Y-128697234D01*
X140799421Y-128573898D01*
X140956398Y-128416921D01*
X141079734Y-128232335D01*
X141164690Y-128027234D01*
X141208000Y-127809500D01*
X141208000Y-127587500D01*
X141164690Y-127369766D01*
X141085465Y-127178500D01*
X143022421Y-127178500D01*
X143065500Y-127182743D01*
X143108579Y-127178500D01*
X143124845Y-127176898D01*
X143237422Y-127165810D01*
X143320521Y-127140602D01*
X143402737Y-127115662D01*
X143411459Y-127111000D01*
X143494000Y-127111000D01*
X143711734Y-127067690D01*
X143916835Y-126982734D01*
X144101421Y-126859398D01*
X144258398Y-126702421D01*
X144381734Y-126517835D01*
X144466690Y-126312734D01*
X144510000Y-126095000D01*
X144510000Y-125873000D01*
X144466690Y-125655266D01*
X144381734Y-125450165D01*
X144258398Y-125265579D01*
X144101421Y-125108602D01*
X143916835Y-124985266D01*
X143711734Y-124900310D01*
X143494000Y-124857000D01*
X143272000Y-124857000D01*
X143054266Y-124900310D01*
X142849165Y-124985266D01*
X142664579Y-125108602D01*
X142507602Y-125265579D01*
X142401415Y-125424500D01*
X121175523Y-125424500D01*
X120993335Y-125302766D01*
X120788234Y-125217810D01*
X120570500Y-125174500D01*
X120348500Y-125174500D01*
X120130766Y-125217810D01*
X119925665Y-125302766D01*
X119741079Y-125426102D01*
X119584102Y-125583079D01*
X119460766Y-125767665D01*
X119375810Y-125972766D01*
X119332500Y-126190500D01*
X89809500Y-126190500D01*
X89809500Y-120734000D01*
X105921240Y-120734000D01*
X105981500Y-120739935D01*
X106041760Y-120734000D01*
X106041768Y-120734000D01*
X106222034Y-120716245D01*
X106453324Y-120646084D01*
X106666483Y-120532149D01*
X106853317Y-120378817D01*
X106891739Y-120332000D01*
X108955485Y-118268255D01*
X108955489Y-118268250D01*
X110161986Y-117061754D01*
X110161990Y-117061749D01*
X112712740Y-114511000D01*
X114524985Y-114511000D01*
X114557446Y-114550554D01*
X114668147Y-114641403D01*
X114794443Y-114708910D01*
X114837297Y-114721909D01*
X114676739Y-114882467D01*
X114515099Y-115124378D01*
X114403760Y-115393175D01*
X114347000Y-115678528D01*
X114347000Y-115969472D01*
X114403760Y-116254825D01*
X114515099Y-116523622D01*
X114676739Y-116765533D01*
X114882467Y-116971261D01*
X115066159Y-117094000D01*
X114882467Y-117216739D01*
X114676739Y-117422467D01*
X114515099Y-117664378D01*
X114403760Y-117933175D01*
X114347000Y-118218528D01*
X114347000Y-118509472D01*
X114403760Y-118794825D01*
X114515099Y-119063622D01*
X114676739Y-119305533D01*
X114882467Y-119511261D01*
X115124378Y-119672901D01*
X115393175Y-119784240D01*
X115678528Y-119841000D01*
X115969472Y-119841000D01*
X116254825Y-119784240D01*
X116523622Y-119672901D01*
X116765533Y-119511261D01*
X116971261Y-119305533D01*
X117132901Y-119063622D01*
X117244240Y-118794825D01*
X117301000Y-118509472D01*
X117301000Y-118218528D01*
X117244240Y-117933175D01*
X117132901Y-117664378D01*
X116971261Y-117422467D01*
X116765533Y-117216739D01*
X116581841Y-117094000D01*
X116765533Y-116971261D01*
X116971261Y-116765533D01*
X117132901Y-116523622D01*
X117244240Y-116254825D01*
X117301000Y-115969472D01*
X117301000Y-115678528D01*
X117244240Y-115393175D01*
X117132901Y-115124378D01*
X116971261Y-114882467D01*
X116810703Y-114721909D01*
X116853557Y-114708910D01*
X116979853Y-114641403D01*
X117090554Y-114550554D01*
X117181403Y-114439853D01*
X117248910Y-114313557D01*
X117290480Y-114176517D01*
X117304517Y-114034000D01*
X117304517Y-112534000D01*
X117290480Y-112391483D01*
X117248910Y-112254443D01*
X117181403Y-112128147D01*
X117090554Y-112017446D01*
X116979853Y-111926597D01*
X116853557Y-111859090D01*
X116716517Y-111817520D01*
X116574000Y-111803483D01*
X115074000Y-111803483D01*
X114931483Y-111817520D01*
X114794443Y-111859090D01*
X114668147Y-111926597D01*
X114557446Y-112017446D01*
X114524985Y-112057000D01*
X112264759Y-112057000D01*
X112204499Y-112051065D01*
X112144239Y-112057000D01*
X112144232Y-112057000D01*
X111963966Y-112074755D01*
X111732676Y-112144916D01*
X111519517Y-112258851D01*
X111332683Y-112412183D01*
X111294265Y-112458995D01*
X108426751Y-115326510D01*
X108426746Y-115326514D01*
X107220250Y-116533011D01*
X107220245Y-116533015D01*
X105473261Y-118280000D01*
X89090740Y-118280000D01*
X88010504Y-117199765D01*
X87870482Y-117084852D01*
X87657324Y-116970917D01*
X87426033Y-116900755D01*
X87185500Y-116877065D01*
X86944967Y-116900755D01*
X86713676Y-116970917D01*
X86500518Y-117084852D01*
X86313683Y-117238183D01*
X86160352Y-117425018D01*
X86046417Y-117638176D01*
X85976255Y-117869467D01*
X85952565Y-118110000D01*
X85976255Y-118350533D01*
X86046417Y-118581824D01*
X86160352Y-118794982D01*
X86275265Y-118935004D01*
X87355500Y-120015240D01*
X87355501Y-128142759D01*
X86211765Y-129286496D01*
X86096852Y-129426518D01*
X85982917Y-129639676D01*
X85912755Y-129870967D01*
X85889065Y-130111500D01*
X77968000Y-130111500D01*
X77968000Y-122435001D01*
X78286990Y-122435001D01*
X78286990Y-122657001D01*
X78330300Y-122874735D01*
X78415256Y-123079836D01*
X78538592Y-123264422D01*
X78695569Y-123421399D01*
X78880155Y-123544735D01*
X79085256Y-123629691D01*
X79302990Y-123673001D01*
X79524990Y-123673001D01*
X79742724Y-123629691D01*
X79947825Y-123544735D01*
X80130013Y-123423001D01*
X82459182Y-123423001D01*
X82530079Y-123493898D01*
X82714665Y-123617234D01*
X82919766Y-123702190D01*
X83137500Y-123745500D01*
X83359500Y-123745500D01*
X83577234Y-123702190D01*
X83782335Y-123617234D01*
X83966921Y-123493898D01*
X84123898Y-123336921D01*
X84247234Y-123152335D01*
X84332190Y-122947234D01*
X84375500Y-122729500D01*
X84375500Y-122507500D01*
X84332190Y-122289766D01*
X84247234Y-122084665D01*
X84123898Y-121900079D01*
X83966921Y-121743102D01*
X83782335Y-121619766D01*
X83577234Y-121534810D01*
X83359500Y-121491500D01*
X83137500Y-121491500D01*
X82919766Y-121534810D01*
X82714665Y-121619766D01*
X82640979Y-121669001D01*
X80130013Y-121669001D01*
X79947825Y-121547267D01*
X79742724Y-121462311D01*
X79524990Y-121419001D01*
X79302990Y-121419001D01*
X79085256Y-121462311D01*
X78880155Y-121547267D01*
X78695569Y-121670603D01*
X78538592Y-121827580D01*
X78415256Y-122012166D01*
X78330300Y-122217267D01*
X78286990Y-122435001D01*
X77968000Y-122435001D01*
X77968000Y-119269000D01*
X78311504Y-119269000D01*
X78311504Y-119491000D01*
X78354814Y-119708734D01*
X78439770Y-119913835D01*
X78563106Y-120098421D01*
X78720083Y-120255398D01*
X78904669Y-120378734D01*
X79109770Y-120463690D01*
X79327504Y-120507000D01*
X79549504Y-120507000D01*
X79767238Y-120463690D01*
X79972339Y-120378734D01*
X80154486Y-120257028D01*
X81579977Y-120257028D01*
X81762165Y-120378762D01*
X81967266Y-120463718D01*
X82185000Y-120507028D01*
X82407000Y-120507028D01*
X82624734Y-120463718D01*
X82829835Y-120378762D01*
X83014421Y-120255426D01*
X83171398Y-120098449D01*
X83294734Y-119913863D01*
X83379690Y-119708762D01*
X83423000Y-119491028D01*
X83423000Y-119269028D01*
X83379690Y-119051294D01*
X83294734Y-118846193D01*
X83171398Y-118661607D01*
X83014421Y-118504630D01*
X82829835Y-118381294D01*
X82624734Y-118296338D01*
X82407000Y-118253028D01*
X82185000Y-118253028D01*
X81967266Y-118296338D01*
X81762165Y-118381294D01*
X81579977Y-118503028D01*
X80154569Y-118503028D01*
X79972339Y-118381266D01*
X79767238Y-118296310D01*
X79549504Y-118253000D01*
X79327504Y-118253000D01*
X79109770Y-118296310D01*
X78904669Y-118381266D01*
X78720083Y-118504602D01*
X78563106Y-118661579D01*
X78439770Y-118846165D01*
X78354814Y-119051266D01*
X78311504Y-119269000D01*
X77968000Y-119269000D01*
X77968000Y-99568000D01*
X93269370Y-99568000D01*
X93299818Y-99877146D01*
X93389993Y-100174412D01*
X93536428Y-100448373D01*
X93670604Y-100611868D01*
X93598147Y-100650597D01*
X93487446Y-100741446D01*
X93396597Y-100852147D01*
X93329090Y-100978443D01*
X93287520Y-101115483D01*
X93273483Y-101258000D01*
X93273483Y-102958000D01*
X93287520Y-103100517D01*
X93329090Y-103237557D01*
X93396597Y-103363853D01*
X93487446Y-103474554D01*
X93598147Y-103565403D01*
X93724443Y-103632910D01*
X93861483Y-103674480D01*
X94004000Y-103688517D01*
X95704000Y-103688517D01*
X95846517Y-103674480D01*
X95983557Y-103632910D01*
X96109853Y-103565403D01*
X96220554Y-103474554D01*
X96311403Y-103363853D01*
X96378910Y-103237557D01*
X96420480Y-103100517D01*
X96434517Y-102958000D01*
X96434517Y-101484782D01*
X96631403Y-101681668D01*
X96658867Y-101715133D01*
X96792408Y-101824727D01*
X96944763Y-101906162D01*
X97110078Y-101956310D01*
X97238921Y-101969000D01*
X97238930Y-101969000D01*
X97281999Y-101973242D01*
X97325069Y-101969000D01*
X99497734Y-101969000D01*
X95196806Y-106269928D01*
X95193146Y-106268818D01*
X94961469Y-106246000D01*
X94806531Y-106246000D01*
X94574854Y-106268818D01*
X94277588Y-106358993D01*
X94003627Y-106505428D01*
X93763497Y-106702497D01*
X93566428Y-106942627D01*
X93419993Y-107216588D01*
X93329818Y-107513854D01*
X93299370Y-107823000D01*
X93329818Y-108132146D01*
X93419993Y-108429412D01*
X93566428Y-108703373D01*
X93700604Y-108866868D01*
X93628147Y-108905597D01*
X93517446Y-108996446D01*
X93426597Y-109107147D01*
X93359090Y-109233443D01*
X93317520Y-109370483D01*
X93303483Y-109513000D01*
X93303483Y-111213000D01*
X93317520Y-111355517D01*
X93359090Y-111492557D01*
X93426597Y-111618853D01*
X93517446Y-111729554D01*
X93628147Y-111820403D01*
X93754443Y-111887910D01*
X93891483Y-111929480D01*
X94034000Y-111943517D01*
X95734000Y-111943517D01*
X95876517Y-111929480D01*
X96013557Y-111887910D01*
X96139853Y-111820403D01*
X96250554Y-111729554D01*
X96341403Y-111618853D01*
X96408910Y-111492557D01*
X96450480Y-111355517D01*
X96464517Y-111213000D01*
X96464517Y-109513000D01*
X96450480Y-109370483D01*
X96408910Y-109233443D01*
X96341403Y-109107147D01*
X96250554Y-108996446D01*
X96139853Y-108905597D01*
X96067396Y-108866868D01*
X96201572Y-108703373D01*
X96348007Y-108429412D01*
X96438182Y-108132146D01*
X96468630Y-107823000D01*
X96438182Y-107513854D01*
X96437072Y-107510194D01*
X101216266Y-102731000D01*
X114360093Y-102731000D01*
X114357520Y-102739483D01*
X114343483Y-102882000D01*
X114343483Y-104382000D01*
X114357520Y-104524517D01*
X114399090Y-104661557D01*
X114466597Y-104787853D01*
X114557446Y-104898554D01*
X114668147Y-104989403D01*
X114794443Y-105056910D01*
X114837297Y-105069909D01*
X114676739Y-105230467D01*
X114515099Y-105472378D01*
X114403760Y-105741175D01*
X114347000Y-106026528D01*
X114347000Y-106317472D01*
X114403760Y-106602825D01*
X114515099Y-106871622D01*
X114676739Y-107113533D01*
X114882467Y-107319261D01*
X115066159Y-107442000D01*
X114882467Y-107564739D01*
X114676739Y-107770467D01*
X114515099Y-108012378D01*
X114403760Y-108281175D01*
X114347000Y-108566528D01*
X114347000Y-108857472D01*
X114403760Y-109142825D01*
X114515099Y-109411622D01*
X114676739Y-109653533D01*
X114882467Y-109859261D01*
X115124378Y-110020901D01*
X115393175Y-110132240D01*
X115678528Y-110189000D01*
X115969472Y-110189000D01*
X116254825Y-110132240D01*
X116523622Y-110020901D01*
X116765533Y-109859261D01*
X116971261Y-109653533D01*
X117132901Y-109411622D01*
X117244240Y-109142825D01*
X117301000Y-108857472D01*
X117301000Y-108566528D01*
X117244240Y-108281175D01*
X117132901Y-108012378D01*
X116971261Y-107770467D01*
X116765533Y-107564739D01*
X116581841Y-107442000D01*
X116765533Y-107319261D01*
X116971261Y-107113533D01*
X117132901Y-106871622D01*
X117244240Y-106602825D01*
X117301000Y-106317472D01*
X117301000Y-106061000D01*
X117999000Y-106061000D01*
X117999000Y-106283000D01*
X118042310Y-106500734D01*
X118127266Y-106705835D01*
X118250602Y-106890421D01*
X118407579Y-107047398D01*
X118592165Y-107170734D01*
X118797266Y-107255690D01*
X119015000Y-107299000D01*
X119058310Y-107516734D01*
X119143266Y-107721835D01*
X119266602Y-107906421D01*
X119423579Y-108063398D01*
X119527605Y-108132906D01*
X119502810Y-108192766D01*
X119459500Y-108410500D01*
X119459500Y-108632500D01*
X119502810Y-108850234D01*
X119587766Y-109055335D01*
X119711102Y-109239921D01*
X119868079Y-109396898D01*
X120052665Y-109520234D01*
X120257766Y-109605190D01*
X120475500Y-109648500D01*
X120697500Y-109648500D01*
X120915234Y-109605190D01*
X121120335Y-109520234D01*
X121302523Y-109398500D01*
X125413889Y-109398500D01*
X125344818Y-109565252D01*
X125301508Y-109782986D01*
X125301508Y-110004986D01*
X125344818Y-110222720D01*
X125429774Y-110427821D01*
X125553110Y-110612407D01*
X125710087Y-110769384D01*
X125880126Y-110883000D01*
X124414023Y-110883000D01*
X124231835Y-110761266D01*
X124026734Y-110676310D01*
X123809000Y-110633000D01*
X123587000Y-110633000D01*
X123369266Y-110676310D01*
X123164165Y-110761266D01*
X122979579Y-110884602D01*
X122822602Y-111041579D01*
X122699266Y-111226165D01*
X122614310Y-111431266D01*
X122571000Y-111649000D01*
X122571000Y-111790999D01*
X122180276Y-111790999D01*
X122156734Y-111734165D01*
X122033398Y-111549579D01*
X121876421Y-111392602D01*
X121691835Y-111269266D01*
X121486734Y-111184310D01*
X121269000Y-111141000D01*
X121047000Y-111141000D01*
X120829266Y-111184310D01*
X120624165Y-111269266D01*
X120439579Y-111392602D01*
X120282602Y-111549579D01*
X120159266Y-111734165D01*
X120074310Y-111939266D01*
X120031000Y-112157000D01*
X120031000Y-112379000D01*
X120074310Y-112596734D01*
X120159266Y-112801835D01*
X120282602Y-112986421D01*
X120439579Y-113143398D01*
X120624165Y-113266734D01*
X120829266Y-113351690D01*
X121047000Y-113395000D01*
X121061430Y-113395000D01*
X121068407Y-113400726D01*
X121205642Y-113474079D01*
X121220762Y-113482161D01*
X121386076Y-113532309D01*
X121557998Y-113549242D01*
X121601078Y-113544999D01*
X122128160Y-113544999D01*
X122091580Y-113581579D01*
X121968244Y-113766165D01*
X121883288Y-113971266D01*
X121839978Y-114189000D01*
X121839978Y-114411000D01*
X121854589Y-114484455D01*
X121845266Y-114486310D01*
X121640165Y-114571266D01*
X121455579Y-114694602D01*
X121298602Y-114851579D01*
X121175266Y-115036165D01*
X121090310Y-115241266D01*
X121047000Y-115459000D01*
X121047000Y-115681000D01*
X121090310Y-115898734D01*
X121175266Y-116103835D01*
X121298602Y-116288421D01*
X121455579Y-116445398D01*
X121640165Y-116568734D01*
X121845266Y-116653690D01*
X122063000Y-116697000D01*
X122285000Y-116697000D01*
X122502734Y-116653690D01*
X122707835Y-116568734D01*
X122890023Y-116447000D01*
X123592570Y-116447000D01*
X123587000Y-116475000D01*
X123587000Y-116697000D01*
X123630310Y-116914734D01*
X123715266Y-117119835D01*
X123838602Y-117304421D01*
X123995579Y-117461398D01*
X124180165Y-117584734D01*
X124385266Y-117669690D01*
X124603000Y-117713000D01*
X124825000Y-117713000D01*
X125042734Y-117669690D01*
X125247835Y-117584734D01*
X125432421Y-117461398D01*
X125589398Y-117304421D01*
X125653156Y-117209000D01*
X143530421Y-117209000D01*
X143573500Y-117213243D01*
X143616579Y-117209000D01*
X143657192Y-117205000D01*
X143696859Y-117201093D01*
X143716500Y-117205000D01*
X143938500Y-117205000D01*
X144156234Y-117161690D01*
X144361335Y-117076734D01*
X144545921Y-116953398D01*
X144702898Y-116796421D01*
X144826234Y-116611835D01*
X144911190Y-116406734D01*
X144954500Y-116189000D01*
X144954500Y-115967000D01*
X144911190Y-115749266D01*
X144826234Y-115544165D01*
X144702898Y-115359579D01*
X144545921Y-115202602D01*
X144361335Y-115079266D01*
X144156234Y-114994310D01*
X143938500Y-114951000D01*
X143716500Y-114951000D01*
X143498766Y-114994310D01*
X143293665Y-115079266D01*
X143109079Y-115202602D01*
X142952102Y-115359579D01*
X142888344Y-115455000D01*
X140730767Y-115455000D01*
X140783690Y-115327234D01*
X140827000Y-115109500D01*
X140827000Y-114887500D01*
X140783690Y-114669766D01*
X140698734Y-114464665D01*
X140575398Y-114280079D01*
X140418421Y-114123102D01*
X140233835Y-113999766D01*
X140028734Y-113914810D01*
X139811000Y-113871500D01*
X139589000Y-113871500D01*
X139371266Y-113914810D01*
X139166165Y-113999766D01*
X138981579Y-114123102D01*
X138824602Y-114280079D01*
X138701266Y-114464665D01*
X138616310Y-114669766D01*
X138611688Y-114693000D01*
X130463120Y-114693000D01*
X130538734Y-114579835D01*
X130623690Y-114374734D01*
X130667000Y-114157000D01*
X130667000Y-113935000D01*
X130623690Y-113717266D01*
X130552334Y-113544999D01*
X139359412Y-113544999D01*
X139402491Y-113549242D01*
X139445570Y-113544999D01*
X139574413Y-113532309D01*
X139739728Y-113482161D01*
X139892083Y-113400726D01*
X139899060Y-113395000D01*
X139913490Y-113395000D01*
X140131224Y-113351690D01*
X140336325Y-113266734D01*
X140520911Y-113143398D01*
X140677888Y-112986421D01*
X140801224Y-112801835D01*
X140886180Y-112596734D01*
X140929490Y-112379000D01*
X140929490Y-112157000D01*
X140886180Y-111939266D01*
X140801224Y-111734165D01*
X140741981Y-111645501D01*
X142091736Y-111645501D01*
X142193062Y-111746827D01*
X142235810Y-111961734D01*
X142320766Y-112166835D01*
X142444102Y-112351421D01*
X142601079Y-112508398D01*
X142785665Y-112631734D01*
X142990766Y-112716690D01*
X143208500Y-112760000D01*
X143430500Y-112760000D01*
X143648234Y-112716690D01*
X143853335Y-112631734D01*
X144037921Y-112508398D01*
X144194898Y-112351421D01*
X144318234Y-112166835D01*
X144403190Y-111961734D01*
X144446500Y-111744000D01*
X144446500Y-111522000D01*
X144403190Y-111304266D01*
X144318234Y-111099165D01*
X144194898Y-110914579D01*
X144037921Y-110757602D01*
X143853335Y-110634266D01*
X143648234Y-110549310D01*
X143433327Y-110506562D01*
X143105595Y-110178830D01*
X143078134Y-110145368D01*
X142944593Y-110035774D01*
X142792238Y-109954339D01*
X142626923Y-109904191D01*
X142455001Y-109887258D01*
X142411922Y-109891501D01*
X127666288Y-109891501D01*
X127554946Y-109780159D01*
X127512198Y-109565252D01*
X127443127Y-109398500D01*
X144165421Y-109398500D01*
X144208500Y-109402743D01*
X144251579Y-109398500D01*
X144267845Y-109396898D01*
X144380422Y-109385810D01*
X144545737Y-109335662D01*
X144698092Y-109254227D01*
X144831633Y-109144633D01*
X144859097Y-109111168D01*
X145147827Y-108822438D01*
X145362734Y-108779690D01*
X145567835Y-108694734D01*
X145752421Y-108571398D01*
X145909398Y-108414421D01*
X146032734Y-108229835D01*
X146117690Y-108024734D01*
X146161000Y-107807000D01*
X146161000Y-107585000D01*
X146117690Y-107367266D01*
X146032734Y-107162165D01*
X145909398Y-106977579D01*
X145752421Y-106820602D01*
X145567835Y-106697266D01*
X145362734Y-106612310D01*
X145145000Y-106569000D01*
X144923000Y-106569000D01*
X144705266Y-106612310D01*
X144500165Y-106697266D01*
X144315579Y-106820602D01*
X144158602Y-106977579D01*
X144035266Y-107162165D01*
X143950310Y-107367266D01*
X143907562Y-107582173D01*
X143845235Y-107644500D01*
X130570767Y-107644500D01*
X130623690Y-107516734D01*
X130667000Y-107299000D01*
X130667000Y-107077000D01*
X130623690Y-106859266D01*
X130538734Y-106654165D01*
X130505549Y-106604500D01*
X139167291Y-106604500D01*
X139209266Y-106705835D01*
X139332602Y-106890421D01*
X139489579Y-107047398D01*
X139674165Y-107170734D01*
X139879266Y-107255690D01*
X140097000Y-107299000D01*
X140319000Y-107299000D01*
X140536734Y-107255690D01*
X140741835Y-107170734D01*
X140926421Y-107047398D01*
X141083398Y-106890421D01*
X141206734Y-106705835D01*
X141291690Y-106500734D01*
X141335000Y-106283000D01*
X141335000Y-106061000D01*
X141291690Y-105843266D01*
X141206734Y-105638165D01*
X141083398Y-105453579D01*
X140926421Y-105296602D01*
X140741835Y-105173266D01*
X140536734Y-105088310D01*
X140319000Y-105045000D01*
X140314294Y-105045000D01*
X140253092Y-104994773D01*
X140100737Y-104913338D01*
X139935422Y-104863190D01*
X139806579Y-104850500D01*
X139763500Y-104846257D01*
X139720421Y-104850500D01*
X119613579Y-104850500D01*
X119570500Y-104846257D01*
X119398577Y-104863190D01*
X119281999Y-104898554D01*
X119233263Y-104913338D01*
X119080908Y-104994773D01*
X119019706Y-105045000D01*
X119015000Y-105045000D01*
X118797266Y-105088310D01*
X118592165Y-105173266D01*
X118407579Y-105296602D01*
X118250602Y-105453579D01*
X118127266Y-105638165D01*
X118042310Y-105843266D01*
X117999000Y-106061000D01*
X117301000Y-106061000D01*
X117301000Y-106026528D01*
X117244240Y-105741175D01*
X117132901Y-105472378D01*
X116971261Y-105230467D01*
X116810703Y-105069909D01*
X116853557Y-105056910D01*
X116979853Y-104989403D01*
X117090554Y-104898554D01*
X117181403Y-104787853D01*
X117248910Y-104661557D01*
X117290480Y-104524517D01*
X117304517Y-104382000D01*
X117304517Y-102882000D01*
X117290480Y-102739483D01*
X117287907Y-102731000D01*
X128668735Y-102731000D01*
X129587903Y-103650168D01*
X129615367Y-103683633D01*
X129748908Y-103793227D01*
X129888036Y-103867592D01*
X129901263Y-103874662D01*
X130066577Y-103924810D01*
X130238500Y-103941743D01*
X130281579Y-103937500D01*
X139226415Y-103937500D01*
X139332602Y-104096421D01*
X139489579Y-104253398D01*
X139674165Y-104376734D01*
X139879266Y-104461690D01*
X140097000Y-104505000D01*
X140319000Y-104505000D01*
X140536734Y-104461690D01*
X140741835Y-104376734D01*
X140926421Y-104253398D01*
X141083398Y-104096421D01*
X141206734Y-103911835D01*
X141291690Y-103706734D01*
X141335000Y-103489000D01*
X141335000Y-103267000D01*
X141291690Y-103049266D01*
X141206734Y-102844165D01*
X141083398Y-102659579D01*
X140926421Y-102502602D01*
X140741835Y-102379266D01*
X140536734Y-102294310D01*
X140319000Y-102251000D01*
X140236459Y-102251000D01*
X140227737Y-102246338D01*
X140062422Y-102196190D01*
X140012134Y-102191237D01*
X139890500Y-102179257D01*
X139847421Y-102183500D01*
X130601765Y-102183500D01*
X129682597Y-101264332D01*
X129655133Y-101230867D01*
X129638801Y-101217464D01*
X130161827Y-100694438D01*
X130376734Y-100651690D01*
X130581835Y-100566734D01*
X130766421Y-100443398D01*
X130923398Y-100286421D01*
X131046734Y-100101835D01*
X131131690Y-99896734D01*
X131175000Y-99679000D01*
X131175000Y-99457000D01*
X131131690Y-99239266D01*
X131046734Y-99034165D01*
X130923398Y-98849579D01*
X130766421Y-98692602D01*
X130581835Y-98569266D01*
X130376734Y-98484310D01*
X130159000Y-98441000D01*
X129937000Y-98441000D01*
X129719266Y-98484310D01*
X129514165Y-98569266D01*
X129329579Y-98692602D01*
X129172602Y-98849579D01*
X129049266Y-99034165D01*
X128964310Y-99239266D01*
X128921562Y-99454173D01*
X128160735Y-100215000D01*
X117281698Y-100215000D01*
X117371240Y-99998825D01*
X117428000Y-99713472D01*
X117428000Y-99422528D01*
X117371240Y-99137175D01*
X117259901Y-98868378D01*
X117098261Y-98626467D01*
X116892533Y-98420739D01*
X116708841Y-98298000D01*
X116892533Y-98175261D01*
X117098261Y-97969533D01*
X117259901Y-97727622D01*
X117371240Y-97458825D01*
X117428000Y-97173472D01*
X117428000Y-96882528D01*
X117371240Y-96597175D01*
X117259901Y-96328378D01*
X117144054Y-96155000D01*
X130953000Y-96155000D01*
X130953000Y-96377000D01*
X130996310Y-96594734D01*
X131081266Y-96799835D01*
X131204602Y-96984421D01*
X131361579Y-97141398D01*
X131546165Y-97264734D01*
X131751266Y-97349690D01*
X131969000Y-97393000D01*
X132191000Y-97393000D01*
X132408734Y-97349690D01*
X132613835Y-97264734D01*
X132796023Y-97143000D01*
X142638735Y-97143000D01*
X142764563Y-97268828D01*
X142807310Y-97483734D01*
X142892266Y-97688835D01*
X143015602Y-97873421D01*
X143172579Y-98030398D01*
X143357165Y-98153734D01*
X143562266Y-98238690D01*
X143780000Y-98282000D01*
X144002000Y-98282000D01*
X144219734Y-98238690D01*
X144424835Y-98153734D01*
X144609421Y-98030398D01*
X144766398Y-97873421D01*
X144889734Y-97688835D01*
X144974690Y-97483734D01*
X145018000Y-97266000D01*
X145018000Y-97044000D01*
X144974690Y-96826266D01*
X144889734Y-96621165D01*
X144766398Y-96436579D01*
X144609421Y-96279602D01*
X144424835Y-96156266D01*
X144219734Y-96071310D01*
X144004828Y-96028563D01*
X143652596Y-95676331D01*
X143625133Y-95642867D01*
X143491592Y-95533273D01*
X143339237Y-95451838D01*
X143173922Y-95401690D01*
X143002000Y-95384757D01*
X142958921Y-95389000D01*
X132796023Y-95389000D01*
X132613835Y-95267266D01*
X132408734Y-95182310D01*
X132191000Y-95139000D01*
X131969000Y-95139000D01*
X131751266Y-95182310D01*
X131546165Y-95267266D01*
X131361579Y-95390602D01*
X131204602Y-95547579D01*
X131081266Y-95732165D01*
X130996310Y-95937266D01*
X130953000Y-96155000D01*
X117144054Y-96155000D01*
X117098261Y-96086467D01*
X116937703Y-95925909D01*
X116980557Y-95912910D01*
X117106853Y-95845403D01*
X117217554Y-95754554D01*
X117308403Y-95643853D01*
X117375910Y-95517557D01*
X117417480Y-95380517D01*
X117431517Y-95238000D01*
X117431517Y-93738000D01*
X117417480Y-93595483D01*
X117375910Y-93458443D01*
X117308403Y-93332147D01*
X117217554Y-93221446D01*
X117106853Y-93130597D01*
X116980557Y-93063090D01*
X116843517Y-93021520D01*
X116701000Y-93007483D01*
X115201000Y-93007483D01*
X115058483Y-93021520D01*
X114921443Y-93063090D01*
X114795147Y-93130597D01*
X114684446Y-93221446D01*
X114593597Y-93332147D01*
X114526090Y-93458443D01*
X114484520Y-93595483D01*
X114470483Y-93738000D01*
X114470483Y-95238000D01*
X114484520Y-95380517D01*
X114526090Y-95517557D01*
X114593597Y-95643853D01*
X114684446Y-95754554D01*
X114795147Y-95845403D01*
X114921443Y-95912910D01*
X114964297Y-95925909D01*
X114803739Y-96086467D01*
X114642099Y-96328378D01*
X114530760Y-96597175D01*
X114474000Y-96882528D01*
X114474000Y-97173472D01*
X114530760Y-97458825D01*
X114642099Y-97727622D01*
X114803739Y-97969533D01*
X115009467Y-98175261D01*
X115193159Y-98298000D01*
X115009467Y-98420739D01*
X114803739Y-98626467D01*
X114642099Y-98868378D01*
X114530760Y-99137175D01*
X114474000Y-99422528D01*
X114474000Y-99713472D01*
X114530760Y-99998825D01*
X114620302Y-100215000D01*
X97645265Y-100215000D01*
X96408597Y-98978332D01*
X96381133Y-98944867D01*
X96252755Y-98839510D01*
X96171572Y-98687627D01*
X95974503Y-98447497D01*
X95734373Y-98250428D01*
X95460412Y-98103993D01*
X95163146Y-98013818D01*
X94931469Y-97991000D01*
X94776531Y-97991000D01*
X94544854Y-98013818D01*
X94247588Y-98103993D01*
X93973627Y-98250428D01*
X93733497Y-98447497D01*
X93536428Y-98687627D01*
X93389993Y-98961588D01*
X93299818Y-99258854D01*
X93269370Y-99568000D01*
X77968000Y-99568000D01*
X77968000Y-91821000D01*
X93411370Y-91821000D01*
X93441818Y-92130146D01*
X93531993Y-92427412D01*
X93678428Y-92701373D01*
X93812604Y-92864868D01*
X93740147Y-92903597D01*
X93629446Y-92994446D01*
X93538597Y-93105147D01*
X93471090Y-93231443D01*
X93429520Y-93368483D01*
X93415483Y-93511000D01*
X93415483Y-95211000D01*
X93429520Y-95353517D01*
X93471090Y-95490557D01*
X93538597Y-95616853D01*
X93629446Y-95727554D01*
X93740147Y-95818403D01*
X93866443Y-95885910D01*
X94003483Y-95927480D01*
X94146000Y-95941517D01*
X95846000Y-95941517D01*
X95988517Y-95927480D01*
X96125557Y-95885910D01*
X96251853Y-95818403D01*
X96362554Y-95727554D01*
X96453403Y-95616853D01*
X96520910Y-95490557D01*
X96562480Y-95353517D01*
X96576517Y-95211000D01*
X96576517Y-93511000D01*
X96562480Y-93368483D01*
X96520910Y-93231443D01*
X96453403Y-93105147D01*
X96362554Y-92994446D01*
X96251853Y-92903597D01*
X96179396Y-92864868D01*
X96313572Y-92701373D01*
X96460007Y-92427412D01*
X96550182Y-92130146D01*
X96580630Y-91821000D01*
X96550182Y-91511854D01*
X96460007Y-91214588D01*
X96313572Y-90940627D01*
X96116503Y-90700497D01*
X95876373Y-90503428D01*
X95602412Y-90356993D01*
X95305146Y-90266818D01*
X95073469Y-90244000D01*
X94918531Y-90244000D01*
X94686854Y-90266818D01*
X94389588Y-90356993D01*
X94115627Y-90503428D01*
X93875497Y-90700497D01*
X93678428Y-90940627D01*
X93531993Y-91214588D01*
X93441818Y-91511854D01*
X93411370Y-91821000D01*
X77968000Y-91821000D01*
X77968000Y-81851500D01*
X84746065Y-81851500D01*
X84769755Y-82092033D01*
X84839917Y-82323324D01*
X84953852Y-82536482D01*
X85107183Y-82723317D01*
X85294018Y-82876648D01*
X85507176Y-82990583D01*
X85738467Y-83060745D01*
X85979000Y-83084435D01*
X86219533Y-83060745D01*
X86450824Y-82990583D01*
X86663982Y-82876648D01*
X86804004Y-82761735D01*
X87312740Y-82253000D01*
X94252056Y-82253000D01*
X94017497Y-82445497D01*
X93820428Y-82685627D01*
X93673993Y-82959588D01*
X93583818Y-83256854D01*
X93553370Y-83566000D01*
X93583818Y-83875146D01*
X93673993Y-84172412D01*
X93820428Y-84446373D01*
X93954604Y-84609868D01*
X93882147Y-84648597D01*
X93771446Y-84739446D01*
X93680597Y-84850147D01*
X93613090Y-84976443D01*
X93571520Y-85113483D01*
X93557483Y-85256000D01*
X93557483Y-86956000D01*
X93571520Y-87098517D01*
X93613090Y-87235557D01*
X93680597Y-87361853D01*
X93771446Y-87472554D01*
X93882147Y-87563403D01*
X94008443Y-87630910D01*
X94145483Y-87672480D01*
X94288000Y-87686517D01*
X95988000Y-87686517D01*
X96130517Y-87672480D01*
X96267557Y-87630910D01*
X96393853Y-87563403D01*
X96504554Y-87472554D01*
X96595403Y-87361853D01*
X96662910Y-87235557D01*
X96704480Y-87098517D01*
X96718517Y-86956000D01*
X96718517Y-85256000D01*
X96704480Y-85113483D01*
X96662910Y-84976443D01*
X96595403Y-84850147D01*
X96504554Y-84739446D01*
X96393853Y-84648597D01*
X96321396Y-84609868D01*
X96455572Y-84446373D01*
X96602007Y-84172412D01*
X96692182Y-83875146D01*
X96722630Y-83566000D01*
X96692182Y-83256854D01*
X96602007Y-82959588D01*
X96455572Y-82685627D01*
X96258503Y-82445497D01*
X96023944Y-82253000D01*
X98297761Y-82253000D01*
X98911764Y-82867004D01*
X98950183Y-82913817D01*
X99137017Y-83067149D01*
X99350176Y-83181084D01*
X99581466Y-83251245D01*
X99761732Y-83269000D01*
X99761740Y-83269000D01*
X99822000Y-83274935D01*
X99882260Y-83269000D01*
X114597483Y-83269000D01*
X114597483Y-83554000D01*
X114611520Y-83696517D01*
X114653090Y-83833557D01*
X114720597Y-83959853D01*
X114811446Y-84070554D01*
X114922147Y-84161403D01*
X115048443Y-84228910D01*
X115091297Y-84241909D01*
X114930739Y-84402467D01*
X114769099Y-84644378D01*
X114657760Y-84913175D01*
X114601000Y-85198528D01*
X114601000Y-85489472D01*
X114657760Y-85774825D01*
X114769099Y-86043622D01*
X114930739Y-86285533D01*
X115136467Y-86491261D01*
X115320159Y-86614000D01*
X115136467Y-86736739D01*
X114930739Y-86942467D01*
X114769099Y-87184378D01*
X114657760Y-87453175D01*
X114601000Y-87738528D01*
X114601000Y-88029472D01*
X114657760Y-88314825D01*
X114769099Y-88583622D01*
X114930739Y-88825533D01*
X115136467Y-89031261D01*
X115378378Y-89192901D01*
X115647175Y-89304240D01*
X115932528Y-89361000D01*
X116223472Y-89361000D01*
X116508825Y-89304240D01*
X116777622Y-89192901D01*
X117019533Y-89031261D01*
X117225261Y-88825533D01*
X117386901Y-88583622D01*
X117498240Y-88314825D01*
X117555000Y-88029472D01*
X117555000Y-87738528D01*
X117498240Y-87453175D01*
X117386901Y-87184378D01*
X117225261Y-86942467D01*
X117019533Y-86736739D01*
X116835841Y-86614000D01*
X117019533Y-86491261D01*
X117225261Y-86285533D01*
X117386901Y-86043622D01*
X117498240Y-85774825D01*
X117555000Y-85489472D01*
X117555000Y-85198528D01*
X117498240Y-84913175D01*
X117386901Y-84644378D01*
X117225261Y-84402467D01*
X117064703Y-84241909D01*
X117107557Y-84228910D01*
X117233853Y-84161403D01*
X117344554Y-84070554D01*
X117435403Y-83959853D01*
X117502910Y-83833557D01*
X117544480Y-83696517D01*
X117558517Y-83554000D01*
X117558517Y-82054000D01*
X117544480Y-81911483D01*
X117502910Y-81774443D01*
X117435403Y-81648147D01*
X117344554Y-81537446D01*
X117233853Y-81446597D01*
X117107557Y-81379090D01*
X116970517Y-81337520D01*
X116828000Y-81323483D01*
X116332722Y-81323483D01*
X116226239Y-81217000D01*
X116187817Y-81170183D01*
X116000983Y-81016851D01*
X115787824Y-80902916D01*
X115556534Y-80832755D01*
X115376268Y-80815000D01*
X115376260Y-80815000D01*
X115316000Y-80809065D01*
X115255740Y-80815000D01*
X100330240Y-80815000D01*
X99716239Y-80201000D01*
X99677817Y-80154183D01*
X99490983Y-80000851D01*
X99277824Y-79886916D01*
X99046534Y-79816755D01*
X98866268Y-79799000D01*
X98866260Y-79799000D01*
X98806000Y-79793065D01*
X98745740Y-79799000D01*
X86864759Y-79799000D01*
X86804499Y-79793065D01*
X86744239Y-79799000D01*
X86744232Y-79799000D01*
X86563966Y-79816755D01*
X86332676Y-79886916D01*
X86119517Y-80000851D01*
X85932683Y-80154183D01*
X85894265Y-80200995D01*
X85068765Y-81026496D01*
X84953852Y-81166518D01*
X84839917Y-81379676D01*
X84769755Y-81610967D01*
X84746065Y-81851500D01*
X77968000Y-81851500D01*
X77968000Y-75708000D01*
X102632000Y-75708000D01*
X102632000Y-75930000D01*
X102675310Y-76147734D01*
X102760266Y-76352835D01*
X102883602Y-76537421D01*
X103040579Y-76694398D01*
X103225165Y-76817734D01*
X103430266Y-76902690D01*
X103648000Y-76946000D01*
X103870000Y-76946000D01*
X104087734Y-76902690D01*
X104292835Y-76817734D01*
X104475023Y-76696000D01*
X109138977Y-76696000D01*
X109321165Y-76817734D01*
X109526266Y-76902690D01*
X109744000Y-76946000D01*
X109966000Y-76946000D01*
X110183734Y-76902690D01*
X110388835Y-76817734D01*
X110573421Y-76694398D01*
X110730398Y-76537421D01*
X110853734Y-76352835D01*
X110938690Y-76147734D01*
X110982000Y-75930000D01*
X110982000Y-75708000D01*
X110938690Y-75490266D01*
X110853734Y-75285165D01*
X110778120Y-75172000D01*
X114599175Y-75172000D01*
X114724579Y-75297404D01*
X114909165Y-75420740D01*
X115114266Y-75505696D01*
X115332000Y-75549006D01*
X115554000Y-75549006D01*
X115771734Y-75505696D01*
X115976835Y-75420740D01*
X116161421Y-75297404D01*
X116318398Y-75140427D01*
X116441734Y-74955841D01*
X116526690Y-74750740D01*
X116570000Y-74533006D01*
X116570000Y-74311006D01*
X116526690Y-74093272D01*
X116441734Y-73888171D01*
X116318398Y-73703585D01*
X116262813Y-73648000D01*
X120314977Y-73648000D01*
X120497165Y-73769734D01*
X120702266Y-73854690D01*
X120920000Y-73898000D01*
X121142000Y-73898000D01*
X121359734Y-73854690D01*
X121564835Y-73769734D01*
X121749421Y-73646398D01*
X121906398Y-73489421D01*
X122029734Y-73304835D01*
X122114690Y-73099734D01*
X122158000Y-72882000D01*
X122158000Y-72660000D01*
X122114690Y-72442266D01*
X122029734Y-72237165D01*
X121906398Y-72052579D01*
X121749421Y-71895602D01*
X121564835Y-71772266D01*
X121359734Y-71687310D01*
X121142000Y-71644000D01*
X120920000Y-71644000D01*
X120702266Y-71687310D01*
X120497165Y-71772266D01*
X120314977Y-71894000D01*
X104602023Y-71894000D01*
X104419835Y-71772266D01*
X104214734Y-71687310D01*
X103997000Y-71644000D01*
X103775000Y-71644000D01*
X103557266Y-71687310D01*
X103352165Y-71772266D01*
X103167579Y-71895602D01*
X103010602Y-72052579D01*
X102887266Y-72237165D01*
X102802310Y-72442266D01*
X102759000Y-72660000D01*
X102759000Y-72882000D01*
X102802310Y-73099734D01*
X102887266Y-73304835D01*
X103010602Y-73489421D01*
X103054181Y-73533000D01*
X103010602Y-73576579D01*
X102887266Y-73761165D01*
X102802310Y-73966266D01*
X102759000Y-74184000D01*
X102759000Y-74406000D01*
X102802310Y-74623734D01*
X102887266Y-74828835D01*
X102994644Y-74989537D01*
X102883602Y-75100579D01*
X102760266Y-75285165D01*
X102675310Y-75490266D01*
X102632000Y-75708000D01*
X77968000Y-75708000D01*
X77968000Y-69952890D01*
X80346524Y-69952890D01*
X80391175Y-70100099D01*
X80516359Y-70362920D01*
X80690412Y-70596269D01*
X80906645Y-70791178D01*
X81156748Y-70940157D01*
X81431109Y-71037481D01*
X81661000Y-70916814D01*
X81661000Y-69723000D01*
X81915000Y-69723000D01*
X81915000Y-70916814D01*
X82144891Y-71037481D01*
X82419252Y-70940157D01*
X82669355Y-70791178D01*
X82885588Y-70596269D01*
X83058000Y-70365120D01*
X83230412Y-70596269D01*
X83446645Y-70791178D01*
X83696748Y-70940157D01*
X83971109Y-71037481D01*
X84201000Y-70916814D01*
X84201000Y-69723000D01*
X84455000Y-69723000D01*
X84455000Y-70916814D01*
X84684891Y-71037481D01*
X84959252Y-70940157D01*
X85209355Y-70791178D01*
X85425588Y-70596269D01*
X85599641Y-70362920D01*
X85724825Y-70100099D01*
X85769476Y-69952890D01*
X85648155Y-69723000D01*
X84455000Y-69723000D01*
X84201000Y-69723000D01*
X81915000Y-69723000D01*
X81661000Y-69723000D01*
X80467845Y-69723000D01*
X80346524Y-69952890D01*
X77968000Y-69952890D01*
X77968000Y-46228000D01*
X78493757Y-46228000D01*
X78498000Y-46271079D01*
X78498000Y-46819921D01*
X78493757Y-46863000D01*
X78510690Y-47034922D01*
X78557968Y-47190775D01*
X78560838Y-47200236D01*
X78642273Y-47352591D01*
X78751867Y-47486133D01*
X78785332Y-47513597D01*
X80234928Y-48963193D01*
X80233818Y-48966854D01*
X80203370Y-49276000D01*
X80233818Y-49585146D01*
X80323993Y-49882412D01*
X80470428Y-50156373D01*
X80667497Y-50396503D01*
X80849660Y-50546000D01*
X80667497Y-50695497D01*
X80470428Y-50935627D01*
X80323993Y-51209588D01*
X80233818Y-51506854D01*
X80203370Y-51816000D01*
X80233818Y-52125146D01*
X80323993Y-52422412D01*
X80470428Y-52696373D01*
X80667497Y-52936503D01*
X80849660Y-53086000D01*
X80667497Y-53235497D01*
X80470428Y-53475627D01*
X80323993Y-53749588D01*
X80233818Y-54046854D01*
X80203370Y-54356000D01*
X80233818Y-54665146D01*
X80323993Y-54962412D01*
X80470428Y-55236373D01*
X80667497Y-55476503D01*
X80849660Y-55626000D01*
X80667497Y-55775497D01*
X80470428Y-56015627D01*
X80323993Y-56289588D01*
X80233818Y-56586854D01*
X80203370Y-56896000D01*
X80233818Y-57205146D01*
X80323993Y-57502412D01*
X80470428Y-57776373D01*
X80667497Y-58016503D01*
X80849660Y-58166000D01*
X80667497Y-58315497D01*
X80470428Y-58555627D01*
X80323993Y-58829588D01*
X80233818Y-59126854D01*
X80203370Y-59436000D01*
X80233818Y-59745146D01*
X80323993Y-60042412D01*
X80470428Y-60316373D01*
X80667497Y-60556503D01*
X80849660Y-60706000D01*
X80667497Y-60855497D01*
X80470428Y-61095627D01*
X80323993Y-61369588D01*
X80233818Y-61666854D01*
X80203370Y-61976000D01*
X80233818Y-62285146D01*
X80323993Y-62582412D01*
X80470428Y-62856373D01*
X80667497Y-63096503D01*
X80849660Y-63246000D01*
X80667497Y-63395497D01*
X80470428Y-63635627D01*
X80323993Y-63909588D01*
X80233818Y-64206854D01*
X80203370Y-64516000D01*
X80233818Y-64825146D01*
X80323993Y-65122412D01*
X80470428Y-65396373D01*
X80667497Y-65636503D01*
X80849660Y-65786000D01*
X80667497Y-65935497D01*
X80470428Y-66175627D01*
X80323993Y-66449588D01*
X80233818Y-66746854D01*
X80203370Y-67056000D01*
X80233818Y-67365146D01*
X80323993Y-67662412D01*
X80470428Y-67936373D01*
X80667497Y-68176503D01*
X80907627Y-68373572D01*
X80931221Y-68386183D01*
X80906645Y-68400822D01*
X80690412Y-68595731D01*
X80516359Y-68829080D01*
X80391175Y-69091901D01*
X80346524Y-69239110D01*
X80467845Y-69469000D01*
X81661000Y-69469000D01*
X81661000Y-69449000D01*
X81915000Y-69449000D01*
X81915000Y-69469000D01*
X84201000Y-69469000D01*
X84201000Y-69449000D01*
X84455000Y-69449000D01*
X84455000Y-69469000D01*
X85648155Y-69469000D01*
X85769476Y-69239110D01*
X85724825Y-69091901D01*
X85599641Y-68829080D01*
X85425588Y-68595731D01*
X85209355Y-68400822D01*
X85184779Y-68386183D01*
X85208373Y-68373572D01*
X85318736Y-68283000D01*
X88579268Y-68283000D01*
X88759534Y-68265245D01*
X88990824Y-68195084D01*
X89203983Y-68081149D01*
X89390817Y-67927817D01*
X89544149Y-67740983D01*
X89658084Y-67527824D01*
X89728245Y-67296534D01*
X89751936Y-67056000D01*
X89728245Y-66815466D01*
X89658084Y-66584176D01*
X89544149Y-66371017D01*
X89390817Y-66184183D01*
X89203983Y-66030851D01*
X88990824Y-65916916D01*
X88759534Y-65846755D01*
X88579268Y-65829000D01*
X85318736Y-65829000D01*
X85266340Y-65786000D01*
X85448503Y-65636503D01*
X85645572Y-65396373D01*
X85792007Y-65122412D01*
X85882182Y-64825146D01*
X85912630Y-64516000D01*
X85882182Y-64206854D01*
X85792007Y-63909588D01*
X85645572Y-63635627D01*
X85448503Y-63395497D01*
X85266340Y-63246000D01*
X85448503Y-63096503D01*
X85645572Y-62856373D01*
X85792007Y-62582412D01*
X85882182Y-62285146D01*
X85912630Y-61976000D01*
X85882182Y-61666854D01*
X85792007Y-61369588D01*
X85645572Y-61095627D01*
X85448503Y-60855497D01*
X85266340Y-60706000D01*
X85448503Y-60556503D01*
X85645572Y-60316373D01*
X85792007Y-60042412D01*
X85882182Y-59745146D01*
X85912630Y-59436000D01*
X85882182Y-59126854D01*
X85792007Y-58829588D01*
X85645572Y-58555627D01*
X85448503Y-58315497D01*
X85266340Y-58166000D01*
X85448503Y-58016503D01*
X85645572Y-57776373D01*
X85792007Y-57502412D01*
X85882182Y-57205146D01*
X85912630Y-56896000D01*
X85882182Y-56586854D01*
X85792007Y-56289588D01*
X85645572Y-56015627D01*
X85448503Y-55775497D01*
X85208373Y-55578428D01*
X85184779Y-55565817D01*
X85209355Y-55551178D01*
X85425588Y-55356269D01*
X85599641Y-55122920D01*
X85724825Y-54860099D01*
X85769476Y-54712890D01*
X85648155Y-54483000D01*
X84455000Y-54483000D01*
X84455000Y-54503000D01*
X84201000Y-54503000D01*
X84201000Y-54483000D01*
X84181000Y-54483000D01*
X84181000Y-54229000D01*
X84201000Y-54229000D01*
X84201000Y-54209000D01*
X84455000Y-54209000D01*
X84455000Y-54229000D01*
X85648155Y-54229000D01*
X85769476Y-53999110D01*
X85724825Y-53851901D01*
X85599641Y-53589080D01*
X85425588Y-53355731D01*
X85209355Y-53160822D01*
X85184779Y-53146183D01*
X85208373Y-53133572D01*
X85318736Y-53043000D01*
X98301240Y-53043000D01*
X98361500Y-53048935D01*
X98421760Y-53043000D01*
X98421768Y-53043000D01*
X98602034Y-53025245D01*
X98833324Y-52955084D01*
X99046483Y-52841149D01*
X99233317Y-52687817D01*
X99271739Y-52641000D01*
X99398735Y-52514004D01*
X99513648Y-52373982D01*
X99627583Y-52160824D01*
X99697745Y-51929533D01*
X99721435Y-51689001D01*
X99697745Y-51448467D01*
X99627583Y-51217177D01*
X99513648Y-51004018D01*
X99360317Y-50817183D01*
X99173482Y-50663852D01*
X98960323Y-50549917D01*
X98729033Y-50479755D01*
X98488499Y-50456065D01*
X98247967Y-50479755D01*
X98016676Y-50549917D01*
X97943557Y-50589000D01*
X85318736Y-50589000D01*
X85266340Y-50546000D01*
X85448503Y-50396503D01*
X85645572Y-50156373D01*
X85792007Y-49882412D01*
X85882182Y-49585146D01*
X85912630Y-49276000D01*
X85882182Y-48966854D01*
X85792007Y-48669588D01*
X85645572Y-48395627D01*
X85448503Y-48155497D01*
X85266340Y-48006000D01*
X85448503Y-47856503D01*
X85645572Y-47616373D01*
X85792007Y-47342412D01*
X85882182Y-47045146D01*
X85912630Y-46736000D01*
X85882182Y-46426854D01*
X85792007Y-46129588D01*
X85702429Y-45962000D01*
X89679735Y-45962000D01*
X92155062Y-48437327D01*
X92197810Y-48652234D01*
X92282766Y-48857335D01*
X92406102Y-49041921D01*
X92563079Y-49198898D01*
X92747665Y-49322234D01*
X92952766Y-49407190D01*
X93170500Y-49450500D01*
X93392500Y-49450500D01*
X93610234Y-49407190D01*
X93815335Y-49322234D01*
X93884529Y-49276000D01*
X141163370Y-49276000D01*
X141193818Y-49585146D01*
X141283993Y-49882412D01*
X141430428Y-50156373D01*
X141627497Y-50396503D01*
X141809660Y-50546000D01*
X141627497Y-50695497D01*
X141430428Y-50935627D01*
X141283993Y-51209588D01*
X141193818Y-51506854D01*
X141163370Y-51816000D01*
X141193818Y-52125146D01*
X141283993Y-52422412D01*
X141430428Y-52696373D01*
X141627497Y-52936503D01*
X141809660Y-53086000D01*
X141627497Y-53235497D01*
X141430428Y-53475627D01*
X141283993Y-53749588D01*
X141193818Y-54046854D01*
X141163370Y-54356000D01*
X141193818Y-54665146D01*
X141283993Y-54962412D01*
X141430428Y-55236373D01*
X141627497Y-55476503D01*
X141867627Y-55673572D01*
X141891221Y-55686183D01*
X141866645Y-55700822D01*
X141650412Y-55895731D01*
X141476359Y-56129080D01*
X141351175Y-56391901D01*
X141306524Y-56539110D01*
X141427845Y-56769000D01*
X142621000Y-56769000D01*
X142621000Y-56749000D01*
X142875000Y-56749000D01*
X142875000Y-56769000D01*
X142895000Y-56769000D01*
X142895000Y-57023000D01*
X142875000Y-57023000D01*
X142875000Y-57043000D01*
X142621000Y-57043000D01*
X142621000Y-57023000D01*
X141427845Y-57023000D01*
X141306524Y-57252890D01*
X141351175Y-57400099D01*
X141476359Y-57662920D01*
X141650412Y-57896269D01*
X141866645Y-58091178D01*
X141891221Y-58105817D01*
X141867627Y-58118428D01*
X141627497Y-58315497D01*
X141430428Y-58555627D01*
X141283993Y-58829588D01*
X141193818Y-59126854D01*
X141163370Y-59436000D01*
X141193818Y-59745146D01*
X141283993Y-60042412D01*
X141430428Y-60316373D01*
X141627497Y-60556503D01*
X141809660Y-60706000D01*
X141627497Y-60855497D01*
X141430428Y-61095627D01*
X141283993Y-61369588D01*
X141193818Y-61666854D01*
X141163370Y-61976000D01*
X141193818Y-62285146D01*
X141283993Y-62582412D01*
X141430428Y-62856373D01*
X141627497Y-63096503D01*
X141809660Y-63246000D01*
X141627497Y-63395497D01*
X141430428Y-63635627D01*
X141283993Y-63909588D01*
X141193818Y-64206854D01*
X141163370Y-64516000D01*
X141193818Y-64825146D01*
X141283993Y-65122412D01*
X141430428Y-65396373D01*
X141627497Y-65636503D01*
X141809660Y-65786000D01*
X141627497Y-65935497D01*
X141430428Y-66175627D01*
X141283993Y-66449588D01*
X141193818Y-66746854D01*
X141163370Y-67056000D01*
X141193818Y-67365146D01*
X141283993Y-67662412D01*
X141430428Y-67936373D01*
X141627497Y-68176503D01*
X141809660Y-68326000D01*
X141627497Y-68475497D01*
X141430428Y-68715627D01*
X141283993Y-68989588D01*
X141193818Y-69286854D01*
X141163370Y-69596000D01*
X141193818Y-69905146D01*
X141283993Y-70202412D01*
X141430428Y-70476373D01*
X141627497Y-70716503D01*
X141809660Y-70866000D01*
X141627497Y-71015497D01*
X141430428Y-71255627D01*
X141283993Y-71529588D01*
X141193818Y-71826854D01*
X141163370Y-72136000D01*
X141193818Y-72445146D01*
X141283993Y-72742412D01*
X141430428Y-73016373D01*
X141627497Y-73256503D01*
X141809660Y-73406000D01*
X141627497Y-73555497D01*
X141430428Y-73795627D01*
X141283993Y-74069588D01*
X141193818Y-74366854D01*
X141163370Y-74676000D01*
X141193818Y-74985146D01*
X141283993Y-75282412D01*
X141430428Y-75556373D01*
X141627497Y-75796503D01*
X141809660Y-75946000D01*
X141627497Y-76095497D01*
X141430428Y-76335627D01*
X141283993Y-76609588D01*
X141193818Y-76906854D01*
X141163370Y-77216000D01*
X141193818Y-77525146D01*
X141283993Y-77822412D01*
X141430428Y-78096373D01*
X141627497Y-78336503D01*
X141809660Y-78486000D01*
X141627497Y-78635497D01*
X141430428Y-78875627D01*
X141283993Y-79149588D01*
X141193818Y-79446854D01*
X141163370Y-79756000D01*
X141193818Y-80065146D01*
X141283993Y-80362412D01*
X141430428Y-80636373D01*
X141627497Y-80876503D01*
X141809660Y-81026000D01*
X141627497Y-81175497D01*
X141430428Y-81415627D01*
X141283993Y-81689588D01*
X141193818Y-81986854D01*
X141163370Y-82296000D01*
X141193818Y-82605146D01*
X141283993Y-82902412D01*
X141430428Y-83176373D01*
X141627497Y-83416503D01*
X141809660Y-83566000D01*
X141627497Y-83715497D01*
X141430428Y-83955627D01*
X141283993Y-84229588D01*
X141193818Y-84526854D01*
X141163370Y-84836000D01*
X141193818Y-85145146D01*
X141283993Y-85442412D01*
X141430428Y-85716373D01*
X141627497Y-85956503D01*
X141809660Y-86106000D01*
X141627497Y-86255497D01*
X141430428Y-86495627D01*
X141283993Y-86769588D01*
X141193818Y-87066854D01*
X141163370Y-87376000D01*
X141193818Y-87685146D01*
X141283993Y-87982412D01*
X141430428Y-88256373D01*
X141627497Y-88496503D01*
X141809660Y-88646000D01*
X141627497Y-88795497D01*
X141430428Y-89035627D01*
X141283993Y-89309588D01*
X141193818Y-89606854D01*
X141163370Y-89916000D01*
X141193818Y-90225146D01*
X141283993Y-90522412D01*
X141430428Y-90796373D01*
X141627497Y-91036503D01*
X141809660Y-91186000D01*
X141627497Y-91335497D01*
X141430428Y-91575627D01*
X141283993Y-91849588D01*
X141193818Y-92146854D01*
X141163370Y-92456000D01*
X141193818Y-92765146D01*
X141283993Y-93062412D01*
X141430428Y-93336373D01*
X141627497Y-93576503D01*
X141867627Y-93773572D01*
X142141588Y-93920007D01*
X142438854Y-94010182D01*
X142670531Y-94033000D01*
X142825469Y-94033000D01*
X143057146Y-94010182D01*
X143354412Y-93920007D01*
X143628373Y-93773572D01*
X143868503Y-93576503D01*
X144018000Y-93394340D01*
X144167497Y-93576503D01*
X144407627Y-93773572D01*
X144681588Y-93920007D01*
X144978854Y-94010182D01*
X145210531Y-94033000D01*
X145365469Y-94033000D01*
X145597146Y-94010182D01*
X145894412Y-93920007D01*
X146168373Y-93773572D01*
X146408503Y-93576503D01*
X146605572Y-93336373D01*
X146752007Y-93062412D01*
X146842182Y-92765146D01*
X146872630Y-92456000D01*
X146842182Y-92146854D01*
X146752007Y-91849588D01*
X146605572Y-91575627D01*
X146408503Y-91335497D01*
X146226340Y-91186000D01*
X146408503Y-91036503D01*
X146605572Y-90796373D01*
X146752007Y-90522412D01*
X146842182Y-90225146D01*
X146872630Y-89916000D01*
X146842182Y-89606854D01*
X146752007Y-89309588D01*
X146605572Y-89035627D01*
X146408503Y-88795497D01*
X146226340Y-88646000D01*
X146408503Y-88496503D01*
X146605572Y-88256373D01*
X146752007Y-87982412D01*
X146842182Y-87685146D01*
X146872630Y-87376000D01*
X146842182Y-87066854D01*
X146752007Y-86769588D01*
X146605572Y-86495627D01*
X146408503Y-86255497D01*
X146168373Y-86058428D01*
X146144779Y-86045817D01*
X146169355Y-86031178D01*
X146385588Y-85836269D01*
X146559641Y-85602920D01*
X146684825Y-85340099D01*
X146729476Y-85192890D01*
X146608155Y-84963000D01*
X145415000Y-84963000D01*
X145415000Y-84983000D01*
X145161000Y-84983000D01*
X145161000Y-84963000D01*
X145141000Y-84963000D01*
X145141000Y-84709000D01*
X145161000Y-84709000D01*
X145161000Y-84689000D01*
X145415000Y-84689000D01*
X145415000Y-84709000D01*
X146608155Y-84709000D01*
X146729476Y-84479110D01*
X146684825Y-84331901D01*
X146559641Y-84069080D01*
X146385588Y-83835731D01*
X146169355Y-83640822D01*
X146144779Y-83626183D01*
X146168373Y-83613572D01*
X146408503Y-83416503D01*
X146605572Y-83176373D01*
X146752007Y-82902412D01*
X146842182Y-82605146D01*
X146872630Y-82296000D01*
X146842182Y-81986854D01*
X146752007Y-81689588D01*
X146605572Y-81415627D01*
X146408503Y-81175497D01*
X146226340Y-81026000D01*
X146408503Y-80876503D01*
X146605572Y-80636373D01*
X146752007Y-80362412D01*
X146842182Y-80065146D01*
X146872630Y-79756000D01*
X146842182Y-79446854D01*
X146752007Y-79149588D01*
X146605572Y-78875627D01*
X146408503Y-78635497D01*
X146226340Y-78486000D01*
X146408503Y-78336503D01*
X146605572Y-78096373D01*
X146752007Y-77822412D01*
X146842182Y-77525146D01*
X146872630Y-77216000D01*
X146842182Y-76906854D01*
X146752007Y-76609588D01*
X146605572Y-76335627D01*
X146408503Y-76095497D01*
X146226340Y-75946000D01*
X146408503Y-75796503D01*
X146605572Y-75556373D01*
X146752007Y-75282412D01*
X146842182Y-74985146D01*
X146872630Y-74676000D01*
X146842182Y-74366854D01*
X146752007Y-74069588D01*
X146605572Y-73795627D01*
X146408503Y-73555497D01*
X146226340Y-73406000D01*
X146408503Y-73256503D01*
X146605572Y-73016373D01*
X146752007Y-72742412D01*
X146842182Y-72445146D01*
X146872630Y-72136000D01*
X146842182Y-71826854D01*
X146752007Y-71529588D01*
X146605572Y-71255627D01*
X146408503Y-71015497D01*
X146168373Y-70818428D01*
X146144779Y-70805817D01*
X146169355Y-70791178D01*
X146385588Y-70596269D01*
X146559641Y-70362920D01*
X146684825Y-70100099D01*
X146729476Y-69952890D01*
X146608155Y-69723000D01*
X145415000Y-69723000D01*
X145415000Y-69743000D01*
X145161000Y-69743000D01*
X145161000Y-69723000D01*
X145141000Y-69723000D01*
X145141000Y-69469000D01*
X145161000Y-69469000D01*
X145161000Y-69449000D01*
X145415000Y-69449000D01*
X145415000Y-69469000D01*
X146608155Y-69469000D01*
X146729476Y-69239110D01*
X146684825Y-69091901D01*
X146559641Y-68829080D01*
X146385588Y-68595731D01*
X146169355Y-68400822D01*
X146144779Y-68386183D01*
X146168373Y-68373572D01*
X146408503Y-68176503D01*
X146605572Y-67936373D01*
X146752007Y-67662412D01*
X146842182Y-67365146D01*
X146872630Y-67056000D01*
X146842182Y-66746854D01*
X146752007Y-66449588D01*
X146605572Y-66175627D01*
X146408503Y-65935497D01*
X146226340Y-65786000D01*
X146408503Y-65636503D01*
X146605572Y-65396373D01*
X146752007Y-65122412D01*
X146842182Y-64825146D01*
X146872630Y-64516000D01*
X146842182Y-64206854D01*
X146752007Y-63909588D01*
X146605572Y-63635627D01*
X146408503Y-63395497D01*
X146226340Y-63246000D01*
X146408503Y-63096503D01*
X146605572Y-62856373D01*
X146752007Y-62582412D01*
X146842182Y-62285146D01*
X146872630Y-61976000D01*
X146842182Y-61666854D01*
X146752007Y-61369588D01*
X146605572Y-61095627D01*
X146408503Y-60855497D01*
X146226340Y-60706000D01*
X146408503Y-60556503D01*
X146605572Y-60316373D01*
X146752007Y-60042412D01*
X146842182Y-59745146D01*
X146872630Y-59436000D01*
X146842182Y-59126854D01*
X146752007Y-58829588D01*
X146605572Y-58555627D01*
X146408503Y-58315497D01*
X146226340Y-58166000D01*
X146408503Y-58016503D01*
X146605572Y-57776373D01*
X146752007Y-57502412D01*
X146842182Y-57205146D01*
X146872630Y-56896000D01*
X146842182Y-56586854D01*
X146752007Y-56289588D01*
X146605572Y-56015627D01*
X146408503Y-55775497D01*
X146226340Y-55626000D01*
X146408503Y-55476503D01*
X146605572Y-55236373D01*
X146752007Y-54962412D01*
X146842182Y-54665146D01*
X146872630Y-54356000D01*
X146842182Y-54046854D01*
X146752007Y-53749588D01*
X146605572Y-53475627D01*
X146408503Y-53235497D01*
X146226340Y-53086000D01*
X146408503Y-52936503D01*
X146605572Y-52696373D01*
X146752007Y-52422412D01*
X146842182Y-52125146D01*
X146872630Y-51816000D01*
X146842182Y-51506854D01*
X146752007Y-51209588D01*
X146605572Y-50935627D01*
X146408503Y-50695497D01*
X146226340Y-50546000D01*
X146408503Y-50396503D01*
X146605572Y-50156373D01*
X146752007Y-49882412D01*
X146842182Y-49585146D01*
X146872630Y-49276000D01*
X146842182Y-48966854D01*
X146752007Y-48669588D01*
X146605572Y-48395627D01*
X146408503Y-48155497D01*
X146226340Y-48006000D01*
X146408503Y-47856503D01*
X146605572Y-47616373D01*
X146752007Y-47342412D01*
X146842182Y-47045146D01*
X146872630Y-46736000D01*
X146842182Y-46426854D01*
X146752007Y-46129588D01*
X146605572Y-45855627D01*
X146408503Y-45615497D01*
X146168373Y-45418428D01*
X145894412Y-45271993D01*
X145597146Y-45181818D01*
X145365469Y-45159000D01*
X145210531Y-45159000D01*
X144978854Y-45181818D01*
X144681588Y-45271993D01*
X144407627Y-45418428D01*
X144244132Y-45552604D01*
X144205403Y-45480147D01*
X144114554Y-45369446D01*
X144003853Y-45278597D01*
X143877557Y-45211090D01*
X143740517Y-45169520D01*
X143598000Y-45155483D01*
X141898000Y-45155483D01*
X141755483Y-45169520D01*
X141618443Y-45211090D01*
X141492147Y-45278597D01*
X141381446Y-45369446D01*
X141290597Y-45480147D01*
X141223090Y-45606443D01*
X141181520Y-45743483D01*
X141167483Y-45886000D01*
X141167483Y-47586000D01*
X141181520Y-47728517D01*
X141223090Y-47865557D01*
X141290597Y-47991853D01*
X141381446Y-48102554D01*
X141492147Y-48193403D01*
X141564604Y-48232132D01*
X141430428Y-48395627D01*
X141283993Y-48669588D01*
X141193818Y-48966854D01*
X141163370Y-49276000D01*
X93884529Y-49276000D01*
X93999921Y-49198898D01*
X94156898Y-49041921D01*
X94280234Y-48857335D01*
X94365190Y-48652234D01*
X94408500Y-48434500D01*
X94408500Y-48212500D01*
X94365190Y-47994766D01*
X94280234Y-47789665D01*
X94156898Y-47605079D01*
X93999921Y-47448102D01*
X93815335Y-47324766D01*
X93610234Y-47239810D01*
X93395327Y-47197062D01*
X90693597Y-44495332D01*
X90666133Y-44461867D01*
X90532592Y-44352273D01*
X90380237Y-44270838D01*
X90214922Y-44220690D01*
X90086079Y-44208000D01*
X90043000Y-44203757D01*
X89999921Y-44208000D01*
X80561076Y-44208000D01*
X80517999Y-44203757D01*
X80474922Y-44208000D01*
X80474921Y-44208000D01*
X80346078Y-44220690D01*
X80180763Y-44270838D01*
X80028408Y-44352273D01*
X80028406Y-44352274D01*
X80028407Y-44352274D01*
X79946348Y-44419618D01*
X79894867Y-44461867D01*
X79867408Y-44495326D01*
X78785327Y-45577408D01*
X78751868Y-45604867D01*
X78724409Y-45638326D01*
X78724406Y-45638329D01*
X78642274Y-45738408D01*
X78560838Y-45890764D01*
X78510690Y-46056078D01*
X78493757Y-46228000D01*
X77968000Y-46228000D01*
X77968000Y-41798400D01*
X95691801Y-41798400D01*
X95691800Y-44235262D01*
X95691800Y-44819462D01*
X95688162Y-44856400D01*
X95702681Y-45003818D01*
X95745682Y-45145570D01*
X95815510Y-45276210D01*
X95909483Y-45390717D01*
X96023990Y-45484690D01*
X96154630Y-45554518D01*
X96296382Y-45597519D01*
X96406862Y-45608400D01*
X96443800Y-45612038D01*
X96480738Y-45608400D01*
X129807862Y-45608400D01*
X129844800Y-45612038D01*
X129881738Y-45608400D01*
X129992218Y-45597519D01*
X130133970Y-45554518D01*
X130264610Y-45484690D01*
X130379117Y-45390717D01*
X130473090Y-45276210D01*
X130542918Y-45145570D01*
X130585919Y-45003818D01*
X130600438Y-44856400D01*
X130596800Y-44819462D01*
X130596800Y-41773000D01*
X149136001Y-41773000D01*
X149136000Y-113351735D01*
X149136000Y-113351735D01*
G37*
X149136000Y-113351735D02*
X147049438Y-111265173D01*
X147006690Y-111050266D01*
X146921734Y-110845165D01*
X146798398Y-110660579D01*
X146641421Y-110503602D01*
X146456835Y-110380266D01*
X146251734Y-110295310D01*
X146034000Y-110252000D01*
X145812000Y-110252000D01*
X145594266Y-110295310D01*
X145389165Y-110380266D01*
X145204579Y-110503602D01*
X145047602Y-110660579D01*
X144924266Y-110845165D01*
X144839310Y-111050266D01*
X144796000Y-111268000D01*
X144796000Y-111490000D01*
X144839310Y-111707734D01*
X144924266Y-111912835D01*
X145047602Y-112097421D01*
X145204579Y-112254398D01*
X145389165Y-112377734D01*
X145594266Y-112462690D01*
X145809173Y-112505438D01*
X148245501Y-114941766D01*
X148245502Y-121886683D01*
X148101921Y-121743102D01*
X147917335Y-121619766D01*
X147712234Y-121534810D01*
X147494500Y-121491500D01*
X147489794Y-121491500D01*
X147428592Y-121441273D01*
X147276237Y-121359838D01*
X147110922Y-121309690D01*
X146939000Y-121292757D01*
X146895921Y-121297000D01*
X140162023Y-121297000D01*
X140045134Y-121218897D01*
X140233835Y-121140734D01*
X140418421Y-121017398D01*
X140575398Y-120860421D01*
X140698734Y-120675835D01*
X140783690Y-120470734D01*
X140827000Y-120253000D01*
X140827000Y-120031000D01*
X140783690Y-119813266D01*
X140698734Y-119608165D01*
X140575398Y-119423579D01*
X140418421Y-119266602D01*
X140233835Y-119143266D01*
X140028734Y-119058310D01*
X139811000Y-119015000D01*
X139589000Y-119015000D01*
X139371266Y-119058310D01*
X139166165Y-119143266D01*
X138981579Y-119266602D01*
X138824602Y-119423579D01*
X138701266Y-119608165D01*
X138659291Y-119709500D01*
X130480965Y-119709500D01*
X130560190Y-119518234D01*
X130603500Y-119300500D01*
X130603500Y-119078500D01*
X130560190Y-118860766D01*
X130475234Y-118655665D01*
X130351898Y-118471079D01*
X130194921Y-118314102D01*
X130010335Y-118190766D01*
X129805234Y-118105810D01*
X129587500Y-118062500D01*
X129365500Y-118062500D01*
X129147766Y-118105810D01*
X128942665Y-118190766D01*
X128797159Y-118287990D01*
X127882013Y-118287990D01*
X127699825Y-118166256D01*
X127494724Y-118081300D01*
X127276990Y-118037990D01*
X127054990Y-118037990D01*
X126837256Y-118081300D01*
X126632155Y-118166256D01*
X126447569Y-118289592D01*
X126290592Y-118446569D01*
X126167256Y-118631155D01*
X126082300Y-118836256D01*
X126038990Y-119053990D01*
X126038990Y-119275990D01*
X126082300Y-119493724D01*
X126167256Y-119698825D01*
X126174389Y-119709500D01*
X125831582Y-119709500D01*
X125801699Y-119559266D01*
X125716743Y-119354165D01*
X125593407Y-119169579D01*
X125436430Y-119012602D01*
X125251844Y-118889266D01*
X125046743Y-118804310D01*
X124829009Y-118761000D01*
X124607009Y-118761000D01*
X124389275Y-118804310D01*
X124184174Y-118889266D01*
X123999588Y-119012602D01*
X123842611Y-119169579D01*
X123719275Y-119354165D01*
X123634319Y-119559266D01*
X123591009Y-119777000D01*
X123591009Y-119999000D01*
X123634319Y-120216734D01*
X123719275Y-120421835D01*
X123842611Y-120606421D01*
X123999588Y-120763398D01*
X124184174Y-120886734D01*
X124389275Y-120971690D01*
X124604182Y-121014438D01*
X124765912Y-121176168D01*
X124793376Y-121209633D01*
X124926917Y-121319227D01*
X125079272Y-121400662D01*
X125244587Y-121450810D01*
X125373430Y-121463500D01*
X125373431Y-121463500D01*
X125416508Y-121467743D01*
X125459585Y-121463500D01*
X138565309Y-121463500D01*
X138447266Y-121640165D01*
X138362310Y-121845266D01*
X138319000Y-122063000D01*
X138319000Y-122285000D01*
X138362310Y-122502734D01*
X138362627Y-122503500D01*
X129582023Y-122503500D01*
X129399835Y-122381766D01*
X129194734Y-122296810D01*
X128977000Y-122253500D01*
X128755000Y-122253500D01*
X128537266Y-122296810D01*
X128332165Y-122381766D01*
X128147579Y-122505102D01*
X127990602Y-122662079D01*
X127867266Y-122846665D01*
X127782310Y-123051766D01*
X127739000Y-123269500D01*
X127739000Y-123491500D01*
X127782310Y-123709234D01*
X127867266Y-123914335D01*
X127990602Y-124098921D01*
X128147579Y-124255898D01*
X128332165Y-124379234D01*
X128537266Y-124464190D01*
X128755000Y-124507500D01*
X128977000Y-124507500D01*
X129194734Y-124464190D01*
X129399835Y-124379234D01*
X129582023Y-124257500D01*
X146524233Y-124257500D01*
X146808401Y-124541668D01*
X146835865Y-124575133D01*
X146969406Y-124684727D01*
X147121761Y-124766162D01*
X147287075Y-124816310D01*
X147458997Y-124833243D01*
X147502077Y-124829000D01*
X147556477Y-124829000D01*
X147738665Y-124950734D01*
X147943766Y-125035690D01*
X148027408Y-125052327D01*
X145745673Y-127334062D01*
X145530766Y-127376810D01*
X145325665Y-127461766D01*
X145141079Y-127585102D01*
X144984102Y-127742079D01*
X144860766Y-127926665D01*
X144775810Y-128131766D01*
X144732500Y-128349500D01*
X144732500Y-128571500D01*
X144775810Y-128789234D01*
X144860766Y-128994335D01*
X144984102Y-129178921D01*
X145141079Y-129335898D01*
X145325665Y-129459234D01*
X145530766Y-129544190D01*
X145748500Y-129587500D01*
X145970500Y-129587500D01*
X146188234Y-129544190D01*
X146393335Y-129459234D01*
X146577921Y-129335898D01*
X146734898Y-129178921D01*
X146858234Y-128994335D01*
X146943190Y-128789234D01*
X146985938Y-128574327D01*
X149136000Y-126424265D01*
X149136000Y-127984181D01*
X149117921Y-127966102D01*
X148933335Y-127842766D01*
X148728234Y-127757810D01*
X148510500Y-127714500D01*
X148288500Y-127714500D01*
X148070766Y-127757810D01*
X147865665Y-127842766D01*
X147681079Y-127966102D01*
X147524102Y-128123079D01*
X147400766Y-128307665D01*
X147315810Y-128512766D01*
X147273062Y-128727673D01*
X146067735Y-129933000D01*
X130256025Y-129933000D01*
X130073837Y-129811266D01*
X129868736Y-129726310D01*
X129651002Y-129683000D01*
X129429002Y-129683000D01*
X129211268Y-129726310D01*
X129006167Y-129811266D01*
X128821581Y-129934602D01*
X128664604Y-130091579D01*
X128541268Y-130276165D01*
X128456312Y-130481266D01*
X128413002Y-130699000D01*
X128413002Y-130921000D01*
X128456312Y-131138734D01*
X128541268Y-131343835D01*
X128664604Y-131528421D01*
X128821581Y-131685398D01*
X129006167Y-131808734D01*
X129211268Y-131893690D01*
X129429002Y-131937000D01*
X129651002Y-131937000D01*
X129868736Y-131893690D01*
X130073837Y-131808734D01*
X130256025Y-131687000D01*
X146387921Y-131687000D01*
X146431000Y-131691243D01*
X146474079Y-131687000D01*
X146490345Y-131685398D01*
X146602922Y-131674310D01*
X146768237Y-131624162D01*
X146920592Y-131542727D01*
X147054133Y-131433133D01*
X147081597Y-131399668D01*
X148513327Y-129967938D01*
X148728234Y-129925190D01*
X148933335Y-129840234D01*
X149117921Y-129716898D01*
X149136000Y-129698819D01*
X149136000Y-137248000D01*
X132116938Y-137248000D01*
X132080000Y-137244362D01*
X132043062Y-137248000D01*
X131932582Y-137258881D01*
X131790830Y-137301882D01*
X131660190Y-137371710D01*
X131545683Y-137465683D01*
X131451710Y-137580190D01*
X131381882Y-137710830D01*
X131338881Y-137852582D01*
X131324362Y-138000000D01*
X131328000Y-138036937D01*
X131328001Y-147344000D01*
X77968000Y-147344000D01*
X77968000Y-142410000D01*
X80907483Y-142410000D01*
X80907483Y-144610000D01*
X80921520Y-144752517D01*
X80963090Y-144889557D01*
X81030597Y-145015853D01*
X81121446Y-145126554D01*
X81232147Y-145217403D01*
X81358443Y-145284910D01*
X81495483Y-145326480D01*
X81638000Y-145340517D01*
X83838000Y-145340517D01*
X83980517Y-145326480D01*
X84117557Y-145284910D01*
X84243853Y-145217403D01*
X84354554Y-145126554D01*
X84445403Y-145015853D01*
X84512910Y-144889557D01*
X84554480Y-144752517D01*
X84554496Y-144752349D01*
X86755256Y-144752349D01*
X86869118Y-145032090D01*
X87184296Y-145187961D01*
X87523826Y-145279349D01*
X87874661Y-145302741D01*
X88223319Y-145257240D01*
X88556400Y-145144594D01*
X88766882Y-145032090D01*
X88880744Y-144752349D01*
X87818000Y-143689605D01*
X86755256Y-144752349D01*
X84554496Y-144752349D01*
X84568517Y-144610000D01*
X84568517Y-143566661D01*
X86025259Y-143566661D01*
X86070760Y-143915319D01*
X86183406Y-144248400D01*
X86295910Y-144458882D01*
X86575651Y-144572744D01*
X87638395Y-143510000D01*
X87997605Y-143510000D01*
X89060349Y-144572744D01*
X89340090Y-144458882D01*
X89495961Y-144143704D01*
X89587349Y-143804174D01*
X89610741Y-143453339D01*
X89565240Y-143104681D01*
X89452594Y-142771600D01*
X89340090Y-142561118D01*
X89060349Y-142447256D01*
X87997605Y-143510000D01*
X87638395Y-143510000D01*
X86575651Y-142447256D01*
X86295910Y-142561118D01*
X86140039Y-142876296D01*
X86048651Y-143215826D01*
X86025259Y-143566661D01*
X84568517Y-143566661D01*
X84568517Y-142410000D01*
X84554497Y-142267651D01*
X86755256Y-142267651D01*
X87818000Y-143330395D01*
X88880744Y-142267651D01*
X88766882Y-141987910D01*
X88451704Y-141832039D01*
X88112174Y-141740651D01*
X87761339Y-141717259D01*
X87412681Y-141762760D01*
X87079600Y-141875406D01*
X86869118Y-141987910D01*
X86755256Y-142267651D01*
X84554497Y-142267651D01*
X84554480Y-142267483D01*
X84512910Y-142130443D01*
X84445403Y-142004147D01*
X84354554Y-141893446D01*
X84243853Y-141802597D01*
X84117557Y-141735090D01*
X83980517Y-141693520D01*
X83838000Y-141679483D01*
X81638000Y-141679483D01*
X81495483Y-141693520D01*
X81358443Y-141735090D01*
X81232147Y-141802597D01*
X81121446Y-141893446D01*
X81030597Y-142004147D01*
X80963090Y-142130443D01*
X80921520Y-142267483D01*
X80907483Y-142410000D01*
X77968000Y-142410000D01*
X77968000Y-136096500D01*
X108791500Y-136096500D01*
X108791500Y-136318500D01*
X108834810Y-136536234D01*
X108919766Y-136741335D01*
X109043102Y-136925921D01*
X109200079Y-137082898D01*
X109384665Y-137206234D01*
X109589766Y-137291190D01*
X109807500Y-137334500D01*
X110029500Y-137334500D01*
X110247234Y-137291190D01*
X110452335Y-137206234D01*
X110636921Y-137082898D01*
X110793898Y-136925921D01*
X110917234Y-136741335D01*
X111002190Y-136536234D01*
X111045500Y-136318500D01*
X111045500Y-136096500D01*
X111331500Y-136096500D01*
X111331500Y-136318500D01*
X111374810Y-136536234D01*
X111459766Y-136741335D01*
X111583102Y-136925921D01*
X111740079Y-137082898D01*
X111924665Y-137206234D01*
X112129766Y-137291190D01*
X112347500Y-137334500D01*
X112569500Y-137334500D01*
X112787234Y-137291190D01*
X112992335Y-137206234D01*
X113176921Y-137082898D01*
X113333898Y-136925921D01*
X113457234Y-136741335D01*
X113542190Y-136536234D01*
X113585500Y-136318500D01*
X113585500Y-136096500D01*
X113871500Y-136096500D01*
X113871500Y-136318500D01*
X113914810Y-136536234D01*
X113999766Y-136741335D01*
X114123102Y-136925921D01*
X114280079Y-137082898D01*
X114464665Y-137206234D01*
X114669766Y-137291190D01*
X114887500Y-137334500D01*
X115109500Y-137334500D01*
X115327234Y-137291190D01*
X115532335Y-137206234D01*
X115716921Y-137082898D01*
X115873898Y-136925921D01*
X115997234Y-136741335D01*
X116082190Y-136536234D01*
X116125500Y-136318500D01*
X116125500Y-136096500D01*
X116082190Y-135878766D01*
X115997234Y-135673665D01*
X115873898Y-135489079D01*
X115716921Y-135332102D01*
X115532335Y-135208766D01*
X115327234Y-135123810D01*
X115109500Y-135080500D01*
X114887500Y-135080500D01*
X114669766Y-135123810D01*
X114464665Y-135208766D01*
X114280079Y-135332102D01*
X114123102Y-135489079D01*
X113999766Y-135673665D01*
X113914810Y-135878766D01*
X113871500Y-136096500D01*
X113585500Y-136096500D01*
X113542190Y-135878766D01*
X113457234Y-135673665D01*
X113333898Y-135489079D01*
X113176921Y-135332102D01*
X112992335Y-135208766D01*
X112787234Y-135123810D01*
X112569500Y-135080500D01*
X112347500Y-135080500D01*
X112129766Y-135123810D01*
X111924665Y-135208766D01*
X111740079Y-135332102D01*
X111583102Y-135489079D01*
X111459766Y-135673665D01*
X111374810Y-135878766D01*
X111331500Y-136096500D01*
X111045500Y-136096500D01*
X111002190Y-135878766D01*
X110917234Y-135673665D01*
X110793898Y-135489079D01*
X110636921Y-135332102D01*
X110452335Y-135208766D01*
X110247234Y-135123810D01*
X110029500Y-135080500D01*
X109807500Y-135080500D01*
X109589766Y-135123810D01*
X109384665Y-135208766D01*
X109200079Y-135332102D01*
X109043102Y-135489079D01*
X108919766Y-135673665D01*
X108834810Y-135878766D01*
X108791500Y-136096500D01*
X77968000Y-136096500D01*
X77968000Y-133556500D01*
X108791500Y-133556500D01*
X108791500Y-133778500D01*
X108834810Y-133996234D01*
X108919766Y-134201335D01*
X109043102Y-134385921D01*
X109200079Y-134542898D01*
X109384665Y-134666234D01*
X109589766Y-134751190D01*
X109807500Y-134794500D01*
X110029500Y-134794500D01*
X110247234Y-134751190D01*
X110452335Y-134666234D01*
X110636921Y-134542898D01*
X110793898Y-134385921D01*
X110917234Y-134201335D01*
X111002190Y-133996234D01*
X111045500Y-133778500D01*
X111045500Y-133556500D01*
X111331500Y-133556500D01*
X111331500Y-133778500D01*
X111374810Y-133996234D01*
X111459766Y-134201335D01*
X111583102Y-134385921D01*
X111740079Y-134542898D01*
X111924665Y-134666234D01*
X112129766Y-134751190D01*
X112347500Y-134794500D01*
X112569500Y-134794500D01*
X112787234Y-134751190D01*
X112992335Y-134666234D01*
X113176921Y-134542898D01*
X113333898Y-134385921D01*
X113457234Y-134201335D01*
X113542190Y-133996234D01*
X113585500Y-133778500D01*
X113585500Y-133556500D01*
X113871500Y-133556500D01*
X113871500Y-133778500D01*
X113914810Y-133996234D01*
X113999766Y-134201335D01*
X114123102Y-134385921D01*
X114280079Y-134542898D01*
X114464665Y-134666234D01*
X114669766Y-134751190D01*
X114887500Y-134794500D01*
X115109500Y-134794500D01*
X115327234Y-134751190D01*
X115532335Y-134666234D01*
X115716921Y-134542898D01*
X115873898Y-134385921D01*
X115997234Y-134201335D01*
X116082190Y-133996234D01*
X116125500Y-133778500D01*
X116125500Y-133556500D01*
X116082190Y-133338766D01*
X115997234Y-133133665D01*
X115873898Y-132949079D01*
X115716921Y-132792102D01*
X115532335Y-132668766D01*
X115327234Y-132583810D01*
X115109500Y-132540500D01*
X114887500Y-132540500D01*
X114669766Y-132583810D01*
X114464665Y-132668766D01*
X114280079Y-132792102D01*
X114123102Y-132949079D01*
X113999766Y-133133665D01*
X113914810Y-133338766D01*
X113871500Y-133556500D01*
X113585500Y-133556500D01*
X113542190Y-133338766D01*
X113457234Y-133133665D01*
X113333898Y-132949079D01*
X113176921Y-132792102D01*
X112992335Y-132668766D01*
X112787234Y-132583810D01*
X112569500Y-132540500D01*
X112347500Y-132540500D01*
X112129766Y-132583810D01*
X111924665Y-132668766D01*
X111740079Y-132792102D01*
X111583102Y-132949079D01*
X111459766Y-133133665D01*
X111374810Y-133338766D01*
X111331500Y-133556500D01*
X111045500Y-133556500D01*
X111002190Y-133338766D01*
X110917234Y-133133665D01*
X110793898Y-132949079D01*
X110636921Y-132792102D01*
X110452335Y-132668766D01*
X110247234Y-132583810D01*
X110029500Y-132540500D01*
X109807500Y-132540500D01*
X109589766Y-132583810D01*
X109384665Y-132668766D01*
X109200079Y-132792102D01*
X109043102Y-132949079D01*
X108919766Y-133133665D01*
X108834810Y-133338766D01*
X108791500Y-133556500D01*
X77968000Y-133556500D01*
X77968000Y-130111500D01*
X85889065Y-130111500D01*
X85912755Y-130352033D01*
X85982917Y-130583324D01*
X86096852Y-130796482D01*
X86250183Y-130983317D01*
X86437018Y-131136648D01*
X86650176Y-131250583D01*
X86881467Y-131320745D01*
X87122000Y-131344435D01*
X87362533Y-131320745D01*
X87593824Y-131250583D01*
X87806982Y-131136648D01*
X87947004Y-131021735D01*
X87952239Y-131016500D01*
X108791500Y-131016500D01*
X108791500Y-131238500D01*
X108834810Y-131456234D01*
X108919766Y-131661335D01*
X109043102Y-131845921D01*
X109200079Y-132002898D01*
X109384665Y-132126234D01*
X109589766Y-132211190D01*
X109807500Y-132254500D01*
X110029500Y-132254500D01*
X110247234Y-132211190D01*
X110452335Y-132126234D01*
X110636921Y-132002898D01*
X110793898Y-131845921D01*
X110917234Y-131661335D01*
X111002190Y-131456234D01*
X111045500Y-131238500D01*
X111045500Y-131016500D01*
X111331500Y-131016500D01*
X111331500Y-131238500D01*
X111374810Y-131456234D01*
X111459766Y-131661335D01*
X111583102Y-131845921D01*
X111740079Y-132002898D01*
X111924665Y-132126234D01*
X112129766Y-132211190D01*
X112347500Y-132254500D01*
X112569500Y-132254500D01*
X112787234Y-132211190D01*
X112992335Y-132126234D01*
X113176921Y-132002898D01*
X113333898Y-131845921D01*
X113457234Y-131661335D01*
X113542190Y-131456234D01*
X113585500Y-131238500D01*
X113585500Y-131016500D01*
X113871500Y-131016500D01*
X113871500Y-131238500D01*
X113914810Y-131456234D01*
X113999766Y-131661335D01*
X114123102Y-131845921D01*
X114280079Y-132002898D01*
X114464665Y-132126234D01*
X114669766Y-132211190D01*
X114887500Y-132254500D01*
X115109500Y-132254500D01*
X115327234Y-132211190D01*
X115532335Y-132126234D01*
X115716921Y-132002898D01*
X115873898Y-131845921D01*
X115997234Y-131661335D01*
X116082190Y-131456234D01*
X116125500Y-131238500D01*
X116125500Y-131016500D01*
X116082190Y-130798766D01*
X115997234Y-130593665D01*
X115873898Y-130409079D01*
X115716921Y-130252102D01*
X115532335Y-130128766D01*
X115327234Y-130043810D01*
X115109500Y-130000500D01*
X114887500Y-130000500D01*
X114669766Y-130043810D01*
X114464665Y-130128766D01*
X114280079Y-130252102D01*
X114123102Y-130409079D01*
X113999766Y-130593665D01*
X113914810Y-130798766D01*
X113871500Y-131016500D01*
X113585500Y-131016500D01*
X113542190Y-130798766D01*
X113457234Y-130593665D01*
X113333898Y-130409079D01*
X113176921Y-130252102D01*
X112992335Y-130128766D01*
X112787234Y-130043810D01*
X112569500Y-130000500D01*
X112347500Y-130000500D01*
X112129766Y-130043810D01*
X111924665Y-130128766D01*
X111740079Y-130252102D01*
X111583102Y-130409079D01*
X111459766Y-130593665D01*
X111374810Y-130798766D01*
X111331500Y-131016500D01*
X111045500Y-131016500D01*
X111002190Y-130798766D01*
X110917234Y-130593665D01*
X110793898Y-130409079D01*
X110636921Y-130252102D01*
X110452335Y-130128766D01*
X110247234Y-130043810D01*
X110029500Y-130000500D01*
X109807500Y-130000500D01*
X109589766Y-130043810D01*
X109384665Y-130128766D01*
X109200079Y-130252102D01*
X109043102Y-130409079D01*
X108919766Y-130593665D01*
X108834810Y-130798766D01*
X108791500Y-131016500D01*
X87952239Y-131016500D01*
X89407505Y-129561235D01*
X89454317Y-129522817D01*
X89607649Y-129335983D01*
X89710800Y-129143000D01*
X89721584Y-129122825D01*
X89791745Y-128891534D01*
X89800983Y-128797736D01*
X89809500Y-128711268D01*
X89809500Y-128711260D01*
X89815435Y-128651000D01*
X89809500Y-128590740D01*
X89809500Y-126190500D01*
X119332500Y-126190500D01*
X119332500Y-126412500D01*
X119375810Y-126630234D01*
X119460766Y-126835335D01*
X119584102Y-127019921D01*
X119741079Y-127176898D01*
X119925665Y-127300234D01*
X120130766Y-127385190D01*
X120348500Y-127428500D01*
X120570500Y-127428500D01*
X120788234Y-127385190D01*
X120993335Y-127300234D01*
X121175523Y-127178500D01*
X125735681Y-127178500D01*
X125616602Y-127297579D01*
X125493266Y-127482165D01*
X125408310Y-127687266D01*
X125365000Y-127905000D01*
X125365000Y-128127000D01*
X125408310Y-128344734D01*
X125493266Y-128549835D01*
X125616602Y-128734421D01*
X125773579Y-128891398D01*
X125958165Y-129014734D01*
X126163266Y-129099690D01*
X126381000Y-129143000D01*
X126463541Y-129143000D01*
X126472263Y-129147662D01*
X126546673Y-129170234D01*
X126637577Y-129197810D01*
X126809500Y-129214743D01*
X126852579Y-129210500D01*
X139402921Y-129210500D01*
X139446000Y-129214743D01*
X139489079Y-129210500D01*
X139617922Y-129197810D01*
X139783237Y-129147662D01*
X139935592Y-129066227D01*
X140069133Y-128956633D01*
X140096597Y-128923168D01*
X140194827Y-128824938D01*
X140409734Y-128782190D01*
X140614835Y-128697234D01*
X140799421Y-128573898D01*
X140956398Y-128416921D01*
X141079734Y-128232335D01*
X141164690Y-128027234D01*
X141208000Y-127809500D01*
X141208000Y-127587500D01*
X141164690Y-127369766D01*
X141085465Y-127178500D01*
X143022421Y-127178500D01*
X143065500Y-127182743D01*
X143108579Y-127178500D01*
X143124845Y-127176898D01*
X143237422Y-127165810D01*
X143320521Y-127140602D01*
X143402737Y-127115662D01*
X143411459Y-127111000D01*
X143494000Y-127111000D01*
X143711734Y-127067690D01*
X143916835Y-126982734D01*
X144101421Y-126859398D01*
X144258398Y-126702421D01*
X144381734Y-126517835D01*
X144466690Y-126312734D01*
X144510000Y-126095000D01*
X144510000Y-125873000D01*
X144466690Y-125655266D01*
X144381734Y-125450165D01*
X144258398Y-125265579D01*
X144101421Y-125108602D01*
X143916835Y-124985266D01*
X143711734Y-124900310D01*
X143494000Y-124857000D01*
X143272000Y-124857000D01*
X143054266Y-124900310D01*
X142849165Y-124985266D01*
X142664579Y-125108602D01*
X142507602Y-125265579D01*
X142401415Y-125424500D01*
X121175523Y-125424500D01*
X120993335Y-125302766D01*
X120788234Y-125217810D01*
X120570500Y-125174500D01*
X120348500Y-125174500D01*
X120130766Y-125217810D01*
X119925665Y-125302766D01*
X119741079Y-125426102D01*
X119584102Y-125583079D01*
X119460766Y-125767665D01*
X119375810Y-125972766D01*
X119332500Y-126190500D01*
X89809500Y-126190500D01*
X89809500Y-120734000D01*
X105921240Y-120734000D01*
X105981500Y-120739935D01*
X106041760Y-120734000D01*
X106041768Y-120734000D01*
X106222034Y-120716245D01*
X106453324Y-120646084D01*
X106666483Y-120532149D01*
X106853317Y-120378817D01*
X106891739Y-120332000D01*
X108955485Y-118268255D01*
X108955489Y-118268250D01*
X110161986Y-117061754D01*
X110161990Y-117061749D01*
X112712740Y-114511000D01*
X114524985Y-114511000D01*
X114557446Y-114550554D01*
X114668147Y-114641403D01*
X114794443Y-114708910D01*
X114837297Y-114721909D01*
X114676739Y-114882467D01*
X114515099Y-115124378D01*
X114403760Y-115393175D01*
X114347000Y-115678528D01*
X114347000Y-115969472D01*
X114403760Y-116254825D01*
X114515099Y-116523622D01*
X114676739Y-116765533D01*
X114882467Y-116971261D01*
X115066159Y-117094000D01*
X114882467Y-117216739D01*
X114676739Y-117422467D01*
X114515099Y-117664378D01*
X114403760Y-117933175D01*
X114347000Y-118218528D01*
X114347000Y-118509472D01*
X114403760Y-118794825D01*
X114515099Y-119063622D01*
X114676739Y-119305533D01*
X114882467Y-119511261D01*
X115124378Y-119672901D01*
X115393175Y-119784240D01*
X115678528Y-119841000D01*
X115969472Y-119841000D01*
X116254825Y-119784240D01*
X116523622Y-119672901D01*
X116765533Y-119511261D01*
X116971261Y-119305533D01*
X117132901Y-119063622D01*
X117244240Y-118794825D01*
X117301000Y-118509472D01*
X117301000Y-118218528D01*
X117244240Y-117933175D01*
X117132901Y-117664378D01*
X116971261Y-117422467D01*
X116765533Y-117216739D01*
X116581841Y-117094000D01*
X116765533Y-116971261D01*
X116971261Y-116765533D01*
X117132901Y-116523622D01*
X117244240Y-116254825D01*
X117301000Y-115969472D01*
X117301000Y-115678528D01*
X117244240Y-115393175D01*
X117132901Y-115124378D01*
X116971261Y-114882467D01*
X116810703Y-114721909D01*
X116853557Y-114708910D01*
X116979853Y-114641403D01*
X117090554Y-114550554D01*
X117181403Y-114439853D01*
X117248910Y-114313557D01*
X117290480Y-114176517D01*
X117304517Y-114034000D01*
X117304517Y-112534000D01*
X117290480Y-112391483D01*
X117248910Y-112254443D01*
X117181403Y-112128147D01*
X117090554Y-112017446D01*
X116979853Y-111926597D01*
X116853557Y-111859090D01*
X116716517Y-111817520D01*
X116574000Y-111803483D01*
X115074000Y-111803483D01*
X114931483Y-111817520D01*
X114794443Y-111859090D01*
X114668147Y-111926597D01*
X114557446Y-112017446D01*
X114524985Y-112057000D01*
X112264759Y-112057000D01*
X112204499Y-112051065D01*
X112144239Y-112057000D01*
X112144232Y-112057000D01*
X111963966Y-112074755D01*
X111732676Y-112144916D01*
X111519517Y-112258851D01*
X111332683Y-112412183D01*
X111294265Y-112458995D01*
X108426751Y-115326510D01*
X108426746Y-115326514D01*
X107220250Y-116533011D01*
X107220245Y-116533015D01*
X105473261Y-118280000D01*
X89090740Y-118280000D01*
X88010504Y-117199765D01*
X87870482Y-117084852D01*
X87657324Y-116970917D01*
X87426033Y-116900755D01*
X87185500Y-116877065D01*
X86944967Y-116900755D01*
X86713676Y-116970917D01*
X86500518Y-117084852D01*
X86313683Y-117238183D01*
X86160352Y-117425018D01*
X86046417Y-117638176D01*
X85976255Y-117869467D01*
X85952565Y-118110000D01*
X85976255Y-118350533D01*
X86046417Y-118581824D01*
X86160352Y-118794982D01*
X86275265Y-118935004D01*
X87355500Y-120015240D01*
X87355501Y-128142759D01*
X86211765Y-129286496D01*
X86096852Y-129426518D01*
X85982917Y-129639676D01*
X85912755Y-129870967D01*
X85889065Y-130111500D01*
X77968000Y-130111500D01*
X77968000Y-122435001D01*
X78286990Y-122435001D01*
X78286990Y-122657001D01*
X78330300Y-122874735D01*
X78415256Y-123079836D01*
X78538592Y-123264422D01*
X78695569Y-123421399D01*
X78880155Y-123544735D01*
X79085256Y-123629691D01*
X79302990Y-123673001D01*
X79524990Y-123673001D01*
X79742724Y-123629691D01*
X79947825Y-123544735D01*
X80130013Y-123423001D01*
X82459182Y-123423001D01*
X82530079Y-123493898D01*
X82714665Y-123617234D01*
X82919766Y-123702190D01*
X83137500Y-123745500D01*
X83359500Y-123745500D01*
X83577234Y-123702190D01*
X83782335Y-123617234D01*
X83966921Y-123493898D01*
X84123898Y-123336921D01*
X84247234Y-123152335D01*
X84332190Y-122947234D01*
X84375500Y-122729500D01*
X84375500Y-122507500D01*
X84332190Y-122289766D01*
X84247234Y-122084665D01*
X84123898Y-121900079D01*
X83966921Y-121743102D01*
X83782335Y-121619766D01*
X83577234Y-121534810D01*
X83359500Y-121491500D01*
X83137500Y-121491500D01*
X82919766Y-121534810D01*
X82714665Y-121619766D01*
X82640979Y-121669001D01*
X80130013Y-121669001D01*
X79947825Y-121547267D01*
X79742724Y-121462311D01*
X79524990Y-121419001D01*
X79302990Y-121419001D01*
X79085256Y-121462311D01*
X78880155Y-121547267D01*
X78695569Y-121670603D01*
X78538592Y-121827580D01*
X78415256Y-122012166D01*
X78330300Y-122217267D01*
X78286990Y-122435001D01*
X77968000Y-122435001D01*
X77968000Y-119269000D01*
X78311504Y-119269000D01*
X78311504Y-119491000D01*
X78354814Y-119708734D01*
X78439770Y-119913835D01*
X78563106Y-120098421D01*
X78720083Y-120255398D01*
X78904669Y-120378734D01*
X79109770Y-120463690D01*
X79327504Y-120507000D01*
X79549504Y-120507000D01*
X79767238Y-120463690D01*
X79972339Y-120378734D01*
X80154486Y-120257028D01*
X81579977Y-120257028D01*
X81762165Y-120378762D01*
X81967266Y-120463718D01*
X82185000Y-120507028D01*
X82407000Y-120507028D01*
X82624734Y-120463718D01*
X82829835Y-120378762D01*
X83014421Y-120255426D01*
X83171398Y-120098449D01*
X83294734Y-119913863D01*
X83379690Y-119708762D01*
X83423000Y-119491028D01*
X83423000Y-119269028D01*
X83379690Y-119051294D01*
X83294734Y-118846193D01*
X83171398Y-118661607D01*
X83014421Y-118504630D01*
X82829835Y-118381294D01*
X82624734Y-118296338D01*
X82407000Y-118253028D01*
X82185000Y-118253028D01*
X81967266Y-118296338D01*
X81762165Y-118381294D01*
X81579977Y-118503028D01*
X80154569Y-118503028D01*
X79972339Y-118381266D01*
X79767238Y-118296310D01*
X79549504Y-118253000D01*
X79327504Y-118253000D01*
X79109770Y-118296310D01*
X78904669Y-118381266D01*
X78720083Y-118504602D01*
X78563106Y-118661579D01*
X78439770Y-118846165D01*
X78354814Y-119051266D01*
X78311504Y-119269000D01*
X77968000Y-119269000D01*
X77968000Y-99568000D01*
X93269370Y-99568000D01*
X93299818Y-99877146D01*
X93389993Y-100174412D01*
X93536428Y-100448373D01*
X93670604Y-100611868D01*
X93598147Y-100650597D01*
X93487446Y-100741446D01*
X93396597Y-100852147D01*
X93329090Y-100978443D01*
X93287520Y-101115483D01*
X93273483Y-101258000D01*
X93273483Y-102958000D01*
X93287520Y-103100517D01*
X93329090Y-103237557D01*
X93396597Y-103363853D01*
X93487446Y-103474554D01*
X93598147Y-103565403D01*
X93724443Y-103632910D01*
X93861483Y-103674480D01*
X94004000Y-103688517D01*
X95704000Y-103688517D01*
X95846517Y-103674480D01*
X95983557Y-103632910D01*
X96109853Y-103565403D01*
X96220554Y-103474554D01*
X96311403Y-103363853D01*
X96378910Y-103237557D01*
X96420480Y-103100517D01*
X96434517Y-102958000D01*
X96434517Y-101484782D01*
X96631403Y-101681668D01*
X96658867Y-101715133D01*
X96792408Y-101824727D01*
X96944763Y-101906162D01*
X97110078Y-101956310D01*
X97238921Y-101969000D01*
X97238930Y-101969000D01*
X97281999Y-101973242D01*
X97325069Y-101969000D01*
X99497734Y-101969000D01*
X95196806Y-106269928D01*
X95193146Y-106268818D01*
X94961469Y-106246000D01*
X94806531Y-106246000D01*
X94574854Y-106268818D01*
X94277588Y-106358993D01*
X94003627Y-106505428D01*
X93763497Y-106702497D01*
X93566428Y-106942627D01*
X93419993Y-107216588D01*
X93329818Y-107513854D01*
X93299370Y-107823000D01*
X93329818Y-108132146D01*
X93419993Y-108429412D01*
X93566428Y-108703373D01*
X93700604Y-108866868D01*
X93628147Y-108905597D01*
X93517446Y-108996446D01*
X93426597Y-109107147D01*
X93359090Y-109233443D01*
X93317520Y-109370483D01*
X93303483Y-109513000D01*
X93303483Y-111213000D01*
X93317520Y-111355517D01*
X93359090Y-111492557D01*
X93426597Y-111618853D01*
X93517446Y-111729554D01*
X93628147Y-111820403D01*
X93754443Y-111887910D01*
X93891483Y-111929480D01*
X94034000Y-111943517D01*
X95734000Y-111943517D01*
X95876517Y-111929480D01*
X96013557Y-111887910D01*
X96139853Y-111820403D01*
X96250554Y-111729554D01*
X96341403Y-111618853D01*
X96408910Y-111492557D01*
X96450480Y-111355517D01*
X96464517Y-111213000D01*
X96464517Y-109513000D01*
X96450480Y-109370483D01*
X96408910Y-109233443D01*
X96341403Y-109107147D01*
X96250554Y-108996446D01*
X96139853Y-108905597D01*
X96067396Y-108866868D01*
X96201572Y-108703373D01*
X96348007Y-108429412D01*
X96438182Y-108132146D01*
X96468630Y-107823000D01*
X96438182Y-107513854D01*
X96437072Y-107510194D01*
X101216266Y-102731000D01*
X114360093Y-102731000D01*
X114357520Y-102739483D01*
X114343483Y-102882000D01*
X114343483Y-104382000D01*
X114357520Y-104524517D01*
X114399090Y-104661557D01*
X114466597Y-104787853D01*
X114557446Y-104898554D01*
X114668147Y-104989403D01*
X114794443Y-105056910D01*
X114837297Y-105069909D01*
X114676739Y-105230467D01*
X114515099Y-105472378D01*
X114403760Y-105741175D01*
X114347000Y-106026528D01*
X114347000Y-106317472D01*
X114403760Y-106602825D01*
X114515099Y-106871622D01*
X114676739Y-107113533D01*
X114882467Y-107319261D01*
X115066159Y-107442000D01*
X114882467Y-107564739D01*
X114676739Y-107770467D01*
X114515099Y-108012378D01*
X114403760Y-108281175D01*
X114347000Y-108566528D01*
X114347000Y-108857472D01*
X114403760Y-109142825D01*
X114515099Y-109411622D01*
X114676739Y-109653533D01*
X114882467Y-109859261D01*
X115124378Y-110020901D01*
X115393175Y-110132240D01*
X115678528Y-110189000D01*
X115969472Y-110189000D01*
X116254825Y-110132240D01*
X116523622Y-110020901D01*
X116765533Y-109859261D01*
X116971261Y-109653533D01*
X117132901Y-109411622D01*
X117244240Y-109142825D01*
X117301000Y-108857472D01*
X117301000Y-108566528D01*
X117244240Y-108281175D01*
X117132901Y-108012378D01*
X116971261Y-107770467D01*
X116765533Y-107564739D01*
X116581841Y-107442000D01*
X116765533Y-107319261D01*
X116971261Y-107113533D01*
X117132901Y-106871622D01*
X117244240Y-106602825D01*
X117301000Y-106317472D01*
X117301000Y-106061000D01*
X117999000Y-106061000D01*
X117999000Y-106283000D01*
X118042310Y-106500734D01*
X118127266Y-106705835D01*
X118250602Y-106890421D01*
X118407579Y-107047398D01*
X118592165Y-107170734D01*
X118797266Y-107255690D01*
X119015000Y-107299000D01*
X119058310Y-107516734D01*
X119143266Y-107721835D01*
X119266602Y-107906421D01*
X119423579Y-108063398D01*
X119527605Y-108132906D01*
X119502810Y-108192766D01*
X119459500Y-108410500D01*
X119459500Y-108632500D01*
X119502810Y-108850234D01*
X119587766Y-109055335D01*
X119711102Y-109239921D01*
X119868079Y-109396898D01*
X120052665Y-109520234D01*
X120257766Y-109605190D01*
X120475500Y-109648500D01*
X120697500Y-109648500D01*
X120915234Y-109605190D01*
X121120335Y-109520234D01*
X121302523Y-109398500D01*
X125413889Y-109398500D01*
X125344818Y-109565252D01*
X125301508Y-109782986D01*
X125301508Y-110004986D01*
X125344818Y-110222720D01*
X125429774Y-110427821D01*
X125553110Y-110612407D01*
X125710087Y-110769384D01*
X125880126Y-110883000D01*
X124414023Y-110883000D01*
X124231835Y-110761266D01*
X124026734Y-110676310D01*
X123809000Y-110633000D01*
X123587000Y-110633000D01*
X123369266Y-110676310D01*
X123164165Y-110761266D01*
X122979579Y-110884602D01*
X122822602Y-111041579D01*
X122699266Y-111226165D01*
X122614310Y-111431266D01*
X122571000Y-111649000D01*
X122571000Y-111790999D01*
X122180276Y-111790999D01*
X122156734Y-111734165D01*
X122033398Y-111549579D01*
X121876421Y-111392602D01*
X121691835Y-111269266D01*
X121486734Y-111184310D01*
X121269000Y-111141000D01*
X121047000Y-111141000D01*
X120829266Y-111184310D01*
X120624165Y-111269266D01*
X120439579Y-111392602D01*
X120282602Y-111549579D01*
X120159266Y-111734165D01*
X120074310Y-111939266D01*
X120031000Y-112157000D01*
X120031000Y-112379000D01*
X120074310Y-112596734D01*
X120159266Y-112801835D01*
X120282602Y-112986421D01*
X120439579Y-113143398D01*
X120624165Y-113266734D01*
X120829266Y-113351690D01*
X121047000Y-113395000D01*
X121061430Y-113395000D01*
X121068407Y-113400726D01*
X121205642Y-113474079D01*
X121220762Y-113482161D01*
X121386076Y-113532309D01*
X121557998Y-113549242D01*
X121601078Y-113544999D01*
X122128160Y-113544999D01*
X122091580Y-113581579D01*
X121968244Y-113766165D01*
X121883288Y-113971266D01*
X121839978Y-114189000D01*
X121839978Y-114411000D01*
X121854589Y-114484455D01*
X121845266Y-114486310D01*
X121640165Y-114571266D01*
X121455579Y-114694602D01*
X121298602Y-114851579D01*
X121175266Y-115036165D01*
X121090310Y-115241266D01*
X121047000Y-115459000D01*
X121047000Y-115681000D01*
X121090310Y-115898734D01*
X121175266Y-116103835D01*
X121298602Y-116288421D01*
X121455579Y-116445398D01*
X121640165Y-116568734D01*
X121845266Y-116653690D01*
X122063000Y-116697000D01*
X122285000Y-116697000D01*
X122502734Y-116653690D01*
X122707835Y-116568734D01*
X122890023Y-116447000D01*
X123592570Y-116447000D01*
X123587000Y-116475000D01*
X123587000Y-116697000D01*
X123630310Y-116914734D01*
X123715266Y-117119835D01*
X123838602Y-117304421D01*
X123995579Y-117461398D01*
X124180165Y-117584734D01*
X124385266Y-117669690D01*
X124603000Y-117713000D01*
X124825000Y-117713000D01*
X125042734Y-117669690D01*
X125247835Y-117584734D01*
X125432421Y-117461398D01*
X125589398Y-117304421D01*
X125653156Y-117209000D01*
X143530421Y-117209000D01*
X143573500Y-117213243D01*
X143616579Y-117209000D01*
X143657192Y-117205000D01*
X143696859Y-117201093D01*
X143716500Y-117205000D01*
X143938500Y-117205000D01*
X144156234Y-117161690D01*
X144361335Y-117076734D01*
X144545921Y-116953398D01*
X144702898Y-116796421D01*
X144826234Y-116611835D01*
X144911190Y-116406734D01*
X144954500Y-116189000D01*
X144954500Y-115967000D01*
X144911190Y-115749266D01*
X144826234Y-115544165D01*
X144702898Y-115359579D01*
X144545921Y-115202602D01*
X144361335Y-115079266D01*
X144156234Y-114994310D01*
X143938500Y-114951000D01*
X143716500Y-114951000D01*
X143498766Y-114994310D01*
X143293665Y-115079266D01*
X143109079Y-115202602D01*
X142952102Y-115359579D01*
X142888344Y-115455000D01*
X140730767Y-115455000D01*
X140783690Y-115327234D01*
X140827000Y-115109500D01*
X140827000Y-114887500D01*
X140783690Y-114669766D01*
X140698734Y-114464665D01*
X140575398Y-114280079D01*
X140418421Y-114123102D01*
X140233835Y-113999766D01*
X140028734Y-113914810D01*
X139811000Y-113871500D01*
X139589000Y-113871500D01*
X139371266Y-113914810D01*
X139166165Y-113999766D01*
X138981579Y-114123102D01*
X138824602Y-114280079D01*
X138701266Y-114464665D01*
X138616310Y-114669766D01*
X138611688Y-114693000D01*
X130463120Y-114693000D01*
X130538734Y-114579835D01*
X130623690Y-114374734D01*
X130667000Y-114157000D01*
X130667000Y-113935000D01*
X130623690Y-113717266D01*
X130552334Y-113544999D01*
X139359412Y-113544999D01*
X139402491Y-113549242D01*
X139445570Y-113544999D01*
X139574413Y-113532309D01*
X139739728Y-113482161D01*
X139892083Y-113400726D01*
X139899060Y-113395000D01*
X139913490Y-113395000D01*
X140131224Y-113351690D01*
X140336325Y-113266734D01*
X140520911Y-113143398D01*
X140677888Y-112986421D01*
X140801224Y-112801835D01*
X140886180Y-112596734D01*
X140929490Y-112379000D01*
X140929490Y-112157000D01*
X140886180Y-111939266D01*
X140801224Y-111734165D01*
X140741981Y-111645501D01*
X142091736Y-111645501D01*
X142193062Y-111746827D01*
X142235810Y-111961734D01*
X142320766Y-112166835D01*
X142444102Y-112351421D01*
X142601079Y-112508398D01*
X142785665Y-112631734D01*
X142990766Y-112716690D01*
X143208500Y-112760000D01*
X143430500Y-112760000D01*
X143648234Y-112716690D01*
X143853335Y-112631734D01*
X144037921Y-112508398D01*
X144194898Y-112351421D01*
X144318234Y-112166835D01*
X144403190Y-111961734D01*
X144446500Y-111744000D01*
X144446500Y-111522000D01*
X144403190Y-111304266D01*
X144318234Y-111099165D01*
X144194898Y-110914579D01*
X144037921Y-110757602D01*
X143853335Y-110634266D01*
X143648234Y-110549310D01*
X143433327Y-110506562D01*
X143105595Y-110178830D01*
X143078134Y-110145368D01*
X142944593Y-110035774D01*
X142792238Y-109954339D01*
X142626923Y-109904191D01*
X142455001Y-109887258D01*
X142411922Y-109891501D01*
X127666288Y-109891501D01*
X127554946Y-109780159D01*
X127512198Y-109565252D01*
X127443127Y-109398500D01*
X144165421Y-109398500D01*
X144208500Y-109402743D01*
X144251579Y-109398500D01*
X144267845Y-109396898D01*
X144380422Y-109385810D01*
X144545737Y-109335662D01*
X144698092Y-109254227D01*
X144831633Y-109144633D01*
X144859097Y-109111168D01*
X145147827Y-108822438D01*
X145362734Y-108779690D01*
X145567835Y-108694734D01*
X145752421Y-108571398D01*
X145909398Y-108414421D01*
X146032734Y-108229835D01*
X146117690Y-108024734D01*
X146161000Y-107807000D01*
X146161000Y-107585000D01*
X146117690Y-107367266D01*
X146032734Y-107162165D01*
X145909398Y-106977579D01*
X145752421Y-106820602D01*
X145567835Y-106697266D01*
X145362734Y-106612310D01*
X145145000Y-106569000D01*
X144923000Y-106569000D01*
X144705266Y-106612310D01*
X144500165Y-106697266D01*
X144315579Y-106820602D01*
X144158602Y-106977579D01*
X144035266Y-107162165D01*
X143950310Y-107367266D01*
X143907562Y-107582173D01*
X143845235Y-107644500D01*
X130570767Y-107644500D01*
X130623690Y-107516734D01*
X130667000Y-107299000D01*
X130667000Y-107077000D01*
X130623690Y-106859266D01*
X130538734Y-106654165D01*
X130505549Y-106604500D01*
X139167291Y-106604500D01*
X139209266Y-106705835D01*
X139332602Y-106890421D01*
X139489579Y-107047398D01*
X139674165Y-107170734D01*
X139879266Y-107255690D01*
X140097000Y-107299000D01*
X140319000Y-107299000D01*
X140536734Y-107255690D01*
X140741835Y-107170734D01*
X140926421Y-107047398D01*
X141083398Y-106890421D01*
X141206734Y-106705835D01*
X141291690Y-106500734D01*
X141335000Y-106283000D01*
X141335000Y-106061000D01*
X141291690Y-105843266D01*
X141206734Y-105638165D01*
X141083398Y-105453579D01*
X140926421Y-105296602D01*
X140741835Y-105173266D01*
X140536734Y-105088310D01*
X140319000Y-105045000D01*
X140314294Y-105045000D01*
X140253092Y-104994773D01*
X140100737Y-104913338D01*
X139935422Y-104863190D01*
X139806579Y-104850500D01*
X139763500Y-104846257D01*
X139720421Y-104850500D01*
X119613579Y-104850500D01*
X119570500Y-104846257D01*
X119398577Y-104863190D01*
X119281999Y-104898554D01*
X119233263Y-104913338D01*
X119080908Y-104994773D01*
X119019706Y-105045000D01*
X119015000Y-105045000D01*
X118797266Y-105088310D01*
X118592165Y-105173266D01*
X118407579Y-105296602D01*
X118250602Y-105453579D01*
X118127266Y-105638165D01*
X118042310Y-105843266D01*
X117999000Y-106061000D01*
X117301000Y-106061000D01*
X117301000Y-106026528D01*
X117244240Y-105741175D01*
X117132901Y-105472378D01*
X116971261Y-105230467D01*
X116810703Y-105069909D01*
X116853557Y-105056910D01*
X116979853Y-104989403D01*
X117090554Y-104898554D01*
X117181403Y-104787853D01*
X117248910Y-104661557D01*
X117290480Y-104524517D01*
X117304517Y-104382000D01*
X117304517Y-102882000D01*
X117290480Y-102739483D01*
X117287907Y-102731000D01*
X128668735Y-102731000D01*
X129587903Y-103650168D01*
X129615367Y-103683633D01*
X129748908Y-103793227D01*
X129888036Y-103867592D01*
X129901263Y-103874662D01*
X130066577Y-103924810D01*
X130238500Y-103941743D01*
X130281579Y-103937500D01*
X139226415Y-103937500D01*
X139332602Y-104096421D01*
X139489579Y-104253398D01*
X139674165Y-104376734D01*
X139879266Y-104461690D01*
X140097000Y-104505000D01*
X140319000Y-104505000D01*
X140536734Y-104461690D01*
X140741835Y-104376734D01*
X140926421Y-104253398D01*
X141083398Y-104096421D01*
X141206734Y-103911835D01*
X141291690Y-103706734D01*
X141335000Y-103489000D01*
X141335000Y-103267000D01*
X141291690Y-103049266D01*
X141206734Y-102844165D01*
X141083398Y-102659579D01*
X140926421Y-102502602D01*
X140741835Y-102379266D01*
X140536734Y-102294310D01*
X140319000Y-102251000D01*
X140236459Y-102251000D01*
X140227737Y-102246338D01*
X140062422Y-102196190D01*
X140012134Y-102191237D01*
X139890500Y-102179257D01*
X139847421Y-102183500D01*
X130601765Y-102183500D01*
X129682597Y-101264332D01*
X129655133Y-101230867D01*
X129638801Y-101217464D01*
X130161827Y-100694438D01*
X130376734Y-100651690D01*
X130581835Y-100566734D01*
X130766421Y-100443398D01*
X130923398Y-100286421D01*
X131046734Y-100101835D01*
X131131690Y-99896734D01*
X131175000Y-99679000D01*
X131175000Y-99457000D01*
X131131690Y-99239266D01*
X131046734Y-99034165D01*
X130923398Y-98849579D01*
X130766421Y-98692602D01*
X130581835Y-98569266D01*
X130376734Y-98484310D01*
X130159000Y-98441000D01*
X129937000Y-98441000D01*
X129719266Y-98484310D01*
X129514165Y-98569266D01*
X129329579Y-98692602D01*
X129172602Y-98849579D01*
X129049266Y-99034165D01*
X128964310Y-99239266D01*
X128921562Y-99454173D01*
X128160735Y-100215000D01*
X117281698Y-100215000D01*
X117371240Y-99998825D01*
X117428000Y-99713472D01*
X117428000Y-99422528D01*
X117371240Y-99137175D01*
X117259901Y-98868378D01*
X117098261Y-98626467D01*
X116892533Y-98420739D01*
X116708841Y-98298000D01*
X116892533Y-98175261D01*
X117098261Y-97969533D01*
X117259901Y-97727622D01*
X117371240Y-97458825D01*
X117428000Y-97173472D01*
X117428000Y-96882528D01*
X117371240Y-96597175D01*
X117259901Y-96328378D01*
X117144054Y-96155000D01*
X130953000Y-96155000D01*
X130953000Y-96377000D01*
X130996310Y-96594734D01*
X131081266Y-96799835D01*
X131204602Y-96984421D01*
X131361579Y-97141398D01*
X131546165Y-97264734D01*
X131751266Y-97349690D01*
X131969000Y-97393000D01*
X132191000Y-97393000D01*
X132408734Y-97349690D01*
X132613835Y-97264734D01*
X132796023Y-97143000D01*
X142638735Y-97143000D01*
X142764563Y-97268828D01*
X142807310Y-97483734D01*
X142892266Y-97688835D01*
X143015602Y-97873421D01*
X143172579Y-98030398D01*
X143357165Y-98153734D01*
X143562266Y-98238690D01*
X143780000Y-98282000D01*
X144002000Y-98282000D01*
X144219734Y-98238690D01*
X144424835Y-98153734D01*
X144609421Y-98030398D01*
X144766398Y-97873421D01*
X144889734Y-97688835D01*
X144974690Y-97483734D01*
X145018000Y-97266000D01*
X145018000Y-97044000D01*
X144974690Y-96826266D01*
X144889734Y-96621165D01*
X144766398Y-96436579D01*
X144609421Y-96279602D01*
X144424835Y-96156266D01*
X144219734Y-96071310D01*
X144004828Y-96028563D01*
X143652596Y-95676331D01*
X143625133Y-95642867D01*
X143491592Y-95533273D01*
X143339237Y-95451838D01*
X143173922Y-95401690D01*
X143002000Y-95384757D01*
X142958921Y-95389000D01*
X132796023Y-95389000D01*
X132613835Y-95267266D01*
X132408734Y-95182310D01*
X132191000Y-95139000D01*
X131969000Y-95139000D01*
X131751266Y-95182310D01*
X131546165Y-95267266D01*
X131361579Y-95390602D01*
X131204602Y-95547579D01*
X131081266Y-95732165D01*
X130996310Y-95937266D01*
X130953000Y-96155000D01*
X117144054Y-96155000D01*
X117098261Y-96086467D01*
X116937703Y-95925909D01*
X116980557Y-95912910D01*
X117106853Y-95845403D01*
X117217554Y-95754554D01*
X117308403Y-95643853D01*
X117375910Y-95517557D01*
X117417480Y-95380517D01*
X117431517Y-95238000D01*
X117431517Y-93738000D01*
X117417480Y-93595483D01*
X117375910Y-93458443D01*
X117308403Y-93332147D01*
X117217554Y-93221446D01*
X117106853Y-93130597D01*
X116980557Y-93063090D01*
X116843517Y-93021520D01*
X116701000Y-93007483D01*
X115201000Y-93007483D01*
X115058483Y-93021520D01*
X114921443Y-93063090D01*
X114795147Y-93130597D01*
X114684446Y-93221446D01*
X114593597Y-93332147D01*
X114526090Y-93458443D01*
X114484520Y-93595483D01*
X114470483Y-93738000D01*
X114470483Y-95238000D01*
X114484520Y-95380517D01*
X114526090Y-95517557D01*
X114593597Y-95643853D01*
X114684446Y-95754554D01*
X114795147Y-95845403D01*
X114921443Y-95912910D01*
X114964297Y-95925909D01*
X114803739Y-96086467D01*
X114642099Y-96328378D01*
X114530760Y-96597175D01*
X114474000Y-96882528D01*
X114474000Y-97173472D01*
X114530760Y-97458825D01*
X114642099Y-97727622D01*
X114803739Y-97969533D01*
X115009467Y-98175261D01*
X115193159Y-98298000D01*
X115009467Y-98420739D01*
X114803739Y-98626467D01*
X114642099Y-98868378D01*
X114530760Y-99137175D01*
X114474000Y-99422528D01*
X114474000Y-99713472D01*
X114530760Y-99998825D01*
X114620302Y-100215000D01*
X97645265Y-100215000D01*
X96408597Y-98978332D01*
X96381133Y-98944867D01*
X96252755Y-98839510D01*
X96171572Y-98687627D01*
X95974503Y-98447497D01*
X95734373Y-98250428D01*
X95460412Y-98103993D01*
X95163146Y-98013818D01*
X94931469Y-97991000D01*
X94776531Y-97991000D01*
X94544854Y-98013818D01*
X94247588Y-98103993D01*
X93973627Y-98250428D01*
X93733497Y-98447497D01*
X93536428Y-98687627D01*
X93389993Y-98961588D01*
X93299818Y-99258854D01*
X93269370Y-99568000D01*
X77968000Y-99568000D01*
X77968000Y-91821000D01*
X93411370Y-91821000D01*
X93441818Y-92130146D01*
X93531993Y-92427412D01*
X93678428Y-92701373D01*
X93812604Y-92864868D01*
X93740147Y-92903597D01*
X93629446Y-92994446D01*
X93538597Y-93105147D01*
X93471090Y-93231443D01*
X93429520Y-93368483D01*
X93415483Y-93511000D01*
X93415483Y-95211000D01*
X93429520Y-95353517D01*
X93471090Y-95490557D01*
X93538597Y-95616853D01*
X93629446Y-95727554D01*
X93740147Y-95818403D01*
X93866443Y-95885910D01*
X94003483Y-95927480D01*
X94146000Y-95941517D01*
X95846000Y-95941517D01*
X95988517Y-95927480D01*
X96125557Y-95885910D01*
X96251853Y-95818403D01*
X96362554Y-95727554D01*
X96453403Y-95616853D01*
X96520910Y-95490557D01*
X96562480Y-95353517D01*
X96576517Y-95211000D01*
X96576517Y-93511000D01*
X96562480Y-93368483D01*
X96520910Y-93231443D01*
X96453403Y-93105147D01*
X96362554Y-92994446D01*
X96251853Y-92903597D01*
X96179396Y-92864868D01*
X96313572Y-92701373D01*
X96460007Y-92427412D01*
X96550182Y-92130146D01*
X96580630Y-91821000D01*
X96550182Y-91511854D01*
X96460007Y-91214588D01*
X96313572Y-90940627D01*
X96116503Y-90700497D01*
X95876373Y-90503428D01*
X95602412Y-90356993D01*
X95305146Y-90266818D01*
X95073469Y-90244000D01*
X94918531Y-90244000D01*
X94686854Y-90266818D01*
X94389588Y-90356993D01*
X94115627Y-90503428D01*
X93875497Y-90700497D01*
X93678428Y-90940627D01*
X93531993Y-91214588D01*
X93441818Y-91511854D01*
X93411370Y-91821000D01*
X77968000Y-91821000D01*
X77968000Y-81851500D01*
X84746065Y-81851500D01*
X84769755Y-82092033D01*
X84839917Y-82323324D01*
X84953852Y-82536482D01*
X85107183Y-82723317D01*
X85294018Y-82876648D01*
X85507176Y-82990583D01*
X85738467Y-83060745D01*
X85979000Y-83084435D01*
X86219533Y-83060745D01*
X86450824Y-82990583D01*
X86663982Y-82876648D01*
X86804004Y-82761735D01*
X87312740Y-82253000D01*
X94252056Y-82253000D01*
X94017497Y-82445497D01*
X93820428Y-82685627D01*
X93673993Y-82959588D01*
X93583818Y-83256854D01*
X93553370Y-83566000D01*
X93583818Y-83875146D01*
X93673993Y-84172412D01*
X93820428Y-84446373D01*
X93954604Y-84609868D01*
X93882147Y-84648597D01*
X93771446Y-84739446D01*
X93680597Y-84850147D01*
X93613090Y-84976443D01*
X93571520Y-85113483D01*
X93557483Y-85256000D01*
X93557483Y-86956000D01*
X93571520Y-87098517D01*
X93613090Y-87235557D01*
X93680597Y-87361853D01*
X93771446Y-87472554D01*
X93882147Y-87563403D01*
X94008443Y-87630910D01*
X94145483Y-87672480D01*
X94288000Y-87686517D01*
X95988000Y-87686517D01*
X96130517Y-87672480D01*
X96267557Y-87630910D01*
X96393853Y-87563403D01*
X96504554Y-87472554D01*
X96595403Y-87361853D01*
X96662910Y-87235557D01*
X96704480Y-87098517D01*
X96718517Y-86956000D01*
X96718517Y-85256000D01*
X96704480Y-85113483D01*
X96662910Y-84976443D01*
X96595403Y-84850147D01*
X96504554Y-84739446D01*
X96393853Y-84648597D01*
X96321396Y-84609868D01*
X96455572Y-84446373D01*
X96602007Y-84172412D01*
X96692182Y-83875146D01*
X96722630Y-83566000D01*
X96692182Y-83256854D01*
X96602007Y-82959588D01*
X96455572Y-82685627D01*
X96258503Y-82445497D01*
X96023944Y-82253000D01*
X98297761Y-82253000D01*
X98911764Y-82867004D01*
X98950183Y-82913817D01*
X99137017Y-83067149D01*
X99350176Y-83181084D01*
X99581466Y-83251245D01*
X99761732Y-83269000D01*
X99761740Y-83269000D01*
X99822000Y-83274935D01*
X99882260Y-83269000D01*
X114597483Y-83269000D01*
X114597483Y-83554000D01*
X114611520Y-83696517D01*
X114653090Y-83833557D01*
X114720597Y-83959853D01*
X114811446Y-84070554D01*
X114922147Y-84161403D01*
X115048443Y-84228910D01*
X115091297Y-84241909D01*
X114930739Y-84402467D01*
X114769099Y-84644378D01*
X114657760Y-84913175D01*
X114601000Y-85198528D01*
X114601000Y-85489472D01*
X114657760Y-85774825D01*
X114769099Y-86043622D01*
X114930739Y-86285533D01*
X115136467Y-86491261D01*
X115320159Y-86614000D01*
X115136467Y-86736739D01*
X114930739Y-86942467D01*
X114769099Y-87184378D01*
X114657760Y-87453175D01*
X114601000Y-87738528D01*
X114601000Y-88029472D01*
X114657760Y-88314825D01*
X114769099Y-88583622D01*
X114930739Y-88825533D01*
X115136467Y-89031261D01*
X115378378Y-89192901D01*
X115647175Y-89304240D01*
X115932528Y-89361000D01*
X116223472Y-89361000D01*
X116508825Y-89304240D01*
X116777622Y-89192901D01*
X117019533Y-89031261D01*
X117225261Y-88825533D01*
X117386901Y-88583622D01*
X117498240Y-88314825D01*
X117555000Y-88029472D01*
X117555000Y-87738528D01*
X117498240Y-87453175D01*
X117386901Y-87184378D01*
X117225261Y-86942467D01*
X117019533Y-86736739D01*
X116835841Y-86614000D01*
X117019533Y-86491261D01*
X117225261Y-86285533D01*
X117386901Y-86043622D01*
X117498240Y-85774825D01*
X117555000Y-85489472D01*
X117555000Y-85198528D01*
X117498240Y-84913175D01*
X117386901Y-84644378D01*
X117225261Y-84402467D01*
X117064703Y-84241909D01*
X117107557Y-84228910D01*
X117233853Y-84161403D01*
X117344554Y-84070554D01*
X117435403Y-83959853D01*
X117502910Y-83833557D01*
X117544480Y-83696517D01*
X117558517Y-83554000D01*
X117558517Y-82054000D01*
X117544480Y-81911483D01*
X117502910Y-81774443D01*
X117435403Y-81648147D01*
X117344554Y-81537446D01*
X117233853Y-81446597D01*
X117107557Y-81379090D01*
X116970517Y-81337520D01*
X116828000Y-81323483D01*
X116332722Y-81323483D01*
X116226239Y-81217000D01*
X116187817Y-81170183D01*
X116000983Y-81016851D01*
X115787824Y-80902916D01*
X115556534Y-80832755D01*
X115376268Y-80815000D01*
X115376260Y-80815000D01*
X115316000Y-80809065D01*
X115255740Y-80815000D01*
X100330240Y-80815000D01*
X99716239Y-80201000D01*
X99677817Y-80154183D01*
X99490983Y-80000851D01*
X99277824Y-79886916D01*
X99046534Y-79816755D01*
X98866268Y-79799000D01*
X98866260Y-79799000D01*
X98806000Y-79793065D01*
X98745740Y-79799000D01*
X86864759Y-79799000D01*
X86804499Y-79793065D01*
X86744239Y-79799000D01*
X86744232Y-79799000D01*
X86563966Y-79816755D01*
X86332676Y-79886916D01*
X86119517Y-80000851D01*
X85932683Y-80154183D01*
X85894265Y-80200995D01*
X85068765Y-81026496D01*
X84953852Y-81166518D01*
X84839917Y-81379676D01*
X84769755Y-81610967D01*
X84746065Y-81851500D01*
X77968000Y-81851500D01*
X77968000Y-75708000D01*
X102632000Y-75708000D01*
X102632000Y-75930000D01*
X102675310Y-76147734D01*
X102760266Y-76352835D01*
X102883602Y-76537421D01*
X103040579Y-76694398D01*
X103225165Y-76817734D01*
X103430266Y-76902690D01*
X103648000Y-76946000D01*
X103870000Y-76946000D01*
X104087734Y-76902690D01*
X104292835Y-76817734D01*
X104475023Y-76696000D01*
X109138977Y-76696000D01*
X109321165Y-76817734D01*
X109526266Y-76902690D01*
X109744000Y-76946000D01*
X109966000Y-76946000D01*
X110183734Y-76902690D01*
X110388835Y-76817734D01*
X110573421Y-76694398D01*
X110730398Y-76537421D01*
X110853734Y-76352835D01*
X110938690Y-76147734D01*
X110982000Y-75930000D01*
X110982000Y-75708000D01*
X110938690Y-75490266D01*
X110853734Y-75285165D01*
X110778120Y-75172000D01*
X114599175Y-75172000D01*
X114724579Y-75297404D01*
X114909165Y-75420740D01*
X115114266Y-75505696D01*
X115332000Y-75549006D01*
X115554000Y-75549006D01*
X115771734Y-75505696D01*
X115976835Y-75420740D01*
X116161421Y-75297404D01*
X116318398Y-75140427D01*
X116441734Y-74955841D01*
X116526690Y-74750740D01*
X116570000Y-74533006D01*
X116570000Y-74311006D01*
X116526690Y-74093272D01*
X116441734Y-73888171D01*
X116318398Y-73703585D01*
X116262813Y-73648000D01*
X120314977Y-73648000D01*
X120497165Y-73769734D01*
X120702266Y-73854690D01*
X120920000Y-73898000D01*
X121142000Y-73898000D01*
X121359734Y-73854690D01*
X121564835Y-73769734D01*
X121749421Y-73646398D01*
X121906398Y-73489421D01*
X122029734Y-73304835D01*
X122114690Y-73099734D01*
X122158000Y-72882000D01*
X122158000Y-72660000D01*
X122114690Y-72442266D01*
X122029734Y-72237165D01*
X121906398Y-72052579D01*
X121749421Y-71895602D01*
X121564835Y-71772266D01*
X121359734Y-71687310D01*
X121142000Y-71644000D01*
X120920000Y-71644000D01*
X120702266Y-71687310D01*
X120497165Y-71772266D01*
X120314977Y-71894000D01*
X104602023Y-71894000D01*
X104419835Y-71772266D01*
X104214734Y-71687310D01*
X103997000Y-71644000D01*
X103775000Y-71644000D01*
X103557266Y-71687310D01*
X103352165Y-71772266D01*
X103167579Y-71895602D01*
X103010602Y-72052579D01*
X102887266Y-72237165D01*
X102802310Y-72442266D01*
X102759000Y-72660000D01*
X102759000Y-72882000D01*
X102802310Y-73099734D01*
X102887266Y-73304835D01*
X103010602Y-73489421D01*
X103054181Y-73533000D01*
X103010602Y-73576579D01*
X102887266Y-73761165D01*
X102802310Y-73966266D01*
X102759000Y-74184000D01*
X102759000Y-74406000D01*
X102802310Y-74623734D01*
X102887266Y-74828835D01*
X102994644Y-74989537D01*
X102883602Y-75100579D01*
X102760266Y-75285165D01*
X102675310Y-75490266D01*
X102632000Y-75708000D01*
X77968000Y-75708000D01*
X77968000Y-69952890D01*
X80346524Y-69952890D01*
X80391175Y-70100099D01*
X80516359Y-70362920D01*
X80690412Y-70596269D01*
X80906645Y-70791178D01*
X81156748Y-70940157D01*
X81431109Y-71037481D01*
X81661000Y-70916814D01*
X81661000Y-69723000D01*
X81915000Y-69723000D01*
X81915000Y-70916814D01*
X82144891Y-71037481D01*
X82419252Y-70940157D01*
X82669355Y-70791178D01*
X82885588Y-70596269D01*
X83058000Y-70365120D01*
X83230412Y-70596269D01*
X83446645Y-70791178D01*
X83696748Y-70940157D01*
X83971109Y-71037481D01*
X84201000Y-70916814D01*
X84201000Y-69723000D01*
X84455000Y-69723000D01*
X84455000Y-70916814D01*
X84684891Y-71037481D01*
X84959252Y-70940157D01*
X85209355Y-70791178D01*
X85425588Y-70596269D01*
X85599641Y-70362920D01*
X85724825Y-70100099D01*
X85769476Y-69952890D01*
X85648155Y-69723000D01*
X84455000Y-69723000D01*
X84201000Y-69723000D01*
X81915000Y-69723000D01*
X81661000Y-69723000D01*
X80467845Y-69723000D01*
X80346524Y-69952890D01*
X77968000Y-69952890D01*
X77968000Y-46228000D01*
X78493757Y-46228000D01*
X78498000Y-46271079D01*
X78498000Y-46819921D01*
X78493757Y-46863000D01*
X78510690Y-47034922D01*
X78557968Y-47190775D01*
X78560838Y-47200236D01*
X78642273Y-47352591D01*
X78751867Y-47486133D01*
X78785332Y-47513597D01*
X80234928Y-48963193D01*
X80233818Y-48966854D01*
X80203370Y-49276000D01*
X80233818Y-49585146D01*
X80323993Y-49882412D01*
X80470428Y-50156373D01*
X80667497Y-50396503D01*
X80849660Y-50546000D01*
X80667497Y-50695497D01*
X80470428Y-50935627D01*
X80323993Y-51209588D01*
X80233818Y-51506854D01*
X80203370Y-51816000D01*
X80233818Y-52125146D01*
X80323993Y-52422412D01*
X80470428Y-52696373D01*
X80667497Y-52936503D01*
X80849660Y-53086000D01*
X80667497Y-53235497D01*
X80470428Y-53475627D01*
X80323993Y-53749588D01*
X80233818Y-54046854D01*
X80203370Y-54356000D01*
X80233818Y-54665146D01*
X80323993Y-54962412D01*
X80470428Y-55236373D01*
X80667497Y-55476503D01*
X80849660Y-55626000D01*
X80667497Y-55775497D01*
X80470428Y-56015627D01*
X80323993Y-56289588D01*
X80233818Y-56586854D01*
X80203370Y-56896000D01*
X80233818Y-57205146D01*
X80323993Y-57502412D01*
X80470428Y-57776373D01*
X80667497Y-58016503D01*
X80849660Y-58166000D01*
X80667497Y-58315497D01*
X80470428Y-58555627D01*
X80323993Y-58829588D01*
X80233818Y-59126854D01*
X80203370Y-59436000D01*
X80233818Y-59745146D01*
X80323993Y-60042412D01*
X80470428Y-60316373D01*
X80667497Y-60556503D01*
X80849660Y-60706000D01*
X80667497Y-60855497D01*
X80470428Y-61095627D01*
X80323993Y-61369588D01*
X80233818Y-61666854D01*
X80203370Y-61976000D01*
X80233818Y-62285146D01*
X80323993Y-62582412D01*
X80470428Y-62856373D01*
X80667497Y-63096503D01*
X80849660Y-63246000D01*
X80667497Y-63395497D01*
X80470428Y-63635627D01*
X80323993Y-63909588D01*
X80233818Y-64206854D01*
X80203370Y-64516000D01*
X80233818Y-64825146D01*
X80323993Y-65122412D01*
X80470428Y-65396373D01*
X80667497Y-65636503D01*
X80849660Y-65786000D01*
X80667497Y-65935497D01*
X80470428Y-66175627D01*
X80323993Y-66449588D01*
X80233818Y-66746854D01*
X80203370Y-67056000D01*
X80233818Y-67365146D01*
X80323993Y-67662412D01*
X80470428Y-67936373D01*
X80667497Y-68176503D01*
X80907627Y-68373572D01*
X80931221Y-68386183D01*
X80906645Y-68400822D01*
X80690412Y-68595731D01*
X80516359Y-68829080D01*
X80391175Y-69091901D01*
X80346524Y-69239110D01*
X80467845Y-69469000D01*
X81661000Y-69469000D01*
X81661000Y-69449000D01*
X81915000Y-69449000D01*
X81915000Y-69469000D01*
X84201000Y-69469000D01*
X84201000Y-69449000D01*
X84455000Y-69449000D01*
X84455000Y-69469000D01*
X85648155Y-69469000D01*
X85769476Y-69239110D01*
X85724825Y-69091901D01*
X85599641Y-68829080D01*
X85425588Y-68595731D01*
X85209355Y-68400822D01*
X85184779Y-68386183D01*
X85208373Y-68373572D01*
X85318736Y-68283000D01*
X88579268Y-68283000D01*
X88759534Y-68265245D01*
X88990824Y-68195084D01*
X89203983Y-68081149D01*
X89390817Y-67927817D01*
X89544149Y-67740983D01*
X89658084Y-67527824D01*
X89728245Y-67296534D01*
X89751936Y-67056000D01*
X89728245Y-66815466D01*
X89658084Y-66584176D01*
X89544149Y-66371017D01*
X89390817Y-66184183D01*
X89203983Y-66030851D01*
X88990824Y-65916916D01*
X88759534Y-65846755D01*
X88579268Y-65829000D01*
X85318736Y-65829000D01*
X85266340Y-65786000D01*
X85448503Y-65636503D01*
X85645572Y-65396373D01*
X85792007Y-65122412D01*
X85882182Y-64825146D01*
X85912630Y-64516000D01*
X85882182Y-64206854D01*
X85792007Y-63909588D01*
X85645572Y-63635627D01*
X85448503Y-63395497D01*
X85266340Y-63246000D01*
X85448503Y-63096503D01*
X85645572Y-62856373D01*
X85792007Y-62582412D01*
X85882182Y-62285146D01*
X85912630Y-61976000D01*
X85882182Y-61666854D01*
X85792007Y-61369588D01*
X85645572Y-61095627D01*
X85448503Y-60855497D01*
X85266340Y-60706000D01*
X85448503Y-60556503D01*
X85645572Y-60316373D01*
X85792007Y-60042412D01*
X85882182Y-59745146D01*
X85912630Y-59436000D01*
X85882182Y-59126854D01*
X85792007Y-58829588D01*
X85645572Y-58555627D01*
X85448503Y-58315497D01*
X85266340Y-58166000D01*
X85448503Y-58016503D01*
X85645572Y-57776373D01*
X85792007Y-57502412D01*
X85882182Y-57205146D01*
X85912630Y-56896000D01*
X85882182Y-56586854D01*
X85792007Y-56289588D01*
X85645572Y-56015627D01*
X85448503Y-55775497D01*
X85208373Y-55578428D01*
X85184779Y-55565817D01*
X85209355Y-55551178D01*
X85425588Y-55356269D01*
X85599641Y-55122920D01*
X85724825Y-54860099D01*
X85769476Y-54712890D01*
X85648155Y-54483000D01*
X84455000Y-54483000D01*
X84455000Y-54503000D01*
X84201000Y-54503000D01*
X84201000Y-54483000D01*
X84181000Y-54483000D01*
X84181000Y-54229000D01*
X84201000Y-54229000D01*
X84201000Y-54209000D01*
X84455000Y-54209000D01*
X84455000Y-54229000D01*
X85648155Y-54229000D01*
X85769476Y-53999110D01*
X85724825Y-53851901D01*
X85599641Y-53589080D01*
X85425588Y-53355731D01*
X85209355Y-53160822D01*
X85184779Y-53146183D01*
X85208373Y-53133572D01*
X85318736Y-53043000D01*
X98301240Y-53043000D01*
X98361500Y-53048935D01*
X98421760Y-53043000D01*
X98421768Y-53043000D01*
X98602034Y-53025245D01*
X98833324Y-52955084D01*
X99046483Y-52841149D01*
X99233317Y-52687817D01*
X99271739Y-52641000D01*
X99398735Y-52514004D01*
X99513648Y-52373982D01*
X99627583Y-52160824D01*
X99697745Y-51929533D01*
X99721435Y-51689001D01*
X99697745Y-51448467D01*
X99627583Y-51217177D01*
X99513648Y-51004018D01*
X99360317Y-50817183D01*
X99173482Y-50663852D01*
X98960323Y-50549917D01*
X98729033Y-50479755D01*
X98488499Y-50456065D01*
X98247967Y-50479755D01*
X98016676Y-50549917D01*
X97943557Y-50589000D01*
X85318736Y-50589000D01*
X85266340Y-50546000D01*
X85448503Y-50396503D01*
X85645572Y-50156373D01*
X85792007Y-49882412D01*
X85882182Y-49585146D01*
X85912630Y-49276000D01*
X85882182Y-48966854D01*
X85792007Y-48669588D01*
X85645572Y-48395627D01*
X85448503Y-48155497D01*
X85266340Y-48006000D01*
X85448503Y-47856503D01*
X85645572Y-47616373D01*
X85792007Y-47342412D01*
X85882182Y-47045146D01*
X85912630Y-46736000D01*
X85882182Y-46426854D01*
X85792007Y-46129588D01*
X85702429Y-45962000D01*
X89679735Y-45962000D01*
X92155062Y-48437327D01*
X92197810Y-48652234D01*
X92282766Y-48857335D01*
X92406102Y-49041921D01*
X92563079Y-49198898D01*
X92747665Y-49322234D01*
X92952766Y-49407190D01*
X93170500Y-49450500D01*
X93392500Y-49450500D01*
X93610234Y-49407190D01*
X93815335Y-49322234D01*
X93884529Y-49276000D01*
X141163370Y-49276000D01*
X141193818Y-49585146D01*
X141283993Y-49882412D01*
X141430428Y-50156373D01*
X141627497Y-50396503D01*
X141809660Y-50546000D01*
X141627497Y-50695497D01*
X141430428Y-50935627D01*
X141283993Y-51209588D01*
X141193818Y-51506854D01*
X141163370Y-51816000D01*
X141193818Y-52125146D01*
X141283993Y-52422412D01*
X141430428Y-52696373D01*
X141627497Y-52936503D01*
X141809660Y-53086000D01*
X141627497Y-53235497D01*
X141430428Y-53475627D01*
X141283993Y-53749588D01*
X141193818Y-54046854D01*
X141163370Y-54356000D01*
X141193818Y-54665146D01*
X141283993Y-54962412D01*
X141430428Y-55236373D01*
X141627497Y-55476503D01*
X141867627Y-55673572D01*
X141891221Y-55686183D01*
X141866645Y-55700822D01*
X141650412Y-55895731D01*
X141476359Y-56129080D01*
X141351175Y-56391901D01*
X141306524Y-56539110D01*
X141427845Y-56769000D01*
X142621000Y-56769000D01*
X142621000Y-56749000D01*
X142875000Y-56749000D01*
X142875000Y-56769000D01*
X142895000Y-56769000D01*
X142895000Y-57023000D01*
X142875000Y-57023000D01*
X142875000Y-57043000D01*
X142621000Y-57043000D01*
X142621000Y-57023000D01*
X141427845Y-57023000D01*
X141306524Y-57252890D01*
X141351175Y-57400099D01*
X141476359Y-57662920D01*
X141650412Y-57896269D01*
X141866645Y-58091178D01*
X141891221Y-58105817D01*
X141867627Y-58118428D01*
X141627497Y-58315497D01*
X141430428Y-58555627D01*
X141283993Y-58829588D01*
X141193818Y-59126854D01*
X141163370Y-59436000D01*
X141193818Y-59745146D01*
X141283993Y-60042412D01*
X141430428Y-60316373D01*
X141627497Y-60556503D01*
X141809660Y-60706000D01*
X141627497Y-60855497D01*
X141430428Y-61095627D01*
X141283993Y-61369588D01*
X141193818Y-61666854D01*
X141163370Y-61976000D01*
X141193818Y-62285146D01*
X141283993Y-62582412D01*
X141430428Y-62856373D01*
X141627497Y-63096503D01*
X141809660Y-63246000D01*
X141627497Y-63395497D01*
X141430428Y-63635627D01*
X141283993Y-63909588D01*
X141193818Y-64206854D01*
X141163370Y-64516000D01*
X141193818Y-64825146D01*
X141283993Y-65122412D01*
X141430428Y-65396373D01*
X141627497Y-65636503D01*
X141809660Y-65786000D01*
X141627497Y-65935497D01*
X141430428Y-66175627D01*
X141283993Y-66449588D01*
X141193818Y-66746854D01*
X141163370Y-67056000D01*
X141193818Y-67365146D01*
X141283993Y-67662412D01*
X141430428Y-67936373D01*
X141627497Y-68176503D01*
X141809660Y-68326000D01*
X141627497Y-68475497D01*
X141430428Y-68715627D01*
X141283993Y-68989588D01*
X141193818Y-69286854D01*
X141163370Y-69596000D01*
X141193818Y-69905146D01*
X141283993Y-70202412D01*
X141430428Y-70476373D01*
X141627497Y-70716503D01*
X141809660Y-70866000D01*
X141627497Y-71015497D01*
X141430428Y-71255627D01*
X141283993Y-71529588D01*
X141193818Y-71826854D01*
X141163370Y-72136000D01*
X141193818Y-72445146D01*
X141283993Y-72742412D01*
X141430428Y-73016373D01*
X141627497Y-73256503D01*
X141809660Y-73406000D01*
X141627497Y-73555497D01*
X141430428Y-73795627D01*
X141283993Y-74069588D01*
X141193818Y-74366854D01*
X141163370Y-74676000D01*
X141193818Y-74985146D01*
X141283993Y-75282412D01*
X141430428Y-75556373D01*
X141627497Y-75796503D01*
X141809660Y-75946000D01*
X141627497Y-76095497D01*
X141430428Y-76335627D01*
X141283993Y-76609588D01*
X141193818Y-76906854D01*
X141163370Y-77216000D01*
X141193818Y-77525146D01*
X141283993Y-77822412D01*
X141430428Y-78096373D01*
X141627497Y-78336503D01*
X141809660Y-78486000D01*
X141627497Y-78635497D01*
X141430428Y-78875627D01*
X141283993Y-79149588D01*
X141193818Y-79446854D01*
X141163370Y-79756000D01*
X141193818Y-80065146D01*
X141283993Y-80362412D01*
X141430428Y-80636373D01*
X141627497Y-80876503D01*
X141809660Y-81026000D01*
X141627497Y-81175497D01*
X141430428Y-81415627D01*
X141283993Y-81689588D01*
X141193818Y-81986854D01*
X141163370Y-82296000D01*
X141193818Y-82605146D01*
X141283993Y-82902412D01*
X141430428Y-83176373D01*
X141627497Y-83416503D01*
X141809660Y-83566000D01*
X141627497Y-83715497D01*
X141430428Y-83955627D01*
X141283993Y-84229588D01*
X141193818Y-84526854D01*
X141163370Y-84836000D01*
X141193818Y-85145146D01*
X141283993Y-85442412D01*
X141430428Y-85716373D01*
X141627497Y-85956503D01*
X141809660Y-86106000D01*
X141627497Y-86255497D01*
X141430428Y-86495627D01*
X141283993Y-86769588D01*
X141193818Y-87066854D01*
X141163370Y-87376000D01*
X141193818Y-87685146D01*
X141283993Y-87982412D01*
X141430428Y-88256373D01*
X141627497Y-88496503D01*
X141809660Y-88646000D01*
X141627497Y-88795497D01*
X141430428Y-89035627D01*
X141283993Y-89309588D01*
X141193818Y-89606854D01*
X141163370Y-89916000D01*
X141193818Y-90225146D01*
X141283993Y-90522412D01*
X141430428Y-90796373D01*
X141627497Y-91036503D01*
X141809660Y-91186000D01*
X141627497Y-91335497D01*
X141430428Y-91575627D01*
X141283993Y-91849588D01*
X141193818Y-92146854D01*
X141163370Y-92456000D01*
X141193818Y-92765146D01*
X141283993Y-93062412D01*
X141430428Y-93336373D01*
X141627497Y-93576503D01*
X141867627Y-93773572D01*
X142141588Y-93920007D01*
X142438854Y-94010182D01*
X142670531Y-94033000D01*
X142825469Y-94033000D01*
X143057146Y-94010182D01*
X143354412Y-93920007D01*
X143628373Y-93773572D01*
X143868503Y-93576503D01*
X144018000Y-93394340D01*
X144167497Y-93576503D01*
X144407627Y-93773572D01*
X144681588Y-93920007D01*
X144978854Y-94010182D01*
X145210531Y-94033000D01*
X145365469Y-94033000D01*
X145597146Y-94010182D01*
X145894412Y-93920007D01*
X146168373Y-93773572D01*
X146408503Y-93576503D01*
X146605572Y-93336373D01*
X146752007Y-93062412D01*
X146842182Y-92765146D01*
X146872630Y-92456000D01*
X146842182Y-92146854D01*
X146752007Y-91849588D01*
X146605572Y-91575627D01*
X146408503Y-91335497D01*
X146226340Y-91186000D01*
X146408503Y-91036503D01*
X146605572Y-90796373D01*
X146752007Y-90522412D01*
X146842182Y-90225146D01*
X146872630Y-89916000D01*
X146842182Y-89606854D01*
X146752007Y-89309588D01*
X146605572Y-89035627D01*
X146408503Y-88795497D01*
X146226340Y-88646000D01*
X146408503Y-88496503D01*
X146605572Y-88256373D01*
X146752007Y-87982412D01*
X146842182Y-87685146D01*
X146872630Y-87376000D01*
X146842182Y-87066854D01*
X146752007Y-86769588D01*
X146605572Y-86495627D01*
X146408503Y-86255497D01*
X146168373Y-86058428D01*
X146144779Y-86045817D01*
X146169355Y-86031178D01*
X146385588Y-85836269D01*
X146559641Y-85602920D01*
X146684825Y-85340099D01*
X146729476Y-85192890D01*
X146608155Y-84963000D01*
X145415000Y-84963000D01*
X145415000Y-84983000D01*
X145161000Y-84983000D01*
X145161000Y-84963000D01*
X145141000Y-84963000D01*
X145141000Y-84709000D01*
X145161000Y-84709000D01*
X145161000Y-84689000D01*
X145415000Y-84689000D01*
X145415000Y-84709000D01*
X146608155Y-84709000D01*
X146729476Y-84479110D01*
X146684825Y-84331901D01*
X146559641Y-84069080D01*
X146385588Y-83835731D01*
X146169355Y-83640822D01*
X146144779Y-83626183D01*
X146168373Y-83613572D01*
X146408503Y-83416503D01*
X146605572Y-83176373D01*
X146752007Y-82902412D01*
X146842182Y-82605146D01*
X146872630Y-82296000D01*
X146842182Y-81986854D01*
X146752007Y-81689588D01*
X146605572Y-81415627D01*
X146408503Y-81175497D01*
X146226340Y-81026000D01*
X146408503Y-80876503D01*
X146605572Y-80636373D01*
X146752007Y-80362412D01*
X146842182Y-80065146D01*
X146872630Y-79756000D01*
X146842182Y-79446854D01*
X146752007Y-79149588D01*
X146605572Y-78875627D01*
X146408503Y-78635497D01*
X146226340Y-78486000D01*
X146408503Y-78336503D01*
X146605572Y-78096373D01*
X146752007Y-77822412D01*
X146842182Y-77525146D01*
X146872630Y-77216000D01*
X146842182Y-76906854D01*
X146752007Y-76609588D01*
X146605572Y-76335627D01*
X146408503Y-76095497D01*
X146226340Y-75946000D01*
X146408503Y-75796503D01*
X146605572Y-75556373D01*
X146752007Y-75282412D01*
X146842182Y-74985146D01*
X146872630Y-74676000D01*
X146842182Y-74366854D01*
X146752007Y-74069588D01*
X146605572Y-73795627D01*
X146408503Y-73555497D01*
X146226340Y-73406000D01*
X146408503Y-73256503D01*
X146605572Y-73016373D01*
X146752007Y-72742412D01*
X146842182Y-72445146D01*
X146872630Y-72136000D01*
X146842182Y-71826854D01*
X146752007Y-71529588D01*
X146605572Y-71255627D01*
X146408503Y-71015497D01*
X146168373Y-70818428D01*
X146144779Y-70805817D01*
X146169355Y-70791178D01*
X146385588Y-70596269D01*
X146559641Y-70362920D01*
X146684825Y-70100099D01*
X146729476Y-69952890D01*
X146608155Y-69723000D01*
X145415000Y-69723000D01*
X145415000Y-69743000D01*
X145161000Y-69743000D01*
X145161000Y-69723000D01*
X145141000Y-69723000D01*
X145141000Y-69469000D01*
X145161000Y-69469000D01*
X145161000Y-69449000D01*
X145415000Y-69449000D01*
X145415000Y-69469000D01*
X146608155Y-69469000D01*
X146729476Y-69239110D01*
X146684825Y-69091901D01*
X146559641Y-68829080D01*
X146385588Y-68595731D01*
X146169355Y-68400822D01*
X146144779Y-68386183D01*
X146168373Y-68373572D01*
X146408503Y-68176503D01*
X146605572Y-67936373D01*
X146752007Y-67662412D01*
X146842182Y-67365146D01*
X146872630Y-67056000D01*
X146842182Y-66746854D01*
X146752007Y-66449588D01*
X146605572Y-66175627D01*
X146408503Y-65935497D01*
X146226340Y-65786000D01*
X146408503Y-65636503D01*
X146605572Y-65396373D01*
X146752007Y-65122412D01*
X146842182Y-64825146D01*
X146872630Y-64516000D01*
X146842182Y-64206854D01*
X146752007Y-63909588D01*
X146605572Y-63635627D01*
X146408503Y-63395497D01*
X146226340Y-63246000D01*
X146408503Y-63096503D01*
X146605572Y-62856373D01*
X146752007Y-62582412D01*
X146842182Y-62285146D01*
X146872630Y-61976000D01*
X146842182Y-61666854D01*
X146752007Y-61369588D01*
X146605572Y-61095627D01*
X146408503Y-60855497D01*
X146226340Y-60706000D01*
X146408503Y-60556503D01*
X146605572Y-60316373D01*
X146752007Y-60042412D01*
X146842182Y-59745146D01*
X146872630Y-59436000D01*
X146842182Y-59126854D01*
X146752007Y-58829588D01*
X146605572Y-58555627D01*
X146408503Y-58315497D01*
X146226340Y-58166000D01*
X146408503Y-58016503D01*
X146605572Y-57776373D01*
X146752007Y-57502412D01*
X146842182Y-57205146D01*
X146872630Y-56896000D01*
X146842182Y-56586854D01*
X146752007Y-56289588D01*
X146605572Y-56015627D01*
X146408503Y-55775497D01*
X146226340Y-55626000D01*
X146408503Y-55476503D01*
X146605572Y-55236373D01*
X146752007Y-54962412D01*
X146842182Y-54665146D01*
X146872630Y-54356000D01*
X146842182Y-54046854D01*
X146752007Y-53749588D01*
X146605572Y-53475627D01*
X146408503Y-53235497D01*
X146226340Y-53086000D01*
X146408503Y-52936503D01*
X146605572Y-52696373D01*
X146752007Y-52422412D01*
X146842182Y-52125146D01*
X146872630Y-51816000D01*
X146842182Y-51506854D01*
X146752007Y-51209588D01*
X146605572Y-50935627D01*
X146408503Y-50695497D01*
X146226340Y-50546000D01*
X146408503Y-50396503D01*
X146605572Y-50156373D01*
X146752007Y-49882412D01*
X146842182Y-49585146D01*
X146872630Y-49276000D01*
X146842182Y-48966854D01*
X146752007Y-48669588D01*
X146605572Y-48395627D01*
X146408503Y-48155497D01*
X146226340Y-48006000D01*
X146408503Y-47856503D01*
X146605572Y-47616373D01*
X146752007Y-47342412D01*
X146842182Y-47045146D01*
X146872630Y-46736000D01*
X146842182Y-46426854D01*
X146752007Y-46129588D01*
X146605572Y-45855627D01*
X146408503Y-45615497D01*
X146168373Y-45418428D01*
X145894412Y-45271993D01*
X145597146Y-45181818D01*
X145365469Y-45159000D01*
X145210531Y-45159000D01*
X144978854Y-45181818D01*
X144681588Y-45271993D01*
X144407627Y-45418428D01*
X144244132Y-45552604D01*
X144205403Y-45480147D01*
X144114554Y-45369446D01*
X144003853Y-45278597D01*
X143877557Y-45211090D01*
X143740517Y-45169520D01*
X143598000Y-45155483D01*
X141898000Y-45155483D01*
X141755483Y-45169520D01*
X141618443Y-45211090D01*
X141492147Y-45278597D01*
X141381446Y-45369446D01*
X141290597Y-45480147D01*
X141223090Y-45606443D01*
X141181520Y-45743483D01*
X141167483Y-45886000D01*
X141167483Y-47586000D01*
X141181520Y-47728517D01*
X141223090Y-47865557D01*
X141290597Y-47991853D01*
X141381446Y-48102554D01*
X141492147Y-48193403D01*
X141564604Y-48232132D01*
X141430428Y-48395627D01*
X141283993Y-48669588D01*
X141193818Y-48966854D01*
X141163370Y-49276000D01*
X93884529Y-49276000D01*
X93999921Y-49198898D01*
X94156898Y-49041921D01*
X94280234Y-48857335D01*
X94365190Y-48652234D01*
X94408500Y-48434500D01*
X94408500Y-48212500D01*
X94365190Y-47994766D01*
X94280234Y-47789665D01*
X94156898Y-47605079D01*
X93999921Y-47448102D01*
X93815335Y-47324766D01*
X93610234Y-47239810D01*
X93395327Y-47197062D01*
X90693597Y-44495332D01*
X90666133Y-44461867D01*
X90532592Y-44352273D01*
X90380237Y-44270838D01*
X90214922Y-44220690D01*
X90086079Y-44208000D01*
X90043000Y-44203757D01*
X89999921Y-44208000D01*
X80561076Y-44208000D01*
X80517999Y-44203757D01*
X80474922Y-44208000D01*
X80474921Y-44208000D01*
X80346078Y-44220690D01*
X80180763Y-44270838D01*
X80028408Y-44352273D01*
X80028406Y-44352274D01*
X80028407Y-44352274D01*
X79946348Y-44419618D01*
X79894867Y-44461867D01*
X79867408Y-44495326D01*
X78785327Y-45577408D01*
X78751868Y-45604867D01*
X78724409Y-45638326D01*
X78724406Y-45638329D01*
X78642274Y-45738408D01*
X78560838Y-45890764D01*
X78510690Y-46056078D01*
X78493757Y-46228000D01*
X77968000Y-46228000D01*
X77968000Y-41798400D01*
X95691801Y-41798400D01*
X95691800Y-44235262D01*
X95691800Y-44819462D01*
X95688162Y-44856400D01*
X95702681Y-45003818D01*
X95745682Y-45145570D01*
X95815510Y-45276210D01*
X95909483Y-45390717D01*
X96023990Y-45484690D01*
X96154630Y-45554518D01*
X96296382Y-45597519D01*
X96406862Y-45608400D01*
X96443800Y-45612038D01*
X96480738Y-45608400D01*
X129807862Y-45608400D01*
X129844800Y-45612038D01*
X129881738Y-45608400D01*
X129992218Y-45597519D01*
X130133970Y-45554518D01*
X130264610Y-45484690D01*
X130379117Y-45390717D01*
X130473090Y-45276210D01*
X130542918Y-45145570D01*
X130585919Y-45003818D01*
X130600438Y-44856400D01*
X130596800Y-44819462D01*
X130596800Y-41773000D01*
X149136001Y-41773000D01*
X149136000Y-113351735D01*
M02*
