G04 #@! TF.GenerationSoftware,KiCad,Pcbnew,(5.1.2)-2*
G04 #@! TF.CreationDate,2021-06-22T12:17:49+03:00*
G04 #@! TF.ProjectId,extension_board,65787465-6e73-4696-9f6e-5f626f617264,rev?*
G04 #@! TF.SameCoordinates,Original*
G04 #@! TF.FileFunction,Paste,Top*
G04 #@! TF.FilePolarity,Positive*
%FSLAX46Y46*%
G04 Gerber Fmt 4.6, Leading zero omitted, Abs format (unit mm)*
G04 Created by KiCad (PCBNEW (5.1.2)-2) date 2021-06-22 12:17:49*
%MOMM*%
%LPD*%
G04 APERTURE LIST*
%ADD10R,3.150000X1.000000*%
%ADD11R,2.510000X1.000000*%
%ADD12C,0.100000*%
%ADD13C,1.150000*%
%ADD14C,1.600000*%
%ADD15C,0.950000*%
%ADD16R,1.200000X1.200000*%
%ADD17R,1.600000X1.500000*%
G04 APERTURE END LIST*
D10*
X132095000Y-101854000D03*
X137145000Y-101854000D03*
X132095000Y-104394000D03*
X137145000Y-104394000D03*
X132095000Y-106934000D03*
X137145000Y-106934000D03*
X132095000Y-109474000D03*
X137145000Y-109474000D03*
X132095000Y-112014000D03*
X137145000Y-112014000D03*
X132095000Y-114554000D03*
X137145000Y-114554000D03*
X132095000Y-117094000D03*
X137145000Y-117094000D03*
X132095000Y-119634000D03*
X137145000Y-119634000D03*
X132095000Y-122174000D03*
X137145000Y-122174000D03*
X132095000Y-124714000D03*
X137145000Y-124714000D03*
X132095000Y-127254000D03*
X137145000Y-127254000D03*
X132095000Y-129794000D03*
X137145000Y-129794000D03*
X132095000Y-132334000D03*
X137145000Y-132334000D03*
X132095000Y-134874000D03*
X137145000Y-134874000D03*
D11*
X145990500Y-131000500D03*
X145990500Y-125920500D03*
X145990500Y-120840500D03*
X145990500Y-115760500D03*
X142680500Y-133540500D03*
X142680500Y-128460500D03*
X142680500Y-123380500D03*
X142680500Y-118300500D03*
X142680500Y-113220500D03*
D10*
X86121000Y-120777000D03*
X91171000Y-120777000D03*
X86121000Y-123317000D03*
X91171000Y-123317000D03*
X86121000Y-125857000D03*
X91171000Y-125857000D03*
D12*
G36*
X91807505Y-63817204D02*
G01*
X91831773Y-63820804D01*
X91855572Y-63826765D01*
X91878671Y-63835030D01*
X91900850Y-63845520D01*
X91921893Y-63858132D01*
X91941599Y-63872747D01*
X91959777Y-63889223D01*
X91976253Y-63907401D01*
X91990868Y-63927107D01*
X92003480Y-63948150D01*
X92013970Y-63970329D01*
X92022235Y-63993428D01*
X92028196Y-64017227D01*
X92031796Y-64041495D01*
X92033000Y-64065999D01*
X92033000Y-64966001D01*
X92031796Y-64990505D01*
X92028196Y-65014773D01*
X92022235Y-65038572D01*
X92013970Y-65061671D01*
X92003480Y-65083850D01*
X91990868Y-65104893D01*
X91976253Y-65124599D01*
X91959777Y-65142777D01*
X91941599Y-65159253D01*
X91921893Y-65173868D01*
X91900850Y-65186480D01*
X91878671Y-65196970D01*
X91855572Y-65205235D01*
X91831773Y-65211196D01*
X91807505Y-65214796D01*
X91783001Y-65216000D01*
X91132999Y-65216000D01*
X91108495Y-65214796D01*
X91084227Y-65211196D01*
X91060428Y-65205235D01*
X91037329Y-65196970D01*
X91015150Y-65186480D01*
X90994107Y-65173868D01*
X90974401Y-65159253D01*
X90956223Y-65142777D01*
X90939747Y-65124599D01*
X90925132Y-65104893D01*
X90912520Y-65083850D01*
X90902030Y-65061671D01*
X90893765Y-65038572D01*
X90887804Y-65014773D01*
X90884204Y-64990505D01*
X90883000Y-64966001D01*
X90883000Y-64065999D01*
X90884204Y-64041495D01*
X90887804Y-64017227D01*
X90893765Y-63993428D01*
X90902030Y-63970329D01*
X90912520Y-63948150D01*
X90925132Y-63927107D01*
X90939747Y-63907401D01*
X90956223Y-63889223D01*
X90974401Y-63872747D01*
X90994107Y-63858132D01*
X91015150Y-63845520D01*
X91037329Y-63835030D01*
X91060428Y-63826765D01*
X91084227Y-63820804D01*
X91108495Y-63817204D01*
X91132999Y-63816000D01*
X91783001Y-63816000D01*
X91807505Y-63817204D01*
X91807505Y-63817204D01*
G37*
D13*
X91458000Y-64516000D03*
D12*
G36*
X89757505Y-63817204D02*
G01*
X89781773Y-63820804D01*
X89805572Y-63826765D01*
X89828671Y-63835030D01*
X89850850Y-63845520D01*
X89871893Y-63858132D01*
X89891599Y-63872747D01*
X89909777Y-63889223D01*
X89926253Y-63907401D01*
X89940868Y-63927107D01*
X89953480Y-63948150D01*
X89963970Y-63970329D01*
X89972235Y-63993428D01*
X89978196Y-64017227D01*
X89981796Y-64041495D01*
X89983000Y-64065999D01*
X89983000Y-64966001D01*
X89981796Y-64990505D01*
X89978196Y-65014773D01*
X89972235Y-65038572D01*
X89963970Y-65061671D01*
X89953480Y-65083850D01*
X89940868Y-65104893D01*
X89926253Y-65124599D01*
X89909777Y-65142777D01*
X89891599Y-65159253D01*
X89871893Y-65173868D01*
X89850850Y-65186480D01*
X89828671Y-65196970D01*
X89805572Y-65205235D01*
X89781773Y-65211196D01*
X89757505Y-65214796D01*
X89733001Y-65216000D01*
X89082999Y-65216000D01*
X89058495Y-65214796D01*
X89034227Y-65211196D01*
X89010428Y-65205235D01*
X88987329Y-65196970D01*
X88965150Y-65186480D01*
X88944107Y-65173868D01*
X88924401Y-65159253D01*
X88906223Y-65142777D01*
X88889747Y-65124599D01*
X88875132Y-65104893D01*
X88862520Y-65083850D01*
X88852030Y-65061671D01*
X88843765Y-65038572D01*
X88837804Y-65014773D01*
X88834204Y-64990505D01*
X88833000Y-64966001D01*
X88833000Y-64065999D01*
X88834204Y-64041495D01*
X88837804Y-64017227D01*
X88843765Y-63993428D01*
X88852030Y-63970329D01*
X88862520Y-63948150D01*
X88875132Y-63927107D01*
X88889747Y-63907401D01*
X88906223Y-63889223D01*
X88924401Y-63872747D01*
X88944107Y-63858132D01*
X88965150Y-63845520D01*
X88987329Y-63835030D01*
X89010428Y-63826765D01*
X89034227Y-63820804D01*
X89058495Y-63817204D01*
X89082999Y-63816000D01*
X89733001Y-63816000D01*
X89757505Y-63817204D01*
X89757505Y-63817204D01*
G37*
D13*
X89408000Y-64516000D03*
D12*
G36*
X91914505Y-58082204D02*
G01*
X91938773Y-58085804D01*
X91962572Y-58091765D01*
X91985671Y-58100030D01*
X92007850Y-58110520D01*
X92028893Y-58123132D01*
X92048599Y-58137747D01*
X92066777Y-58154223D01*
X92083253Y-58172401D01*
X92097868Y-58192107D01*
X92110480Y-58213150D01*
X92120970Y-58235329D01*
X92129235Y-58258428D01*
X92135196Y-58282227D01*
X92138796Y-58306495D01*
X92140000Y-58330999D01*
X92140000Y-58981001D01*
X92138796Y-59005505D01*
X92135196Y-59029773D01*
X92129235Y-59053572D01*
X92120970Y-59076671D01*
X92110480Y-59098850D01*
X92097868Y-59119893D01*
X92083253Y-59139599D01*
X92066777Y-59157777D01*
X92048599Y-59174253D01*
X92028893Y-59188868D01*
X92007850Y-59201480D01*
X91985671Y-59211970D01*
X91962572Y-59220235D01*
X91938773Y-59226196D01*
X91914505Y-59229796D01*
X91890001Y-59231000D01*
X90989999Y-59231000D01*
X90965495Y-59229796D01*
X90941227Y-59226196D01*
X90917428Y-59220235D01*
X90894329Y-59211970D01*
X90872150Y-59201480D01*
X90851107Y-59188868D01*
X90831401Y-59174253D01*
X90813223Y-59157777D01*
X90796747Y-59139599D01*
X90782132Y-59119893D01*
X90769520Y-59098850D01*
X90759030Y-59076671D01*
X90750765Y-59053572D01*
X90744804Y-59029773D01*
X90741204Y-59005505D01*
X90740000Y-58981001D01*
X90740000Y-58330999D01*
X90741204Y-58306495D01*
X90744804Y-58282227D01*
X90750765Y-58258428D01*
X90759030Y-58235329D01*
X90769520Y-58213150D01*
X90782132Y-58192107D01*
X90796747Y-58172401D01*
X90813223Y-58154223D01*
X90831401Y-58137747D01*
X90851107Y-58123132D01*
X90872150Y-58110520D01*
X90894329Y-58100030D01*
X90917428Y-58091765D01*
X90941227Y-58085804D01*
X90965495Y-58082204D01*
X90989999Y-58081000D01*
X91890001Y-58081000D01*
X91914505Y-58082204D01*
X91914505Y-58082204D01*
G37*
D13*
X91440000Y-58656000D03*
D12*
G36*
X91914505Y-60132204D02*
G01*
X91938773Y-60135804D01*
X91962572Y-60141765D01*
X91985671Y-60150030D01*
X92007850Y-60160520D01*
X92028893Y-60173132D01*
X92048599Y-60187747D01*
X92066777Y-60204223D01*
X92083253Y-60222401D01*
X92097868Y-60242107D01*
X92110480Y-60263150D01*
X92120970Y-60285329D01*
X92129235Y-60308428D01*
X92135196Y-60332227D01*
X92138796Y-60356495D01*
X92140000Y-60380999D01*
X92140000Y-61031001D01*
X92138796Y-61055505D01*
X92135196Y-61079773D01*
X92129235Y-61103572D01*
X92120970Y-61126671D01*
X92110480Y-61148850D01*
X92097868Y-61169893D01*
X92083253Y-61189599D01*
X92066777Y-61207777D01*
X92048599Y-61224253D01*
X92028893Y-61238868D01*
X92007850Y-61251480D01*
X91985671Y-61261970D01*
X91962572Y-61270235D01*
X91938773Y-61276196D01*
X91914505Y-61279796D01*
X91890001Y-61281000D01*
X90989999Y-61281000D01*
X90965495Y-61279796D01*
X90941227Y-61276196D01*
X90917428Y-61270235D01*
X90894329Y-61261970D01*
X90872150Y-61251480D01*
X90851107Y-61238868D01*
X90831401Y-61224253D01*
X90813223Y-61207777D01*
X90796747Y-61189599D01*
X90782132Y-61169893D01*
X90769520Y-61148850D01*
X90759030Y-61126671D01*
X90750765Y-61103572D01*
X90744804Y-61079773D01*
X90741204Y-61055505D01*
X90740000Y-61031001D01*
X90740000Y-60380999D01*
X90741204Y-60356495D01*
X90744804Y-60332227D01*
X90750765Y-60308428D01*
X90759030Y-60285329D01*
X90769520Y-60263150D01*
X90782132Y-60242107D01*
X90796747Y-60222401D01*
X90813223Y-60204223D01*
X90831401Y-60187747D01*
X90851107Y-60173132D01*
X90872150Y-60160520D01*
X90894329Y-60150030D01*
X90917428Y-60141765D01*
X90941227Y-60135804D01*
X90965495Y-60132204D01*
X90989999Y-60131000D01*
X91890001Y-60131000D01*
X91914505Y-60132204D01*
X91914505Y-60132204D01*
G37*
D13*
X91440000Y-60706000D03*
D12*
G36*
X82612504Y-135107204D02*
G01*
X82636773Y-135110804D01*
X82660571Y-135116765D01*
X82683671Y-135125030D01*
X82705849Y-135135520D01*
X82726893Y-135148133D01*
X82746598Y-135162747D01*
X82764777Y-135179223D01*
X82781253Y-135197402D01*
X82795867Y-135217107D01*
X82808480Y-135238151D01*
X82818970Y-135260329D01*
X82827235Y-135283429D01*
X82833196Y-135307227D01*
X82836796Y-135331496D01*
X82838000Y-135356000D01*
X82838000Y-136456000D01*
X82836796Y-136480504D01*
X82833196Y-136504773D01*
X82827235Y-136528571D01*
X82818970Y-136551671D01*
X82808480Y-136573849D01*
X82795867Y-136594893D01*
X82781253Y-136614598D01*
X82764777Y-136632777D01*
X82746598Y-136649253D01*
X82726893Y-136663867D01*
X82705849Y-136676480D01*
X82683671Y-136686970D01*
X82660571Y-136695235D01*
X82636773Y-136701196D01*
X82612504Y-136704796D01*
X82588000Y-136706000D01*
X80488000Y-136706000D01*
X80463496Y-136704796D01*
X80439227Y-136701196D01*
X80415429Y-136695235D01*
X80392329Y-136686970D01*
X80370151Y-136676480D01*
X80349107Y-136663867D01*
X80329402Y-136649253D01*
X80311223Y-136632777D01*
X80294747Y-136614598D01*
X80280133Y-136594893D01*
X80267520Y-136573849D01*
X80257030Y-136551671D01*
X80248765Y-136528571D01*
X80242804Y-136504773D01*
X80239204Y-136480504D01*
X80238000Y-136456000D01*
X80238000Y-135356000D01*
X80239204Y-135331496D01*
X80242804Y-135307227D01*
X80248765Y-135283429D01*
X80257030Y-135260329D01*
X80267520Y-135238151D01*
X80280133Y-135217107D01*
X80294747Y-135197402D01*
X80311223Y-135179223D01*
X80329402Y-135162747D01*
X80349107Y-135148133D01*
X80370151Y-135135520D01*
X80392329Y-135125030D01*
X80415429Y-135116765D01*
X80439227Y-135110804D01*
X80463496Y-135107204D01*
X80488000Y-135106000D01*
X82588000Y-135106000D01*
X82612504Y-135107204D01*
X82612504Y-135107204D01*
G37*
D14*
X81538000Y-135906000D03*
D12*
G36*
X86212504Y-135107204D02*
G01*
X86236773Y-135110804D01*
X86260571Y-135116765D01*
X86283671Y-135125030D01*
X86305849Y-135135520D01*
X86326893Y-135148133D01*
X86346598Y-135162747D01*
X86364777Y-135179223D01*
X86381253Y-135197402D01*
X86395867Y-135217107D01*
X86408480Y-135238151D01*
X86418970Y-135260329D01*
X86427235Y-135283429D01*
X86433196Y-135307227D01*
X86436796Y-135331496D01*
X86438000Y-135356000D01*
X86438000Y-136456000D01*
X86436796Y-136480504D01*
X86433196Y-136504773D01*
X86427235Y-136528571D01*
X86418970Y-136551671D01*
X86408480Y-136573849D01*
X86395867Y-136594893D01*
X86381253Y-136614598D01*
X86364777Y-136632777D01*
X86346598Y-136649253D01*
X86326893Y-136663867D01*
X86305849Y-136676480D01*
X86283671Y-136686970D01*
X86260571Y-136695235D01*
X86236773Y-136701196D01*
X86212504Y-136704796D01*
X86188000Y-136706000D01*
X84088000Y-136706000D01*
X84063496Y-136704796D01*
X84039227Y-136701196D01*
X84015429Y-136695235D01*
X83992329Y-136686970D01*
X83970151Y-136676480D01*
X83949107Y-136663867D01*
X83929402Y-136649253D01*
X83911223Y-136632777D01*
X83894747Y-136614598D01*
X83880133Y-136594893D01*
X83867520Y-136573849D01*
X83857030Y-136551671D01*
X83848765Y-136528571D01*
X83842804Y-136504773D01*
X83839204Y-136480504D01*
X83838000Y-136456000D01*
X83838000Y-135356000D01*
X83839204Y-135331496D01*
X83842804Y-135307227D01*
X83848765Y-135283429D01*
X83857030Y-135260329D01*
X83867520Y-135238151D01*
X83880133Y-135217107D01*
X83894747Y-135197402D01*
X83911223Y-135179223D01*
X83929402Y-135162747D01*
X83949107Y-135148133D01*
X83970151Y-135135520D01*
X83992329Y-135125030D01*
X84015429Y-135116765D01*
X84039227Y-135110804D01*
X84063496Y-135107204D01*
X84088000Y-135106000D01*
X86188000Y-135106000D01*
X86212504Y-135107204D01*
X86212504Y-135107204D01*
G37*
D14*
X85138000Y-135906000D03*
D12*
G36*
X93077505Y-131889204D02*
G01*
X93101773Y-131892804D01*
X93125572Y-131898765D01*
X93148671Y-131907030D01*
X93170850Y-131917520D01*
X93191893Y-131930132D01*
X93211599Y-131944747D01*
X93229777Y-131961223D01*
X93246253Y-131979401D01*
X93260868Y-131999107D01*
X93273480Y-132020150D01*
X93283970Y-132042329D01*
X93292235Y-132065428D01*
X93298196Y-132089227D01*
X93301796Y-132113495D01*
X93303000Y-132137999D01*
X93303000Y-133038001D01*
X93301796Y-133062505D01*
X93298196Y-133086773D01*
X93292235Y-133110572D01*
X93283970Y-133133671D01*
X93273480Y-133155850D01*
X93260868Y-133176893D01*
X93246253Y-133196599D01*
X93229777Y-133214777D01*
X93211599Y-133231253D01*
X93191893Y-133245868D01*
X93170850Y-133258480D01*
X93148671Y-133268970D01*
X93125572Y-133277235D01*
X93101773Y-133283196D01*
X93077505Y-133286796D01*
X93053001Y-133288000D01*
X92402999Y-133288000D01*
X92378495Y-133286796D01*
X92354227Y-133283196D01*
X92330428Y-133277235D01*
X92307329Y-133268970D01*
X92285150Y-133258480D01*
X92264107Y-133245868D01*
X92244401Y-133231253D01*
X92226223Y-133214777D01*
X92209747Y-133196599D01*
X92195132Y-133176893D01*
X92182520Y-133155850D01*
X92172030Y-133133671D01*
X92163765Y-133110572D01*
X92157804Y-133086773D01*
X92154204Y-133062505D01*
X92153000Y-133038001D01*
X92153000Y-132137999D01*
X92154204Y-132113495D01*
X92157804Y-132089227D01*
X92163765Y-132065428D01*
X92172030Y-132042329D01*
X92182520Y-132020150D01*
X92195132Y-131999107D01*
X92209747Y-131979401D01*
X92226223Y-131961223D01*
X92244401Y-131944747D01*
X92264107Y-131930132D01*
X92285150Y-131917520D01*
X92307329Y-131907030D01*
X92330428Y-131898765D01*
X92354227Y-131892804D01*
X92378495Y-131889204D01*
X92402999Y-131888000D01*
X93053001Y-131888000D01*
X93077505Y-131889204D01*
X93077505Y-131889204D01*
G37*
D13*
X92728000Y-132588000D03*
D12*
G36*
X91027505Y-131889204D02*
G01*
X91051773Y-131892804D01*
X91075572Y-131898765D01*
X91098671Y-131907030D01*
X91120850Y-131917520D01*
X91141893Y-131930132D01*
X91161599Y-131944747D01*
X91179777Y-131961223D01*
X91196253Y-131979401D01*
X91210868Y-131999107D01*
X91223480Y-132020150D01*
X91233970Y-132042329D01*
X91242235Y-132065428D01*
X91248196Y-132089227D01*
X91251796Y-132113495D01*
X91253000Y-132137999D01*
X91253000Y-133038001D01*
X91251796Y-133062505D01*
X91248196Y-133086773D01*
X91242235Y-133110572D01*
X91233970Y-133133671D01*
X91223480Y-133155850D01*
X91210868Y-133176893D01*
X91196253Y-133196599D01*
X91179777Y-133214777D01*
X91161599Y-133231253D01*
X91141893Y-133245868D01*
X91120850Y-133258480D01*
X91098671Y-133268970D01*
X91075572Y-133277235D01*
X91051773Y-133283196D01*
X91027505Y-133286796D01*
X91003001Y-133288000D01*
X90352999Y-133288000D01*
X90328495Y-133286796D01*
X90304227Y-133283196D01*
X90280428Y-133277235D01*
X90257329Y-133268970D01*
X90235150Y-133258480D01*
X90214107Y-133245868D01*
X90194401Y-133231253D01*
X90176223Y-133214777D01*
X90159747Y-133196599D01*
X90145132Y-133176893D01*
X90132520Y-133155850D01*
X90122030Y-133133671D01*
X90113765Y-133110572D01*
X90107804Y-133086773D01*
X90104204Y-133062505D01*
X90103000Y-133038001D01*
X90103000Y-132137999D01*
X90104204Y-132113495D01*
X90107804Y-132089227D01*
X90113765Y-132065428D01*
X90122030Y-132042329D01*
X90132520Y-132020150D01*
X90145132Y-131999107D01*
X90159747Y-131979401D01*
X90176223Y-131961223D01*
X90194401Y-131944747D01*
X90214107Y-131930132D01*
X90235150Y-131917520D01*
X90257329Y-131907030D01*
X90280428Y-131898765D01*
X90304227Y-131892804D01*
X90328495Y-131889204D01*
X90352999Y-131888000D01*
X91003001Y-131888000D01*
X91027505Y-131889204D01*
X91027505Y-131889204D01*
G37*
D13*
X90678000Y-132588000D03*
D12*
G36*
X120997505Y-61402204D02*
G01*
X121021773Y-61405804D01*
X121045572Y-61411765D01*
X121068671Y-61420030D01*
X121090850Y-61430520D01*
X121111893Y-61443132D01*
X121131599Y-61457747D01*
X121149777Y-61474223D01*
X121166253Y-61492401D01*
X121180868Y-61512107D01*
X121193480Y-61533150D01*
X121203970Y-61555329D01*
X121212235Y-61578428D01*
X121218196Y-61602227D01*
X121221796Y-61626495D01*
X121223000Y-61650999D01*
X121223000Y-62301001D01*
X121221796Y-62325505D01*
X121218196Y-62349773D01*
X121212235Y-62373572D01*
X121203970Y-62396671D01*
X121193480Y-62418850D01*
X121180868Y-62439893D01*
X121166253Y-62459599D01*
X121149777Y-62477777D01*
X121131599Y-62494253D01*
X121111893Y-62508868D01*
X121090850Y-62521480D01*
X121068671Y-62531970D01*
X121045572Y-62540235D01*
X121021773Y-62546196D01*
X120997505Y-62549796D01*
X120973001Y-62551000D01*
X120072999Y-62551000D01*
X120048495Y-62549796D01*
X120024227Y-62546196D01*
X120000428Y-62540235D01*
X119977329Y-62531970D01*
X119955150Y-62521480D01*
X119934107Y-62508868D01*
X119914401Y-62494253D01*
X119896223Y-62477777D01*
X119879747Y-62459599D01*
X119865132Y-62439893D01*
X119852520Y-62418850D01*
X119842030Y-62396671D01*
X119833765Y-62373572D01*
X119827804Y-62349773D01*
X119824204Y-62325505D01*
X119823000Y-62301001D01*
X119823000Y-61650999D01*
X119824204Y-61626495D01*
X119827804Y-61602227D01*
X119833765Y-61578428D01*
X119842030Y-61555329D01*
X119852520Y-61533150D01*
X119865132Y-61512107D01*
X119879747Y-61492401D01*
X119896223Y-61474223D01*
X119914401Y-61457747D01*
X119934107Y-61443132D01*
X119955150Y-61430520D01*
X119977329Y-61420030D01*
X120000428Y-61411765D01*
X120024227Y-61405804D01*
X120048495Y-61402204D01*
X120072999Y-61401000D01*
X120973001Y-61401000D01*
X120997505Y-61402204D01*
X120997505Y-61402204D01*
G37*
D13*
X120523000Y-61976000D03*
D12*
G36*
X120997505Y-59352204D02*
G01*
X121021773Y-59355804D01*
X121045572Y-59361765D01*
X121068671Y-59370030D01*
X121090850Y-59380520D01*
X121111893Y-59393132D01*
X121131599Y-59407747D01*
X121149777Y-59424223D01*
X121166253Y-59442401D01*
X121180868Y-59462107D01*
X121193480Y-59483150D01*
X121203970Y-59505329D01*
X121212235Y-59528428D01*
X121218196Y-59552227D01*
X121221796Y-59576495D01*
X121223000Y-59600999D01*
X121223000Y-60251001D01*
X121221796Y-60275505D01*
X121218196Y-60299773D01*
X121212235Y-60323572D01*
X121203970Y-60346671D01*
X121193480Y-60368850D01*
X121180868Y-60389893D01*
X121166253Y-60409599D01*
X121149777Y-60427777D01*
X121131599Y-60444253D01*
X121111893Y-60458868D01*
X121090850Y-60471480D01*
X121068671Y-60481970D01*
X121045572Y-60490235D01*
X121021773Y-60496196D01*
X120997505Y-60499796D01*
X120973001Y-60501000D01*
X120072999Y-60501000D01*
X120048495Y-60499796D01*
X120024227Y-60496196D01*
X120000428Y-60490235D01*
X119977329Y-60481970D01*
X119955150Y-60471480D01*
X119934107Y-60458868D01*
X119914401Y-60444253D01*
X119896223Y-60427777D01*
X119879747Y-60409599D01*
X119865132Y-60389893D01*
X119852520Y-60368850D01*
X119842030Y-60346671D01*
X119833765Y-60323572D01*
X119827804Y-60299773D01*
X119824204Y-60275505D01*
X119823000Y-60251001D01*
X119823000Y-59600999D01*
X119824204Y-59576495D01*
X119827804Y-59552227D01*
X119833765Y-59528428D01*
X119842030Y-59505329D01*
X119852520Y-59483150D01*
X119865132Y-59462107D01*
X119879747Y-59442401D01*
X119896223Y-59424223D01*
X119914401Y-59407747D01*
X119934107Y-59393132D01*
X119955150Y-59380520D01*
X119977329Y-59370030D01*
X120000428Y-59361765D01*
X120024227Y-59355804D01*
X120048495Y-59352204D01*
X120072999Y-59351000D01*
X120973001Y-59351000D01*
X120997505Y-59352204D01*
X120997505Y-59352204D01*
G37*
D13*
X120523000Y-59926000D03*
D12*
G36*
X120997505Y-63942204D02*
G01*
X121021773Y-63945804D01*
X121045572Y-63951765D01*
X121068671Y-63960030D01*
X121090850Y-63970520D01*
X121111893Y-63983132D01*
X121131599Y-63997747D01*
X121149777Y-64014223D01*
X121166253Y-64032401D01*
X121180868Y-64052107D01*
X121193480Y-64073150D01*
X121203970Y-64095329D01*
X121212235Y-64118428D01*
X121218196Y-64142227D01*
X121221796Y-64166495D01*
X121223000Y-64190999D01*
X121223000Y-64841001D01*
X121221796Y-64865505D01*
X121218196Y-64889773D01*
X121212235Y-64913572D01*
X121203970Y-64936671D01*
X121193480Y-64958850D01*
X121180868Y-64979893D01*
X121166253Y-64999599D01*
X121149777Y-65017777D01*
X121131599Y-65034253D01*
X121111893Y-65048868D01*
X121090850Y-65061480D01*
X121068671Y-65071970D01*
X121045572Y-65080235D01*
X121021773Y-65086196D01*
X120997505Y-65089796D01*
X120973001Y-65091000D01*
X120072999Y-65091000D01*
X120048495Y-65089796D01*
X120024227Y-65086196D01*
X120000428Y-65080235D01*
X119977329Y-65071970D01*
X119955150Y-65061480D01*
X119934107Y-65048868D01*
X119914401Y-65034253D01*
X119896223Y-65017777D01*
X119879747Y-64999599D01*
X119865132Y-64979893D01*
X119852520Y-64958850D01*
X119842030Y-64936671D01*
X119833765Y-64913572D01*
X119827804Y-64889773D01*
X119824204Y-64865505D01*
X119823000Y-64841001D01*
X119823000Y-64190999D01*
X119824204Y-64166495D01*
X119827804Y-64142227D01*
X119833765Y-64118428D01*
X119842030Y-64095329D01*
X119852520Y-64073150D01*
X119865132Y-64052107D01*
X119879747Y-64032401D01*
X119896223Y-64014223D01*
X119914401Y-63997747D01*
X119934107Y-63983132D01*
X119955150Y-63970520D01*
X119977329Y-63960030D01*
X120000428Y-63951765D01*
X120024227Y-63945804D01*
X120048495Y-63942204D01*
X120072999Y-63941000D01*
X120973001Y-63941000D01*
X120997505Y-63942204D01*
X120997505Y-63942204D01*
G37*
D13*
X120523000Y-64516000D03*
D12*
G36*
X120997505Y-65992204D02*
G01*
X121021773Y-65995804D01*
X121045572Y-66001765D01*
X121068671Y-66010030D01*
X121090850Y-66020520D01*
X121111893Y-66033132D01*
X121131599Y-66047747D01*
X121149777Y-66064223D01*
X121166253Y-66082401D01*
X121180868Y-66102107D01*
X121193480Y-66123150D01*
X121203970Y-66145329D01*
X121212235Y-66168428D01*
X121218196Y-66192227D01*
X121221796Y-66216495D01*
X121223000Y-66240999D01*
X121223000Y-66891001D01*
X121221796Y-66915505D01*
X121218196Y-66939773D01*
X121212235Y-66963572D01*
X121203970Y-66986671D01*
X121193480Y-67008850D01*
X121180868Y-67029893D01*
X121166253Y-67049599D01*
X121149777Y-67067777D01*
X121131599Y-67084253D01*
X121111893Y-67098868D01*
X121090850Y-67111480D01*
X121068671Y-67121970D01*
X121045572Y-67130235D01*
X121021773Y-67136196D01*
X120997505Y-67139796D01*
X120973001Y-67141000D01*
X120072999Y-67141000D01*
X120048495Y-67139796D01*
X120024227Y-67136196D01*
X120000428Y-67130235D01*
X119977329Y-67121970D01*
X119955150Y-67111480D01*
X119934107Y-67098868D01*
X119914401Y-67084253D01*
X119896223Y-67067777D01*
X119879747Y-67049599D01*
X119865132Y-67029893D01*
X119852520Y-67008850D01*
X119842030Y-66986671D01*
X119833765Y-66963572D01*
X119827804Y-66939773D01*
X119824204Y-66915505D01*
X119823000Y-66891001D01*
X119823000Y-66240999D01*
X119824204Y-66216495D01*
X119827804Y-66192227D01*
X119833765Y-66168428D01*
X119842030Y-66145329D01*
X119852520Y-66123150D01*
X119865132Y-66102107D01*
X119879747Y-66082401D01*
X119896223Y-66064223D01*
X119914401Y-66047747D01*
X119934107Y-66033132D01*
X119955150Y-66020520D01*
X119977329Y-66010030D01*
X120000428Y-66001765D01*
X120024227Y-65995804D01*
X120048495Y-65992204D01*
X120072999Y-65991000D01*
X120973001Y-65991000D01*
X120997505Y-65992204D01*
X120997505Y-65992204D01*
G37*
D13*
X120523000Y-66566000D03*
D12*
G36*
X115240171Y-61402204D02*
G01*
X115264439Y-61405804D01*
X115288238Y-61411765D01*
X115311337Y-61420030D01*
X115333516Y-61430520D01*
X115354559Y-61443132D01*
X115374265Y-61457747D01*
X115392443Y-61474223D01*
X115408919Y-61492401D01*
X115423534Y-61512107D01*
X115436146Y-61533150D01*
X115446636Y-61555329D01*
X115454901Y-61578428D01*
X115460862Y-61602227D01*
X115464462Y-61626495D01*
X115465666Y-61650999D01*
X115465666Y-62301001D01*
X115464462Y-62325505D01*
X115460862Y-62349773D01*
X115454901Y-62373572D01*
X115446636Y-62396671D01*
X115436146Y-62418850D01*
X115423534Y-62439893D01*
X115408919Y-62459599D01*
X115392443Y-62477777D01*
X115374265Y-62494253D01*
X115354559Y-62508868D01*
X115333516Y-62521480D01*
X115311337Y-62531970D01*
X115288238Y-62540235D01*
X115264439Y-62546196D01*
X115240171Y-62549796D01*
X115215667Y-62551000D01*
X114315665Y-62551000D01*
X114291161Y-62549796D01*
X114266893Y-62546196D01*
X114243094Y-62540235D01*
X114219995Y-62531970D01*
X114197816Y-62521480D01*
X114176773Y-62508868D01*
X114157067Y-62494253D01*
X114138889Y-62477777D01*
X114122413Y-62459599D01*
X114107798Y-62439893D01*
X114095186Y-62418850D01*
X114084696Y-62396671D01*
X114076431Y-62373572D01*
X114070470Y-62349773D01*
X114066870Y-62325505D01*
X114065666Y-62301001D01*
X114065666Y-61650999D01*
X114066870Y-61626495D01*
X114070470Y-61602227D01*
X114076431Y-61578428D01*
X114084696Y-61555329D01*
X114095186Y-61533150D01*
X114107798Y-61512107D01*
X114122413Y-61492401D01*
X114138889Y-61474223D01*
X114157067Y-61457747D01*
X114176773Y-61443132D01*
X114197816Y-61430520D01*
X114219995Y-61420030D01*
X114243094Y-61411765D01*
X114266893Y-61405804D01*
X114291161Y-61402204D01*
X114315665Y-61401000D01*
X115215667Y-61401000D01*
X115240171Y-61402204D01*
X115240171Y-61402204D01*
G37*
D13*
X114765666Y-61976000D03*
D12*
G36*
X115240171Y-59352204D02*
G01*
X115264439Y-59355804D01*
X115288238Y-59361765D01*
X115311337Y-59370030D01*
X115333516Y-59380520D01*
X115354559Y-59393132D01*
X115374265Y-59407747D01*
X115392443Y-59424223D01*
X115408919Y-59442401D01*
X115423534Y-59462107D01*
X115436146Y-59483150D01*
X115446636Y-59505329D01*
X115454901Y-59528428D01*
X115460862Y-59552227D01*
X115464462Y-59576495D01*
X115465666Y-59600999D01*
X115465666Y-60251001D01*
X115464462Y-60275505D01*
X115460862Y-60299773D01*
X115454901Y-60323572D01*
X115446636Y-60346671D01*
X115436146Y-60368850D01*
X115423534Y-60389893D01*
X115408919Y-60409599D01*
X115392443Y-60427777D01*
X115374265Y-60444253D01*
X115354559Y-60458868D01*
X115333516Y-60471480D01*
X115311337Y-60481970D01*
X115288238Y-60490235D01*
X115264439Y-60496196D01*
X115240171Y-60499796D01*
X115215667Y-60501000D01*
X114315665Y-60501000D01*
X114291161Y-60499796D01*
X114266893Y-60496196D01*
X114243094Y-60490235D01*
X114219995Y-60481970D01*
X114197816Y-60471480D01*
X114176773Y-60458868D01*
X114157067Y-60444253D01*
X114138889Y-60427777D01*
X114122413Y-60409599D01*
X114107798Y-60389893D01*
X114095186Y-60368850D01*
X114084696Y-60346671D01*
X114076431Y-60323572D01*
X114070470Y-60299773D01*
X114066870Y-60275505D01*
X114065666Y-60251001D01*
X114065666Y-59600999D01*
X114066870Y-59576495D01*
X114070470Y-59552227D01*
X114076431Y-59528428D01*
X114084696Y-59505329D01*
X114095186Y-59483150D01*
X114107798Y-59462107D01*
X114122413Y-59442401D01*
X114138889Y-59424223D01*
X114157067Y-59407747D01*
X114176773Y-59393132D01*
X114197816Y-59380520D01*
X114219995Y-59370030D01*
X114243094Y-59361765D01*
X114266893Y-59355804D01*
X114291161Y-59352204D01*
X114315665Y-59351000D01*
X115215667Y-59351000D01*
X115240171Y-59352204D01*
X115240171Y-59352204D01*
G37*
D13*
X114765666Y-59926000D03*
D12*
G36*
X115282505Y-63942204D02*
G01*
X115306773Y-63945804D01*
X115330572Y-63951765D01*
X115353671Y-63960030D01*
X115375850Y-63970520D01*
X115396893Y-63983132D01*
X115416599Y-63997747D01*
X115434777Y-64014223D01*
X115451253Y-64032401D01*
X115465868Y-64052107D01*
X115478480Y-64073150D01*
X115488970Y-64095329D01*
X115497235Y-64118428D01*
X115503196Y-64142227D01*
X115506796Y-64166495D01*
X115508000Y-64190999D01*
X115508000Y-64841001D01*
X115506796Y-64865505D01*
X115503196Y-64889773D01*
X115497235Y-64913572D01*
X115488970Y-64936671D01*
X115478480Y-64958850D01*
X115465868Y-64979893D01*
X115451253Y-64999599D01*
X115434777Y-65017777D01*
X115416599Y-65034253D01*
X115396893Y-65048868D01*
X115375850Y-65061480D01*
X115353671Y-65071970D01*
X115330572Y-65080235D01*
X115306773Y-65086196D01*
X115282505Y-65089796D01*
X115258001Y-65091000D01*
X114357999Y-65091000D01*
X114333495Y-65089796D01*
X114309227Y-65086196D01*
X114285428Y-65080235D01*
X114262329Y-65071970D01*
X114240150Y-65061480D01*
X114219107Y-65048868D01*
X114199401Y-65034253D01*
X114181223Y-65017777D01*
X114164747Y-64999599D01*
X114150132Y-64979893D01*
X114137520Y-64958850D01*
X114127030Y-64936671D01*
X114118765Y-64913572D01*
X114112804Y-64889773D01*
X114109204Y-64865505D01*
X114108000Y-64841001D01*
X114108000Y-64190999D01*
X114109204Y-64166495D01*
X114112804Y-64142227D01*
X114118765Y-64118428D01*
X114127030Y-64095329D01*
X114137520Y-64073150D01*
X114150132Y-64052107D01*
X114164747Y-64032401D01*
X114181223Y-64014223D01*
X114199401Y-63997747D01*
X114219107Y-63983132D01*
X114240150Y-63970520D01*
X114262329Y-63960030D01*
X114285428Y-63951765D01*
X114309227Y-63945804D01*
X114333495Y-63942204D01*
X114357999Y-63941000D01*
X115258001Y-63941000D01*
X115282505Y-63942204D01*
X115282505Y-63942204D01*
G37*
D13*
X114808000Y-64516000D03*
D12*
G36*
X115282505Y-65992204D02*
G01*
X115306773Y-65995804D01*
X115330572Y-66001765D01*
X115353671Y-66010030D01*
X115375850Y-66020520D01*
X115396893Y-66033132D01*
X115416599Y-66047747D01*
X115434777Y-66064223D01*
X115451253Y-66082401D01*
X115465868Y-66102107D01*
X115478480Y-66123150D01*
X115488970Y-66145329D01*
X115497235Y-66168428D01*
X115503196Y-66192227D01*
X115506796Y-66216495D01*
X115508000Y-66240999D01*
X115508000Y-66891001D01*
X115506796Y-66915505D01*
X115503196Y-66939773D01*
X115497235Y-66963572D01*
X115488970Y-66986671D01*
X115478480Y-67008850D01*
X115465868Y-67029893D01*
X115451253Y-67049599D01*
X115434777Y-67067777D01*
X115416599Y-67084253D01*
X115396893Y-67098868D01*
X115375850Y-67111480D01*
X115353671Y-67121970D01*
X115330572Y-67130235D01*
X115306773Y-67136196D01*
X115282505Y-67139796D01*
X115258001Y-67141000D01*
X114357999Y-67141000D01*
X114333495Y-67139796D01*
X114309227Y-67136196D01*
X114285428Y-67130235D01*
X114262329Y-67121970D01*
X114240150Y-67111480D01*
X114219107Y-67098868D01*
X114199401Y-67084253D01*
X114181223Y-67067777D01*
X114164747Y-67049599D01*
X114150132Y-67029893D01*
X114137520Y-67008850D01*
X114127030Y-66986671D01*
X114118765Y-66963572D01*
X114112804Y-66939773D01*
X114109204Y-66915505D01*
X114108000Y-66891001D01*
X114108000Y-66240999D01*
X114109204Y-66216495D01*
X114112804Y-66192227D01*
X114118765Y-66168428D01*
X114127030Y-66145329D01*
X114137520Y-66123150D01*
X114150132Y-66102107D01*
X114164747Y-66082401D01*
X114181223Y-66064223D01*
X114199401Y-66047747D01*
X114219107Y-66033132D01*
X114240150Y-66020520D01*
X114262329Y-66010030D01*
X114285428Y-66001765D01*
X114309227Y-65995804D01*
X114333495Y-65992204D01*
X114357999Y-65991000D01*
X115258001Y-65991000D01*
X115282505Y-65992204D01*
X115282505Y-65992204D01*
G37*
D13*
X114808000Y-66566000D03*
D12*
G36*
X109482838Y-59352204D02*
G01*
X109507106Y-59355804D01*
X109530905Y-59361765D01*
X109554004Y-59370030D01*
X109576183Y-59380520D01*
X109597226Y-59393132D01*
X109616932Y-59407747D01*
X109635110Y-59424223D01*
X109651586Y-59442401D01*
X109666201Y-59462107D01*
X109678813Y-59483150D01*
X109689303Y-59505329D01*
X109697568Y-59528428D01*
X109703529Y-59552227D01*
X109707129Y-59576495D01*
X109708333Y-59600999D01*
X109708333Y-60251001D01*
X109707129Y-60275505D01*
X109703529Y-60299773D01*
X109697568Y-60323572D01*
X109689303Y-60346671D01*
X109678813Y-60368850D01*
X109666201Y-60389893D01*
X109651586Y-60409599D01*
X109635110Y-60427777D01*
X109616932Y-60444253D01*
X109597226Y-60458868D01*
X109576183Y-60471480D01*
X109554004Y-60481970D01*
X109530905Y-60490235D01*
X109507106Y-60496196D01*
X109482838Y-60499796D01*
X109458334Y-60501000D01*
X108558332Y-60501000D01*
X108533828Y-60499796D01*
X108509560Y-60496196D01*
X108485761Y-60490235D01*
X108462662Y-60481970D01*
X108440483Y-60471480D01*
X108419440Y-60458868D01*
X108399734Y-60444253D01*
X108381556Y-60427777D01*
X108365080Y-60409599D01*
X108350465Y-60389893D01*
X108337853Y-60368850D01*
X108327363Y-60346671D01*
X108319098Y-60323572D01*
X108313137Y-60299773D01*
X108309537Y-60275505D01*
X108308333Y-60251001D01*
X108308333Y-59600999D01*
X108309537Y-59576495D01*
X108313137Y-59552227D01*
X108319098Y-59528428D01*
X108327363Y-59505329D01*
X108337853Y-59483150D01*
X108350465Y-59462107D01*
X108365080Y-59442401D01*
X108381556Y-59424223D01*
X108399734Y-59407747D01*
X108419440Y-59393132D01*
X108440483Y-59380520D01*
X108462662Y-59370030D01*
X108485761Y-59361765D01*
X108509560Y-59355804D01*
X108533828Y-59352204D01*
X108558332Y-59351000D01*
X109458334Y-59351000D01*
X109482838Y-59352204D01*
X109482838Y-59352204D01*
G37*
D13*
X109008333Y-59926000D03*
D12*
G36*
X109482838Y-61402204D02*
G01*
X109507106Y-61405804D01*
X109530905Y-61411765D01*
X109554004Y-61420030D01*
X109576183Y-61430520D01*
X109597226Y-61443132D01*
X109616932Y-61457747D01*
X109635110Y-61474223D01*
X109651586Y-61492401D01*
X109666201Y-61512107D01*
X109678813Y-61533150D01*
X109689303Y-61555329D01*
X109697568Y-61578428D01*
X109703529Y-61602227D01*
X109707129Y-61626495D01*
X109708333Y-61650999D01*
X109708333Y-62301001D01*
X109707129Y-62325505D01*
X109703529Y-62349773D01*
X109697568Y-62373572D01*
X109689303Y-62396671D01*
X109678813Y-62418850D01*
X109666201Y-62439893D01*
X109651586Y-62459599D01*
X109635110Y-62477777D01*
X109616932Y-62494253D01*
X109597226Y-62508868D01*
X109576183Y-62521480D01*
X109554004Y-62531970D01*
X109530905Y-62540235D01*
X109507106Y-62546196D01*
X109482838Y-62549796D01*
X109458334Y-62551000D01*
X108558332Y-62551000D01*
X108533828Y-62549796D01*
X108509560Y-62546196D01*
X108485761Y-62540235D01*
X108462662Y-62531970D01*
X108440483Y-62521480D01*
X108419440Y-62508868D01*
X108399734Y-62494253D01*
X108381556Y-62477777D01*
X108365080Y-62459599D01*
X108350465Y-62439893D01*
X108337853Y-62418850D01*
X108327363Y-62396671D01*
X108319098Y-62373572D01*
X108313137Y-62349773D01*
X108309537Y-62325505D01*
X108308333Y-62301001D01*
X108308333Y-61650999D01*
X108309537Y-61626495D01*
X108313137Y-61602227D01*
X108319098Y-61578428D01*
X108327363Y-61555329D01*
X108337853Y-61533150D01*
X108350465Y-61512107D01*
X108365080Y-61492401D01*
X108381556Y-61474223D01*
X108399734Y-61457747D01*
X108419440Y-61443132D01*
X108440483Y-61430520D01*
X108462662Y-61420030D01*
X108485761Y-61411765D01*
X108509560Y-61405804D01*
X108533828Y-61402204D01*
X108558332Y-61401000D01*
X109458334Y-61401000D01*
X109482838Y-61402204D01*
X109482838Y-61402204D01*
G37*
D13*
X109008333Y-61976000D03*
D12*
G36*
X109440505Y-65992204D02*
G01*
X109464773Y-65995804D01*
X109488572Y-66001765D01*
X109511671Y-66010030D01*
X109533850Y-66020520D01*
X109554893Y-66033132D01*
X109574599Y-66047747D01*
X109592777Y-66064223D01*
X109609253Y-66082401D01*
X109623868Y-66102107D01*
X109636480Y-66123150D01*
X109646970Y-66145329D01*
X109655235Y-66168428D01*
X109661196Y-66192227D01*
X109664796Y-66216495D01*
X109666000Y-66240999D01*
X109666000Y-66891001D01*
X109664796Y-66915505D01*
X109661196Y-66939773D01*
X109655235Y-66963572D01*
X109646970Y-66986671D01*
X109636480Y-67008850D01*
X109623868Y-67029893D01*
X109609253Y-67049599D01*
X109592777Y-67067777D01*
X109574599Y-67084253D01*
X109554893Y-67098868D01*
X109533850Y-67111480D01*
X109511671Y-67121970D01*
X109488572Y-67130235D01*
X109464773Y-67136196D01*
X109440505Y-67139796D01*
X109416001Y-67141000D01*
X108515999Y-67141000D01*
X108491495Y-67139796D01*
X108467227Y-67136196D01*
X108443428Y-67130235D01*
X108420329Y-67121970D01*
X108398150Y-67111480D01*
X108377107Y-67098868D01*
X108357401Y-67084253D01*
X108339223Y-67067777D01*
X108322747Y-67049599D01*
X108308132Y-67029893D01*
X108295520Y-67008850D01*
X108285030Y-66986671D01*
X108276765Y-66963572D01*
X108270804Y-66939773D01*
X108267204Y-66915505D01*
X108266000Y-66891001D01*
X108266000Y-66240999D01*
X108267204Y-66216495D01*
X108270804Y-66192227D01*
X108276765Y-66168428D01*
X108285030Y-66145329D01*
X108295520Y-66123150D01*
X108308132Y-66102107D01*
X108322747Y-66082401D01*
X108339223Y-66064223D01*
X108357401Y-66047747D01*
X108377107Y-66033132D01*
X108398150Y-66020520D01*
X108420329Y-66010030D01*
X108443428Y-66001765D01*
X108467227Y-65995804D01*
X108491495Y-65992204D01*
X108515999Y-65991000D01*
X109416001Y-65991000D01*
X109440505Y-65992204D01*
X109440505Y-65992204D01*
G37*
D13*
X108966000Y-66566000D03*
D12*
G36*
X109440505Y-63942204D02*
G01*
X109464773Y-63945804D01*
X109488572Y-63951765D01*
X109511671Y-63960030D01*
X109533850Y-63970520D01*
X109554893Y-63983132D01*
X109574599Y-63997747D01*
X109592777Y-64014223D01*
X109609253Y-64032401D01*
X109623868Y-64052107D01*
X109636480Y-64073150D01*
X109646970Y-64095329D01*
X109655235Y-64118428D01*
X109661196Y-64142227D01*
X109664796Y-64166495D01*
X109666000Y-64190999D01*
X109666000Y-64841001D01*
X109664796Y-64865505D01*
X109661196Y-64889773D01*
X109655235Y-64913572D01*
X109646970Y-64936671D01*
X109636480Y-64958850D01*
X109623868Y-64979893D01*
X109609253Y-64999599D01*
X109592777Y-65017777D01*
X109574599Y-65034253D01*
X109554893Y-65048868D01*
X109533850Y-65061480D01*
X109511671Y-65071970D01*
X109488572Y-65080235D01*
X109464773Y-65086196D01*
X109440505Y-65089796D01*
X109416001Y-65091000D01*
X108515999Y-65091000D01*
X108491495Y-65089796D01*
X108467227Y-65086196D01*
X108443428Y-65080235D01*
X108420329Y-65071970D01*
X108398150Y-65061480D01*
X108377107Y-65048868D01*
X108357401Y-65034253D01*
X108339223Y-65017777D01*
X108322747Y-64999599D01*
X108308132Y-64979893D01*
X108295520Y-64958850D01*
X108285030Y-64936671D01*
X108276765Y-64913572D01*
X108270804Y-64889773D01*
X108267204Y-64865505D01*
X108266000Y-64841001D01*
X108266000Y-64190999D01*
X108267204Y-64166495D01*
X108270804Y-64142227D01*
X108276765Y-64118428D01*
X108285030Y-64095329D01*
X108295520Y-64073150D01*
X108308132Y-64052107D01*
X108322747Y-64032401D01*
X108339223Y-64014223D01*
X108357401Y-63997747D01*
X108377107Y-63983132D01*
X108398150Y-63970520D01*
X108420329Y-63960030D01*
X108443428Y-63951765D01*
X108467227Y-63945804D01*
X108491495Y-63942204D01*
X108515999Y-63941000D01*
X109416001Y-63941000D01*
X109440505Y-63942204D01*
X109440505Y-63942204D01*
G37*
D13*
X108966000Y-64516000D03*
D12*
G36*
X103725505Y-61402204D02*
G01*
X103749773Y-61405804D01*
X103773572Y-61411765D01*
X103796671Y-61420030D01*
X103818850Y-61430520D01*
X103839893Y-61443132D01*
X103859599Y-61457747D01*
X103877777Y-61474223D01*
X103894253Y-61492401D01*
X103908868Y-61512107D01*
X103921480Y-61533150D01*
X103931970Y-61555329D01*
X103940235Y-61578428D01*
X103946196Y-61602227D01*
X103949796Y-61626495D01*
X103951000Y-61650999D01*
X103951000Y-62301001D01*
X103949796Y-62325505D01*
X103946196Y-62349773D01*
X103940235Y-62373572D01*
X103931970Y-62396671D01*
X103921480Y-62418850D01*
X103908868Y-62439893D01*
X103894253Y-62459599D01*
X103877777Y-62477777D01*
X103859599Y-62494253D01*
X103839893Y-62508868D01*
X103818850Y-62521480D01*
X103796671Y-62531970D01*
X103773572Y-62540235D01*
X103749773Y-62546196D01*
X103725505Y-62549796D01*
X103701001Y-62551000D01*
X102800999Y-62551000D01*
X102776495Y-62549796D01*
X102752227Y-62546196D01*
X102728428Y-62540235D01*
X102705329Y-62531970D01*
X102683150Y-62521480D01*
X102662107Y-62508868D01*
X102642401Y-62494253D01*
X102624223Y-62477777D01*
X102607747Y-62459599D01*
X102593132Y-62439893D01*
X102580520Y-62418850D01*
X102570030Y-62396671D01*
X102561765Y-62373572D01*
X102555804Y-62349773D01*
X102552204Y-62325505D01*
X102551000Y-62301001D01*
X102551000Y-61650999D01*
X102552204Y-61626495D01*
X102555804Y-61602227D01*
X102561765Y-61578428D01*
X102570030Y-61555329D01*
X102580520Y-61533150D01*
X102593132Y-61512107D01*
X102607747Y-61492401D01*
X102624223Y-61474223D01*
X102642401Y-61457747D01*
X102662107Y-61443132D01*
X102683150Y-61430520D01*
X102705329Y-61420030D01*
X102728428Y-61411765D01*
X102752227Y-61405804D01*
X102776495Y-61402204D01*
X102800999Y-61401000D01*
X103701001Y-61401000D01*
X103725505Y-61402204D01*
X103725505Y-61402204D01*
G37*
D13*
X103251000Y-61976000D03*
D12*
G36*
X103725505Y-59352204D02*
G01*
X103749773Y-59355804D01*
X103773572Y-59361765D01*
X103796671Y-59370030D01*
X103818850Y-59380520D01*
X103839893Y-59393132D01*
X103859599Y-59407747D01*
X103877777Y-59424223D01*
X103894253Y-59442401D01*
X103908868Y-59462107D01*
X103921480Y-59483150D01*
X103931970Y-59505329D01*
X103940235Y-59528428D01*
X103946196Y-59552227D01*
X103949796Y-59576495D01*
X103951000Y-59600999D01*
X103951000Y-60251001D01*
X103949796Y-60275505D01*
X103946196Y-60299773D01*
X103940235Y-60323572D01*
X103931970Y-60346671D01*
X103921480Y-60368850D01*
X103908868Y-60389893D01*
X103894253Y-60409599D01*
X103877777Y-60427777D01*
X103859599Y-60444253D01*
X103839893Y-60458868D01*
X103818850Y-60471480D01*
X103796671Y-60481970D01*
X103773572Y-60490235D01*
X103749773Y-60496196D01*
X103725505Y-60499796D01*
X103701001Y-60501000D01*
X102800999Y-60501000D01*
X102776495Y-60499796D01*
X102752227Y-60496196D01*
X102728428Y-60490235D01*
X102705329Y-60481970D01*
X102683150Y-60471480D01*
X102662107Y-60458868D01*
X102642401Y-60444253D01*
X102624223Y-60427777D01*
X102607747Y-60409599D01*
X102593132Y-60389893D01*
X102580520Y-60368850D01*
X102570030Y-60346671D01*
X102561765Y-60323572D01*
X102555804Y-60299773D01*
X102552204Y-60275505D01*
X102551000Y-60251001D01*
X102551000Y-59600999D01*
X102552204Y-59576495D01*
X102555804Y-59552227D01*
X102561765Y-59528428D01*
X102570030Y-59505329D01*
X102580520Y-59483150D01*
X102593132Y-59462107D01*
X102607747Y-59442401D01*
X102624223Y-59424223D01*
X102642401Y-59407747D01*
X102662107Y-59393132D01*
X102683150Y-59380520D01*
X102705329Y-59370030D01*
X102728428Y-59361765D01*
X102752227Y-59355804D01*
X102776495Y-59352204D01*
X102800999Y-59351000D01*
X103701001Y-59351000D01*
X103725505Y-59352204D01*
X103725505Y-59352204D01*
G37*
D13*
X103251000Y-59926000D03*
D12*
G36*
X103725505Y-63942204D02*
G01*
X103749773Y-63945804D01*
X103773572Y-63951765D01*
X103796671Y-63960030D01*
X103818850Y-63970520D01*
X103839893Y-63983132D01*
X103859599Y-63997747D01*
X103877777Y-64014223D01*
X103894253Y-64032401D01*
X103908868Y-64052107D01*
X103921480Y-64073150D01*
X103931970Y-64095329D01*
X103940235Y-64118428D01*
X103946196Y-64142227D01*
X103949796Y-64166495D01*
X103951000Y-64190999D01*
X103951000Y-64841001D01*
X103949796Y-64865505D01*
X103946196Y-64889773D01*
X103940235Y-64913572D01*
X103931970Y-64936671D01*
X103921480Y-64958850D01*
X103908868Y-64979893D01*
X103894253Y-64999599D01*
X103877777Y-65017777D01*
X103859599Y-65034253D01*
X103839893Y-65048868D01*
X103818850Y-65061480D01*
X103796671Y-65071970D01*
X103773572Y-65080235D01*
X103749773Y-65086196D01*
X103725505Y-65089796D01*
X103701001Y-65091000D01*
X102800999Y-65091000D01*
X102776495Y-65089796D01*
X102752227Y-65086196D01*
X102728428Y-65080235D01*
X102705329Y-65071970D01*
X102683150Y-65061480D01*
X102662107Y-65048868D01*
X102642401Y-65034253D01*
X102624223Y-65017777D01*
X102607747Y-64999599D01*
X102593132Y-64979893D01*
X102580520Y-64958850D01*
X102570030Y-64936671D01*
X102561765Y-64913572D01*
X102555804Y-64889773D01*
X102552204Y-64865505D01*
X102551000Y-64841001D01*
X102551000Y-64190999D01*
X102552204Y-64166495D01*
X102555804Y-64142227D01*
X102561765Y-64118428D01*
X102570030Y-64095329D01*
X102580520Y-64073150D01*
X102593132Y-64052107D01*
X102607747Y-64032401D01*
X102624223Y-64014223D01*
X102642401Y-63997747D01*
X102662107Y-63983132D01*
X102683150Y-63970520D01*
X102705329Y-63960030D01*
X102728428Y-63951765D01*
X102752227Y-63945804D01*
X102776495Y-63942204D01*
X102800999Y-63941000D01*
X103701001Y-63941000D01*
X103725505Y-63942204D01*
X103725505Y-63942204D01*
G37*
D13*
X103251000Y-64516000D03*
D12*
G36*
X103725505Y-65992204D02*
G01*
X103749773Y-65995804D01*
X103773572Y-66001765D01*
X103796671Y-66010030D01*
X103818850Y-66020520D01*
X103839893Y-66033132D01*
X103859599Y-66047747D01*
X103877777Y-66064223D01*
X103894253Y-66082401D01*
X103908868Y-66102107D01*
X103921480Y-66123150D01*
X103931970Y-66145329D01*
X103940235Y-66168428D01*
X103946196Y-66192227D01*
X103949796Y-66216495D01*
X103951000Y-66240999D01*
X103951000Y-66891001D01*
X103949796Y-66915505D01*
X103946196Y-66939773D01*
X103940235Y-66963572D01*
X103931970Y-66986671D01*
X103921480Y-67008850D01*
X103908868Y-67029893D01*
X103894253Y-67049599D01*
X103877777Y-67067777D01*
X103859599Y-67084253D01*
X103839893Y-67098868D01*
X103818850Y-67111480D01*
X103796671Y-67121970D01*
X103773572Y-67130235D01*
X103749773Y-67136196D01*
X103725505Y-67139796D01*
X103701001Y-67141000D01*
X102800999Y-67141000D01*
X102776495Y-67139796D01*
X102752227Y-67136196D01*
X102728428Y-67130235D01*
X102705329Y-67121970D01*
X102683150Y-67111480D01*
X102662107Y-67098868D01*
X102642401Y-67084253D01*
X102624223Y-67067777D01*
X102607747Y-67049599D01*
X102593132Y-67029893D01*
X102580520Y-67008850D01*
X102570030Y-66986671D01*
X102561765Y-66963572D01*
X102555804Y-66939773D01*
X102552204Y-66915505D01*
X102551000Y-66891001D01*
X102551000Y-66240999D01*
X102552204Y-66216495D01*
X102555804Y-66192227D01*
X102561765Y-66168428D01*
X102570030Y-66145329D01*
X102580520Y-66123150D01*
X102593132Y-66102107D01*
X102607747Y-66082401D01*
X102624223Y-66064223D01*
X102642401Y-66047747D01*
X102662107Y-66033132D01*
X102683150Y-66020520D01*
X102705329Y-66010030D01*
X102728428Y-66001765D01*
X102752227Y-65995804D01*
X102776495Y-65992204D01*
X102800999Y-65991000D01*
X103701001Y-65991000D01*
X103725505Y-65992204D01*
X103725505Y-65992204D01*
G37*
D13*
X103251000Y-66566000D03*
D12*
G36*
X97622505Y-131889204D02*
G01*
X97646773Y-131892804D01*
X97670572Y-131898765D01*
X97693671Y-131907030D01*
X97715850Y-131917520D01*
X97736893Y-131930132D01*
X97756599Y-131944747D01*
X97774777Y-131961223D01*
X97791253Y-131979401D01*
X97805868Y-131999107D01*
X97818480Y-132020150D01*
X97828970Y-132042329D01*
X97837235Y-132065428D01*
X97843196Y-132089227D01*
X97846796Y-132113495D01*
X97848000Y-132137999D01*
X97848000Y-133038001D01*
X97846796Y-133062505D01*
X97843196Y-133086773D01*
X97837235Y-133110572D01*
X97828970Y-133133671D01*
X97818480Y-133155850D01*
X97805868Y-133176893D01*
X97791253Y-133196599D01*
X97774777Y-133214777D01*
X97756599Y-133231253D01*
X97736893Y-133245868D01*
X97715850Y-133258480D01*
X97693671Y-133268970D01*
X97670572Y-133277235D01*
X97646773Y-133283196D01*
X97622505Y-133286796D01*
X97598001Y-133288000D01*
X96947999Y-133288000D01*
X96923495Y-133286796D01*
X96899227Y-133283196D01*
X96875428Y-133277235D01*
X96852329Y-133268970D01*
X96830150Y-133258480D01*
X96809107Y-133245868D01*
X96789401Y-133231253D01*
X96771223Y-133214777D01*
X96754747Y-133196599D01*
X96740132Y-133176893D01*
X96727520Y-133155850D01*
X96717030Y-133133671D01*
X96708765Y-133110572D01*
X96702804Y-133086773D01*
X96699204Y-133062505D01*
X96698000Y-133038001D01*
X96698000Y-132137999D01*
X96699204Y-132113495D01*
X96702804Y-132089227D01*
X96708765Y-132065428D01*
X96717030Y-132042329D01*
X96727520Y-132020150D01*
X96740132Y-131999107D01*
X96754747Y-131979401D01*
X96771223Y-131961223D01*
X96789401Y-131944747D01*
X96809107Y-131930132D01*
X96830150Y-131917520D01*
X96852329Y-131907030D01*
X96875428Y-131898765D01*
X96899227Y-131892804D01*
X96923495Y-131889204D01*
X96947999Y-131888000D01*
X97598001Y-131888000D01*
X97622505Y-131889204D01*
X97622505Y-131889204D01*
G37*
D13*
X97273000Y-132588000D03*
D12*
G36*
X99672505Y-131889204D02*
G01*
X99696773Y-131892804D01*
X99720572Y-131898765D01*
X99743671Y-131907030D01*
X99765850Y-131917520D01*
X99786893Y-131930132D01*
X99806599Y-131944747D01*
X99824777Y-131961223D01*
X99841253Y-131979401D01*
X99855868Y-131999107D01*
X99868480Y-132020150D01*
X99878970Y-132042329D01*
X99887235Y-132065428D01*
X99893196Y-132089227D01*
X99896796Y-132113495D01*
X99898000Y-132137999D01*
X99898000Y-133038001D01*
X99896796Y-133062505D01*
X99893196Y-133086773D01*
X99887235Y-133110572D01*
X99878970Y-133133671D01*
X99868480Y-133155850D01*
X99855868Y-133176893D01*
X99841253Y-133196599D01*
X99824777Y-133214777D01*
X99806599Y-133231253D01*
X99786893Y-133245868D01*
X99765850Y-133258480D01*
X99743671Y-133268970D01*
X99720572Y-133277235D01*
X99696773Y-133283196D01*
X99672505Y-133286796D01*
X99648001Y-133288000D01*
X98997999Y-133288000D01*
X98973495Y-133286796D01*
X98949227Y-133283196D01*
X98925428Y-133277235D01*
X98902329Y-133268970D01*
X98880150Y-133258480D01*
X98859107Y-133245868D01*
X98839401Y-133231253D01*
X98821223Y-133214777D01*
X98804747Y-133196599D01*
X98790132Y-133176893D01*
X98777520Y-133155850D01*
X98767030Y-133133671D01*
X98758765Y-133110572D01*
X98752804Y-133086773D01*
X98749204Y-133062505D01*
X98748000Y-133038001D01*
X98748000Y-132137999D01*
X98749204Y-132113495D01*
X98752804Y-132089227D01*
X98758765Y-132065428D01*
X98767030Y-132042329D01*
X98777520Y-132020150D01*
X98790132Y-131999107D01*
X98804747Y-131979401D01*
X98821223Y-131961223D01*
X98839401Y-131944747D01*
X98859107Y-131930132D01*
X98880150Y-131917520D01*
X98902329Y-131907030D01*
X98925428Y-131898765D01*
X98949227Y-131892804D01*
X98973495Y-131889204D01*
X98997999Y-131888000D01*
X99648001Y-131888000D01*
X99672505Y-131889204D01*
X99672505Y-131889204D01*
G37*
D13*
X99323000Y-132588000D03*
D12*
G36*
X110369779Y-109839144D02*
G01*
X110392834Y-109842563D01*
X110415443Y-109848227D01*
X110437387Y-109856079D01*
X110458457Y-109866044D01*
X110478448Y-109878026D01*
X110497168Y-109891910D01*
X110514438Y-109907562D01*
X110530090Y-109924832D01*
X110543974Y-109943552D01*
X110555956Y-109963543D01*
X110565921Y-109984613D01*
X110573773Y-110006557D01*
X110579437Y-110029166D01*
X110582856Y-110052221D01*
X110584000Y-110075500D01*
X110584000Y-110650500D01*
X110582856Y-110673779D01*
X110579437Y-110696834D01*
X110573773Y-110719443D01*
X110565921Y-110741387D01*
X110555956Y-110762457D01*
X110543974Y-110782448D01*
X110530090Y-110801168D01*
X110514438Y-110818438D01*
X110497168Y-110834090D01*
X110478448Y-110847974D01*
X110458457Y-110859956D01*
X110437387Y-110869921D01*
X110415443Y-110877773D01*
X110392834Y-110883437D01*
X110369779Y-110886856D01*
X110346500Y-110888000D01*
X109871500Y-110888000D01*
X109848221Y-110886856D01*
X109825166Y-110883437D01*
X109802557Y-110877773D01*
X109780613Y-110869921D01*
X109759543Y-110859956D01*
X109739552Y-110847974D01*
X109720832Y-110834090D01*
X109703562Y-110818438D01*
X109687910Y-110801168D01*
X109674026Y-110782448D01*
X109662044Y-110762457D01*
X109652079Y-110741387D01*
X109644227Y-110719443D01*
X109638563Y-110696834D01*
X109635144Y-110673779D01*
X109634000Y-110650500D01*
X109634000Y-110075500D01*
X109635144Y-110052221D01*
X109638563Y-110029166D01*
X109644227Y-110006557D01*
X109652079Y-109984613D01*
X109662044Y-109963543D01*
X109674026Y-109943552D01*
X109687910Y-109924832D01*
X109703562Y-109907562D01*
X109720832Y-109891910D01*
X109739552Y-109878026D01*
X109759543Y-109866044D01*
X109780613Y-109856079D01*
X109802557Y-109848227D01*
X109825166Y-109842563D01*
X109848221Y-109839144D01*
X109871500Y-109838000D01*
X110346500Y-109838000D01*
X110369779Y-109839144D01*
X110369779Y-109839144D01*
G37*
D15*
X110109000Y-110363000D03*
D12*
G36*
X110369779Y-108089144D02*
G01*
X110392834Y-108092563D01*
X110415443Y-108098227D01*
X110437387Y-108106079D01*
X110458457Y-108116044D01*
X110478448Y-108128026D01*
X110497168Y-108141910D01*
X110514438Y-108157562D01*
X110530090Y-108174832D01*
X110543974Y-108193552D01*
X110555956Y-108213543D01*
X110565921Y-108234613D01*
X110573773Y-108256557D01*
X110579437Y-108279166D01*
X110582856Y-108302221D01*
X110584000Y-108325500D01*
X110584000Y-108900500D01*
X110582856Y-108923779D01*
X110579437Y-108946834D01*
X110573773Y-108969443D01*
X110565921Y-108991387D01*
X110555956Y-109012457D01*
X110543974Y-109032448D01*
X110530090Y-109051168D01*
X110514438Y-109068438D01*
X110497168Y-109084090D01*
X110478448Y-109097974D01*
X110458457Y-109109956D01*
X110437387Y-109119921D01*
X110415443Y-109127773D01*
X110392834Y-109133437D01*
X110369779Y-109136856D01*
X110346500Y-109138000D01*
X109871500Y-109138000D01*
X109848221Y-109136856D01*
X109825166Y-109133437D01*
X109802557Y-109127773D01*
X109780613Y-109119921D01*
X109759543Y-109109956D01*
X109739552Y-109097974D01*
X109720832Y-109084090D01*
X109703562Y-109068438D01*
X109687910Y-109051168D01*
X109674026Y-109032448D01*
X109662044Y-109012457D01*
X109652079Y-108991387D01*
X109644227Y-108969443D01*
X109638563Y-108946834D01*
X109635144Y-108923779D01*
X109634000Y-108900500D01*
X109634000Y-108325500D01*
X109635144Y-108302221D01*
X109638563Y-108279166D01*
X109644227Y-108256557D01*
X109652079Y-108234613D01*
X109662044Y-108213543D01*
X109674026Y-108193552D01*
X109687910Y-108174832D01*
X109703562Y-108157562D01*
X109720832Y-108141910D01*
X109739552Y-108128026D01*
X109759543Y-108116044D01*
X109780613Y-108106079D01*
X109802557Y-108098227D01*
X109825166Y-108092563D01*
X109848221Y-108089144D01*
X109871500Y-108088000D01*
X110346500Y-108088000D01*
X110369779Y-108089144D01*
X110369779Y-108089144D01*
G37*
D15*
X110109000Y-108613000D03*
D12*
G36*
X110369779Y-101838144D02*
G01*
X110392834Y-101841563D01*
X110415443Y-101847227D01*
X110437387Y-101855079D01*
X110458457Y-101865044D01*
X110478448Y-101877026D01*
X110497168Y-101890910D01*
X110514438Y-101906562D01*
X110530090Y-101923832D01*
X110543974Y-101942552D01*
X110555956Y-101962543D01*
X110565921Y-101983613D01*
X110573773Y-102005557D01*
X110579437Y-102028166D01*
X110582856Y-102051221D01*
X110584000Y-102074500D01*
X110584000Y-102649500D01*
X110582856Y-102672779D01*
X110579437Y-102695834D01*
X110573773Y-102718443D01*
X110565921Y-102740387D01*
X110555956Y-102761457D01*
X110543974Y-102781448D01*
X110530090Y-102800168D01*
X110514438Y-102817438D01*
X110497168Y-102833090D01*
X110478448Y-102846974D01*
X110458457Y-102858956D01*
X110437387Y-102868921D01*
X110415443Y-102876773D01*
X110392834Y-102882437D01*
X110369779Y-102885856D01*
X110346500Y-102887000D01*
X109871500Y-102887000D01*
X109848221Y-102885856D01*
X109825166Y-102882437D01*
X109802557Y-102876773D01*
X109780613Y-102868921D01*
X109759543Y-102858956D01*
X109739552Y-102846974D01*
X109720832Y-102833090D01*
X109703562Y-102817438D01*
X109687910Y-102800168D01*
X109674026Y-102781448D01*
X109662044Y-102761457D01*
X109652079Y-102740387D01*
X109644227Y-102718443D01*
X109638563Y-102695834D01*
X109635144Y-102672779D01*
X109634000Y-102649500D01*
X109634000Y-102074500D01*
X109635144Y-102051221D01*
X109638563Y-102028166D01*
X109644227Y-102005557D01*
X109652079Y-101983613D01*
X109662044Y-101962543D01*
X109674026Y-101942552D01*
X109687910Y-101923832D01*
X109703562Y-101906562D01*
X109720832Y-101890910D01*
X109739552Y-101877026D01*
X109759543Y-101865044D01*
X109780613Y-101855079D01*
X109802557Y-101847227D01*
X109825166Y-101841563D01*
X109848221Y-101838144D01*
X109871500Y-101837000D01*
X110346500Y-101837000D01*
X110369779Y-101838144D01*
X110369779Y-101838144D01*
G37*
D15*
X110109000Y-102362000D03*
D12*
G36*
X110369779Y-100088144D02*
G01*
X110392834Y-100091563D01*
X110415443Y-100097227D01*
X110437387Y-100105079D01*
X110458457Y-100115044D01*
X110478448Y-100127026D01*
X110497168Y-100140910D01*
X110514438Y-100156562D01*
X110530090Y-100173832D01*
X110543974Y-100192552D01*
X110555956Y-100212543D01*
X110565921Y-100233613D01*
X110573773Y-100255557D01*
X110579437Y-100278166D01*
X110582856Y-100301221D01*
X110584000Y-100324500D01*
X110584000Y-100899500D01*
X110582856Y-100922779D01*
X110579437Y-100945834D01*
X110573773Y-100968443D01*
X110565921Y-100990387D01*
X110555956Y-101011457D01*
X110543974Y-101031448D01*
X110530090Y-101050168D01*
X110514438Y-101067438D01*
X110497168Y-101083090D01*
X110478448Y-101096974D01*
X110458457Y-101108956D01*
X110437387Y-101118921D01*
X110415443Y-101126773D01*
X110392834Y-101132437D01*
X110369779Y-101135856D01*
X110346500Y-101137000D01*
X109871500Y-101137000D01*
X109848221Y-101135856D01*
X109825166Y-101132437D01*
X109802557Y-101126773D01*
X109780613Y-101118921D01*
X109759543Y-101108956D01*
X109739552Y-101096974D01*
X109720832Y-101083090D01*
X109703562Y-101067438D01*
X109687910Y-101050168D01*
X109674026Y-101031448D01*
X109662044Y-101011457D01*
X109652079Y-100990387D01*
X109644227Y-100968443D01*
X109638563Y-100945834D01*
X109635144Y-100922779D01*
X109634000Y-100899500D01*
X109634000Y-100324500D01*
X109635144Y-100301221D01*
X109638563Y-100278166D01*
X109644227Y-100255557D01*
X109652079Y-100233613D01*
X109662044Y-100212543D01*
X109674026Y-100192552D01*
X109687910Y-100173832D01*
X109703562Y-100156562D01*
X109720832Y-100140910D01*
X109739552Y-100127026D01*
X109759543Y-100115044D01*
X109780613Y-100105079D01*
X109802557Y-100097227D01*
X109825166Y-100091563D01*
X109848221Y-100088144D01*
X109871500Y-100087000D01*
X110346500Y-100087000D01*
X110369779Y-100088144D01*
X110369779Y-100088144D01*
G37*
D15*
X110109000Y-100612000D03*
D12*
G36*
X110623779Y-83832144D02*
G01*
X110646834Y-83835563D01*
X110669443Y-83841227D01*
X110691387Y-83849079D01*
X110712457Y-83859044D01*
X110732448Y-83871026D01*
X110751168Y-83884910D01*
X110768438Y-83900562D01*
X110784090Y-83917832D01*
X110797974Y-83936552D01*
X110809956Y-83956543D01*
X110819921Y-83977613D01*
X110827773Y-83999557D01*
X110833437Y-84022166D01*
X110836856Y-84045221D01*
X110838000Y-84068500D01*
X110838000Y-84643500D01*
X110836856Y-84666779D01*
X110833437Y-84689834D01*
X110827773Y-84712443D01*
X110819921Y-84734387D01*
X110809956Y-84755457D01*
X110797974Y-84775448D01*
X110784090Y-84794168D01*
X110768438Y-84811438D01*
X110751168Y-84827090D01*
X110732448Y-84840974D01*
X110712457Y-84852956D01*
X110691387Y-84862921D01*
X110669443Y-84870773D01*
X110646834Y-84876437D01*
X110623779Y-84879856D01*
X110600500Y-84881000D01*
X110125500Y-84881000D01*
X110102221Y-84879856D01*
X110079166Y-84876437D01*
X110056557Y-84870773D01*
X110034613Y-84862921D01*
X110013543Y-84852956D01*
X109993552Y-84840974D01*
X109974832Y-84827090D01*
X109957562Y-84811438D01*
X109941910Y-84794168D01*
X109928026Y-84775448D01*
X109916044Y-84755457D01*
X109906079Y-84734387D01*
X109898227Y-84712443D01*
X109892563Y-84689834D01*
X109889144Y-84666779D01*
X109888000Y-84643500D01*
X109888000Y-84068500D01*
X109889144Y-84045221D01*
X109892563Y-84022166D01*
X109898227Y-83999557D01*
X109906079Y-83977613D01*
X109916044Y-83956543D01*
X109928026Y-83936552D01*
X109941910Y-83917832D01*
X109957562Y-83900562D01*
X109974832Y-83884910D01*
X109993552Y-83871026D01*
X110013543Y-83859044D01*
X110034613Y-83849079D01*
X110056557Y-83841227D01*
X110079166Y-83835563D01*
X110102221Y-83832144D01*
X110125500Y-83831000D01*
X110600500Y-83831000D01*
X110623779Y-83832144D01*
X110623779Y-83832144D01*
G37*
D15*
X110363000Y-84356000D03*
D12*
G36*
X110623779Y-85582144D02*
G01*
X110646834Y-85585563D01*
X110669443Y-85591227D01*
X110691387Y-85599079D01*
X110712457Y-85609044D01*
X110732448Y-85621026D01*
X110751168Y-85634910D01*
X110768438Y-85650562D01*
X110784090Y-85667832D01*
X110797974Y-85686552D01*
X110809956Y-85706543D01*
X110819921Y-85727613D01*
X110827773Y-85749557D01*
X110833437Y-85772166D01*
X110836856Y-85795221D01*
X110838000Y-85818500D01*
X110838000Y-86393500D01*
X110836856Y-86416779D01*
X110833437Y-86439834D01*
X110827773Y-86462443D01*
X110819921Y-86484387D01*
X110809956Y-86505457D01*
X110797974Y-86525448D01*
X110784090Y-86544168D01*
X110768438Y-86561438D01*
X110751168Y-86577090D01*
X110732448Y-86590974D01*
X110712457Y-86602956D01*
X110691387Y-86612921D01*
X110669443Y-86620773D01*
X110646834Y-86626437D01*
X110623779Y-86629856D01*
X110600500Y-86631000D01*
X110125500Y-86631000D01*
X110102221Y-86629856D01*
X110079166Y-86626437D01*
X110056557Y-86620773D01*
X110034613Y-86612921D01*
X110013543Y-86602956D01*
X109993552Y-86590974D01*
X109974832Y-86577090D01*
X109957562Y-86561438D01*
X109941910Y-86544168D01*
X109928026Y-86525448D01*
X109916044Y-86505457D01*
X109906079Y-86484387D01*
X109898227Y-86462443D01*
X109892563Y-86439834D01*
X109889144Y-86416779D01*
X109888000Y-86393500D01*
X109888000Y-85818500D01*
X109889144Y-85795221D01*
X109892563Y-85772166D01*
X109898227Y-85749557D01*
X109906079Y-85727613D01*
X109916044Y-85706543D01*
X109928026Y-85686552D01*
X109941910Y-85667832D01*
X109957562Y-85650562D01*
X109974832Y-85634910D01*
X109993552Y-85621026D01*
X110013543Y-85609044D01*
X110034613Y-85599079D01*
X110056557Y-85591227D01*
X110079166Y-85585563D01*
X110102221Y-85582144D01*
X110125500Y-85581000D01*
X110600500Y-85581000D01*
X110623779Y-85582144D01*
X110623779Y-85582144D01*
G37*
D15*
X110363000Y-86106000D03*
D12*
G36*
X110496779Y-92087144D02*
G01*
X110519834Y-92090563D01*
X110542443Y-92096227D01*
X110564387Y-92104079D01*
X110585457Y-92114044D01*
X110605448Y-92126026D01*
X110624168Y-92139910D01*
X110641438Y-92155562D01*
X110657090Y-92172832D01*
X110670974Y-92191552D01*
X110682956Y-92211543D01*
X110692921Y-92232613D01*
X110700773Y-92254557D01*
X110706437Y-92277166D01*
X110709856Y-92300221D01*
X110711000Y-92323500D01*
X110711000Y-92898500D01*
X110709856Y-92921779D01*
X110706437Y-92944834D01*
X110700773Y-92967443D01*
X110692921Y-92989387D01*
X110682956Y-93010457D01*
X110670974Y-93030448D01*
X110657090Y-93049168D01*
X110641438Y-93066438D01*
X110624168Y-93082090D01*
X110605448Y-93095974D01*
X110585457Y-93107956D01*
X110564387Y-93117921D01*
X110542443Y-93125773D01*
X110519834Y-93131437D01*
X110496779Y-93134856D01*
X110473500Y-93136000D01*
X109998500Y-93136000D01*
X109975221Y-93134856D01*
X109952166Y-93131437D01*
X109929557Y-93125773D01*
X109907613Y-93117921D01*
X109886543Y-93107956D01*
X109866552Y-93095974D01*
X109847832Y-93082090D01*
X109830562Y-93066438D01*
X109814910Y-93049168D01*
X109801026Y-93030448D01*
X109789044Y-93010457D01*
X109779079Y-92989387D01*
X109771227Y-92967443D01*
X109765563Y-92944834D01*
X109762144Y-92921779D01*
X109761000Y-92898500D01*
X109761000Y-92323500D01*
X109762144Y-92300221D01*
X109765563Y-92277166D01*
X109771227Y-92254557D01*
X109779079Y-92232613D01*
X109789044Y-92211543D01*
X109801026Y-92191552D01*
X109814910Y-92172832D01*
X109830562Y-92155562D01*
X109847832Y-92139910D01*
X109866552Y-92126026D01*
X109886543Y-92114044D01*
X109907613Y-92104079D01*
X109929557Y-92096227D01*
X109952166Y-92090563D01*
X109975221Y-92087144D01*
X109998500Y-92086000D01*
X110473500Y-92086000D01*
X110496779Y-92087144D01*
X110496779Y-92087144D01*
G37*
D15*
X110236000Y-92611000D03*
D12*
G36*
X110496779Y-93837144D02*
G01*
X110519834Y-93840563D01*
X110542443Y-93846227D01*
X110564387Y-93854079D01*
X110585457Y-93864044D01*
X110605448Y-93876026D01*
X110624168Y-93889910D01*
X110641438Y-93905562D01*
X110657090Y-93922832D01*
X110670974Y-93941552D01*
X110682956Y-93961543D01*
X110692921Y-93982613D01*
X110700773Y-94004557D01*
X110706437Y-94027166D01*
X110709856Y-94050221D01*
X110711000Y-94073500D01*
X110711000Y-94648500D01*
X110709856Y-94671779D01*
X110706437Y-94694834D01*
X110700773Y-94717443D01*
X110692921Y-94739387D01*
X110682956Y-94760457D01*
X110670974Y-94780448D01*
X110657090Y-94799168D01*
X110641438Y-94816438D01*
X110624168Y-94832090D01*
X110605448Y-94845974D01*
X110585457Y-94857956D01*
X110564387Y-94867921D01*
X110542443Y-94875773D01*
X110519834Y-94881437D01*
X110496779Y-94884856D01*
X110473500Y-94886000D01*
X109998500Y-94886000D01*
X109975221Y-94884856D01*
X109952166Y-94881437D01*
X109929557Y-94875773D01*
X109907613Y-94867921D01*
X109886543Y-94857956D01*
X109866552Y-94845974D01*
X109847832Y-94832090D01*
X109830562Y-94816438D01*
X109814910Y-94799168D01*
X109801026Y-94780448D01*
X109789044Y-94760457D01*
X109779079Y-94739387D01*
X109771227Y-94717443D01*
X109765563Y-94694834D01*
X109762144Y-94671779D01*
X109761000Y-94648500D01*
X109761000Y-94073500D01*
X109762144Y-94050221D01*
X109765563Y-94027166D01*
X109771227Y-94004557D01*
X109779079Y-93982613D01*
X109789044Y-93961543D01*
X109801026Y-93941552D01*
X109814910Y-93922832D01*
X109830562Y-93905562D01*
X109847832Y-93889910D01*
X109866552Y-93876026D01*
X109886543Y-93864044D01*
X109907613Y-93854079D01*
X109929557Y-93846227D01*
X109952166Y-93840563D01*
X109975221Y-93837144D01*
X109998500Y-93836000D01*
X110473500Y-93836000D01*
X110496779Y-93837144D01*
X110496779Y-93837144D01*
G37*
D15*
X110236000Y-94361000D03*
D16*
X104029000Y-108823000D03*
X106029000Y-108823000D03*
D17*
X105029000Y-112073000D03*
X105029000Y-103848000D03*
D16*
X106029000Y-100598000D03*
X104029000Y-100598000D03*
D17*
X105283000Y-87831000D03*
D16*
X106283000Y-84581000D03*
X104283000Y-84581000D03*
X104156000Y-92821000D03*
X106156000Y-92821000D03*
D17*
X105156000Y-96071000D03*
M02*
