M48
; DRILL file {KiCad (5.1.2)-2} date 22.6.2021 12.17.45
; FORMAT={-:-/ absolute / inch / decimal}
; #@! TF.CreationDate,2021-06-22T12:17:45+03:00
; #@! TF.GenerationSoftware,Kicad,Pcbnew,(5.1.2)-2
; #@! TF.FileFunction,Plated,1,2,PTH
FMAT,2
INCH
T1C0.0197
T2C0.0315
T3C0.0394
T4C0.0512
%
G90
G05
T1
X3.1265Y-4.8246
X3.1275Y-4.7
X3.24Y-4.7
X3.2775Y-4.8275
X3.385Y-3.2225
X3.43Y-5.1225
X3.4325Y-4.65
X3.485Y-2.64
X3.6169Y-5.3506
X3.6169Y-5.4506
X3.6169Y-5.5506
X3.6725Y-1.9025
X3.7169Y-5.3506
X3.7169Y-5.4506
X3.7169Y-5.5506
X3.73Y-2.74
X3.745Y-2.14
X3.7925Y-3.19
X3.8169Y-5.3506
X3.8169Y-5.4506
X3.8169Y-5.5506
X3.8775Y-2.035
X4.06Y-2.74
X4.085Y-2.985
X4.09Y-2.865
X4.09Y-2.925
X4.2538Y-4.6238
X4.29Y-2.74
X4.3012Y-4.5762
X4.325Y-2.985
X4.3275Y-5.1625
X4.3275Y-5.2625
X4.3275Y-5.3625
X4.4275Y-5.1625
X4.4275Y-5.2625
X4.4275Y-5.3625
X4.52Y-2.74
X4.5275Y-5.1625
X4.5275Y-5.2625
X4.5275Y-5.3625
X4.545Y-2.93
X4.69Y-4.18
X4.73Y-4.22
X4.74Y-2.74
X4.7425Y-4.9725
X4.7475Y-4.2725
X4.765Y-2.865
X4.77Y-4.42
X4.81Y-4.55
X4.84Y-5.31
X4.84Y-5.41
X4.8412Y-4.5
X4.87Y-4.4
X4.91Y-4.59
X4.9102Y-4.72
X4.94Y-5.31
X4.94Y-5.41
X4.9775Y-4.3265
X4.98Y-5.04
X5.0065Y-4.6915
X5.0735Y-4.8575
X5.08Y-4.32
X5.0971Y-4.615
X5.0975Y-4.6925
X5.1Y-4.22
X5.1Y-4.49
X5.1Y-4.91
X5.1Y-5.15
X5.1095Y-4.4005
X5.12Y-3.92
X5.2Y-3.79
X5.2375Y-3.9625
X5.49Y-4.81
X5.5Y-4.3075
X5.5Y-4.5275
X5.5Y-4.73
X5.5025Y-3.985
X5.5025Y-4.6525
X5.504Y-4.42
X5.515Y-4.915
X5.515Y-5.0275
X5.52Y-4.07
X5.52Y-4.18
X5.6425Y-4.395
X5.645Y-4.96
X5.6625Y-4.57
X5.665Y-3.825
X5.71Y-4.24
X5.7425Y-5.0575
X5.745Y-4.385
X5.8025Y-4.8275
X5.8375Y-4.88
X5.8425Y-5.0725
T2
X4.56Y-4.08
X4.56Y-4.18
X4.56Y-4.28
X4.565Y-3.72
X4.565Y-3.82
X4.565Y-3.92
X4.57Y-3.26
X4.57Y-3.36
X4.57Y-3.46
X4.56Y-4.46
X4.56Y-4.56
X4.56Y-4.66
T3
X3.74Y-3.615
X3.74Y-3.715
X3.22Y-1.84
X3.22Y-1.94
X3.22Y-2.04
X3.22Y-2.14
X3.22Y-2.24
X3.22Y-2.34
X3.22Y-2.44
X3.22Y-2.54
X3.22Y-2.64
X3.22Y-2.74
X3.32Y-1.84
X3.32Y-1.94
X3.32Y-2.04
X3.32Y-2.14
X3.32Y-2.24
X3.32Y-2.34
X3.32Y-2.44
X3.32Y-2.54
X3.32Y-2.64
X3.32Y-2.74
X3.7356Y-4.245
X3.7356Y-4.345
X3.7344Y-3.92
X3.7344Y-4.02
X5.62Y-1.84
X5.62Y-1.94
X5.62Y-2.04
X5.62Y-2.14
X5.62Y-2.24
X5.62Y-2.34
X5.62Y-2.44
X5.62Y-2.54
X5.62Y-2.64
X5.62Y-2.74
X5.62Y-2.84
X5.62Y-2.94
X5.62Y-3.04
X5.62Y-3.14
X5.62Y-3.24
X5.62Y-3.34
X5.62Y-3.44
X5.62Y-3.54
X5.62Y-3.64
X5.72Y-1.84
X5.72Y-1.94
X5.72Y-2.04
X5.72Y-2.14
X5.72Y-2.24
X5.72Y-2.34
X5.72Y-2.44
X5.72Y-2.54
X5.72Y-2.64
X5.72Y-2.74
X5.72Y-2.84
X5.72Y-2.94
X5.72Y-3.04
X5.72Y-3.14
X5.72Y-3.24
X5.72Y-3.34
X5.72Y-3.44
X5.72Y-3.54
X5.72Y-3.64
X3.7456Y-3.29
X3.7456Y-3.39
T4
X3.2574Y-5.65
X3.4574Y-5.65
T0
M30
