G04 #@! TF.GenerationSoftware,KiCad,Pcbnew,(5.1.2)-2*
G04 #@! TF.CreationDate,2021-06-22T12:17:49+03:00*
G04 #@! TF.ProjectId,extension_board,65787465-6e73-4696-9f6e-5f626f617264,rev?*
G04 #@! TF.SameCoordinates,Original*
G04 #@! TF.FileFunction,Soldermask,Bot*
G04 #@! TF.FilePolarity,Negative*
%FSLAX46Y46*%
G04 Gerber Fmt 4.6, Leading zero omitted, Abs format (unit mm)*
G04 Created by KiCad (PCBNEW (5.1.2)-2) date 2021-06-22 12:17:49*
%MOMM*%
%LPD*%
G04 APERTURE LIST*
%ADD10C,0.100000*%
G04 APERTURE END LIST*
D10*
G36*
X88168318Y-142355153D02*
G01*
X88386885Y-142445687D01*
X88386887Y-142445688D01*
X88583593Y-142577122D01*
X88750878Y-142744407D01*
X88882312Y-142941113D01*
X88882313Y-142941115D01*
X88972847Y-143159682D01*
X89019000Y-143391710D01*
X89019000Y-143628290D01*
X88972847Y-143860318D01*
X88882313Y-144078885D01*
X88882312Y-144078887D01*
X88750878Y-144275593D01*
X88583593Y-144442878D01*
X88386887Y-144574312D01*
X88386886Y-144574313D01*
X88386885Y-144574313D01*
X88168318Y-144664847D01*
X87936290Y-144711000D01*
X87699710Y-144711000D01*
X87467682Y-144664847D01*
X87249115Y-144574313D01*
X87249114Y-144574313D01*
X87249113Y-144574312D01*
X87052407Y-144442878D01*
X86885122Y-144275593D01*
X86753688Y-144078887D01*
X86753687Y-144078885D01*
X86663153Y-143860318D01*
X86617000Y-143628290D01*
X86617000Y-143391710D01*
X86663153Y-143159682D01*
X86753687Y-142941115D01*
X86753688Y-142941113D01*
X86885122Y-142744407D01*
X87052407Y-142577122D01*
X87249113Y-142445688D01*
X87249115Y-142445687D01*
X87467682Y-142355153D01*
X87699710Y-142309000D01*
X87936290Y-142309000D01*
X88168318Y-142355153D01*
X88168318Y-142355153D01*
G37*
G36*
X83889000Y-144661000D02*
G01*
X81587000Y-144661000D01*
X81587000Y-142359000D01*
X83889000Y-142359000D01*
X83889000Y-144661000D01*
X83889000Y-144661000D01*
G37*
G36*
X116057642Y-117593781D02*
G01*
X116203414Y-117654162D01*
X116203416Y-117654163D01*
X116334608Y-117741822D01*
X116446178Y-117853392D01*
X116533837Y-117984584D01*
X116533838Y-117984586D01*
X116594219Y-118130358D01*
X116625000Y-118285107D01*
X116625000Y-118442893D01*
X116594219Y-118597642D01*
X116533838Y-118743414D01*
X116533837Y-118743416D01*
X116446178Y-118874608D01*
X116334608Y-118986178D01*
X116203416Y-119073837D01*
X116203415Y-119073838D01*
X116203414Y-119073838D01*
X116057642Y-119134219D01*
X115902893Y-119165000D01*
X115745107Y-119165000D01*
X115590358Y-119134219D01*
X115444586Y-119073838D01*
X115444585Y-119073838D01*
X115444584Y-119073837D01*
X115313392Y-118986178D01*
X115201822Y-118874608D01*
X115114163Y-118743416D01*
X115114162Y-118743414D01*
X115053781Y-118597642D01*
X115023000Y-118442893D01*
X115023000Y-118285107D01*
X115053781Y-118130358D01*
X115114162Y-117984586D01*
X115114163Y-117984584D01*
X115201822Y-117853392D01*
X115313392Y-117741822D01*
X115444584Y-117654163D01*
X115444586Y-117654162D01*
X115590358Y-117593781D01*
X115745107Y-117563000D01*
X115902893Y-117563000D01*
X116057642Y-117593781D01*
X116057642Y-117593781D01*
G37*
G36*
X116057642Y-115053781D02*
G01*
X116203414Y-115114162D01*
X116203416Y-115114163D01*
X116334608Y-115201822D01*
X116446178Y-115313392D01*
X116533837Y-115444584D01*
X116533838Y-115444586D01*
X116594219Y-115590358D01*
X116625000Y-115745107D01*
X116625000Y-115902893D01*
X116594219Y-116057642D01*
X116533838Y-116203414D01*
X116533837Y-116203416D01*
X116446178Y-116334608D01*
X116334608Y-116446178D01*
X116203416Y-116533837D01*
X116203415Y-116533838D01*
X116203414Y-116533838D01*
X116057642Y-116594219D01*
X115902893Y-116625000D01*
X115745107Y-116625000D01*
X115590358Y-116594219D01*
X115444586Y-116533838D01*
X115444585Y-116533838D01*
X115444584Y-116533837D01*
X115313392Y-116446178D01*
X115201822Y-116334608D01*
X115114163Y-116203416D01*
X115114162Y-116203414D01*
X115053781Y-116057642D01*
X115023000Y-115902893D01*
X115023000Y-115745107D01*
X115053781Y-115590358D01*
X115114162Y-115444586D01*
X115114163Y-115444584D01*
X115201822Y-115313392D01*
X115313392Y-115201822D01*
X115444584Y-115114163D01*
X115444586Y-115114162D01*
X115590358Y-115053781D01*
X115745107Y-115023000D01*
X115902893Y-115023000D01*
X116057642Y-115053781D01*
X116057642Y-115053781D01*
G37*
G36*
X116625000Y-114085000D02*
G01*
X115023000Y-114085000D01*
X115023000Y-112483000D01*
X116625000Y-112483000D01*
X116625000Y-114085000D01*
X116625000Y-114085000D01*
G37*
G36*
X95785000Y-111264000D02*
G01*
X93983000Y-111264000D01*
X93983000Y-109462000D01*
X95785000Y-109462000D01*
X95785000Y-111264000D01*
X95785000Y-111264000D01*
G37*
G36*
X116057642Y-107941781D02*
G01*
X116197289Y-107999625D01*
X116203416Y-108002163D01*
X116334608Y-108089822D01*
X116446178Y-108201392D01*
X116533837Y-108332584D01*
X116533838Y-108332586D01*
X116594219Y-108478358D01*
X116625000Y-108633107D01*
X116625000Y-108790893D01*
X116594219Y-108945642D01*
X116533838Y-109091414D01*
X116533837Y-109091416D01*
X116446178Y-109222608D01*
X116334608Y-109334178D01*
X116203416Y-109421837D01*
X116203415Y-109421838D01*
X116203414Y-109421838D01*
X116057642Y-109482219D01*
X115902893Y-109513000D01*
X115745107Y-109513000D01*
X115590358Y-109482219D01*
X115444586Y-109421838D01*
X115444585Y-109421838D01*
X115444584Y-109421837D01*
X115313392Y-109334178D01*
X115201822Y-109222608D01*
X115114163Y-109091416D01*
X115114162Y-109091414D01*
X115053781Y-108945642D01*
X115023000Y-108790893D01*
X115023000Y-108633107D01*
X115053781Y-108478358D01*
X115114162Y-108332586D01*
X115114163Y-108332584D01*
X115201822Y-108201392D01*
X115313392Y-108089822D01*
X115444584Y-108002163D01*
X115450711Y-107999625D01*
X115590358Y-107941781D01*
X115745107Y-107911000D01*
X115902893Y-107911000D01*
X116057642Y-107941781D01*
X116057642Y-107941781D01*
G37*
G36*
X94994443Y-106928519D02*
G01*
X95060627Y-106935037D01*
X95230466Y-106986557D01*
X95386991Y-107070222D01*
X95422729Y-107099552D01*
X95524186Y-107182814D01*
X95607448Y-107284271D01*
X95636778Y-107320009D01*
X95720443Y-107476534D01*
X95771963Y-107646373D01*
X95789359Y-107823000D01*
X95771963Y-107999627D01*
X95720443Y-108169466D01*
X95636778Y-108325991D01*
X95607448Y-108361729D01*
X95524186Y-108463186D01*
X95422729Y-108546448D01*
X95386991Y-108575778D01*
X95230466Y-108659443D01*
X95060627Y-108710963D01*
X94994443Y-108717481D01*
X94928260Y-108724000D01*
X94839740Y-108724000D01*
X94773557Y-108717481D01*
X94707373Y-108710963D01*
X94537534Y-108659443D01*
X94381009Y-108575778D01*
X94345271Y-108546448D01*
X94243814Y-108463186D01*
X94160552Y-108361729D01*
X94131222Y-108325991D01*
X94047557Y-108169466D01*
X93996037Y-107999627D01*
X93978641Y-107823000D01*
X93996037Y-107646373D01*
X94047557Y-107476534D01*
X94131222Y-107320009D01*
X94160552Y-107284271D01*
X94243814Y-107182814D01*
X94345271Y-107099552D01*
X94381009Y-107070222D01*
X94537534Y-106986557D01*
X94707373Y-106935037D01*
X94773557Y-106928519D01*
X94839740Y-106922000D01*
X94928260Y-106922000D01*
X94994443Y-106928519D01*
X94994443Y-106928519D01*
G37*
G36*
X116057642Y-105401781D02*
G01*
X116203414Y-105462162D01*
X116203416Y-105462163D01*
X116334608Y-105549822D01*
X116446178Y-105661392D01*
X116533837Y-105792584D01*
X116533838Y-105792586D01*
X116594219Y-105938358D01*
X116625000Y-106093107D01*
X116625000Y-106250893D01*
X116594219Y-106405642D01*
X116533838Y-106551414D01*
X116533837Y-106551416D01*
X116446178Y-106682608D01*
X116334608Y-106794178D01*
X116203416Y-106881837D01*
X116203415Y-106881838D01*
X116203414Y-106881838D01*
X116057642Y-106942219D01*
X115902893Y-106973000D01*
X115745107Y-106973000D01*
X115590358Y-106942219D01*
X115444586Y-106881838D01*
X115444585Y-106881838D01*
X115444584Y-106881837D01*
X115313392Y-106794178D01*
X115201822Y-106682608D01*
X115114163Y-106551416D01*
X115114162Y-106551414D01*
X115053781Y-106405642D01*
X115023000Y-106250893D01*
X115023000Y-106093107D01*
X115053781Y-105938358D01*
X115114162Y-105792586D01*
X115114163Y-105792584D01*
X115201822Y-105661392D01*
X115313392Y-105549822D01*
X115444584Y-105462163D01*
X115444586Y-105462162D01*
X115590358Y-105401781D01*
X115745107Y-105371000D01*
X115902893Y-105371000D01*
X116057642Y-105401781D01*
X116057642Y-105401781D01*
G37*
G36*
X116625000Y-104433000D02*
G01*
X115023000Y-104433000D01*
X115023000Y-102831000D01*
X116625000Y-102831000D01*
X116625000Y-104433000D01*
X116625000Y-104433000D01*
G37*
G36*
X95755000Y-103009000D02*
G01*
X93953000Y-103009000D01*
X93953000Y-101207000D01*
X95755000Y-101207000D01*
X95755000Y-103009000D01*
X95755000Y-103009000D01*
G37*
G36*
X94964442Y-98673518D02*
G01*
X95030627Y-98680037D01*
X95200466Y-98731557D01*
X95356991Y-98815222D01*
X95392729Y-98844552D01*
X95494186Y-98927814D01*
X95577448Y-99029271D01*
X95606778Y-99065009D01*
X95690443Y-99221534D01*
X95741963Y-99391373D01*
X95759359Y-99568000D01*
X95741963Y-99744627D01*
X95690443Y-99914466D01*
X95606778Y-100070991D01*
X95577448Y-100106729D01*
X95494186Y-100208186D01*
X95392729Y-100291448D01*
X95356991Y-100320778D01*
X95200466Y-100404443D01*
X95030627Y-100455963D01*
X94964442Y-100462482D01*
X94898260Y-100469000D01*
X94809740Y-100469000D01*
X94743557Y-100462481D01*
X94677373Y-100455963D01*
X94507534Y-100404443D01*
X94351009Y-100320778D01*
X94315271Y-100291448D01*
X94213814Y-100208186D01*
X94130552Y-100106729D01*
X94101222Y-100070991D01*
X94017557Y-99914466D01*
X93966037Y-99744627D01*
X93948641Y-99568000D01*
X93966037Y-99391373D01*
X94017557Y-99221534D01*
X94101222Y-99065009D01*
X94130552Y-99029271D01*
X94213814Y-98927814D01*
X94315271Y-98844552D01*
X94351009Y-98815222D01*
X94507534Y-98731557D01*
X94677373Y-98680037D01*
X94743558Y-98673518D01*
X94809740Y-98667000D01*
X94898260Y-98667000D01*
X94964442Y-98673518D01*
X94964442Y-98673518D01*
G37*
G36*
X116184642Y-98797781D02*
G01*
X116330414Y-98858162D01*
X116330416Y-98858163D01*
X116461608Y-98945822D01*
X116573178Y-99057392D01*
X116660837Y-99188584D01*
X116660838Y-99188586D01*
X116721219Y-99334358D01*
X116752000Y-99489107D01*
X116752000Y-99646893D01*
X116721219Y-99801642D01*
X116660838Y-99947414D01*
X116660837Y-99947416D01*
X116573178Y-100078608D01*
X116461608Y-100190178D01*
X116330416Y-100277837D01*
X116330415Y-100277838D01*
X116330414Y-100277838D01*
X116184642Y-100338219D01*
X116029893Y-100369000D01*
X115872107Y-100369000D01*
X115717358Y-100338219D01*
X115571586Y-100277838D01*
X115571585Y-100277838D01*
X115571584Y-100277837D01*
X115440392Y-100190178D01*
X115328822Y-100078608D01*
X115241163Y-99947416D01*
X115241162Y-99947414D01*
X115180781Y-99801642D01*
X115150000Y-99646893D01*
X115150000Y-99489107D01*
X115180781Y-99334358D01*
X115241162Y-99188586D01*
X115241163Y-99188584D01*
X115328822Y-99057392D01*
X115440392Y-98945822D01*
X115571584Y-98858163D01*
X115571586Y-98858162D01*
X115717358Y-98797781D01*
X115872107Y-98767000D01*
X116029893Y-98767000D01*
X116184642Y-98797781D01*
X116184642Y-98797781D01*
G37*
G36*
X116184642Y-96257781D02*
G01*
X116330414Y-96318162D01*
X116330416Y-96318163D01*
X116461608Y-96405822D01*
X116573178Y-96517392D01*
X116660837Y-96648584D01*
X116660838Y-96648586D01*
X116721219Y-96794358D01*
X116752000Y-96949107D01*
X116752000Y-97106893D01*
X116721219Y-97261642D01*
X116660838Y-97407414D01*
X116660837Y-97407416D01*
X116573178Y-97538608D01*
X116461608Y-97650178D01*
X116330416Y-97737837D01*
X116330415Y-97737838D01*
X116330414Y-97737838D01*
X116184642Y-97798219D01*
X116029893Y-97829000D01*
X115872107Y-97829000D01*
X115717358Y-97798219D01*
X115571586Y-97737838D01*
X115571585Y-97737838D01*
X115571584Y-97737837D01*
X115440392Y-97650178D01*
X115328822Y-97538608D01*
X115241163Y-97407416D01*
X115241162Y-97407414D01*
X115180781Y-97261642D01*
X115150000Y-97106893D01*
X115150000Y-96949107D01*
X115180781Y-96794358D01*
X115241162Y-96648586D01*
X115241163Y-96648584D01*
X115328822Y-96517392D01*
X115440392Y-96405822D01*
X115571584Y-96318163D01*
X115571586Y-96318162D01*
X115717358Y-96257781D01*
X115872107Y-96227000D01*
X116029893Y-96227000D01*
X116184642Y-96257781D01*
X116184642Y-96257781D01*
G37*
G36*
X116752000Y-95289000D02*
G01*
X115150000Y-95289000D01*
X115150000Y-93687000D01*
X116752000Y-93687000D01*
X116752000Y-95289000D01*
X116752000Y-95289000D01*
G37*
G36*
X95897000Y-95262000D02*
G01*
X94095000Y-95262000D01*
X94095000Y-93460000D01*
X95897000Y-93460000D01*
X95897000Y-95262000D01*
X95897000Y-95262000D01*
G37*
G36*
X142858443Y-91561519D02*
G01*
X142924627Y-91568037D01*
X143094466Y-91619557D01*
X143250991Y-91703222D01*
X143286729Y-91732552D01*
X143388186Y-91815814D01*
X143471448Y-91917271D01*
X143500778Y-91953009D01*
X143584443Y-92109534D01*
X143635963Y-92279373D01*
X143653359Y-92456000D01*
X143635963Y-92632627D01*
X143584443Y-92802466D01*
X143500778Y-92958991D01*
X143471448Y-92994729D01*
X143388186Y-93096186D01*
X143286729Y-93179448D01*
X143250991Y-93208778D01*
X143094466Y-93292443D01*
X142924627Y-93343963D01*
X142858442Y-93350482D01*
X142792260Y-93357000D01*
X142703740Y-93357000D01*
X142637558Y-93350482D01*
X142571373Y-93343963D01*
X142401534Y-93292443D01*
X142245009Y-93208778D01*
X142209271Y-93179448D01*
X142107814Y-93096186D01*
X142024552Y-92994729D01*
X141995222Y-92958991D01*
X141911557Y-92802466D01*
X141860037Y-92632627D01*
X141842641Y-92456000D01*
X141860037Y-92279373D01*
X141911557Y-92109534D01*
X141995222Y-91953009D01*
X142024552Y-91917271D01*
X142107814Y-91815814D01*
X142209271Y-91732552D01*
X142245009Y-91703222D01*
X142401534Y-91619557D01*
X142571373Y-91568037D01*
X142637557Y-91561519D01*
X142703740Y-91555000D01*
X142792260Y-91555000D01*
X142858443Y-91561519D01*
X142858443Y-91561519D01*
G37*
G36*
X145398443Y-91561519D02*
G01*
X145464627Y-91568037D01*
X145634466Y-91619557D01*
X145790991Y-91703222D01*
X145826729Y-91732552D01*
X145928186Y-91815814D01*
X146011448Y-91917271D01*
X146040778Y-91953009D01*
X146124443Y-92109534D01*
X146175963Y-92279373D01*
X146193359Y-92456000D01*
X146175963Y-92632627D01*
X146124443Y-92802466D01*
X146040778Y-92958991D01*
X146011448Y-92994729D01*
X145928186Y-93096186D01*
X145826729Y-93179448D01*
X145790991Y-93208778D01*
X145634466Y-93292443D01*
X145464627Y-93343963D01*
X145398442Y-93350482D01*
X145332260Y-93357000D01*
X145243740Y-93357000D01*
X145177558Y-93350482D01*
X145111373Y-93343963D01*
X144941534Y-93292443D01*
X144785009Y-93208778D01*
X144749271Y-93179448D01*
X144647814Y-93096186D01*
X144564552Y-92994729D01*
X144535222Y-92958991D01*
X144451557Y-92802466D01*
X144400037Y-92632627D01*
X144382641Y-92456000D01*
X144400037Y-92279373D01*
X144451557Y-92109534D01*
X144535222Y-91953009D01*
X144564552Y-91917271D01*
X144647814Y-91815814D01*
X144749271Y-91732552D01*
X144785009Y-91703222D01*
X144941534Y-91619557D01*
X145111373Y-91568037D01*
X145177557Y-91561519D01*
X145243740Y-91555000D01*
X145332260Y-91555000D01*
X145398443Y-91561519D01*
X145398443Y-91561519D01*
G37*
G36*
X95106443Y-90926519D02*
G01*
X95172627Y-90933037D01*
X95342466Y-90984557D01*
X95498991Y-91068222D01*
X95534729Y-91097552D01*
X95636186Y-91180814D01*
X95719448Y-91282271D01*
X95748778Y-91318009D01*
X95832443Y-91474534D01*
X95883963Y-91644373D01*
X95901359Y-91821000D01*
X95883963Y-91997627D01*
X95832443Y-92167466D01*
X95748778Y-92323991D01*
X95719448Y-92359729D01*
X95636186Y-92461186D01*
X95534729Y-92544448D01*
X95498991Y-92573778D01*
X95342466Y-92657443D01*
X95172627Y-92708963D01*
X95106443Y-92715481D01*
X95040260Y-92722000D01*
X94951740Y-92722000D01*
X94885557Y-92715481D01*
X94819373Y-92708963D01*
X94649534Y-92657443D01*
X94493009Y-92573778D01*
X94457271Y-92544448D01*
X94355814Y-92461186D01*
X94272552Y-92359729D01*
X94243222Y-92323991D01*
X94159557Y-92167466D01*
X94108037Y-91997627D01*
X94090641Y-91821000D01*
X94108037Y-91644373D01*
X94159557Y-91474534D01*
X94243222Y-91318009D01*
X94272552Y-91282271D01*
X94355814Y-91180814D01*
X94457271Y-91097552D01*
X94493009Y-91068222D01*
X94649534Y-90984557D01*
X94819373Y-90933037D01*
X94885557Y-90926519D01*
X94951740Y-90920000D01*
X95040260Y-90920000D01*
X95106443Y-90926519D01*
X95106443Y-90926519D01*
G37*
G36*
X145398442Y-89021518D02*
G01*
X145464627Y-89028037D01*
X145634466Y-89079557D01*
X145790991Y-89163222D01*
X145826729Y-89192552D01*
X145928186Y-89275814D01*
X146011448Y-89377271D01*
X146040778Y-89413009D01*
X146124443Y-89569534D01*
X146175963Y-89739373D01*
X146193359Y-89916000D01*
X146175963Y-90092627D01*
X146124443Y-90262466D01*
X146040778Y-90418991D01*
X146011448Y-90454729D01*
X145928186Y-90556186D01*
X145826729Y-90639448D01*
X145790991Y-90668778D01*
X145634466Y-90752443D01*
X145464627Y-90803963D01*
X145398443Y-90810481D01*
X145332260Y-90817000D01*
X145243740Y-90817000D01*
X145177557Y-90810481D01*
X145111373Y-90803963D01*
X144941534Y-90752443D01*
X144785009Y-90668778D01*
X144749271Y-90639448D01*
X144647814Y-90556186D01*
X144564552Y-90454729D01*
X144535222Y-90418991D01*
X144451557Y-90262466D01*
X144400037Y-90092627D01*
X144382641Y-89916000D01*
X144400037Y-89739373D01*
X144451557Y-89569534D01*
X144535222Y-89413009D01*
X144564552Y-89377271D01*
X144647814Y-89275814D01*
X144749271Y-89192552D01*
X144785009Y-89163222D01*
X144941534Y-89079557D01*
X145111373Y-89028037D01*
X145177558Y-89021518D01*
X145243740Y-89015000D01*
X145332260Y-89015000D01*
X145398442Y-89021518D01*
X145398442Y-89021518D01*
G37*
G36*
X142858442Y-89021518D02*
G01*
X142924627Y-89028037D01*
X143094466Y-89079557D01*
X143250991Y-89163222D01*
X143286729Y-89192552D01*
X143388186Y-89275814D01*
X143471448Y-89377271D01*
X143500778Y-89413009D01*
X143584443Y-89569534D01*
X143635963Y-89739373D01*
X143653359Y-89916000D01*
X143635963Y-90092627D01*
X143584443Y-90262466D01*
X143500778Y-90418991D01*
X143471448Y-90454729D01*
X143388186Y-90556186D01*
X143286729Y-90639448D01*
X143250991Y-90668778D01*
X143094466Y-90752443D01*
X142924627Y-90803963D01*
X142858443Y-90810481D01*
X142792260Y-90817000D01*
X142703740Y-90817000D01*
X142637557Y-90810481D01*
X142571373Y-90803963D01*
X142401534Y-90752443D01*
X142245009Y-90668778D01*
X142209271Y-90639448D01*
X142107814Y-90556186D01*
X142024552Y-90454729D01*
X141995222Y-90418991D01*
X141911557Y-90262466D01*
X141860037Y-90092627D01*
X141842641Y-89916000D01*
X141860037Y-89739373D01*
X141911557Y-89569534D01*
X141995222Y-89413009D01*
X142024552Y-89377271D01*
X142107814Y-89275814D01*
X142209271Y-89192552D01*
X142245009Y-89163222D01*
X142401534Y-89079557D01*
X142571373Y-89028037D01*
X142637558Y-89021518D01*
X142703740Y-89015000D01*
X142792260Y-89015000D01*
X142858442Y-89021518D01*
X142858442Y-89021518D01*
G37*
G36*
X116311642Y-87113781D02*
G01*
X116457414Y-87174162D01*
X116457416Y-87174163D01*
X116588608Y-87261822D01*
X116700178Y-87373392D01*
X116787837Y-87504584D01*
X116787838Y-87504586D01*
X116848219Y-87650358D01*
X116879000Y-87805107D01*
X116879000Y-87962893D01*
X116848219Y-88117642D01*
X116808951Y-88212442D01*
X116787837Y-88263416D01*
X116700178Y-88394608D01*
X116588608Y-88506178D01*
X116457416Y-88593837D01*
X116457415Y-88593838D01*
X116457414Y-88593838D01*
X116311642Y-88654219D01*
X116156893Y-88685000D01*
X115999107Y-88685000D01*
X115844358Y-88654219D01*
X115698586Y-88593838D01*
X115698585Y-88593838D01*
X115698584Y-88593837D01*
X115567392Y-88506178D01*
X115455822Y-88394608D01*
X115368163Y-88263416D01*
X115347049Y-88212442D01*
X115307781Y-88117642D01*
X115277000Y-87962893D01*
X115277000Y-87805107D01*
X115307781Y-87650358D01*
X115368162Y-87504586D01*
X115368163Y-87504584D01*
X115455822Y-87373392D01*
X115567392Y-87261822D01*
X115698584Y-87174163D01*
X115698586Y-87174162D01*
X115844358Y-87113781D01*
X115999107Y-87083000D01*
X116156893Y-87083000D01*
X116311642Y-87113781D01*
X116311642Y-87113781D01*
G37*
G36*
X142858442Y-86481518D02*
G01*
X142924627Y-86488037D01*
X143094466Y-86539557D01*
X143250991Y-86623222D01*
X143286729Y-86652552D01*
X143388186Y-86735814D01*
X143471448Y-86837271D01*
X143500778Y-86873009D01*
X143584443Y-87029534D01*
X143635963Y-87199373D01*
X143653359Y-87376000D01*
X143635963Y-87552627D01*
X143584443Y-87722466D01*
X143500778Y-87878991D01*
X143471448Y-87914729D01*
X143388186Y-88016186D01*
X143286729Y-88099448D01*
X143250991Y-88128778D01*
X143094466Y-88212443D01*
X142924627Y-88263963D01*
X142858442Y-88270482D01*
X142792260Y-88277000D01*
X142703740Y-88277000D01*
X142637558Y-88270482D01*
X142571373Y-88263963D01*
X142401534Y-88212443D01*
X142245009Y-88128778D01*
X142209271Y-88099448D01*
X142107814Y-88016186D01*
X142024552Y-87914729D01*
X141995222Y-87878991D01*
X141911557Y-87722466D01*
X141860037Y-87552627D01*
X141842641Y-87376000D01*
X141860037Y-87199373D01*
X141911557Y-87029534D01*
X141995222Y-86873009D01*
X142024552Y-86837271D01*
X142107814Y-86735814D01*
X142209271Y-86652552D01*
X142245009Y-86623222D01*
X142401534Y-86539557D01*
X142571373Y-86488037D01*
X142637558Y-86481518D01*
X142703740Y-86475000D01*
X142792260Y-86475000D01*
X142858442Y-86481518D01*
X142858442Y-86481518D01*
G37*
G36*
X145398442Y-86481518D02*
G01*
X145464627Y-86488037D01*
X145634466Y-86539557D01*
X145790991Y-86623222D01*
X145826729Y-86652552D01*
X145928186Y-86735814D01*
X146011448Y-86837271D01*
X146040778Y-86873009D01*
X146124443Y-87029534D01*
X146175963Y-87199373D01*
X146193359Y-87376000D01*
X146175963Y-87552627D01*
X146124443Y-87722466D01*
X146040778Y-87878991D01*
X146011448Y-87914729D01*
X145928186Y-88016186D01*
X145826729Y-88099448D01*
X145790991Y-88128778D01*
X145634466Y-88212443D01*
X145464627Y-88263963D01*
X145398442Y-88270482D01*
X145332260Y-88277000D01*
X145243740Y-88277000D01*
X145177558Y-88270482D01*
X145111373Y-88263963D01*
X144941534Y-88212443D01*
X144785009Y-88128778D01*
X144749271Y-88099448D01*
X144647814Y-88016186D01*
X144564552Y-87914729D01*
X144535222Y-87878991D01*
X144451557Y-87722466D01*
X144400037Y-87552627D01*
X144382641Y-87376000D01*
X144400037Y-87199373D01*
X144451557Y-87029534D01*
X144535222Y-86873009D01*
X144564552Y-86837271D01*
X144647814Y-86735814D01*
X144749271Y-86652552D01*
X144785009Y-86623222D01*
X144941534Y-86539557D01*
X145111373Y-86488037D01*
X145177558Y-86481518D01*
X145243740Y-86475000D01*
X145332260Y-86475000D01*
X145398442Y-86481518D01*
X145398442Y-86481518D01*
G37*
G36*
X96039000Y-87007000D02*
G01*
X94237000Y-87007000D01*
X94237000Y-85205000D01*
X96039000Y-85205000D01*
X96039000Y-87007000D01*
X96039000Y-87007000D01*
G37*
G36*
X116311642Y-84573781D02*
G01*
X116457414Y-84634162D01*
X116457416Y-84634163D01*
X116588608Y-84721822D01*
X116700178Y-84833392D01*
X116787837Y-84964584D01*
X116787838Y-84964586D01*
X116848219Y-85110358D01*
X116879000Y-85265107D01*
X116879000Y-85422893D01*
X116848219Y-85577642D01*
X116808951Y-85672442D01*
X116787837Y-85723416D01*
X116700178Y-85854608D01*
X116588608Y-85966178D01*
X116457416Y-86053837D01*
X116457415Y-86053838D01*
X116457414Y-86053838D01*
X116311642Y-86114219D01*
X116156893Y-86145000D01*
X115999107Y-86145000D01*
X115844358Y-86114219D01*
X115698586Y-86053838D01*
X115698585Y-86053838D01*
X115698584Y-86053837D01*
X115567392Y-85966178D01*
X115455822Y-85854608D01*
X115368163Y-85723416D01*
X115347049Y-85672442D01*
X115307781Y-85577642D01*
X115277000Y-85422893D01*
X115277000Y-85265107D01*
X115307781Y-85110358D01*
X115368162Y-84964586D01*
X115368163Y-84964584D01*
X115455822Y-84833392D01*
X115567392Y-84721822D01*
X115698584Y-84634163D01*
X115698586Y-84634162D01*
X115844358Y-84573781D01*
X115999107Y-84543000D01*
X116156893Y-84543000D01*
X116311642Y-84573781D01*
X116311642Y-84573781D01*
G37*
G36*
X145398443Y-83941519D02*
G01*
X145464627Y-83948037D01*
X145634466Y-83999557D01*
X145790991Y-84083222D01*
X145826729Y-84112552D01*
X145928186Y-84195814D01*
X146011448Y-84297271D01*
X146040778Y-84333009D01*
X146124443Y-84489534D01*
X146175963Y-84659373D01*
X146193359Y-84836000D01*
X146175963Y-85012627D01*
X146124443Y-85182466D01*
X146040778Y-85338991D01*
X146011448Y-85374729D01*
X145928186Y-85476186D01*
X145826729Y-85559448D01*
X145790991Y-85588778D01*
X145634466Y-85672443D01*
X145464627Y-85723963D01*
X145398443Y-85730481D01*
X145332260Y-85737000D01*
X145243740Y-85737000D01*
X145177557Y-85730481D01*
X145111373Y-85723963D01*
X144941534Y-85672443D01*
X144785009Y-85588778D01*
X144749271Y-85559448D01*
X144647814Y-85476186D01*
X144564552Y-85374729D01*
X144535222Y-85338991D01*
X144451557Y-85182466D01*
X144400037Y-85012627D01*
X144382641Y-84836000D01*
X144400037Y-84659373D01*
X144451557Y-84489534D01*
X144535222Y-84333009D01*
X144564552Y-84297271D01*
X144647814Y-84195814D01*
X144749271Y-84112552D01*
X144785009Y-84083222D01*
X144941534Y-83999557D01*
X145111373Y-83948037D01*
X145177557Y-83941519D01*
X145243740Y-83935000D01*
X145332260Y-83935000D01*
X145398443Y-83941519D01*
X145398443Y-83941519D01*
G37*
G36*
X142858443Y-83941519D02*
G01*
X142924627Y-83948037D01*
X143094466Y-83999557D01*
X143250991Y-84083222D01*
X143286729Y-84112552D01*
X143388186Y-84195814D01*
X143471448Y-84297271D01*
X143500778Y-84333009D01*
X143584443Y-84489534D01*
X143635963Y-84659373D01*
X143653359Y-84836000D01*
X143635963Y-85012627D01*
X143584443Y-85182466D01*
X143500778Y-85338991D01*
X143471448Y-85374729D01*
X143388186Y-85476186D01*
X143286729Y-85559448D01*
X143250991Y-85588778D01*
X143094466Y-85672443D01*
X142924627Y-85723963D01*
X142858443Y-85730481D01*
X142792260Y-85737000D01*
X142703740Y-85737000D01*
X142637557Y-85730481D01*
X142571373Y-85723963D01*
X142401534Y-85672443D01*
X142245009Y-85588778D01*
X142209271Y-85559448D01*
X142107814Y-85476186D01*
X142024552Y-85374729D01*
X141995222Y-85338991D01*
X141911557Y-85182466D01*
X141860037Y-85012627D01*
X141842641Y-84836000D01*
X141860037Y-84659373D01*
X141911557Y-84489534D01*
X141995222Y-84333009D01*
X142024552Y-84297271D01*
X142107814Y-84195814D01*
X142209271Y-84112552D01*
X142245009Y-84083222D01*
X142401534Y-83999557D01*
X142571373Y-83948037D01*
X142637557Y-83941519D01*
X142703740Y-83935000D01*
X142792260Y-83935000D01*
X142858443Y-83941519D01*
X142858443Y-83941519D01*
G37*
G36*
X95248442Y-82671518D02*
G01*
X95314627Y-82678037D01*
X95484466Y-82729557D01*
X95640991Y-82813222D01*
X95676729Y-82842552D01*
X95778186Y-82925814D01*
X95861448Y-83027271D01*
X95890778Y-83063009D01*
X95974443Y-83219534D01*
X96025963Y-83389373D01*
X96043359Y-83566000D01*
X96025963Y-83742627D01*
X95974443Y-83912466D01*
X95890778Y-84068991D01*
X95861448Y-84104729D01*
X95778186Y-84206186D01*
X95676729Y-84289448D01*
X95640991Y-84318778D01*
X95484466Y-84402443D01*
X95314627Y-84453963D01*
X95248443Y-84460481D01*
X95182260Y-84467000D01*
X95093740Y-84467000D01*
X95027557Y-84460481D01*
X94961373Y-84453963D01*
X94791534Y-84402443D01*
X94635009Y-84318778D01*
X94599271Y-84289448D01*
X94497814Y-84206186D01*
X94414552Y-84104729D01*
X94385222Y-84068991D01*
X94301557Y-83912466D01*
X94250037Y-83742627D01*
X94232641Y-83566000D01*
X94250037Y-83389373D01*
X94301557Y-83219534D01*
X94385222Y-83063009D01*
X94414552Y-83027271D01*
X94497814Y-82925814D01*
X94599271Y-82842552D01*
X94635009Y-82813222D01*
X94791534Y-82729557D01*
X94961373Y-82678037D01*
X95027558Y-82671518D01*
X95093740Y-82665000D01*
X95182260Y-82665000D01*
X95248442Y-82671518D01*
X95248442Y-82671518D01*
G37*
G36*
X116879000Y-83605000D02*
G01*
X115277000Y-83605000D01*
X115277000Y-82003000D01*
X116879000Y-82003000D01*
X116879000Y-83605000D01*
X116879000Y-83605000D01*
G37*
G36*
X142858443Y-81401519D02*
G01*
X142924627Y-81408037D01*
X143094466Y-81459557D01*
X143250991Y-81543222D01*
X143286729Y-81572552D01*
X143388186Y-81655814D01*
X143471448Y-81757271D01*
X143500778Y-81793009D01*
X143584443Y-81949534D01*
X143635963Y-82119373D01*
X143653359Y-82296000D01*
X143635963Y-82472627D01*
X143584443Y-82642466D01*
X143500778Y-82798991D01*
X143471448Y-82834729D01*
X143388186Y-82936186D01*
X143286729Y-83019448D01*
X143250991Y-83048778D01*
X143094466Y-83132443D01*
X142924627Y-83183963D01*
X142858442Y-83190482D01*
X142792260Y-83197000D01*
X142703740Y-83197000D01*
X142637558Y-83190482D01*
X142571373Y-83183963D01*
X142401534Y-83132443D01*
X142245009Y-83048778D01*
X142209271Y-83019448D01*
X142107814Y-82936186D01*
X142024552Y-82834729D01*
X141995222Y-82798991D01*
X141911557Y-82642466D01*
X141860037Y-82472627D01*
X141842641Y-82296000D01*
X141860037Y-82119373D01*
X141911557Y-81949534D01*
X141995222Y-81793009D01*
X142024552Y-81757271D01*
X142107814Y-81655814D01*
X142209271Y-81572552D01*
X142245009Y-81543222D01*
X142401534Y-81459557D01*
X142571373Y-81408037D01*
X142637557Y-81401519D01*
X142703740Y-81395000D01*
X142792260Y-81395000D01*
X142858443Y-81401519D01*
X142858443Y-81401519D01*
G37*
G36*
X145398443Y-81401519D02*
G01*
X145464627Y-81408037D01*
X145634466Y-81459557D01*
X145790991Y-81543222D01*
X145826729Y-81572552D01*
X145928186Y-81655814D01*
X146011448Y-81757271D01*
X146040778Y-81793009D01*
X146124443Y-81949534D01*
X146175963Y-82119373D01*
X146193359Y-82296000D01*
X146175963Y-82472627D01*
X146124443Y-82642466D01*
X146040778Y-82798991D01*
X146011448Y-82834729D01*
X145928186Y-82936186D01*
X145826729Y-83019448D01*
X145790991Y-83048778D01*
X145634466Y-83132443D01*
X145464627Y-83183963D01*
X145398442Y-83190482D01*
X145332260Y-83197000D01*
X145243740Y-83197000D01*
X145177558Y-83190482D01*
X145111373Y-83183963D01*
X144941534Y-83132443D01*
X144785009Y-83048778D01*
X144749271Y-83019448D01*
X144647814Y-82936186D01*
X144564552Y-82834729D01*
X144535222Y-82798991D01*
X144451557Y-82642466D01*
X144400037Y-82472627D01*
X144382641Y-82296000D01*
X144400037Y-82119373D01*
X144451557Y-81949534D01*
X144535222Y-81793009D01*
X144564552Y-81757271D01*
X144647814Y-81655814D01*
X144749271Y-81572552D01*
X144785009Y-81543222D01*
X144941534Y-81459557D01*
X145111373Y-81408037D01*
X145177557Y-81401519D01*
X145243740Y-81395000D01*
X145332260Y-81395000D01*
X145398443Y-81401519D01*
X145398443Y-81401519D01*
G37*
G36*
X145398443Y-78861519D02*
G01*
X145464627Y-78868037D01*
X145634466Y-78919557D01*
X145790991Y-79003222D01*
X145826729Y-79032552D01*
X145928186Y-79115814D01*
X146011448Y-79217271D01*
X146040778Y-79253009D01*
X146124443Y-79409534D01*
X146175963Y-79579373D01*
X146193359Y-79756000D01*
X146175963Y-79932627D01*
X146124443Y-80102466D01*
X146040778Y-80258991D01*
X146011448Y-80294729D01*
X145928186Y-80396186D01*
X145826729Y-80479448D01*
X145790991Y-80508778D01*
X145634466Y-80592443D01*
X145464627Y-80643963D01*
X145398443Y-80650481D01*
X145332260Y-80657000D01*
X145243740Y-80657000D01*
X145177557Y-80650481D01*
X145111373Y-80643963D01*
X144941534Y-80592443D01*
X144785009Y-80508778D01*
X144749271Y-80479448D01*
X144647814Y-80396186D01*
X144564552Y-80294729D01*
X144535222Y-80258991D01*
X144451557Y-80102466D01*
X144400037Y-79932627D01*
X144382641Y-79756000D01*
X144400037Y-79579373D01*
X144451557Y-79409534D01*
X144535222Y-79253009D01*
X144564552Y-79217271D01*
X144647814Y-79115814D01*
X144749271Y-79032552D01*
X144785009Y-79003222D01*
X144941534Y-78919557D01*
X145111373Y-78868037D01*
X145177557Y-78861519D01*
X145243740Y-78855000D01*
X145332260Y-78855000D01*
X145398443Y-78861519D01*
X145398443Y-78861519D01*
G37*
G36*
X142858443Y-78861519D02*
G01*
X142924627Y-78868037D01*
X143094466Y-78919557D01*
X143250991Y-79003222D01*
X143286729Y-79032552D01*
X143388186Y-79115814D01*
X143471448Y-79217271D01*
X143500778Y-79253009D01*
X143584443Y-79409534D01*
X143635963Y-79579373D01*
X143653359Y-79756000D01*
X143635963Y-79932627D01*
X143584443Y-80102466D01*
X143500778Y-80258991D01*
X143471448Y-80294729D01*
X143388186Y-80396186D01*
X143286729Y-80479448D01*
X143250991Y-80508778D01*
X143094466Y-80592443D01*
X142924627Y-80643963D01*
X142858443Y-80650481D01*
X142792260Y-80657000D01*
X142703740Y-80657000D01*
X142637557Y-80650481D01*
X142571373Y-80643963D01*
X142401534Y-80592443D01*
X142245009Y-80508778D01*
X142209271Y-80479448D01*
X142107814Y-80396186D01*
X142024552Y-80294729D01*
X141995222Y-80258991D01*
X141911557Y-80102466D01*
X141860037Y-79932627D01*
X141842641Y-79756000D01*
X141860037Y-79579373D01*
X141911557Y-79409534D01*
X141995222Y-79253009D01*
X142024552Y-79217271D01*
X142107814Y-79115814D01*
X142209271Y-79032552D01*
X142245009Y-79003222D01*
X142401534Y-78919557D01*
X142571373Y-78868037D01*
X142637557Y-78861519D01*
X142703740Y-78855000D01*
X142792260Y-78855000D01*
X142858443Y-78861519D01*
X142858443Y-78861519D01*
G37*
G36*
X145398442Y-76321518D02*
G01*
X145464627Y-76328037D01*
X145634466Y-76379557D01*
X145790991Y-76463222D01*
X145826729Y-76492552D01*
X145928186Y-76575814D01*
X146011448Y-76677271D01*
X146040778Y-76713009D01*
X146124443Y-76869534D01*
X146175963Y-77039373D01*
X146193359Y-77216000D01*
X146175963Y-77392627D01*
X146124443Y-77562466D01*
X146040778Y-77718991D01*
X146011448Y-77754729D01*
X145928186Y-77856186D01*
X145826729Y-77939448D01*
X145790991Y-77968778D01*
X145634466Y-78052443D01*
X145464627Y-78103963D01*
X145398442Y-78110482D01*
X145332260Y-78117000D01*
X145243740Y-78117000D01*
X145177558Y-78110482D01*
X145111373Y-78103963D01*
X144941534Y-78052443D01*
X144785009Y-77968778D01*
X144749271Y-77939448D01*
X144647814Y-77856186D01*
X144564552Y-77754729D01*
X144535222Y-77718991D01*
X144451557Y-77562466D01*
X144400037Y-77392627D01*
X144382641Y-77216000D01*
X144400037Y-77039373D01*
X144451557Y-76869534D01*
X144535222Y-76713009D01*
X144564552Y-76677271D01*
X144647814Y-76575814D01*
X144749271Y-76492552D01*
X144785009Y-76463222D01*
X144941534Y-76379557D01*
X145111373Y-76328037D01*
X145177558Y-76321518D01*
X145243740Y-76315000D01*
X145332260Y-76315000D01*
X145398442Y-76321518D01*
X145398442Y-76321518D01*
G37*
G36*
X142858442Y-76321518D02*
G01*
X142924627Y-76328037D01*
X143094466Y-76379557D01*
X143250991Y-76463222D01*
X143286729Y-76492552D01*
X143388186Y-76575814D01*
X143471448Y-76677271D01*
X143500778Y-76713009D01*
X143584443Y-76869534D01*
X143635963Y-77039373D01*
X143653359Y-77216000D01*
X143635963Y-77392627D01*
X143584443Y-77562466D01*
X143500778Y-77718991D01*
X143471448Y-77754729D01*
X143388186Y-77856186D01*
X143286729Y-77939448D01*
X143250991Y-77968778D01*
X143094466Y-78052443D01*
X142924627Y-78103963D01*
X142858442Y-78110482D01*
X142792260Y-78117000D01*
X142703740Y-78117000D01*
X142637558Y-78110482D01*
X142571373Y-78103963D01*
X142401534Y-78052443D01*
X142245009Y-77968778D01*
X142209271Y-77939448D01*
X142107814Y-77856186D01*
X142024552Y-77754729D01*
X141995222Y-77718991D01*
X141911557Y-77562466D01*
X141860037Y-77392627D01*
X141842641Y-77216000D01*
X141860037Y-77039373D01*
X141911557Y-76869534D01*
X141995222Y-76713009D01*
X142024552Y-76677271D01*
X142107814Y-76575814D01*
X142209271Y-76492552D01*
X142245009Y-76463222D01*
X142401534Y-76379557D01*
X142571373Y-76328037D01*
X142637558Y-76321518D01*
X142703740Y-76315000D01*
X142792260Y-76315000D01*
X142858442Y-76321518D01*
X142858442Y-76321518D01*
G37*
G36*
X142858443Y-73781519D02*
G01*
X142924627Y-73788037D01*
X143094466Y-73839557D01*
X143250991Y-73923222D01*
X143286729Y-73952552D01*
X143388186Y-74035814D01*
X143471448Y-74137271D01*
X143500778Y-74173009D01*
X143584443Y-74329534D01*
X143635963Y-74499373D01*
X143653359Y-74676000D01*
X143635963Y-74852627D01*
X143584443Y-75022466D01*
X143500778Y-75178991D01*
X143471448Y-75214729D01*
X143388186Y-75316186D01*
X143286729Y-75399448D01*
X143250991Y-75428778D01*
X143094466Y-75512443D01*
X142924627Y-75563963D01*
X142858443Y-75570481D01*
X142792260Y-75577000D01*
X142703740Y-75577000D01*
X142637557Y-75570481D01*
X142571373Y-75563963D01*
X142401534Y-75512443D01*
X142245009Y-75428778D01*
X142209271Y-75399448D01*
X142107814Y-75316186D01*
X142024552Y-75214729D01*
X141995222Y-75178991D01*
X141911557Y-75022466D01*
X141860037Y-74852627D01*
X141842641Y-74676000D01*
X141860037Y-74499373D01*
X141911557Y-74329534D01*
X141995222Y-74173009D01*
X142024552Y-74137271D01*
X142107814Y-74035814D01*
X142209271Y-73952552D01*
X142245009Y-73923222D01*
X142401534Y-73839557D01*
X142571373Y-73788037D01*
X142637557Y-73781519D01*
X142703740Y-73775000D01*
X142792260Y-73775000D01*
X142858443Y-73781519D01*
X142858443Y-73781519D01*
G37*
G36*
X145398443Y-73781519D02*
G01*
X145464627Y-73788037D01*
X145634466Y-73839557D01*
X145790991Y-73923222D01*
X145826729Y-73952552D01*
X145928186Y-74035814D01*
X146011448Y-74137271D01*
X146040778Y-74173009D01*
X146124443Y-74329534D01*
X146175963Y-74499373D01*
X146193359Y-74676000D01*
X146175963Y-74852627D01*
X146124443Y-75022466D01*
X146040778Y-75178991D01*
X146011448Y-75214729D01*
X145928186Y-75316186D01*
X145826729Y-75399448D01*
X145790991Y-75428778D01*
X145634466Y-75512443D01*
X145464627Y-75563963D01*
X145398443Y-75570481D01*
X145332260Y-75577000D01*
X145243740Y-75577000D01*
X145177557Y-75570481D01*
X145111373Y-75563963D01*
X144941534Y-75512443D01*
X144785009Y-75428778D01*
X144749271Y-75399448D01*
X144647814Y-75316186D01*
X144564552Y-75214729D01*
X144535222Y-75178991D01*
X144451557Y-75022466D01*
X144400037Y-74852627D01*
X144382641Y-74676000D01*
X144400037Y-74499373D01*
X144451557Y-74329534D01*
X144535222Y-74173009D01*
X144564552Y-74137271D01*
X144647814Y-74035814D01*
X144749271Y-73952552D01*
X144785009Y-73923222D01*
X144941534Y-73839557D01*
X145111373Y-73788037D01*
X145177557Y-73781519D01*
X145243740Y-73775000D01*
X145332260Y-73775000D01*
X145398443Y-73781519D01*
X145398443Y-73781519D01*
G37*
G36*
X142858443Y-71241519D02*
G01*
X142924627Y-71248037D01*
X143094466Y-71299557D01*
X143250991Y-71383222D01*
X143286729Y-71412552D01*
X143388186Y-71495814D01*
X143471448Y-71597271D01*
X143500778Y-71633009D01*
X143584443Y-71789534D01*
X143635963Y-71959373D01*
X143653359Y-72136000D01*
X143635963Y-72312627D01*
X143584443Y-72482466D01*
X143500778Y-72638991D01*
X143471448Y-72674729D01*
X143388186Y-72776186D01*
X143286729Y-72859448D01*
X143250991Y-72888778D01*
X143094466Y-72972443D01*
X142924627Y-73023963D01*
X142858443Y-73030481D01*
X142792260Y-73037000D01*
X142703740Y-73037000D01*
X142637557Y-73030481D01*
X142571373Y-73023963D01*
X142401534Y-72972443D01*
X142245009Y-72888778D01*
X142209271Y-72859448D01*
X142107814Y-72776186D01*
X142024552Y-72674729D01*
X141995222Y-72638991D01*
X141911557Y-72482466D01*
X141860037Y-72312627D01*
X141842641Y-72136000D01*
X141860037Y-71959373D01*
X141911557Y-71789534D01*
X141995222Y-71633009D01*
X142024552Y-71597271D01*
X142107814Y-71495814D01*
X142209271Y-71412552D01*
X142245009Y-71383222D01*
X142401534Y-71299557D01*
X142571373Y-71248037D01*
X142637557Y-71241519D01*
X142703740Y-71235000D01*
X142792260Y-71235000D01*
X142858443Y-71241519D01*
X142858443Y-71241519D01*
G37*
G36*
X145398443Y-71241519D02*
G01*
X145464627Y-71248037D01*
X145634466Y-71299557D01*
X145790991Y-71383222D01*
X145826729Y-71412552D01*
X145928186Y-71495814D01*
X146011448Y-71597271D01*
X146040778Y-71633009D01*
X146124443Y-71789534D01*
X146175963Y-71959373D01*
X146193359Y-72136000D01*
X146175963Y-72312627D01*
X146124443Y-72482466D01*
X146040778Y-72638991D01*
X146011448Y-72674729D01*
X145928186Y-72776186D01*
X145826729Y-72859448D01*
X145790991Y-72888778D01*
X145634466Y-72972443D01*
X145464627Y-73023963D01*
X145398443Y-73030481D01*
X145332260Y-73037000D01*
X145243740Y-73037000D01*
X145177557Y-73030481D01*
X145111373Y-73023963D01*
X144941534Y-72972443D01*
X144785009Y-72888778D01*
X144749271Y-72859448D01*
X144647814Y-72776186D01*
X144564552Y-72674729D01*
X144535222Y-72638991D01*
X144451557Y-72482466D01*
X144400037Y-72312627D01*
X144382641Y-72136000D01*
X144400037Y-71959373D01*
X144451557Y-71789534D01*
X144535222Y-71633009D01*
X144564552Y-71597271D01*
X144647814Y-71495814D01*
X144749271Y-71412552D01*
X144785009Y-71383222D01*
X144941534Y-71299557D01*
X145111373Y-71248037D01*
X145177557Y-71241519D01*
X145243740Y-71235000D01*
X145332260Y-71235000D01*
X145398443Y-71241519D01*
X145398443Y-71241519D01*
G37*
G36*
X84438443Y-68701519D02*
G01*
X84504627Y-68708037D01*
X84674466Y-68759557D01*
X84830991Y-68843222D01*
X84866729Y-68872552D01*
X84968186Y-68955814D01*
X85051448Y-69057271D01*
X85080778Y-69093009D01*
X85164443Y-69249534D01*
X85215963Y-69419373D01*
X85233359Y-69596000D01*
X85215963Y-69772627D01*
X85164443Y-69942466D01*
X85080778Y-70098991D01*
X85051448Y-70134729D01*
X84968186Y-70236186D01*
X84866729Y-70319448D01*
X84830991Y-70348778D01*
X84674466Y-70432443D01*
X84504627Y-70483963D01*
X84438443Y-70490481D01*
X84372260Y-70497000D01*
X84283740Y-70497000D01*
X84217557Y-70490481D01*
X84151373Y-70483963D01*
X83981534Y-70432443D01*
X83825009Y-70348778D01*
X83789271Y-70319448D01*
X83687814Y-70236186D01*
X83604552Y-70134729D01*
X83575222Y-70098991D01*
X83491557Y-69942466D01*
X83440037Y-69772627D01*
X83422641Y-69596000D01*
X83440037Y-69419373D01*
X83491557Y-69249534D01*
X83575222Y-69093009D01*
X83604552Y-69057271D01*
X83687814Y-68955814D01*
X83789271Y-68872552D01*
X83825009Y-68843222D01*
X83981534Y-68759557D01*
X84151373Y-68708037D01*
X84217557Y-68701519D01*
X84283740Y-68695000D01*
X84372260Y-68695000D01*
X84438443Y-68701519D01*
X84438443Y-68701519D01*
G37*
G36*
X145398443Y-68701519D02*
G01*
X145464627Y-68708037D01*
X145634466Y-68759557D01*
X145790991Y-68843222D01*
X145826729Y-68872552D01*
X145928186Y-68955814D01*
X146011448Y-69057271D01*
X146040778Y-69093009D01*
X146124443Y-69249534D01*
X146175963Y-69419373D01*
X146193359Y-69596000D01*
X146175963Y-69772627D01*
X146124443Y-69942466D01*
X146040778Y-70098991D01*
X146011448Y-70134729D01*
X145928186Y-70236186D01*
X145826729Y-70319448D01*
X145790991Y-70348778D01*
X145634466Y-70432443D01*
X145464627Y-70483963D01*
X145398443Y-70490481D01*
X145332260Y-70497000D01*
X145243740Y-70497000D01*
X145177557Y-70490481D01*
X145111373Y-70483963D01*
X144941534Y-70432443D01*
X144785009Y-70348778D01*
X144749271Y-70319448D01*
X144647814Y-70236186D01*
X144564552Y-70134729D01*
X144535222Y-70098991D01*
X144451557Y-69942466D01*
X144400037Y-69772627D01*
X144382641Y-69596000D01*
X144400037Y-69419373D01*
X144451557Y-69249534D01*
X144535222Y-69093009D01*
X144564552Y-69057271D01*
X144647814Y-68955814D01*
X144749271Y-68872552D01*
X144785009Y-68843222D01*
X144941534Y-68759557D01*
X145111373Y-68708037D01*
X145177557Y-68701519D01*
X145243740Y-68695000D01*
X145332260Y-68695000D01*
X145398443Y-68701519D01*
X145398443Y-68701519D01*
G37*
G36*
X81898443Y-68701519D02*
G01*
X81964627Y-68708037D01*
X82134466Y-68759557D01*
X82290991Y-68843222D01*
X82326729Y-68872552D01*
X82428186Y-68955814D01*
X82511448Y-69057271D01*
X82540778Y-69093009D01*
X82624443Y-69249534D01*
X82675963Y-69419373D01*
X82693359Y-69596000D01*
X82675963Y-69772627D01*
X82624443Y-69942466D01*
X82540778Y-70098991D01*
X82511448Y-70134729D01*
X82428186Y-70236186D01*
X82326729Y-70319448D01*
X82290991Y-70348778D01*
X82134466Y-70432443D01*
X81964627Y-70483963D01*
X81898443Y-70490481D01*
X81832260Y-70497000D01*
X81743740Y-70497000D01*
X81677557Y-70490481D01*
X81611373Y-70483963D01*
X81441534Y-70432443D01*
X81285009Y-70348778D01*
X81249271Y-70319448D01*
X81147814Y-70236186D01*
X81064552Y-70134729D01*
X81035222Y-70098991D01*
X80951557Y-69942466D01*
X80900037Y-69772627D01*
X80882641Y-69596000D01*
X80900037Y-69419373D01*
X80951557Y-69249534D01*
X81035222Y-69093009D01*
X81064552Y-69057271D01*
X81147814Y-68955814D01*
X81249271Y-68872552D01*
X81285009Y-68843222D01*
X81441534Y-68759557D01*
X81611373Y-68708037D01*
X81677557Y-68701519D01*
X81743740Y-68695000D01*
X81832260Y-68695000D01*
X81898443Y-68701519D01*
X81898443Y-68701519D01*
G37*
G36*
X142858443Y-68701519D02*
G01*
X142924627Y-68708037D01*
X143094466Y-68759557D01*
X143250991Y-68843222D01*
X143286729Y-68872552D01*
X143388186Y-68955814D01*
X143471448Y-69057271D01*
X143500778Y-69093009D01*
X143584443Y-69249534D01*
X143635963Y-69419373D01*
X143653359Y-69596000D01*
X143635963Y-69772627D01*
X143584443Y-69942466D01*
X143500778Y-70098991D01*
X143471448Y-70134729D01*
X143388186Y-70236186D01*
X143286729Y-70319448D01*
X143250991Y-70348778D01*
X143094466Y-70432443D01*
X142924627Y-70483963D01*
X142858443Y-70490481D01*
X142792260Y-70497000D01*
X142703740Y-70497000D01*
X142637557Y-70490481D01*
X142571373Y-70483963D01*
X142401534Y-70432443D01*
X142245009Y-70348778D01*
X142209271Y-70319448D01*
X142107814Y-70236186D01*
X142024552Y-70134729D01*
X141995222Y-70098991D01*
X141911557Y-69942466D01*
X141860037Y-69772627D01*
X141842641Y-69596000D01*
X141860037Y-69419373D01*
X141911557Y-69249534D01*
X141995222Y-69093009D01*
X142024552Y-69057271D01*
X142107814Y-68955814D01*
X142209271Y-68872552D01*
X142245009Y-68843222D01*
X142401534Y-68759557D01*
X142571373Y-68708037D01*
X142637557Y-68701519D01*
X142703740Y-68695000D01*
X142792260Y-68695000D01*
X142858443Y-68701519D01*
X142858443Y-68701519D01*
G37*
G36*
X142858442Y-66161518D02*
G01*
X142924627Y-66168037D01*
X143094466Y-66219557D01*
X143250991Y-66303222D01*
X143286729Y-66332552D01*
X143388186Y-66415814D01*
X143471448Y-66517271D01*
X143500778Y-66553009D01*
X143584443Y-66709534D01*
X143635963Y-66879373D01*
X143653359Y-67056000D01*
X143635963Y-67232627D01*
X143584443Y-67402466D01*
X143500778Y-67558991D01*
X143471448Y-67594729D01*
X143388186Y-67696186D01*
X143286729Y-67779448D01*
X143250991Y-67808778D01*
X143094466Y-67892443D01*
X142924627Y-67943963D01*
X142858442Y-67950482D01*
X142792260Y-67957000D01*
X142703740Y-67957000D01*
X142637558Y-67950482D01*
X142571373Y-67943963D01*
X142401534Y-67892443D01*
X142245009Y-67808778D01*
X142209271Y-67779448D01*
X142107814Y-67696186D01*
X142024552Y-67594729D01*
X141995222Y-67558991D01*
X141911557Y-67402466D01*
X141860037Y-67232627D01*
X141842641Y-67056000D01*
X141860037Y-66879373D01*
X141911557Y-66709534D01*
X141995222Y-66553009D01*
X142024552Y-66517271D01*
X142107814Y-66415814D01*
X142209271Y-66332552D01*
X142245009Y-66303222D01*
X142401534Y-66219557D01*
X142571373Y-66168037D01*
X142637558Y-66161518D01*
X142703740Y-66155000D01*
X142792260Y-66155000D01*
X142858442Y-66161518D01*
X142858442Y-66161518D01*
G37*
G36*
X81898442Y-66161518D02*
G01*
X81964627Y-66168037D01*
X82134466Y-66219557D01*
X82290991Y-66303222D01*
X82326729Y-66332552D01*
X82428186Y-66415814D01*
X82511448Y-66517271D01*
X82540778Y-66553009D01*
X82624443Y-66709534D01*
X82675963Y-66879373D01*
X82693359Y-67056000D01*
X82675963Y-67232627D01*
X82624443Y-67402466D01*
X82540778Y-67558991D01*
X82511448Y-67594729D01*
X82428186Y-67696186D01*
X82326729Y-67779448D01*
X82290991Y-67808778D01*
X82134466Y-67892443D01*
X81964627Y-67943963D01*
X81898442Y-67950482D01*
X81832260Y-67957000D01*
X81743740Y-67957000D01*
X81677558Y-67950482D01*
X81611373Y-67943963D01*
X81441534Y-67892443D01*
X81285009Y-67808778D01*
X81249271Y-67779448D01*
X81147814Y-67696186D01*
X81064552Y-67594729D01*
X81035222Y-67558991D01*
X80951557Y-67402466D01*
X80900037Y-67232627D01*
X80882641Y-67056000D01*
X80900037Y-66879373D01*
X80951557Y-66709534D01*
X81035222Y-66553009D01*
X81064552Y-66517271D01*
X81147814Y-66415814D01*
X81249271Y-66332552D01*
X81285009Y-66303222D01*
X81441534Y-66219557D01*
X81611373Y-66168037D01*
X81677558Y-66161518D01*
X81743740Y-66155000D01*
X81832260Y-66155000D01*
X81898442Y-66161518D01*
X81898442Y-66161518D01*
G37*
G36*
X145398442Y-66161518D02*
G01*
X145464627Y-66168037D01*
X145634466Y-66219557D01*
X145790991Y-66303222D01*
X145826729Y-66332552D01*
X145928186Y-66415814D01*
X146011448Y-66517271D01*
X146040778Y-66553009D01*
X146124443Y-66709534D01*
X146175963Y-66879373D01*
X146193359Y-67056000D01*
X146175963Y-67232627D01*
X146124443Y-67402466D01*
X146040778Y-67558991D01*
X146011448Y-67594729D01*
X145928186Y-67696186D01*
X145826729Y-67779448D01*
X145790991Y-67808778D01*
X145634466Y-67892443D01*
X145464627Y-67943963D01*
X145398442Y-67950482D01*
X145332260Y-67957000D01*
X145243740Y-67957000D01*
X145177558Y-67950482D01*
X145111373Y-67943963D01*
X144941534Y-67892443D01*
X144785009Y-67808778D01*
X144749271Y-67779448D01*
X144647814Y-67696186D01*
X144564552Y-67594729D01*
X144535222Y-67558991D01*
X144451557Y-67402466D01*
X144400037Y-67232627D01*
X144382641Y-67056000D01*
X144400037Y-66879373D01*
X144451557Y-66709534D01*
X144535222Y-66553009D01*
X144564552Y-66517271D01*
X144647814Y-66415814D01*
X144749271Y-66332552D01*
X144785009Y-66303222D01*
X144941534Y-66219557D01*
X145111373Y-66168037D01*
X145177558Y-66161518D01*
X145243740Y-66155000D01*
X145332260Y-66155000D01*
X145398442Y-66161518D01*
X145398442Y-66161518D01*
G37*
G36*
X84438442Y-66161518D02*
G01*
X84504627Y-66168037D01*
X84674466Y-66219557D01*
X84830991Y-66303222D01*
X84866729Y-66332552D01*
X84968186Y-66415814D01*
X85051448Y-66517271D01*
X85080778Y-66553009D01*
X85164443Y-66709534D01*
X85215963Y-66879373D01*
X85233359Y-67056000D01*
X85215963Y-67232627D01*
X85164443Y-67402466D01*
X85080778Y-67558991D01*
X85051448Y-67594729D01*
X84968186Y-67696186D01*
X84866729Y-67779448D01*
X84830991Y-67808778D01*
X84674466Y-67892443D01*
X84504627Y-67943963D01*
X84438442Y-67950482D01*
X84372260Y-67957000D01*
X84283740Y-67957000D01*
X84217558Y-67950482D01*
X84151373Y-67943963D01*
X83981534Y-67892443D01*
X83825009Y-67808778D01*
X83789271Y-67779448D01*
X83687814Y-67696186D01*
X83604552Y-67594729D01*
X83575222Y-67558991D01*
X83491557Y-67402466D01*
X83440037Y-67232627D01*
X83422641Y-67056000D01*
X83440037Y-66879373D01*
X83491557Y-66709534D01*
X83575222Y-66553009D01*
X83604552Y-66517271D01*
X83687814Y-66415814D01*
X83789271Y-66332552D01*
X83825009Y-66303222D01*
X83981534Y-66219557D01*
X84151373Y-66168037D01*
X84217558Y-66161518D01*
X84283740Y-66155000D01*
X84372260Y-66155000D01*
X84438442Y-66161518D01*
X84438442Y-66161518D01*
G37*
G36*
X81898443Y-63621519D02*
G01*
X81964627Y-63628037D01*
X82134466Y-63679557D01*
X82290991Y-63763222D01*
X82326729Y-63792552D01*
X82428186Y-63875814D01*
X82511448Y-63977271D01*
X82540778Y-64013009D01*
X82624443Y-64169534D01*
X82675963Y-64339373D01*
X82693359Y-64516000D01*
X82675963Y-64692627D01*
X82624443Y-64862466D01*
X82540778Y-65018991D01*
X82511448Y-65054729D01*
X82428186Y-65156186D01*
X82326729Y-65239448D01*
X82290991Y-65268778D01*
X82134466Y-65352443D01*
X81964627Y-65403963D01*
X81898443Y-65410481D01*
X81832260Y-65417000D01*
X81743740Y-65417000D01*
X81677557Y-65410481D01*
X81611373Y-65403963D01*
X81441534Y-65352443D01*
X81285009Y-65268778D01*
X81249271Y-65239448D01*
X81147814Y-65156186D01*
X81064552Y-65054729D01*
X81035222Y-65018991D01*
X80951557Y-64862466D01*
X80900037Y-64692627D01*
X80882641Y-64516000D01*
X80900037Y-64339373D01*
X80951557Y-64169534D01*
X81035222Y-64013009D01*
X81064552Y-63977271D01*
X81147814Y-63875814D01*
X81249271Y-63792552D01*
X81285009Y-63763222D01*
X81441534Y-63679557D01*
X81611373Y-63628037D01*
X81677557Y-63621519D01*
X81743740Y-63615000D01*
X81832260Y-63615000D01*
X81898443Y-63621519D01*
X81898443Y-63621519D01*
G37*
G36*
X145398443Y-63621519D02*
G01*
X145464627Y-63628037D01*
X145634466Y-63679557D01*
X145790991Y-63763222D01*
X145826729Y-63792552D01*
X145928186Y-63875814D01*
X146011448Y-63977271D01*
X146040778Y-64013009D01*
X146124443Y-64169534D01*
X146175963Y-64339373D01*
X146193359Y-64516000D01*
X146175963Y-64692627D01*
X146124443Y-64862466D01*
X146040778Y-65018991D01*
X146011448Y-65054729D01*
X145928186Y-65156186D01*
X145826729Y-65239448D01*
X145790991Y-65268778D01*
X145634466Y-65352443D01*
X145464627Y-65403963D01*
X145398443Y-65410481D01*
X145332260Y-65417000D01*
X145243740Y-65417000D01*
X145177557Y-65410481D01*
X145111373Y-65403963D01*
X144941534Y-65352443D01*
X144785009Y-65268778D01*
X144749271Y-65239448D01*
X144647814Y-65156186D01*
X144564552Y-65054729D01*
X144535222Y-65018991D01*
X144451557Y-64862466D01*
X144400037Y-64692627D01*
X144382641Y-64516000D01*
X144400037Y-64339373D01*
X144451557Y-64169534D01*
X144535222Y-64013009D01*
X144564552Y-63977271D01*
X144647814Y-63875814D01*
X144749271Y-63792552D01*
X144785009Y-63763222D01*
X144941534Y-63679557D01*
X145111373Y-63628037D01*
X145177557Y-63621519D01*
X145243740Y-63615000D01*
X145332260Y-63615000D01*
X145398443Y-63621519D01*
X145398443Y-63621519D01*
G37*
G36*
X142858443Y-63621519D02*
G01*
X142924627Y-63628037D01*
X143094466Y-63679557D01*
X143250991Y-63763222D01*
X143286729Y-63792552D01*
X143388186Y-63875814D01*
X143471448Y-63977271D01*
X143500778Y-64013009D01*
X143584443Y-64169534D01*
X143635963Y-64339373D01*
X143653359Y-64516000D01*
X143635963Y-64692627D01*
X143584443Y-64862466D01*
X143500778Y-65018991D01*
X143471448Y-65054729D01*
X143388186Y-65156186D01*
X143286729Y-65239448D01*
X143250991Y-65268778D01*
X143094466Y-65352443D01*
X142924627Y-65403963D01*
X142858443Y-65410481D01*
X142792260Y-65417000D01*
X142703740Y-65417000D01*
X142637557Y-65410481D01*
X142571373Y-65403963D01*
X142401534Y-65352443D01*
X142245009Y-65268778D01*
X142209271Y-65239448D01*
X142107814Y-65156186D01*
X142024552Y-65054729D01*
X141995222Y-65018991D01*
X141911557Y-64862466D01*
X141860037Y-64692627D01*
X141842641Y-64516000D01*
X141860037Y-64339373D01*
X141911557Y-64169534D01*
X141995222Y-64013009D01*
X142024552Y-63977271D01*
X142107814Y-63875814D01*
X142209271Y-63792552D01*
X142245009Y-63763222D01*
X142401534Y-63679557D01*
X142571373Y-63628037D01*
X142637557Y-63621519D01*
X142703740Y-63615000D01*
X142792260Y-63615000D01*
X142858443Y-63621519D01*
X142858443Y-63621519D01*
G37*
G36*
X84438443Y-63621519D02*
G01*
X84504627Y-63628037D01*
X84674466Y-63679557D01*
X84830991Y-63763222D01*
X84866729Y-63792552D01*
X84968186Y-63875814D01*
X85051448Y-63977271D01*
X85080778Y-64013009D01*
X85164443Y-64169534D01*
X85215963Y-64339373D01*
X85233359Y-64516000D01*
X85215963Y-64692627D01*
X85164443Y-64862466D01*
X85080778Y-65018991D01*
X85051448Y-65054729D01*
X84968186Y-65156186D01*
X84866729Y-65239448D01*
X84830991Y-65268778D01*
X84674466Y-65352443D01*
X84504627Y-65403963D01*
X84438443Y-65410481D01*
X84372260Y-65417000D01*
X84283740Y-65417000D01*
X84217557Y-65410481D01*
X84151373Y-65403963D01*
X83981534Y-65352443D01*
X83825009Y-65268778D01*
X83789271Y-65239448D01*
X83687814Y-65156186D01*
X83604552Y-65054729D01*
X83575222Y-65018991D01*
X83491557Y-64862466D01*
X83440037Y-64692627D01*
X83422641Y-64516000D01*
X83440037Y-64339373D01*
X83491557Y-64169534D01*
X83575222Y-64013009D01*
X83604552Y-63977271D01*
X83687814Y-63875814D01*
X83789271Y-63792552D01*
X83825009Y-63763222D01*
X83981534Y-63679557D01*
X84151373Y-63628037D01*
X84217557Y-63621519D01*
X84283740Y-63615000D01*
X84372260Y-63615000D01*
X84438443Y-63621519D01*
X84438443Y-63621519D01*
G37*
G36*
X145398442Y-61081518D02*
G01*
X145464627Y-61088037D01*
X145634466Y-61139557D01*
X145790991Y-61223222D01*
X145826729Y-61252552D01*
X145928186Y-61335814D01*
X146011448Y-61437271D01*
X146040778Y-61473009D01*
X146124443Y-61629534D01*
X146175963Y-61799373D01*
X146193359Y-61976000D01*
X146175963Y-62152627D01*
X146124443Y-62322466D01*
X146040778Y-62478991D01*
X146011448Y-62514729D01*
X145928186Y-62616186D01*
X145826729Y-62699448D01*
X145790991Y-62728778D01*
X145634466Y-62812443D01*
X145464627Y-62863963D01*
X145398443Y-62870481D01*
X145332260Y-62877000D01*
X145243740Y-62877000D01*
X145177557Y-62870481D01*
X145111373Y-62863963D01*
X144941534Y-62812443D01*
X144785009Y-62728778D01*
X144749271Y-62699448D01*
X144647814Y-62616186D01*
X144564552Y-62514729D01*
X144535222Y-62478991D01*
X144451557Y-62322466D01*
X144400037Y-62152627D01*
X144382641Y-61976000D01*
X144400037Y-61799373D01*
X144451557Y-61629534D01*
X144535222Y-61473009D01*
X144564552Y-61437271D01*
X144647814Y-61335814D01*
X144749271Y-61252552D01*
X144785009Y-61223222D01*
X144941534Y-61139557D01*
X145111373Y-61088037D01*
X145177558Y-61081518D01*
X145243740Y-61075000D01*
X145332260Y-61075000D01*
X145398442Y-61081518D01*
X145398442Y-61081518D01*
G37*
G36*
X84438442Y-61081518D02*
G01*
X84504627Y-61088037D01*
X84674466Y-61139557D01*
X84830991Y-61223222D01*
X84866729Y-61252552D01*
X84968186Y-61335814D01*
X85051448Y-61437271D01*
X85080778Y-61473009D01*
X85164443Y-61629534D01*
X85215963Y-61799373D01*
X85233359Y-61976000D01*
X85215963Y-62152627D01*
X85164443Y-62322466D01*
X85080778Y-62478991D01*
X85051448Y-62514729D01*
X84968186Y-62616186D01*
X84866729Y-62699448D01*
X84830991Y-62728778D01*
X84674466Y-62812443D01*
X84504627Y-62863963D01*
X84438443Y-62870481D01*
X84372260Y-62877000D01*
X84283740Y-62877000D01*
X84217557Y-62870481D01*
X84151373Y-62863963D01*
X83981534Y-62812443D01*
X83825009Y-62728778D01*
X83789271Y-62699448D01*
X83687814Y-62616186D01*
X83604552Y-62514729D01*
X83575222Y-62478991D01*
X83491557Y-62322466D01*
X83440037Y-62152627D01*
X83422641Y-61976000D01*
X83440037Y-61799373D01*
X83491557Y-61629534D01*
X83575222Y-61473009D01*
X83604552Y-61437271D01*
X83687814Y-61335814D01*
X83789271Y-61252552D01*
X83825009Y-61223222D01*
X83981534Y-61139557D01*
X84151373Y-61088037D01*
X84217558Y-61081518D01*
X84283740Y-61075000D01*
X84372260Y-61075000D01*
X84438442Y-61081518D01*
X84438442Y-61081518D01*
G37*
G36*
X81898442Y-61081518D02*
G01*
X81964627Y-61088037D01*
X82134466Y-61139557D01*
X82290991Y-61223222D01*
X82326729Y-61252552D01*
X82428186Y-61335814D01*
X82511448Y-61437271D01*
X82540778Y-61473009D01*
X82624443Y-61629534D01*
X82675963Y-61799373D01*
X82693359Y-61976000D01*
X82675963Y-62152627D01*
X82624443Y-62322466D01*
X82540778Y-62478991D01*
X82511448Y-62514729D01*
X82428186Y-62616186D01*
X82326729Y-62699448D01*
X82290991Y-62728778D01*
X82134466Y-62812443D01*
X81964627Y-62863963D01*
X81898443Y-62870481D01*
X81832260Y-62877000D01*
X81743740Y-62877000D01*
X81677557Y-62870481D01*
X81611373Y-62863963D01*
X81441534Y-62812443D01*
X81285009Y-62728778D01*
X81249271Y-62699448D01*
X81147814Y-62616186D01*
X81064552Y-62514729D01*
X81035222Y-62478991D01*
X80951557Y-62322466D01*
X80900037Y-62152627D01*
X80882641Y-61976000D01*
X80900037Y-61799373D01*
X80951557Y-61629534D01*
X81035222Y-61473009D01*
X81064552Y-61437271D01*
X81147814Y-61335814D01*
X81249271Y-61252552D01*
X81285009Y-61223222D01*
X81441534Y-61139557D01*
X81611373Y-61088037D01*
X81677558Y-61081518D01*
X81743740Y-61075000D01*
X81832260Y-61075000D01*
X81898442Y-61081518D01*
X81898442Y-61081518D01*
G37*
G36*
X142858442Y-61081518D02*
G01*
X142924627Y-61088037D01*
X143094466Y-61139557D01*
X143250991Y-61223222D01*
X143286729Y-61252552D01*
X143388186Y-61335814D01*
X143471448Y-61437271D01*
X143500778Y-61473009D01*
X143584443Y-61629534D01*
X143635963Y-61799373D01*
X143653359Y-61976000D01*
X143635963Y-62152627D01*
X143584443Y-62322466D01*
X143500778Y-62478991D01*
X143471448Y-62514729D01*
X143388186Y-62616186D01*
X143286729Y-62699448D01*
X143250991Y-62728778D01*
X143094466Y-62812443D01*
X142924627Y-62863963D01*
X142858443Y-62870481D01*
X142792260Y-62877000D01*
X142703740Y-62877000D01*
X142637557Y-62870481D01*
X142571373Y-62863963D01*
X142401534Y-62812443D01*
X142245009Y-62728778D01*
X142209271Y-62699448D01*
X142107814Y-62616186D01*
X142024552Y-62514729D01*
X141995222Y-62478991D01*
X141911557Y-62322466D01*
X141860037Y-62152627D01*
X141842641Y-61976000D01*
X141860037Y-61799373D01*
X141911557Y-61629534D01*
X141995222Y-61473009D01*
X142024552Y-61437271D01*
X142107814Y-61335814D01*
X142209271Y-61252552D01*
X142245009Y-61223222D01*
X142401534Y-61139557D01*
X142571373Y-61088037D01*
X142637558Y-61081518D01*
X142703740Y-61075000D01*
X142792260Y-61075000D01*
X142858442Y-61081518D01*
X142858442Y-61081518D01*
G37*
G36*
X142858443Y-58541519D02*
G01*
X142924627Y-58548037D01*
X143094466Y-58599557D01*
X143250991Y-58683222D01*
X143286729Y-58712552D01*
X143388186Y-58795814D01*
X143471448Y-58897271D01*
X143500778Y-58933009D01*
X143584443Y-59089534D01*
X143635963Y-59259373D01*
X143653359Y-59436000D01*
X143635963Y-59612627D01*
X143584443Y-59782466D01*
X143500778Y-59938991D01*
X143471448Y-59974729D01*
X143388186Y-60076186D01*
X143286729Y-60159448D01*
X143250991Y-60188778D01*
X143094466Y-60272443D01*
X142924627Y-60323963D01*
X142858442Y-60330482D01*
X142792260Y-60337000D01*
X142703740Y-60337000D01*
X142637558Y-60330482D01*
X142571373Y-60323963D01*
X142401534Y-60272443D01*
X142245009Y-60188778D01*
X142209271Y-60159448D01*
X142107814Y-60076186D01*
X142024552Y-59974729D01*
X141995222Y-59938991D01*
X141911557Y-59782466D01*
X141860037Y-59612627D01*
X141842641Y-59436000D01*
X141860037Y-59259373D01*
X141911557Y-59089534D01*
X141995222Y-58933009D01*
X142024552Y-58897271D01*
X142107814Y-58795814D01*
X142209271Y-58712552D01*
X142245009Y-58683222D01*
X142401534Y-58599557D01*
X142571373Y-58548037D01*
X142637557Y-58541519D01*
X142703740Y-58535000D01*
X142792260Y-58535000D01*
X142858443Y-58541519D01*
X142858443Y-58541519D01*
G37*
G36*
X81898443Y-58541519D02*
G01*
X81964627Y-58548037D01*
X82134466Y-58599557D01*
X82290991Y-58683222D01*
X82326729Y-58712552D01*
X82428186Y-58795814D01*
X82511448Y-58897271D01*
X82540778Y-58933009D01*
X82624443Y-59089534D01*
X82675963Y-59259373D01*
X82693359Y-59436000D01*
X82675963Y-59612627D01*
X82624443Y-59782466D01*
X82540778Y-59938991D01*
X82511448Y-59974729D01*
X82428186Y-60076186D01*
X82326729Y-60159448D01*
X82290991Y-60188778D01*
X82134466Y-60272443D01*
X81964627Y-60323963D01*
X81898442Y-60330482D01*
X81832260Y-60337000D01*
X81743740Y-60337000D01*
X81677558Y-60330482D01*
X81611373Y-60323963D01*
X81441534Y-60272443D01*
X81285009Y-60188778D01*
X81249271Y-60159448D01*
X81147814Y-60076186D01*
X81064552Y-59974729D01*
X81035222Y-59938991D01*
X80951557Y-59782466D01*
X80900037Y-59612627D01*
X80882641Y-59436000D01*
X80900037Y-59259373D01*
X80951557Y-59089534D01*
X81035222Y-58933009D01*
X81064552Y-58897271D01*
X81147814Y-58795814D01*
X81249271Y-58712552D01*
X81285009Y-58683222D01*
X81441534Y-58599557D01*
X81611373Y-58548037D01*
X81677557Y-58541519D01*
X81743740Y-58535000D01*
X81832260Y-58535000D01*
X81898443Y-58541519D01*
X81898443Y-58541519D01*
G37*
G36*
X84438443Y-58541519D02*
G01*
X84504627Y-58548037D01*
X84674466Y-58599557D01*
X84830991Y-58683222D01*
X84866729Y-58712552D01*
X84968186Y-58795814D01*
X85051448Y-58897271D01*
X85080778Y-58933009D01*
X85164443Y-59089534D01*
X85215963Y-59259373D01*
X85233359Y-59436000D01*
X85215963Y-59612627D01*
X85164443Y-59782466D01*
X85080778Y-59938991D01*
X85051448Y-59974729D01*
X84968186Y-60076186D01*
X84866729Y-60159448D01*
X84830991Y-60188778D01*
X84674466Y-60272443D01*
X84504627Y-60323963D01*
X84438442Y-60330482D01*
X84372260Y-60337000D01*
X84283740Y-60337000D01*
X84217558Y-60330482D01*
X84151373Y-60323963D01*
X83981534Y-60272443D01*
X83825009Y-60188778D01*
X83789271Y-60159448D01*
X83687814Y-60076186D01*
X83604552Y-59974729D01*
X83575222Y-59938991D01*
X83491557Y-59782466D01*
X83440037Y-59612627D01*
X83422641Y-59436000D01*
X83440037Y-59259373D01*
X83491557Y-59089534D01*
X83575222Y-58933009D01*
X83604552Y-58897271D01*
X83687814Y-58795814D01*
X83789271Y-58712552D01*
X83825009Y-58683222D01*
X83981534Y-58599557D01*
X84151373Y-58548037D01*
X84217557Y-58541519D01*
X84283740Y-58535000D01*
X84372260Y-58535000D01*
X84438443Y-58541519D01*
X84438443Y-58541519D01*
G37*
G36*
X145398443Y-58541519D02*
G01*
X145464627Y-58548037D01*
X145634466Y-58599557D01*
X145790991Y-58683222D01*
X145826729Y-58712552D01*
X145928186Y-58795814D01*
X146011448Y-58897271D01*
X146040778Y-58933009D01*
X146124443Y-59089534D01*
X146175963Y-59259373D01*
X146193359Y-59436000D01*
X146175963Y-59612627D01*
X146124443Y-59782466D01*
X146040778Y-59938991D01*
X146011448Y-59974729D01*
X145928186Y-60076186D01*
X145826729Y-60159448D01*
X145790991Y-60188778D01*
X145634466Y-60272443D01*
X145464627Y-60323963D01*
X145398442Y-60330482D01*
X145332260Y-60337000D01*
X145243740Y-60337000D01*
X145177558Y-60330482D01*
X145111373Y-60323963D01*
X144941534Y-60272443D01*
X144785009Y-60188778D01*
X144749271Y-60159448D01*
X144647814Y-60076186D01*
X144564552Y-59974729D01*
X144535222Y-59938991D01*
X144451557Y-59782466D01*
X144400037Y-59612627D01*
X144382641Y-59436000D01*
X144400037Y-59259373D01*
X144451557Y-59089534D01*
X144535222Y-58933009D01*
X144564552Y-58897271D01*
X144647814Y-58795814D01*
X144749271Y-58712552D01*
X144785009Y-58683222D01*
X144941534Y-58599557D01*
X145111373Y-58548037D01*
X145177557Y-58541519D01*
X145243740Y-58535000D01*
X145332260Y-58535000D01*
X145398443Y-58541519D01*
X145398443Y-58541519D01*
G37*
G36*
X84438442Y-56001518D02*
G01*
X84504627Y-56008037D01*
X84674466Y-56059557D01*
X84830991Y-56143222D01*
X84866729Y-56172552D01*
X84968186Y-56255814D01*
X85051448Y-56357271D01*
X85080778Y-56393009D01*
X85164443Y-56549534D01*
X85215963Y-56719373D01*
X85233359Y-56896000D01*
X85215963Y-57072627D01*
X85164443Y-57242466D01*
X85080778Y-57398991D01*
X85051448Y-57434729D01*
X84968186Y-57536186D01*
X84866729Y-57619448D01*
X84830991Y-57648778D01*
X84674466Y-57732443D01*
X84504627Y-57783963D01*
X84438442Y-57790482D01*
X84372260Y-57797000D01*
X84283740Y-57797000D01*
X84217558Y-57790482D01*
X84151373Y-57783963D01*
X83981534Y-57732443D01*
X83825009Y-57648778D01*
X83789271Y-57619448D01*
X83687814Y-57536186D01*
X83604552Y-57434729D01*
X83575222Y-57398991D01*
X83491557Y-57242466D01*
X83440037Y-57072627D01*
X83422641Y-56896000D01*
X83440037Y-56719373D01*
X83491557Y-56549534D01*
X83575222Y-56393009D01*
X83604552Y-56357271D01*
X83687814Y-56255814D01*
X83789271Y-56172552D01*
X83825009Y-56143222D01*
X83981534Y-56059557D01*
X84151373Y-56008037D01*
X84217558Y-56001518D01*
X84283740Y-55995000D01*
X84372260Y-55995000D01*
X84438442Y-56001518D01*
X84438442Y-56001518D01*
G37*
G36*
X145398442Y-56001518D02*
G01*
X145464627Y-56008037D01*
X145634466Y-56059557D01*
X145790991Y-56143222D01*
X145826729Y-56172552D01*
X145928186Y-56255814D01*
X146011448Y-56357271D01*
X146040778Y-56393009D01*
X146124443Y-56549534D01*
X146175963Y-56719373D01*
X146193359Y-56896000D01*
X146175963Y-57072627D01*
X146124443Y-57242466D01*
X146040778Y-57398991D01*
X146011448Y-57434729D01*
X145928186Y-57536186D01*
X145826729Y-57619448D01*
X145790991Y-57648778D01*
X145634466Y-57732443D01*
X145464627Y-57783963D01*
X145398442Y-57790482D01*
X145332260Y-57797000D01*
X145243740Y-57797000D01*
X145177558Y-57790482D01*
X145111373Y-57783963D01*
X144941534Y-57732443D01*
X144785009Y-57648778D01*
X144749271Y-57619448D01*
X144647814Y-57536186D01*
X144564552Y-57434729D01*
X144535222Y-57398991D01*
X144451557Y-57242466D01*
X144400037Y-57072627D01*
X144382641Y-56896000D01*
X144400037Y-56719373D01*
X144451557Y-56549534D01*
X144535222Y-56393009D01*
X144564552Y-56357271D01*
X144647814Y-56255814D01*
X144749271Y-56172552D01*
X144785009Y-56143222D01*
X144941534Y-56059557D01*
X145111373Y-56008037D01*
X145177558Y-56001518D01*
X145243740Y-55995000D01*
X145332260Y-55995000D01*
X145398442Y-56001518D01*
X145398442Y-56001518D01*
G37*
G36*
X142858442Y-56001518D02*
G01*
X142924627Y-56008037D01*
X143094466Y-56059557D01*
X143250991Y-56143222D01*
X143286729Y-56172552D01*
X143388186Y-56255814D01*
X143471448Y-56357271D01*
X143500778Y-56393009D01*
X143584443Y-56549534D01*
X143635963Y-56719373D01*
X143653359Y-56896000D01*
X143635963Y-57072627D01*
X143584443Y-57242466D01*
X143500778Y-57398991D01*
X143471448Y-57434729D01*
X143388186Y-57536186D01*
X143286729Y-57619448D01*
X143250991Y-57648778D01*
X143094466Y-57732443D01*
X142924627Y-57783963D01*
X142858442Y-57790482D01*
X142792260Y-57797000D01*
X142703740Y-57797000D01*
X142637558Y-57790482D01*
X142571373Y-57783963D01*
X142401534Y-57732443D01*
X142245009Y-57648778D01*
X142209271Y-57619448D01*
X142107814Y-57536186D01*
X142024552Y-57434729D01*
X141995222Y-57398991D01*
X141911557Y-57242466D01*
X141860037Y-57072627D01*
X141842641Y-56896000D01*
X141860037Y-56719373D01*
X141911557Y-56549534D01*
X141995222Y-56393009D01*
X142024552Y-56357271D01*
X142107814Y-56255814D01*
X142209271Y-56172552D01*
X142245009Y-56143222D01*
X142401534Y-56059557D01*
X142571373Y-56008037D01*
X142637558Y-56001518D01*
X142703740Y-55995000D01*
X142792260Y-55995000D01*
X142858442Y-56001518D01*
X142858442Y-56001518D01*
G37*
G36*
X81898442Y-56001518D02*
G01*
X81964627Y-56008037D01*
X82134466Y-56059557D01*
X82290991Y-56143222D01*
X82326729Y-56172552D01*
X82428186Y-56255814D01*
X82511448Y-56357271D01*
X82540778Y-56393009D01*
X82624443Y-56549534D01*
X82675963Y-56719373D01*
X82693359Y-56896000D01*
X82675963Y-57072627D01*
X82624443Y-57242466D01*
X82540778Y-57398991D01*
X82511448Y-57434729D01*
X82428186Y-57536186D01*
X82326729Y-57619448D01*
X82290991Y-57648778D01*
X82134466Y-57732443D01*
X81964627Y-57783963D01*
X81898442Y-57790482D01*
X81832260Y-57797000D01*
X81743740Y-57797000D01*
X81677558Y-57790482D01*
X81611373Y-57783963D01*
X81441534Y-57732443D01*
X81285009Y-57648778D01*
X81249271Y-57619448D01*
X81147814Y-57536186D01*
X81064552Y-57434729D01*
X81035222Y-57398991D01*
X80951557Y-57242466D01*
X80900037Y-57072627D01*
X80882641Y-56896000D01*
X80900037Y-56719373D01*
X80951557Y-56549534D01*
X81035222Y-56393009D01*
X81064552Y-56357271D01*
X81147814Y-56255814D01*
X81249271Y-56172552D01*
X81285009Y-56143222D01*
X81441534Y-56059557D01*
X81611373Y-56008037D01*
X81677558Y-56001518D01*
X81743740Y-55995000D01*
X81832260Y-55995000D01*
X81898442Y-56001518D01*
X81898442Y-56001518D01*
G37*
G36*
X145398442Y-53461518D02*
G01*
X145464627Y-53468037D01*
X145634466Y-53519557D01*
X145790991Y-53603222D01*
X145826729Y-53632552D01*
X145928186Y-53715814D01*
X146011448Y-53817271D01*
X146040778Y-53853009D01*
X146124443Y-54009534D01*
X146175963Y-54179373D01*
X146193359Y-54356000D01*
X146175963Y-54532627D01*
X146124443Y-54702466D01*
X146040778Y-54858991D01*
X146011448Y-54894729D01*
X145928186Y-54996186D01*
X145826729Y-55079448D01*
X145790991Y-55108778D01*
X145634466Y-55192443D01*
X145464627Y-55243963D01*
X145398442Y-55250482D01*
X145332260Y-55257000D01*
X145243740Y-55257000D01*
X145177558Y-55250482D01*
X145111373Y-55243963D01*
X144941534Y-55192443D01*
X144785009Y-55108778D01*
X144749271Y-55079448D01*
X144647814Y-54996186D01*
X144564552Y-54894729D01*
X144535222Y-54858991D01*
X144451557Y-54702466D01*
X144400037Y-54532627D01*
X144382641Y-54356000D01*
X144400037Y-54179373D01*
X144451557Y-54009534D01*
X144535222Y-53853009D01*
X144564552Y-53817271D01*
X144647814Y-53715814D01*
X144749271Y-53632552D01*
X144785009Y-53603222D01*
X144941534Y-53519557D01*
X145111373Y-53468037D01*
X145177558Y-53461518D01*
X145243740Y-53455000D01*
X145332260Y-53455000D01*
X145398442Y-53461518D01*
X145398442Y-53461518D01*
G37*
G36*
X142858442Y-53461518D02*
G01*
X142924627Y-53468037D01*
X143094466Y-53519557D01*
X143250991Y-53603222D01*
X143286729Y-53632552D01*
X143388186Y-53715814D01*
X143471448Y-53817271D01*
X143500778Y-53853009D01*
X143584443Y-54009534D01*
X143635963Y-54179373D01*
X143653359Y-54356000D01*
X143635963Y-54532627D01*
X143584443Y-54702466D01*
X143500778Y-54858991D01*
X143471448Y-54894729D01*
X143388186Y-54996186D01*
X143286729Y-55079448D01*
X143250991Y-55108778D01*
X143094466Y-55192443D01*
X142924627Y-55243963D01*
X142858442Y-55250482D01*
X142792260Y-55257000D01*
X142703740Y-55257000D01*
X142637558Y-55250482D01*
X142571373Y-55243963D01*
X142401534Y-55192443D01*
X142245009Y-55108778D01*
X142209271Y-55079448D01*
X142107814Y-54996186D01*
X142024552Y-54894729D01*
X141995222Y-54858991D01*
X141911557Y-54702466D01*
X141860037Y-54532627D01*
X141842641Y-54356000D01*
X141860037Y-54179373D01*
X141911557Y-54009534D01*
X141995222Y-53853009D01*
X142024552Y-53817271D01*
X142107814Y-53715814D01*
X142209271Y-53632552D01*
X142245009Y-53603222D01*
X142401534Y-53519557D01*
X142571373Y-53468037D01*
X142637558Y-53461518D01*
X142703740Y-53455000D01*
X142792260Y-53455000D01*
X142858442Y-53461518D01*
X142858442Y-53461518D01*
G37*
G36*
X81898442Y-53461518D02*
G01*
X81964627Y-53468037D01*
X82134466Y-53519557D01*
X82290991Y-53603222D01*
X82326729Y-53632552D01*
X82428186Y-53715814D01*
X82511448Y-53817271D01*
X82540778Y-53853009D01*
X82624443Y-54009534D01*
X82675963Y-54179373D01*
X82693359Y-54356000D01*
X82675963Y-54532627D01*
X82624443Y-54702466D01*
X82540778Y-54858991D01*
X82511448Y-54894729D01*
X82428186Y-54996186D01*
X82326729Y-55079448D01*
X82290991Y-55108778D01*
X82134466Y-55192443D01*
X81964627Y-55243963D01*
X81898442Y-55250482D01*
X81832260Y-55257000D01*
X81743740Y-55257000D01*
X81677558Y-55250482D01*
X81611373Y-55243963D01*
X81441534Y-55192443D01*
X81285009Y-55108778D01*
X81249271Y-55079448D01*
X81147814Y-54996186D01*
X81064552Y-54894729D01*
X81035222Y-54858991D01*
X80951557Y-54702466D01*
X80900037Y-54532627D01*
X80882641Y-54356000D01*
X80900037Y-54179373D01*
X80951557Y-54009534D01*
X81035222Y-53853009D01*
X81064552Y-53817271D01*
X81147814Y-53715814D01*
X81249271Y-53632552D01*
X81285009Y-53603222D01*
X81441534Y-53519557D01*
X81611373Y-53468037D01*
X81677558Y-53461518D01*
X81743740Y-53455000D01*
X81832260Y-53455000D01*
X81898442Y-53461518D01*
X81898442Y-53461518D01*
G37*
G36*
X84438442Y-53461518D02*
G01*
X84504627Y-53468037D01*
X84674466Y-53519557D01*
X84830991Y-53603222D01*
X84866729Y-53632552D01*
X84968186Y-53715814D01*
X85051448Y-53817271D01*
X85080778Y-53853009D01*
X85164443Y-54009534D01*
X85215963Y-54179373D01*
X85233359Y-54356000D01*
X85215963Y-54532627D01*
X85164443Y-54702466D01*
X85080778Y-54858991D01*
X85051448Y-54894729D01*
X84968186Y-54996186D01*
X84866729Y-55079448D01*
X84830991Y-55108778D01*
X84674466Y-55192443D01*
X84504627Y-55243963D01*
X84438442Y-55250482D01*
X84372260Y-55257000D01*
X84283740Y-55257000D01*
X84217558Y-55250482D01*
X84151373Y-55243963D01*
X83981534Y-55192443D01*
X83825009Y-55108778D01*
X83789271Y-55079448D01*
X83687814Y-54996186D01*
X83604552Y-54894729D01*
X83575222Y-54858991D01*
X83491557Y-54702466D01*
X83440037Y-54532627D01*
X83422641Y-54356000D01*
X83440037Y-54179373D01*
X83491557Y-54009534D01*
X83575222Y-53853009D01*
X83604552Y-53817271D01*
X83687814Y-53715814D01*
X83789271Y-53632552D01*
X83825009Y-53603222D01*
X83981534Y-53519557D01*
X84151373Y-53468037D01*
X84217558Y-53461518D01*
X84283740Y-53455000D01*
X84372260Y-53455000D01*
X84438442Y-53461518D01*
X84438442Y-53461518D01*
G37*
G36*
X142858443Y-50921519D02*
G01*
X142924627Y-50928037D01*
X143094466Y-50979557D01*
X143250991Y-51063222D01*
X143286729Y-51092552D01*
X143388186Y-51175814D01*
X143471448Y-51277271D01*
X143500778Y-51313009D01*
X143584443Y-51469534D01*
X143635963Y-51639373D01*
X143653359Y-51816000D01*
X143635963Y-51992627D01*
X143584443Y-52162466D01*
X143500778Y-52318991D01*
X143471448Y-52354729D01*
X143388186Y-52456186D01*
X143286729Y-52539448D01*
X143250991Y-52568778D01*
X143094466Y-52652443D01*
X142924627Y-52703963D01*
X142858443Y-52710481D01*
X142792260Y-52717000D01*
X142703740Y-52717000D01*
X142637558Y-52710482D01*
X142571373Y-52703963D01*
X142401534Y-52652443D01*
X142245009Y-52568778D01*
X142209271Y-52539448D01*
X142107814Y-52456186D01*
X142024552Y-52354729D01*
X141995222Y-52318991D01*
X141911557Y-52162466D01*
X141860037Y-51992627D01*
X141842641Y-51816000D01*
X141860037Y-51639373D01*
X141911557Y-51469534D01*
X141995222Y-51313009D01*
X142024552Y-51277271D01*
X142107814Y-51175814D01*
X142209271Y-51092552D01*
X142245009Y-51063222D01*
X142401534Y-50979557D01*
X142571373Y-50928037D01*
X142637557Y-50921519D01*
X142703740Y-50915000D01*
X142792260Y-50915000D01*
X142858443Y-50921519D01*
X142858443Y-50921519D01*
G37*
G36*
X145398443Y-50921519D02*
G01*
X145464627Y-50928037D01*
X145634466Y-50979557D01*
X145790991Y-51063222D01*
X145826729Y-51092552D01*
X145928186Y-51175814D01*
X146011448Y-51277271D01*
X146040778Y-51313009D01*
X146124443Y-51469534D01*
X146175963Y-51639373D01*
X146193359Y-51816000D01*
X146175963Y-51992627D01*
X146124443Y-52162466D01*
X146040778Y-52318991D01*
X146011448Y-52354729D01*
X145928186Y-52456186D01*
X145826729Y-52539448D01*
X145790991Y-52568778D01*
X145634466Y-52652443D01*
X145464627Y-52703963D01*
X145398443Y-52710481D01*
X145332260Y-52717000D01*
X145243740Y-52717000D01*
X145177558Y-52710482D01*
X145111373Y-52703963D01*
X144941534Y-52652443D01*
X144785009Y-52568778D01*
X144749271Y-52539448D01*
X144647814Y-52456186D01*
X144564552Y-52354729D01*
X144535222Y-52318991D01*
X144451557Y-52162466D01*
X144400037Y-51992627D01*
X144382641Y-51816000D01*
X144400037Y-51639373D01*
X144451557Y-51469534D01*
X144535222Y-51313009D01*
X144564552Y-51277271D01*
X144647814Y-51175814D01*
X144749271Y-51092552D01*
X144785009Y-51063222D01*
X144941534Y-50979557D01*
X145111373Y-50928037D01*
X145177557Y-50921519D01*
X145243740Y-50915000D01*
X145332260Y-50915000D01*
X145398443Y-50921519D01*
X145398443Y-50921519D01*
G37*
G36*
X84438443Y-50921519D02*
G01*
X84504627Y-50928037D01*
X84674466Y-50979557D01*
X84830991Y-51063222D01*
X84866729Y-51092552D01*
X84968186Y-51175814D01*
X85051448Y-51277271D01*
X85080778Y-51313009D01*
X85164443Y-51469534D01*
X85215963Y-51639373D01*
X85233359Y-51816000D01*
X85215963Y-51992627D01*
X85164443Y-52162466D01*
X85080778Y-52318991D01*
X85051448Y-52354729D01*
X84968186Y-52456186D01*
X84866729Y-52539448D01*
X84830991Y-52568778D01*
X84674466Y-52652443D01*
X84504627Y-52703963D01*
X84438443Y-52710481D01*
X84372260Y-52717000D01*
X84283740Y-52717000D01*
X84217558Y-52710482D01*
X84151373Y-52703963D01*
X83981534Y-52652443D01*
X83825009Y-52568778D01*
X83789271Y-52539448D01*
X83687814Y-52456186D01*
X83604552Y-52354729D01*
X83575222Y-52318991D01*
X83491557Y-52162466D01*
X83440037Y-51992627D01*
X83422641Y-51816000D01*
X83440037Y-51639373D01*
X83491557Y-51469534D01*
X83575222Y-51313009D01*
X83604552Y-51277271D01*
X83687814Y-51175814D01*
X83789271Y-51092552D01*
X83825009Y-51063222D01*
X83981534Y-50979557D01*
X84151373Y-50928037D01*
X84217557Y-50921519D01*
X84283740Y-50915000D01*
X84372260Y-50915000D01*
X84438443Y-50921519D01*
X84438443Y-50921519D01*
G37*
G36*
X81898443Y-50921519D02*
G01*
X81964627Y-50928037D01*
X82134466Y-50979557D01*
X82290991Y-51063222D01*
X82326729Y-51092552D01*
X82428186Y-51175814D01*
X82511448Y-51277271D01*
X82540778Y-51313009D01*
X82624443Y-51469534D01*
X82675963Y-51639373D01*
X82693359Y-51816000D01*
X82675963Y-51992627D01*
X82624443Y-52162466D01*
X82540778Y-52318991D01*
X82511448Y-52354729D01*
X82428186Y-52456186D01*
X82326729Y-52539448D01*
X82290991Y-52568778D01*
X82134466Y-52652443D01*
X81964627Y-52703963D01*
X81898443Y-52710481D01*
X81832260Y-52717000D01*
X81743740Y-52717000D01*
X81677558Y-52710482D01*
X81611373Y-52703963D01*
X81441534Y-52652443D01*
X81285009Y-52568778D01*
X81249271Y-52539448D01*
X81147814Y-52456186D01*
X81064552Y-52354729D01*
X81035222Y-52318991D01*
X80951557Y-52162466D01*
X80900037Y-51992627D01*
X80882641Y-51816000D01*
X80900037Y-51639373D01*
X80951557Y-51469534D01*
X81035222Y-51313009D01*
X81064552Y-51277271D01*
X81147814Y-51175814D01*
X81249271Y-51092552D01*
X81285009Y-51063222D01*
X81441534Y-50979557D01*
X81611373Y-50928037D01*
X81677557Y-50921519D01*
X81743740Y-50915000D01*
X81832260Y-50915000D01*
X81898443Y-50921519D01*
X81898443Y-50921519D01*
G37*
G36*
X142858442Y-48381518D02*
G01*
X142924627Y-48388037D01*
X143094466Y-48439557D01*
X143250991Y-48523222D01*
X143286729Y-48552552D01*
X143388186Y-48635814D01*
X143471448Y-48737271D01*
X143500778Y-48773009D01*
X143584443Y-48929534D01*
X143635963Y-49099373D01*
X143653359Y-49276000D01*
X143635963Y-49452627D01*
X143584443Y-49622466D01*
X143500778Y-49778991D01*
X143471448Y-49814729D01*
X143388186Y-49916186D01*
X143286729Y-49999448D01*
X143250991Y-50028778D01*
X143094466Y-50112443D01*
X142924627Y-50163963D01*
X142858443Y-50170481D01*
X142792260Y-50177000D01*
X142703740Y-50177000D01*
X142637557Y-50170481D01*
X142571373Y-50163963D01*
X142401534Y-50112443D01*
X142245009Y-50028778D01*
X142209271Y-49999448D01*
X142107814Y-49916186D01*
X142024552Y-49814729D01*
X141995222Y-49778991D01*
X141911557Y-49622466D01*
X141860037Y-49452627D01*
X141842641Y-49276000D01*
X141860037Y-49099373D01*
X141911557Y-48929534D01*
X141995222Y-48773009D01*
X142024552Y-48737271D01*
X142107814Y-48635814D01*
X142209271Y-48552552D01*
X142245009Y-48523222D01*
X142401534Y-48439557D01*
X142571373Y-48388037D01*
X142637558Y-48381518D01*
X142703740Y-48375000D01*
X142792260Y-48375000D01*
X142858442Y-48381518D01*
X142858442Y-48381518D01*
G37*
G36*
X81898442Y-48381518D02*
G01*
X81964627Y-48388037D01*
X82134466Y-48439557D01*
X82290991Y-48523222D01*
X82326729Y-48552552D01*
X82428186Y-48635814D01*
X82511448Y-48737271D01*
X82540778Y-48773009D01*
X82624443Y-48929534D01*
X82675963Y-49099373D01*
X82693359Y-49276000D01*
X82675963Y-49452627D01*
X82624443Y-49622466D01*
X82540778Y-49778991D01*
X82511448Y-49814729D01*
X82428186Y-49916186D01*
X82326729Y-49999448D01*
X82290991Y-50028778D01*
X82134466Y-50112443D01*
X81964627Y-50163963D01*
X81898443Y-50170481D01*
X81832260Y-50177000D01*
X81743740Y-50177000D01*
X81677557Y-50170481D01*
X81611373Y-50163963D01*
X81441534Y-50112443D01*
X81285009Y-50028778D01*
X81249271Y-49999448D01*
X81147814Y-49916186D01*
X81064552Y-49814729D01*
X81035222Y-49778991D01*
X80951557Y-49622466D01*
X80900037Y-49452627D01*
X80882641Y-49276000D01*
X80900037Y-49099373D01*
X80951557Y-48929534D01*
X81035222Y-48773009D01*
X81064552Y-48737271D01*
X81147814Y-48635814D01*
X81249271Y-48552552D01*
X81285009Y-48523222D01*
X81441534Y-48439557D01*
X81611373Y-48388037D01*
X81677558Y-48381518D01*
X81743740Y-48375000D01*
X81832260Y-48375000D01*
X81898442Y-48381518D01*
X81898442Y-48381518D01*
G37*
G36*
X84438442Y-48381518D02*
G01*
X84504627Y-48388037D01*
X84674466Y-48439557D01*
X84830991Y-48523222D01*
X84866729Y-48552552D01*
X84968186Y-48635814D01*
X85051448Y-48737271D01*
X85080778Y-48773009D01*
X85164443Y-48929534D01*
X85215963Y-49099373D01*
X85233359Y-49276000D01*
X85215963Y-49452627D01*
X85164443Y-49622466D01*
X85080778Y-49778991D01*
X85051448Y-49814729D01*
X84968186Y-49916186D01*
X84866729Y-49999448D01*
X84830991Y-50028778D01*
X84674466Y-50112443D01*
X84504627Y-50163963D01*
X84438443Y-50170481D01*
X84372260Y-50177000D01*
X84283740Y-50177000D01*
X84217557Y-50170481D01*
X84151373Y-50163963D01*
X83981534Y-50112443D01*
X83825009Y-50028778D01*
X83789271Y-49999448D01*
X83687814Y-49916186D01*
X83604552Y-49814729D01*
X83575222Y-49778991D01*
X83491557Y-49622466D01*
X83440037Y-49452627D01*
X83422641Y-49276000D01*
X83440037Y-49099373D01*
X83491557Y-48929534D01*
X83575222Y-48773009D01*
X83604552Y-48737271D01*
X83687814Y-48635814D01*
X83789271Y-48552552D01*
X83825009Y-48523222D01*
X83981534Y-48439557D01*
X84151373Y-48388037D01*
X84217558Y-48381518D01*
X84283740Y-48375000D01*
X84372260Y-48375000D01*
X84438442Y-48381518D01*
X84438442Y-48381518D01*
G37*
G36*
X145398442Y-48381518D02*
G01*
X145464627Y-48388037D01*
X145634466Y-48439557D01*
X145790991Y-48523222D01*
X145826729Y-48552552D01*
X145928186Y-48635814D01*
X146011448Y-48737271D01*
X146040778Y-48773009D01*
X146124443Y-48929534D01*
X146175963Y-49099373D01*
X146193359Y-49276000D01*
X146175963Y-49452627D01*
X146124443Y-49622466D01*
X146040778Y-49778991D01*
X146011448Y-49814729D01*
X145928186Y-49916186D01*
X145826729Y-49999448D01*
X145790991Y-50028778D01*
X145634466Y-50112443D01*
X145464627Y-50163963D01*
X145398443Y-50170481D01*
X145332260Y-50177000D01*
X145243740Y-50177000D01*
X145177557Y-50170481D01*
X145111373Y-50163963D01*
X144941534Y-50112443D01*
X144785009Y-50028778D01*
X144749271Y-49999448D01*
X144647814Y-49916186D01*
X144564552Y-49814729D01*
X144535222Y-49778991D01*
X144451557Y-49622466D01*
X144400037Y-49452627D01*
X144382641Y-49276000D01*
X144400037Y-49099373D01*
X144451557Y-48929534D01*
X144535222Y-48773009D01*
X144564552Y-48737271D01*
X144647814Y-48635814D01*
X144749271Y-48552552D01*
X144785009Y-48523222D01*
X144941534Y-48439557D01*
X145111373Y-48388037D01*
X145177558Y-48381518D01*
X145243740Y-48375000D01*
X145332260Y-48375000D01*
X145398442Y-48381518D01*
X145398442Y-48381518D01*
G37*
G36*
X145398443Y-45841519D02*
G01*
X145464627Y-45848037D01*
X145634466Y-45899557D01*
X145790991Y-45983222D01*
X145826729Y-46012552D01*
X145928186Y-46095814D01*
X146011448Y-46197271D01*
X146040778Y-46233009D01*
X146124443Y-46389534D01*
X146175963Y-46559373D01*
X146193359Y-46736000D01*
X146175963Y-46912627D01*
X146124443Y-47082466D01*
X146040778Y-47238991D01*
X146011448Y-47274729D01*
X145928186Y-47376186D01*
X145826729Y-47459448D01*
X145790991Y-47488778D01*
X145634466Y-47572443D01*
X145464627Y-47623963D01*
X145398442Y-47630482D01*
X145332260Y-47637000D01*
X145243740Y-47637000D01*
X145177558Y-47630482D01*
X145111373Y-47623963D01*
X144941534Y-47572443D01*
X144785009Y-47488778D01*
X144749271Y-47459448D01*
X144647814Y-47376186D01*
X144564552Y-47274729D01*
X144535222Y-47238991D01*
X144451557Y-47082466D01*
X144400037Y-46912627D01*
X144382641Y-46736000D01*
X144400037Y-46559373D01*
X144451557Y-46389534D01*
X144535222Y-46233009D01*
X144564552Y-46197271D01*
X144647814Y-46095814D01*
X144749271Y-46012552D01*
X144785009Y-45983222D01*
X144941534Y-45899557D01*
X145111373Y-45848037D01*
X145177558Y-45841518D01*
X145243740Y-45835000D01*
X145332260Y-45835000D01*
X145398443Y-45841519D01*
X145398443Y-45841519D01*
G37*
G36*
X143649000Y-47637000D02*
G01*
X141847000Y-47637000D01*
X141847000Y-45835000D01*
X143649000Y-45835000D01*
X143649000Y-47637000D01*
X143649000Y-47637000D01*
G37*
G36*
X84438443Y-45841519D02*
G01*
X84504627Y-45848037D01*
X84674466Y-45899557D01*
X84830991Y-45983222D01*
X84866729Y-46012552D01*
X84968186Y-46095814D01*
X85051448Y-46197271D01*
X85080778Y-46233009D01*
X85164443Y-46389534D01*
X85215963Y-46559373D01*
X85233359Y-46736000D01*
X85215963Y-46912627D01*
X85164443Y-47082466D01*
X85080778Y-47238991D01*
X85051448Y-47274729D01*
X84968186Y-47376186D01*
X84866729Y-47459448D01*
X84830991Y-47488778D01*
X84674466Y-47572443D01*
X84504627Y-47623963D01*
X84438442Y-47630482D01*
X84372260Y-47637000D01*
X84283740Y-47637000D01*
X84217558Y-47630482D01*
X84151373Y-47623963D01*
X83981534Y-47572443D01*
X83825009Y-47488778D01*
X83789271Y-47459448D01*
X83687814Y-47376186D01*
X83604552Y-47274729D01*
X83575222Y-47238991D01*
X83491557Y-47082466D01*
X83440037Y-46912627D01*
X83422641Y-46736000D01*
X83440037Y-46559373D01*
X83491557Y-46389534D01*
X83575222Y-46233009D01*
X83604552Y-46197271D01*
X83687814Y-46095814D01*
X83789271Y-46012552D01*
X83825009Y-45983222D01*
X83981534Y-45899557D01*
X84151373Y-45848037D01*
X84217558Y-45841518D01*
X84283740Y-45835000D01*
X84372260Y-45835000D01*
X84438443Y-45841519D01*
X84438443Y-45841519D01*
G37*
G36*
X82689000Y-47637000D02*
G01*
X80887000Y-47637000D01*
X80887000Y-45835000D01*
X82689000Y-45835000D01*
X82689000Y-47637000D01*
X82689000Y-47637000D01*
G37*
M02*
