G04 #@! TF.GenerationSoftware,KiCad,Pcbnew,(5.1.2)-2*
G04 #@! TF.CreationDate,2021-06-22T12:17:49+03:00*
G04 #@! TF.ProjectId,extension_board,65787465-6e73-4696-9f6e-5f626f617264,rev?*
G04 #@! TF.SameCoordinates,Original*
G04 #@! TF.FileFunction,Legend,Top*
G04 #@! TF.FilePolarity,Positive*
%FSLAX46Y46*%
G04 Gerber Fmt 4.6, Leading zero omitted, Abs format (unit mm)*
G04 Created by KiCad (PCBNEW (5.1.2)-2) date 2021-06-22 12:17:49*
%MOMM*%
%LPD*%
G04 APERTURE LIST*
%ADD10C,0.120000*%
%ADD11C,0.100000*%
%ADD12C,0.150000*%
G04 APERTURE END LIST*
D10*
X132020000Y-100524000D02*
X137220000Y-100524000D01*
X132020000Y-136204000D02*
X137220000Y-136204000D01*
X130580000Y-101094000D02*
X132020000Y-101094000D01*
X132020000Y-100524000D02*
X132020000Y-101094000D01*
X137220000Y-100524000D02*
X137220000Y-101094000D01*
X132020000Y-135634000D02*
X132020000Y-136204000D01*
X137220000Y-135634000D02*
X137220000Y-136204000D01*
X132020000Y-102614000D02*
X132020000Y-103634000D01*
X137220000Y-102614000D02*
X137220000Y-103634000D01*
X132020000Y-105154000D02*
X132020000Y-106174000D01*
X137220000Y-105154000D02*
X137220000Y-106174000D01*
X132020000Y-107694000D02*
X132020000Y-108714000D01*
X137220000Y-107694000D02*
X137220000Y-108714000D01*
X132020000Y-110234000D02*
X132020000Y-111254000D01*
X137220000Y-110234000D02*
X137220000Y-111254000D01*
X132020000Y-112774000D02*
X132020000Y-113794000D01*
X137220000Y-112774000D02*
X137220000Y-113794000D01*
X132020000Y-115314000D02*
X132020000Y-116334000D01*
X137220000Y-115314000D02*
X137220000Y-116334000D01*
X132020000Y-117854000D02*
X132020000Y-118874000D01*
X137220000Y-117854000D02*
X137220000Y-118874000D01*
X132020000Y-120394000D02*
X132020000Y-121414000D01*
X137220000Y-120394000D02*
X137220000Y-121414000D01*
X132020000Y-122934000D02*
X132020000Y-123954000D01*
X137220000Y-122934000D02*
X137220000Y-123954000D01*
X132020000Y-125474000D02*
X132020000Y-126494000D01*
X137220000Y-125474000D02*
X137220000Y-126494000D01*
X132020000Y-128014000D02*
X132020000Y-129034000D01*
X137220000Y-128014000D02*
X137220000Y-129034000D01*
X132020000Y-130554000D02*
X132020000Y-131574000D01*
X137220000Y-130554000D02*
X137220000Y-131574000D01*
X132020000Y-133094000D02*
X132020000Y-134114000D01*
X137220000Y-133094000D02*
X137220000Y-134114000D01*
X143005500Y-129220500D02*
X143005500Y-132780500D01*
X143005500Y-124140500D02*
X143005500Y-127700500D01*
X143005500Y-119060500D02*
X143005500Y-122620500D01*
X143005500Y-113980500D02*
X143005500Y-117540500D01*
X145665500Y-131760500D02*
X145665500Y-134870500D01*
X145665500Y-126680500D02*
X145665500Y-130240500D01*
X145665500Y-121600500D02*
X145665500Y-125160500D01*
X145665500Y-116520500D02*
X145665500Y-120080500D01*
X145665500Y-134300500D02*
X145665500Y-134870500D01*
X143005500Y-111890500D02*
X143005500Y-112460500D01*
X143005500Y-112460500D02*
X141485500Y-112460500D01*
X145665500Y-111890500D02*
X145665500Y-115000500D01*
X143005500Y-134870500D02*
X145665500Y-134870500D01*
X143005500Y-111890500D02*
X145665500Y-111890500D01*
X86046000Y-119447000D02*
X91246000Y-119447000D01*
X86046000Y-127187000D02*
X91246000Y-127187000D01*
X84606000Y-120017000D02*
X86046000Y-120017000D01*
X86046000Y-119447000D02*
X86046000Y-120017000D01*
X91246000Y-119447000D02*
X91246000Y-120017000D01*
X86046000Y-126617000D02*
X86046000Y-127187000D01*
X91246000Y-126617000D02*
X91246000Y-127187000D01*
X86046000Y-121537000D02*
X86046000Y-122557000D01*
X91246000Y-121537000D02*
X91246000Y-122557000D01*
X86046000Y-124077000D02*
X86046000Y-125097000D01*
X91246000Y-124077000D02*
X91246000Y-125097000D01*
X114828205Y-99352184D02*
G75*
G02X114101000Y-98828000I1122795J2324184D01*
G01*
X117049807Y-99384400D02*
G75*
G03X118551000Y-97028000I-1098807J2356400D01*
G01*
X117049807Y-94671600D02*
G75*
G02X118551000Y-97028000I-1098807J-2356400D01*
G01*
X114828205Y-94703816D02*
G75*
G03X114101000Y-95228000I1122795J-2324184D01*
G01*
X114101000Y-95228000D02*
X114101000Y-98828000D01*
X114701205Y-108496184D02*
G75*
G02X113974000Y-107972000I1122795J2324184D01*
G01*
X116922807Y-108528400D02*
G75*
G03X118424000Y-106172000I-1098807J2356400D01*
G01*
X116922807Y-103815600D02*
G75*
G02X118424000Y-106172000I-1098807J-2356400D01*
G01*
X114701205Y-103847816D02*
G75*
G03X113974000Y-104372000I1122795J-2324184D01*
G01*
X113974000Y-104372000D02*
X113974000Y-107972000D01*
X96326000Y-95691000D02*
X94996000Y-95691000D01*
X96326000Y-94361000D02*
X96326000Y-95691000D01*
X96326000Y-93091000D02*
X93666000Y-93091000D01*
X93666000Y-93091000D02*
X93666000Y-90491000D01*
X96326000Y-93091000D02*
X96326000Y-90491000D01*
X96326000Y-90491000D02*
X93666000Y-90491000D01*
X96468000Y-87436000D02*
X95138000Y-87436000D01*
X96468000Y-86106000D02*
X96468000Y-87436000D01*
X96468000Y-84836000D02*
X93808000Y-84836000D01*
X93808000Y-84836000D02*
X93808000Y-82236000D01*
X96468000Y-84836000D02*
X96468000Y-82236000D01*
X96468000Y-82236000D02*
X93808000Y-82236000D01*
X96184000Y-103438000D02*
X94854000Y-103438000D01*
X96184000Y-102108000D02*
X96184000Y-103438000D01*
X96184000Y-100838000D02*
X93524000Y-100838000D01*
X93524000Y-100838000D02*
X93524000Y-98238000D01*
X96184000Y-100838000D02*
X96184000Y-98238000D01*
X96184000Y-98238000D02*
X93524000Y-98238000D01*
X96214000Y-111693000D02*
X94884000Y-111693000D01*
X96214000Y-110363000D02*
X96214000Y-111693000D01*
X96214000Y-109093000D02*
X93554000Y-109093000D01*
X93554000Y-109093000D02*
X93554000Y-106493000D01*
X96214000Y-109093000D02*
X96214000Y-106493000D01*
X96214000Y-106493000D02*
X93554000Y-106493000D01*
X114955205Y-87668184D02*
G75*
G02X114228000Y-87144000I1122795J2324184D01*
G01*
X117176807Y-87700400D02*
G75*
G03X118678000Y-85344000I-1098807J2356400D01*
G01*
X117176807Y-82987600D02*
G75*
G02X118678000Y-85344000I-1098807J-2356400D01*
G01*
X114955205Y-83019816D02*
G75*
G03X114228000Y-83544000I1122795J-2324184D01*
G01*
X114228000Y-83544000D02*
X114228000Y-87144000D01*
X114701205Y-118148184D02*
G75*
G02X113974000Y-117624000I1122795J2324184D01*
G01*
X116922807Y-118180400D02*
G75*
G03X118424000Y-115824000I-1098807J2356400D01*
G01*
X116922807Y-113467600D02*
G75*
G02X118424000Y-115824000I-1098807J-2356400D01*
G01*
X114701205Y-113499816D02*
G75*
G03X113974000Y-114024000I1122795J-2324184D01*
G01*
X113974000Y-114024000D02*
X113974000Y-117624000D01*
X102551000Y-49976000D02*
X102551000Y-48576000D01*
X103951000Y-49976000D02*
X102551000Y-49976000D01*
X103951000Y-48576000D02*
X103951000Y-49976000D01*
X102551000Y-48576000D02*
X103951000Y-48576000D01*
X108604666Y-49976000D02*
X108604666Y-48576000D01*
X110004666Y-49976000D02*
X108604666Y-49976000D01*
X110004666Y-48576000D02*
X110004666Y-49976000D01*
X108604666Y-48576000D02*
X110004666Y-48576000D01*
X114489000Y-49976000D02*
X114489000Y-48576000D01*
X115889000Y-49976000D02*
X114489000Y-49976000D01*
X115889000Y-48576000D02*
X115889000Y-49976000D01*
X114489000Y-48576000D02*
X115889000Y-48576000D01*
X120458000Y-49976000D02*
X120458000Y-48576000D01*
X121858000Y-49976000D02*
X120458000Y-49976000D01*
X121858000Y-48576000D02*
X121858000Y-49976000D01*
X120458000Y-48576000D02*
X121858000Y-48576000D01*
X90171748Y-65226000D02*
X90694252Y-65226000D01*
X90171748Y-63806000D02*
X90694252Y-63806000D01*
X92150000Y-59942252D02*
X92150000Y-59419748D01*
X90730000Y-59942252D02*
X90730000Y-59419748D01*
X141418000Y-45406000D02*
X142748000Y-45406000D01*
X141418000Y-46736000D02*
X141418000Y-45406000D01*
X144018000Y-45406000D02*
X146618000Y-45406000D01*
X144018000Y-48006000D02*
X144018000Y-45406000D01*
X141418000Y-48006000D02*
X144018000Y-48006000D01*
X146618000Y-45406000D02*
X146618000Y-93786000D01*
X141418000Y-48006000D02*
X141418000Y-93786000D01*
X141418000Y-93786000D02*
X146618000Y-93786000D01*
X80458000Y-45406000D02*
X81788000Y-45406000D01*
X80458000Y-46736000D02*
X80458000Y-45406000D01*
X83058000Y-45406000D02*
X85658000Y-45406000D01*
X83058000Y-48006000D02*
X83058000Y-45406000D01*
X80458000Y-48006000D02*
X83058000Y-48006000D01*
X85658000Y-45406000D02*
X85658000Y-70926000D01*
X80458000Y-48006000D02*
X80458000Y-70926000D01*
X80458000Y-70926000D02*
X85658000Y-70926000D01*
X85598000Y-138166000D02*
X85598000Y-136966000D01*
X85598000Y-133646000D02*
X85598000Y-134846000D01*
X82142437Y-133646000D02*
X85598000Y-133646000D01*
X82142437Y-138166000D02*
X85598000Y-138166000D01*
X81078000Y-137101563D02*
X81078000Y-136966000D01*
X81078000Y-134710437D02*
X81078000Y-134846000D01*
X81078000Y-134710437D02*
X82142437Y-133646000D01*
X81078000Y-137101563D02*
X82142437Y-138166000D01*
X80338000Y-134346000D02*
X80838000Y-134346000D01*
X80588000Y-134096000D02*
X80588000Y-134596000D01*
X90703000Y-133548000D02*
X93563000Y-133548000D01*
X93563000Y-133548000D02*
X93563000Y-131628000D01*
X93563000Y-131628000D02*
X90703000Y-131628000D01*
D11*
X90476000Y-139610000D02*
X89976000Y-139610000D01*
X90476000Y-139610000D02*
X90476000Y-140110000D01*
X90466000Y-147430000D02*
X89966000Y-147430000D01*
X90466000Y-146930000D02*
X90466000Y-147430000D01*
X80088000Y-147410000D02*
X80588000Y-147410000D01*
X80088000Y-146910000D02*
X80088000Y-147410000D01*
X80088000Y-139610000D02*
X80088000Y-140110000D01*
X80088000Y-139610000D02*
X80588000Y-139610000D01*
D10*
X119813000Y-60689748D02*
X119813000Y-61212252D01*
X121233000Y-60689748D02*
X121233000Y-61212252D01*
X121233000Y-65279748D02*
X121233000Y-65802252D01*
X119813000Y-65279748D02*
X119813000Y-65802252D01*
X114055666Y-60689748D02*
X114055666Y-61212252D01*
X115475666Y-60689748D02*
X115475666Y-61212252D01*
X115518000Y-65279748D02*
X115518000Y-65802252D01*
X114098000Y-65279748D02*
X114098000Y-65802252D01*
X109718333Y-60689748D02*
X109718333Y-61212252D01*
X108298333Y-60689748D02*
X108298333Y-61212252D01*
X108256000Y-65279748D02*
X108256000Y-65802252D01*
X109676000Y-65279748D02*
X109676000Y-65802252D01*
X102541000Y-60689748D02*
X102541000Y-61212252D01*
X103961000Y-60689748D02*
X103961000Y-61212252D01*
X103961000Y-65279748D02*
X103961000Y-65802252D01*
X102541000Y-65279748D02*
X102541000Y-65802252D01*
X98036748Y-131878000D02*
X98559252Y-131878000D01*
X98036748Y-133298000D02*
X98559252Y-133298000D01*
X109599000Y-109659267D02*
X109599000Y-109316733D01*
X110619000Y-109659267D02*
X110619000Y-109316733D01*
X109599000Y-101658267D02*
X109599000Y-101315733D01*
X110619000Y-101658267D02*
X110619000Y-101315733D01*
X110873000Y-85402267D02*
X110873000Y-85059733D01*
X109853000Y-85402267D02*
X109853000Y-85059733D01*
X110746000Y-93657267D02*
X110746000Y-93314733D01*
X109726000Y-93657267D02*
X109726000Y-93314733D01*
D11*
X106729000Y-108623000D02*
X106729000Y-108273000D01*
X106929000Y-108623000D02*
X106729000Y-108623000D01*
X106929000Y-108873000D02*
X106929000Y-108623000D01*
X103129000Y-108623000D02*
X103129000Y-108873000D01*
X103129000Y-108623000D02*
X103329000Y-108623000D01*
X103129000Y-112623000D02*
X103379000Y-112623000D01*
X103129000Y-112623000D02*
X103129000Y-112373000D01*
X106929000Y-112623000D02*
X106679000Y-112623000D01*
X106929000Y-112623000D02*
X106929000Y-112373000D01*
X106929000Y-104398000D02*
X106929000Y-104148000D01*
X106929000Y-104398000D02*
X106679000Y-104398000D01*
X103129000Y-104398000D02*
X103129000Y-104148000D01*
X103129000Y-104398000D02*
X103379000Y-104398000D01*
X103129000Y-100398000D02*
X103329000Y-100398000D01*
X103129000Y-100398000D02*
X103129000Y-100648000D01*
X106929000Y-100648000D02*
X106929000Y-100398000D01*
X106929000Y-100398000D02*
X106729000Y-100398000D01*
X106729000Y-100398000D02*
X106729000Y-100048000D01*
X107183000Y-88381000D02*
X107183000Y-88131000D01*
X107183000Y-88381000D02*
X106933000Y-88381000D01*
X103383000Y-88381000D02*
X103383000Y-88131000D01*
X103383000Y-88381000D02*
X103633000Y-88381000D01*
X103383000Y-84381000D02*
X103583000Y-84381000D01*
X103383000Y-84381000D02*
X103383000Y-84631000D01*
X107183000Y-84631000D02*
X107183000Y-84381000D01*
X107183000Y-84381000D02*
X106983000Y-84381000D01*
X106983000Y-84381000D02*
X106983000Y-84031000D01*
X106856000Y-92621000D02*
X106856000Y-92271000D01*
X107056000Y-92621000D02*
X106856000Y-92621000D01*
X107056000Y-92871000D02*
X107056000Y-92621000D01*
X103256000Y-92621000D02*
X103256000Y-92871000D01*
X103256000Y-92621000D02*
X103456000Y-92621000D01*
X103256000Y-96621000D02*
X103506000Y-96621000D01*
X103256000Y-96621000D02*
X103256000Y-96371000D01*
X107056000Y-96621000D02*
X106806000Y-96621000D01*
X107056000Y-96621000D02*
X107056000Y-96371000D01*
D12*
X134286666Y-98976380D02*
X134286666Y-99690666D01*
X134239047Y-99833523D01*
X134143809Y-99928761D01*
X134000952Y-99976380D01*
X133905714Y-99976380D01*
X134667619Y-98976380D02*
X135334285Y-98976380D01*
X134905714Y-99976380D01*
X143525976Y-110342880D02*
X143525976Y-111057166D01*
X143478357Y-111200023D01*
X143383119Y-111295261D01*
X143240261Y-111342880D01*
X143145023Y-111342880D01*
X144525976Y-111342880D02*
X143954547Y-111342880D01*
X144240261Y-111342880D02*
X144240261Y-110342880D01*
X144145023Y-110485738D01*
X144049785Y-110580976D01*
X143954547Y-110628595D01*
X145145023Y-110342880D02*
X145240261Y-110342880D01*
X145335500Y-110390500D01*
X145383119Y-110438119D01*
X145430738Y-110533357D01*
X145478357Y-110723833D01*
X145478357Y-110961928D01*
X145430738Y-111152404D01*
X145383119Y-111247642D01*
X145335500Y-111295261D01*
X145240261Y-111342880D01*
X145145023Y-111342880D01*
X145049785Y-111295261D01*
X145002166Y-111247642D01*
X144954547Y-111152404D01*
X144906928Y-110961928D01*
X144906928Y-110723833D01*
X144954547Y-110533357D01*
X145002166Y-110438119D01*
X145049785Y-110390500D01*
X145145023Y-110342880D01*
X88312666Y-117899380D02*
X88312666Y-118613666D01*
X88265047Y-118756523D01*
X88169809Y-118851761D01*
X88026952Y-118899380D01*
X87931714Y-118899380D01*
X89265047Y-117899380D02*
X88788857Y-117899380D01*
X88741238Y-118375571D01*
X88788857Y-118327952D01*
X88884095Y-118280333D01*
X89122190Y-118280333D01*
X89217428Y-118327952D01*
X89265047Y-118375571D01*
X89312666Y-118470809D01*
X89312666Y-118708904D01*
X89265047Y-118804142D01*
X89217428Y-118851761D01*
X89122190Y-118899380D01*
X88884095Y-118899380D01*
X88788857Y-118851761D01*
X88741238Y-118804142D01*
X118963380Y-97789904D02*
X119772904Y-97789904D01*
X119868142Y-97742285D01*
X119915761Y-97694666D01*
X119963380Y-97599428D01*
X119963380Y-97408952D01*
X119915761Y-97313714D01*
X119868142Y-97266095D01*
X119772904Y-97218476D01*
X118963380Y-97218476D01*
X119296714Y-96313714D02*
X119963380Y-96313714D01*
X118915761Y-96551809D02*
X119630047Y-96789904D01*
X119630047Y-96170857D01*
X118836380Y-106933904D02*
X119645904Y-106933904D01*
X119741142Y-106886285D01*
X119788761Y-106838666D01*
X119836380Y-106743428D01*
X119836380Y-106552952D01*
X119788761Y-106457714D01*
X119741142Y-106410095D01*
X119645904Y-106362476D01*
X118836380Y-106362476D01*
X118931619Y-105933904D02*
X118884000Y-105886285D01*
X118836380Y-105791047D01*
X118836380Y-105552952D01*
X118884000Y-105457714D01*
X118931619Y-105410095D01*
X119026857Y-105362476D01*
X119122095Y-105362476D01*
X119264952Y-105410095D01*
X119836380Y-105981523D01*
X119836380Y-105362476D01*
X94662666Y-96143380D02*
X94662666Y-96857666D01*
X94615047Y-97000523D01*
X94519809Y-97095761D01*
X94376952Y-97143380D01*
X94281714Y-97143380D01*
X95567428Y-96143380D02*
X95376952Y-96143380D01*
X95281714Y-96191000D01*
X95234095Y-96238619D01*
X95138857Y-96381476D01*
X95091238Y-96571952D01*
X95091238Y-96952904D01*
X95138857Y-97048142D01*
X95186476Y-97095761D01*
X95281714Y-97143380D01*
X95472190Y-97143380D01*
X95567428Y-97095761D01*
X95615047Y-97048142D01*
X95662666Y-96952904D01*
X95662666Y-96714809D01*
X95615047Y-96619571D01*
X95567428Y-96571952D01*
X95472190Y-96524333D01*
X95281714Y-96524333D01*
X95186476Y-96571952D01*
X95138857Y-96619571D01*
X95091238Y-96714809D01*
X94804666Y-87888380D02*
X94804666Y-88602666D01*
X94757047Y-88745523D01*
X94661809Y-88840761D01*
X94518952Y-88888380D01*
X94423714Y-88888380D01*
X95709428Y-88221714D02*
X95709428Y-88888380D01*
X95471333Y-87840761D02*
X95233238Y-88555047D01*
X95852285Y-88555047D01*
X94520666Y-103890380D02*
X94520666Y-104604666D01*
X94473047Y-104747523D01*
X94377809Y-104842761D01*
X94234952Y-104890380D01*
X94139714Y-104890380D01*
X94901619Y-103890380D02*
X95520666Y-103890380D01*
X95187333Y-104271333D01*
X95330190Y-104271333D01*
X95425428Y-104318952D01*
X95473047Y-104366571D01*
X95520666Y-104461809D01*
X95520666Y-104699904D01*
X95473047Y-104795142D01*
X95425428Y-104842761D01*
X95330190Y-104890380D01*
X95044476Y-104890380D01*
X94949238Y-104842761D01*
X94901619Y-104795142D01*
X94550666Y-112145380D02*
X94550666Y-112859666D01*
X94503047Y-113002523D01*
X94407809Y-113097761D01*
X94264952Y-113145380D01*
X94169714Y-113145380D01*
X94979238Y-112240619D02*
X95026857Y-112193000D01*
X95122095Y-112145380D01*
X95360190Y-112145380D01*
X95455428Y-112193000D01*
X95503047Y-112240619D01*
X95550666Y-112335857D01*
X95550666Y-112431095D01*
X95503047Y-112573952D01*
X94931619Y-113145380D01*
X95550666Y-113145380D01*
X119090380Y-86105904D02*
X119899904Y-86105904D01*
X119995142Y-86058285D01*
X120042761Y-86010666D01*
X120090380Y-85915428D01*
X120090380Y-85724952D01*
X120042761Y-85629714D01*
X119995142Y-85582095D01*
X119899904Y-85534476D01*
X119090380Y-85534476D01*
X119090380Y-85153523D02*
X119090380Y-84534476D01*
X119471333Y-84867809D01*
X119471333Y-84724952D01*
X119518952Y-84629714D01*
X119566571Y-84582095D01*
X119661809Y-84534476D01*
X119899904Y-84534476D01*
X119995142Y-84582095D01*
X120042761Y-84629714D01*
X120090380Y-84724952D01*
X120090380Y-85010666D01*
X120042761Y-85105904D01*
X119995142Y-85153523D01*
X118836380Y-116585904D02*
X119645904Y-116585904D01*
X119741142Y-116538285D01*
X119788761Y-116490666D01*
X119836380Y-116395428D01*
X119836380Y-116204952D01*
X119788761Y-116109714D01*
X119741142Y-116062095D01*
X119645904Y-116014476D01*
X118836380Y-116014476D01*
X119836380Y-115014476D02*
X119836380Y-115585904D01*
X119836380Y-115300190D02*
X118836380Y-115300190D01*
X118979238Y-115395428D01*
X119074476Y-115490666D01*
X119122095Y-115585904D01*
X101989095Y-47280380D02*
X102560523Y-47280380D01*
X102274809Y-48280380D02*
X102274809Y-47280380D01*
X102893857Y-48280380D02*
X102893857Y-47280380D01*
X103274809Y-47280380D01*
X103370047Y-47328000D01*
X103417666Y-47375619D01*
X103465285Y-47470857D01*
X103465285Y-47613714D01*
X103417666Y-47708952D01*
X103370047Y-47756571D01*
X103274809Y-47804190D01*
X102893857Y-47804190D01*
X104322428Y-47613714D02*
X104322428Y-48280380D01*
X104084333Y-47232761D02*
X103846238Y-47947047D01*
X104465285Y-47947047D01*
X108042761Y-47280380D02*
X108614189Y-47280380D01*
X108328475Y-48280380D02*
X108328475Y-47280380D01*
X108947523Y-48280380D02*
X108947523Y-47280380D01*
X109328475Y-47280380D01*
X109423713Y-47328000D01*
X109471332Y-47375619D01*
X109518951Y-47470857D01*
X109518951Y-47613714D01*
X109471332Y-47708952D01*
X109423713Y-47756571D01*
X109328475Y-47804190D01*
X108947523Y-47804190D01*
X109852285Y-47280380D02*
X110471332Y-47280380D01*
X110137999Y-47661333D01*
X110280856Y-47661333D01*
X110376094Y-47708952D01*
X110423713Y-47756571D01*
X110471332Y-47851809D01*
X110471332Y-48089904D01*
X110423713Y-48185142D01*
X110376094Y-48232761D01*
X110280856Y-48280380D01*
X109995142Y-48280380D01*
X109899904Y-48232761D01*
X109852285Y-48185142D01*
X113927095Y-47280380D02*
X114498523Y-47280380D01*
X114212809Y-48280380D02*
X114212809Y-47280380D01*
X114831857Y-48280380D02*
X114831857Y-47280380D01*
X115212809Y-47280380D01*
X115308047Y-47328000D01*
X115355666Y-47375619D01*
X115403285Y-47470857D01*
X115403285Y-47613714D01*
X115355666Y-47708952D01*
X115308047Y-47756571D01*
X115212809Y-47804190D01*
X114831857Y-47804190D01*
X115784238Y-47375619D02*
X115831857Y-47328000D01*
X115927095Y-47280380D01*
X116165190Y-47280380D01*
X116260428Y-47328000D01*
X116308047Y-47375619D01*
X116355666Y-47470857D01*
X116355666Y-47566095D01*
X116308047Y-47708952D01*
X115736619Y-48280380D01*
X116355666Y-48280380D01*
X119896095Y-47280380D02*
X120467523Y-47280380D01*
X120181809Y-48280380D02*
X120181809Y-47280380D01*
X120800857Y-48280380D02*
X120800857Y-47280380D01*
X121181809Y-47280380D01*
X121277047Y-47328000D01*
X121324666Y-47375619D01*
X121372285Y-47470857D01*
X121372285Y-47613714D01*
X121324666Y-47708952D01*
X121277047Y-47756571D01*
X121181809Y-47804190D01*
X120800857Y-47804190D01*
X122324666Y-48280380D02*
X121753238Y-48280380D01*
X122038952Y-48280380D02*
X122038952Y-47280380D01*
X121943714Y-47423238D01*
X121848476Y-47518476D01*
X121753238Y-47566095D01*
X89790142Y-63318380D02*
X89456809Y-62842190D01*
X89218714Y-63318380D02*
X89218714Y-62318380D01*
X89599666Y-62318380D01*
X89694904Y-62366000D01*
X89742523Y-62413619D01*
X89790142Y-62508857D01*
X89790142Y-62651714D01*
X89742523Y-62746952D01*
X89694904Y-62794571D01*
X89599666Y-62842190D01*
X89218714Y-62842190D01*
X90742523Y-63318380D02*
X90171095Y-63318380D01*
X90456809Y-63318380D02*
X90456809Y-62318380D01*
X90361571Y-62461238D01*
X90266333Y-62556476D01*
X90171095Y-62604095D01*
X91599666Y-62651714D02*
X91599666Y-63318380D01*
X91361571Y-62270761D02*
X91123476Y-62985047D01*
X91742523Y-62985047D01*
X90147142Y-59847666D02*
X90194761Y-59895285D01*
X90242380Y-60038142D01*
X90242380Y-60133380D01*
X90194761Y-60276238D01*
X90099523Y-60371476D01*
X90004285Y-60419095D01*
X89813809Y-60466714D01*
X89670952Y-60466714D01*
X89480476Y-60419095D01*
X89385238Y-60371476D01*
X89290000Y-60276238D01*
X89242380Y-60133380D01*
X89242380Y-60038142D01*
X89290000Y-59895285D01*
X89337619Y-59847666D01*
X89337619Y-59466714D02*
X89290000Y-59419095D01*
X89242380Y-59323857D01*
X89242380Y-59085761D01*
X89290000Y-58990523D01*
X89337619Y-58942904D01*
X89432857Y-58895285D01*
X89528095Y-58895285D01*
X89670952Y-58942904D01*
X90242380Y-59514333D01*
X90242380Y-58895285D01*
X143684666Y-43858380D02*
X143684666Y-44572666D01*
X143637047Y-44715523D01*
X143541809Y-44810761D01*
X143398952Y-44858380D01*
X143303714Y-44858380D01*
X144208476Y-44858380D02*
X144398952Y-44858380D01*
X144494190Y-44810761D01*
X144541809Y-44763142D01*
X144637047Y-44620285D01*
X144684666Y-44429809D01*
X144684666Y-44048857D01*
X144637047Y-43953619D01*
X144589428Y-43906000D01*
X144494190Y-43858380D01*
X144303714Y-43858380D01*
X144208476Y-43906000D01*
X144160857Y-43953619D01*
X144113238Y-44048857D01*
X144113238Y-44286952D01*
X144160857Y-44382190D01*
X144208476Y-44429809D01*
X144303714Y-44477428D01*
X144494190Y-44477428D01*
X144589428Y-44429809D01*
X144637047Y-44382190D01*
X144684666Y-44286952D01*
X82724666Y-43858380D02*
X82724666Y-44572666D01*
X82677047Y-44715523D01*
X82581809Y-44810761D01*
X82438952Y-44858380D01*
X82343714Y-44858380D01*
X83343714Y-44286952D02*
X83248476Y-44239333D01*
X83200857Y-44191714D01*
X83153238Y-44096476D01*
X83153238Y-44048857D01*
X83200857Y-43953619D01*
X83248476Y-43906000D01*
X83343714Y-43858380D01*
X83534190Y-43858380D01*
X83629428Y-43906000D01*
X83677047Y-43953619D01*
X83724666Y-44048857D01*
X83724666Y-44096476D01*
X83677047Y-44191714D01*
X83629428Y-44239333D01*
X83534190Y-44286952D01*
X83343714Y-44286952D01*
X83248476Y-44334571D01*
X83200857Y-44382190D01*
X83153238Y-44477428D01*
X83153238Y-44667904D01*
X83200857Y-44763142D01*
X83248476Y-44810761D01*
X83343714Y-44858380D01*
X83534190Y-44858380D01*
X83629428Y-44810761D01*
X83677047Y-44763142D01*
X83724666Y-44667904D01*
X83724666Y-44477428D01*
X83677047Y-44382190D01*
X83629428Y-44334571D01*
X83534190Y-44286952D01*
X83171333Y-133063142D02*
X83123714Y-133110761D01*
X82980857Y-133158380D01*
X82885619Y-133158380D01*
X82742761Y-133110761D01*
X82647523Y-133015523D01*
X82599904Y-132920285D01*
X82552285Y-132729809D01*
X82552285Y-132586952D01*
X82599904Y-132396476D01*
X82647523Y-132301238D01*
X82742761Y-132206000D01*
X82885619Y-132158380D01*
X82980857Y-132158380D01*
X83123714Y-132206000D01*
X83171333Y-132253619D01*
X84123714Y-133158380D02*
X83552285Y-133158380D01*
X83838000Y-133158380D02*
X83838000Y-132158380D01*
X83742761Y-132301238D01*
X83647523Y-132396476D01*
X83552285Y-132444095D01*
X90964904Y-134690380D02*
X90964904Y-133690380D01*
X91203000Y-133690380D01*
X91345857Y-133738000D01*
X91441095Y-133833238D01*
X91488714Y-133928476D01*
X91536333Y-134118952D01*
X91536333Y-134261809D01*
X91488714Y-134452285D01*
X91441095Y-134547523D01*
X91345857Y-134642761D01*
X91203000Y-134690380D01*
X90964904Y-134690380D01*
X92488714Y-134690380D02*
X91917285Y-134690380D01*
X92203000Y-134690380D02*
X92203000Y-133690380D01*
X92107761Y-133833238D01*
X92012523Y-133928476D01*
X91917285Y-133976095D01*
X85198666Y-138136380D02*
X85198666Y-138850666D01*
X85151047Y-138993523D01*
X85055809Y-139088761D01*
X84912952Y-139136380D01*
X84817714Y-139136380D01*
X86198666Y-139136380D02*
X85627238Y-139136380D01*
X85912952Y-139136380D02*
X85912952Y-138136380D01*
X85817714Y-138279238D01*
X85722476Y-138374476D01*
X85627238Y-138422095D01*
X122625380Y-61117666D02*
X122149190Y-61451000D01*
X122625380Y-61689095D02*
X121625380Y-61689095D01*
X121625380Y-61308142D01*
X121673000Y-61212904D01*
X121720619Y-61165285D01*
X121815857Y-61117666D01*
X121958714Y-61117666D01*
X122053952Y-61165285D01*
X122101571Y-61212904D01*
X122149190Y-61308142D01*
X122149190Y-61689095D01*
X122625380Y-60165285D02*
X122625380Y-60736714D01*
X122625380Y-60451000D02*
X121625380Y-60451000D01*
X121768238Y-60546238D01*
X121863476Y-60641476D01*
X121911095Y-60736714D01*
X122625380Y-65707666D02*
X122149190Y-66041000D01*
X122625380Y-66279095D02*
X121625380Y-66279095D01*
X121625380Y-65898142D01*
X121673000Y-65802904D01*
X121720619Y-65755285D01*
X121815857Y-65707666D01*
X121958714Y-65707666D01*
X122053952Y-65755285D01*
X122101571Y-65802904D01*
X122149190Y-65898142D01*
X122149190Y-66279095D01*
X121720619Y-65326714D02*
X121673000Y-65279095D01*
X121625380Y-65183857D01*
X121625380Y-64945761D01*
X121673000Y-64850523D01*
X121720619Y-64802904D01*
X121815857Y-64755285D01*
X121911095Y-64755285D01*
X122053952Y-64802904D01*
X122625380Y-65374333D01*
X122625380Y-64755285D01*
X116868046Y-61117666D02*
X116391856Y-61451000D01*
X116868046Y-61689095D02*
X115868046Y-61689095D01*
X115868046Y-61308142D01*
X115915666Y-61212904D01*
X115963285Y-61165285D01*
X116058523Y-61117666D01*
X116201380Y-61117666D01*
X116296618Y-61165285D01*
X116344237Y-61212904D01*
X116391856Y-61308142D01*
X116391856Y-61689095D01*
X115868046Y-60784333D02*
X115868046Y-60165285D01*
X116248999Y-60498619D01*
X116248999Y-60355761D01*
X116296618Y-60260523D01*
X116344237Y-60212904D01*
X116439475Y-60165285D01*
X116677570Y-60165285D01*
X116772808Y-60212904D01*
X116820427Y-60260523D01*
X116868046Y-60355761D01*
X116868046Y-60641476D01*
X116820427Y-60736714D01*
X116772808Y-60784333D01*
X116910380Y-65707666D02*
X116434190Y-66041000D01*
X116910380Y-66279095D02*
X115910380Y-66279095D01*
X115910380Y-65898142D01*
X115958000Y-65802904D01*
X116005619Y-65755285D01*
X116100857Y-65707666D01*
X116243714Y-65707666D01*
X116338952Y-65755285D01*
X116386571Y-65802904D01*
X116434190Y-65898142D01*
X116434190Y-66279095D01*
X116243714Y-64850523D02*
X116910380Y-64850523D01*
X115862761Y-65088619D02*
X116577047Y-65326714D01*
X116577047Y-64707666D01*
X111110713Y-61117666D02*
X110634523Y-61451000D01*
X111110713Y-61689095D02*
X110110713Y-61689095D01*
X110110713Y-61308142D01*
X110158333Y-61212904D01*
X110205952Y-61165285D01*
X110301190Y-61117666D01*
X110444047Y-61117666D01*
X110539285Y-61165285D01*
X110586904Y-61212904D01*
X110634523Y-61308142D01*
X110634523Y-61689095D01*
X110110713Y-60212904D02*
X110110713Y-60689095D01*
X110586904Y-60736714D01*
X110539285Y-60689095D01*
X110491666Y-60593857D01*
X110491666Y-60355761D01*
X110539285Y-60260523D01*
X110586904Y-60212904D01*
X110682142Y-60165285D01*
X110920237Y-60165285D01*
X111015475Y-60212904D01*
X111063094Y-60260523D01*
X111110713Y-60355761D01*
X111110713Y-60593857D01*
X111063094Y-60689095D01*
X111015475Y-60736714D01*
X111068380Y-65707666D02*
X110592190Y-66041000D01*
X111068380Y-66279095D02*
X110068380Y-66279095D01*
X110068380Y-65898142D01*
X110116000Y-65802904D01*
X110163619Y-65755285D01*
X110258857Y-65707666D01*
X110401714Y-65707666D01*
X110496952Y-65755285D01*
X110544571Y-65802904D01*
X110592190Y-65898142D01*
X110592190Y-66279095D01*
X110068380Y-64850523D02*
X110068380Y-65041000D01*
X110116000Y-65136238D01*
X110163619Y-65183857D01*
X110306476Y-65279095D01*
X110496952Y-65326714D01*
X110877904Y-65326714D01*
X110973142Y-65279095D01*
X111020761Y-65231476D01*
X111068380Y-65136238D01*
X111068380Y-64945761D01*
X111020761Y-64850523D01*
X110973142Y-64802904D01*
X110877904Y-64755285D01*
X110639809Y-64755285D01*
X110544571Y-64802904D01*
X110496952Y-64850523D01*
X110449333Y-64945761D01*
X110449333Y-65136238D01*
X110496952Y-65231476D01*
X110544571Y-65279095D01*
X110639809Y-65326714D01*
X105353380Y-61117666D02*
X104877190Y-61451000D01*
X105353380Y-61689095D02*
X104353380Y-61689095D01*
X104353380Y-61308142D01*
X104401000Y-61212904D01*
X104448619Y-61165285D01*
X104543857Y-61117666D01*
X104686714Y-61117666D01*
X104781952Y-61165285D01*
X104829571Y-61212904D01*
X104877190Y-61308142D01*
X104877190Y-61689095D01*
X104353380Y-60784333D02*
X104353380Y-60117666D01*
X105353380Y-60546238D01*
X105353380Y-65707666D02*
X104877190Y-66041000D01*
X105353380Y-66279095D02*
X104353380Y-66279095D01*
X104353380Y-65898142D01*
X104401000Y-65802904D01*
X104448619Y-65755285D01*
X104543857Y-65707666D01*
X104686714Y-65707666D01*
X104781952Y-65755285D01*
X104829571Y-65802904D01*
X104877190Y-65898142D01*
X104877190Y-66279095D01*
X104781952Y-65136238D02*
X104734333Y-65231476D01*
X104686714Y-65279095D01*
X104591476Y-65326714D01*
X104543857Y-65326714D01*
X104448619Y-65279095D01*
X104401000Y-65231476D01*
X104353380Y-65136238D01*
X104353380Y-64945761D01*
X104401000Y-64850523D01*
X104448619Y-64802904D01*
X104543857Y-64755285D01*
X104591476Y-64755285D01*
X104686714Y-64802904D01*
X104734333Y-64850523D01*
X104781952Y-64945761D01*
X104781952Y-65136238D01*
X104829571Y-65231476D01*
X104877190Y-65279095D01*
X104972428Y-65326714D01*
X105162904Y-65326714D01*
X105258142Y-65279095D01*
X105305761Y-65231476D01*
X105353380Y-65136238D01*
X105353380Y-64945761D01*
X105305761Y-64850523D01*
X105258142Y-64802904D01*
X105162904Y-64755285D01*
X104972428Y-64755285D01*
X104877190Y-64802904D01*
X104829571Y-64850523D01*
X104781952Y-64945761D01*
X98131333Y-131390380D02*
X97798000Y-130914190D01*
X97559904Y-131390380D02*
X97559904Y-130390380D01*
X97940857Y-130390380D01*
X98036095Y-130438000D01*
X98083714Y-130485619D01*
X98131333Y-130580857D01*
X98131333Y-130723714D01*
X98083714Y-130818952D01*
X98036095Y-130866571D01*
X97940857Y-130914190D01*
X97559904Y-130914190D01*
X98607523Y-131390380D02*
X98798000Y-131390380D01*
X98893238Y-131342761D01*
X98940857Y-131295142D01*
X99036095Y-131152285D01*
X99083714Y-130961809D01*
X99083714Y-130580857D01*
X99036095Y-130485619D01*
X98988476Y-130438000D01*
X98893238Y-130390380D01*
X98702761Y-130390380D01*
X98607523Y-130438000D01*
X98559904Y-130485619D01*
X98512285Y-130580857D01*
X98512285Y-130818952D01*
X98559904Y-130914190D01*
X98607523Y-130961809D01*
X98702761Y-131009428D01*
X98893238Y-131009428D01*
X98988476Y-130961809D01*
X99036095Y-130914190D01*
X99083714Y-130818952D01*
X109131380Y-110130857D02*
X108655190Y-110464190D01*
X109131380Y-110702285D02*
X108131380Y-110702285D01*
X108131380Y-110321333D01*
X108179000Y-110226095D01*
X108226619Y-110178476D01*
X108321857Y-110130857D01*
X108464714Y-110130857D01*
X108559952Y-110178476D01*
X108607571Y-110226095D01*
X108655190Y-110321333D01*
X108655190Y-110702285D01*
X109131380Y-109178476D02*
X109131380Y-109749904D01*
X109131380Y-109464190D02*
X108131380Y-109464190D01*
X108274238Y-109559428D01*
X108369476Y-109654666D01*
X108417095Y-109749904D01*
X108131380Y-108559428D02*
X108131380Y-108464190D01*
X108179000Y-108368952D01*
X108226619Y-108321333D01*
X108321857Y-108273714D01*
X108512333Y-108226095D01*
X108750428Y-108226095D01*
X108940904Y-108273714D01*
X109036142Y-108321333D01*
X109083761Y-108368952D01*
X109131380Y-108464190D01*
X109131380Y-108559428D01*
X109083761Y-108654666D01*
X109036142Y-108702285D01*
X108940904Y-108749904D01*
X108750428Y-108797523D01*
X108512333Y-108797523D01*
X108321857Y-108749904D01*
X108226619Y-108702285D01*
X108179000Y-108654666D01*
X108131380Y-108559428D01*
X109131380Y-102129857D02*
X108655190Y-102463190D01*
X109131380Y-102701285D02*
X108131380Y-102701285D01*
X108131380Y-102320333D01*
X108179000Y-102225095D01*
X108226619Y-102177476D01*
X108321857Y-102129857D01*
X108464714Y-102129857D01*
X108559952Y-102177476D01*
X108607571Y-102225095D01*
X108655190Y-102320333D01*
X108655190Y-102701285D01*
X109131380Y-101177476D02*
X109131380Y-101748904D01*
X109131380Y-101463190D02*
X108131380Y-101463190D01*
X108274238Y-101558428D01*
X108369476Y-101653666D01*
X108417095Y-101748904D01*
X109131380Y-100225095D02*
X109131380Y-100796523D01*
X109131380Y-100510809D02*
X108131380Y-100510809D01*
X108274238Y-100606047D01*
X108369476Y-100701285D01*
X108417095Y-100796523D01*
X109385380Y-85873857D02*
X108909190Y-86207190D01*
X109385380Y-86445285D02*
X108385380Y-86445285D01*
X108385380Y-86064333D01*
X108433000Y-85969095D01*
X108480619Y-85921476D01*
X108575857Y-85873857D01*
X108718714Y-85873857D01*
X108813952Y-85921476D01*
X108861571Y-85969095D01*
X108909190Y-86064333D01*
X108909190Y-86445285D01*
X109385380Y-84921476D02*
X109385380Y-85492904D01*
X109385380Y-85207190D02*
X108385380Y-85207190D01*
X108528238Y-85302428D01*
X108623476Y-85397666D01*
X108671095Y-85492904D01*
X108480619Y-84540523D02*
X108433000Y-84492904D01*
X108385380Y-84397666D01*
X108385380Y-84159571D01*
X108433000Y-84064333D01*
X108480619Y-84016714D01*
X108575857Y-83969095D01*
X108671095Y-83969095D01*
X108813952Y-84016714D01*
X109385380Y-84588142D01*
X109385380Y-83969095D01*
X109258380Y-94128857D02*
X108782190Y-94462190D01*
X109258380Y-94700285D02*
X108258380Y-94700285D01*
X108258380Y-94319333D01*
X108306000Y-94224095D01*
X108353619Y-94176476D01*
X108448857Y-94128857D01*
X108591714Y-94128857D01*
X108686952Y-94176476D01*
X108734571Y-94224095D01*
X108782190Y-94319333D01*
X108782190Y-94700285D01*
X109258380Y-93176476D02*
X109258380Y-93747904D01*
X109258380Y-93462190D02*
X108258380Y-93462190D01*
X108401238Y-93557428D01*
X108496476Y-93652666D01*
X108544095Y-93747904D01*
X108258380Y-92843142D02*
X108258380Y-92224095D01*
X108639333Y-92557428D01*
X108639333Y-92414571D01*
X108686952Y-92319333D01*
X108734571Y-92271714D01*
X108829809Y-92224095D01*
X109067904Y-92224095D01*
X109163142Y-92271714D01*
X109210761Y-92319333D01*
X109258380Y-92414571D01*
X109258380Y-92700285D01*
X109210761Y-92795523D01*
X109163142Y-92843142D01*
X104433761Y-114615380D02*
X104100428Y-114139190D01*
X103862333Y-114615380D02*
X103862333Y-113615380D01*
X104243285Y-113615380D01*
X104338523Y-113663000D01*
X104386142Y-113710619D01*
X104433761Y-113805857D01*
X104433761Y-113948714D01*
X104386142Y-114043952D01*
X104338523Y-114091571D01*
X104243285Y-114139190D01*
X103862333Y-114139190D01*
X104719476Y-113615380D02*
X105052809Y-114615380D01*
X105386142Y-113615380D01*
X106243285Y-114615380D02*
X105671857Y-114615380D01*
X105957571Y-114615380D02*
X105957571Y-113615380D01*
X105862333Y-113758238D01*
X105767095Y-113853476D01*
X105671857Y-113901095D01*
X104433761Y-106390380D02*
X104100428Y-105914190D01*
X103862333Y-106390380D02*
X103862333Y-105390380D01*
X104243285Y-105390380D01*
X104338523Y-105438000D01*
X104386142Y-105485619D01*
X104433761Y-105580857D01*
X104433761Y-105723714D01*
X104386142Y-105818952D01*
X104338523Y-105866571D01*
X104243285Y-105914190D01*
X103862333Y-105914190D01*
X104719476Y-105390380D02*
X105052809Y-106390380D01*
X105386142Y-105390380D01*
X105671857Y-105485619D02*
X105719476Y-105438000D01*
X105814714Y-105390380D01*
X106052809Y-105390380D01*
X106148047Y-105438000D01*
X106195666Y-105485619D01*
X106243285Y-105580857D01*
X106243285Y-105676095D01*
X106195666Y-105818952D01*
X105624238Y-106390380D01*
X106243285Y-106390380D01*
X104687761Y-90373380D02*
X104354428Y-89897190D01*
X104116333Y-90373380D02*
X104116333Y-89373380D01*
X104497285Y-89373380D01*
X104592523Y-89421000D01*
X104640142Y-89468619D01*
X104687761Y-89563857D01*
X104687761Y-89706714D01*
X104640142Y-89801952D01*
X104592523Y-89849571D01*
X104497285Y-89897190D01*
X104116333Y-89897190D01*
X104973476Y-89373380D02*
X105306809Y-90373380D01*
X105640142Y-89373380D01*
X105878238Y-89373380D02*
X106497285Y-89373380D01*
X106163952Y-89754333D01*
X106306809Y-89754333D01*
X106402047Y-89801952D01*
X106449666Y-89849571D01*
X106497285Y-89944809D01*
X106497285Y-90182904D01*
X106449666Y-90278142D01*
X106402047Y-90325761D01*
X106306809Y-90373380D01*
X106021095Y-90373380D01*
X105925857Y-90325761D01*
X105878238Y-90278142D01*
X104560761Y-98613380D02*
X104227428Y-98137190D01*
X103989333Y-98613380D02*
X103989333Y-97613380D01*
X104370285Y-97613380D01*
X104465523Y-97661000D01*
X104513142Y-97708619D01*
X104560761Y-97803857D01*
X104560761Y-97946714D01*
X104513142Y-98041952D01*
X104465523Y-98089571D01*
X104370285Y-98137190D01*
X103989333Y-98137190D01*
X104846476Y-97613380D02*
X105179809Y-98613380D01*
X105513142Y-97613380D01*
X106275047Y-97946714D02*
X106275047Y-98613380D01*
X106036952Y-97565761D02*
X105798857Y-98280047D01*
X106417904Y-98280047D01*
M02*
